<?xml version="1.0" encoding="UTF-8" standalone="no"?>
<!-- Generator: Adobe Illustrator 13.0.2, SVG Export Plug-In . SVG Version: 6.00 Build 14948)  -->
<svg
   xmlns:dc="http://purl.org/dc/elements/1.1/"
   xmlns:cc="http://creativecommons.org/ns#"
   xmlns:rdf="http://www.w3.org/1999/02/22-rdf-syntax-ns#"
   xmlns:svg="http://www.w3.org/2000/svg"
   xmlns="http://www.w3.org/2000/svg"
   xmlns:sodipodi="http://sodipodi.sourceforge.net/DTD/sodipodi-0.dtd"
   xmlns:inkscape="http://www.inkscape.org/namespaces/inkscape"
   version="1.0"
   id="Layer_1"
   x="0px"
   y="0px"
   width="100"
   height="99.999191"
   viewBox="-0.258 -0.548 123.547 123.539"
   xml:space="preserve"
   sodipodi:version="0.32"
   inkscape:version="0.46"
   sodipodi:docname="fuel.svg"
   inkscape:output_extension="org.inkscape.output.svg.inkscape"><metadata
   id="metadata14"><rdf:RDF><cc:Work
       rdf:about=""><dc:format>image/svg+xml</dc:format><dc:type
         rdf:resource="http://purl.org/dc/dcmitype/StillImage" /></cc:Work></rdf:RDF></metadata><defs
   id="defs12"><inkscape:perspective
     sodipodi:type="inkscape:persp3d"
     inkscape:vp_x="0 : 61.769501 : 1"
     inkscape:vp_y="0 : 1000 : 0"
     inkscape:vp_z="123.547 : 61.769501 : 1"
     inkscape:persp3d-origin="61.773499 : 41.179667 : 1"
     id="perspective16" /></defs><sodipodi:namedview
   inkscape:window-height="850"
   inkscape:window-width="1440"
   inkscape:pageshadow="2"
   inkscape:pageopacity="0.0"
   guidetolerance="10.0"
   gridtolerance="10.0"
   objecttolerance="10.0"
   borderopacity="1.0"
   bordercolor="#666666"
   pagecolor="#ffffff"
   id="base"
   showgrid="false"
   inkscape:zoom="4.4841236"
   inkscape:cx="61.773499"
   inkscape:cy="60.655057"
   inkscape:window-x="-4"
   inkscape:window-y="-3"
   inkscape:current-layer="Layer_1" />
<g
   id="g3"
   transform="matrix(0.9966716,0,0,0.9966716,-0.5530148,0.7774536)">
	<path
   style="fill:#231f20"
   d="M 90.625,107.004 C 85.453,107.004 80.922,102.754 80.922,97.902 L 80.922,61.762 C 80.922,60.114 79.578,58.77 77.93,58.77 L 70.742,58.77 L 70.703,106.762 L 32.633,106.129 L 32.633,23.98 C 32.633,19.691 36.133,16.199 40.43,16.199 L 62.907,16.199 C 67.204,16.199 70.704,19.691 70.704,23.98 C 70.704,23.98 70.704,24.316 70.704,24.91 C 70.704,29.941 70.681,53.644 70.142,53.676 C 70.181,53.676 77.845,53.676 77.845,53.676 C 82.251,53.676 85.829,57.254 85.829,61.66 L 85.782,97.902 C 85.782,100.293 88.384,102.144 90.626,102.144 C 93.048,102.144 96.118,100.144 95.978,96.785 L 92.142,76.105 L 91.29,69.097 L 91.899,48.659 L 90.188,48.636 C 86.376,48.636 83.29,45.558 83.29,41.761 L 83.478,31.066 C 83.478,31.066 77.142,24.777 77.142,23.894 C 77.142,23.894 79.58,21.464 80.462,21.464 L 93.228,34.167 C 95.228,36.183 96.197,38.581 96.197,41.534 L 96.197,69.096 C 96.197,69.096 96.986,75.065 96.986,75.112 C 96.986,75.112 100.892,96.698 100.978,97.901 C 100.977,103.121 95.508,107.004 90.625,107.004 z M 109.086,-0.777 L 15.062,-0.777 C 6.914,-0.777 0.296,5.84 0.296,13.996 L 0.296,108.004 C 0.296,116.16 6.913,122.777 15.062,122.777 L 109.085,122.777 C 117.233,122.777 123.851,116.16 123.851,108.004 L 123.851,13.996 C 123.852,5.84 117.234,-0.777 109.086,-0.777 z"
   id="path5" />
	<path
   style="fill:#ffffff"
   d="M 15.062,1.723 C 8.296,1.723 2.796,7.231 2.796,13.996 L 2.796,108.004 C 2.796,114.777 8.296,120.285 15.062,120.285 L 109.085,120.285 C 115.858,120.285 121.351,114.777 121.351,108.004 L 121.351,13.996 C 121.351,7.23 115.859,1.723 109.085,1.723 L 15.062,1.723 L 15.062,1.723 z"
   id="path7" />
	<path
   style="fill:#231f20"
   d="M 65.055,42.934 C 65.055,44.129 64.11,45.059 62.907,45.059 L 40.43,45.059 C 39.219,45.059 38.282,44.129 38.282,42.934 L 38.282,23.98 C 38.282,22.785 39.22,21.855 40.43,21.855 L 62.907,21.855 C 64.11,21.855 65.055,22.785 65.055,23.98 L 65.055,42.934 z M 91.258,45.355 C 88.414,44.73 87.383,43.269 87.383,41.925 L 87.383,37.027 C 87.383,37.027 89.274,37.449 89.727,37.566 C 90.649,37.808 91.235,39.222 91.258,40.457 C 91.289,41.691 91.258,45.355 91.258,45.355 z M 96.984,75.113 C 96.984,75.066 96.195,69.097 96.195,69.097 L 96.195,41.535 C 96.195,38.582 95.226,36.183 93.226,34.168 L 80.461,21.465 C 79.578,21.465 77.141,23.895 77.141,23.895 C 77.141,24.778 83.477,31.067 83.477,31.067 L 83.289,41.762 C 83.289,45.559 86.375,48.637 90.187,48.637 L 91.898,48.66 L 91.289,69.098 L 92.141,76.106 L 95.977,96.786 C 96.118,100.145 93.047,102.145 90.625,102.145 C 88.383,102.145 85.781,100.293 85.781,97.903 L 85.828,61.661 C 85.828,57.255 82.25,53.677 77.844,53.677 C 77.844,53.677 70.18,53.677 70.141,53.677 C 70.68,53.646 70.703,29.943 70.703,24.911 C 70.703,24.317 70.703,23.981 70.703,23.981 C 70.703,19.692 67.203,16.2 62.906,16.2 L 40.43,16.2 C 36.133,16.2 32.633,19.692 32.633,23.981 L 32.633,106.129 L 70.703,106.762 L 70.742,58.77 L 77.93,58.77 C 79.578,58.77 80.922,60.114 80.922,61.762 L 80.922,97.903 C 80.922,102.755 85.453,107.005 90.625,107.005 C 95.508,107.005 100.977,103.122 100.977,97.903 C 100.891,96.699 96.984,75.113 96.984,75.113 z"
   id="path9" />
</g>
</svg>