<?xml version="1.0" encoding="UTF-8" standalone="no"?>
<svg
   xmlns:dc="http://purl.org/dc/elements/1.1/"
   xmlns:cc="http://creativecommons.org/ns#"
   xmlns:rdf="http://www.w3.org/1999/02/22-rdf-syntax-ns#"
   xmlns:svg="http://www.w3.org/2000/svg"
   xmlns="http://www.w3.org/2000/svg"
   xmlns:sodipodi="http://sodipodi.sourceforge.net/DTD/sodipodi-0.dtd"
   xmlns:inkscape="http://www.inkscape.org/namespaces/inkscape"
   version="1.0"
   baseProfile="full"
   id="body"
   width="86"
   height="86"
   viewBox="0 0 1 1"
   preserveAspectRatio="none"
   sodipodi:version="0.32"
   inkscape:version="0.46"
   sodipodi:docname="waste_disposal.svg"
   inkscape:output_extension="org.inkscape.output.svg.inkscape">
  <metadata
     id="metadata100">
    <rdf:RDF>
      <cc:Work
         rdf:about="">
        <dc:format>image/svg+xml</dc:format>
        <dc:type
           rdf:resource="http://purl.org/dc/dcmitype/StillImage" />
      </cc:Work>
    </rdf:RDF>
  </metadata>
  <defs
     id="defs98"><inkscape:perspective
   sodipodi:type="inkscape:persp3d"
   inkscape:vp_x="0 : 360 : 1"
   inkscape:vp_y="0 : 1000 : 0"
   inkscape:vp_z="720 : 360 : 1"
   inkscape:persp3d-origin="360 : 240 : 1"
   id="perspective102" />
<inkscape:perspective
   id="perspective16"
   inkscape:persp3d-origin="61.773499 : 41.179667 : 1"
   inkscape:vp_z="123.547 : 61.769501 : 1"
   inkscape:vp_y="0 : 1000 : 0"
   inkscape:vp_x="0 : 61.769501 : 1"
   sodipodi:type="inkscape:persp3d" />

<inkscape:perspective
   inkscape:persp3d-origin="90 : 60 : 1"
   sodipodi:type="inkscape:persp3d"
   inkscape:vp_x="0 : 90 : 1"
   inkscape:vp_y="0 : 1000 : 0"
   inkscape:vp_z="180 : 90 : 1"
   id="perspective2461">
		</inkscape:perspective>

	
	
		</defs>
  <sodipodi:namedview
     inkscape:window-height="850"
     inkscape:window-width="1440"
     inkscape:pageshadow="2"
     inkscape:pageopacity="0"
     guidetolerance="10.0"
     gridtolerance="10.0"
     objecttolerance="10.0"
     borderopacity="1.0"
     bordercolor="#666666"
     pagecolor="#ffffff"
     id="base"
     showgrid="false"
     inkscape:zoom="4.5112994"
     inkscape:cx="118.42841"
     inkscape:cy="51.17928"
     inkscape:window-x="-4"
     inkscape:window-y="-3"
     inkscape:current-layer="content" />
  <title
     id="title3">SVG drawing</title>
  <desc
     id="desc5">This was produced by version 4.2 of GNU libplot, a free library for exporting 2-D vector graphics.</desc>
  <g
     id="content"
     transform="matrix(1.7361e-3,0,0,-1.7361e-3,-0.4891854,0.7606965)"
     xml:space="preserve"
     stroke-miterlimit="10.433"
     fill-rule="even-odd"
     font-style="normal"
     font-variant="normal"
     font-weight="normal"
     font-stretch="normal"
     font-size-adjust="none"
     letter-spacing="normal"
     word-spacing="normal"
     style="font-style:normal;font-variant:normal;font-weight:normal;font-stretch:normal;letter-spacing:normal;word-spacing:normal;text-anchor:start;fill:none;fill-opacity:1;stroke:#000000;stroke-linecap:butt;stroke-linejoin:miter;stroke-miterlimit:10.43299961;stroke-dasharray:none;stroke-dashoffset:0;stroke-opacity:1">






<g
   transform="matrix(-4.6321561,-4.0982455e-5,4.0982455e-5,-4.6321561,859.24398,432.45316)"
   id="g3">
	<path
   id="path5"
   d="M 90.625,107.004 C 85.453,107.004 80.922,102.754 80.922,97.902 L 80.922,61.762 C 80.922,60.114 79.578,58.77 77.93,58.77 L 70.742,58.77 L 70.703,106.762 L 32.633,106.129 L 32.633,23.98 C 32.633,19.691 36.133,16.199 40.43,16.199 L 62.907,16.199 C 67.204,16.199 70.704,19.691 70.704,23.98 C 70.704,23.98 70.704,24.316 70.704,24.91 C 70.704,29.941 70.681,53.644 70.142,53.676 C 70.181,53.676 77.845,53.676 77.845,53.676 C 82.251,53.676 85.829,57.254 85.829,61.66 L 85.782,97.902 C 85.782,100.293 88.384,102.144 90.626,102.144 C 93.048,102.144 96.118,100.144 95.978,96.785 L 92.142,76.105 L 91.29,69.097 L 91.899,48.659 L 90.188,48.636 C 86.376,48.636 83.29,45.558 83.29,41.761 L 83.478,31.066 C 83.478,31.066 77.142,24.777 77.142,23.894 C 77.142,23.894 79.58,21.464 80.462,21.464 L 93.228,34.167 C 95.228,36.183 96.197,38.581 96.197,41.534 L 96.197,69.096 C 96.197,69.096 96.986,75.065 96.986,75.112 C 96.986,75.112 100.892,96.698 100.978,97.901 C 100.977,103.121 95.508,107.004 90.625,107.004 z M 109.086,-0.777 L 15.062,-0.777 C 6.914,-0.777 0.296,5.84 0.296,13.996 L 0.296,108.004 C 0.296,116.16 6.913,122.777 15.062,122.777 L 109.085,122.777 C 117.233,122.777 123.851,116.16 123.851,108.004 L 123.851,13.996 C 123.852,5.84 117.234,-0.777 109.086,-0.777 z"
   style="fill:#231f20" />
	<path
   id="path7"
   d="M 15.062,1.723 C 8.296,1.723 2.796,7.231 2.796,13.996 L 2.796,108.004 C 2.796,114.777 8.296,120.285 15.062,120.285 L 109.085,120.285 C 115.858,120.285 121.351,114.777 121.351,108.004 L 121.351,13.996 C 121.351,7.23 115.859,1.723 109.085,1.723 L 15.062,1.723 L 15.062,1.723 z"
   style="fill:#ffffff" />
	
</g><line
   x1="25.5"
   y1="2.5508001"
   x2="81.301003"
   y2="2.5508001"
   id="line21"
   style="stroke:#ffffff;stroke-width:0" />





































<g
   id="g2532"
   transform="matrix(-3.4459455,-1.5424193e-2,1.5424193e-2,-3.4459455,849.76364,484.31797)"><polyline
     points="  101.565,81.659 73.936,81.659 62.656,93.322 34.543,93.322 62.978,118.943 129.196,118.943 145.951,109.745 145.951,95.145   125.413,95.145 "
     stroke-miterlimit="3.863"
     id="polyline2448"
     style="fill:none;stroke:#000000;stroke-width:4;stroke-linecap:round;stroke-miterlimit:3.86299992"
     transform="matrix(1.162336,0,0,1.162336,-24.191332,-9.1805915)" /><polygon
     points="126.377,85.308 126.377,67.065 148.608,76.185 126.377,85.308 "
     id="polygon2450"
     transform="matrix(1.162336,0,0,1.162336,-24.191332,-9.1805915)" /><polygon
     points="91.981,109.902 91.981,93.48 115.825,93.48 115.825,104.982 112.601,109.902 91.981,109.902 "
     id="polygon2452"
     transform="matrix(1.162336,0,0,1.162336,-24.191332,-9.1805915)" /><polyline
     points="  100.116,107.604 86.261,107.604 86.261,60 108.976,60 108.976,76.185 127.988,76.185 "
     stroke-miterlimit="3.863"
     id="polyline2454"
     style="fill:none;stroke:#000000;stroke-width:6;stroke-linecap:round;stroke-linejoin:round;stroke-miterlimit:3.86299992"
     transform="matrix(1.162336,0,0,1.162336,-24.191332,-9.1805915)" /><path
     id="path2383"
     d="M 137.30671,125.76662 L 147.97202,119.94398 L 147.98658,109.36968 L 148.00107,98.795395 L 134.15246,98.908657 C 120.96982,99.016477 120.27691,99.058775 119.74387,99.788197 C 119.0298,100.76538 119.02976,102.01545 119.74376,102.99272 C 120.27178,103.71538 120.94618,103.7656 131.5959,103.87506 L 142.88819,103.99114 L 142.78004,110.51162 L 142.67187,117.03212 L 134.10729,121.74478 L 125.54271,126.45744 L 87.713795,126.45744 L 49.884955,126.45744 L 36.399723,114.3187 L 22.914449,102.17997 L 36.272217,102.07615 L 49.629983,101.97233 L 56.230889,95.069237 L 62.831755,88.166145 L 67.717291,88.166145 L 72.602747,88.166145 L 72.602747,102.68426 C 72.602747,118.86563 72.55656,118.5782 75.278992,119.3343 C 77.686607,120.00295 91.690404,119.86389 93.388288,119.15446 C 94.439795,118.71511 96.373899,118.56233 100.88395,118.56233 L 106.9624,118.56233 L 108.73082,115.8286 L 110.49929,113.09488 L 110.49929,106.15709 L 110.49929,99.219302 L 96.48546,99.219302 L 82.471637,99.219302 L 82.471637,105.73277 L 82.471637,112.24623 L 81.089992,112.24623 L 79.708348,112.24623 L 79.708348,100.20619 L 79.708348,88.166145 L 87.208705,88.166145 C 94.182733,88.166145 94.764482,88.110741 95.498579,87.376634 C 96.52119,86.354035 96.504255,84.931576 95.458187,83.983705 C 94.715025,83.310303 93.848492,83.218882 87.168321,83.109085 L 79.708348,82.98647 L 79.708348,73.536261 L 79.708348,64.086052 L 89.153902,64.086052 L 98.599459,64.086052 L 98.726723,72.409012 L 98.853999,80.731961 L 100.14315,81.883148 L 101.43239,83.034322 L 111.88713,83.034322 L 122.34196,83.034322 L 122.34196,86.587123 C 122.34196,88.541163 122.44565,90.139924 122.57242,90.139924 C 122.93575,90.139924 148.16486,79.791866 148.48772,79.510413 C 148.78099,79.254769 123.74148,68.82312 122.83457,68.82312 C 122.47957,68.82312 122.34196,69.760368 122.34196,72.178542 L 122.34196,75.533965 L 114.27165,75.533965 L 106.20131,75.533965 L 106.08047,67.209173 L 105.9596,58.884381 L 104.83616,57.918789 L 103.71273,56.9532 L 88.991421,57.065512 L 74.270116,57.177829 L 73.449537,58.164717 C 72.659197,59.115308 72.628524,59.590803 72.615892,71.092964 L 72.602747,83.034322 L 66.711255,83.034322 L 60.819765,83.034322 L 54.188502,89.93881 L 47.557239,96.8433 L 28.626551,96.945723 L 9.6958673,97.048147 L 28.813207,114.30345 L 47.930519,131.55876 L 87.285959,131.57401 L 126.64144,131.58926 L 137.30671,125.76662 z"
     style="opacity:1;fill:#000000;fill-opacity:0.75;fill-rule:nonzero;stroke:#000000;stroke-width:0.39475563;stroke-opacity:1"
     sodipodi:nodetypes="cccccsscccccccccccccccccsscccccccccccccccsscccccccccccccssscccccccccccccccccccccccc" /><path
     style="opacity:1;fill:#000000;fill-opacity:1;fill-rule:evenodd;stroke:#000000;stroke-width:0.4446781;stroke-miterlimit:4;stroke-dasharray:none;stroke-opacity:1"
     d="M 135.03136,84.17232 C 141.07348,81.687952 146.01436,79.529412 146.01108,79.375572 C 146.00518,79.097515 124.26601,70.064969 123.62887,70.075825 C 123.44544,70.078953 123.30109,71.356607 123.30806,72.915054 L 123.32074,75.7486 L 125.02713,76.013637 C 126.37864,76.223552 126.90442,76.592651 127.55529,77.78837 C 128.2553,79.07438 128.29656,79.494888 127.83381,80.626382 C 127.27784,81.985765 125.76863,82.966234 124.22152,82.973159 C 123.44915,82.976616 123.35453,83.296709 123.36604,85.867425 C 123.37315,87.457132 123.52898,88.742405 123.71233,88.723577 C 123.89567,88.704756 128.98925,86.65669 135.03136,84.17232 z"
     id="path2540" /><path
     style="opacity:1;fill:#000000;fill-opacity:1;fill-rule:evenodd;stroke:#000000;stroke-width:0.4446781;stroke-miterlimit:4;stroke-dasharray:none;stroke-opacity:1"
     d="M 108.04432,115.13442 L 109.70025,112.53841 L 109.67335,106.53043 L 109.64646,100.52245 L 100.2353,100.2715 C 95.059179,100.1335 89.155549,100.02805 87.116152,100.03718 L 83.408098,100.05378 L 83.434968,106.05687 L 83.461838,112.05997 L 86.463525,112.07899 C 91.292496,112.10961 94.173838,112.63991 94.74965,113.60403 C 95.587537,115.00696 95.81416,116.18456 95.404957,117.00919 C 95.046392,117.73181 95.435661,117.78696 100.70317,117.75978 L 106.38837,117.73043 L 108.04432,115.13442 z"
     id="path2542" /></g></g></svg>
