<svg
  xmlns="http://www.w3.org/2000/svg"
  xmlns:xlink="http://www.w3.org/1999/xlink"
  version="1.1"
  width="300"
  height="400">
  <symbol id="anchor_berth" width="300" height="400">
    <path
      d="m 161.11025,104.802 c -6.59464,0 -11.9375,4.76407 -11.9375,10.6875 0,5.03528 3.87724,9.25772 9.09375,10.40625 l 0,4.21875 -16.875,-0.1875 0,5.09375 16.90625,0 -0.1875,8.125 c -12.39398,1.48081 -22,12.01978 -22,24.8125 0,12.38013 8.99897,22.66403 20.8125,24.65625 l -0.21875,9.34375 c -11.94144,-0.94579 -22.58874,-5.35063 -30.28125,-11.96875 l 4.5,-3.9375 -17.71875,-13.0625 3.625,25.34375 6.75,-5.875 c 8.72205,9.68755 20.62034,15.45935 33.09375,16.65625 l 0.8125,7.3125 8.09375,0 0.78125,-7.3125 c 7.70333,-0.71618 15.34546,-3.20431 22.34375,-7.59375 4.14174,-2.59849 7.59588,-5.45141 10.625,-8.8125 l 6.09375,5.625 4.40625,-25 -17.6875,12.71875 4.34375,4 c -7.67088,6.55949 -18.23639,10.95948 -30.09375,11.90625 l -0.21875,-9.5 c 11.37721,-2.34261 19.9375,-12.42938 19.9375,-24.5 0,-12.50188 -9.17125,-22.87212 -21.15625,-24.71875 l -0.1875,-8.25 16.90625,0 0,-5.0625 -17.375,0.0625 0,-4.15625 c 5.03607,-1.26041 8.71875,-5.42328 8.71875,-10.34375 0,-5.92343 -5.32243,-10.6875 -11.90625,-10.6875 z m 0,5.59375 c 3.13679,0 5.6875,2.30765 5.6875,5.125 0,2.81784 -2.5512,5.09375 -5.6875,5.09375 -3.13482,0 -5.65625,-2.27493 -5.65625,-5.09375 0,-2.81638 2.52143,-5.125 5.65625,-5.125 z m 0.0937,36.40625 c 11.59798,0 21,9.40202 21,21 0,11.59798 -9.40202,21 -21,21 -11.59798,0 -21,-9.40202 -21,-21 0,-11.59798 9.40202,-21 21,-21 z"
        style="fill:#a30075;fill-opacity:1;stroke:none" transform="translate(-11.204,38.198)"/>
  </symbol>
  <use xlink:href="#anchor_berth" x="0" y="0" />
</svg>
