<svg
   xmlns="http://www.w3.org/2000/svg"
   version="1.1"
   width="300"
   height="400">
  <g id="land_cross">
    <path d="m 119,67 0,8 62,0 0,-8 -62,0 z m 27,-33 0,152 8,0 0,-152 -8,0 z m -33.46875,163.53125 0,5 25,0 0,-5 -25,0 z m 50,0 0,5 25,0 0,-5 -25,0 z M 150.0443,185.041 c -8.25466,0 -15,6.74534 -15,15 0,8.25466 6.74534,15 15,15 8.25466,0 15,-6.74534 15,-15 0,-8.25466 -6.74534,-15 -15,-15 z m 0,5 c 5.55246,0 10,4.44754 10,10 0,5.55246 -4.44754,10 -10,10 -5.55246,0 -10,-4.44754 -10,-10 0,-5.55246 4.44754,-10 10,-10 z"/>
  </g>
</svg>
