<svg
   xmlns:svg="http://www.w3.org/2000/svg"
   xmlns="http://www.w3.org/2000/svg"
   version="1.1"
   width="300"
   height="400">
    <g id="harbour" transform="translate(70.261,119.99)">
      <g transform="translate(0,-160)">
        <path
           d="m 152.5,240 c 0,40.025 -32.476,72.5 -72.5,72.5 -40.024,0 -72.5,-32.475 -72.5,-72.5 0,-40.025 32.476,-72.5 72.5,-72.5 40.024,0 72.5,32.475 72.5,72.5 z"
           style="fill:none;stroke:#a30075;stroke-width:15" />
        <path
           d="m 126.28,252.23 -4.2126,23.746 -5.7748,-5.3352 c -2.8799,3.1949 -6.1595,5.9054 -10.097,8.3755 -6.6536,4.1724 -13.936,6.5319 -21.26,7.2126 l -0.74838,6.9489 h -7.6993 l -0.76988,-6.9489 c -11.863,-1.14 -23.17,-6.62 -31.462,-15.83 l -6.4129,5.5767 -3.4423,-24.074 16.838,12.403 -4.2893,3.7331 c 7.3137,6.2909 17.443,10.496 28.797,11.395 l 1.5178,-63.649 h -16.071 v -4.8202 l 16.037,0.176 v -4.0076 c -4.9596,-1.0857 -8.6431,-5.0932 -8.6431,-9.8796 0,-5.6305 5.0788,-10.186 11.349,-10.186 6.2596,0 11.342,4.556 11.342,10.186 0,4.6772 -3.5185,8.6285 -8.3065,9.8266 v 3.9402 l 16.51,-0.0557 v 4.8202 h -16.07 l 1.5505,63.649 c 11.273,-0.89997 21.326,-5.0724 28.619,-11.308 l -4.1458,-3.8213 16.84,-12.074 z"
           style="fill:#a30075;stroke:#a30075;stroke-width:4.90100002" />
        <ellipse cx="160.02" cy="69.002998" rx="11.553" ry="10.449"
           transform="matrix(0.46745,0,0,0.46437,5.1513,165.21)"
           style="fill:none;stroke:#ffffff;stroke-width:10.51900005" />
      </g>
      <g transform="matrix(0.46745,0,0,0.46437,5.1513,5.2095)" style="fill-opacity:0">
        <path
           d="m 259.13,187.39 -9.012,51.135 -12.354,-11.489 c -6.161,6.88 -13.177,12.717 -21.601,18.036 -14.234,8.985 -29.813,14.066 -45.481,15.532 l -1.601,14.964 H 152.61 l -1.647,-14.964 c -25.37,-2.45 -49.56,-14.25 -67.3,-34.08 l -13.719,12.009 -7.364,-51.841 36.022,26.709 -9.176,8.039 c 15.646,13.547 37.316,22.602 61.604,24.538 l 3.247,-137.06 h -34.381 v -10.38 l 34.307,0.379 v -8.63 c -10.61,-2.351 -18.49,-10.981 -18.49,-21.288 0,-12.125 10.865,-21.936 24.278,-21.936 13.391,0 24.264,9.811 24.264,21.936 0,10.072 -7.527,18.581 -17.77,21.161 v 8.485 l 35.32,-0.12 v 10.38 h -34.379 l 3.317,137.06 c 24.117,-1.938 45.622,-10.923 61.224,-24.35 l -8.869,-8.229 36.025,-26.001 z M 171.58,69 c 0,-5.767 -5.173,-10.447 -11.553,-10.447 -6.376,0 -11.549,4.682 -11.549,10.447 0,5.77 5.173,10.449 11.549,10.449 6.379,0 11.553,-4.681 11.553,-10.449 z"/>
        <ellipse cx="160.02" cy="69.002998" rx="11.553" ry="10.449" />
      </g>
    </g>
</svg>
