<?xml version="1.0" encoding="UTF-8" standalone="no"?>
<!-- Created with Inkscape (http://www.inkscape.org/) -->
<svg id="svg2" xmlns:rdf="http://www.w3.org/1999/02/22-rdf-syntax-ns#" xmlns="http://www.w3.org/2000/svg" height="400" width="300" version="1.1" xmlns:cc="http://creativecommons.org/ns#" xmlns:dc="http://purl.org/dc/elements/1.1/">
 <metadata id="metadata7">
  <rdf:RDF>
   <cc:Work rdf:about="">
    <dc:format>image/svg+xml</dc:format>
    <dc:type rdf:resource="http://purl.org/dc/dcmitype/StillImage"/>
    <dc:title/>
   </cc:Work>
  </rdf:RDF>
 </metadata>
 <g id="layer7">
  <path id="path12043" fill="#a30075" d="m84.221 250.34h61.949l1.9909-114.04h2.9948l0.49374 23.344 24.491-11.69-0.14135 10.152 0.35189 10.135 1.1985 10.064 2.396 9.8315 3.5418 9.5095 4.3864 9.134 5.0399 8.8125 6.0438 8.0427 6.1668 6.4177-51.977 10.135v10.153h62.441l-6.766 7.544-7.1184 7.1306-7.7002 6.3463-8.5986 5.2021-9.2845 3.9694-9.7971 2.7533-10.026 1.5012-10.095 0.24912-9.9897-0.9825-9.7608-2.2526-9.4801-3.5391-8.9853-4.7358-8.2283-5.8805-7.2757-6.9893-6.3265-7.7921-1.9356-2.5232zm15.487-5.595-0.63459-10.189-0.10602-10.117 0.96856-10.028 2.3786-9.831 3.595-9.527 4.5974-9.1335 5.462-8.5804 6.3962-7.7936 7.3996-6.7212 8.176-5.8635 5.2156-3.4318-5.3923 8.5619-4.6512 8.9378-3.4532 9.5264-2.2387 9.9393-1.1273 10.136 0.0518 10.135 1.3389 10.03 1.9909 9.2594-29.967 14.691m-18.482 0.53568-4.3864-9.133-3.702-9.3502-2.3771-9.812-1.0049-10.171 0.38772-10.261 1.7087-10.117 2.9435-9.831 4.1405-9.3677 5.25-8.7401 6.3076-8.0078 7.2239-7.1316 8.087-6.1311 8.8086-5.1117 9.392-3.8975 9.8832-2.6979 10.15-1.3769 10.273-0.10783 10.202 1.1792 9.9365 2.4493 9.4965 3.7178 8.845 5.0054 8.0874 6.1486 7.2413 7.2035 6.3265 8.0981 5.3908 8.8485 4.2988 9.455 3.1361 9.9213 1.9376 10.171 0.5465 10.224-0.91531 10.03-2.4149 9.7411-3.5766 9.455-4.14 9.3123-0.12344 0.28756h-7.9814l4.4934-9.1525 3.8758-9.3302 2.5732-9.7246 1.0741-10.135-0.49274-10.26-1.8674-10.171-3.2247-9.7965-4.4735-9.2763-5.6566-8.508-6.7302-7.6678-7.7366-6.578-8.5976-5.4332-9.3213-4.1482-9.7603-2.8252-10.112-1.3934-10.203 0.0714-10.077 1.5556-9.7971 2.967-9.285 4.254-8.5633 5.5231-7.6987 6.6673-6.6431 7.7032-5.5147 8.5624-4.4043 9.2953-3.2247 9.795-1.9008 10.17-0.52908 10.261 1.0039 10.099 2.6608 9.7057 3.9823 9.2948 4.2645 8.4726-7.4912 0.0005z"/>
 </g>
</svg>
