<?xml version="1.0" encoding="UTF-8" standalone="no"?>
<!-- Created with Inkscape (http://www.inkscape.org/) -->
<svg id="svg2" xmlns:rdf="http://www.w3.org/1999/02/22-rdf-syntax-ns#" xmlns="http://www.w3.org/2000/svg" height="400" width="300" version="1.1" xmlns:cc="http://creativecommons.org/ns#" xmlns:dc="http://purl.org/dc/elements/1.1/">
 <metadata id="metadata7">
  <rdf:RDF>
   <cc:Work rdf:about="">
    <dc:format>image/svg+xml</dc:format>
    <dc:type rdf:resource="http://purl.org/dc/dcmitype/StillImage"/>
    <dc:title/>
   </cc:Work>
  </rdf:RDF>
 </metadata>
 <g id="layer8">
  <g id="g3962" transform="translate(119.76 169.99)">
   <path id="path5" d="m41.071 54.518v-41.006c0-2.7665-2.578-5.4698-5.4695-5.4698-1.8232 0-2.9864 0.72303-3.7726 1.5089-0.78528 0.78588-1.2256 1.226-1.2256 1.226" stroke="#a30075" stroke-width="2" fill="none"/>
   <path id="path7-1" d="m41.482 50.288" stroke="#a30075" stroke-width="8" fill="#fff"/>
   <line id="line9" stroke-width="3" x1="25.058" y1="5.4497" stroke="#a30075" x2="36.161" y2="16.553" fill="none"/>
   <line id="line11" stroke-width="2" x1="29.516" y1="15.611" stroke="#a30075" x2="22.172" y2="25.599" fill="none"/>
   <line id="line13" stroke-width="2" x1="33.048" y1="17.854" stroke="#a30075" x2="29.804" y2="29.82" fill="none"/>
   <line id="line15" stroke-width="2" x1="26.103" y1="12.271" stroke="#a30075" x2="16.114" y2="19.615" fill="none"/>
   <line id="line17" stroke-width="2" x1="23.859" y1="8.7397" stroke="#a30075" x2="11.893" y2="11.983" fill="none"/>
   <rect id="rect3768" rx="10" ry="10" height="58" width="58" stroke="#a30075" y="1" x="1" stroke-width="2" fill="none"/>
   <path id="path4897" d="m9.5947 57.839c-1.9461-0.328-3.4979-1.13-4.9059-2.537-1.0901-1.089-1.74-2.143-2.2077-3.582-0.4295-1.321-0.4096-0.27-0.4096-21.721 0-21.45-0.0199-20.4 0.4096-21.721 0.4677-1.4382 1.1176-2.4927 2.2077-3.5819 1.4369-1.4357 3.0204-2.2421 4.984-2.5381 1.1702-0.1763 39.447-0.1797 40.615-0.0036 3.3879 0.51073 6.2053 2.8876 7.2141 6.0861 0.48114 1.5255 0.45603 0.24098 0.43155 22.083l-0.02243 20.011-0.18313 0.68592c-0.10072 0.37726-0.25431 0.87734-0.34132 1.1113-0.93094 2.5032-3.1059 4.579-5.6327 5.3759-1.5085 0.47577-0.3767 0.45276-21.842 0.44409-15.804-0.005-19.814-0.028-20.317-0.112zm32.524-24.229-0.022-20.961-0.179-0.628c-0.51214-1.7976-1.8868-3.4855-3.5007-4.2982-1.0871-0.54745-1.512-0.64155-2.8971-0.64155-1.0824 0-1.3323 0.025294-1.856 0.18784-0.765 0.2377-1.529 0.6498-2.098 1.1322-0.244 0.2069-0.51 0.4278-0.59 0.4907-0.135 0.1051-0.336-0.0747-2.462-2.1997-1.273-1.2728-2.351-2.3142-2.394-2.3142-0.10498 0-2.1391 2.0322-2.1391 2.1371 0 0.10554 10.989 11.097 11.094 11.097 0.10531 0 2.1398-2.0316 2.1398-2.1368 0-0.04476-1.0985-1.1818-2.4411-2.5267l-2.4411-2.4453 0.36314-0.3209c0.71658-0.63323 1.335-0.91425 2.3108-1.05 2.1206-0.29508 4.3864 1.3509 4.9085 3.5656 0.10677 0.45294 0.12183 3.0507 0.12287 21.195l0.0012 20.679h1.0504 1.0504l-0.02152-20.961zm-9.7111-9.4012c0.88108-3.2511 1.606-5.9608 1.611-6.0216 0.0061-0.07487-0.30386-0.19657-0.95927-0.37668-0.53255-0.14634-0.98046-0.25388-0.99536-0.23898-0.03723 0.03723-3.2397 11.842-3.2406 11.945-0.000564 0.0674 1.5977 0.56875 1.8986 0.59556 0.04602 0.0041 0.80456-2.6525 1.6856-5.9036zm-5.6461-3.0763c1.9839-2.7017 3.5769-4.9421 3.5402-4.9787-0.26646-0.26512-1.601-1.1946-1.6446-1.1454-0.07701 0.08689-7.2121 9.8059-7.2813 9.9182-0.03534 0.05733 0.25552 0.32602 0.76564 0.70729 0.65259 0.48774 0.84232 0.59373 0.91788 0.51277 0.05239-0.05613 1.7184-2.3125 3.7023-5.0142zm-4.9832-4.3746c2.7165-1.9936 4.9407-3.6463 4.9427-3.6727 0.0019-0.0264-0.26799-0.4165-0.59982-0.86688l-0.60334-0.81887-3.0482 2.242c-1.6765 1.2331-3.9306 2.8904-5.0092 3.6829-1.1435 0.84019-1.9452 1.4821-1.9231 1.5397 0.09745 0.25394 1.1308 1.5755 1.211 1.5488 0.04993-0.0166 2.3134-1.6613 5.0299-3.6549zm-2.7805-5.6203c2.8294-0.7663 5.1444-1.4258 5.1444-1.4656 0-0.23448-0.5194-1.9051-0.5923-1.9051-0.17336 0-11.796 3.1672-11.868 3.2341-0.06447 0.05987 0.0278 0.49385 0.37037 1.742l0.07008 0.25532 0.86562-0.23369c0.47609-0.12853 3.1806-0.86066 6.01-1.627z" fill-opacity=".50196" fill="#fff"/>
  </g>
 </g>
</svg>
