<?xml version="1.0" encoding="UTF-8" standalone="no"?>
<!-- Created with Inkscape (http://www.inkscape.org/) -->
<svg id="svg2" xmlns:rdf="http://www.w3.org/1999/02/22-rdf-syntax-ns#" xmlns="http://www.w3.org/2000/svg" height="400" width="300" version="1.1" xmlns:cc="http://creativecommons.org/ns#" xmlns:dc="http://purl.org/dc/elements/1.1/">
 <metadata id="metadata7">
  <rdf:RDF>
   <cc:Work rdf:about="">
    <dc:format>image/svg+xml</dc:format>
    <dc:type rdf:resource="http://purl.org/dc/dcmitype/StillImage"/>
    <dc:title/>
   </cc:Work>
  </rdf:RDF>
 </metadata>
 <g id="layer11">
  <g id="g4122" transform="matrix(.0932 0 0 .0932 120.26 170.24)">
   <rect id="rect5" height="454.09" width="36.787" y="98.142" x="322.36" fill="#a30075"/>
   <path id="path7-8" d="m524.23 134.35c0 21.333-17.294 38.627-38.627 38.627s-38.627-17.294-38.627-38.627 17.294-38.627 38.627-38.627 38.627 17.294 38.627 38.627z" fill="#a30075"/>
   <path id="path9-3" d="m224.18 138.38c0 21.333-17.294 38.627-38.627 38.627s-38.627-17.294-38.627-38.627 17.294-38.627 38.627-38.627 38.627 17.294 38.627 38.627z" fill="#a30075"/>
   <path id="path11" d="m176.78 413.46h14.632l2.4387 129.25h23.574l2.4387-130.06 39.019-0.81289-42.27-155.26 11.38-6.5031 34.141 112.18 25.2-13.819-51.212-149.57-103.24-3.2516-52.838 156.08 22.761 8.9418 37.393-110.55 10.568 1.6258-42.27 158.51 35.767 0.81289 4.8773 132.5h23.574l4.0645-130.06z" fill-rule="evenodd" fill="#a30075"/>
   <path id="path13" d="m431.22 194.79 99.173-0.81289 32.516 25.2 5.6902 145.51-28.451-0.8129-3.2516-115.43-14.632-1.6258 0.40645 297.11-27.232 0.81287-5.6902-176.8-13.819-0.81291-3.2516 178.84-25.2-1.6258-1.6258-295.08h-15.445l1.6258 112.99-27.638 0.81289-2.4387-142.26 29.264-26.013z" fill-rule="evenodd" fill="#a30075"/>
   <rect id="rect3764-7" rx="100" ry="100" height="622.32" width="622.32" stroke="#a30075" y="10.73" x="10.73" stroke-width="21.459" fill="none"/>
   <path id="path5027" d="m9.2737 57.901c-0.0702-0.015-0.3575-0.071-0.6384-0.125-1.4991-0.287-3.0779-1.14-4.1857-2.264-1.3511-1.37-2.1363-3.018-2.3549-4.942-0.0432-0.38-0.0651-7.375-0.0646-20.619 0.0006-16.946 0.0147-20.148 0.0913-20.715 0.4813-3.5627 3.1194-6.3425 6.7054-7.0656 0.54789-0.11048 1.5274-0.11585 21.13-0.11585 15.998 0 20.655 0.017437 21.007 0.078656 3.1123 0.5419 5.5841 2.6397 6.564 5.5708 0.45236 1.3532 0.42061-0.33016 0.4208 22.311 0.000191 21.726 0.01362 20.701-0.28684 21.865-0.69413 2.688-2.9015 4.9257-5.6733 5.7511-1.0963 0.3265-0.05551 0.31214-22.063 0.30446-11.288-0.0039-20.581-0.01937-20.651-0.03429zm24.226-27.599v-21.193h-1.7555-1.7555v21.193 21.193h1.7555 1.7555v-21.193zm10.616 18.816c0.02199-0.99184 0.08572-4.6185 0.14163-8.0592 0.0559-3.4407 0.11668-6.3819 0.13506-6.536l0.03342-0.28007 0.58328 0.04403c0.32081 0.02422 0.58847 0.04971 0.59481 0.05664 0.0063 0.0069 0.13038 3.7026 0.27564 8.2125 0.14526 4.51 0.27601 8.2118 0.29054 8.2264 0.01454 0.01454 0.606 0.0052 1.3144-0.02071l1.2879-0.04714-0.04776-13.853-0.04776-13.853 0.15136 0.03645c0.08325 0.02005 0.38835 0.05647 0.678 0.08094l0.52664 0.04449-0.0019 0.32689c-0.0023 0.38814 0.27151 10.407 0.2849 10.426 0.0051 0.0072 0.62286 0.03335 1.3729 0.05808l1.3636 0.04497-0.03901-0.53685c-0.02146-0.29527-0.14695-3.3596-0.27888-6.8097l-0.23986-6.2729-1.5244-1.1827-1.5244-1.1827-4.6424 0.04482-4.6424 0.04482-1.3519 1.2048-1.3519 1.2048-0.000574 0.81182c-0.000696 0.99633 0.19897 12.488 0.21732 12.508 0.0072 0.0076 0.59769-0.0042 1.3121-0.02632l1.2989-0.04021-0.04198-3.8357c-0.02309-2.1097-0.06031-4.4749-0.08272-5.2561l-0.04073-1.4203h0.70178 0.70178l0.04188 8.3146c0.02303 4.573 0.06052 10.76 0.0833 13.748l0.04143 5.4334 0.99572 0.06154c0.54765 0.03385 1.0845 0.06642 1.193 0.07238l0.19723 0.01084 0.03999-1.8034h0.000006zm-27.978 1.3086c0.0012-0.19675 0.37273-11.822 0.37951-11.873 0.0012-0.0088 0.28631-0.01596 0.63366-0.01596h0.63156l0.03862 1.0373c0.02124 0.57053 0.06768 2.8758 0.10321 5.1228s0.08165 4.4948 0.10249 4.9951l0.03789 0.90966h1.1031 1.1031l0.03947-1.1969c0.02171-0.6583 0.06873-3.0641 0.1045-5.3462s0.08162-4.4725 0.10188-4.8675l0.03684-0.71815 1.0629-0.0087c0.58462-0.0048 1.3964-0.02631 1.804-0.04788l0.74102-0.03922-1.9284-7.0858c-1.0606-3.8972-1.9479-7.1469-1.9717-7.2215-0.03759-0.11798 0.02296-0.17331 0.46135-0.42169l0.50461-0.2859 0.07128 0.23018c0.0392 0.1266 0.75182 2.4708 1.5836 5.2094 0.83177 2.7385 1.5168 4.9866 1.5223 4.9956 0.0199 0.03265 2.3923-1.2931 2.3923-1.3368 0-0.08497-4.732-13.873-4.7758-13.915-0.0241-0.02346-1.9685-0.10202-4.3208-0.17459s-4.5169-0.13955-4.8101-0.14886l-0.53307-0.01692-2.4512 7.2388c-1.3482 3.9814-2.4505 7.2705-2.4496 7.3092 0.00182 0.07867 2.0859 0.90863 2.1416 0.85289 0.019497-0.0195 0.81084-2.3285 1.7585-5.1312 0.9477-2.8027 1.7327-5.1054 1.7445-5.1171 0.01177-0.01177 0.22023 0.01622 0.46325 0.0622l0.44184 0.08361-1.9244 7.2134c-1.0584 3.9674-1.943 7.2878-1.9657 7.3788l-0.0413 0.16536 1.6358 0.04083c0.89971 0.02246 1.6525 0.05746 1.6728 0.07779 0.02033 0.02033 0.13725 2.793 0.25982 6.1614l0.22286 6.1244h1.1352 1.1352l0.0014-0.23938h-0.000001zm1.926-33.985c1.9016-0.4023 3.1433-2.289 2.7916-4.2416-0.186-1.031-0.976-2.076-1.911-2.5269-0.619-0.2985-0.986-0.3823-1.674-0.3823-1.5723 0-2.9504 1.0061-3.4374 2.5097-0.19123 0.59033-0.20606 1.4855-0.03415 2.0603 0.38025 1.2715 1.3469 2.2229 2.5922 2.5515 0.42692 0.11263 1.2139 0.1265 1.6725 0.02946zm28.103-0.409c1.58-0.41154 2.7164-1.8795 2.7164-3.5091 0-1.1459-0.57594-2.2793-1.4896-2.9313-0.624-0.4453-1.153-0.6237-1.957-0.6594-1.144-0.0508-1.922 0.2452-2.721 1.035-0.7279 0.71968-1.0671 1.5319-1.0671 2.5554 0 1.0215 0.33838 1.8329 1.0671 2.5587 0.48634 0.48443 1.049 0.81011 1.6522 0.95627 0.46676 0.1131 1.353 0.11022 1.7986-0.0058v-0.000002z" fill-opacity=".50196" transform="scale(10.73)" fill="#fff"/>
  </g>
 </g>
</svg>
