<?xml version="1.0" encoding="UTF-8" standalone="no"?>
<svg id="body" xmlns:rdf="http://www.w3.org/1999/02/22-rdf-syntax-ns#" xmlns="http://www.w3.org/2000/svg" height="99.931" viewBox="0 0 1.1602784 1.1619869" width="99.784" version="1.0" preserveAspectRatio="none" xmlns:cc="http://creativecommons.org/ns#" xmlns:dc="http://purl.org/dc/elements/1.1/">
 <metadata id="metadata100">
  <rdf:RDF>
   <cc:Work rdf:about="">
    <dc:format>image/svg+xml</dc:format>
    <dc:type rdf:resource="http://purl.org/dc/dcmitype/StillImage"/>
    <dc:title>SVG drawing</dc:title>
   </cc:Work>
  </rdf:RDF>
 </metadata>
 <title id="title3">SVG drawing</title>
 <desc id="desc5">This was produced by version 4.2 of GNU libplot, a free library for exporting 2-D vector graphics.</desc>
 <g id="content" fill-rule="even-odd" xml:space="preserve" transform="matrix(.0017361 0 0 -.0017361 -.49169 1.3862)" stroke="#000" stroke-miterlimit="10.433" fill="none">
<g id="g3" transform="matrix(-5.3656 -.000047543 .000047472 -5.3736 950.44 791.58)">
	<path id="path5" fill="#231f20" d="m90.625 107c-5.172 0-9.703-4.25-9.703-9.102v-36.14c0-1.648-1.344-2.992-2.992-2.992h-7.188l-0.039 47.992-38.07-0.633v-82.149c0-4.289 3.5-7.781 7.797-7.781h22.477c4.297 0 7.797 3.492 7.797 7.781v0.93c0 5.031-0.023 28.734-0.562 28.766h7.703c4.406 0 7.984 3.578 7.984 7.984l-0.047 36.242c0 2.391 2.602 4.242 4.844 4.242 2.422 0 5.492-2 5.352-5.359l-3.836-20.676-0.852-7.008 0.609-20.438-1.711-0.023c-3.812 0-6.898-3.078-6.898-6.875l0.188-10.695s-6.336-6.289-6.336-7.172c0 0 2.438-2.43 3.32-2.43l12.766 12.703c2 2.016 2.969 4.414 2.969 7.367v27.562s0.789 5.969 0.789 6.016c0 0 3.906 21.586 3.992 22.789-0.001 5.22-5.47 9.103-10.353 9.103zm18.461-107.78h-94.024c-8.152 0.003-14.77 6.62-14.77 14.776v94.008c0 8.156 6.617 14.773 14.766 14.773h94.023c8.148 0 14.766-6.617 14.766-14.773v-94.008c0-8.152-6.62-14.769-14.76-14.769z"/>
	<path id="path7" fill="#fff" d="m15.062 1.723c-6.766 0-12.266 5.508-12.266 12.273v94.008c0 6.773 5.5 12.281 12.266 12.281h94.023c6.773 0 12.266-5.508 12.266-12.281v-94.008c0-6.766-5.492-12.273-12.266-12.273h-94.023z"/>
</g><line id="line21" stroke-width="0" y2="2.5508" x2="81.301" y1="2.5508" x1="25.5"/>
<path id="path39" stroke-width="0" fill="#fff" d="m646.27 576.16h-2.28l-2.2434 0.2443-2.2192 0.24409-2.1824 0.36642-2.1337 0.48842-2.1092 0.61055-2.0606 0.61053-2.024 0.73255-1.9629 0.85478-1.9265 0.97687-1.8654 1.0989-1.8046 1.099-1.7435 1.0989-1.6948 1.3432-1.6094 1.3432-1.5606 1.4652-1.4754 1.4653-1.4022 1.5874-1.3289 1.5873-1.256 1.7095-1.1582 1.7095-1.0852 1.8316-0.98754 1.8316-0.89007 1.9538-0.80468 1.9536-0.7072 2.0759-0.60967 2.0758-0.49986 2.0758-0.39023 2.1981-0.29261 2.1979-0.17064 2.1979-0.0609 2.32c0 23.811 20.154 43.958 44.539 43.958 23.763 0 43.235-20.148 43.235-43.958 0-24.421-19.471-43.348-43.235-43.348z"/>
<g id="g3638" stroke="#000"><path id="path2849" d="m53.922 22.026c14.526-0.40869 26.645 10.653 27.067 24.707 0.42243 14.054-11.011 25.778-25.537 26.187-0.5087 0.01431-1.0177 0.01434-1.5264 0.000094" transform="matrix(4.9942 0 0 -5.1621 387.71 709.22)" stroke-miterlimit="10.433" stroke-width="10.553" fill="none"/><rect id="rect3623" transform="scale(1,-1)" height="4.183" width="191.42" stroke-miterlimit="10.433" y="-597.72" x="442.17" stroke-width="49.399" fill="none"/><rect id="rect3625" transform="scale(1,-1)" height="6.9311" width="103.03" stroke-miterlimit="10.433" y="-336.2" x="531.16" stroke-width="46.651" fill="none"/><path id="path3631" d="m421.93 332.9 83.032 66.611 0.15374-133.9-83.186 67.289z" stroke-width="6.6977px" fill="#000"/></g><path id="path5295" d="m10.85 96.978c-0.782-0.104-2.5028-0.729-3.2996-1.198-1.0122-0.595-2.2409-1.718-2.9063-2.657-1.0422-1.469-1.5427-2.849-1.7226-4.748-0.081-0.854-0.1067-13.081-0.0828-39.311l0.034738-38.071 0.24526-0.9117c0.9217-3.4256 3.2138-5.7962 6.6453-6.8726l0.97495-0.3058h39.069 39.069l0.94052 0.25065c3.2209 0.85837 5.7123 3.2706 6.7283 6.5143l0.31114 0.99337v39.29c0 37.533-0.0089 39.322-0.20002 40.011-0.28683 1.0331-1.1994 2.8228-1.8505 3.6293-1.1193 1.3864-2.9275 2.5814-4.77 3.1523l-0.82696 0.25625-39.013 0.01164c-21.457 0.0064-39.163-0.0084-39.346-0.03293zm22.832-19.868-0.08174-3.5415 12.787-0.03758 12.787-0.03758 1.2746-0.25298c3.3445-0.6638 6.1877-1.776 8.7182-3.4104 8.12-5.244 12.241-14.827 10.453-24.311-1.185-6.292-4.777-11.714-10.141-15.312-2.275-1.526-5.192-2.774-7.868-3.367-2.779-0.616-2.409-0.606-22.8-0.606h-18.817v4.0421 4.0421l19.091 0.03793c21.12 0.04196 19.598-0.01054 21.999 0.75856 2.4653 0.78971 4.3287 1.9421 6.2385 3.8582 1.3912 1.3957 2.1348 2.4019 2.9131 3.9415 1.3169 2.6052 1.8459 5.2685 1.618 8.1462-0.06034 0.76198-0.18358 1.7096-0.27386 2.1058-1.0932 4.798-4.1865 8.7035-8.5224 10.76-1.2807 0.60752-2.1253 0.89671-3.6066 1.2349-1.0406 0.23757-1.198 0.24083-13.437 0.27834l-12.384 0.03795-0.02927-3.5082-0.02927-3.5082-6.8364 5.471c-3.76 3.009-6.8236 5.5208-6.808 5.5818 0.03452 0.135 13.605 11.133 13.741 11.136 0.05428 0.0013 0.06066-1.5442 0.01461-3.5392z" fill-opacity=".50196" transform="matrix(6.6977 0 0 -6.6977 283.22 798.44)" fill="#fff"/></g>
</svg>
