<svg
   xmlns:svg="http://www.w3.org/2000/svg"
   xmlns="http://www.w3.org/2000/svg"
   version="1.2"
   width="300"
   height="400">
  <g transform="matrix(0.69697719,0,0,0.69697719,45.458864,60.581869)">
    <path
       d="m 159.6875,173.75 c -3.83615,0 -6.96875,3.1326 -6.96875,6.96875 0,1.10712 0.25517,2.16209 0.71875,3.09375 -1.68986,-0.20686 -3.3793,-0.22843 -5.09375,-0.0625 -3.04792,0.295 -6.11099,1.20137 -8.96875,2.75 -10.21961,5.53756 -14.79307,17.76959 -11.1875,28.53125 l -4.71875,0 0,3.90625 15.3125,0.0312 c 0.89722,3.85637 4.34076,6.75 8.46875,6.75 4.12959,0 7.57313,-2.89174 8.46875,-6.75 l 20.8125,0 0,-0.0312 0,-3.90625 -3.53125,0 c 2.08869,-6.21523 1.55173,-13.13782 -1.625,-19 -2.11111,-3.89526 -5.12258,-6.95485 -8.65625,-9.0625 2.32463,-1.13255 3.9375,-3.50036 3.9375,-6.25 0,-3.83615 -3.1326,-6.96875 -6.96875,-6.96875 z m -0.5,2.0625 c 0.16586,-0.0167 0.32956,0 0.5,0 2.72697,0 4.9375,2.17928 4.9375,4.90625 0,2.59914 -2.01456,4.71378 -4.5625,4.90625 -1.15924,-0.50628 -2.37124,-0.90402 -3.59375,-1.21875 -1.02953,-0.90028 -1.6875,-2.20513 -1.6875,-3.6875 0,-2.55653 1.91838,-4.65534 4.40625,-4.90625 z m -18.03125,13.3125 4.375,0 5.03125,14.78125 4.90625,-14.78125 4.25,0 -7.125,19.9375 -4.3125,0 -7.125,-19.9375 z m 5.5625,22.65625 c 0.17566,-0.0179 0.35091,0 0.53125,0 2.88549,0 5.21875,2.33326 5.21875,5.21875 0,2.88549 -2.33326,5.21875 -5.21875,5.21875 -2.88549,0 -5.21875,-2.33326 -5.21875,-5.21875 0,-2.70514 2.05265,-4.9509 4.6875,-5.21875 z"
       transform="matrix(1.4347672,0,0,1.4347672,-61.187605,-111.35676)"
       style="fill:#a300b1;fill-opacity:1;stroke:none" />
  </g>
</svg>
