<svg xmlns="http://www.w3.org/2000/svg" height="400" width="300" version="1.0">
 <g transform="translate(0,80)">
  <path d="m261.67 146.29c0 60.085-49.622 108.79-110.83 108.79-61.212 0-110.83-48.708-110.83-108.79 0-60.085 49.622-108.79 110.83-108.79 61.212 0 110.83 48.708 110.83 108.79z" transform="matrix(.88420 0 0 .90079 16.626 -11.773)" stroke="#000" stroke-width="4.482" fill="none"/>
  <g transform="matrix(1.5 0 0 1.5 -74.938 25.852)">
   <path d="m115.02 106.86h70v6h-70zm33.583-76.122-15-25.981 4.3301-2.5 15 25.981zm1.5496-4.6714h30v5h-30zm2.7084 2.5052-15 25.981-4.3301-2.5 15-25.981zm-5.8602-0.01274h6v80h-6z"/>
  </g>
 </g>
</svg>
