<?xml version="1.0" encoding="UTF-8" standalone="no"?>
<!-- Created with Inkscape (http://www.inkscape.org/) -->

<svg
   xmlns:dc="http://purl.org/dc/elements/1.1/"
   xmlns:cc="http://creativecommons.org/ns#"
   xmlns:rdf="http://www.w3.org/1999/02/22-rdf-syntax-ns#"
   xmlns:svg="http://www.w3.org/2000/svg"
   xmlns="http://www.w3.org/2000/svg"
   xmlns:sodipodi="http://sodipodi.sourceforge.net/DTD/sodipodi-0.dtd"
   xmlns:inkscape="http://www.inkscape.org/namespaces/inkscape"
   width="300"
   height="400"
   id="svg2"
   version="1.1"
   inkscape:version="0.48.2 r9819"
   sodipodi:docname="Anchor_Berth.svg"
   style="display:inline">
  <defs
     id="defs4" />
  <sodipodi:namedview
     id="base"
     pagecolor="#ffffff"
     bordercolor="#666666"
     borderopacity="1.0"
     inkscape:pageopacity="0.0"
     inkscape:pageshadow="2"
     inkscape:zoom="3.959798"
     inkscape:cx="69.163012"
     inkscape:cy="197.22887"
     inkscape:document-units="px"
     inkscape:current-layer="layer9"
     showgrid="true"
     inkscape:window-width="1920"
     inkscape:window-height="1088"
     inkscape:window-x="0"
     inkscape:window-y="0"
     inkscape:window-maximized="1"
     inkscape:snap-global="false">
    <inkscape:grid
       type="xygrid"
       id="grid3004"
       empspacing="5"
       visible="true"
       enabled="true"
       snapvisiblegridlinesonly="true" />
  </sodipodi:namedview>
  <metadata
     id="metadata7">
    <rdf:RDF>
      <cc:Work
         rdf:about="">
        <dc:format>image/svg+xml</dc:format>
        <dc:type
           rdf:resource="http://purl.org/dc/dcmitype/StillImage" />
        <dc:title />
      </cc:Work>
    </rdf:RDF>
  </metadata>
  <g
     inkscape:groupmode="layer"
     id="layer9"
     inkscape:label="Anchor Berth"
     style="display:inline">
    <g
       id="g3308"
       transform="translate(-11.204049,38.197714)">
      <g
         transform="matrix(0.5,0,0,0.5,80.60585,80.46346)"
         id="g2415">
        <path
           sodipodi:nodetypes="ccccc"
           inkscape:connector-curvature="0"
           style="fill:#a30075;stroke:#a30075;stroke-width:9.80193138"
           d="m 120.57148,109.07797 0,-10.141955 C 126,99 187,99 201.11493,98.936015 l 0,10.141955 C 160,110 160,110 120.57148,109.07797 z"
           id="path2417" />
        <path
           transform="matrix(0.84,0,0,1.05,21.4,2.5)"
           d="m 190,70 c 0,11.045695 -11.19288,20 -25,20 -13.80712,0 -25,-8.954305 -25,-20 0,-11.045695 11.19288,-20 25,-20 13.80712,0 25,8.954305 25,20 z"
           sodipodi:ry="20"
           sodipodi:rx="25"
           sodipodi:cy="70"
           sodipodi:cx="165"
           id="path3758"
           style="fill:none;stroke:#a30075;stroke-width:10.64794254;stroke-miterlimit:4;stroke-opacity:1;stroke-dasharray:none"
           sodipodi:type="arc" />
        <path
           id="path3789"
           d="m 257.84485,184.59331 -8.86175,49.96237 -12.14804,-11.22554 c -6.05829,6.72223 -12.95732,12.42537 -21.24088,17.6224 -13.9967,8.77895 -29.31596,13.74345 -44.72276,15.17582 l -1.57431,14.62085 -16.1964,0 -1.61954,-14.62085 c -24.94016,-2.40164 -48.72588,-13.9281 -66.17111,-33.30629 L 71.81978,234.55568 64.57855,183.9035 100,210 l -9.02302,7.85465 c 15.38515,13.23635 36.69388,22.08369 60.57696,23.9753 8.44606,-1.82995 10.86094,-1.82995 19.38434,0 23.71494,-1.89356 44.86141,-10.67251 60.20331,-23.79161 l -8.72115,-8.04029 z"
           style="fill:#a30075;stroke:#a30075;stroke-width:9.80193138"
           inkscape:connector-curvature="0"
           sodipodi:nodetypes="cccccccccccccccccc" />
      </g>
      <g
         transform="matrix(0.49166415,0,0,0.488534,81.939582,81.797192)"
         id="g2409">
        <path
           inkscape:connector-curvature="0"
           style="fill-opacity:0"
           d="m 259.13,187.391 -9.012,51.135 -12.354,-11.489 c -6.161,6.88 -13.177,12.717 -21.601,18.036 -14.234,8.985 -29.813,14.066 -45.481,15.532 l -1.601,14.964 -16.471,0 -1.647,-14.964 C 125.6,258.147 101.411,246.35 83.67,226.517 l -13.719,12.009 -7.364,-51.841 36.022,26.709 -9.176,8.039 c 15.646,13.547 37.316,22.602 61.604,24.538 l 3.247,-137.063 -34.381,0 0,-10.38 34.307,0.379 0,-8.63 C 143.6,87.939 135.72,79.309 135.72,69.002 c 0,-12.125 10.865,-21.936 24.278,-21.936 13.391,0 24.264,9.811 24.264,21.936 0,10.072 -7.527,18.581 -17.77,21.161 l 0,8.485 35.32,-0.12 0,10.38 -34.379,0 3.317,137.063 c 24.117,-1.938 45.622,-10.923 61.224,-24.35 l -8.869,-8.229 36.025,-26.001 z M 171.576,69.003 c 0,-5.767 -5.173,-10.447 -11.553,-10.447 -6.376,0 -11.549,4.682 -11.549,10.447 0,5.77 5.173,10.449 11.549,10.449 6.379,0 11.553,-4.681 11.553,-10.449 z"
           id="path2411" />
        <ellipse
           d="m 171.576,69.002998 c 0,5.770824 -5.17246,10.449001 -11.55301,10.449001 -6.38054,0 -11.553,-4.678177 -11.553,-10.449001 0,-5.770823 5.17246,-10.449 11.553,-10.449 6.38055,0 11.55301,4.678177 11.55301,10.449 z"
           style="fill-opacity:0"
           ry="10.449"
           rx="11.553"
           cy="69.002998"
           cx="160.02299"
           sodipodi:cx="160.02299"
           sodipodi:cy="69.002998"
           sodipodi:rx="11.553"
           sodipodi:ry="10.449"
           id="ellipse2413" />
      </g>
      <path
         transform="matrix(0.5,0,0,0.5,178.10585,92.96346)"
         d="m 15,150 c 0,27.61424 -22.3857625,50 -50,50 -27.614237,0 -50,-22.38576 -50,-50 0,-27.61424 22.385763,-50 50,-50 27.6142375,0 50,22.38576 50,50 z"
         sodipodi:ry="50"
         sodipodi:rx="50"
         sodipodi:cy="150"
         sodipodi:cx="-35"
         id="path3791"
         style="fill:none;stroke:#a30075;stroke-width:8;stroke-miterlimit:4;stroke-opacity:1;stroke-dasharray:none"
         sodipodi:type="arc" />
      <rect
         y="135.46346"
         x="156.78801"
         height="7.5"
         width="7.5"
         id="rect3793"
         style="fill:#a30075;fill-opacity:1;stroke:none" />
      <rect
         y="192.8206"
         x="154.42566"
         height="8.5"
         width="12.5"
         id="rect3795"
         style="fill:#a30075;fill-opacity:1;stroke:none" />
    </g>
  </g>
</svg>
