<?xml version="1.0" encoding="UTF-8" standalone="no"?>
<!-- Generator: Adobe Illustrator 14.0.0, SVG Export Plug-In . SVG Version: 6.00 Build 43363)  -->

<svg
   xmlns:dc="http://purl.org/dc/elements/1.1/"
   xmlns:cc="http://creativecommons.org/ns#"
   xmlns:rdf="http://www.w3.org/1999/02/22-rdf-syntax-ns#"
   xmlns:svg="http://www.w3.org/2000/svg"
   xmlns="http://www.w3.org/2000/svg"
   xmlns:sodipodi="http://sodipodi.sourceforge.net/DTD/sodipodi-0.dtd"
   xmlns:inkscape="http://www.inkscape.org/namespaces/inkscape"
   version="1.1"
   id="svg8829"
   sodipodi:version="0.32"
   inkscape:version="0.48.1 r9760"
   sodipodi:docname="Anchorage.svg"
   inkscape:export-xdpi="89.361702"
   inkscape:export-ydpi="89.361702"
   inkscape:export-filename="/Users/mherring/Desktop/try.png"
   inkscape:output_extension="org.inkscape.output.svg.inkscape"
   x="0px"
   y="0px"
   width="320"
   height="320"
   viewBox="0 0 320 320"
   enable-background="new 0 0 320 320"
   xml:space="preserve"><metadata
   id="metadata14"><rdf:RDF><cc:Work
       rdf:about=""><dc:format>image/svg+xml</dc:format><dc:type
         rdf:resource="http://purl.org/dc/dcmitype/StillImage" /><dc:title /></cc:Work></rdf:RDF></metadata>
<sodipodi:namedview
   id="base"
   inkscape:window-height="1088"
   inkscape:pageshadow="2"
   inkscape:pageopacity="0.0"
   inkscape:window-width="1920"
   inkscape:window-x="1440"
   inkscape:window-y="0"
   inkscape:current-layer="g2415"
   showgrid="true"
   guidetolerance="10.0"
   inkscape:zoom="4.1640732"
   gridtolerance="10.0"
   objecttolerance="10.0"
   borderopacity="1.0"
   bordercolor="#666666"
   inkscape:cx="82.515766"
   pagecolor="#ffffff"
   inkscape:cy="212.77368"
   inkscape:window-maximized="0">
	<inkscape:grid
   type="xygrid"
   id="grid3611"
   empspacing="5"
   visible="true"
   enabled="true"
   snapvisiblegridlinesonly="true" /></sodipodi:namedview>
<defs
   id="defs4">
	
	
		<inkscape:perspective
   id="perspective15"
   inkscape:persp3d-origin="90 : 60 : 1"
   sodipodi:type="inkscape:persp3d"
   inkscape:vp_x="0 : 90 : 1"
   inkscape:vp_y="0 : 1000 : 0"
   inkscape:vp_z="180 : 90 : 1">
		</inkscape:perspective>
</defs>
<g
   id="g2415">
	
	<path
   id="path2417"
   d="m 209.16076,173.63603 -4.43087,24.98119 -6.07402,-5.61277 c -3.02915,3.36111 -6.47866,6.21268 -10.62044,8.8112 -6.99835,4.38947 -14.65798,6.87172 -22.36138,7.58791 l -0.78716,7.31042 -8.0982,0 -0.80977,-7.31042 c -12.47008,-1.20082 -24.36294,-6.96405 -33.08555,-16.65315 l -6.74514,5.86681 -3.62062,-25.32609 17.71073,13.04825 -4.51151,3.92732 c 7.69257,6.61818 18.34694,11.04185 30.28848,11.98765 l 1.59643,-66.95993 -16.90391,0 0,-5.07098 c 2.71426,0.032 33.21426,0.032 40.27173,0 l 0,5.07098 -16.90293,0 1.63085,66.95993 c 11.85747,-0.94678 22.4307,-5.33625 30.10165,-11.8958 l -4.36057,-4.02015 z"
   style="fill:#a30075;stroke:#a30075;stroke-width:4.90096569"
   inkscape:connector-curvature="0"
   sodipodi:nodetypes="cccccccccccccccccccccccc" />
	
		
<path
   sodipodi:type="arc"
   style="fill:none;stroke:#a30075;stroke-width:10.64794254;stroke-miterlimit:4;stroke-opacity:1;stroke-dasharray:none"
   id="path3758"
   sodipodi:cx="165"
   sodipodi:cy="70"
   sodipodi:rx="25"
   sodipodi:ry="20"
   d="m 190,70 c 0,11.045695 -11.19288,20 -25,20 -13.80712,0 -25,-8.954305 -25,-20 0,-11.045695 11.19288,-20 25,-20 13.80712,0 25,8.954305 25,20 z"
   transform="matrix(0.42,0,0,0.525,91.122094,82.005432)" /></g>
<g
   id="g2409"
   transform="matrix(0.49166415,0,0,0.488534,81.755826,82.089164)">
	<path
   id="path2411"
   d="m 259.13,187.391 -9.012,51.135 -12.354,-11.489 c -6.161,6.88 -13.177,12.717 -21.601,18.036 -14.234,8.985 -29.813,14.066 -45.481,15.532 l -1.601,14.964 -16.471,0 -1.647,-14.964 C 125.6,258.147 101.411,246.35 83.67,226.517 l -13.719,12.009 -7.364,-51.841 36.022,26.709 -9.176,8.039 c 15.646,13.547 37.316,22.602 61.604,24.538 l 3.247,-137.063 -34.381,0 0,-10.38 34.307,0.379 0,-8.63 C 143.6,87.939 135.72,79.309 135.72,69.002 c 0,-12.125 10.865,-21.936 24.278,-21.936 13.391,0 24.264,9.811 24.264,21.936 0,10.072 -7.527,18.581 -17.77,21.161 l 0,8.485 35.32,-0.12 0,10.38 -34.379,0 3.317,137.063 c 24.117,-1.938 45.622,-10.923 61.224,-24.35 l -8.869,-8.229 36.025,-26.001 z M 171.576,69.003 c 0,-5.767 -5.173,-10.447 -11.553,-10.447 -6.376,0 -11.549,4.682 -11.549,10.447 0,5.77 5.173,10.449 11.549,10.449 6.379,0 11.553,-4.681 11.553,-10.449 z"
   style="fill-opacity:0"
   inkscape:connector-curvature="0" />
	
		<ellipse
   id="ellipse2413"
   sodipodi:ry="10.449"
   sodipodi:rx="11.553"
   sodipodi:cy="69.002998"
   sodipodi:cx="160.02299"
   cx="160.02299"
   cy="69.002998"
   rx="11.553"
   ry="10.449"
   style="fill-opacity:0"
   d="m 171.576,69.002998 c 0,5.770824 -5.17246,10.449001 -11.55301,10.449001 -6.38054,0 -11.553,-4.678177 -11.553,-10.449001 0,-5.770823 5.17246,-10.449 11.553,-10.449 6.38055,0 11.55301,4.678177 11.55301,10.449 z">
	</ellipse>
</g>
</svg>