<svg
   xmlns="http://www.w3.org/2000/svg"
   xmlns:xlink="http://www.w3.org/1999/xlink"  
   version="1.1"
   width="300"
   height="400">
		<symbol id="anchorage" width="300" height="400">
    	<path
      	d="m 149.59375,118.34375 c -6.76572,0 -12.75,5.59401 -12.75,13.28125 0,3.59056 1.32967,6.70894 3.40625,9.03125 -3.49029,-0.004 -9.70131,0.008 -10.34375,0 l -2.5,-0.0312 0,2.46875 0,5.09375 0,2.4375 2.46875,0 14.375,0 -1.46875,61.65625 c -9.26665,-1.16984 -17.53199,-4.50298 -23.96875,-9.3125 l 2.1875,-1.9063 2.3125,-2 -2.46875,-1.8125 -17.71875,-13.0625 -4.6875,-3.46875 0.8125,5.8125 3.625,25.3125 0.625,4.46875 3.40625,-2.96875 5.09375,-4.4375 c 8.45809,8.57421 19.33886,13.8759 30.875,15.4375 l 0.625,5.53125 0.25,2.15625 2.1875,0 8.09375,0 2.21875,0 0.21875,-2.1875 0.59375,-5.4375 c 7.39354,-0.97144 14.71759,-3.41017 21.4375,-7.625 3.55956,-2.23348 6.57294,-4.75385 9.34375,-7.53125 l 4.375,4.03125 3.28125,3.0625 0.8125,-4.40625 4.40625,-25 1.0625,-5.9375 -4.90625,3.53125 -17.6875,12.6875 -2.46875,1.75 2.21875,2.0625 2.15625,1.96875 c -6.41618,4.78787 -14.62532,8.10975 -23.84375,9.28125 l -1.5,-61.65625 14.375,0 2.46875,0 0,-2.4375 0,-5.09375 0,-2.4375 -2.46875,0 c -1.95439,0.009 -6.68662,-0.004 -11.1875,0 2.07231,-2.32148 3.375,-5.44488 3.375,-9.03125 0,-7.68724 -5.95303,-13.28125 -12.71875,-13.28125 z m 0,5.5625 c 4.83216,0 8.25,3.80801 8.25,7.71875 0,3.91095 -3.41781,7.71875 -8.25,7.71875 -4.83216,0 -8.28125,-3.80801 -8.28125,-7.71875 0,-3.91074 3.44909,-7.71875 8.28125,-7.71875 z"
        fill="#a30075"/>
    </symbol>
  <use xlink:href="#anchorage" x="0" y="0" />
</svg>
