<?xml version="1.0" encoding="UTF-8" standalone="no"?>
<!-- Created with Inkscape (http://www.inkscape.org/) -->
<svg id="svg2" xmlns:rdf="http://www.w3.org/1999/02/22-rdf-syntax-ns#" xmlns="http://www.w3.org/2000/svg" height="400" width="300" version="1.1" xmlns:cc="http://creativecommons.org/ns#" xmlns:dc="http://purl.org/dc/elements/1.1/">
 <metadata id="metadata7">
  <rdf:RDF>
   <cc:Work rdf:about="">
    <dc:format>image/svg+xml</dc:format>
    <dc:type rdf:resource="http://purl.org/dc/dcmitype/StillImage"/>
    <dc:title/>
   </cc:Work>
  </rdf:RDF>
 </metadata>
 <g id="layer9">
  <g id="g3308" transform="translate(-11.204 38.198)">
   <g id="g2415" stroke="#a30075" transform="matrix(.5 0 0 .5 80.606 80.463)">
    <path id="path2417" d="m120.57 109.08v-10.142c5.43 0.062 66.43 0.062 80.54-0.002v10.142c-41.11 0.92-41.11 0.92-80.54 0z" stroke-width="9.8019" fill="#a30075"/>
    <path id="path3758" d="m190 70c0 11.046-11.193 20-25 20s-25-8.9543-25-20 11.193-20 25-20 25 8.9543 25 20z" transform="matrix(.84 0 0 1.05 21.4 2.5)" stroke-width="10.648" fill="none"/>
    <path id="path3789" d="m257.84 184.59-8.8618 49.962-12.148-11.226c-6.0583 6.7222-12.957 12.425-21.241 17.622-13.997 8.779-29.316 13.743-44.723 15.176l-1.5743 14.621h-16.196l-1.6195-14.621c-24.94-2.4016-48.726-13.928-66.171-33.306l-13.489 11.75-7.241-50.66 35.421 26.1-9.023 7.8546c15.385 13.236 36.694 22.084 60.577 23.975 8.4461-1.83 10.861-1.83 19.384 0 23.715-1.8936 44.861-10.673 60.203-23.792l-8.7212-8.0403z" stroke-width="9.8019" fill="#a30075"/>
   </g>
   <g id="g2409" fill-opacity="0" transform="matrix(.49166 0 0 .48853 81.94 81.797)">
    <path id="path2411" d="m259.13 187.39-9.012 51.135-12.354-11.489c-6.161 6.88-13.177 12.717-21.601 18.036-14.234 8.985-29.813 14.066-45.481 15.532l-1.601 14.964h-16.471l-1.647-14.964c-25.37-2.45-49.56-14.25-67.3-34.08l-13.719 12.009-7.364-51.841 36.022 26.709-9.176 8.039c15.646 13.547 37.316 22.602 61.604 24.538l3.247-137.06h-34.381v-10.38l34.307 0.379v-8.63c-10.61-2.351-18.49-10.981-18.49-21.288 0-12.125 10.865-21.936 24.278-21.936 13.391 0 24.264 9.811 24.264 21.936 0 10.072-7.527 18.581-17.77 21.161v8.485l35.32-0.12v10.38h-34.379l3.317 137.06c24.117-1.938 45.622-10.923 61.224-24.35l-8.869-8.229 36.025-26.001zm-87.55-118.39c0-5.767-5.173-10.447-11.553-10.447-6.376 0-11.549 4.682-11.549 10.447 0 5.77 5.173 10.449 11.549 10.449 6.379 0 11.553-4.681 11.553-10.449z"/>
    <ellipse id="ellipse2413" d="m 171.576,69.002998 c 0,5.770824 -5.17246,10.449001 -11.55301,10.449001 -6.38054,0 -11.553,-4.678177 -11.553,-10.449001 0,-5.770823 5.17246,-10.449 11.553,-10.449 6.38055,0 11.55301,4.678177 11.55301,10.449 z" rx="11.553" ry="10.449" cy="69.003" cx="160.02"/>
   </g>
   <path id="path3791" d="m15 150c0 27.614-22.386 50-50 50s-50-22.386-50-50 22.386-50 50-50 50 22.386 50 50z" transform="matrix(.5 0 0 .5 178.11 92.963)" stroke="#a30075" stroke-width="8" fill="none"/>
   <rect id="rect3793" height="7.5" width="7.5" y="135.46" x="156.79" fill="#a30075"/>
   <rect id="rect3795" height="8.5" width="12.5" y="192.82" x="154.43" fill="#a30075"/>
  </g>
 </g>
</svg>
