<svg
   xmlns="http://www.w3.org/2000/svg"
   xmlns:xlink="http://www.w3.org/1999/xlink"  
   version="1.0"
   width="300"
   height="400">
  <symbol id="barrel" width="300" height="400">
    <path d="m 146,158 c -5.5646,0 -11.123,0.16306 -17.188,0.5 -9.2975,0.51653 -16.932,2.2727 -22.25,8.625 -5.0452,6.0263 -7.7256,15.281 -9.7188,30.062 H 88.812 v 5.6562 h 49.031 c 1.2873,5.533 6.2333,9.6562 12.156,9.6562 5.925,0 10.871,-4.1205 12.156,-9.6562 h 41.469 v -5.5938 h -7.4688 c -2.02,-14.87 -4.97,-24.19 -10.27,-30.2 -5.59,-6.32 -13.4,-8.04 -22.69,-8.56 -6.07,-0.34 -11.63,-0.5 -17.19,-0.5 z m 0,7 c 5.4272,0 10.854,0.16899 16.812,0.5 8.7061,0.48367 13.898,1.7576 17.812,6.1875 3.6318,4.1097 6.5028,11.877 8.4688,25.531 l -26.938,-0.0312 c -1.2853,-5.5357 -6.2313,-9.6562 -12.156,-9.6562 -5.923,1e-5 -10.869,4.1233 -12.156,9.6562 h -5.5312 c -1.031,-12.575 -3.696,-21.47 -9.8125,-31 1.9562,-0.33179 4.1404,-0.546 6.6875,-0.6875 5.9581,-0.33101 11.385,-0.5 16.812,-0.5 z m -30.375,3.4688 c 6.2843,9.1536 8.6426,16.508 9.6562,28.719 h -21.344 c 1.9422,-13.68 4.5858,-21.484 8,-25.562 1.0986,-1.3122 2.3076,-2.3421 3.6875,-3.1562 z m 34.38,24.03 c 4.14,0 7.5,3.36 7.5,7.5 0,4.14 -3.36,7.5 -7.5,7.5 -4.14,0 -7.5,-3.36 -7.5,-7.5 0,-4.14 3.36,-7.5 7.5,-7.5 z"/>
  </symbol>
  <use xlink:href="#barrel" x="0" y="0" />
</svg>
