<?xml version="1.0" encoding="UTF-8" standalone="no"?>
<svg id="svg2" xmlns:rdf="http://www.w3.org/1999/02/22-rdf-syntax-ns#" xmlns="http://www.w3.org/2000/svg" height="400" width="300" version="1.0" xmlns:cc="http://creativecommons.org/ns#" xmlns:dc="http://purl.org/dc/elements/1.1/">
 <metadata id="metadata2913">
  <rdf:RDF>
   <cc:Work rdf:about="">
    <dc:format>image/svg+xml</dc:format>
    <dc:type rdf:resource="http://purl.org/dc/dcmitype/StillImage"/>
    <dc:title/>
   </cc:Work>
  </rdf:RDF>
 </metadata>
 <g id="layer6" transform="translate(0,60)">
  <g id="g3795" transform="translate(-9.9149 -20.004)">
   <path id="path90440-2" d="m156 118c-5.5646 0-11.123 0.16306-17.188 0.5-9.2975 0.51653-16.932 2.2727-22.25 8.625-5.0452 6.0263-7.7256 15.281-9.7188 30.062h-8.0312v5.6562h49.031c1.2873 5.533 6.2333 9.6562 12.156 9.6562 5.925 0 10.871-4.1205 12.156-9.6562h41.469v-5.5938h-7.4688c-2.02-14.87-4.97-24.19-10.27-30.2-5.59-6.32-13.4-8.04-22.69-8.56-6.07-0.34-11.63-0.5-17.19-0.5zm0 7c5.4272 0 10.854 0.16899 16.812 0.5 8.7061 0.48367 13.898 1.7576 17.812 6.1875 3.6318 4.1097 6.5028 11.877 8.4688 25.531l-26.938-0.0312c-1.2853-5.5357-6.2313-9.6562-12.156-9.6562-5.923 0.00001-10.869 4.1233-12.156 9.6562h-5.5312c-1.031-12.575-3.696-21.47-9.8125-31 1.9562-0.33179 4.1404-0.546 6.6875-0.6875 5.9581-0.33101 11.385-0.5 16.812-0.5zm-30.375 3.4688c6.2843 9.1536 8.6426 16.508 9.6562 28.719h-21.344c1.9422-13.68 4.5858-21.484 8-25.562 1.0986-1.3122 2.3076-2.3421 3.6875-3.1562zm34.38 24.03c4.14 0 7.5 3.36 7.5 7.5s-3.36 7.5-7.5 7.5-7.5-3.36-7.5-7.5 3.36-7.5 7.5-7.5z" fill-rule="evenodd" fill="#000407"/>
  </g>
  <path id="path3008" d="m104.34 196.4c0-1.1841 1.337-8.2144 2.237-11.762 1.9363-7.6334 4.4039-12.416 7.7146-14.952l1.3683-1.0483 1.3081 2.0294c1.9456 3.0185 4.4197 8.14 5.416 11.211 1.32 4.0692 2.0018 7.519 2.7211 13.769l0.15033 1.3062h-10.458-10.458v-0.55303z" transform="translate(0,-60)" stroke-width="0" fill="#ffd400"/>
  <path id="path3010" d="m168.23 197.02-5.8909-0.0714-0.29421-0.9285c-0.69959-2.2078-2.4386-4.6211-4.3446-6.0291-2.3293-1.7208-4.698-2.4801-7.7503-2.4845-5.3837-0.008-10.113 3.4162-11.764 8.5181l-0.30205 0.93296h-2.6962-2.6962l-0.1702-1.9281c-0.24809-2.8105-1.2739-8.7783-1.9807-11.522-1.3293-5.1614-3.8407-11.217-6.3262-15.255-0.5796-0.94152-0.9621-1.8014-0.85-1.9108 0.66957-0.65361 17.243-1.3454 27.322-1.1405 19.488 0.39627 24.444 1.3466 28.995 5.5598 3.3315 3.0844 5.5771 7.8404 7.5733 16.039 0.80525 3.3074 1.8652 8.9644 1.8682 9.971 0.001 0.46425-1.4708 0.48197-20.693 0.24905z" transform="translate(0,-60)" stroke-width="0" fill="#ffd400"/>
 </g>
</svg>
