<?xml version="1.0" encoding="UTF-8" standalone="no"?>
<svg id="svg2" xmlns:rdf="http://www.w3.org/1999/02/22-rdf-syntax-ns#" xmlns="http://www.w3.org/2000/svg" height="400" width="300" version="1.0" xmlns:cc="http://creativecommons.org/ns#" xmlns:dc="http://purl.org/dc/elements/1.1/">
 <metadata id="metadata2913">
  <rdf:RDF>
   <cc:Work rdf:about="">
    <dc:format>image/svg+xml</dc:format>
    <dc:type rdf:resource="http://purl.org/dc/dcmitype/StillImage"/>
    <dc:title/>
   </cc:Work>
  </rdf:RDF>
 </metadata>
 <g id="layer6" transform="translate(0,60)">
  <g id="g3795" transform="translate(-9.9149 -20.004)">
   <path id="path90440-2" d="m156 118c-5.5646 0-11.123 0.16306-17.188 0.5-9.2975 0.51653-16.932 2.2727-22.25 8.625-5.0452 6.0263-7.7256 15.281-9.7188 30.062h-8.0312v5.6562h49.031c1.2873 5.533 6.2333 9.6562 12.156 9.6562 5.925 0 10.871-4.1205 12.156-9.6562h41.469v-5.5938h-7.4688c-2.02-14.87-4.97-24.19-10.27-30.2-5.59-6.32-13.4-8.04-22.69-8.56-6.07-0.34-11.63-0.5-17.19-0.5zm0 7c5.4272 0 10.854 0.16899 16.812 0.5 8.7061 0.48367 13.898 1.7576 17.812 6.1875 3.6318 4.1097 6.5028 11.877 8.4688 25.531l-26.938-0.0312c-1.2853-5.5357-6.2313-9.6562-12.156-9.6562-5.923 0.00001-10.869 4.1233-12.156 9.6562h-5.5312c-1.031-12.575-3.696-21.47-9.8125-31 1.9562-0.33179 4.1404-0.546 6.6875-0.6875 5.9581-0.33101 11.385-0.5 16.812-0.5zm-30.375 3.4688c6.2843 9.1536 8.6426 16.508 9.6562 28.719h-21.344c1.9422-13.68 4.5858-21.484 8-25.562 1.0986-1.3122 2.3076-2.3421 3.6875-3.1562zm34.38 24.03c4.14 0 7.5 3.36 7.5 7.5s-3.36 7.5-7.5 7.5-7.5-3.36-7.5-7.5 3.36-7.5 7.5-7.5z" fill-rule="evenodd" fill="#000407"/>
  </g>
 </g>
</svg>
