<?xml version="1.0" encoding="UTF-8" standalone="no"?>
<svg
   xmlns:dc="http://purl.org/dc/elements/1.1/"
   xmlns:cc="http://creativecommons.org/ns#"
   xmlns:rdf="http://www.w3.org/1999/02/22-rdf-syntax-ns#"
   xmlns:svg="http://www.w3.org/2000/svg"
   xmlns="http://www.w3.org/2000/svg"
   xmlns:sodipodi="http://sodipodi.sourceforge.net/DTD/sodipodi-0.dtd"
   xmlns:inkscape="http://www.inkscape.org/namespaces/inkscape"
   version="1.0"
   width="300"
   height="400"
   id="svg2"
   inkscape:version="0.48.2 r9819"
   sodipodi:docname="Beacon_Red_Green_Red.svg"
   style="display:inline">
  <metadata
     id="metadata2913">
    <rdf:RDF>
      <cc:Work
         rdf:about="">
        <dc:format>image/svg+xml</dc:format>
        <dc:type
           rdf:resource="http://purl.org/dc/dcmitype/StillImage" />
        <dc:title />
      </cc:Work>
    </rdf:RDF>
  </metadata>
  <sodipodi:namedview
     pagecolor="#ffffff"
     bordercolor="#666666"
     borderopacity="1"
     objecttolerance="10"
     gridtolerance="10"
     guidetolerance="10"
     inkscape:pageopacity="0"
     inkscape:pageshadow="2"
     inkscape:window-width="1920"
     inkscape:window-height="1088"
     id="namedview2911"
     showgrid="true"
     inkscape:zoom="2.8421875"
     inkscape:cx="146.60198"
     inkscape:cy="194.95905"
     inkscape:window-x="1440"
     inkscape:window-y="0"
     inkscape:window-maximized="0"
     inkscape:current-layer="g2831"
     inkscape:snap-grids="false">
    <inkscape:grid
       type="xygrid"
       id="grid2919"
       empspacing="5"
       visible="true"
       enabled="true"
       snapvisiblegridlinesonly="true" />
  </sodipodi:namedview>
  <defs
     id="defs4" />
  <g
     style="display:inline"
     inkscape:label="Beacon 3 Band"
     id="g2831"
     inkscape:groupmode="layer"
     transform="translate(0,80)">
    <path
       id="path2833"
       d="m 141.45574,46.268544 0,64.750006 c -1.70454,1.6489 -2.94669,3.77114 -3.5,6.15625 l -8.4375,0 -0.125,5.65625 8.5625,0 c 1.28732,5.53295 6.23327,9.65624 12.15625,9.65625 5.92495,0 10.87095,-4.12052 12.15625,-9.65625 l 8.3125,-0.0312 0,-5.65625 -8.3125,0.0312 c -0.58668,-2.52896 -1.94655,-4.75116 -3.8125,-6.4375 l 0,-64.468756 -6.375,0 -4.25,0 -6.375,0 z m 4.0625,4.03125 8.96875,0 0,57.687506 -8.96875,0 0,-57.687506 z m 4.59375,62.187506 c 4.14,0 7.5,3.36 7.5,7.5 0,4.14 -3.36,7.5 -7.5,7.5 -4.14,0 -7.5,-3.36 -7.5,-7.5 0,-4.14 3.36,-7.5 7.5,-7.5 z"
       style="fill:#000407;fill-opacity:1;fill-rule:evenodd;stroke:none;display:inline" />
    <rect
       style="fill:#000000;fill-opacity:1;stroke:none"
       id="rect2835"
       width="9.9835072"
       height="0.96756458"
       x="144.88591"
       y="68.051857" />
    <rect
       style="fill:#000000;fill-opacity:1;stroke:none"
       id="rect2837"
       width="9.7196264"
       height="1.0555251"
       x="145.06181"
       y="88.06736" />
    <path
       style="fill:#d40000;fill-opacity:1;stroke:none"
       d="m 145.81157,59.194405 0,-8.62012 4.2221,0 4.2221,0 0,8.62012 0,8.62012 -4.2221,0 -4.2221,0 0,-8.62012 z"
       id="path3987" />
    <path
       style="fill:#d40000;fill-opacity:1;stroke:none"
       d="m 145.81157,98.600675 0,-9.32381 4.2221,0 4.2221,0 0,9.32381 0,9.323805 -4.2221,0 -4.2221,0 0,-9.323805 z"
       id="path3989" />
    <path
       style="fill:#00d400;fill-opacity:1;stroke:none"
       d="m 145.81157,78.545695 0,-9.3238 4.2221,0 4.2221,0 0,9.3238 0,9.32381 -4.2221,0 -4.2221,0 0,-9.32381 z"
       id="path3991" />
  </g>
</svg>
