<?xml version="1.0" encoding="UTF-8" standalone="no"?>
<!-- Created with Inkscape (http://www.inkscape.org/) -->
<svg id="svg2" xmlns:rdf="http://www.w3.org/1999/02/22-rdf-syntax-ns#" xmlns="http://www.w3.org/2000/svg" height="400" width="300" version="1.1" xmlns:cc="http://creativecommons.org/ns#" xmlns:dc="http://purl.org/dc/elements/1.1/">
 <metadata id="metadata7">
  <rdf:RDF>
   <cc:Work rdf:about="">
    <dc:format>image/svg+xml</dc:format>
    <dc:type rdf:resource="http://purl.org/dc/dcmitype/StillImage"/>
    <dc:title/>
   </cc:Work>
  </rdf:RDF>
 </metadata>
 <g id="layer2">
  <g id="content" fill-rule="even-odd" xml:space="preserve" transform="matrix(.14930 0 0 -.14930 77.937 209.66)" stroke="#000" stroke-miterlimit="10.433">
<rect id="rect3761" transform="scale(1,-1)" rx="100" ry="100" height="388.48" width="388.48" stroke="#a30075" stroke-miterlimit="10.433" y="-257.34" x="288.47" stroke-width="13.395" fill="none"/><path id="path3835" d="m368.98-130.48c-34.144 5.7383-63.918 30.705-75.229 63.083-5.5114 15.776-5.2724 9.8634-5.2724 130.38 0 123.74-0.42108 115.58 6.9037 133.73 11.515 28.524 36.204 50.01 66.178 57.591 11.782 2.9798 23.48 3.2453 128.33 2.9128 95.075-0.30155 103.61-0.44733 109.62-1.8733 20.56-4.8722 34.851-12.659 48.772-26.572 11.742-11.736 18.438-22.389 23.419-37.255 5.3735-16.039 5.2418-12.799 5.2387-128.86-0.002-92.097-0.17929-106.82-1.3648-113.64-5.8352-33.547-28.912-62.011-59.944-73.94-16.946-6.5141-6.6044-6.023-130.53-6.198-64.539-0.0911-113.36 0.17907-116.12 0.64276z" stroke="#a30075" stroke-miterlimit="10.433" stroke-width="13.395" fill="none"/><rect id="rect3889" transform="matrix(.70711 .70711 .70711 -.70711 0 0)" rx="25" ry="25" height="300.56" width="50" y="202.13" x="359.41" fill="#a30075"/><path id="path3891" d="m123.36 4.3436c0.29523 5.7224-4.1323 10.599-9.8892 10.893-5.7569 0.29346-10.663-4.1076-10.958-9.83-0.0185-0.35865-0.0183-0.71802 0.00073-1.0766" transform="matrix(3.4031 3.4031 3.4236 -3.4236 -15.207 -210.25)" stroke="#a30075" stroke-miterlimit="10.433" stroke-width="6.9375" fill="none"/><rect id="rect3893" transform="matrix(.70711 .70711 .70711 -.70711 0 0)" height="33.489" width="33.489" y="126.36" x="317.13" fill="#a30075"/><rect id="rect3895" transform="matrix(.70711 .70711 .70711 -.70711 0 0)" height="33.489" width="33.489" y="126.36" x="417.51" fill="#a30075"/><path id="path3897" d="m407.63 135.93 5.2326 41.233 23.651-22.814-45.628-46.047-25.116 21.768z" fill="#a30075"/><path id="path58256" d="m13.226 57.645c-4.0453-0.858-7.3456-3.254-9.3795-6.809-0.6879-1.202-1.425-3.383-1.6239-4.803-0.1106-0.79-0.1377-5.077-0.1056-16.688l0.043277-15.625 0.3422-1.25c0.3899-1.424 1.45-3.6719 2.2104-4.6871 1.8466-2.4653 4.545-4.3471 7.4431-5.1908 1.7529-0.51024 5.1487-0.59247 20.562-0.49793 11.078 0.067949 13.337 0.1113 14.125 0.27106 3.2527 0.65981 6.2599 2.5474 8.2365 5.17 1.2571 1.668 2.1406 3.625 2.5974 5.7536 0.21207 0.98826 0.22679 2.0628 0.22768 16.619 0.001 16.853 0.01952 16.362-0.6973 18.524-0.72083 2.1742-1.8459 3.9411-3.5723 5.6101-1.7053 1.6487-3.7754 2.8176-6.1323 3.4628l-1.2222 0.33456-15.938 0.02793c-15.526 0.02721-15.968 0.02146-17.118-0.22244zm37.43-5.018c0.74166-0.38187 1.3022-0.94785 1.7025-1.7191 0.42692-0.82245 0.42317-2.4301-0.0077-3.3125-0.242-0.495-3.118-3.442-13.9-14.241l-13.595-13.617 0.24033-0.71342c0.94576-2.8075 0.44489-6.3086-1.2625-8.8248-0.4615-0.68014-4.7168-5.0407-4.9191-5.0407-0.17401 0-3.5716 3.3958-3.5716 3.5697 0 0.074546 0.92812 1.0506 2.0625 2.169 1.4244 1.4043 2.0612 2.1171 2.0584 2.3036-0.01041 0.68272-0.72441 5.7347-0.82271 5.8212-0.06087 0.05356-1.2638 0.25285-2.6732 0.44286s-2.7454 0.37492-2.9688 0.41091c-0.385 0.061-0.512-0.041-2.566-2.074l-2.1608-2.138-1.808 1.815-1.808 1.816 2.4375 2.4004c1.934 1.9046 2.6311 2.5087 3.375 2.9247 2.5297 1.4148 5.5568 1.7371 8.1491 0.86766l0.83733-0.28083 13.663 13.649c12.629 12.616 13.715 13.669 14.351 13.914 0.95778 0.36958 2.3102 0.30904 3.1875-0.14269z" fill-opacity=".50196" transform="matrix(6.6977 0 0 -6.6977 281.77 264.02)" fill="#fff"/></g>
 </g>
</svg>
