<?xml version="1.0" encoding="UTF-8" standalone="no"?>
<!-- Created with Inkscape (http://www.inkscape.org/) -->

<svg
   xmlns:dc="http://purl.org/dc/elements/1.1/"
   xmlns:cc="http://creativecommons.org/ns#"
   xmlns:rdf="http://www.w3.org/1999/02/22-rdf-syntax-ns#"
   xmlns:svg="http://www.w3.org/2000/svg"
   xmlns="http://www.w3.org/2000/svg"
   xmlns:sodipodi="http://sodipodi.sourceforge.net/DTD/sodipodi-0.dtd"
   xmlns:inkscape="http://www.inkscape.org/namespaces/inkscape"
   width="300"
   height="400"
   id="svg2"
   version="1.1"
   inkscape:version="0.48.2 r9819"
   sodipodi:docname="Boatyard.svg"
   style="display:inline">
  <defs
     id="defs4" />
  <sodipodi:namedview
     id="base"
     pagecolor="#ffffff"
     bordercolor="#666666"
     borderopacity="1.0"
     inkscape:pageopacity="0.0"
     inkscape:pageshadow="2"
     inkscape:zoom="3.959798"
     inkscape:cx="69.163012"
     inkscape:cy="197.22887"
     inkscape:document-units="px"
     inkscape:current-layer="layer2"
     showgrid="true"
     inkscape:window-width="1920"
     inkscape:window-height="1088"
     inkscape:window-x="0"
     inkscape:window-y="0"
     inkscape:window-maximized="0"
     inkscape:snap-global="false">
    <inkscape:grid
       type="xygrid"
       id="grid3004"
       empspacing="5"
       visible="true"
       enabled="true"
       snapvisiblegridlinesonly="true" />
  </sodipodi:namedview>
  <metadata
     id="metadata7">
    <rdf:RDF>
      <cc:Work
         rdf:about="">
        <dc:format>image/svg+xml</dc:format>
        <dc:type
           rdf:resource="http://purl.org/dc/dcmitype/StillImage" />
        <dc:title />
      </cc:Work>
    </rdf:RDF>
  </metadata>
  <g
     inkscape:groupmode="layer"
     id="layer2"
     inkscape:label="Boatyard"
     style="display:inline">
    <g
       style="font-style:normal;font-variant:normal;font-weight:normal;font-stretch:normal;letter-spacing:normal;word-spacing:normal;text-anchor:start;fill:none;stroke:#000000;stroke-width:1;stroke-linecap:butt;stroke-linejoin:miter;stroke-miterlimit:10.43299961;stroke-opacity:1;stroke-dasharray:none;stroke-dashoffset:0"
       word-spacing="normal"
       letter-spacing="normal"
       font-size-adjust="none"
       font-stretch="normal"
       font-weight="normal"
       font-variant="normal"
       font-style="normal"
       fill-rule="even-odd"
       stroke-miterlimit="10.433"
       xml:space="preserve"
       transform="matrix(0.1493046,0,0,-0.1493046,77.936991,209.66296)"
       id="content">












































<rect
   ry="100"
   rx="100"
   transform="scale(1,-1)"
   y="-257.3353"
   x="288.47031"
   height="388.47726"
   width="388.47726"
   id="rect3761"
   style="fill:none;stroke:#a30075;stroke-width:13.39543438;stroke-miterlimit:10.43299961;stroke-opacity:1;stroke-dasharray:none" /><path
   inkscape:connector-curvature="0"
   id="path3835"
   d="m 368.97651,-130.48164 c -34.14402,5.73826 -63.91782,30.704745 -75.22938,63.08273 -5.51142,15.77579 -5.27235,9.863439 -5.27235,130.383956 0,123.737344 -0.42108,115.580814 6.90369,133.725954 11.51458,28.52425 36.20439,50.01034 66.17823,57.591 11.78192,2.97976 23.48046,3.24528 128.32836,2.91275 95.07485,-0.30155 103.60546,-0.44733 109.62287,-1.87331 20.55991,-4.87219 34.85137,-12.65859 48.77188,-26.57231 11.74158,-11.73586 18.43794,-22.38857 23.41862,-37.25472 5.37348,-16.03857 5.24178,-12.79918 5.23874,-128.860832 -0.002,-92.096508 -0.17929,-106.82492 -1.36476,-113.640212 -5.83517,-33.54681 -28.91164,-62.011016 -59.94431,-73.939716 -16.94646,-6.51407 -6.60439,-6.02299 -130.52817,-6.19803 -64.53856,-0.0911 -113.36454,0.17907 -116.12342,0.64276 l 0,0 z"
   style="fill:none;stroke:#a30075;stroke-width:13.39543438;stroke-miterlimit:10.43299961;stroke-opacity:1;stroke-dasharray:none" /><rect
   ry="25"
   rx="25"
   transform="matrix(0.70710678,0.70710678,0.70710678,-0.70710678,0,0)"
   y="202.12675"
   x="359.4119"
   height="300.56"
   width="50"
   id="rect3889"
   style="fill:#a30075;fill-opacity:1;stroke:none" /><path
   sodipodi:open="true"
   sodipodi:end="9.4773601"
   sodipodi:start="6.2319481"
   transform="matrix(3.4030916,3.4030916,3.4236153,-3.4236153,-15.207225,-210.2534)"
   d="m 123.3613,4.3436465 c 0.29523,5.7224345 -4.13234,10.5992795 -9.88925,10.8927375 -5.7569,0.293459 -10.66313,-4.107596 -10.95835,-9.8300305 -0.0185,-0.3586513 -0.0183,-0.7180156 7.3e-4,-1.0766418"
   sodipodi:ry="10.375"
   sodipodi:rx="10.4375"
   sodipodi:cy="4.875"
   sodipodi:cx="112.9375"
   id="path3891"
   style="fill:none;stroke:#a30075;stroke-width:6.93749332;stroke-miterlimit:10.43299961;stroke-opacity:1;stroke-dasharray:none"
   sodipodi:type="arc" /><rect
   transform="matrix(0.70710678,0.70710678,0.70710678,-0.70710678,0,0)"
   y="126.3588"
   x="317.13254"
   height="33.488586"
   width="33.488586"
   id="rect3893"
   style="fill:#a30075;fill-opacity:1;stroke:none" /><rect
   style="fill:#a30075;fill-opacity:1;stroke:none"
   id="rect3895"
   width="33.488586"
   height="33.488586"
   x="417.51456"
   y="126.35548"
   transform="matrix(0.70710678,0.70710678,0.70710678,-0.70710678,0,0)" /><path
   sodipodi:nodetypes="cccccc"
   inkscape:connector-curvature="0"
   id="path3897"
   d="m 407.63277,135.92951 5.23259,41.23282 23.65132,-22.81409 -45.62817,-46.04684 -25.11644,21.76759 z"
   style="fill:#a30075;fill-opacity:1;stroke:none" /><path
   transform="matrix(6.6977173,0,0,-6.6977173,281.77259,264.02334)"
   inkscape:connector-curvature="0"
   id="path58256"
   d="M 13.226042,57.645161 C 9.1806736,56.786975 5.8803516,54.391067 3.8464956,50.835971 3.158649,49.633644 2.4215035,47.453387 2.2225694,46.032881 2.1119989,45.243342 2.0848904,40.956248 2.1170497,29.345381 l 0.043277,-15.625 0.3422015,-1.25 C 2.8924391,11.046109 3.9524603,8.798149 4.7129105,7.782881 6.5594709,5.3175606 9.2578565,3.4357794 12.15625,2.5920973 c 1.752879,-0.5102386 5.148721,-0.5924704 20.5625,-0.4979302 11.078338,0.067949 13.33744,0.1113011 14.125,0.2710587 3.252661,0.659807 6.259911,2.5474348 8.236479,5.1699742 1.257138,1.6679905 2.140601,3.625001 2.59738,5.753608 0.212071,0.98826 0.226791,2.062769 0.227685,16.619073 0.001,16.853335 0.01952,16.362211 -0.697305,18.524305 -0.720828,2.174154 -1.845932,3.941073 -3.572298,5.610112 -1.705321,1.648693 -3.77536,2.817617 -6.132272,3.462813 l -1.222169,0.334565 -15.9375,0.02793 c -15.52577,0.02721 -15.96799,0.02146 -17.117708,-0.222443 z M 50.65625,52.627009 c 0.74166,-0.381872 1.302179,-0.947854 1.702534,-1.719128 0.426917,-0.822449 0.423173,-2.430055 -0.0077,-3.3125 C 52.109026,47.099686 49.233334,44.153246 38.45125,33.3536 l -13.594639,-13.616783 0.240334,-0.71342 c 0.945765,-2.807462 0.44489,-6.308577 -1.262499,-8.824848 -0.461504,-0.6801442 -4.716849,-5.040668 -4.919082,-5.040668 -0.174008,0 -3.571614,3.3957754 -3.571614,3.5696888 0,0.074546 0.928125,1.0506082 2.0625,2.1690272 1.424367,1.404333 2.061225,2.117073 2.058379,2.303637 -0.01041,0.682715 -0.724408,5.73469 -0.822707,5.821185 -0.06087,0.05356 -1.263797,0.252848 -2.673172,0.442862 -1.409375,0.190013 -2.745352,0.374921 -2.968838,0.410909 C 12.613644,19.93739 12.48686,19.835 10.4329,17.802151 L 8.2722255,15.663682 6.4642377,17.479146 4.65625,19.29461 l 2.4375,2.400385 c 1.9340223,1.904575 2.6311453,2.508684 3.375,2.924689 2.529736,1.414768 5.556817,1.737075 8.149066,0.867665 l 0.837326,-0.28083 13.663054,13.648945 c 12.629284,12.616242 13.715071,13.669017 14.350554,13.914233 0.957777,0.369583 2.310158,0.309043 3.1875,-0.142688 z"
   style="fill:#ffffff;fill-opacity:0.50196078;stroke:none" /></g>  </g>
</svg>
