<svg
   xmlns:svg="http://www.w3.org/2000/svg"
   xmlns="http://www.w3.org/2000/svg"
   version="1.1"
   width="300"
   height="400">
  <g id="boatyard" width="300" height="400">
    <path
       d="m 151.09375,170.25 c -15.65602,-0.0497 -17.50835,-0.0112 -19.40625,0.46875 -4.78399,1.20997 -8.72283,4.63044 -10.5625,9.1875 -0.52984,1.31284 -0.87553,1.99524 -1,4.40625 -0.12447,2.41101 -0.125,6.70144 -0.125,15.9375 0,8.9959 -0.002,13.2813 0.0937,15.65625 0.096,2.37495 0.34992,3.01105 0.75,4.15625 1.81614,5.19872 6.55974,9.14296 12.03125,10.0625 l 0.5625,0.0937 0.0312,-0.0625 0.0312,0 c 0.26395,0.008 0.59569,0.0248 1.03125,0.0312 0.8975,0.0134 2.14658,0.0227 3.6875,0.0312 3.08184,0.0171 7.33667,0.038 12.15625,0.0312 9.24976,-0.0131 13.47511,-0.0155 15.78125,-0.125 2.30614,-0.1095 2.85321,-0.41015 4.0625,-0.875 4.97537,-1.91258 8.63139,-6.45951 9.5625,-11.8125 0.21564,-1.24082 0.21845,-3.37363 0.21875,-17.125 2.3e-4,-8.66357 0.004,-12.88688 -0.0937,-15.28125 -0.0973,-2.39437 -0.35453,-3.10084 -0.75,-4.28125 -0.78371,-2.33902 -1.88611,-4.10581 -3.71875,-5.9375 -2.18848,-2.18723 -4.54895,-3.49144 -7.75,-4.25 -1.08928,-0.25844 -2.39822,-0.2675 -16.59375,-0.3125 z m -0.0312,2 c 14.19387,0.045 15.45093,0.0827 16.15625,0.25 2.93817,0.69626 4.84416,1.75154 6.8125,3.71875 1.67352,1.67267 2.54639,3.05627 3.25,5.15625 0.4068,1.21421 0.53172,1.4556 0.625,3.75 0.0933,2.2944 0.094,6.52317 0.0937,15.1875 -3e-4,13.74881 -0.0492,15.98561 -0.1875,16.78125 -0.81129,4.66413 -4.02171,8.63183 -8.3125,10.28125 -1.32075,0.5077 -1.2576,0.64649 -3.4375,0.75 -2.1799,0.10351 -6.43517,0.11193 -15.6875,0.125 -4.81609,0.007 -9.05041,-0.0142 -12.125,-0.0312 -1.53729,-0.009 -2.8013,-0.018 -3.6875,-0.0312 -0.4431,-0.007 -0.78261,-0.0238 -1.03125,-0.0312 -0.24864,-0.007 -0.52215,-0.03 -0.34375,0 -4.72389,-0.7939 -8.87616,-4.28064 -10.4375,-8.75 -0.42277,-1.21015 -0.56442,-1.32295 -0.65625,-3.59375 C 122.00192,213.5417 122,209.24723 122,200.25 c 0,-9.23832 0.008,-13.56785 0.125,-15.84375 0.11749,-2.2759 0.27996,-2.35305 0.84375,-3.75 1.59871,-3.9602 5.02125,-6.94627 9.1875,-8 1.62022,-0.40977 3.25407,-0.45588 18.90625,-0.40625 z"
       style="fill:#a30075;fill-opacity:1;stroke:none" />
    <path
       d="m 135.93557,171.23914 28.14006,0 c 8.27122,0 14.93,6.65878 14.93,14.93 l 0,28.14006 c 0,8.27122 -6.65878,14.93 -14.93,14.93 l -28.14006,0 c -8.27122,0 -14.93,-6.65878 -14.93,-14.93 l 0,-28.14006 c 0,-8.27122 6.65878,-14.93 14.93,-14.93 z"
       style="fill:#ffffff;fill-opacity:0.50196078;stroke:#a30075;stroke-width:1.99987352" />
    <path
       d="m 139.82839,176.22245 -3.53125,3.5625 3.53125,3.5 c 0.26609,0.24013 0.48436,0.50473 0.6875,0.78125 l -0.78125,6.15625 -6.125,0.84375 c -0.15744,-0.11254 -0.32113,-0.21052 -0.46875,-0.34375 -0.12328,-0.11125 -0.26313,-0.22062 -0.375,-0.34375 l 0,-0.0312 -0.0312,0 -3.5,-3.5 -3.53125,3.53125 3.34375,3.3125 c 0.23176,0.25757 0.4932,0.51825 0.75,0.75 2.99655,2.70442 7.22447,3.23868 10.71875,1.71875 0.0957,0.12309 0.16803,0.26178 0.28125,0.375 l 26.46875,26.46875 c 1.46216,1.46216 3.81909,1.46216 5.28125,0 1.46217,-1.46217 1.46216,-3.81908 0,-5.28125 l -26.4688,-26.4688 c -0.12185,-0.12185 -0.2418,-0.21096 -0.375,-0.3125 1.57723,-3.73691 0.75838,-8.23208 -2.3125,-11.15625 l -3.5625,-3.5625 z"
       style="fill:#a30075" />
  </g>
</svg>
