<svg
   xmlns="http://www.w3.org/2000/svg"
   version="1.0"
   width="40"
   height="40">
  <g id="bollard">
    <path
       d="m 19.995579,2.9357838 c -9.28827,0 -16.9588951,7.6101022 -16.9588951,17.0580232 0,9.447921 7.6706251,17.058023 16.9588951,17.058023 9.288271,0 16.958896,-7.610102 16.958896,-17.058023 0,-9.447921 -7.670625,-17.0580232 -16.958896,-17.0580232 z m 0,4.1083871 c 7.280273,0 13.047711,5.8290151 13.047711,12.9496361 0,7.120621 -5.767438,12.949636 -13.047711,12.949636 -7.280272,0 -13.0477107,-5.829015 -13.0477107,-12.949636 0,-7.120621 5.7674387,-12.9496361 13.0477107,-12.9496361 z"
       style="fill:#000000;fill-opacity:1;stroke:none" />
    <path
       d="M 18.132885,32.665378 C 13.431555,32.03349 9.1255139,28.383842 7.6750676,23.801703 7.0983171,21.979677 6.9893601,18.534249 7.4554452,16.856824 8.6755335,12.465766 12.399081,8.7510792 16.704662,7.6296179 c 2.856523,-0.7440297 6.411082,-0.3794098 9.067142,0.9300902 2.689488,1.3259814 5.244175,4.1581739 6.340574,7.0293269 0.534878,1.400688 0.619335,1.995629 0.621432,4.377513 0.0019,2.257403 -0.09351,3.015227 -0.527427,4.185321 -2.155026,5.811262 -7.976668,9.332959 -14.073498,8.513509 z"
       style="fill:#ffffff;fill-opacity:1;stroke:none" />
  </g>
</svg>
