<?xml version="1.0" encoding="UTF-8" standalone="no"?>
<svg
   xmlns:dc="http://purl.org/dc/elements/1.1/"
   xmlns:cc="http://creativecommons.org/ns#"
   xmlns:rdf="http://www.w3.org/1999/02/22-rdf-syntax-ns#"
   xmlns:svg="http://www.w3.org/2000/svg"
   xmlns="http://www.w3.org/2000/svg"
   xmlns:sodipodi="http://sodipodi.sourceforge.net/DTD/sodipodi-0.dtd"
   xmlns:inkscape="http://www.inkscape.org/namespaces/inkscape"
   version="1.0"
   width="300"
   height="400"
   id="svg2"
   inkscape:version="0.48.2 r9819"
   sodipodi:docname="Can_Black_Red_Black.svg"
   style="display:inline">
  <metadata
     id="metadata2913">
    <rdf:RDF>
      <cc:Work
         rdf:about="">
        <dc:format>image/svg+xml</dc:format>
        <dc:type
           rdf:resource="http://purl.org/dc/dcmitype/StillImage" />
        <dc:title />
      </cc:Work>
    </rdf:RDF>
  </metadata>
  <sodipodi:namedview
     pagecolor="#ffffff"
     bordercolor="#666666"
     borderopacity="1"
     objecttolerance="10"
     gridtolerance="10"
     guidetolerance="10"
     inkscape:pageopacity="0"
     inkscape:pageshadow="2"
     inkscape:window-width="1920"
     inkscape:window-height="1088"
     id="namedview2911"
     showgrid="true"
     inkscape:zoom="11.879394"
     inkscape:cx="121.90617"
     inkscape:cy="214.45828"
     inkscape:window-x="0"
     inkscape:window-y="0"
     inkscape:window-maximized="1"
     inkscape:current-layer="g5415"
     inkscape:snap-grids="false">
    <inkscape:grid
       type="xygrid"
       id="grid2919"
       empspacing="5"
       visible="true"
       enabled="true"
       snapvisiblegridlinesonly="true" />
  </sodipodi:namedview>
  <defs
     id="defs4" />
  <g
     transform="translate(0,60)"
     inkscape:groupmode="layer"
     id="g5415"
     inkscape:label="Can Buoy 3 Band"
     style="display:inline">
    <path
       inkscape:connector-curvature="0"
       style="fill:#000407;fill-opacity:1;fill-rule:evenodd;stroke:none"
       id="path5417"
       d="m 131.41907,91.416708 -15.21875,45.750002 -7.96875,0 0,5.65625 29.6875,0 c 1.28732,5.53295 6.23327,9.65624 12.15625,9.65625 5.92495,0 10.87095,-4.12052 12.15625,-9.65625 l 29.84375,0 0,-0.0625 0,-5.59375 -7.6875,0 9.04112,-26.13686 z m 5.03125,8.625002 47.15625,15.96875 -7.21875,21.15625 -14.15625,0 c -1.2853,-5.53573 -6.2313,-9.65625 -12.15625,-9.65625 -5.92298,1e-5 -10.86893,4.1233 -12.15625,9.65625 l -13.71875,0 z m 13.625,32.4375 c 4.14,0 7.5,3.36 7.5,7.5 0,4.14 -3.36,7.5 -7.5,7.5 -4.14,0 -7.5,-3.36 -7.5,-7.5 0,-4.14 3.36,-7.5 7.5,-7.5 z"
       sodipodi:nodetypes="cccccscccccccccccsccccsssc" />
    <rect
       transform="matrix(0.94832365,0.31730466,-0.31730466,0.94832365,0,0)"
       y="69.795448"
       x="161.15584"
       height="0.82489997"
       width="49.831997"
       id="rect5419"
       style="fill:#000000;fill-opacity:1;stroke:none" />
    <rect
       style="fill:#000000;fill-opacity:1;stroke:none"
       id="rect5421"
       width="49.989216"
       height="0.70672113"
       x="161.10722"
       y="61.61338"
       transform="matrix(0.94832365,0.31730466,-0.31730466,0.94832365,0,0)" />
    <path
       style="fill:#d40000;fill-opacity:1;stroke:#000000;stroke-width:0;stroke-miterlimit:4;stroke-opacity:1;stroke-dasharray:none"
       d="m 154.28612,185.17414 c -17.35319,-5.80839 -23.42265,-7.87283 -23.42291,-7.96697 -1.9e-4,-0.0699 0.50555,-1.64194 1.12388,-3.49345 0.94799,-2.83861 1.14742,-3.36216 1.27211,-3.33948 0.25554,0.0465 46.719,15.60497 46.78663,15.6667 0.0558,0.0509 -2.1043,6.57118 -2.27393,6.86397 -0.048,0.0829 -5.70113,-1.77797 -23.48578,-7.73077 l 0,0 z"
       id="path3704"
       inkscape:connector-curvature="0"
       transform="translate(0,-60)" />
    <path
       style="fill:#000000;fill-opacity:1;stroke:#000000;stroke-width:0;stroke-miterlimit:4;stroke-opacity:1;stroke-dasharray:none"
       d="m 156.89949,177.42826 c -12.88031,-4.31433 -23.44197,-7.86746 -23.47035,-7.89584 -0.0377,-0.0377 2.93378,-9.21222 3.04438,-9.39971 0.0172,-0.0292 46.43255,15.67047 46.84463,15.84488 l 0.22198,0.094 -1.56885,4.60751 c -0.86287,2.53413 -1.5878,4.60435 -1.61095,4.60048 -0.0232,-0.004 -10.58053,-3.53693 -23.46084,-7.85127 z"
       id="path3706"
       inkscape:connector-curvature="0"
       transform="translate(0,-60)" />
    <path
       style="fill:#000000;fill-opacity:1;stroke:#000000;stroke-width:0;stroke-miterlimit:4;stroke-opacity:1;stroke-dasharray:none"
       d="m 126.59457,190.06636 c 1.28948,-3.90066 2.69336,-8.16224 3.11973,-9.47018 0.42638,-1.30794 0.80172,-2.37807 0.8341,-2.37807 0.0791,0 46.80874,15.63974 46.84855,15.67955 0.0172,0.0172 -0.20817,0.74845 -0.50081,1.625 l -0.53207,1.59372 -7.03478,0.0215 -7.03477,0.0215 -0.29936,-0.94749 c -0.87794,-2.77869 -2.76122,-5.22872 -5.23857,-6.81507 -1.88158,-1.20486 -4.36905,-1.91902 -6.684,-1.91902 -2.31495,0 -4.80242,0.71416 -6.684,1.91902 -2.45272,1.57057 -4.32725,4.00334 -5.22521,6.78126 l -0.31689,0.98034 -6.79821,0 -6.79821,0 2.3445,-7.09211 z"
       id="path4476"
       inkscape:connector-curvature="0"
       transform="translate(0,-60)" />
  </g>
</svg>
