<?xml version="1.0" encoding="UTF-8" standalone="no"?>
<svg
   xmlns:dc="http://purl.org/dc/elements/1.1/"
   xmlns:cc="http://creativecommons.org/ns#"
   xmlns:rdf="http://www.w3.org/1999/02/22-rdf-syntax-ns#"
   xmlns:svg="http://www.w3.org/2000/svg"
   xmlns="http://www.w3.org/2000/svg"
   xmlns:sodipodi="http://sodipodi.sourceforge.net/DTD/sodipodi-0.dtd"
   xmlns:inkscape="http://www.inkscape.org/namespaces/inkscape"
   version="1.0"
   width="300"
   height="400"
   id="svg2"
   inkscape:version="0.48.2 r9819"
   sodipodi:docname="Can_Red_Green_Red_Green.svg"
   style="display:inline">
  <metadata
     id="metadata2913">
    <rdf:RDF>
      <cc:Work
         rdf:about="">
        <dc:format>image/svg+xml</dc:format>
        <dc:type
           rdf:resource="http://purl.org/dc/dcmitype/StillImage" />
        <dc:title />
      </cc:Work>
    </rdf:RDF>
  </metadata>
  <sodipodi:namedview
     pagecolor="#ffffff"
     bordercolor="#666666"
     borderopacity="1"
     objecttolerance="10"
     gridtolerance="10"
     guidetolerance="10"
     inkscape:pageopacity="0"
     inkscape:pageshadow="2"
     inkscape:window-width="1920"
     inkscape:window-height="1088"
     id="namedview2911"
     showgrid="true"
     inkscape:zoom="11.879394"
     inkscape:cx="155.40105"
     inkscape:cy="219.20898"
     inkscape:window-x="0"
     inkscape:window-y="0"
     inkscape:window-maximized="1"
     inkscape:current-layer="g3203"
     inkscape:snap-grids="false">
    <inkscape:grid
       type="xygrid"
       id="grid2919"
       empspacing="5"
       visible="true"
       enabled="true"
       snapvisiblegridlinesonly="true" />
  </sodipodi:namedview>
  <defs
     id="defs4" />
  <g
     transform="translate(0,60)"
     inkscape:groupmode="layer"
     id="g3203"
     inkscape:label="Can Buoy 4 Band"
     style="display:inline">
    <path
       inkscape:connector-curvature="0"
       style="fill:#000407;fill-opacity:1;fill-rule:evenodd;stroke:none"
       id="path3205"
       d="m 131.41907,91.416708 -15.21875,45.750002 -7.96875,0 0,5.65625 29.6875,0 c 1.28732,5.53295 6.23327,9.65624 12.15625,9.65625 5.92495,0 10.87095,-4.12052 12.15625,-9.65625 l 29.84375,0 0,-0.0625 0,-5.59375 -7.6875,0 9.04112,-26.13686 z m 5.03125,8.625002 47.15625,15.96875 -7.21875,21.15625 -14.15625,0 c -1.2853,-5.53573 -6.2313,-9.65625 -12.15625,-9.65625 -5.92298,1e-5 -10.86893,4.1233 -12.15625,9.65625 l -13.71875,0 z m 13.625,32.4375 c 4.14,0 7.5,3.36 7.5,7.5 0,4.14 -3.36,7.5 -7.5,7.5 -4.14,0 -7.5,-3.36 -7.5,-7.5 0,-4.14 3.36,-7.5 7.5,-7.5 z"
       sodipodi:nodetypes="cccccscccccccccccsccccsssc" />
    <rect
       transform="matrix(0.94832365,0.31730466,-0.31730466,0.94832365,0,0)"
       y="71.420815"
       x="160.96355"
       height="0.82489997"
       width="49.831997"
       id="rect3207"
       style="fill:#000000;fill-opacity:1;stroke:none" />
    <rect
       style="fill:#000000;fill-opacity:1;stroke:none"
       id="rect3209"
       width="49.989216"
       height="0.70672113"
       x="160.86575"
       y="64.450401"
       transform="matrix(0.94832365,0.31730466,-0.31730466,0.94832365,0,0)" />
    <rect
       transform="matrix(0.94832365,0.31730466,-0.31730466,0.94832365,0,0)"
       y="57.679092"
       x="161.01833"
       height="0.70672113"
       width="49.989216"
       id="rect3211"
       style="fill:#000000;fill-opacity:1;stroke:none" />
    <path
       style="fill:#d40000;fill-opacity:1;stroke:none"
       d="m 158.13168,173.68774 c -12.89141,-4.31776 -23.44969,-7.88568 -23.46283,-7.9287 -0.0131,-0.043 0.38739,-1.32828 0.89009,-2.85614 0.65518,-1.99133 0.94656,-2.77032 1.02902,-2.75106 0.11517,0.0269 46.90118,15.85685 46.93865,15.88161 0.04,0.0264 -1.85964,5.51502 -1.90705,5.50998 -0.0269,-0.003 -10.59647,-3.53792 -23.48788,-7.85569 l 0,0 z"
       id="path4176"
       inkscape:connector-curvature="0"
       transform="translate(0,-60)" />
    <path
       style="fill:#d40000;fill-opacity:1;stroke:none"
       d="m 153.74932,186.71433 c -12.80158,-4.2851 -23.31269,-7.82652 -23.35803,-7.86982 -0.0918,-0.0876 1.77133,-5.79799 1.89167,-5.79799 0.11492,0 46.80172,15.62666 46.85953,15.68448 0.091,0.091 -1.87099,5.73735 -2.00031,5.7568 -0.0645,0.01 -10.59128,-3.48837 -23.39286,-7.77347 z"
       id="path4178"
       inkscape:connector-curvature="0"
       transform="translate(0,-60)" />
    <path
       style="fill:#00d400;fill-opacity:1;stroke:none"
       d="m 155.91694,180.09292 c -12.85945,-4.30726 -23.38082,-7.87213 -23.38082,-7.92193 0,-0.25535 1.81239,-5.60737 1.8893,-5.57913 0.0489,0.018 10.60081,3.54803 23.44869,7.84461 12.84788,4.29657 23.39338,7.84151 23.43445,7.87765 0.0983,0.0865 -1.79363,5.63549 -1.91658,5.62117 -0.0518,-0.006 -10.61559,-3.5351 -23.47504,-7.84237 l 0,0 z"
       id="path4180"
       inkscape:connector-curvature="0"
       transform="translate(0,-60)" />
    <path
       style="fill:#00d400;fill-opacity:1;stroke:none"
       d="m 127.13024,188.42361 2.87208,-8.69919 3.45135,1.15667 c 1.89825,0.63618 12.41015,4.15327 23.35978,7.81576 10.94963,3.6625 19.95375,6.67563 20.00914,6.69586 0.0714,0.0261 0.0202,0.27694 -0.17591,0.8619 l -0.27662,0.82512 -7.04493,0.0215 c -5.59475,0.0171 -7.05159,-2.6e-4 -7.07726,-0.0842 -0.54447,-1.78039 -0.85888,-2.51913 -1.54563,-3.63161 -1.75746,-2.84692 -4.66,-4.89846 -7.94464,-5.61535 -2.76292,-0.60301 -5.7793,-0.22688 -8.27643,1.03204 -3.09466,1.56017 -5.46265,4.37466 -6.39352,7.59905 l -0.19588,0.67852 -6.81681,0.0215 -6.81681,0.0215 2.87209,-8.69919 z"
       id="path5267"
       inkscape:connector-curvature="0"
       transform="translate(0,-60)" />
  </g>
</svg>
