<?xml version="1.0" encoding="UTF-8" standalone="no"?>
<svg
   xmlns:dc="http://purl.org/dc/elements/1.1/"
   xmlns:cc="http://creativecommons.org/ns#"
   xmlns:rdf="http://www.w3.org/1999/02/22-rdf-syntax-ns#"
   xmlns:svg="http://www.w3.org/2000/svg"
   xmlns="http://www.w3.org/2000/svg"
   xmlns:sodipodi="http://sodipodi.sourceforge.net/DTD/sodipodi-0.dtd"
   xmlns:inkscape="http://www.inkscape.org/namespaces/inkscape"
   version="1.0"
   width="300"
   height="400"
   id="svg2"
   inkscape:version="0.48.2 r9819"
   sodipodi:docname="Can_Green.svg"
   style="display:inline">
  <metadata
     id="metadata2913">
    <rdf:RDF>
      <cc:Work
         rdf:about="">
        <dc:format>image/svg+xml</dc:format>
        <dc:type
           rdf:resource="http://purl.org/dc/dcmitype/StillImage" />
        <dc:title />
      </cc:Work>
    </rdf:RDF>
  </metadata>
  <sodipodi:namedview
     pagecolor="#ffffff"
     bordercolor="#666666"
     borderopacity="1"
     objecttolerance="10"
     gridtolerance="10"
     guidetolerance="10"
     inkscape:pageopacity="0"
     inkscape:pageshadow="2"
     inkscape:window-width="1920"
     inkscape:window-height="1088"
     id="namedview2911"
     showgrid="true"
     inkscape:zoom="5.684375"
     inkscape:cx="131.23464"
     inkscape:cy="199.95117"
     inkscape:window-x="1440"
     inkscape:window-y="0"
     inkscape:window-maximized="0"
     inkscape:current-layer="layer2"
     inkscape:snap-grids="false">
    <inkscape:grid
       type="xygrid"
       id="grid2919"
       empspacing="5"
       visible="true"
       enabled="true"
       snapvisiblegridlinesonly="true" />
  </sodipodi:namedview>
  <defs
     id="defs4" />
  <g
     inkscape:groupmode="layer"
     id="layer2"
     inkscape:label="Can Buoy"
     style="display:inline"
     transform="translate(0,60)">
    <path
       style="fill:#000407;fill-opacity:1;fill-rule:evenodd;stroke:none"
       id="path90440-0"
       d="m 159.39664,100.24471 -28.0625,-8.843749 -15.21875,45.749999 -7.96875,0 0,5.65625 29.6875,0 c 1.28732,5.53295 6.23327,9.65624 12.15625,9.65625 5.92495,0 10.87095,-4.12052 12.15625,-9.65625 l 29.84375,0 0,-0.0625 0,-5.59375 -7.6875,0 9,-26.1875 -29.9375,-9.4375 -3.96875,-1.28125 z m -23.03125,-0.21875 47.15625,15.96875 -7.21875,21.15625 -14.15625,0 c -1.2853,-5.53573 -6.2313,-9.65625 -12.15625,-9.65625 -5.92298,1e-5 -10.86893,4.1233 -12.15625,9.65625 l -13.71875,0 12.25,-37.125 z m 13.625,32.4375 c 4.14,0 7.5,3.36 7.5,7.5 0,4.14 -3.36,7.5 -7.5,7.5 -4.14,0 -7.5,-3.36 -7.5,-7.5 0,-4.14 3.36,-7.5 7.5,-7.5 z"
       sodipodi:nodetypes="ccccccsccccccccccccsccccsssc" />
    <path
       style="fill:#00d400;fill-opacity:1;stroke:none"
       d="m 124.28899,136.90233 c 0.2846,-1.07425 12.12091,-36.72757 12.19294,-36.72757 0.0651,0 43.3927,14.63295 46.81931,15.81218 0.12197,0.042 -2.00901,6.43303 -6.248,18.73848 l -0.82489,2.3946 -7.00497,0 -7.00497,0 -0.20608,-0.71527 c -1.07784,-3.74088 -4.09472,-6.91397 -7.82561,-8.23081 -4.64424,-1.63921 -9.73859,-0.45471 -13.1471,3.05687 -1.46015,1.50432 -2.55324,3.34342 -3.05074,5.13281 l -0.21029,0.7564 -6.77364,0 c -6.39011,0 -6.77036,-0.0123 -6.71596,-0.21769 z"
       id="path5245" />
  </g>
</svg>
