<?xml version="1.0" encoding="UTF-8" standalone="no"?>
<svg
   xmlns:dc="http://purl.org/dc/elements/1.1/"
   xmlns:cc="http://creativecommons.org/ns#"
   xmlns:rdf="http://www.w3.org/1999/02/22-rdf-syntax-ns#"
   xmlns:svg="http://www.w3.org/2000/svg"
   xmlns="http://www.w3.org/2000/svg"
   xmlns:sodipodi="http://sodipodi.sourceforge.net/DTD/sodipodi-0.dtd"
   xmlns:inkscape="http://www.inkscape.org/namespaces/inkscape"
   version="1.0"
   width="300"
   height="400"
   id="svg2"
   inkscape:version="0.48.2 r9819"
   sodipodi:docname="Can_Green_Red_Green.svg"
   style="display:inline">
  <metadata
     id="metadata2913">
    <rdf:RDF>
      <cc:Work
         rdf:about="">
        <dc:format>image/svg+xml</dc:format>
        <dc:type
           rdf:resource="http://purl.org/dc/dcmitype/StillImage" />
        <dc:title />
      </cc:Work>
    </rdf:RDF>
  </metadata>
  <sodipodi:namedview
     pagecolor="#ffffff"
     bordercolor="#666666"
     borderopacity="1"
     objecttolerance="10"
     gridtolerance="10"
     guidetolerance="10"
     inkscape:pageopacity="0"
     inkscape:pageshadow="2"
     inkscape:window-width="1920"
     inkscape:window-height="1088"
     id="namedview2911"
     showgrid="true"
     inkscape:zoom="5.684375"
     inkscape:cx="135.997"
     inkscape:cy="194.61682"
     inkscape:window-x="1440"
     inkscape:window-y="0"
     inkscape:window-maximized="0"
     inkscape:current-layer="g4867"
     inkscape:snap-grids="false">
    <inkscape:grid
       type="xygrid"
       id="grid2919"
       empspacing="5"
       visible="true"
       enabled="true"
       snapvisiblegridlinesonly="true" />
  </sodipodi:namedview>
  <defs
     id="defs4" />
  <g
     style="display:inline"
     inkscape:label="Can Buoy 3 Band"
     id="g4867"
     inkscape:groupmode="layer"
     transform="translate(0,60)">
    <path
       sodipodi:nodetypes="ccccccsccccccccccccsccccsssc"
       d="m 159.42774,100.27581 -28.0625,-8.84375 -15.21875,45.75 -7.96875,0 0,5.65625 29.6875,0 c 1.28732,5.53295 6.23327,9.65624 12.15625,9.65625 5.92495,0 10.87095,-4.12052 12.15625,-9.65625 l 29.84375,0 0,-0.0625 0,-5.59375 -7.6875,0 9,-26.1875 -29.9375,-9.4375 -3.96875,-1.28125 z m -23.03125,-0.21875 47.15625,15.96875 -7.21875,21.15625 -14.15625,0 c -1.2853,-5.53573 -6.2313,-9.65625 -12.15625,-9.65625 -5.92298,10e-6 -10.86893,4.1233 -12.15625,9.65625 l -13.71875,0 12.25,-37.125 z m 13.625,32.4375 c 4.14,0 7.5,3.36 7.5,7.5 0,4.14 -3.36,7.5 -7.5,7.5 -4.14,0 -7.5,-3.36 -7.5,-7.5 0,-4.14 3.36,-7.5 7.5,-7.5 z"
       id="path4869"
       style="fill:#000407;fill-opacity:1;fill-rule:evenodd;stroke:none" />
    <rect
       style="fill:#000000;fill-opacity:1;stroke:none"
       id="rect5149"
       width="49.831997"
       height="0.82489997"
       x="161.10965"
       y="69.827087"
       transform="matrix(0.94832365,0.31730466,-0.31730466,0.94832365,0,0)" />
    <rect
       transform="matrix(0.94832365,0.31730466,-0.31730466,0.94832365,0,0)"
       y="61.64502"
       x="161.06104"
       height="0.70672113"
       width="49.989216"
       id="rect5151"
       style="fill:#000000;fill-opacity:1;stroke:none" />
    <path
       style="fill:#00d400;fill-opacity:1;stroke:none"
       d="m 156.82068,117.41803 c -12.86242,-4.3118 -23.40489,-7.85574 -23.42771,-7.87543 -0.0314,-0.0271 2.94008,-9.18881 3.03531,-9.35852 0.0348,-0.062 46.76082,15.78383 46.8757,15.89662 0.10724,0.10529 -2.90186,9.21699 -3.03487,9.18972 -0.0342,-0.007 -10.586,-3.54059 -23.44843,-7.85239 z"
       id="path5333" />
    <path
       style="fill:#00d400;fill-opacity:1;stroke:none"
       d="m 124.31342,136.92639 c 0.2045,-0.89172 6.16125,-18.60894 6.25727,-18.61109 0.0699,-0.002 10.62849,3.5098 23.46354,7.80303 l 23.33646,7.80588 -0.52097,1.55768 -0.52097,1.55768 -7.03479,0.0321 -7.03479,0.0321 -0.33601,-1.02728 c -1.3281,-4.06036 -4.55016,-7.05123 -8.89652,-8.25817 -0.63411,-0.17609 -1.27824,-0.22542 -2.98547,-0.22867 -1.91208,-0.004 -2.30554,0.0315 -3.23427,0.28884 -4.16097,1.15294 -7.41617,4.26055 -8.71659,8.32137 l -0.28881,0.90186 -6.76415,0 c -5.75635,0 -6.75816,-0.0261 -6.72393,-0.17537 z"
       id="path5335" />
    <path
       style="fill:#d40000;fill-opacity:1;stroke:none"
       d="m 165.46612,128.93882 c -6.60225,-2.21512 -17.10346,-5.73888 -23.33602,-7.83058 l -11.33192,-3.80309 1.11599,-3.44304 c 0.61379,-1.89367 1.12847,-3.45785 1.14374,-3.47596 0.0308,-0.0365 46.85669,15.62169 46.92707,15.69207 0.0849,0.0849 -2.26697,6.83654 -2.39036,6.86221 -0.0684,0.0142 -5.52624,-1.78649 -12.1285,-4.00161 z"
       id="path5337" />
  </g>
</svg>
