<?xml version="1.0" encoding="UTF-8" standalone="no"?>
<svg
   xmlns:dc="http://purl.org/dc/elements/1.1/"
   xmlns:cc="http://creativecommons.org/ns#"
   xmlns:rdf="http://www.w3.org/1999/02/22-rdf-syntax-ns#"
   xmlns:svg="http://www.w3.org/2000/svg"
   xmlns="http://www.w3.org/2000/svg"
   xmlns:sodipodi="http://sodipodi.sourceforge.net/DTD/sodipodi-0.dtd"
   xmlns:inkscape="http://www.inkscape.org/namespaces/inkscape"
   version="1.0"
   width="300"
   height="400"
   id="svg2"
   inkscape:version="0.48.2 r9819"
   sodipodi:docname="Can_Black_Yellow.svg"
   style="display:inline">
  <metadata
     id="metadata2913">
    <rdf:RDF>
      <cc:Work
         rdf:about="">
        <dc:format>image/svg+xml</dc:format>
        <dc:type
           rdf:resource="http://purl.org/dc/dcmitype/StillImage" />
        <dc:title />
      </cc:Work>
    </rdf:RDF>
  </metadata>
  <sodipodi:namedview
     pagecolor="#ffffff"
     bordercolor="#666666"
     borderopacity="1"
     objecttolerance="10"
     gridtolerance="10"
     guidetolerance="10"
     inkscape:pageopacity="0"
     inkscape:pageshadow="2"
     inkscape:window-width="1920"
     inkscape:window-height="1088"
     id="namedview2911"
     showgrid="true"
     inkscape:zoom="11.879394"
     inkscape:cx="132.09187"
     inkscape:cy="214.45828"
     inkscape:window-x="0"
     inkscape:window-y="0"
     inkscape:window-maximized="1"
     inkscape:current-layer="g4867"
     inkscape:snap-grids="false">
    <inkscape:grid
       type="xygrid"
       id="grid2919"
       empspacing="5"
       visible="true"
       enabled="true"
       snapvisiblegridlinesonly="true" />
  </sodipodi:namedview>
  <defs
     id="defs4" />
  <g
     style="display:inline"
     inkscape:label="Can Buoy 2 Band"
     id="g4867"
     inkscape:groupmode="layer"
     transform="translate(0,60)">
    <path
       sodipodi:nodetypes="cccccscccccccccccsccccsssc"
       d="m 131.41907,91.416708 -15.21875,45.750002 -7.96875,0 0,5.65625 29.6875,0 c 1.28732,5.53295 6.23327,9.65624 12.15625,9.65625 5.92495,0 10.87095,-4.12052 12.15625,-9.65625 l 29.84375,0 0,-0.0625 0,-5.59375 -7.6875,0 9.04112,-26.13686 z m 5.03125,8.625002 47.15625,15.96875 -7.21875,21.15625 -14.15625,0 c -1.2853,-5.53573 -6.2313,-9.65625 -12.15625,-9.65625 -5.92298,1e-5 -10.86893,4.1233 -12.15625,9.65625 l -13.71875,0 z m 13.625,32.4375 c 4.14,0 7.5,3.36 7.5,7.5 0,4.14 -3.36,7.5 -7.5,7.5 -4.14,0 -7.5,-3.36 -7.5,-7.5 0,-4.14 3.36,-7.5 7.5,-7.5 z"
       id="path4869"
       style="fill:#000407;fill-opacity:1;fill-rule:evenodd;stroke:none"
       inkscape:connector-curvature="0" />
    <rect
       style="fill:#000000;fill-opacity:1;stroke:none"
       id="rect5149"
       width="49.831997"
       height="0.82489997"
       x="160.99255"
       y="66.654488"
       transform="matrix(0.94832365,0.31730466,-0.31730466,0.94832365,0,0)" />
    <path
       style="fill:#ffd400;fill-opacity:1;stroke:none"
       d="m 124.32061,196.99257 c 0.024,-0.0918 1.64752,-5.03063 3.60782,-10.97518 l 3.56418,-10.80828 21.76116,7.27954 c 27.08978,9.06207 25.113,8.39454 25.14524,8.49124 0.015,0.0449 -0.43954,1.44401 -1.01003,3.10908 l -1.03725,3.02741 -7.02394,0.0211 -7.02394,0.0211 -0.31569,-0.9709 c -1.2594,-3.87323 -4.14432,-6.79251 -7.97598,-8.07098 -1.37345,-0.45826 -2.26518,-0.59391 -3.91434,-0.59542 -1.0484,-9.6e-4 -1.65614,0.0409 -2.27284,0.1565 -2.52982,0.47428 -4.74092,1.63986 -6.5672,3.4619 -1.62955,1.62576 -2.59937,3.30486 -3.30621,5.7242 l -0.0738,0.25253 -6.80042,0.0216 c -6.74455,0.0214 -6.80007,0.0202 -6.75678,-0.14536 z"
       id="path17706"
       inkscape:connector-curvature="0"
       transform="translate(0,-60)" />
    <path
       style="fill:#000000;fill-opacity:1;stroke:none"
       d="m 155.19917,182.17192 c -12.84321,-4.30272 -23.36323,-7.83506 -23.37782,-7.84965 -0.0218,-0.0218 4.59139,-14.09697 4.6507,-14.18956 0.0185,-0.0289 46.42645,15.66752 46.84675,15.84488 l 0.22264,0.094 -2.37279,6.94433 c -1.61035,4.71292 -2.41222,6.94994 -2.49549,6.96175 -0.0675,0.01 -10.63077,-3.50299 -23.47399,-7.8057 l 0,0 z"
       id="path17708"
       inkscape:connector-curvature="0"
       transform="translate(0,-60)" />
  </g>
</svg>
