<?xml version="1.0" encoding="UTF-8" standalone="no"?>
<!-- Created with Inkscape (http://www.inkscape.org/) -->
<svg id="svg2" xmlns:rdf="http://www.w3.org/1999/02/22-rdf-syntax-ns#" xmlns="http://www.w3.org/2000/svg" height="120" width="120" version="1.1" xmlns:cc="http://creativecommons.org/ns#" xmlns:dc="http://purl.org/dc/elements/1.1/">
 <metadata id="metadata7">
  <rdf:RDF>
   <cc:Work rdf:about="">
    <dc:format>image/svg+xml</dc:format>
    <dc:type rdf:resource="http://purl.org/dc/dcmitype/StillImage"/>
    <dc:title/>
   </cc:Work>
  </rdf:RDF>
 </metadata>
 <g id="g3313" transform="translate(0,-280)">
  <g id="layer1-5" transform="translate(-6.7761e-7 280)">
   <rect id="rect9689-0" ry="20" rx="20" transform="translate(0,-280)" height="120" width="120" y="280" x="6.7761e-7" fill="#00213e"/>
  </g>
  <g id="layer2-0" transform="translate(-6.7761e-7 280)">
   <g id="g3926" fill="#fff">
    <rect id="rect9761-9" fill-rule="evenodd" rx="4.1964" transform="matrix(.94148 -.33706 .33706 .94148 0 0)" ry="4.1964" width="40.893" y="54.657" x="28.373" height="8.3929"/>
    <rect id="rect9755-9" ry="12.533" fill-rule="evenodd" rx="12.533" transform="matrix(.92019 .39147 -.31970 .94752 0 0)" height="44.844" width="17.956" y="17.015" x="54.413"/>
    <rect id="rect9763-8" fill-rule="evenodd" rx="3.0958" transform="matrix(.94907 .31508 -.31944 .94761 0 0)" ry="3.0958" width="4.1073" y="6.659" x="87.836" height="49.107"/>
    <path id="path2667-9" d="m77.857 16.25c0 5.7201-4.637 10.357-10.357 10.357-5.7201 0-10.357-4.637-10.357-10.357 0-5.7201 4.637-10.357 10.357-10.357 5.7201 0 10.357 4.6371 10.357 10.357z" fill-rule="evenodd" transform="matrix(.86207 0 0 .86207 -7.7254 15.813)"/>
    <rect id="rect2721" transform="matrix(.99979 .020468 -.0060021 .99998 0 0)" fill-rule="evenodd" rx="4.1962" ry="4.1962" height="8.3925" width="22.145" y="51.544" x="46.702"/>
    <rect id="rect2723" fill-rule="evenodd" rx="4.1962" transform="matrix(.88526 -.46509 .48006 .87723 0 0)" ry="4.1962" width="20.181" y="76.556" x="25.245" height="8.3925"/>
    <path id="path2689" d="m105.46 371.37c-2.0863 0-1.4479-0.41717-3.2426-1.1192-1.8487-0.7487-3.935-1.1794-6.1136-1.1794-2.155 0-4.2413 0.43074-6.09 1.1794-1.8183 0.70207-3.8349 1.1192-5.9447 1.1192-2.1099 0-4.1186-0.41717-5.9212-1.1192-1.8409-0.7487-3.9272-1.1794-6.1136-1.1794-2.155 0-4.2413 0.43074-6.1057 1.1794-1.8026 0.70207-3.8123 1.1192-5.9212 1.1192s-4.1265-0.41717-5.929-1.1192c-1.8566-0.7487-3.935-1.1794-6.1136-1.1794-2.1707 0-4.2413 0.43074-6.0979 1.1794-1.8104 0.70207-3.827 1.1192-5.9369 1.1192s-4.1186-0.41717-5.929-1.1192c-1.8487-0.7487-3.935-1.1794-6.0979-1.1794-2.1864 0-4.257 0.43074-6.1057 1.1794-1.8104 0.70207-3.8201 1.1192-5.929 1.1192-5.9817-5.7904-9.1965-16.149-3.6401-22.773 7.6736 9.6118 87.151 10.274 99.395-0.64032 6.5179 8.2577 3.3398 18.487-2.163 23.413z" transform="translate(0,-280)"/>
   </g>
  </g>
  <path id="path3317" fill="#fff" d="m109.28 387.19c-2.125 0-4.203-0.492-6.031-1.32-1.883-0.883-4.008-1.391-6.227-1.391-2.195 0-4.32 0.508-6.203 1.391-1.852 0.828-3.906 1.32-6.055 1.32s-4.195-0.492-6.031-1.32c-1.875-0.883-4-1.391-6.227-1.391-2.195 0-4.32 0.508-6.219 1.391-1.836 0.828-3.883 1.32-6.031 1.32s-4.203-0.492-6.039-1.32c-1.891-0.883-4.008-1.391-6.227-1.391-2.211 0-4.32 0.508-6.211 1.391-1.844 0.828-3.898 1.32-6.047 1.32s-4.195-0.492-6.039-1.32c-1.883-0.883-4.008-1.391-6.211-1.391-2.227 0-4.336 0.508-6.219 1.391-1.844 0.828-3.891 1.32-6.039 1.32v-9.062c2.148 0 4.195-0.484 6.039-1.312 1.883-0.859 3.992-1.367 6.219-1.367 2.203 0 4.328 0.508 6.211 1.367 1.844 0.828 3.891 1.312 6.039 1.312s4.203-0.484 6.047-1.312c1.891-0.859 4-1.367 6.211-1.367 2.219 0 4.336 0.508 6.227 1.367 1.836 0.828 3.891 1.312 6.039 1.312s4.195-0.484 6.031-1.312c1.898-0.859 4.023-1.367 6.219-1.367 2.227 0 4.352 0.508 6.227 1.367 1.836 0.828 3.883 1.312 6.031 1.312s4.203-0.484 6.055-1.312c1.883-0.859 4.008-1.367 6.203-1.367 2.219 0 4.344 0.508 6.227 1.367 1.828 0.828 3.906 1.312 6.031 1.312v9.062z"/>
 </g>
</svg>
