<?xml version="1.0" encoding="UTF-8" standalone="no"?>
<!-- Created with Inkscape (http://www.inkscape.org/) -->

<svg
   xmlns:dc="http://purl.org/dc/elements/1.1/"
   xmlns:cc="http://creativecommons.org/ns#"
   xmlns:rdf="http://www.w3.org/1999/02/22-rdf-syntax-ns#"
   xmlns:svg="http://www.w3.org/2000/svg"
   xmlns="http://www.w3.org/2000/svg"
   xmlns:sodipodi="http://sodipodi.sourceforge.net/DTD/sodipodi-0.dtd"
   xmlns:inkscape="http://www.inkscape.org/namespaces/inkscape"
   width="120"
   height="120"
   id="svg2"
   version="1.1"
   inkscape:version="0.48.2 r9819"
   sodipodi:docname="canoeing.svg"
   style="display:inline">
  <defs
     id="defs4" />
  <sodipodi:namedview
     id="base"
     pagecolor="#ffffff"
     bordercolor="#666666"
     borderopacity="1.0"
     inkscape:pageopacity="0.0"
     inkscape:pageshadow="2"
     inkscape:zoom="5.6"
     inkscape:cx="51.077222"
     inkscape:cy="53.308674"
     inkscape:document-units="px"
     inkscape:current-layer="g3313"
     showgrid="true"
     inkscape:window-width="1920"
     inkscape:window-height="1088"
     inkscape:window-x="0"
     inkscape:window-y="0"
     inkscape:window-maximized="1"
     inkscape:snap-global="false">
    <inkscape:grid
       type="xygrid"
       id="grid3004"
       empspacing="5"
       visible="true"
       enabled="true"
       snapvisiblegridlinesonly="true" />
  </sodipodi:namedview>
  <metadata
     id="metadata7">
    <rdf:RDF>
      <cc:Work
         rdf:about="">
        <dc:format>image/svg+xml</dc:format>
        <dc:type
           rdf:resource="http://purl.org/dc/dcmitype/StillImage" />
        <dc:title />
      </cc:Work>
    </rdf:RDF>
  </metadata>
  <g
     style="display:inline"
     inkscape:label="Canoeing"
     id="g3313"
     inkscape:groupmode="layer"
     transform="translate(0,-280)">
    <g
       id="layer1-5"
       inkscape:label="Background"
       transform="translate(-6.7761101e-7,280)">
      <rect
         transform="translate(0,-280)"
         ry="20"
         rx="20"
         y="280"
         x="6.7761101e-07"
         height="120"
         width="120"
         id="rect9689-0"
         style="fill:#00213e;fill-opacity:1;stroke:none;display:inline" />
    </g>
    <g
       id="layer2-0"
       inkscape:label="Boat"
       transform="translate(-6.7761101e-7,280)">
      <g
         id="g3926">
        <rect
           rx="4.1964288"
           inkscape:transform-center-y="-5.7782587"
           transform="matrix(0.9414814,-0.337065,0.337065,0.9414814,0,0)"
           inkscape:transform-center-x="-16.139684"
           ry="4.1964288"
           y="54.656937"
           x="28.37343"
           height="8.3928576"
           width="40.892857"
           id="rect9761-9"
           style="fill:#ffffff;fill-opacity:1;fill-rule:evenodd;stroke:none;stroke-width:1px;marker:none;visibility:visible;display:inline;overflow:visible;enable-background:accumulate" />
        <rect
           rx="12.533336"
           transform="matrix(0.9201925,0.3914662,-0.3196954,0.9475204,0,0)"
           ry="12.533336"
           y="17.014616"
           x="54.41338"
           height="44.84404"
           width="17.955557"
           id="rect9755-9"
           style="fill:#ffffff;fill-opacity:1;fill-rule:evenodd;stroke:none;stroke-width:1px;marker:none;visibility:visible;display:inline;overflow:visible;enable-background:accumulate" />
        <rect
           rx="3.0958469"
           inkscape:transform-center-x="6.8202583"
           transform="matrix(0.9490663,0.3150763,-0.31944,0.9476065,0,0)"
           inkscape:transform-center-y="20.232033"
           ry="3.0958469"
           y="6.6590443"
           x="87.83567"
           height="49.106537"
           width="4.1072874"
           id="rect9763-8"
           style="fill:#ffffff;fill-opacity:1;fill-rule:evenodd;stroke:none;stroke-width:1px;marker:none;visibility:visible;display:inline;overflow:visible;enable-background:accumulate" />
        <path
           transform="matrix(0.862069,0,0,0.862069,-7.7253699,15.812808)"
           d="m 77.857142,16.25 c 0,5.720092 -4.63705,10.357142 -10.357142,10.357142 -5.720092,0 -10.357142,-4.63705 -10.357142,-10.357142 0,-5.720092 4.63705,-10.3571424 10.357142,-10.3571424 5.720092,0 10.357142,4.6370504 10.357142,10.3571424 z"
           sodipodi:ry="10.357142"
           sodipodi:rx="10.357142"
           sodipodi:cy="16.25"
           sodipodi:cx="67.5"
           id="path2667-9"
           style="fill:#ffffff;fill-opacity:1;fill-rule:evenodd;stroke:none;stroke-width:1px;marker:none;visibility:visible;display:inline;overflow:visible;enable-background:accumulate"
           sodipodi:type="arc" />
        <rect
           rx="4.1962466"
           style="fill:#ffffff;fill-opacity:1;fill-rule:evenodd;stroke:none;stroke-width:1px;marker:none;visibility:visible;display:inline;overflow:visible;enable-background:accumulate"
           id="rect2721"
           width="22.145208"
           height="8.3924932"
           x="46.701588"
           y="51.544384"
           ry="4.1962466"
           inkscape:transform-center-x="-9.2816404"
           transform="matrix(0.9997905,0.02046833,-0.00600208,0.999982,0,0)"
           inkscape:transform-center-y="0.19002553" />
        <rect
           rx="4.1962337"
           inkscape:transform-center-y="-3.9348041"
           transform="matrix(0.8852637,-0.4650894,0.4800643,0.8772333,0,0)"
           inkscape:transform-center-x="-7.4896157"
           ry="4.1962337"
           y="76.556404"
           x="25.245375"
           height="8.3924675"
           width="20.18137"
           id="rect2723"
           style="fill:#ffffff;fill-opacity:1;fill-rule:evenodd;stroke:none;stroke-width:1px;marker:none;visibility:visible;display:inline;overflow:visible;enable-background:accumulate" />
        <path
           sodipodi:nodetypes="ccscscscscscscsccccc"
           inkscape:connector-curvature="0"
           style="fill:#ffffff;fill-opacity:1;display:inline"
           d="m 105.45657,371.36864 c -2.0863,0 -1.44789,-0.41717 -3.2426,-1.11924 -1.84871,-0.7487 -3.935005,-1.17944 -6.113595,-1.17944 -2.15502,0 -4.24132,0.43074 -6.09003,1.17944 -1.81827,0.70207 -3.83487,1.11924 -5.94473,1.11924 -2.109864,0 -4.118604,-0.41717 -5.921169,-1.11924 -1.840854,-0.7487 -3.927155,-1.17944 -6.113599,-1.17944 -2.155026,0 -4.241327,0.43074 -6.105744,1.17944 -1.802565,0.70207 -3.812286,1.11924 -5.921169,1.11924 -2.108882,0 -4.126458,-0.41717 -5.929023,-1.11924 -1.856562,-0.7487 -3.935009,-1.17944 -6.113599,-1.17944 -2.170735,0 -4.241327,0.43074 -6.09789,1.17944 -1.810419,0.70207 -3.827013,1.11924 -5.936877,1.11924 -2.109864,0 -4.118604,-0.41717 -5.929023,-1.11924 -1.848708,-0.7487 -3.935009,-1.17944 -6.09789,-1.17944 -2.186444,0 -4.257037,0.43074 -6.105745,1.17944 -1.810419,0.70207 -3.82014,1.11924 -5.929023,1.11924 -5.9816769,-5.79045 -9.196547,-16.14923 -3.6401387,-22.77258 7.6736397,9.61175 87.1514347,10.27387 99.3948247,-0.64032 6.51791,8.25772 3.33979,18.48738 -2.16298,23.4129 z"
           id="path2689"
           transform="translate(0,-280)" />
      </g>
    </g>
    <path
       id="path3317"
       d="m 109.28334,387.19333 c -2.125,0 -4.203,-0.492 -6.031,-1.32 -1.883,-0.883 -4.007993,-1.391 -6.226993,-1.391 -2.195,0 -4.32,0.508 -6.203,1.391 -1.852,0.828 -3.905997,1.32 -6.054997,1.32 -2.149,0 -4.195,-0.492 -6.031,-1.32 -1.875,-0.883 -4,-1.391 -6.227,-1.391 -2.195,0 -4.32,0.508 -6.219,1.391 -1.836,0.828 -3.883,1.32 -6.031,1.32 -2.148,0 -4.203,-0.492 -6.039,-1.32 -1.891,-0.883 -4.008,-1.391 -6.227,-1.391 -2.211,0 -4.32,0.508 -6.211,1.391 -1.844,0.828 -3.898,1.32 -6.047,1.32 -2.149,0 -4.195,-0.492 -6.039,-1.32 -1.883,-0.883 -4.008,-1.391 -6.211,-1.391 -2.227,0 -4.336,0.508 -6.219,1.391 -1.844,0.828 -3.891,1.32 -6.039,1.32 v -9.062 c 2.148,0 4.195,-0.484 6.039,-1.312 1.883,-0.859 3.992,-1.367 6.219,-1.367 2.203,0 4.328,0.508 6.211,1.367 1.844,0.828 3.891,1.312 6.039,1.312 2.148,0 4.203,-0.484 6.047,-1.312 1.891,-0.859 4,-1.367 6.211,-1.367 2.219,0 4.336,0.508 6.227,1.367 1.836,0.828 3.891,1.312 6.039,1.312 2.148,0 4.195,-0.484 6.031,-1.312 1.898,-0.859 4.023,-1.367 6.219,-1.367 2.227,0 4.352,0.508 6.227,1.367 1.836,0.828 3.883,1.312 6.031,1.312 2.148,0 4.202997,-0.484 6.054997,-1.312 1.883,-0.859 4.008,-1.367 6.203,-1.367 2.219,0 4.343993,0.508 6.226993,1.367 1.828,0.828 3.906,1.312 6.031,1.312 v 9.062 z"
       style="fill:#ffffff;fill-opacity:1"
       inkscape:connector-curvature="0" />
  </g>
</svg>
