<?xml version="1.0" encoding="UTF-8" standalone="no"?>
<!-- Created with Inkscape (http://www.inkscape.org/) -->

<svg
   xmlns:dc="http://purl.org/dc/elements/1.1/"
   xmlns:cc="http://creativecommons.org/ns#"
   xmlns:rdf="http://www.w3.org/1999/02/22-rdf-syntax-ns#"
   xmlns:svg="http://www.w3.org/2000/svg"
   xmlns="http://www.w3.org/2000/svg"
   xmlns:sodipodi="http://sodipodi.sourceforge.net/DTD/sodipodi-0.dtd"
   xmlns:inkscape="http://www.inkscape.org/namespaces/inkscape"
   width="300"
   height="400"
   id="svg2"
   version="1.1"
   inkscape:version="0.48.2 r9819"
   sodipodi:docname="Chandler.svg"
   style="display:inline">
  <defs
     id="defs4" />
  <sodipodi:namedview
     id="base"
     pagecolor="#ffffff"
     bordercolor="#666666"
     borderopacity="1.0"
     inkscape:pageopacity="0.0"
     inkscape:pageshadow="2"
     inkscape:zoom="3.959798"
     inkscape:cx="69.163012"
     inkscape:cy="197.22887"
     inkscape:document-units="px"
     inkscape:current-layer="layer3"
     showgrid="true"
     inkscape:window-width="1920"
     inkscape:window-height="1088"
     inkscape:window-x="0"
     inkscape:window-y="0"
     inkscape:window-maximized="0"
     inkscape:snap-global="false">
    <inkscape:grid
       type="xygrid"
       id="grid3004"
       empspacing="5"
       visible="true"
       enabled="true"
       snapvisiblegridlinesonly="true" />
  </sodipodi:namedview>
  <metadata
     id="metadata7">
    <rdf:RDF>
      <cc:Work
         rdf:about="">
        <dc:format>image/svg+xml</dc:format>
        <dc:type
           rdf:resource="http://purl.org/dc/dcmitype/StillImage" />
        <dc:title />
      </cc:Work>
    </rdf:RDF>
  </metadata>
  <g
     inkscape:groupmode="layer"
     id="layer3"
     inkscape:label="Chandler"
     style="display:inline">
    <g
       style="font-style:normal;font-variant:normal;font-weight:normal;font-stretch:normal;letter-spacing:normal;word-spacing:normal;text-anchor:start;fill:none;stroke:#000000;stroke-width:0.98961562;stroke-linecap:butt;stroke-linejoin:miter;stroke-miterlimit:10.43299961;stroke-opacity:1;stroke-dasharray:none;stroke-dashoffset:0"
       word-spacing="normal"
       letter-spacing="normal"
       font-size-adjust="none"
       font-stretch="normal"
       font-weight="normal"
       font-variant="normal"
       font-style="normal"
       fill-rule="even-odd"
       stroke-miterlimit="10.433"
       xml:space="preserve"
       transform="matrix(0.1493046,0,0,-0.15245445,77.684444,209.4829)"
       id="content-8">












































<rect
   ry="97.933907"
   rx="100"
   transform="scale(1,-1)"
   y="-257.3353"
   x="288.47031"
   height="388.47726"
   width="388.47726"
   id="rect3761-5"
   style="fill:none;stroke:#a30075;stroke-width:13.25633049;stroke-miterlimit:10.43299961;stroke-opacity:1;stroke-dasharray:none" /><g
   transform="translate(-446.54858,63.628315)"
   id="g3823"
   style="stroke-width:0.98961562"><path
     inkscape:connector-curvature="0"
     id="path3759"
     d="m 18.766628,19.878856 c -0.198838,-4.477966 4.423395,-8.2304 10.324048,-8.381298 5.900652,-0.150897 10.845267,3.356885 11.044105,7.834851 0.0078,0.175781 0.0081,0.351709 8.12e-4,0.527503"
     style="fill:none;stroke:#a30075;stroke-width:3.83998108;stroke-miterlimit:10.43299961;stroke-opacity:1"
     transform="matrix(7.5183863,0,0,-9.9070395,687.70067,249.41271)" /><path
     inkscape:connector-curvature="0"
     id="rect3762"
     d="m 828.78693,42.572525 10e-6,0 0,-160.745225 -10e-6,0 z"
     style="fill:none;stroke:#a30075;stroke-width:33.14081573;stroke-miterlimit:10.43299961;stroke-opacity:1" /><path
     inkscape:connector-curvature="0"
     id="rect3764"
     d="m 989.63142,42.570405 -0.19974,0 0,-160.745215 0.19974,0 z"
     style="fill:none;stroke:#a30075;stroke-width:33.14082718;stroke-miterlimit:10.43299961;stroke-opacity:1" /><path
     inkscape:connector-curvature="0"
     id="rect3772"
     d="m 795.91406,81.216805 200.93154,0 0,0.207644 -200.93154,0 z"
     style="fill:none;stroke:#a30075;stroke-width:33.14081192;stroke-miterlimit:10.43299961;stroke-opacity:1"
     transform="scale(1,-1)" /><path
     inkscape:connector-curvature="0"
     id="path3774"
     d="m 55.690141,43.760563 c 0,3.181471 -1.721497,5.760563 -3.845071,5.760563 -2.123574,0 -3.845071,-2.579092 -3.845071,-5.760563 C 47.999999,40.579092 49.721496,38 51.84507,38 c 2.123574,0 3.845071,2.579092 3.845071,5.760563 z"
     style="fill:none;stroke:#a30075;stroke-width:3.1049881;stroke-miterlimit:10.43299961;stroke-opacity:1"
     transform="matrix(7.8385355,0,0,-5.23208,642.2718,148.90983)" /></g><path
   inkscape:connector-curvature="0"
   id="path3835-5"
   d="m 368.97651,-130.48164 c -34.14402,5.73826 -63.91782,30.704745 -75.22938,63.08273 -5.51142,15.77579 -5.27235,9.863439 -5.27235,130.383956 0,123.737344 -0.42108,115.580814 6.90369,133.725954 11.51458,28.52425 36.20439,50.01034 66.17823,57.591 11.78192,2.97976 23.48046,3.24528 128.32836,2.91275 95.07485,-0.30155 103.60546,-0.44733 109.62287,-1.87331 20.55991,-4.87219 34.85137,-12.65859 48.77188,-26.57231 11.74158,-11.73586 18.43794,-22.38857 23.41862,-37.25472 5.37348,-16.03857 5.24178,-12.79918 5.23874,-128.860832 -0.002,-92.096508 -0.17929,-106.82492 -1.36476,-113.640212 -5.83517,-33.54681 -28.91164,-62.011016 -59.94431,-73.939716 -16.94646,-6.51407 -6.60439,-6.02299 -130.52817,-6.19803 -64.53856,-0.0911 -113.36454,0.17907 -116.12342,0.64276 l 0,0 z"
   style="fill:none;stroke:#a30075;stroke-width:13.25633049;stroke-miterlimit:10.43299961;stroke-opacity:1;stroke-dasharray:none" /><path
   transform="matrix(6.6977173,0,0,-6.6977173,281.77259,264.02334)"
   inkscape:connector-curvature="0"
   id="path58798"
   d="M 13.683693,57.757351 C 8.7780716,56.932898 4.5003385,53.345813 2.8751572,48.693873 2.0833066,46.42727 2.117656,47.276733 2.117656,29.960822 2.117656,12.18273 2.057157,13.354627 3.1095385,10.747606 4.7539242,6.6740394 8.1087837,3.7261573 12.492656,2.502753 c 1.496307,-0.4175733 8.012735,-0.5316886 22.0625,-0.3863574 11.532692,0.1192945 12.100931,0.135882 12.9375,0.377659 2.746407,0.7937403 4.446006,1.7746936 6.31977,3.6475658 2.520774,2.5195747 3.773224,5.2632966 3.997245,8.7567016 0.149954,2.338385 0.143996,29.129339 -0.0068,30.680541 -0.168994,1.738142 -0.511178,2.894888 -1.370203,4.631959 -1.854446,3.749954 -4.995827,6.26212 -9.25249,7.399226 -0.749101,0.200113 -2.060972,0.218813 -16.8125,0.23965 -9.272538,0.0131 -16.287583,-0.02573 -16.683962,-0.09235 l 2e-6,0 z m 3.871463,-10.359029 0,-2.75 9.4375,0 9.4375,0 0,2.75 0,2.75 2.5625,0 2.5625,0 0,-2.75 0,-2.75 0.435932,0 c 0.374902,0 0.481535,0.07224 0.761674,0.516009 2.00449,3.175317 6.643625,3.674416 9.301518,1.000699 1.263671,-1.271196 1.788426,-2.545317 1.778817,-4.319032 -0.01466,-2.705501 -1.515102,-4.79423 -4.10043,-5.70809 -0.983097,-0.347505 -2.70849,-0.374662 -3.677511,-0.05788 -1.487691,0.486337 -2.943749,1.683646 -3.541364,2.912046 -0.212612,0.437025 -0.320546,0.53125 -0.608545,0.53125 l -0.350091,0 -3.75e-4,-9.28125 C 41.554432,20.434145 41.512741,19.528954 40.974798,17.648324 40.596778,16.32678 39.49906,14.074825 38.758183,13.100968 35.935192,9.3902384 32.177217,7.3857638 27.671886,7.1876232 c -4.224278,-0.18578 -7.92941,1.2314828 -10.915979,4.1755078 -1.98866,1.960332 -3.272684,4.267098 -3.985604,7.160193 -0.252561,1.024914 -0.263406,1.415143 -0.306564,11.03125 l -0.04474,9.96875 -2.4319214,0 -2.4319216,0 0,2.5625 0,2.5625 2.4375,0 2.4375,0 0,2.75 0,2.75 2.5625,0 2.5625,0 0,-2.75 z"
   style="fill:#ffffff;fill-opacity:0.50196078;stroke:none" /><path
   transform="matrix(6.6977173,0,0,-6.6977173,281.77259,264.02334)"
   inkscape:connector-curvature="0"
   id="path58800"
   d="m 17.585102,29.804572 c 0.04441,-10.783596 0.0016,-10.208716 0.901349,-12.116593 0.928123,-1.968149 2.419712,-3.472059 4.381205,-4.417397 1.461401,-0.704319 2.654358,-0.99726 4.061195,-0.99726 2.651826,0 4.832089,0.924058 6.754525,2.862762 0.86897,0.876324 1.174804,1.293969 1.656595,2.262238 1.079189,2.168877 1.016749,1.438283 1.06031,12.40625 l 0.0386,9.71875 -9.446903,0 -9.446904,0 0.04003,-9.71875 0,0 z"
   style="fill:#ffffff;fill-opacity:0.50196078;stroke:none" /><path
   transform="matrix(6.6977173,0,0,-6.6977173,281.77259,264.02334)"
   inkscape:connector-curvature="0"
   id="path58802"
   d="m 46.682404,44.513704 c -1.056582,-0.479261 -1.618524,-1.257733 -1.720615,-2.383606 -0.287176,-3.167029 4.08729,-4.397201 5.471128,-1.538572 1.163525,2.403521 -1.335959,5.017409 -3.750513,3.922178 z"
   style="fill:#ffffff;fill-opacity:0.50196078;stroke:none" /></g>  </g>
</svg>
