<svg
   xmlns:svg="http://www.w3.org/2000/svg"
   xmlns="http://www.w3.org/2000/svg"
   version="1.1"
   width="300"
   height="400">
  <g
     id="chandler" width="300" height="400">
    <g transform="matrix(0.1493,0,0,-0.15245,77.684,209.48)">
			<rect width="388.48001" height="388.48001" rx="100" ry="97.933998" x="288.47" y="-257.34" transform="scale(1,-1)"
				style="fill:none;stroke:#a30075;stroke-width:13.25599957;stroke-miterlimit:10.43299961" />
			<g transform="translate(-446.55,63.628)" style="fill:none;stroke:#a30075;stroke-miterlimit:10.43299961">
				<path d="m 18.767,19.879 c -0.19884,-4.478 4.4234,-8.2304 10.324,-8.3813 5.9007,-0.1509 10.845,3.3569 11.044,7.8349 0.0078,0.17578 0.0081,0.35171 8.12e-4,0.5275"
					transform="matrix(7.5184,0,0,-9.907,687.7,249.41)" style="stroke-width:3.83999991" />
				<path d="m 828.79,42.573 h 1e-5 v -160.75 h -1e-5 z" style="stroke-width:33.14099884" />
				<path d="m 989.63,42.57 h -0.19974 V -118.18 H 989.63 z" style="stroke-width:33.14099884" />
				<path d="m 795.91,81.217 h 200.93 v 0.20764 H 795.91 z" transform="scale(1,-1)" style="stroke-width:33.14099884" />
				<path d="m 55.69,43.761 c 0,3.1815 -1.7215,5.7606 -3.8451,5.7606 -2.1236,0 -3.8451,-2.5791 -3.8451,-5.7606 0,-3.182 1.721,-5.761 3.845,-5.761 2.1236,0 3.8451,2.5791 3.8451,5.7606 z"
					transform="matrix(7.8385,0,0,-5.2321,642.27,148.91)" style="stroke-width:3.10500002" />
			</g>
			<path d="m 368.98,-130.48 c -34.144,5.7383 -63.918,30.705 -75.229,63.083 -5.5114,15.776 -5.2724,9.8634 -5.2724,130.38 0,123.74 -0.42108,115.58 6.9037,133.73 11.515,28.524 36.204,50.01 66.178,57.591 11.782,2.9798 23.48,3.2453 128.33,2.9128 95.075,-0.30155 103.61,-0.44733 109.62,-1.8733 20.56,-4.8722 34.851,-12.659 48.772,-26.572 11.742,-11.736 18.438,-22.389 23.419,-37.255 5.3735,-16.039 5.2418,-12.799 5.2387,-128.86 -0.002,-92.097 -0.17929,-106.82 -1.3648,-113.64 -5.8352,-33.547 -28.912,-62.011 -59.944,-73.94 -16.946,-6.5141 -6.6044,-6.023 -130.53,-6.198 -64.539,-0.0911 -113.36,0.17907 -116.12,0.64276 z"
				style="fill:none;stroke:#a30075;stroke-width:13.25599957;stroke-miterlimit:10.43299961" />
		</g>
	</g>
</svg>
