<?xml version="1.0" encoding="UTF-8" standalone="no"?>
<!-- Created with Inkscape (http://www.inkscape.org/) -->
<svg id="svg2" xmlns:rdf="http://www.w3.org/1999/02/22-rdf-syntax-ns#" xmlns="http://www.w3.org/2000/svg" height="400" width="300" version="1.1" xmlns:cc="http://creativecommons.org/ns#" xmlns:dc="http://purl.org/dc/elements/1.1/">
 <metadata id="metadata7">
  <rdf:RDF>
   <cc:Work rdf:about="">
    <dc:format>image/svg+xml</dc:format>
    <dc:type rdf:resource="http://purl.org/dc/dcmitype/StillImage"/>
    <dc:title/>
   </cc:Work>
  </rdf:RDF>
 </metadata>
 <g id="layer3">
  <g id="content-8" stroke-width=".98962" fill-rule="even-odd" xml:space="preserve" transform="matrix(.14930 0 0 -.15245 77.684 209.48)" stroke="#000" stroke-miterlimit="10.433">
<rect id="rect3761-5" transform="scale(1,-1)" rx="100" ry="97.934" height="388.48" width="388.48" stroke="#a30075" stroke-miterlimit="10.433" y="-257.34" x="288.47" stroke-width="13.256" fill="none"/><g id="g3823" transform="translate(-446.55 63.628)" stroke="#a30075" stroke-miterlimit="10.433" fill="none"><path id="path3759" d="m18.767 19.879c-0.19884-4.478 4.4234-8.2304 10.324-8.3813 5.9007-0.1509 10.845 3.3569 11.044 7.8349 0.0078 0.17578 0.0081 0.35171 0.000812 0.5275" transform="matrix(7.5184 0 0 -9.907 687.7 249.41)" stroke-width="3.84"/><path id="rect3762" d="m828.79 42.573h0.00001v-160.75h-0.00001z" stroke-width="33.141"/><path id="rect3764" d="m989.63 42.57h-0.19974v-160.75h0.19974z" stroke-width="33.141"/><path id="rect3772" d="m795.91 81.217h200.93v0.20764h-200.93z" transform="scale(1,-1)" stroke-width="33.141"/><path id="path3774" d="m55.69 43.761c0 3.1815-1.7215 5.7606-3.8451 5.7606s-3.8451-2.5791-3.8451-5.7606c0-3.182 1.721-5.761 3.845-5.761 2.1236 0 3.8451 2.5791 3.8451 5.7606z" transform="matrix(7.8385 0 0 -5.2321 642.27 148.91)" stroke-width="3.105"/></g><path id="path3835-5" d="m368.98-130.48c-34.144 5.7383-63.918 30.705-75.229 63.083-5.5114 15.776-5.2724 9.8634-5.2724 130.38 0 123.74-0.42108 115.58 6.9037 133.73 11.515 28.524 36.204 50.01 66.178 57.591 11.782 2.9798 23.48 3.2453 128.33 2.9128 95.075-0.30155 103.61-0.44733 109.62-1.8733 20.56-4.8722 34.851-12.659 48.772-26.572 11.742-11.736 18.438-22.389 23.419-37.255 5.3735-16.039 5.2418-12.799 5.2387-128.86-0.002-92.097-0.17929-106.82-1.3648-113.64-5.8352-33.547-28.912-62.011-59.944-73.94-16.946-6.5141-6.6044-6.023-130.53-6.198-64.539-0.0911-113.36 0.17907-116.12 0.64276z" stroke="#a30075" stroke-miterlimit="10.433" stroke-width="13.256" fill="none"/><path id="path58798" d="m13.684 57.757c-4.9059-0.824-9.1837-4.411-10.809-9.063-0.7917-2.267-0.7573-1.417-0.7573-18.733 0-17.778-0.0605-16.606 0.9918-19.213 1.6444-4.074 4.9993-7.0218 9.3835-8.2452 1.4963-0.41757 8.0127-0.53169 22.062-0.38636 11.533 0.11929 12.101 0.13588 12.938 0.37766 2.7464 0.79374 4.446 1.7747 6.3198 3.6476 2.5208 2.5196 3.7732 5.2633 3.9972 8.7567 0.14995 2.3384 0.144 29.129-0.0068 30.681-0.16899 1.7381-0.51118 2.8949-1.3702 4.632-1.8544 3.75-4.9958 6.2621-9.2525 7.3992-0.7491 0.20011-2.061 0.21881-16.812 0.23965-9.2725 0.0131-16.288-0.02573-16.684-0.09235h0.000002zm3.8715-10.359v-2.75h9.4375 9.4375v2.75 2.75h2.5625 2.5625v-2.75-2.75h0.43593c0.3749 0 0.48154 0.07224 0.76167 0.51601 2.0045 3.1753 6.6436 3.6744 9.3015 1.0007 1.2637-1.2712 1.7884-2.5453 1.7788-4.319-0.01466-2.7055-1.5151-4.7942-4.1004-5.7081-0.9831-0.3475-2.7085-0.37466-3.6775-0.05788-1.4877 0.48634-2.9437 1.6836-3.5414 2.912-0.21261 0.43702-0.32055 0.53125-0.60854 0.53125h-0.35009l-0.000375-9.2812c-0.002-9.808-0.043-10.713-0.581-12.594-0.378-1.321-1.476-3.573-2.217-4.547-2.823-3.7108-6.581-5.7152-11.086-5.9134-4.2243-0.18578-7.9294 1.2315-10.916 4.1755-1.9887 1.9603-3.2727 4.2671-3.9856 7.1602-0.25256 1.0249-0.26341 1.4151-0.30656 11.031l-0.04474 9.9688h-2.4319-2.4319v2.5625 2.5625h2.4375 2.4375v2.75 2.75h2.5625 2.5625v-2.75z" fill-opacity=".50196" transform="matrix(6.6977 0 0 -6.6977 281.77 264.02)" fill="#fff"/><path id="path58800" d="m17.585 29.805c0.04441-10.784 0.0016-10.209 0.90135-12.117 0.92812-1.9681 2.4197-3.4721 4.3812-4.4174 1.4614-0.70432 2.6544-0.99726 4.0612-0.99726 2.6518 0 4.8321 0.92406 6.7545 2.8628 0.86897 0.87632 1.1748 1.294 1.6566 2.2622 1.0792 2.1689 1.0167 1.4383 1.0603 12.406l0.0386 9.7188h-9.4469-9.4469l0.04003-9.7188z" fill-opacity=".50196" transform="matrix(6.6977 0 0 -6.6977 281.77 264.02)" fill="#fff"/><path id="path58802" d="m46.682 44.514c-1.0566-0.47926-1.6185-1.2577-1.7206-2.3836-0.28718-3.167 4.0873-4.3972 5.4711-1.5386 1.1635 2.4035-1.336 5.0174-3.7505 3.9222z" fill-opacity=".50196" transform="matrix(6.6977 0 0 -6.6977 281.77 264.02)" fill="#fff"/></g>
 </g>
</svg>
