<?xml version="1.0" encoding="UTF-8" standalone="no"?>
<!-- Created with Inkscape (http://www.inkscape.org/) -->

<svg
   xmlns:dc="http://purl.org/dc/elements/1.1/"
   xmlns:cc="http://creativecommons.org/ns#"
   xmlns:rdf="http://www.w3.org/1999/02/22-rdf-syntax-ns#"
   xmlns:svg="http://www.w3.org/2000/svg"
   xmlns="http://www.w3.org/2000/svg"
   xmlns:sodipodi="http://sodipodi.sourceforge.net/DTD/sodipodi-0.dtd"
   xmlns:inkscape="http://www.inkscape.org/namespaces/inkscape"
   width="300"
   height="400"
   id="svg2"
   version="1.1"
   inkscape:version="0.48.2 r9819"
   sodipodi:docname="ChurchTower.svg">
  <defs
     id="defs4" />
  <sodipodi:namedview
     id="base"
     pagecolor="#ffffff"
     bordercolor="#666666"
     borderopacity="1.0"
     inkscape:pageopacity="0.0"
     inkscape:pageshadow="2"
     inkscape:zoom="1.4760854"
     inkscape:cx="64.848204"
     inkscape:cy="252.02381"
     inkscape:document-units="px"
     inkscape:current-layer="g3789"
     showgrid="true"
     inkscape:window-width="1920"
     inkscape:window-height="1088"
     inkscape:window-x="0"
     inkscape:window-y="0"
     inkscape:window-maximized="1"
     inkscape:snap-global="false"
     showguides="true"
     inkscape:guide-bbox="true">
    <inkscape:grid
       type="xygrid"
       id="grid3004"
       empspacing="5"
       visible="true"
       enabled="true"
       snapvisiblegridlinesonly="true" />
  </sodipodi:namedview>
  <metadata
     id="metadata7">
    <rdf:RDF>
      <cc:Work
         rdf:about="">
        <dc:format>image/svg+xml</dc:format>
        <dc:type
           rdf:resource="http://purl.org/dc/dcmitype/StillImage" />
        <dc:title />
      </cc:Work>
    </rdf:RDF>
  </metadata>
  <g
     style="display:inline"
     inkscape:label="Church Tower"
     id="g3789"
     inkscape:groupmode="layer">
    <g
       style="display:inline"
       id="g6558">
      <path
         inkscape:connector-curvature="0"
         id="rect4626"
         d="m 100,179 0,42 2.0625,0 c 0.51092,-6.17058 5.63062,-11 11.9375,-11 l 72,0 c 6.30688,0 11.42658,4.82942 11.9375,11 l 2.0625,0 0,-42 -2.0625,0 c -0.51092,6.17058 -5.63062,11 -11.9375,11 l -72,0 c -6.30688,0 -11.42658,-4.82942 -11.9375,-11 L 100,179 z"
         style="color:#000000;fill:#000000;fill-opacity:1;fill-rule:nonzero;stroke:none;stroke-width:4;marker:none;visibility:visible;display:inline;overflow:visible;enable-background:accumulate" />
      <path
         id="rect4626-9"
         d="m 171,150 -42,0 0,2.0625 c 6.17058,0.51092 11,5.63062 11,11.9375 l 0,72 c 0,6.30688 -4.82942,11.42658 -11,11.9375 l 0,2.0625 42,0 0,-2.0625 C 164.82942,247.42658 160,242.30688 160,236 l 0,-72 c 0,-6.30688 4.82942,-11.42658 11,-11.9375 L 171,150 z"
         style="color:#000000;fill:#000000;fill-opacity:1;fill-rule:nonzero;stroke:none;stroke-width:4;marker:none;visibility:visible;display:inline;overflow:visible;enable-background:accumulate"
         inkscape:connector-curvature="0" />
    </g>
    <g
       style="display:inline"
       id="g6562">
      <path
         sodipodi:type="arc"
         style="fill:#000000;fill-opacity:1;stroke:none"
         id="path3793"
         sodipodi:cx="150.17857"
         sodipodi:cy="201.07143"
         sodipodi:rx="4.8214288"
         sodipodi:ry="5.1785712"
         d="m 155,201.07143 a 4.8214288,5.1785712 0 1 1 -9.64286,0 4.8214288,5.1785712 0 1 1 9.64286,0 z"
         transform="matrix(0.6222222,0,0,0.57931037,56.555558,83.517238)" />
      <path
         transform="matrix(0.5091173,0,0,0.5091173,73.628513,98.181708)"
         d="m 220.71832,199.98979 a 70.710678,70.710678 0 1 1 -141.421353,0 70.710678,70.710678 0 1 1 141.421353,0 z"
         sodipodi:ry="70.710678"
         sodipodi:rx="70.710678"
         sodipodi:cy="199.98979"
         sodipodi:cx="150.00764"
         id="path4573"
         style="color:#000000;fill:none;stroke:#000000;stroke-width:7.85673571;stroke-linecap:butt;stroke-linejoin:round;stroke-miterlimit:4;stroke-opacity:1;stroke-dasharray:none;stroke-dashoffset:0;marker:none;visibility:visible;display:inline;overflow:visible;enable-background:accumulate"
         sodipodi:type="arc" />
    </g>
  </g>
</svg>
