<svg
   xmlns:svg="http://www.w3.org/2000/svg"
   xmlns="http://www.w3.org/2000/svg"
   version="1.1"
   width="300"
   height="400">
   <g id="church" width="300" height="400">
      <path
         d="m 100,179 v 42 h 2.0625 c 0.51092,-6.1706 5.6306,-11 11.938,-11 h 72 c 6.3069,0 11.427,4.8294 11.938,11 h 2.0625 v -42 h -2.0625 c -0.51092,6.1706 -5.6306,11 -11.938,11 h -72 c -6.3069,0 -11.427,-4.8294 -11.938,-11 h -2.06 z"
         style="color:#000000" />
      <path
         d="m 171,150 h -42 v 2.0625 c 6.1706,0.51092 11,5.6306 11,11.938 v 72 c 0,6.3069 -4.8294,11.427 -11,11.938 v 2.0625 h 42 v -2.0625 c -6.17,-0.51 -11,-5.63 -11,-11.94 v -72 c 0,-6.3069 4.8294,-11.427 11,-11.938 v -2.06 z"
         style="color:#000000" />
	</g>
</svg>
