<?xml version="1.0" encoding="UTF-8" standalone="no"?>
<svg
   xmlns:dc="http://purl.org/dc/elements/1.1/"
   xmlns:cc="http://creativecommons.org/ns#"
   xmlns:rdf="http://www.w3.org/1999/02/22-rdf-syntax-ns#"
   xmlns:svg="http://www.w3.org/2000/svg"
   xmlns="http://www.w3.org/2000/svg"
   xmlns:sodipodi="http://sodipodi.sourceforge.net/DTD/sodipodi-0.dtd"
   xmlns:inkscape="http://www.inkscape.org/namespaces/inkscape"
   version="1.0"
   width="300"
   height="400"
   id="svg2"
   inkscape:version="0.48.2 r9819"
   sodipodi:docname="Cone_Green_White_Green_White.svg"
   style="display:inline">
  <metadata
     id="metadata2913">
    <rdf:RDF>
      <cc:Work
         rdf:about="">
        <dc:format>image/svg+xml</dc:format>
        <dc:type
           rdf:resource="http://purl.org/dc/dcmitype/StillImage" />
        <dc:title />
      </cc:Work>
    </rdf:RDF>
  </metadata>
  <sodipodi:namedview
     pagecolor="#ffffff"
     bordercolor="#666666"
     borderopacity="1"
     objecttolerance="10"
     gridtolerance="10"
     guidetolerance="10"
     inkscape:pageopacity="0"
     inkscape:pageshadow="2"
     inkscape:window-width="1920"
     inkscape:window-height="1088"
     id="namedview2911"
     showgrid="true"
     inkscape:zoom="11.879394"
     inkscape:cx="149.45912"
     inkscape:cy="219.20898"
     inkscape:window-x="0"
     inkscape:window-y="0"
     inkscape:window-maximized="1"
     inkscape:current-layer="g3213"
     inkscape:snap-grids="false">
    <inkscape:grid
       type="xygrid"
       id="grid2919"
       empspacing="5"
       visible="true"
       enabled="true"
       snapvisiblegridlinesonly="true" />
  </sodipodi:namedview>
  <defs
     id="defs4" />
  <g
     transform="translate(0,60)"
     style="display:inline"
     inkscape:label="Cone Buoy 4 Band"
     id="g3213"
     inkscape:groupmode="layer">
    <g
       id="g3215">
      <g
         id="g3217">
        <path
           inkscape:connector-curvature="0"
           sodipodi:nodetypes="cccsccccccscccsssc"
           d="m 108.23157,137.16671 0,5.65625 29.6875,0 c 1.28732,5.53295 6.23327,9.65624 12.15625,9.65625 5.92495,0 10.87095,-4.12052 12.15625,-9.65625 l 29.84375,0 0,-0.0625 0,-5.59375 -83.84375,0 z m 54,0 c -1.2853,-5.53573 -6.2313,-9.65625 -12.15625,-9.65625 -5.92298,1e-5 -10.86893,4.1233 -12.15625,9.65625 l 24.3125,0 z m -12.15625,-4.6875 c 4.14,0 7.5,3.36 7.5,7.5 0,4.14 -3.36,7.5 -7.5,7.5 -4.14,0 -7.5,-3.36 -7.5,-7.5 0,-4.14 3.36,-7.5 7.5,-7.5 z"
           id="path3219"
           style="fill:#000407;fill-opacity:1;fill-rule:evenodd;stroke:none" />
        <path
           sodipodi:type="arc"
           style="fill:none;stroke:#000000;stroke-width:4.64683294;stroke-miterlimit:4;stroke-opacity:1;stroke-dasharray:none;display:inline"
           id="path3221"
           sodipodi:cx="46.492271"
           sodipodi:cy="150.92163"
           sodipodi:rx="31.466251"
           sodipodi:ry="30.935923"
           d="m 15.635753,156.98217 c -3.114542,-15.3273 5.88908,-30.53085 20.984529,-35.43455"
           transform="matrix(1.4164674,0.47394337,-0.48206808,1.4407496,172.65842,-93.634291)"
           sodipodi:start="2.9444111"
           sodipodi:end="4.3932674"
           sodipodi:open="true" />
        <path
           sodipodi:type="arc"
           style="fill:none;stroke:#000000;stroke-width:3.59378028;stroke-miterlimit:4;stroke-opacity:1;stroke-dasharray:none;display:inline"
           id="path3223"
           sodipodi:cx="102.79565"
           sodipodi:cy="122.54897"
           sodipodi:rx="23.953241"
           sodipodi:ry="24.306795"
           d="m 110.53956,99.547479 c 7.81904,2.710721 13.70924,9.319411 15.58437,17.485361"
           transform="matrix(1.8607362,0.62259362,-0.61353771,1.8336709,19.201188,-153.26853)"
           sodipodi:start="5.0415963"
           sodipodi:end="6.0542529"
           sodipodi:open="true" />
      </g>
      <rect
         y="70.639336"
         x="160.19763"
         height="0.82489997"
         width="52.331997"
         id="rect3225"
         style="fill:#000000;fill-opacity:1;stroke:none;display:inline"
         transform="matrix(0.94832365,0.31730466,-0.31730466,0.94832365,0,0)" />
      <rect
         style="fill:#000000;fill-opacity:1;stroke:none;display:inline"
         id="rect3227"
         width="49.989216"
         height="0.70672113"
         x="161.33473"
         y="63.043678"
         transform="matrix(0.94832365,0.31730466,-0.31730466,0.94832365,0,0)" />
      <rect
         y="55.071892"
         x="167.9221"
         height="0.70672113"
         width="37.191597"
         id="rect3229"
         style="fill:#000000;fill-opacity:1;stroke:none;display:inline"
         transform="matrix(0.94832365,0.31730466,-0.31730466,0.94832365,0,0)" />
    </g>
    <path
       style="fill:#00d400;fill-opacity:1;stroke:none"
       d="m 160.39949,171.69152 c -7.59298,-2.54154 -13.86224,-4.6445 -13.93169,-4.67325 -0.27148,-0.11239 3.17676,-1.59562 5.5546,-2.38928 3.53193,-1.17885 6.90167,-1.84662 10.83509,-2.14716 l 0.69023,-0.0527 0.825,0.75222 c 3.28362,2.99399 5.93892,6.2228 8.19426,9.96413 0.6708,1.11277 1.71949,3.08985 1.66586,3.14062 -0.0154,0.0145 -6.24037,-2.053 -13.83335,-4.59454 z"
       id="path4941"
       inkscape:connector-curvature="0"
       transform="translate(0,-60)" />
    <path
       style="fill:#00d400;fill-opacity:1;stroke:none"
       d="m 155.29104,186.41053 -23.37537,-7.82823 0.68162,-0.81072 c 0.37489,-0.4459 1.54248,-1.67174 2.59465,-2.72411 l 1.91304,-1.91338 2.00872,0.67849 c 1.10479,0.37317 10.26321,3.4404 20.35205,6.81608 10.08883,3.37567 18.3618,6.15606 18.38438,6.17864 0.0816,0.0816 0.44064,2.29932 0.60373,3.72907 0.16145,1.4154 0.31534,3.73421 0.2464,3.71287 -0.0186,-0.006 -10.55276,-3.53319 -23.40922,-7.83871 l 0,0 z"
       id="path4943"
       inkscape:connector-curvature="0"
       transform="translate(0,-60)" />
    <path
       style="fill:#ffffff;fill-opacity:1;stroke:none"
       d="m 157.83202,179.24535 c -10.81074,-3.62163 -19.72542,-6.61163 -19.81041,-6.64447 -0.13049,-0.0504 -0.0781,-0.12302 0.33671,-0.46677 0.87856,-0.72803 2.30014,-1.76927 3.51287,-2.573 1.36891,-0.90724 3.41894,-2.08788 3.54358,-2.0408 0.0467,0.0177 6.67621,2.23634 14.73218,4.93043 l 14.64721,4.89833 0.15539,0.35306 c 0.50285,1.14253 1.26812,3.13734 1.63711,4.2674 0.59038,1.80807 1.12473,3.87376 1.00017,3.86642 -0.0544,-0.003 -8.94408,-2.96898 -19.75481,-6.5906 z"
       id="path4945"
       inkscape:connector-curvature="0"
       transform="translate(0,-60)" />
    <path
       style="fill:#ffffff;fill-opacity:1;stroke:none"
       d="m 123.23429,196.98754 c 0,-0.23789 0.56973,-2.50625 0.92056,-3.6652 1.19474,-3.94669 2.96849,-7.75855 5.20003,-11.17505 0.71563,-1.09563 1.92118,-2.78732 1.98633,-2.78732 0.0143,0 10.66456,3.56079 23.66722,7.91286 13.00265,4.35208 23.65444,7.91286 23.67063,7.91286 0.0162,0 0.0294,0.43582 0.0294,0.96848 l 0,0.96848 -8.22572,-0.0215 -8.22572,-0.0215 -0.11395,-0.4209 c -0.71631,-2.64586 -2.52965,-5.24267 -4.78211,-6.84823 -0.86779,-0.61857 -2.47228,-1.4257 -3.44332,-1.73214 -1.56499,-0.49388 -3.20815,-0.67821 -4.86033,-0.54525 -5.16135,0.41536 -9.44521,3.88133 -10.96806,8.87399 l -0.21797,0.71462 -7.31852,0 c -6.64325,0 -7.31851,-0.0124 -7.31851,-0.13428 z"
       id="path4947"
       inkscape:connector-curvature="0"
       transform="translate(0,-60)" />
  </g>
</svg>
