<?xml version="1.0" encoding="UTF-8" standalone="no"?>
<svg
   xmlns:dc="http://purl.org/dc/elements/1.1/"
   xmlns:cc="http://creativecommons.org/ns#"
   xmlns:rdf="http://www.w3.org/1999/02/22-rdf-syntax-ns#"
   xmlns:svg="http://www.w3.org/2000/svg"
   xmlns="http://www.w3.org/2000/svg"
   xmlns:sodipodi="http://sodipodi.sourceforge.net/DTD/sodipodi-0.dtd"
   xmlns:inkscape="http://www.inkscape.org/namespaces/inkscape"
   version="1.0"
   width="300"
   height="400"
   id="svg2"
   inkscape:version="0.48.2 r9819"
   sodipodi:docname="Cone_Green_Red_Green.svg"
   style="display:inline">
  <metadata
     id="metadata2913">
    <rdf:RDF>
      <cc:Work
         rdf:about="">
        <dc:format>image/svg+xml</dc:format>
        <dc:type
           rdf:resource="http://purl.org/dc/dcmitype/StillImage" />
        <dc:title />
      </cc:Work>
    </rdf:RDF>
  </metadata>
  <sodipodi:namedview
     pagecolor="#ffffff"
     bordercolor="#666666"
     borderopacity="1"
     objecttolerance="10"
     gridtolerance="10"
     guidetolerance="10"
     inkscape:pageopacity="0"
     inkscape:pageshadow="2"
     inkscape:window-width="1920"
     inkscape:window-height="1088"
     id="namedview2911"
     showgrid="true"
     inkscape:zoom="5.6568542"
     inkscape:cx="119.99698"
     inkscape:cy="216.50781"
     inkscape:window-x="1440"
     inkscape:window-y="0"
     inkscape:window-maximized="0"
     inkscape:current-layer="g3714"
     inkscape:snap-grids="false">
    <inkscape:grid
       type="xygrid"
       id="grid2919"
       empspacing="5"
       visible="true"
       enabled="true"
       snapvisiblegridlinesonly="true" />
  </sodipodi:namedview>
  <defs
     id="defs4" />
  <g
     inkscape:groupmode="layer"
     id="g3714"
     inkscape:label="Cone Buoy 3 Band"
     style="display:inline"
     transform="translate(0,60)">
    <g
       id="g3734">
      <g
         id="g3716">
        <path
           style="fill:#000407;fill-opacity:1;fill-rule:evenodd;stroke:none"
           id="path3718"
           d="m 108.23157,137.16671 0,5.65625 29.6875,0 c 1.28732,5.53295 6.23327,9.65624 12.15625,9.65625 5.92495,0 10.87095,-4.12052 12.15625,-9.65625 l 29.84375,0 0,-0.0625 0,-5.59375 -83.84375,0 z m 54,0 c -1.2853,-5.53573 -6.2313,-9.65625 -12.15625,-9.65625 -5.92298,1e-5 -10.86893,4.1233 -12.15625,9.65625 l 24.3125,0 z m -12.15625,-4.6875 c 4.14,0 7.5,3.36 7.5,7.5 0,4.14 -3.36,7.5 -7.5,7.5 -4.14,0 -7.5,-3.36 -7.5,-7.5 0,-4.14 3.36,-7.5 7.5,-7.5 z"
           sodipodi:nodetypes="cccsccccccscccsssc" />
        <path
           sodipodi:open="true"
           sodipodi:end="4.3932674"
           sodipodi:start="2.9444111"
           transform="matrix(1.4164674,0.47394337,-0.48206808,1.4407496,172.65842,-93.634291)"
           d="m 15.635753,156.98217 c -3.114542,-15.3273 5.88908,-30.53085 20.984529,-35.43455"
           sodipodi:ry="30.935923"
           sodipodi:rx="31.466251"
           sodipodi:cy="150.92163"
           sodipodi:cx="46.492271"
           id="path3720"
           style="fill:none;stroke:#000000;stroke-width:4.64683294;stroke-miterlimit:4;stroke-opacity:1;stroke-dasharray:none;display:inline"
           sodipodi:type="arc" />
        <path
           sodipodi:open="true"
           sodipodi:end="6.0542529"
           sodipodi:start="5.0415963"
           transform="matrix(1.8607362,0.62259362,-0.61353771,1.8336709,19.201188,-153.26853)"
           d="m 110.53956,99.547479 c 7.81904,2.710721 13.70924,9.319411 15.58437,17.485361"
           sodipodi:ry="24.306795"
           sodipodi:rx="23.953241"
           sodipodi:cy="122.54897"
           sodipodi:cx="102.79565"
           id="path3722"
           style="fill:none;stroke:#000000;stroke-width:3.59378028;stroke-miterlimit:4;stroke-opacity:1;stroke-dasharray:none;display:inline"
           sodipodi:type="arc" />
      </g>
      <rect
         style="fill:#000000;fill-opacity:1;stroke:none;display:inline"
         id="rect3728"
         width="49.831997"
         height="0.82489997"
         x="162.51906"
         y="69.339325"
         transform="matrix(0.94832365,0.31730466,-0.31730466,0.94832365,0,0)" />
      <rect
         transform="matrix(0.94832365,0.31730466,-0.31730466,0.94832365,0,0)"
         y="61.61338"
         x="161.10722"
         height="0.70672113"
         width="49.989216"
         id="rect3730"
         style="fill:#000000;fill-opacity:1;stroke:none;display:inline" />
    </g>
    <path
       style="fill:#00d400;fill-opacity:1;stroke:#000000;stroke-width:0.17677669;stroke-miterlimit:4;stroke-opacity:1;stroke-dasharray:none"
       d="m 158.51663,177.90266 c -10.20886,-3.42089 -18.72001,-6.26497 -18.91367,-6.32017 -0.29493,-0.0841 -0.17262,-0.23098 0.75322,-0.90466 6.42523,-4.6753 13.41958,-7.23788 22.16288,-8.12002 l 0.99723,-0.10061 1.71218,1.6204 c 4.96711,4.70087 8.97702,10.99941 11.13903,17.49658 0.45404,1.36444 0.79968,2.49599 0.7681,2.51455 -0.0316,0.0186 -8.41012,-2.76517 -18.61897,-6.18607 z"
       id="path7528"
       transform="translate(0,-60)" />
    <path
       style="fill:#00d400;fill-opacity:1;stroke:#000000;stroke-width:0.17677669;stroke-miterlimit:4;stroke-opacity:1;stroke-dasharray:none"
       d="m 123.24968,196.95735 c 0,-0.39927 1.29553,-4.79875 1.86415,-6.33044 0.73144,-1.97028 2.47717,-5.55025 3.60847,-7.39989 0.9254,-1.51297 3.34337,-4.86148 3.51016,-4.86101 0.0667,1.9e-4 10.5422,3.49154 23.27896,7.75857 l 23.15775,7.75822 0,1.5664 0,1.56641 -8.16113,0.0459 -8.16113,0.046 -0.30173,-0.92984 c -0.81943,-2.52528 -2.80031,-5.13489 -5.03868,-6.63791 -5.6791,-3.81343 -13.40367,-2.2805 -17.36975,3.44698 -0.5736,0.82835 -1.70928,3.35371 -1.71245,3.8079 -0.002,0.28962 -0.47018,0.30936 -7.33839,0.30936 -4.03493,0 -7.33623,-0.066 -7.33623,-0.14665 z"
       id="path7530"
       transform="translate(0,-60)" />
    <path
       style="fill:#d40000;fill-opacity:1;stroke:#000000;stroke-width:0.17677668999999999;stroke-miterlimit:4;stroke-opacity:1;stroke-dasharray:none"
       d="m 155.65165,185.10701 c -12.36796,-4.15306 -22.5351,-7.59893 -22.59366,-7.65748 -0.12569,-0.12569 3.34138,-3.65299 4.55754,-4.63671 l 0.84243,-0.68143 19.3985,6.49887 c 10.66917,3.57437 19.45531,6.54931 19.52474,6.61097 0.18448,0.16383 0.64812,2.47085 0.94296,4.69207 0.31363,2.36277 0.31874,2.75501 0.0357,2.738 -0.12153,-0.007 -10.34021,-3.41123 -22.70816,-7.56429 l 0,0 z"
       id="path7532"
       transform="translate(0,-60)" />
  </g>
</svg>
