<?xml version="1.0" encoding="UTF-8" standalone="no"?>
<svg
   xmlns:dc="http://purl.org/dc/elements/1.1/"
   xmlns:cc="http://creativecommons.org/ns#"
   xmlns:rdf="http://www.w3.org/1999/02/22-rdf-syntax-ns#"
   xmlns:svg="http://www.w3.org/2000/svg"
   xmlns="http://www.w3.org/2000/svg"
   xmlns:sodipodi="http://sodipodi.sourceforge.net/DTD/sodipodi-0.dtd"
   xmlns:inkscape="http://www.inkscape.org/namespaces/inkscape"
   version="1.0"
   width="300"
   height="400"
   id="svg2"
   inkscape:version="0.48.2 r9819"
   sodipodi:docname="Cone.svg"
   style="display:inline">
  <metadata
     id="metadata2913">
    <rdf:RDF>
      <cc:Work
         rdf:about="">
        <dc:format>image/svg+xml</dc:format>
        <dc:type
           rdf:resource="http://purl.org/dc/dcmitype/StillImage" />
        <dc:title />
      </cc:Work>
    </rdf:RDF>
  </metadata>
  <sodipodi:namedview
     pagecolor="#ffffff"
     bordercolor="#666666"
     borderopacity="1"
     objecttolerance="10"
     gridtolerance="10"
     guidetolerance="10"
     inkscape:pageopacity="0"
     inkscape:pageshadow="2"
     inkscape:window-width="1920"
     inkscape:window-height="1088"
     id="namedview2911"
     showgrid="true"
     inkscape:zoom="5.6568542"
     inkscape:cx="152.87745"
     inkscape:cy="216.50781"
     inkscape:window-x="1440"
     inkscape:window-y="0"
     inkscape:window-maximized="0"
     inkscape:current-layer="g3653"
     inkscape:snap-grids="false">
    <inkscape:grid
       type="xygrid"
       id="grid2919"
       empspacing="5"
       visible="true"
       enabled="true"
       snapvisiblegridlinesonly="true" />
  </sodipodi:namedview>
  <defs
     id="defs4" />
  <g
     transform="translate(0,60)"
     style="display:inline"
     inkscape:label="Cone Buoy"
     id="g3653"
     inkscape:groupmode="layer">
    <g
       id="g3678">
      <path
         style="fill:#000407;fill-opacity:1;fill-rule:evenodd;stroke:none"
         id="path3655"
         d="m 108.23157,137.16671 0,5.65625 29.6875,0 c 1.28732,5.53295 6.23327,9.65624 12.15625,9.65625 5.92495,0 10.87095,-4.12052 12.15625,-9.65625 l 29.84375,0 0,-0.0625 0,-5.59375 -83.84375,0 z m 54,0 c -1.2853,-5.53573 -6.2313,-9.65625 -12.15625,-9.65625 -5.92298,1e-5 -10.86893,4.1233 -12.15625,9.65625 l 24.3125,0 z m -12.15625,-4.6875 c 4.14,0 7.5,3.36 7.5,7.5 0,4.14 -3.36,7.5 -7.5,7.5 -4.14,0 -7.5,-3.36 -7.5,-7.5 0,-4.14 3.36,-7.5 7.5,-7.5 z"
         sodipodi:nodetypes="cccsccccccscccsssc" />
      <path
         sodipodi:open="true"
         sodipodi:end="4.3932674"
         sodipodi:start="2.9444111"
         transform="matrix(1.4164674,0.47394337,-0.48206808,1.4407496,172.65842,-93.634291)"
         d="m 15.635753,156.98217 c -3.114542,-15.3273 5.88908,-30.53085 20.984529,-35.43455"
         sodipodi:ry="30.935923"
         sodipodi:rx="31.466251"
         sodipodi:cy="150.92163"
         sodipodi:cx="46.492271"
         id="path3649"
         style="fill:none;stroke:#000000;stroke-width:4.64683294;stroke-miterlimit:4;stroke-opacity:1;stroke-dasharray:none;display:inline"
         sodipodi:type="arc" />
      <path
         sodipodi:open="true"
         sodipodi:end="6.0542529"
         sodipodi:start="5.0415963"
         transform="matrix(1.8607362,0.62259362,-0.61353771,1.8336709,19.201188,-153.26853)"
         d="m 110.53956,99.547479 c 7.81904,2.710721 13.70924,9.319411 15.58437,17.485361"
         sodipodi:ry="24.306795"
         sodipodi:rx="23.953241"
         sodipodi:cy="122.54897"
         sodipodi:cx="102.79565"
         id="path3651"
         style="fill:none;stroke:#000000;stroke-width:3.59378028;stroke-miterlimit:4;stroke-opacity:1;stroke-dasharray:none;display:inline"
         sodipodi:type="arc" />
    </g>
  </g>
</svg>
