<?xml version="1.0" encoding="UTF-8" standalone="no"?>
<svg
   xmlns:dc="http://purl.org/dc/elements/1.1/"
   xmlns:cc="http://creativecommons.org/ns#"
   xmlns:rdf="http://www.w3.org/1999/02/22-rdf-syntax-ns#"
   xmlns:svg="http://www.w3.org/2000/svg"
   xmlns="http://www.w3.org/2000/svg"
   xmlns:sodipodi="http://sodipodi.sourceforge.net/DTD/sodipodi-0.dtd"
   xmlns:inkscape="http://www.inkscape.org/namespaces/inkscape"
   version="1.0"
   width="300"
   height="400"
   id="svg2"
   inkscape:version="0.48.2 r9819"
   sodipodi:docname="Cone_Black_Red_Black.svg"
   style="display:inline">
  <metadata
     id="metadata2913">
    <rdf:RDF>
      <cc:Work
         rdf:about="">
        <dc:format>image/svg+xml</dc:format>
        <dc:type
           rdf:resource="http://purl.org/dc/dcmitype/StillImage" />
        <dc:title />
      </cc:Work>
    </rdf:RDF>
  </metadata>
  <sodipodi:namedview
     pagecolor="#ffffff"
     bordercolor="#666666"
     borderopacity="1"
     objecttolerance="10"
     gridtolerance="10"
     guidetolerance="10"
     inkscape:pageopacity="0"
     inkscape:pageshadow="2"
     inkscape:window-width="1920"
     inkscape:window-height="1088"
     id="namedview2911"
     showgrid="true"
     inkscape:zoom="11.879394"
     inkscape:cx="121.90617"
     inkscape:cy="214.45828"
     inkscape:window-x="0"
     inkscape:window-y="0"
     inkscape:window-maximized="1"
     inkscape:current-layer="g5423"
     inkscape:snap-grids="false">
    <inkscape:grid
       type="xygrid"
       id="grid2919"
       empspacing="5"
       visible="true"
       enabled="true"
       snapvisiblegridlinesonly="true" />
  </sodipodi:namedview>
  <defs
     id="defs4" />
  <g
     transform="translate(0,60)"
     style="display:inline"
     inkscape:label="Cone Buoy 3 Band"
     id="g5423"
     inkscape:groupmode="layer">
    <g
       id="g5425">
      <g
         id="g5427">
        <path
           inkscape:connector-curvature="0"
           sodipodi:nodetypes="cccsccccccscccsssc"
           d="m 108.23157,137.16671 0,5.65625 29.6875,0 c 1.28732,5.53295 6.23327,9.65624 12.15625,9.65625 5.92495,0 10.87095,-4.12052 12.15625,-9.65625 l 29.84375,0 0,-0.0625 0,-5.59375 -83.84375,0 z m 54,0 c -1.2853,-5.53573 -6.2313,-9.65625 -12.15625,-9.65625 -5.92298,1e-5 -10.86893,4.1233 -12.15625,9.65625 l 24.3125,0 z m -12.15625,-4.6875 c 4.14,0 7.5,3.36 7.5,7.5 0,4.14 -3.36,7.5 -7.5,7.5 -4.14,0 -7.5,-3.36 -7.5,-7.5 0,-4.14 3.36,-7.5 7.5,-7.5 z"
           id="path5429"
           style="fill:#000407;fill-opacity:1;fill-rule:evenodd;stroke:none" />
        <path
           sodipodi:type="arc"
           style="fill:none;stroke:#000000;stroke-width:4.64683294;stroke-miterlimit:4;stroke-opacity:1;stroke-dasharray:none;display:inline"
           id="path5431"
           sodipodi:cx="46.492271"
           sodipodi:cy="150.92163"
           sodipodi:rx="31.466251"
           sodipodi:ry="30.935923"
           d="m 15.635753,156.98217 c -3.114542,-15.3273 5.88908,-30.53085 20.984529,-35.43455"
           transform="matrix(1.4164674,0.47394337,-0.48206808,1.4407496,172.65842,-93.634291)"
           sodipodi:start="2.9444111"
           sodipodi:end="4.3932674"
           sodipodi:open="true" />
        <path
           sodipodi:type="arc"
           style="fill:none;stroke:#000000;stroke-width:3.59378028;stroke-miterlimit:4;stroke-opacity:1;stroke-dasharray:none;display:inline"
           id="path5433"
           sodipodi:cx="102.79565"
           sodipodi:cy="122.54897"
           sodipodi:rx="23.953241"
           sodipodi:ry="24.306795"
           d="m 110.53956,99.547479 c 7.81904,2.710721 13.70924,9.319411 15.58437,17.485361"
           transform="matrix(1.8607362,0.62259362,-0.61353771,1.8336709,19.201188,-153.26853)"
           sodipodi:start="5.0415963"
           sodipodi:end="6.0542529"
           sodipodi:open="true" />
      </g>
      <rect
         transform="matrix(0.94832365,0.31730466,-0.31730466,0.94832365,0,0)"
         y="69.339325"
         x="162.51906"
         height="0.82489997"
         width="49.831997"
         id="rect5435"
         style="fill:#000000;fill-opacity:1;stroke:none;display:inline" />
      <rect
         style="fill:#000000;fill-opacity:1;stroke:none;display:inline"
         id="rect5437"
         width="49.989216"
         height="0.70672113"
         x="161.10722"
         y="61.61338"
         transform="matrix(0.94832365,0.31730466,-0.31730466,0.94832365,0,0)" />
    </g>
    <path
       style="fill:#000000;fill-opacity:1;stroke:#000000;stroke-width:0;stroke-miterlimit:4;stroke-opacity:1;stroke-dasharray:none"
       d="m 158.13698,177.83558 c -10.39405,-3.48701 -18.91596,-6.34268 -18.93758,-6.34592 -0.0808,-0.0121 1.51532,-1.15134 2.77513,-1.98077 1.72871,-1.13814 2.94302,-1.82818 4.81028,-2.73349 4.94545,-2.39771 9.97043,-3.77668 15.40971,-4.22881 1.05644,-0.0878 1.27072,-0.0851 1.46425,0.0185 0.36752,0.1967 3.27869,3.07832 4.31619,4.27239 1.38942,1.59909 2.24474,2.71986 3.41738,4.47797 2.69137,4.03505 4.40001,7.77139 5.82246,12.73213 0.0256,0.0893 -0.001,0.14352 -0.0687,0.13769 -0.061,-0.005 -8.61512,-2.86263 -19.00916,-6.34965 z"
       id="path3704"
       inkscape:connector-curvature="0"
       transform="translate(0,-60)" />
    <path
       style="fill:#000000;fill-opacity:1;stroke:#000000;stroke-width:0;stroke-miterlimit:4;stroke-opacity:1;stroke-dasharray:none"
       d="m 123.20285,197.0958 c 1.8e-4,-0.035 0.12893,-0.61287 0.28612,-1.2842 1.14858,-4.90537 3.23391,-9.70509 6.07478,-13.98212 1.04572,-1.57436 2.52723,-3.52904 2.66979,-3.52246 0.0564,0.003 10.53859,3.49709 23.29387,7.76555 l 23.19142,7.76082 0.0248,1.38896 c 0.0136,0.76393 0.002,1.51207 -0.0249,1.66254 l -0.0497,0.27358 -8.18263,-4.2e-4 -8.18263,-4.2e-4 -0.31569,-0.97046 c -1.26002,-3.87338 -4.14455,-6.7921 -7.97597,-8.0705 -1.37346,-0.45826 -2.26519,-0.59391 -3.91435,-0.59542 -1.0484,-9.6e-4 -1.65613,0.0409 -2.27284,0.1565 -2.52982,0.47428 -4.74092,1.63986 -6.5672,3.4619 -1.62955,1.62576 -2.59936,3.30484 -3.3062,5.7242 l -0.0738,0.25253 -7.33764,0.0215 c -4.0357,0.0118 -7.33749,-0.007 -7.33732,-0.0421 l 0,0 z"
       id="path3706"
       inkscape:connector-curvature="0"
       transform="translate(0,-60)" />
    <path
       style="fill:#d40000;fill-opacity:1;stroke:#000000;stroke-width:0;stroke-miterlimit:4;stroke-opacity:1;stroke-dasharray:none"
       d="m 156.45339,185.42294 c -12.1997,-4.08708 -22.51118,-7.54115 -22.91441,-7.6757 l -0.73315,-0.24465 1.20607,-1.30478 c 1.10085,-1.19095 2.38666,-2.41151 3.84652,-3.65132 l 0.55584,-0.47206 19.52094,6.53312 c 10.73652,3.59322 19.53587,6.54674 19.55411,6.56338 0.0587,0.0536 0.42851,1.80874 0.6368,3.02244 0.22923,1.33563 0.61383,4.68213 0.53629,4.66629 -0.0153,-0.003 -10.00932,-3.34964 -22.20901,-7.43672 z"
       id="path3708"
       inkscape:connector-curvature="0"
       transform="translate(0,-60)" />
  </g>
</svg>
