<svg
   xmlns:svg="http://www.w3.org/2000/svg"
   xmlns="http://www.w3.org/2000/svg"
   version="1.0"
   width="300"
   height="400"
   id="svg2">
  <g id="cone" width="300" height="400" transform="translate(-0.074,60.0)">
      <path d="m 108.23,137.17 v 5.6562 h 29.688 c 1.2873,5.533 6.2333,9.6562 12.156,9.6562 5.925,0 10.871,-4.1205 12.156,-9.6562 h 29.844 v -0.0625 -5.5938 H 108.23 z m 54,0 c -1.2853,-5.5357 -6.2313,-9.6562 -12.156,-9.6562 -5.923,1e-5 -10.869,4.1233 -12.156,9.6562 h 24.312 z m -12.156,-4.6875 c 4.14,0 7.5,3.36 7.5,7.5 0,4.14 -3.36,7.5 -7.5,7.5 -4.14,0 -7.5,-3.36 -7.5,-7.5 0,-4.14 3.36,-7.5 7.5,-7.5 z"
				style="fill:#000000;fill-rule:evenodd" />
			<path d="m 15.636,156.98 c -3.1145,-15.327 5.8891,-30.531 20.985,-35.435"
			  transform="matrix(1.4165,0.47394,-0.48207,1.4407,172.66,-93.634)"
   			style="fill:none;stroke:#000000;stroke-width:4.64680004" />
			<path d="m 110.54,99.547 c 7.819,2.7107 13.709,9.3194 15.584,17.485"
   			transform="matrix(1.8607,0.62259,-0.61354,1.8337,19.201,-153.27)"
   			style="fill:none;stroke:#000000;stroke-width:3.59380007" />
	</g>
</svg>
