<?xml version="1.0" encoding="UTF-8" standalone="no"?>
<svg
   xmlns:dc="http://purl.org/dc/elements/1.1/"
   xmlns:cc="http://creativecommons.org/ns#"
   xmlns:rdf="http://www.w3.org/1999/02/22-rdf-syntax-ns#"
   xmlns:svg="http://www.w3.org/2000/svg"
   xmlns="http://www.w3.org/2000/svg"
   xmlns:sodipodi="http://sodipodi.sourceforge.net/DTD/sodipodi-0.dtd"
   xmlns:inkscape="http://www.inkscape.org/namespaces/inkscape"
   version="1.0"
   width="300"
   height="400"
   id="svg2"
   inkscape:version="0.48.2 r9819"
   sodipodi:docname="Cone_Black_Yellow.svg"
   style="display:inline">
  <metadata
     id="metadata2913">
    <rdf:RDF>
      <cc:Work
         rdf:about="">
        <dc:format>image/svg+xml</dc:format>
        <dc:type
           rdf:resource="http://purl.org/dc/dcmitype/StillImage" />
        <dc:title />
      </cc:Work>
    </rdf:RDF>
  </metadata>
  <sodipodi:namedview
     pagecolor="#ffffff"
     bordercolor="#666666"
     borderopacity="1"
     objecttolerance="10"
     gridtolerance="10"
     guidetolerance="10"
     inkscape:pageopacity="0"
     inkscape:pageshadow="2"
     inkscape:window-width="1920"
     inkscape:window-height="1088"
     id="namedview2911"
     showgrid="true"
     inkscape:zoom="11.879394"
     inkscape:cx="132.09187"
     inkscape:cy="214.45828"
     inkscape:window-x="0"
     inkscape:window-y="0"
     inkscape:window-maximized="1"
     inkscape:current-layer="g3714"
     inkscape:snap-grids="false">
    <inkscape:grid
       type="xygrid"
       id="grid2919"
       empspacing="5"
       visible="true"
       enabled="true"
       snapvisiblegridlinesonly="true" />
  </sodipodi:namedview>
  <defs
     id="defs4" />
  <g
     inkscape:groupmode="layer"
     id="g3714"
     inkscape:label="Cone Buoy 2 Band"
     style="display:inline"
     transform="translate(0,60)">
    <g
       id="g3734">
      <g
         id="g3716">
        <path
           style="fill:#000407;fill-opacity:1;fill-rule:evenodd;stroke:none"
           id="path3718"
           d="m 108.23157,137.16671 0,5.65625 29.6875,0 c 1.28732,5.53295 6.23327,9.65624 12.15625,9.65625 5.92495,0 10.87095,-4.12052 12.15625,-9.65625 l 29.84375,0 0,-0.0625 0,-5.59375 -83.84375,0 z m 54,0 c -1.2853,-5.53573 -6.2313,-9.65625 -12.15625,-9.65625 -5.92298,1e-5 -10.86893,4.1233 -12.15625,9.65625 l 24.3125,0 z m -12.15625,-4.6875 c 4.14,0 7.5,3.36 7.5,7.5 0,4.14 -3.36,7.5 -7.5,7.5 -4.14,0 -7.5,-3.36 -7.5,-7.5 0,-4.14 3.36,-7.5 7.5,-7.5 z"
           sodipodi:nodetypes="cccsccccccscccsssc"
           inkscape:connector-curvature="0" />
        <path
           sodipodi:open="true"
           sodipodi:end="4.3932674"
           sodipodi:start="2.9444111"
           transform="matrix(1.4164674,0.47394337,-0.48206808,1.4407496,172.65842,-93.634291)"
           d="m 15.635753,156.98217 c -3.114542,-15.3273 5.88908,-30.53085 20.984529,-35.43455"
           sodipodi:ry="30.935923"
           sodipodi:rx="31.466251"
           sodipodi:cy="150.92163"
           sodipodi:cx="46.492271"
           id="path3720"
           style="fill:none;stroke:#000000;stroke-width:4.64683294;stroke-miterlimit:4;stroke-opacity:1;stroke-dasharray:none;display:inline"
           sodipodi:type="arc" />
        <path
           sodipodi:open="true"
           sodipodi:end="6.0542529"
           sodipodi:start="5.0415963"
           transform="matrix(1.8607362,0.62259362,-0.61353771,1.8336709,19.201188,-153.26853)"
           d="m 110.53956,99.547479 c 7.81904,2.710721 13.70924,9.319411 15.58437,17.485361"
           sodipodi:ry="24.306795"
           sodipodi:rx="23.953241"
           sodipodi:cy="122.54897"
           sodipodi:cx="102.79565"
           id="path3722"
           style="fill:none;stroke:#000000;stroke-width:3.59378028;stroke-miterlimit:4;stroke-opacity:1;stroke-dasharray:none;display:inline"
           sodipodi:type="arc" />
      </g>
      <rect
         style="fill:#000000;fill-opacity:1;stroke:none;display:inline"
         id="rect3728"
         width="49.831997"
         height="0.82489997"
         x="162.27594"
         y="66.225075"
         transform="matrix(0.94832365,0.31730466,-0.31730466,0.94832365,0,0)" />
    </g>
    <path
       style="fill:#000000;fill-opacity:1;stroke:none"
       d="M 167.64924,185.88736 C 161.88506,183.9533 152.2095,180.7099 146.148,178.67982 l -11.02091,-3.69106 0.58266,-0.53433 c 3.75858,-3.44678 7.0434,-5.72436 11.07506,-7.67903 4.94545,-2.39771 9.97042,-3.77668 15.40971,-4.22881 1.05643,-0.0878 1.27071,-0.0851 1.46424,0.0185 0.36753,0.1967 3.2787,3.07832 4.3162,4.27239 2.54825,2.93281 4.68808,6.14842 6.32871,9.51041 2.00247,4.10346 3.12029,7.6966 3.99283,12.83463 0.0254,0.14938 0.003,0.2297 -0.0638,0.22643 -0.0567,-0.003 -4.81927,-1.58748 -10.58345,-3.52155 l 0,0 z"
       id="path8807"
       inkscape:connector-curvature="0"
       transform="translate(0,-60)" />
    <path
       style="fill:#ffd400;fill-opacity:1;stroke:none"
       d="m 123.21936,197.03797 c 0,-0.27206 0.87914,-3.60063 1.23261,-4.66688 1.71502,-5.17338 4.53096,-10.2845 7.84387,-14.23716 0.92474,-1.10331 2.07983,-2.35678 2.17191,-2.3569 0.0877,-1.1e-4 43.90271,14.64006 43.9546,14.68683 0.14471,0.13044 0.38104,4.71631 0.3027,5.87387 l -0.0555,0.82074 -8.18765,0 -8.18765,0 -0.29921,-0.94701 c -0.87778,-2.77818 -2.76124,-5.22835 -5.23842,-6.81459 -1.88158,-1.20486 -4.36904,-1.91902 -6.68399,-1.91902 -2.31496,0 -4.80242,0.71416 -6.684,1.91902 -2.45272,1.57057 -4.32726,4.00334 -5.22521,6.78126 l -0.3169,0.98034 -7.31356,0 c -6.28929,0 -7.31356,-0.0169 -7.31356,-0.1205 z"
       id="path9577"
       inkscape:connector-curvature="0"
       transform="translate(0,-60)" />
  </g>
</svg>
