<?xml version="1.0" encoding="UTF-8" standalone="no"?>
<svg
   xmlns:dc="http://purl.org/dc/elements/1.1/"
   xmlns:cc="http://creativecommons.org/ns#"
   xmlns:rdf="http://www.w3.org/1999/02/22-rdf-syntax-ns#"
   xmlns:svg="http://www.w3.org/2000/svg"
   xmlns="http://www.w3.org/2000/svg"
   xmlns:sodipodi="http://sodipodi.sourceforge.net/DTD/sodipodi-0.dtd"
   xmlns:inkscape="http://www.inkscape.org/namespaces/inkscape"
   version="1.0"
   id="body"
   width="60"
   height="60"
   viewBox="0 0 0.69767442 0.69767442"
   preserveAspectRatio="none"
   sodipodi:version="0.32"
   inkscape:version="0.48.1 r9760"
   sodipodi:docname="Crane.svg"
   inkscape:output_extension="org.inkscape.output.svg.inkscape"
   inkscape:export-filename="/Users/mherring/Desktop/try.png"
   inkscape:export-xdpi="90"
   inkscape:export-ydpi="90">
  <metadata
     id="metadata100">
    <rdf:RDF>
      <cc:Work
         rdf:about="">
        <dc:format>image/svg+xml</dc:format>
        <dc:type
           rdf:resource="http://purl.org/dc/dcmitype/StillImage" />
        <dc:title>SVG drawing</dc:title>
      </cc:Work>
    </rdf:RDF>
  </metadata>
  <defs
     id="defs98">
    <inkscape:perspective
       sodipodi:type="inkscape:persp3d"
       inkscape:vp_x="0 : 360 : 1"
       inkscape:vp_y="0 : 1000 : 0"
       inkscape:vp_z="720 : 360 : 1"
       inkscape:persp3d-origin="360 : 240 : 1"
       id="perspective102" />
    <inkscape:perspective
       id="perspective16"
       inkscape:persp3d-origin="61.773499 : 41.179667 : 1"
       inkscape:vp_z="123.547 : 61.769501 : 1"
       inkscape:vp_y="0 : 1000 : 0"
       inkscape:vp_x="0 : 61.769501 : 1"
       sodipodi:type="inkscape:persp3d" />
  </defs>
  <sodipodi:namedview
     inkscape:window-height="1088"
     inkscape:window-width="1920"
     inkscape:pageshadow="2"
     inkscape:pageopacity="0"
     guidetolerance="1"
     gridtolerance="1"
     objecttolerance="1"
     borderopacity="1.0"
     bordercolor="#666666"
     pagecolor="#ffffff"
     id="base"
     showgrid="true"
     inkscape:zoom="11.833333"
     inkscape:cx="30"
     inkscape:cy="34.304031"
     inkscape:window-x="1440"
     inkscape:window-y="0"
     inkscape:current-layer="content"
     inkscape:window-maximized="0">
    <inkscape:grid
       type="xygrid"
       id="grid2988"
       empspacing="5"
       visible="true"
       enabled="true"
       snapvisiblegridlinesonly="true" />
  </sodipodi:namedview>
  <title
     id="title3">SVG drawing</title>
  <desc
     id="desc5">This was produced by version 4.2 of GNU libplot, a free library for exporting 2-D vector graphics.</desc>
  <g
     id="content"
     transform="matrix(0.0017361,0,0,-0.0017361,-0.4891854,0.45837092)"
     xml:space="preserve"
     stroke-miterlimit="10.433"
     fill-rule="even-odd"
     font-style="normal"
     font-variant="normal"
     font-weight="normal"
     font-stretch="normal"
     font-size-adjust="none"
     letter-spacing="normal"
     word-spacing="normal"
     style="font-style:normal;font-variant:normal;font-weight:normal;font-stretch:normal;letter-spacing:normal;word-spacing:normal;text-anchor:start;fill:none;stroke:#000000;stroke-width:1;stroke-linecap:butt;stroke-linejoin:miter;stroke-miterlimit:10.43299961;stroke-opacity:1;stroke-dasharray:none;stroke-dashoffset:0">













<path
   style="fill:#a30075;fill-opacity:1;fill-rule:nonzero;stroke-width:0"
   d="m 494.88922,206.95961 c -28.53412,0 -51.4501,-23.00788 -51.4501,-51.3056 0,-20.0535 14.15469,-38.77983 30.63882,-47.69252 l -0.14452,-27.314807 c 0,-6.907351 5.24909,-15.337369 11.70635,-17.34274 l 1.01166,-0.28904 0.86715,-0.28905 1.01165,-0.28904 0.86714,-0.289051 1.01167,-0.433562 0.8671,-0.28905 1.87881,-0.722611 1.87879,-0.867142 1.87879,-0.86713 1.73429,-1.011663 1.73428,-0.867142 1.73427,-1.01165 0.7226,-0.433572 0.86715,-0.43357 0.72261,-0.433571 0.72261,-0.43356 0.72262,-0.578101 0.72261,-0.433563 0.57811,-0.433568 0.57809,-0.28905 0.57808,-0.578092 0.57809,-0.289041 0.43357,-0.433571 0.5781,-0.289041 0.28903,-0.43357 0.43359,-0.28905 c 9.59456,-8.244216 15.60845,-20.503532 15.60845,-34.540948 0,-24.732641 -20.47733,-45.235639 -45.66922,-45.235639 -25.62409,0 -46.10277,20.502998 -46.10277,45.235639 0,8.689811 -7.8309,17.198219 -17.19821,17.198219 -7.57137,0 -14.2684,-5.142253 -16.04203,-12.718012 -0.68182,-3.119413 -0.43358,-6.485309 -0.43358,-9.827553 0,-44.786094 36.78297,-81.510861 82.23349,-81.510861 45.01824,0 81.79991,36.724767 81.79991,81.510861 0,24.955416 -10.81105,47.071586 -28.18195,62.000291 -3.11504,2.673769 -16.47988,8.249651 -23.84626,13.151572 -6.88954,4.90198 -7.08162,6.129539 -7.08162,19.944139 23.16865,4.67916 40.32186,25.41678 40.32186,50.14941 0,28.29772 -22.8765,51.3056 -51.16108,51.3056 z m 0,-24.13531 c 14.16542,0 25.86959,-11.98607 25.86959,-26.15863 0,-14.53595 -11.70417,-25.72506 -25.86959,-25.72506 l -1.3007,0 -1.3007,0.14452 -1.30071,0.14453 -1.30069,0.14452 -1.30072,0.28904 -1.3007,0.43359 -1.15619,0.28903 -1.30069,0.43357 -1.15619,0.5781 -1.15619,0.57808 -1.01165,0.5781 -1.15618,0.72261 -1.01167,0.57809 -1.01165,0.86713 -1.01167,0.72262 -0.86713,0.86715 -0.86715,0.86713 -0.86713,1.01166 -0.86714,0.86714 -0.72261,1.01165 -0.57808,1.01166 -0.72262,1.15618 -0.57809,1.15619 -0.57809,1.15619 -0.43358,1.15617 -0.43356,1.15618 -0.28906,1.30071 -0.43356,1.15618 -0.14453,1.30071 -0.14452,1.30069 -0.14452,1.30072 0,1.44522 c 0,14.17256 11.91158,26.15863 26.44767,26.15863 z"
   id="path35"
   inkscape:connector-curvature="0" />






























<rect
   style="fill:none;stroke:#a30075;stroke-width:13.39543438;stroke-miterlimit:10.43299961;stroke-opacity:1;stroke-dasharray:none"
   id="rect3761"
   width="388.47726"
   height="388.47726"
   x="288.47031"
   y="-257.3353"
   transform="scale(1,-1)"
   rx="100"
   ry="100" /></g></svg>
