<?xml version="1.0" encoding="UTF-8" standalone="no"?>
<!-- Created with Inkscape (http://www.inkscape.org/) -->
<svg id="svg2" xmlns:rdf="http://www.w3.org/1999/02/22-rdf-syntax-ns#" xmlns="http://www.w3.org/2000/svg" height="400" width="300" version="1.1" xmlns:cc="http://creativecommons.org/ns#" xmlns:dc="http://purl.org/dc/elements/1.1/">
 <metadata id="metadata7">
  <rdf:RDF>
   <cc:Work rdf:about="">
    <dc:format>image/svg+xml</dc:format>
    <dc:type rdf:resource="http://purl.org/dc/dcmitype/StillImage"/>
    <dc:title/>
   </cc:Work>
  </rdf:RDF>
 </metadata>
 <g id="layer4">
  <g id="content-0" fill-rule="even-odd" xml:space="preserve" transform="matrix(.14930 0 0 -.14930 77.684 208.91)" stroke="#000" stroke-miterlimit="10.433">
<path id="path35" d="m494.89 206.96c-28.534 0-51.45-23.008-51.45-51.306 0-20.054 14.155-38.78 30.639-47.693l-0.14452-27.315c0-6.9074 5.2491-15.337 11.706-17.343l1.0117-0.28904 0.86715-0.28905 1.0116-0.28904 0.86714-0.28905 1.0117-0.43356 0.8671-0.28905 1.8788-0.72261 1.8788-0.86714 1.8788-0.86713 1.7343-1.0117 1.7343-0.86714 1.7343-1.0116 0.7226-0.43357 0.86715-0.43357 0.72261-0.43357 0.72261-0.43356 0.72262-0.5781 0.72261-0.43356 0.57811-0.43357 0.57809-0.28905 0.57808-0.57809 0.57809-0.28904 0.43357-0.43357 0.5781-0.28904 0.28903-0.43357 0.43359-0.28905c9.5946-8.2442 15.608-20.504 15.608-34.541 0-24.733-20.477-45.236-45.669-45.236-25.624 0-46.103 20.503-46.103 45.236 0 8.6898-7.8309 17.198-17.198 17.198-7.5714 0-14.268-5.1423-16.042-12.718-0.68182-3.1194-0.43358-6.4853-0.43358-9.8276 0-44.786 36.783-81.511 82.233-81.511 45.018 0 81.8 36.725 81.8 81.511 0 24.955-10.811 47.072-28.182 62-3.115 2.6738-16.48 8.2497-23.846 13.152-6.8895 4.902-7.0816 6.1295-7.0816 19.944 23.169 4.6792 40.322 25.417 40.322 50.149 0 28.298-22.876 51.306-51.161 51.306zm0-24.135c14.165 0 25.87-11.986 25.87-26.159 0-14.536-11.704-25.725-25.87-25.725h-1.3007l-1.3007 0.14452-1.3007 0.14453-1.3007 0.14452-1.3007 0.28904-1.3007 0.43359-1.1562 0.28903-1.3007 0.43357-1.1562 0.5781-1.1562 0.57808-1.0116 0.5781-1.1562 0.72261-1.0117 0.57809-1.0116 0.86713-1.0117 0.72262-0.86713 0.86715-0.86715 0.86713-0.86713 1.0117-0.86714 0.86714-0.72261 1.0116-0.57808 1.0117-0.72262 1.1562-0.57809 1.1562-0.57809 1.1562-0.43358 1.1562-0.43356 1.1562-0.28906 1.3007-0.43356 1.1562-0.14453 1.3007-0.14452 1.3007-0.14452 1.3007v1.4452c0 14.173 11.912 26.159 26.448 26.159z" fill-rule="nonzero" stroke-width="0" fill="#a30075"/>
<rect id="rect3761-4" transform="scale(1,-1)" rx="100" ry="100" height="388.48" width="388.48" stroke="#a30075" stroke-miterlimit="10.433" y="-257.34" x="288.47" stroke-width="13.395" fill="none"/><path id="path3757" d="m15.085 57.922c-3.406-0.226-6.5717-1.654-8.9594-4.042-2.1446-2.144-3.4588-4.778-3.9437-7.902-0.1652-1.065-0.1636-30.876 0.0017-31.986 0.776-5.2158 4.3582-9.5395 9.2674-11.186 1.2084-0.40518 1.9625-0.56588 3.2113-0.68424 1.2758-0.12092 29.4-0.12092 30.676 0 1.2518 0.11865 2.006 0.27971 3.2072 0.6849 4.9327 1.6639 8.5038 5.9716 9.2722 11.185 0.16756 1.1367 0.16454 30.922-0.0032 32.028-0.632 4.171-2.938 7.665-6.544 9.917-0.98716 0.61649-2.5412 1.2671-3.777 1.5811-1.6631 0.42271-0.83312 0.40224-16.944 0.41774-8.2732 0.008-15.232 0.0019-15.465-0.01357zm17.408-8.0995c5.0209-1.031 8.9408-5.1699 9.6788-10.22 0.14184-0.97044 0.11771-2.8147-0.04983-3.8084-0.27216-1.6144-1.0014-3.4697-1.8602-4.7324-1.1279-1.6584-2.0227-2.4763-3.5959-3.2867-2.0658-1.0641-2.7995-1.5685-3.0082-2.0681-0.06547-0.15669-0.1411-0.67445-0.16806-1.1506l-0.04902-0.86568 0.32897-0.06076c1.3368-0.2469 3.0315-1.346 4.0456-2.6238 1.1117-1.4008 1.6496-2.978 1.6496-4.8367 0-2.0065-0.68887-3.7778-2.0215-5.1979-1.725-1.8376-4.009-2.6952-6.466-2.4281-3.359 0.3651-6.001 2.7691-6.733 6.1241-0.16354 0.74988-0.14215 2.4121 0.03991 3.1008 0.53978 2.0418 1.9508 3.9755 3.7806 5.181l0.57281 0.37737 0.02603 2.3486 0.02603 2.3486 0.27723 0.56278c0.38926 0.79018 0.90202 1.2263 1.8033 1.5336 0.89786 0.3062 2.3149 1.0449 3.0539 1.5921 1.0405 0.77032 1.9143 2.0394 2.345 3.4058 0.26652 0.84558 0.32697 2.4056 0.12788 3.3004-0.72926 3.2779-3.7189 5.5509-7.0158 5.3341-2.8254-0.18578-5.2546-2.0444-6.0943-4.6627-0.12267-0.38253-0.26414-1.1219-0.32583-1.703-0.13042-1.2283-0.30586-1.6397-0.9508-2.2291-0.57166-0.52246-1.1091-0.70932-1.8812-0.65407-1.0161 0.0727-1.7621 0.62958-2.1247 1.5861-0.16178 0.42674-0.17252 0.58585-0.13114 1.9437 0.03155 1.0353 0.0982 1.7264 0.22219 2.3042 1.0278 4.789 4.7742 8.4924 9.5956 9.4855 1.4094 0.29032 3.4847 0.28989 4.9014-0.001z" fill-opacity=".50196" transform="matrix(6.6977 0 0 -6.6977 281.77 264.02)" fill="#fff"/><path id="path3759-4" d="m31.268 19.781c-0.94389-0.14009-1.7806-0.57918-2.3848-1.2515-1.7007-1.8923-1.0175-4.9017 1.3618-5.9992 2.6773-1.2348 5.7592 1.0966 5.3349 4.0358-0.29271 2.0278-2.2878 3.5154-4.3119 3.2149z" fill-opacity=".50196" transform="matrix(6.6977 0 0 -6.6977 281.77 264.02)" fill="#fff"/></g>
 </g>
</svg>
