<?xml version="1.0" encoding="UTF-8" standalone="no"?>
<svg
   xmlns:dc="http://purl.org/dc/elements/1.1/"
   xmlns:cc="http://creativecommons.org/ns#"
   xmlns:rdf="http://www.w3.org/1999/02/22-rdf-syntax-ns#"
   xmlns:svg="http://www.w3.org/2000/svg"
   xmlns="http://www.w3.org/2000/svg"
   xmlns:sodipodi="http://sodipodi.sourceforge.net/DTD/sodipodi-0.dtd"
   xmlns:inkscape="http://www.inkscape.org/namespaces/inkscape"
   version="1.0"
   id="body"
   width="60"
   height="60"
   viewBox="0 0 0.69767442 0.69767442"
   preserveAspectRatio="none"
   sodipodi:version="0.32"
   inkscape:version="0.48.1 r9760"
   sodipodi:docname="Crane.svg"
   inkscape:output_extension="org.inkscape.output.svg.inkscape"
   inkscape:export-filename="/Users/mherring/Desktop/try.png"
   inkscape:export-xdpi="90"
   inkscape:export-ydpi="90">
  <metadata
     id="metadata100">
    <rdf:RDF>
      <cc:Work
         rdf:about="">
        <dc:format>image/svg+xml</dc:format>
        <dc:type
           rdf:resource="http://purl.org/dc/dcmitype/StillImage" />
        <dc:title>SVG drawing</dc:title>
      </cc:Work>
    </rdf:RDF>
  </metadata>
  <defs
     id="defs98">
    <inkscape:perspective
       sodipodi:type="inkscape:persp3d"
       inkscape:vp_x="0 : 360 : 1"
       inkscape:vp_y="0 : 1000 : 0"
       inkscape:vp_z="720 : 360 : 1"
       inkscape:persp3d-origin="360 : 240 : 1"
       id="perspective102" />
    <inkscape:perspective
       id="perspective16"
       inkscape:persp3d-origin="61.773499 : 41.179667 : 1"
       inkscape:vp_z="123.547 : 61.769501 : 1"
       inkscape:vp_y="0 : 1000 : 0"
       inkscape:vp_x="0 : 61.769501 : 1"
       sodipodi:type="inkscape:persp3d" />
  </defs>
  <sodipodi:namedview
     inkscape:window-height="1088"
     inkscape:window-width="1920"
     inkscape:pageshadow="2"
     inkscape:pageopacity="0"
     guidetolerance="1"
     gridtolerance="1"
     objecttolerance="1"
     borderopacity="1.0"
     bordercolor="#666666"
     pagecolor="#ffffff"
     id="base"
     showgrid="true"
     inkscape:zoom="11.833333"
     inkscape:cx="15.042253"
     inkscape:cy="34.304031"
     inkscape:window-x="0"
     inkscape:window-y="0"
     inkscape:current-layer="content"
     inkscape:window-maximized="1">
    <inkscape:grid
       type="xygrid"
       id="grid2988"
       empspacing="5"
       visible="true"
       enabled="true"
       snapvisiblegridlinesonly="true" />
  </sodipodi:namedview>
  <title
     id="title3">SVG drawing</title>
  <desc
     id="desc5">This was produced by version 4.2 of GNU libplot, a free library for exporting 2-D vector graphics.</desc>
  <g
     id="content"
     transform="matrix(0.0017361,0,0,-0.0017361,-0.4891854,0.45837092)"
     xml:space="preserve"
     stroke-miterlimit="10.433"
     fill-rule="even-odd"
     font-style="normal"
     font-variant="normal"
     font-weight="normal"
     font-stretch="normal"
     font-size-adjust="none"
     letter-spacing="normal"
     word-spacing="normal"
     style="font-style:normal;font-variant:normal;font-weight:normal;font-stretch:normal;letter-spacing:normal;word-spacing:normal;text-anchor:start;fill:none;stroke:#000000;stroke-width:1;stroke-linecap:butt;stroke-linejoin:miter;stroke-miterlimit:10.43299961;stroke-opacity:1;stroke-dasharray:none;stroke-dashoffset:0">













<path
   style="fill:#a30075;fill-opacity:1;fill-rule:nonzero;stroke-width:0"
   d="m 494.88922,206.95961 c -28.53412,0 -51.4501,-23.00788 -51.4501,-51.3056 0,-20.0535 14.15469,-38.77983 30.63882,-47.69252 l -0.14452,-27.314807 c 0,-6.907351 5.24909,-15.337369 11.70635,-17.34274 l 1.01166,-0.28904 0.86715,-0.28905 1.01165,-0.28904 0.86714,-0.289051 1.01167,-0.433562 0.8671,-0.28905 1.87881,-0.722611 1.87879,-0.867142 1.87879,-0.86713 1.73429,-1.011663 1.73428,-0.867142 1.73427,-1.01165 0.7226,-0.433572 0.86715,-0.43357 0.72261,-0.433571 0.72261,-0.43356 0.72262,-0.578101 0.72261,-0.433563 0.57811,-0.433568 0.57809,-0.28905 0.57808,-0.578092 0.57809,-0.289041 0.43357,-0.433571 0.5781,-0.289041 0.28903,-0.43357 0.43359,-0.28905 c 9.59456,-8.244216 15.60845,-20.503532 15.60845,-34.540948 0,-24.732641 -20.47733,-45.235639 -45.66922,-45.235639 -25.62409,0 -46.10277,20.502998 -46.10277,45.235639 0,8.689811 -7.8309,17.198219 -17.19821,17.198219 -7.57137,0 -14.2684,-5.142253 -16.04203,-12.718012 -0.68182,-3.119413 -0.43358,-6.485309 -0.43358,-9.827553 0,-44.786094 36.78297,-81.510861 82.23349,-81.510861 45.01824,0 81.79991,36.724767 81.79991,81.510861 0,24.955416 -10.81105,47.071586 -28.18195,62.000291 -3.11504,2.673769 -16.47988,8.249651 -23.84626,13.151572 -6.88954,4.90198 -7.08162,6.129539 -7.08162,19.944139 23.16865,4.67916 40.32186,25.41678 40.32186,50.14941 0,28.29772 -22.8765,51.3056 -51.16108,51.3056 z m 0,-24.13531 c 14.16542,0 25.86959,-11.98607 25.86959,-26.15863 0,-14.53595 -11.70417,-25.72506 -25.86959,-25.72506 l -1.3007,0 -1.3007,0.14452 -1.30071,0.14453 -1.30069,0.14452 -1.30072,0.28904 -1.3007,0.43359 -1.15619,0.28903 -1.30069,0.43357 -1.15619,0.5781 -1.15619,0.57808 -1.01165,0.5781 -1.15618,0.72261 -1.01167,0.57809 -1.01165,0.86713 -1.01167,0.72262 -0.86713,0.86715 -0.86715,0.86713 -0.86713,1.01166 -0.86714,0.86714 -0.72261,1.01165 -0.57808,1.01166 -0.72262,1.15618 -0.57809,1.15619 -0.57809,1.15619 -0.43358,1.15617 -0.43356,1.15618 -0.28906,1.30071 -0.43356,1.15618 -0.14453,1.30071 -0.14452,1.30069 -0.14452,1.30072 0,1.44522 c 0,14.17256 11.91158,26.15863 26.44767,26.15863 z"
   id="path35"
   inkscape:connector-curvature="0" />






























<rect
   style="fill:none;stroke:#a30075;stroke-width:13.39543438;stroke-miterlimit:10.43299961;stroke-opacity:1;stroke-dasharray:none"
   id="rect3761"
   width="388.47726"
   height="388.47726"
   x="288.47031"
   y="-257.3353"
   transform="scale(1,-1)"
   rx="100"
   ry="100" /><path
   style="fill:#ffffff;fill-opacity:0.50196081;stroke:none"
   d="M 15.084507,57.922213 C 11.678826,57.696214 8.5133481,56.268071 6.1255526,53.880276 3.9810182,51.735742 2.6667622,49.102132 2.1818923,45.97766 2.0167458,44.913465 2.0183233,15.102457 2.183585,13.991743 2.9596013,8.7761854 6.5418211,4.4525044 11.450704,2.806482 c 1.208369,-0.4051845 1.962548,-0.5658802 3.211267,-0.6842367 1.275809,-0.1209241 29.400249,-0.1209241 30.676058,0 1.251797,0.1186483 2.006008,0.2797107 3.207187,0.6848985 4.932666,1.6639112 8.503784,5.9715533 9.272247,11.1845992 0.167558,1.136673 0.16454,30.921976 -0.0032,32.02817 -0.632719,4.171448 -2.938055,7.664887 -6.544263,9.916987 -0.987156,0.616486 -2.541223,1.267057 -3.776996,1.581145 -1.663135,0.422707 -0.833124,0.402244 -16.943662,0.417739 -8.27324,0.008 -15.232395,0.0019 -15.46479,-0.01357 l 0,0 z m 17.408451,-8.0995 c 5.020852,-1.030966 8.94078,-5.169943 9.67884,-10.219705 0.141838,-0.970439 0.117707,-2.81469 -0.04983,-3.808447 -0.272163,-1.614365 -1.001435,-3.469658 -1.860192,-4.732395 -1.127865,-1.658438 -2.022653,-2.476291 -3.595852,-3.286679 -2.065821,-1.064147 -2.799457,-1.568512 -3.008196,-2.068094 -0.06547,-0.156694 -0.141098,-0.674454 -0.168061,-1.150576 l -0.04902,-0.865678 0.328973,-0.06076 c 1.336773,-0.246897 3.031519,-1.346043 4.045571,-2.623797 1.111663,-1.400753 1.6496,-2.978019 1.6496,-4.836739 0,-2.006477 -0.688867,-3.777753 -2.02153,-5.197939 C 35.718988,9.1343893 33.435212,8.2767739 30.977662,8.5439082 27.619159,8.9089757 24.976513,11.312594 24.244781,14.6678 c -0.163541,0.749885 -0.142148,2.412128 0.03991,3.100774 0.539785,2.041804 1.950821,3.975508 3.780577,5.180957 l 0.572812,0.377369 0.02603,2.348642 0.02603,2.348642 0.277231,0.562779 c 0.389255,0.790184 0.902024,1.226285 1.803263,1.533639 0.897855,0.306201 2.314858,1.044908 3.053932,1.592064 1.040519,0.770325 1.914325,2.039418 2.345015,3.405838 0.266524,0.845585 0.326967,2.405553 0.127879,3.300418 -0.729262,3.277894 -3.718859,5.550889 -7.015771,5.334102 -2.825381,-0.185781 -5.254615,-2.044375 -6.094267,-4.662688 -0.12267,-0.382527 -0.26414,-1.121914 -0.325833,-1.702951 -0.13042,-1.228344 -0.305864,-1.639659 -0.950805,-2.229098 -0.571657,-0.522462 -1.109078,-0.709317 -1.881208,-0.654071 -1.016102,0.0727 -1.762075,0.629579 -2.124707,1.586119 -0.161782,0.426742 -0.172516,0.585846 -0.131136,1.943663 0.03155,1.035261 0.0982,1.726443 0.222192,2.3042 1.02776,4.788952 4.774175,8.492384 9.595623,9.485529 1.409437,0.290324 3.484675,0.289894 4.901409,-0.001 l 0,0 z"
   id="path3757"
   inkscape:connector-curvature="0"
   transform="matrix(6.6977173,0,0,-6.6977173,281.77259,264.02334)" /><path
   style="fill:#ffffff;fill-opacity:0.50196078;stroke:none"
   d="m 31.267606,19.78125 c -0.943888,-0.140091 -1.780582,-0.579182 -2.384846,-1.251549 -1.700672,-1.892343 -1.017522,-4.901723 1.361849,-5.999156 2.677262,-1.234829 5.759159,1.096576 5.334902,4.035766 -0.292706,2.027827 -2.287794,3.515356 -4.311905,3.214939 z"
   id="path3759"
   inkscape:connector-curvature="0"
   transform="matrix(6.6977173,0,0,-6.6977173,281.77259,264.02334)" /></g></svg>
