<?xml version="1.0" encoding="utf-8"?>
<!-- Generator: Adobe Illustrator 14.0.0, SVG Export Plug-In . SVG Version: 6.00 Build 43363)  -->
<!DOCTYPE svg PUBLIC "-//W3C//DTD SVG 1.1 Basic//EN" "http://www.w3.org/Graphics/SVG/1.1/DTD/svg11-basic.dtd">
<svg version="1.1" baseProfile="basic" id="svg2" xmlns:svg="http://www.w3.org/2000/svg"
	 xmlns="http://www.w3.org/2000/svg" xmlns:xlink="http://www.w3.org/1999/xlink" x="0px" y="0px" width="320px" height="320px"
	 viewBox="293.543 293.543 320 320" xml:space="preserve">
<path id="path6625" fill="#A30075" d="M446.533,294.5l-20.378,2.118l-20.025,4.676l-19.146,6.971l-17.83,9.441l-15.984,11.734
	l-13.79,14.029l-11.945,15.706l-10.626,17.028l-10.013,17.559l11.945,6.971l4.479-7.5l10.715-17.118l11.593-16.234l13.263-14.647
	l15.283-12.53l17.39-9.969l18.883-7.413l20.025-4.676l20.64-1.854l20.729,0.972l20.375,3.793l19.411,6.618l17.829,9.176
	l15.811,11.734l13.438,14.03l11.33,16.058l9.748,17.293l8.696,18.441l8.256,18.794l15.897,12.087l-3.513-18.617l-5.097-19.324
	l-7.639-18.705l-10.189-17.559l-12.472-16.058l-14.58-14.47l-16.161-12.353l-17.653-10.147l-18.707-7.676l-19.498-5.294
	l-20.113-2.735L446.533,294.5z M303.809,403.732l-4.392,20.205l-2.986,19.765l-0.439,19.676l2.547,19.674l4.216,19.766
	l73.778-41.028l17.038,10.06l17.39,9.97l17.831,8.823l18.707,6.882l19.499,4.236l19.938,1.852l20.201-0.176l20.112-2.382
	l19.411-4.854l18.356-7.5l17.039-10.147l15.985-11.91l15.546-12.882l-14.931-12.353l-15.985-11.823l-17.128-9.883l-18.444-7.323
	l-19.498-4.765l-20.114-2.559l-20.201-0.441l-20.024,1.588l-19.498,4.147l-18.532,6.882l-17.83,9.176l-17.479,9.706l-17.39,9.706
	L303.809,403.732z M551.754,439.82c7.756,0,14.051,6.324,14.051,14.117c0,7.792-6.295,14.117-14.051,14.117
	c-7.758,0-14.054-6.324-14.054-14.117C537.7,446.143,543.996,439.82,551.754,439.82z M613.585,468.848l-16.951,12.971l-3.688,10.498
	l-7.203,18.882l-8.431,18.089l-10.629,16.588l-13.349,14.734l-15.81,12.705l-17.653,10.323l-18.972,7.677l-19.586,4.94
	l-19.938,2.207l-20.113-0.529l-19.85-3.354l-19.41-5.91l-18.532-8.56l-17.04-10.939l-14.842-13.235l-12.56-15.442l-10.627-16.939
	l-9.662-17.735l-11.944,6.97l1.142,2.471l9.222,17.825l10.54,16.94l12.648,15.352l14.931,13.5l16.688,11.471l18.005,9.352
	l19.059,6.881l19.674,4.767l20.025,2.029l20.112-0.441l19.763-2.999l19.234-5.648l18.356-8.028l17.479-10.235l16.073-12.264
	l14.403-14.205l12.296-15.795l9.486-17.381l7.201-18.529l5.622-19.323L613.585,468.848z"/>
</svg>
