<svg
   xmlns:svg="http://www.w3.org/2000/svg"
   xmlns="http://www.w3.org/2000/svg"
   version="1.1"
   width="320"
   height="320">
  <g id="fishing_harbour" width="320" height="320">
    <path
      d="m 446.53,294.5 -20.378,2.118 -20.025,4.676 -19.146,6.971 -17.83,9.441 -15.984,11.734 -13.79,14.029 -11.945,15.706 -10.626,17.028 -10.013,17.559 11.945,6.971 4.479,-7.5 10.715,-17.118 11.593,-16.234 13.263,-14.647 15.283,-12.53 17.39,-9.969 18.883,-7.413 20.025,-4.676 20.64,-1.854 20.729,0.972 20.375,3.793 19.411,6.618 17.829,9.176 15.811,11.734 13.438,14.03 11.33,16.058 9.748,17.293 8.696,18.441 8.256,18.794 15.897,12.087 -3.513,-18.617 -5.097,-19.324 -7.639,-18.705 -10.189,-17.559 -12.472,-16.058 -14.58,-14.47 -16.161,-12.353 -17.653,-10.147 -18.707,-7.676 -19.498,-5.294 -20.113,-2.735 -20.36,-0.34 z m -142.72,109.23 -4.392,20.205 -2.986,19.765 -0.439,19.676 2.547,19.674 4.216,19.766 73.778,-41.028 17.038,10.06 17.39,9.97 17.831,8.823 18.707,6.882 19.499,4.236 19.938,1.852 20.201,-0.176 20.112,-2.382 19.411,-4.854 18.356,-7.5 17.039,-10.147 15.985,-11.91 15.546,-12.882 -14.931,-12.353 -15.985,-11.823 -17.128,-9.883 -18.444,-7.323 -19.498,-4.765 -20.114,-2.559 -20.201,-0.441 -20.024,1.588 -19.498,4.147 -18.532,6.882 -17.83,9.176 -17.479,9.706 -17.39,9.706 -72.76,-42.11 z m 247.94,36.09 c 7.756,0 14.051,6.324 14.051,14.117 0,7.792 -6.295,14.117 -14.051,14.117 -7.758,0 -14.054,-6.324 -14.054,-14.117 0,-7.8 6.3,-14.12 14.05,-14.12 z m 61.83,29.03 -16.951,12.971 -3.688,10.498 -7.203,18.882 -8.431,18.089 -10.629,16.588 -13.349,14.734 -15.81,12.705 -17.653,10.323 -18.972,7.677 -19.586,4.94 -19.938,2.207 -20.113,-0.529 -19.85,-3.354 -19.41,-5.91 -18.532,-8.56 -17.04,-10.939 -14.842,-13.235 -12.56,-15.442 -10.627,-16.939 -9.662,-17.735 -11.944,6.97 1.142,2.471 9.222,17.825 10.54,16.94 12.648,15.352 14.931,13.5 16.688,11.471 18.005,9.352 19.059,6.881 19.674,4.767 20.025,2.029 20.112,-0.441 19.763,-2.999 19.234,-5.648 18.356,-8.028 17.479,-10.235 16.073,-12.264 14.403,-14.205 12.296,-15.795 9.486,-17.381 7.201,-18.529 5.622,-19.323 4.82,-19.68 z"
     	transform="matrix(1.0075757,0,0,1.0035154,-298.23536,-295.5353)" style="fill:#a30075" />
  </g>
</svg>
