<?xml version="1.0" encoding="UTF-8" standalone="no"?>
<!-- Generator: Adobe Illustrator 14.0.0, SVG Export Plug-In . SVG Version: 6.00 Build 43363)  -->
<svg id="svg8829" xml:space="preserve" height="400" viewBox="0 0 300 400" xmlns:dc="http://purl.org/dc/elements/1.1/" width="300" version="1.1" xmlns:xlink="http://www.w3.org/1999/xlink" xmlns:cc="http://creativecommons.org/ns#" xmlns:rdf="http://www.w3.org/1999/02/22-rdf-syntax-ns#" xmlns="http://www.w3.org/2000/svg" y="0px" x="0px" enable-background="new 0 0 320 320"><metadata id="metadata14"><rdf:RDF><cc:Work rdf:about=""><dc:format>image/svg+xml</dc:format><dc:type rdf:resource="http://purl.org/dc/dcmitype/StillImage"/><dc:title/></cc:Work></rdf:RDF></metadata>
<defs id="defs4"><pattern id="SVGID_3_-1" xlink:href="#_x31_0_lpi_30_x25_-1" patternTransform="matrix(.7467 -.7467 .7467 .7467 3977.5 -8206.6)"/><clipPath id="SVGID_2_"><use id="use3208" xlink:href="#SVGID_1_" height="400" width="288" y="0" x="0"/></clipPath><pattern id="SVGID_3_" xlink:href="#_x31_0_lpi_30_x25_" patternTransform="matrix(.7467 -.7467 .7467 .7467 3977.5 -8206.6)"/><pattern id="_x31_0_lpi_30_x25_" height="72" viewBox="20 -72 72 72" width="72" patternUnits="userSpaceOnUse" y="200" x="144"><g id="g3148"><polygon id="polygon3150" points="20 0 20 -72 92 -72 92 0" class="st4"/><line id="line3152" y2="-3.601" x2="92.25" y1="-3.601" x1="19.75" class="st3"/><line id="line3154" y2="-18" x2="92.25" y1="-18" x1="19.75" class="st3"/><line id="line3156" y2="-32.4" x2="92.25" y1="-32.4" x1="19.75" class="st3"/><line id="line3158" y2="-46.8" x2="92.25" y1="-46.8" x1="19.75" class="st3"/><line id="line3160" y2="-61.2" x2="92.25" y1="-61.2" x1="19.75" class="st3"/><line id="line3162" y2="-61.2" x2="14" y1="-61.2" class="st3"/><line id="line3164" y2="-10.8" x2="92.25" y1="-10.8" x1="19.75" class="st3"/><line id="line3166" y2="-25.2" x2="92.25" y1="-25.2" x1="19.75" class="st3"/><line id="line3168" y2="-39.601" x2="92.25" y1="-39.601" x1="19.75" class="st3"/><line id="line3170" y2="-54" x2="92.25" y1="-54" x1="19.75" class="st3"/><line id="line3172" y2="-68.4" x2="92.25" y1="-68.4" x1="19.75" class="st3"/><line id="line3174" y2="-68.4" x2="14" y1="-68.4" class="st3"/></g></pattern></defs>
<g id="layer1" transform="translate(0,80)"><g id="g5778"><g id="g4916" transform="translate(6 -79.96)"><g id="Chimney-2" class="st11" stroke="#000" stroke-width="5" display="none" fill="none"><circle id="circle4791" d="m 156.5,200.00101 c 0,6.90356 -5.59644,12.5 -12.5,12.5 -6.90356,0 -12.5,-5.59644 -12.5,-12.5 0,-6.90356 5.59644,-12.5 12.5,-12.5 6.90356,0 12.5,5.59644 12.5,12.5 z" display="inline" cx="144" cy="200" r="12.5" class="st2"/><path id="path4793" d="m154.02 65.573c2.085-4.296 10.428-6.448 10.428-10.744" display="inline" class="st2"/><path id="path4795" d="m134.23 65.083c-3.558-17.769 23.098-33.759 30.214-21.32" display="inline" class="st2"/><path id="path4797" d="m154.89 68.51" display="inline" class="st2"/><path id="path4799" d="m132.89 68.51" display="inline" class="st2"/><polyline id="polyline4801" display="inline" points="119 200 134 71 154 71 169 200" class="st2"/><path id="path4803" d="m159.93 39.938c41.957-41.761 82.291 64.239-0.461 20.63" display="inline" class="st2"/><line id="line4805" y2="200" display="inline" x2="181.5" y1="200" x1="156.5" class="st2"/><line id="line4807" y2="200" display="inline" x2="131.5" y1="200" x1="106.5" class="st2"/></g><g id="Monument-3" display="none" class="st11"><line id="line4810" stroke-width="5" y2="200" display="inline" x2="181.5" stroke="#000" y1="200" x1="156.5" class="st2" fill="none"/><line id="line4812" stroke-width="5" y2="200" display="inline" x2="131.5" stroke="#000" y1="200" x1="106.5" class="st2" fill="none"/><circle id="circle4814" stroke-width="5" d="m 156.5,200 c 0,6.90356 -5.59644,12.5 -12.5,12.5 -6.90356,0 -12.5,-5.59644 -12.5,-12.5 0,-6.90356 5.59644,-12.5 12.5,-12.5 6.90356,0 12.5,5.59644 12.5,12.5 z" display="inline" cx="144" cy="200" stroke="#000" r="12.5" class="st2" fill="none"/><g id="g4816" display="inline" class="st7"><defs id="defs4818"><path id="SVGID_1_-3" d="m175.5 63.5c0-17.404-14.1-31.5-31.5-31.5-17.404 0-31.5 14.096-31.5 31.5 0 9.572 4.27 18.138 11.003 23.914l-4.5 112.59h12c0-7.18 5.82-13 13-13s13 5.82 13 13h12l-4.5-112.59c6.73-5.772 11-14.338 11-23.91z"/></defs><clipPath id="SVGID_2_-4"><use id="use4822" xlink:href="#SVGID_1_-3" height="1" width="1" y="0" x="0"/></clipPath><polygon id="polygon4825" clip-path="url(#SVGID_2_)" display="inline" stroke="#000" points="294 102.07 151.94 -40 -6 117.93 136.07 260" stroke-width="3" class="st1" fill="url(#SVGID_3_-1)"/></g><g id="g4827" display="inline" class="st7"><g id="g4829"><path id="path4831" d="m175.5 63c0-17.404-14.096-31.5-31.5-31.5s-31.5 14.096-31.5 31.5c0 9.572 4.271 18.138 11.003 23.914l-4.5 112.59h12c0-7.18 5.82-13 13-13s13 5.82 13 13h12l-4.5-112.59c6.73-5.772 11-14.338 11-23.91z" class="st9" stroke="#000" stroke-linecap="round" stroke-width="5" fill="none"/></g></g></g><g id="Radio_x5F_mast-13" class="st11" stroke="#000" stroke-width="5" display="none" fill="none"><circle id="circle4834" d="m 156.5,200.00101 c 0,6.90356 -5.59644,12.5 -12.5,12.5 -6.90356,0 -12.5,-5.59644 -12.5,-12.5 0,-6.90356 5.59644,-12.5 12.5,-12.5 6.90356,0 12.5,5.59644 12.5,12.5 z" display="inline" cx="144" cy="200" r="12.5" class="st2"/><line id="line4836" y2="200" display="inline" x2="181.5" y1="200" x1="156.5" class="st2"/><line id="line4838" y2="200" display="inline" x2="131.5" y1="200" x1="106.5" class="st2"/><polyline id="polyline4840" display="inline" points="119 200 144 71 169 200" class="st2"/><g id="g4842" class="st7" stroke-linecap="round" display="inline"><path id="path4844" d="m176.69 40.093c7.63 8.062 12.31 18.934 12.31 30.907s-4.685 22.845-12.31 30.907" display="none" class="st10"/><path id="path4846" d="m111.31 40.093c-7.63 8.062-12.31 18.934-12.31 30.907s4.685 22.845 12.31 30.907" display="none" class="st10"/><path id="path4848" d="m167.61 93.322c5.51-5.823 8.89-13.675 8.89-22.322s-3.384-16.499-8.891-22.321" display="none" class="st10"/><path id="path4850" d="m120.39 48.678c-5.51 5.823-8.89 13.675-8.89 22.322s3.383 16.499 8.891 22.322" display="none" class="st10"/></g></g><g id="Water_x5F_tower-87" class="st11" stroke="#000" stroke-width="5" display="none" fill="none"><circle id="circle4853" d="m 156.5,200.00101 c 0,6.90356 -5.59644,12.5 -12.5,12.5 -6.90356,0 -12.5,-5.59644 -12.5,-12.5 0,-6.90356 5.59644,-12.5 12.5,-12.5 6.90356,0 12.5,5.59644 12.5,12.5 z" display="inline" cx="144" cy="200" r="12.5" class="st2"/><line id="line4855" y2="200" display="inline" x2="181.5" y1="200" x1="156.5" class="st2"/><line id="line4857" y2="200" display="inline" x2="131.5" y1="200" x1="106.5" class="st2"/><polyline id="polyline4859" display="inline" points="119 200 126 71 114 71 114 30 174 30 174 71 162 71 169 200" class="st2"/><line id="line4861" y2="71" display="inline" x2="162" y1="71" x1="126" class="st2"/></g><g id="Flare_x5F_stack-42" stroke="#000"><line id="line4864" stroke-width="5" y2="200" x2="181.5" stroke-linecap="round" y1="200" x1="156.5" class="st9" fill="none"/><line id="line4866" stroke-width="5" y2="200" x2="131.5" stroke-linecap="round" y1="200" x1="106.5" class="st9" fill="none"/><path id="path4868" d="m157.57 26.465c-12.57 28.802 11.05 39.827-3.57 58.452-5.75 7.326-15.88 10.083-21.5-0.667-14.033-26.818 31.25-63 31.25-63" class="st8" stroke-width="3" fill="none"/><circle id="circle4870" stroke-width="5" d="m 156.5,200 c 0,6.90356 -5.59644,12.5 -12.5,12.5 -6.90356,0 -12.5,-5.59644 -12.5,-12.5 0,-6.90356 5.59644,-12.5 12.5,-12.5 6.90356,0 12.5,5.59644 12.5,12.5 z" cx="144" cy="200" stroke-linecap="round" r="12.5" class="st9" fill="none"/><rect id="rect4872" clip-path="url(#SVGID_2_)" height="100" width="15" y="87.5" x="136.5" stroke-width="5" class="st0" fill="url(#SVGID_3_)"/></g><g id="Flagstaff-7" class="st11" stroke="#000" stroke-width="5" display="none" fill="none"><line id="line4875" y2="200" display="inline" x2="181.5" y1="200" x1="156.5" class="st2"/><line id="line4877" y2="200" display="inline" x2="131.5" y1="200" x1="106.5" class="st2"/><circle id="circle4879" d="m 156.5,200 c 0,6.90356 -5.59644,12.5 -12.5,12.5 -6.90356,0 -12.5,-5.59644 -12.5,-12.5 0,-6.90356 5.59644,-12.5 12.5,-12.5 6.90356,0 12.5,5.59644 12.5,12.5 z" display="inline" cx="144" cy="200" r="12.5" class="st2"/><line id="line4881" y2="25" display="inline" x2="144" y1="187.5" x1="144" class="st2"/><polyline id="polyline4883" display="inline" points="144 40 186 40 186 82 144 82" class="st2"/></g><g id="Dish_x5F_aerial-7" stroke="#000" display="none" class="st11"><line id="line4886" stroke-width="5" y2="200" display="inline" x2="181.5" y1="200" x1="156.5" class="st2" fill="none"/><line id="line4888" stroke-width="5" y2="200" display="inline" x2="131.5" y1="200" x1="106.5" class="st2" fill="none"/><circle id="circle4890" stroke-width="5" d="m 156.5,200 c 0,6.90356 -5.59644,12.5 -12.5,12.5 -6.90356,0 -12.5,-5.59644 -12.5,-12.5 0,-6.90356 5.59644,-12.5 12.5,-12.5 6.90356,0 12.5,5.59644 12.5,12.5 z" display="inline" cx="144" cy="200" r="12.5" class="st2" fill="none"/><path id="path4892" d="m140.01 42.636c-22.984 13.27-29.292 45.37-14.092 71.698s46.154 36.914 69.138 23.644l-55.05-95.344z" display="inline" class="st2" stroke-width="5" fill="none"/><polygon id="polygon4894" display="inline" points="146 137 151 187 137 187 142 137" stroke-width="5" class="st6"/><polygon id="polygon4896" display="inline" points="175.89 82.851 169.69 89.12 168.03 86.21" stroke-width="2" class="st5"/></g><g id="Tower-9" class="st11" stroke="#000" stroke-width="5" display="none" fill="none"><line id="line4899" y2="71" display="inline" x2="160" y1="71" x1="128" class="st2"/><circle id="circle4901" d="m 156.5,200.00101 c 0,6.90356 -5.59644,12.5 -12.5,12.5 -6.90356,0 -12.5,-5.59644 -12.5,-12.5 0,-6.90356 5.59644,-12.5 12.5,-12.5 6.90356,0 12.5,5.59644 12.5,12.5 z" display="inline" cx="144" cy="200" r="12.5" class="st2"/><line id="line4903" y2="200" display="inline" x2="181.5" y1="200" x1="156.5" class="st2"/><line id="line4905" y2="200" display="inline" x2="131.5" y1="200" x1="106.5" class="st2"/><polyline id="polyline4907" display="inline" points="119 200 128 71 128 32 160 32 160 71 169 200" class="st2"/></g></g><rect id="rect4932" height="99" width="16" stroke="#000" y="8.0566" x="142" stroke-width="5" fill="none"/><path id="path5702" d="m141 24 17.77-17.531" stroke="#000" stroke-linecap="round" stroke-width="2" fill="none"/><path id="path5702-6" d="m141 34 17.77-17.531" stroke="#000" stroke-linecap="round" stroke-width="2" fill="none"/><path id="path5702-9" d="m141 44 17.77-17.531" stroke="#000" stroke-linecap="round" stroke-width="2" fill="none"/><path id="path5702-0" d="m141 54 17.77-17.531" stroke="#000" stroke-linecap="round" stroke-width="2" fill="none"/><path id="path5702-92" d="m141 64 17.77-17.531" stroke="#000" stroke-linecap="round" stroke-width="2" fill="none"/><path id="path5702-4" d="m141 74 17.77-17.531" stroke="#000" stroke-linecap="round" stroke-width="2" fill="none"/><path id="path5702-93" d="m141 84 17.77-17.531" stroke="#000" stroke-linecap="round" stroke-width="2" fill="none"/><path id="path5702-98" d="m141 94 17.77-17.531" stroke="#000" stroke-linecap="round" stroke-width="2" fill="none"/><path id="path5702-1" d="m141 104 17.77-17.531" stroke="#000" stroke-linecap="round" stroke-width="2" fill="none"/><path id="path5702-48" d="m141 114 17.77-17.531" stroke="#000" stroke-linecap="round" stroke-width="2" fill="none"/></g></g>
</svg>
