<?xml version="1.0" encoding="UTF-8" standalone="no"?>
<!-- Generator: Adobe Illustrator 14.0.0, SVG Export Plug-In . SVG Version: 6.00 Build 43363)  -->

<svg
   xmlns:dc="http://purl.org/dc/elements/1.1/"
   xmlns:cc="http://creativecommons.org/ns#"
   xmlns:rdf="http://www.w3.org/1999/02/22-rdf-syntax-ns#"
   xmlns:svg="http://www.w3.org/2000/svg"
   xmlns="http://www.w3.org/2000/svg"
   xmlns:xlink="http://www.w3.org/1999/xlink"
   xmlns:sodipodi="http://sodipodi.sourceforge.net/DTD/sodipodi-0.dtd"
   xmlns:inkscape="http://www.inkscape.org/namespaces/inkscape"
   version="1.1"
   id="svg8829"
   sodipodi:version="0.32"
   inkscape:version="0.48.2 r9819"
   sodipodi:docname="FlareStack.svg"
   inkscape:export-xdpi="89.361702"
   inkscape:export-ydpi="89.361702"
   inkscape:export-filename="/Users/mherring/Desktop/try.png"
   inkscape:output_extension="org.inkscape.output.svg.inkscape"
   x="0px"
   y="0px"
   width="300"
   height="400"
   viewBox="0 0 300 400"
   enable-background="new 0 0 320 320"
   xml:space="preserve"><metadata
   id="metadata14"><rdf:RDF><cc:Work
       rdf:about=""><dc:format>image/svg+xml</dc:format><dc:type
         rdf:resource="http://purl.org/dc/dcmitype/StillImage" /><dc:title /></cc:Work></rdf:RDF></metadata>
<sodipodi:namedview
   id="base"
   inkscape:window-height="1088"
   inkscape:pageshadow="2"
   inkscape:pageopacity="0.0"
   inkscape:window-width="1920"
   inkscape:window-x="0"
   inkscape:window-y="0"
   inkscape:current-layer="layer1"
   showgrid="true"
   guidetolerance="10.0"
   inkscape:zoom="4.1640733"
   gridtolerance="10.0"
   objecttolerance="10.0"
   borderopacity="1.0"
   bordercolor="#666666"
   inkscape:cx="81.582691"
   pagecolor="#ffffff"
   inkscape:cy="282.29046"
   inkscape:window-maximized="1"
   inkscape:snap-global="false">
	<inkscape:grid
   type="xygrid"
   id="grid3611"
   empspacing="5"
   visible="true"
   enabled="true"
   snapvisiblegridlinesonly="true" /></sodipodi:namedview>
<defs
   id="defs4"><pattern
     patternTransform="matrix(0.7467 -0.7467 0.7467 0.7467 3977.5254 -8206.5869)"
     xlink:href="#_x31_0_lpi_30_x25_-1"
     id="SVGID_3_-1" /><clipPath
     id="SVGID_2_"><use
       xlink:href="#SVGID_1_"
       style="overflow:visible"
       id="use3208"
       x="0"
       y="0"
       width="288"
       height="400" /></clipPath><pattern
     id="SVGID_3_"
     xlink:href="#_x31_0_lpi_30_x25_"
     patternTransform="matrix(0.7467 -0.7467 0.7467 0.7467 3977.5254 -8206.5869)" /><pattern
     x="144"
     y="200"
     width="72"
     height="72"
     patternUnits="userSpaceOnUse"
     id="_x31_0_lpi_30_x25_"
     viewBox="20 -72 72 72"><g
       id="g3148"><polygon
         class="st4"
         points="20,0 20,-72 92,-72 92,0   "
         id="polygon3150" /><line
         class="st3"
         x1="19.75"
         y1="-3.601"
         x2="92.25"
         y2="-3.601"
         id="line3152" /><line
         class="st3"
         x1="19.75"
         y1="-18"
         x2="92.25"
         y2="-18"
         id="line3154" /><line
         class="st3"
         x1="19.75"
         y1="-32.4"
         x2="92.25"
         y2="-32.4"
         id="line3156" /><line
         class="st3"
         x1="19.75"
         y1="-46.8"
         x2="92.25"
         y2="-46.8"
         id="line3158" /><line
         class="st3"
         x1="19.75"
         y1="-61.2"
         x2="92.25"
         y2="-61.2"
         id="line3160" /><line
         class="st3"
         x1="0"
         y1="-61.2"
         x2="14"
         y2="-61.2"
         id="line3162" /><line
         class="st3"
         x1="19.75"
         y1="-10.8"
         x2="92.25"
         y2="-10.8"
         id="line3164" /><line
         class="st3"
         x1="19.75"
         y1="-25.2"
         x2="92.25"
         y2="-25.2"
         id="line3166" /><line
         class="st3"
         x1="19.75"
         y1="-39.601"
         x2="92.25"
         y2="-39.601"
         id="line3168" /><line
         class="st3"
         x1="19.75"
         y1="-54"
         x2="92.25"
         y2="-54"
         id="line3170" /><line
         class="st3"
         x1="19.75"
         y1="-68.4"
         x2="92.25"
         y2="-68.4"
         id="line3172" /><line
         class="st3"
         x1="0"
         y1="-68.4"
         x2="14"
         y2="-68.4"
         id="line3174" /></g></pattern></defs>
<g
   id="g2415"
   transform="translate(0,80)">
	
	
	
		
</g><g
   inkscape:groupmode="layer"
   id="layer1"
   inkscape:label="Flare Stack"
   transform="translate(0,80)"><g
     id="g5778"><g
       transform="translate(6,-79.959664)"
       id="g4916"
       style="display:inline"><g
         style="display:none"
         id="Chimney-2"
         class="st11"><circle
           d="m 156.5,200.00101 c 0,6.90356 -5.59644,12.5 -12.5,12.5 -6.90356,0 -12.5,-5.59644 -12.5,-12.5 0,-6.90356 5.59644,-12.5 12.5,-12.5 6.90356,0 12.5,5.59644 12.5,12.5 z"
           style="fill:none;stroke:#000000;stroke-width:5;display:inline"
           sodipodi:ry="12.5"
           sodipodi:rx="12.5"
           sodipodi:cy="200.00101"
           sodipodi:cx="144"
           class="st2"
           cx="144"
           cy="200.00101"
           r="12.5"
           id="circle4791" /><path
           style="fill:none;stroke:#000000;stroke-width:5;display:inline"
           inkscape:connector-curvature="0"
           class="st2"
           d="m 154.016,65.573 c 2.085,-4.296 10.428,-6.448 10.428,-10.744"
           id="path4793" /><path
           style="fill:none;stroke:#000000;stroke-width:5;display:inline"
           inkscape:connector-curvature="0"
           class="st2"
           d="m 134.229,65.083 c -3.558,-17.769 23.098,-33.759 30.214,-21.32"
           id="path4795" /><path
           style="fill:none;stroke:#000000;stroke-width:5;display:inline"
           inkscape:connector-curvature="0"
           class="st2"
           d="M 154.891,68.51"
           id="path4797" /><path
           style="fill:none;stroke:#000000;stroke-width:5;display:inline"
           inkscape:connector-curvature="0"
           class="st2"
           d="M 132.891,68.51"
           id="path4799" /><polyline
           style="fill:none;stroke:#000000;stroke-width:5;display:inline"
           class="st2"
           points="119,200 134,71 154,71 169,200  "
           id="polyline4801" /><path
           style="fill:none;stroke:#000000;stroke-width:5;display:inline"
           inkscape:connector-curvature="0"
           class="st2"
           d="m 159.934,39.938 c 41.957,-41.761 82.291,64.239 -0.461,20.63"
           id="path4803" /><line
           style="fill:none;stroke:#000000;stroke-width:5;display:inline"
           class="st2"
           x1="156.5"
           y1="200.00101"
           x2="181.5"
           y2="200.00101"
           id="line4805" /><line
           style="fill:none;stroke:#000000;stroke-width:5;display:inline"
           class="st2"
           x1="106.5"
           y1="200.00101"
           x2="131.5"
           y2="200.00101"
           id="line4807" /></g><g
         style="display:none"
         id="Monument-3"
         class="st11"><line
           style="fill:none;stroke:#000000;stroke-width:5;display:inline"
           class="st2"
           x1="156.5"
           y1="200.00101"
           x2="181.5"
           y2="200.00101"
           id="line4810" /><line
           style="fill:none;stroke:#000000;stroke-width:5;display:inline"
           class="st2"
           x1="106.5"
           y1="200.00101"
           x2="131.5"
           y2="200.00101"
           id="line4812" /><circle
           d="m 156.5,200 c 0,6.90356 -5.59644,12.5 -12.5,12.5 -6.90356,0 -12.5,-5.59644 -12.5,-12.5 0,-6.90356 5.59644,-12.5 12.5,-12.5 6.90356,0 12.5,5.59644 12.5,12.5 z"
           style="fill:none;stroke:#000000;stroke-width:5;display:inline"
           sodipodi:ry="12.5"
           sodipodi:rx="12.5"
           sodipodi:cy="200"
           sodipodi:cx="144"
           class="st2"
           cx="144"
           cy="200"
           r="12.5"
           id="circle4814" /><g
           style="display:inline"
           class="st7"
           id="g4816"><defs
             id="defs4818"><path
               inkscape:connector-curvature="0"
               id="SVGID_1_-3"
               d="M 175.5,63.5 C 175.5,46.096 161.404,32 144,32 c -17.404,0 -31.5,14.096 -31.5,31.5 0,9.572 4.27,18.138 11.003,23.914 L 119,200 h 12 c 0,-7.18 5.82,-13 13,-13 7.18,0 13,5.82 13,13 h 12 L 164.496,87.414 C 171.23,81.638 175.5,73.072 175.5,63.5 z" /></defs><clipPath
             id="SVGID_2_-4"><use
               height="1"
               width="1"
               y="0"
               x="0"
               xlink:href="#SVGID_1_-3"
               style="overflow:visible"
               id="use4822" /></clipPath><pattern
             id="pattern4382"
             xlink:href="#_x31_0_lpi_30_x25_-1"
             patternTransform="matrix(0.7467 -0.7467 0.7467 0.7467 3977.5254 -8206.5869)" /><polygon
             class="st1"
             points="294,102.066 151.935,-40 -6,117.934 136.066,260 "
             id="polygon4825"
             clip-path="url(#SVGID_2_)"
             style="fill:url(#SVGID_3_-1);stroke:#000000;stroke-width:3;display:inline" /></g><g
           style="display:inline"
           class="st7"
           id="g4827"><g
             id="g4829"><path
               style="fill:none;stroke:#000000;stroke-width:5;stroke-linecap:round"
               inkscape:connector-curvature="0"
               class="st9"
               d="m 175.5,63 c 0,-17.404 -14.096,-31.5 -31.5,-31.5 -17.404,0 -31.5,14.096 -31.5,31.5 0,9.572 4.271,18.138 11.003,23.914 L 119,199.5 h 12 c 0,-7.18 5.82,-13 13,-13 7.18,0 13,5.82 13,13 h 12 L 164.496,86.914 C 171.23,81.138 175.5,72.572 175.5,63 z"
               id="path4831" /></g></g></g><g
         style="display:none"
         id="Radio_x5F_mast-13"
         class="st11"><circle
           d="m 156.5,200.00101 c 0,6.90356 -5.59644,12.5 -12.5,12.5 -6.90356,0 -12.5,-5.59644 -12.5,-12.5 0,-6.90356 5.59644,-12.5 12.5,-12.5 6.90356,0 12.5,5.59644 12.5,12.5 z"
           style="fill:none;stroke:#000000;stroke-width:5;display:inline"
           sodipodi:ry="12.5"
           sodipodi:rx="12.5"
           sodipodi:cy="200.00101"
           sodipodi:cx="144"
           class="st2"
           cx="144"
           cy="200.00101"
           r="12.5"
           id="circle4834" /><line
           style="fill:none;stroke:#000000;stroke-width:5;display:inline"
           class="st2"
           x1="156.5"
           y1="200.00101"
           x2="181.5"
           y2="200.00101"
           id="line4836" /><line
           style="fill:none;stroke:#000000;stroke-width:5;display:inline"
           class="st2"
           x1="106.5"
           y1="200.00101"
           x2="131.5"
           y2="200.00101"
           id="line4838" /><polyline
           style="fill:none;stroke:#000000;stroke-width:5;display:inline"
           class="st2"
           points="119,200 144,71 169,200  "
           id="polyline4840" /><g
           style="display:inline"
           class="st7"
           id="g4842"><path
             style="fill:none;stroke:#000000;stroke-width:5;stroke-linecap:round;display:none"
             inkscape:connector-curvature="0"
             class="st10"
             d="M 176.69,40.093 C 184.315,48.155 189,59.027 189,71 c 0,11.973 -4.685,22.845 -12.31,30.907"
             id="path4844" /><path
             style="fill:none;stroke:#000000;stroke-width:5;stroke-linecap:round;display:none"
             inkscape:connector-curvature="0"
             class="st10"
             d="M 111.31,40.093 C 103.685,48.155 99,59.027 99,71 c 0,11.973 4.685,22.845 12.31,30.907"
             id="path4846" /><path
             style="fill:none;stroke:#000000;stroke-width:5;stroke-linecap:round;display:none"
             inkscape:connector-curvature="0"
             class="st10"
             d="M 167.609,93.322 C 173.116,87.499 176.5,79.647 176.5,71 c 0,-8.647 -3.384,-16.499 -8.891,-22.321"
             id="path4848" /><path
             style="fill:none;stroke:#000000;stroke-width:5;stroke-linecap:round;display:none"
             inkscape:connector-curvature="0"
             class="st10"
             d="M 120.391,48.678 C 114.883,54.501 111.5,62.353 111.5,71 c 0,8.647 3.383,16.499 8.891,22.322"
             id="path4850" /></g></g><g
         style="display:none"
         id="Water_x5F_tower-87"
         class="st11"><circle
           d="m 156.5,200.00101 c 0,6.90356 -5.59644,12.5 -12.5,12.5 -6.90356,0 -12.5,-5.59644 -12.5,-12.5 0,-6.90356 5.59644,-12.5 12.5,-12.5 6.90356,0 12.5,5.59644 12.5,12.5 z"
           style="fill:none;stroke:#000000;stroke-width:5;display:inline"
           sodipodi:ry="12.5"
           sodipodi:rx="12.5"
           sodipodi:cy="200.00101"
           sodipodi:cx="144"
           class="st2"
           cx="144"
           cy="200.00101"
           r="12.5"
           id="circle4853" /><line
           style="fill:none;stroke:#000000;stroke-width:5;display:inline"
           class="st2"
           x1="156.5"
           y1="200.00101"
           x2="181.5"
           y2="200.00101"
           id="line4855" /><line
           style="fill:none;stroke:#000000;stroke-width:5;display:inline"
           class="st2"
           x1="106.5"
           y1="200.00101"
           x2="131.5"
           y2="200.00101"
           id="line4857" /><polyline
           style="fill:none;stroke:#000000;stroke-width:5;display:inline"
           class="st2"
           points="119,200 126,71 114,71 114,30 174,30 174,71 162,71 169,200  "
           id="polyline4859" /><line
           style="fill:none;stroke:#000000;stroke-width:5;display:inline"
           class="st2"
           x1="126"
           y1="71"
           x2="162"
           y2="71"
           id="line4861" /></g><g
         id="Flare_x5F_stack-42"><line
           style="fill:none;stroke:#000000;stroke-width:5;stroke-linecap:round"
           class="st9"
           x1="156.5"
           y1="200.00101"
           x2="181.5"
           y2="200.00101"
           id="line4864" /><line
           style="fill:none;stroke:#000000;stroke-width:5;stroke-linecap:round"
           class="st9"
           x1="106.5"
           y1="200.00101"
           x2="131.5"
           y2="200.00101"
           id="line4866" /><path
           style="fill:none;stroke:#000000;stroke-width:3"
           inkscape:connector-curvature="0"
           class="st8"
           d="M 157.569,26.465 C 145.004,55.267 168.625,66.292 154,84.917 148.247,92.243 138.125,95 132.5,84.25 c -14.033,-26.818 31.25,-63 31.25,-63"
           id="path4868" /><circle
           d="m 156.5,200 c 0,6.90356 -5.59644,12.5 -12.5,12.5 -6.90356,0 -12.5,-5.59644 -12.5,-12.5 0,-6.90356 5.59644,-12.5 12.5,-12.5 6.90356,0 12.5,5.59644 12.5,12.5 z"
           style="fill:none;stroke:#000000;stroke-width:5;stroke-linecap:round"
           sodipodi:ry="12.5"
           sodipodi:rx="12.5"
           sodipodi:cy="200"
           sodipodi:cx="144"
           class="st9"
           cx="144"
           cy="200"
           r="12.5"
           id="circle4870" /><rect
           clip-path="url(#SVGID_2_)"
           style="fill:url(#SVGID_3_);stroke:#000000;stroke-width:5"
           x="136.5"
           y="87.5"
           class="st0"
           width="15"
           height="100"
           id="rect4872" /></g><g
         style="display:none"
         id="Flagstaff-7"
         class="st11"><line
           style="fill:none;stroke:#000000;stroke-width:5;display:inline"
           class="st2"
           x1="156.5"
           y1="200.00101"
           x2="181.5"
           y2="200.00101"
           id="line4875" /><line
           style="fill:none;stroke:#000000;stroke-width:5;display:inline"
           class="st2"
           x1="106.5"
           y1="200.00101"
           x2="131.5"
           y2="200.00101"
           id="line4877" /><circle
           d="m 156.5,200 c 0,6.90356 -5.59644,12.5 -12.5,12.5 -6.90356,0 -12.5,-5.59644 -12.5,-12.5 0,-6.90356 5.59644,-12.5 12.5,-12.5 6.90356,0 12.5,5.59644 12.5,12.5 z"
           style="fill:none;stroke:#000000;stroke-width:5;display:inline"
           sodipodi:ry="12.5"
           sodipodi:rx="12.5"
           sodipodi:cy="200"
           sodipodi:cx="144"
           class="st2"
           cx="144"
           cy="200"
           r="12.5"
           id="circle4879" /><line
           style="fill:none;stroke:#000000;stroke-width:5;display:inline"
           class="st2"
           x1="144"
           y1="187.5"
           x2="144"
           y2="25"
           id="line4881" /><polyline
           style="fill:none;stroke:#000000;stroke-width:5;display:inline"
           class="st2"
           points="144,40 186,40 186,82 144,82  "
           id="polyline4883" /></g><g
         style="display:none"
         id="Dish_x5F_aerial-7"
         class="st11"><line
           style="fill:none;stroke:#000000;stroke-width:5;display:inline"
           class="st2"
           x1="156.5"
           y1="200.00101"
           x2="181.5"
           y2="200.00101"
           id="line4886" /><line
           style="fill:none;stroke:#000000;stroke-width:5;display:inline"
           class="st2"
           x1="106.5"
           y1="200.00101"
           x2="131.5"
           y2="200.00101"
           id="line4888" /><circle
           d="m 156.5,200 c 0,6.90356 -5.59644,12.5 -12.5,12.5 -6.90356,0 -12.5,-5.59644 -12.5,-12.5 0,-6.90356 5.59644,-12.5 12.5,-12.5 6.90356,0 12.5,5.59644 12.5,12.5 z"
           style="fill:none;stroke:#000000;stroke-width:5;display:inline"
           sodipodi:ry="12.5"
           sodipodi:rx="12.5"
           sodipodi:cy="200"
           sodipodi:cx="144"
           class="st2"
           cx="144"
           cy="200"
           r="12.5"
           id="circle4890" /><path
           style="fill:none;stroke:#000000;stroke-width:5;display:inline"
           inkscape:connector-curvature="0"
           class="st2"
           d="m 140.012,42.636 c -22.984,13.27 -29.292,45.37 -14.092,71.698 15.2,26.328 46.154,36.914 69.138,23.644 L 140.012,42.636 z"
           id="path4892" /><polygon
           style="stroke:#000000;stroke-width:5;display:inline"
           class="st6"
           points="146,137 151,187 137,187 142,137 "
           id="polygon4894" /><polygon
           style="stroke:#000000;stroke-width:2;display:inline"
           class="st5"
           points="175.894,82.851 169.693,89.12 168.03,86.21 "
           id="polygon4896" /></g><g
         style="display:none"
         id="Tower-9"
         class="st11"><line
           style="fill:none;stroke:#000000;stroke-width:5;display:inline"
           class="st2"
           x1="128"
           y1="71"
           x2="160"
           y2="71"
           id="line4899" /><circle
           d="m 156.5,200.00101 c 0,6.90356 -5.59644,12.5 -12.5,12.5 -6.90356,0 -12.5,-5.59644 -12.5,-12.5 0,-6.90356 5.59644,-12.5 12.5,-12.5 6.90356,0 12.5,5.59644 12.5,12.5 z"
           style="fill:none;stroke:#000000;stroke-width:5;display:inline"
           sodipodi:ry="12.5"
           sodipodi:rx="12.5"
           sodipodi:cy="200.00101"
           sodipodi:cx="144"
           class="st2"
           cx="144"
           cy="200.00101"
           r="12.5"
           id="circle4901" /><line
           style="fill:none;stroke:#000000;stroke-width:5;display:inline"
           class="st2"
           x1="156.5"
           y1="200.00101"
           x2="181.5"
           y2="200.00101"
           id="line4903" /><line
           style="fill:none;stroke:#000000;stroke-width:5;display:inline"
           class="st2"
           x1="106.5"
           y1="200.00101"
           x2="131.5"
           y2="200.00101"
           id="line4905" /><polyline
           style="fill:none;stroke:#000000;stroke-width:5;display:inline"
           class="st2"
           points="119,200 128,71 128,32 160,32 160,71 169,200.001  "
           id="polyline4907" /></g></g><rect
       y="8.0566015"
       x="142"
       height="99"
       width="16"
       id="rect4932"
       style="fill:none;stroke:#000000;stroke-width:5;stroke-miterlimit:4;stroke-opacity:1;stroke-dasharray:none" /><path
       inkscape:connector-curvature="0"
       id="path5702"
       d="M 141,24 158.77106,6.469094"
       style="fill:none;stroke:#000000;stroke-width:2;stroke-linecap:round;stroke-linejoin:miter;stroke-miterlimit:4;stroke-opacity:1;stroke-dasharray:none" /><path
       inkscape:connector-curvature="0"
       id="path5702-6"
       d="M 141,34 158.77106,16.469094"
       style="fill:none;stroke:#000000;stroke-width:2;stroke-linecap:round;stroke-linejoin:miter;stroke-miterlimit:4;stroke-opacity:1;stroke-dasharray:none" /><path
       inkscape:connector-curvature="0"
       id="path5702-9"
       d="M 141,44 158.77106,26.469093"
       style="fill:none;stroke:#000000;stroke-width:2;stroke-linecap:round;stroke-linejoin:miter;stroke-miterlimit:4;stroke-opacity:1;stroke-dasharray:none" /><path
       inkscape:connector-curvature="0"
       id="path5702-0"
       d="M 141,54 158.77106,36.469094"
       style="fill:none;stroke:#000000;stroke-width:2;stroke-linecap:round;stroke-linejoin:miter;stroke-miterlimit:4;stroke-opacity:1;stroke-dasharray:none" /><path
       inkscape:connector-curvature="0"
       id="path5702-92"
       d="M 141,64 158.77106,46.469094"
       style="fill:none;stroke:#000000;stroke-width:2;stroke-linecap:round;stroke-linejoin:miter;stroke-miterlimit:4;stroke-opacity:1;stroke-dasharray:none" /><path
       inkscape:connector-curvature="0"
       id="path5702-4"
       d="M 141,74 158.77106,56.469094"
       style="fill:none;stroke:#000000;stroke-width:2;stroke-linecap:round;stroke-linejoin:miter;stroke-miterlimit:4;stroke-opacity:1;stroke-dasharray:none" /><path
       inkscape:connector-curvature="0"
       id="path5702-93"
       d="M 141,84 158.77106,66.46909"
       style="fill:none;stroke:#000000;stroke-width:2;stroke-linecap:round;stroke-linejoin:miter;stroke-miterlimit:4;stroke-opacity:1;stroke-dasharray:none" /><path
       inkscape:connector-curvature="0"
       id="path5702-98"
       d="M 141,94 158.77106,76.469094"
       style="fill:none;stroke:#000000;stroke-width:2;stroke-linecap:round;stroke-linejoin:miter;stroke-miterlimit:4;stroke-opacity:1;stroke-dasharray:none" /><path
       inkscape:connector-curvature="0"
       id="path5702-1"
       d="M 141,104 158.77106,86.469098"
       style="fill:none;stroke:#000000;stroke-width:2;stroke-linecap:round;stroke-linejoin:miter;stroke-miterlimit:4;stroke-opacity:1;stroke-dasharray:none" /><path
       inkscape:connector-curvature="0"
       id="path5702-48"
       d="M 141,114 158.77106,96.469092"
       style="fill:none;stroke:#000000;stroke-width:2;stroke-linecap:round;stroke-linejoin:miter;stroke-miterlimit:4;stroke-opacity:1;stroke-dasharray:none" /></g></g>

</svg>