<?xml version="1.0" encoding="UTF-8" standalone="no"?>
<svg
   xmlns:dc="http://purl.org/dc/elements/1.1/"
   xmlns:cc="http://creativecommons.org/ns#"
   xmlns:rdf="http://www.w3.org/1999/02/22-rdf-syntax-ns#"
   xmlns:svg="http://www.w3.org/2000/svg"
   xmlns="http://www.w3.org/2000/svg"
   xmlns:sodipodi="http://sodipodi.sourceforge.net/DTD/sodipodi-0.dtd"
   xmlns:inkscape="http://www.inkscape.org/namespaces/inkscape"
   version="1.0"
   width="300"
   height="400"
   id="svg2"
   inkscape:version="0.48.2 r9819"
   sodipodi:docname="Float_Red_Green_Red_Green.svg"
   style="display:inline">
  <metadata
     id="metadata2913">
    <rdf:RDF>
      <cc:Work
         rdf:about="">
        <dc:format>image/svg+xml</dc:format>
        <dc:type
           rdf:resource="http://purl.org/dc/dcmitype/StillImage" />
        <dc:title />
      </cc:Work>
    </rdf:RDF>
  </metadata>
  <sodipodi:namedview
     pagecolor="#ffffff"
     bordercolor="#666666"
     borderopacity="1"
     objecttolerance="10"
     gridtolerance="10"
     guidetolerance="10"
     inkscape:pageopacity="0"
     inkscape:pageshadow="2"
     inkscape:window-width="1920"
     inkscape:window-height="1088"
     id="namedview2911"
     showgrid="true"
     inkscape:zoom="5.6843752"
     inkscape:cx="89.152553"
     inkscape:cy="185.78997"
     inkscape:window-x="0"
     inkscape:window-y="0"
     inkscape:window-maximized="1"
     inkscape:current-layer="g3666"
     inkscape:snap-grids="false">
    <inkscape:grid
       type="xygrid"
       id="grid2919"
       empspacing="5"
       visible="true"
       enabled="true"
       snapvisiblegridlinesonly="true" />
  </sodipodi:namedview>
  <defs
     id="defs4" />
  <g
     transform="translate(0,80)"
     style="display:inline"
     inkscape:label="Minor Float 4 Band"
     id="g3666"
     inkscape:groupmode="layer">
    <path
       sodipodi:nodetypes="cccccsccccccccccccccsssc"
       id="path3668"
       d="m 141.45124,110.98459 c -1.70454,1.6489 -2.9247,3.83867 -3.47801,6.22378 l -41.906442,-0.022 0.0289,5.63426 41.833532,0.044 c 1.28732,5.53295 6.25526,9.7442 12.17824,9.74421 5.92495,0 10.89294,-4.20848 12.17824,-9.74421 l 41.75945,-0.0312 -0.044,-5.63426 -41.73746,0.009 c -0.58668,-2.52896 -1.82216,-4.51083 -3.68811,-6.19717 l -1.52406,-1.27363 -1.8821,-1.21102 -2.30232,-0.71488 -2.90982,-0.29604 -2.86401,0.2853 -2.17355,0.6878 -1.91144,1.18458 -1.55709,1.31128 z m 8.65625,1.62424 c 4.14,0 7.5,3.36 7.5,7.5 0,4.14 -3.36,7.5 -7.5,7.5 -4.14,0 -7.5,-3.36 -7.5,-7.5 0,-4.14 3.36,-7.5 7.5,-7.5 z"
       style="fill:#000407;fill-opacity:1;fill-rule:evenodd;stroke:none;display:inline"
       inkscape:connector-curvature="0" />
    <path
       sodipodi:nodetypes="cccccc"
       id="path3670"
       d="m 138.21654,77.27517 23.9441,0 5.82689,16.563385 -35.95865,0.0214 6.18766,-16.584765 0,-4e-5 z"
       style="fill:none;stroke:#000000;stroke-width:4.23707008;stroke-linecap:butt;stroke-linejoin:miter;stroke-miterlimit:4;stroke-opacity:1;stroke-dasharray:none"
       inkscape:connector-curvature="0" />
    <path
       sodipodi:nodetypes="cccccc"
       id="path3672"
       d="m 113.83449,119.99336 -11.78669,-35.00824 15.95726,8.997725 64.12315,0.0364 15.8844,-9.034175 -11.96262,35.00826"
       style="fill:none;stroke:#000000;stroke-width:4;stroke-linecap:butt;stroke-linejoin:miter;stroke-miterlimit:4;stroke-opacity:1;stroke-dasharray:none"
       inkscape:connector-curvature="0" />
    <rect
       style="fill:#000000;fill-opacity:1;stroke:none"
       id="rect3674"
       width="81.602997"
       height="0.93296117"
       x="109.40524"
       y="103.05543" />
    <rect
       y="84.935547"
       x="135.44153"
       height="0.93300003"
       width="28"
       id="rect3123"
       style="fill:#000000;fill-opacity:1;stroke:none" />
    <path
       style="fill:#d40000;fill-opacity:1;stroke:#a30075;stroke-width:0;stroke-miterlimit:4;stroke-opacity:1;stroke-dasharray:none"
       d="m 137.88115,164.64434 c -8.1e-4,-0.0726 0.4148,-1.25984 0.92358,-2.63837 l 0.92506,-2.50643 10.44971,0.0435 10.44971,0.0435 0.8438,2.37493 c 0.46409,1.30622 0.84804,2.47389 0.85321,2.59484 0.007,0.1739 -2.54817,0.2199 -12.2171,0.2199 -6.72457,0 -12.22716,-0.0594 -12.22797,-0.13194 z"
       id="path3905"
       inkscape:connector-curvature="0"
       transform="translate(0,-80)" />
    <path
       style="fill:#d40000;fill-opacity:1;stroke:#a30075;stroke-width:0;stroke-miterlimit:4;stroke-opacity:1;stroke-dasharray:none"
       d="m 108.08775,176.34307 c -1.2231,-3.60418 -2.22357,-6.60644 -2.22327,-6.6717 3e-4,-0.0653 2.58506,1.33991 5.7439,3.12259 l 5.74334,3.24125 32.74611,0 32.74611,0 5.44677,-3.10099 c 2.99573,-1.70555 5.54561,-3.13893 5.66641,-3.1853 0.12079,-0.0464 -0.7896,2.89227 -2.02309,6.53029 l -2.24272,6.61458 -39.68987,0.001 -39.68988,0.001 -2.22381,-6.55305 z"
       id="path3907"
       inkscape:connector-curvature="0"
       transform="translate(0,-80)" />
    <path
       style="fill:#00d400;fill-opacity:1;stroke:#a30075;stroke-width:0;stroke-miterlimit:4;stroke-opacity:1;stroke-dasharray:none"
       d="m 135.24492,171.59321 c 6.2e-4,-0.0242 0.46439,-1.27103 1.03061,-2.77075 l 1.02949,-2.72678 12.80249,0 12.8025,0 0.94012,2.63882 c 0.51706,1.45134 0.94197,2.69818 0.94425,2.77075 0.002,0.0726 -6.64568,0.13194 -14.77322,0.13194 -8.12754,0 -14.77685,-0.0198 -14.77624,-0.044 z"
       id="path3909"
       inkscape:connector-curvature="0"
       transform="translate(0,-80)" />
    <path
       style="fill:#00d400;fill-opacity:1;stroke:#a30075;stroke-width:0;stroke-miterlimit:4;stroke-opacity:1;stroke-dasharray:none"
       d="m 112.92108,190.7198 c -1.19888,-3.53398 -2.14208,-6.46313 -2.096,-6.50922 0.0461,-0.0461 17.70107,-0.0638 39.23329,-0.0394 l 39.1495,0.0444 -2.19876,6.46509 -2.19876,6.46509 -11.22323,0 -11.22323,0 -0.30234,-0.92358 c -0.70757,-2.16144 -1.88737,-3.93256 -3.62469,-5.44136 -1.6653,-1.44627 -3.07376,-2.30678 -4.54544,-2.7771 -1.13992,-0.36429 -1.66642,-0.42192 -3.87026,-0.42366 -2.16727,-0.002 -2.7483,0.0588 -3.86388,0.40247 -3.56186,1.09725 -6.72963,4.35974 -8.00043,8.23965 l -0.3025,0.92358 -11.37674,-2.4e-4 -11.37673,-2.4e-4 -2.1798,-6.42543 z"
       id="path3911"
       inkscape:connector-curvature="0"
       transform="translate(0,-80)" />
  </g>
</svg>
