<svg
   xmlns:svg="http://www.w3.org/2000/svg"
   xmlns="http://www.w3.org/2000/svg"
   version="1.0"
   width="300"
   height="400">
  <g id="float" width="300" height="400" transform="translate(0,80)">
    <path
       d="m 141.45,110.98 c -1.7045,1.6489 -2.9247,3.8387 -3.478,6.2238 l -41.906,-0.022 0.0289,5.6343 41.834,0.044 c 1.2873,5.533 6.2553,9.7442 12.178,9.7442 5.925,0 10.893,-4.2085 12.178,-9.7442 l 41.759,-0.0312 -0.044,-5.6343 -41.737,0.009 c -0.58668,-2.529 -1.8222,-4.5108 -3.6881,-6.1972 l -1.5241,-1.2736 -1.8821,-1.211 -2.3023,-0.71488 -2.9098,-0.29604 -2.864,0.2853 -2.1736,0.6878 -1.9114,1.1846 -1.5571,1.3113 z m 8.6562,1.6242 c 4.14,0 7.5,3.36 7.5,7.5 0,4.14 -3.36,7.5 -7.5,7.5 -4.14,0 -7.5,-3.36 -7.5,-7.5 0,-4.14 3.36,-7.5 7.5,-7.5 z"
       style="fill:#000407;fill-rule:evenodd" />
    <path
       d="m 138.22,77.275 h 23.944 l 5.8269,16.563 -35.959,0.0214 6.1877,-16.585 v -4e-5 z"
       style="fill:none;stroke:#000000;stroke-width:4.23710012" />
    <path
       d="M 113.83,119.99 102.043,84.982 118,93.9797 l 64.123,0.0364 15.884,-9.0342 -11.963,35.008"
       style="fill:none;stroke:#000000;stroke-width:4" />
  </g>
</svg>
