<?xml version="1.0" encoding="UTF-8" standalone="no"?>
<svg
   xmlns:dc="http://purl.org/dc/elements/1.1/"
   xmlns:cc="http://creativecommons.org/ns#"
   xmlns:rdf="http://www.w3.org/1999/02/22-rdf-syntax-ns#"
   xmlns:svg="http://www.w3.org/2000/svg"
   xmlns="http://www.w3.org/2000/svg"
   xmlns:sodipodi="http://sodipodi.sourceforge.net/DTD/sodipodi-0.dtd"
   xmlns:inkscape="http://www.inkscape.org/namespaces/inkscape"
   version="1.0"
   width="300"
   height="400"
   id="svg2"
   inkscape:version="0.48.2 r9819"
   sodipodi:docname="Float_Yellow.svg"
   style="display:inline">
  <metadata
     id="metadata2913">
    <rdf:RDF>
      <cc:Work
         rdf:about="">
        <dc:format>image/svg+xml</dc:format>
        <dc:type
           rdf:resource="http://purl.org/dc/dcmitype/StillImage" />
        <dc:title />
      </cc:Work>
    </rdf:RDF>
  </metadata>
  <sodipodi:namedview
     pagecolor="#ffffff"
     bordercolor="#666666"
     borderopacity="1"
     objecttolerance="10"
     gridtolerance="10"
     guidetolerance="10"
     inkscape:pageopacity="0"
     inkscape:pageshadow="2"
     inkscape:window-width="1920"
     inkscape:window-height="1088"
     id="namedview2911"
     showgrid="true"
     inkscape:zoom="2.8421876"
     inkscape:cx="122.12031"
     inkscape:cy="201.49782"
     inkscape:window-x="1440"
     inkscape:window-y="0"
     inkscape:window-maximized="0"
     inkscape:current-layer="layer1"
     inkscape:snap-grids="false">
    <inkscape:grid
       type="xygrid"
       id="grid2919"
       empspacing="5"
       visible="true"
       enabled="true"
       snapvisiblegridlinesonly="true" />
  </sodipodi:namedview>
  <defs
     id="defs4" />
  <g
     inkscape:groupmode="layer"
     id="layer1"
     inkscape:label="Minor Float"
     style="display:inline"
     transform="translate(0,80)">
    <path
       style="fill:#000407;fill-opacity:1;fill-rule:evenodd;stroke:none;display:inline"
       d="m 141.46946,110.97705 c -1.70454,1.6489 -2.9247,3.83867 -3.47801,6.22378 l -41.906445,-0.022 0.0289,5.63426 41.833535,0.044 c 1.28732,5.53295 6.25526,9.7442 12.17824,9.74421 5.92495,0 10.89294,-4.20848 12.17824,-9.74421 l 41.75945,-0.0312 -0.044,-5.63426 -41.73746,0.009 c -0.58668,-2.52896 -1.82216,-4.51083 -3.68811,-6.19717 l -1.52406,-1.27363 -1.8821,-1.21102 -2.30232,-0.71488 -2.90982,-0.29604 -2.86401,0.2853 -2.17355,0.6878 -1.91144,1.18458 -1.55709,1.31128 z m 8.65625,1.62424 c 4.14,0 7.5,3.36 7.5,7.5 0,4.14 -3.36,7.5 -7.5,7.5 -4.14,0 -7.5,-3.36 -7.5,-7.5 0,-4.14 3.36,-7.5 7.5,-7.5 z"
       id="path2520"
       sodipodi:nodetypes="cccccsccccccccccccccsssc" />
    <path
       style="fill:none;stroke:#000000;stroke-width:4.23707008;stroke-linecap:butt;stroke-linejoin:miter;stroke-miterlimit:4;stroke-opacity:1;stroke-dasharray:none"
       d="m 138.23476,77.267624 23.9441,0 5.82689,16.56338 -35.95865,0.0214 6.18766,-16.58476 0,-4e-5 z"
       id="path2864"
       sodipodi:nodetypes="cccccc" />
    <path
       style="fill:none;stroke:#000000;stroke-width:4;stroke-linecap:butt;stroke-linejoin:miter;stroke-miterlimit:4;stroke-opacity:1;stroke-dasharray:none"
       d="m 113.85271,119.98582 -11.78669,-35.008246 15.95726,8.99772 64.12315,0.0364 15.8844,-9.03417 -11.96262,35.008266"
       id="path3652"
       sodipodi:nodetypes="cccccc" />
    <path
       style="fill:#ffd400;fill-opacity:1;stroke:#000000;stroke-width:0.17592083;stroke-opacity:1"
       d="m 110.48597,103.4056 c -2.52916,-7.514376 -4.57026,-13.690696 -4.53579,-13.725176 0.0345,-0.0345 2.65945,1.4028 5.83327,3.19394 l 5.77058,3.25661 32.56342,-10e-4 32.56341,-0.001 5.71185,-3.24408 c 3.14151,-1.78425 5.73197,-3.22395 5.75658,-3.19935 0.0246,0.0246 -2.05095,6.173 -4.61234,13.663106 -2.56139,7.49009 -4.65708,13.64128 -4.65708,13.6693 0,0.028 -5.08283,0.0306 -11.29519,0.006 l -11.29519,-0.0453 -0.21309,-0.73604 c -0.47852,-1.65287 -1.31282,-3.03887 -2.73128,-4.53738 -1.65547,-1.74888 -3.53604,-3.07039 -5.1061,-3.58815 -3.28102,-1.08197 -7.66009,-0.73507 -10.23023,0.81042 -2.73561,1.64498 -4.70643,4.04355 -5.6677,6.8978 l -0.38843,1.15335 -11.43411,0.0452 -11.43411,0.0453 -4.59847,-13.6625 0,0 z"
       id="path3968" />
    <path
       style="fill:#ffd400;fill-opacity:1;stroke:#000000;stroke-width:0.17592083;stroke-opacity:1"
       d="m 135.27901,91.557034 c 0.005,-0.0484 1.01512,-2.77955 2.24495,-6.06927 l 2.23605,-5.9813 10.40304,-0.0454 10.40304,-0.0454 0.45783,1.27681 c 1.70414,4.75259 3.79043,10.75777 3.75108,10.79712 -0.0884,0.0884 -29.50492,0.15556 -29.49599,0.0674 z"
       id="path3970" />
  </g>
</svg>
