<?xml version="1.0" encoding="UTF-8" standalone="no"?>
<svg
   xmlns:dc="http://purl.org/dc/elements/1.1/"
   xmlns:cc="http://creativecommons.org/ns#"
   xmlns:rdf="http://www.w3.org/1999/02/22-rdf-syntax-ns#"
   xmlns:svg="http://www.w3.org/2000/svg"
   xmlns="http://www.w3.org/2000/svg"
   xmlns:sodipodi="http://sodipodi.sourceforge.net/DTD/sodipodi-0.dtd"
   xmlns:inkscape="http://www.inkscape.org/namespaces/inkscape"
   version="1.0"
   width="300"
   height="400"
   id="svg2"
   inkscape:version="0.48.2 r9819"
   sodipodi:docname="Float_Black_Yellow_Black.svg"
   style="display:inline">
  <metadata
     id="metadata2913">
    <rdf:RDF>
      <cc:Work
         rdf:about="">
        <dc:format>image/svg+xml</dc:format>
        <dc:type
           rdf:resource="http://purl.org/dc/dcmitype/StillImage" />
        <dc:title />
      </cc:Work>
    </rdf:RDF>
  </metadata>
  <sodipodi:namedview
     pagecolor="#ffffff"
     bordercolor="#666666"
     borderopacity="1"
     objecttolerance="10"
     gridtolerance="10"
     guidetolerance="10"
     inkscape:pageopacity="0"
     inkscape:pageshadow="2"
     inkscape:window-width="1920"
     inkscape:window-height="1088"
     id="namedview2911"
     showgrid="true"
     inkscape:zoom="2.8421875"
     inkscape:cx="124.28708"
     inkscape:cy="203.38205"
     inkscape:window-x="1440"
     inkscape:window-y="0"
     inkscape:window-maximized="0"
     inkscape:current-layer="g3666"
     inkscape:snap-grids="false">
    <inkscape:grid
       type="xygrid"
       id="grid2919"
       empspacing="5"
       visible="true"
       enabled="true"
       snapvisiblegridlinesonly="true" />
  </sodipodi:namedview>
  <defs
     id="defs4" />
  <g
     transform="translate(0,80)"
     style="display:inline"
     inkscape:label="Minor Float 3 Band"
     id="g3666"
     inkscape:groupmode="layer">
    <path
       sodipodi:nodetypes="cccccsccccccccccccccsssc"
       id="path3668"
       d="m 141.45177,111.02232 c -1.70454,1.6489 -2.9247,3.83867 -3.47801,6.22378 l -41.906437,-0.022 0.0289,5.63426 41.833527,0.044 c 1.28732,5.53295 6.25526,9.7442 12.17824,9.74421 5.92495,0 10.89294,-4.20848 12.17824,-9.74421 l 41.75945,-0.0312 -0.044,-5.63426 -41.73746,0.009 c -0.58668,-2.52896 -1.82216,-4.51083 -3.68811,-6.19717 l -1.52406,-1.27363 -1.8821,-1.21102 -2.30232,-0.71488 -2.90982,-0.29604 -2.86401,0.2853 -2.17355,0.6878 -1.91144,1.18458 -1.55709,1.31128 z m 8.65625,1.62424 c 4.14,0 7.5,3.36 7.5,7.5 0,4.14 -3.36,7.5 -7.5,7.5 -4.14,0 -7.5,-3.36 -7.5,-7.5 0,-4.14 3.36,-7.5 7.5,-7.5 z"
       style="fill:#000407;fill-opacity:1;fill-rule:evenodd;stroke:none;display:inline" />
    <path
       sodipodi:nodetypes="cccccc"
       id="path3670"
       d="m 138.21707,77.312898 23.9441,0 5.82689,16.56338 -35.95865,0.0214 6.18766,-16.58476 0,-4e-5 z"
       style="fill:none;stroke:#000000;stroke-width:4.23707008;stroke-linecap:butt;stroke-linejoin:miter;stroke-miterlimit:4;stroke-opacity:1;stroke-dasharray:none" />
    <path
       sodipodi:nodetypes="cccccc"
       id="path3672"
       d="m 113.83502,120.03109 -11.78669,-35.008242 15.95726,8.99772 64.12315,0.0364 15.8844,-9.03417 -11.96262,35.008262"
       style="fill:none;stroke:#000000;stroke-width:4;stroke-linecap:butt;stroke-linejoin:miter;stroke-miterlimit:4;stroke-opacity:1;stroke-dasharray:none" />
    <rect
       style="fill:#000000;fill-opacity:1;stroke:none"
       id="rect3674"
       width="81.602997"
       height="0.93296117"
       x="109.40577"
       y="103.09315" />
    <path
       style="fill:#000000;fill-opacity:1;stroke:none"
       d="m 115.00231,116.86058 c -0.41483,-1.10308 -4.09686,-12.27776 -4.09686,-12.43365 0,-0.10584 17.57699,-0.19243 39.05997,-0.19243 21.48299,0 39.05998,0.0944 39.05998,0.20983 0,0.17674 -1.94048,5.97522 -3.78047,11.29669 l -0.49464,1.43054 -11.1805,0 c -8.73099,0 -11.20004,-0.0681 -11.26967,-0.31098 -1.01156,-3.52805 -3.95807,-6.93914 -7.28899,-8.43828 -2.81854,-1.26854 -7.73709,-1.1622 -10.50393,0.22708 -2.15612,1.08263 -4.32905,3.27983 -5.44133,5.5021 -0.52381,1.04653 -1.01811,2.15417 -1.09846,2.46143 l -0.14609,0.55865 -11.35103,0 c -8.85259,0 -11.37677,-0.0684 -11.46798,-0.31098 z"
       id="path3909" />
    <path
       style="fill:#000000;fill-opacity:1;stroke:none"
       d="m 135.66108,90.613268 c 0.20362,-0.51313 1.19952,-3.17207 2.21311,-5.90875 l 1.84289,-4.97579 10.43258,-0.0649 10.43258,-0.0649 2.03089,5.79604 c 1.11698,3.18781 2.03088,5.87594 2.03088,5.97362 0,0.0977 -6.60446,0.17758 -14.67657,0.17758 l -14.67657,0 0.37021,-0.93296 z"
       id="path3911" />
    <path
       style="fill:#ffd400;fill-opacity:1;stroke:none"
       d="m 110.28164,102.67957 c -1.21854,-3.425852 -4.30684,-12.754152 -4.24346,-12.817522 0.0474,-0.0474 2.5893,1.3468 5.64876,3.09815 l 5.56265,3.18426 32.71583,0.0674 32.71584,0.0674 5.5945,-3.21979 c 3.07697,-1.77088 5.63377,-3.18052 5.68177,-3.13252 0.048,0.048 -0.90215,3.00571 -2.11145,6.57268 l -2.19871,6.485402 -39.62756,0.003 c -31.47921,0.002 -39.6503,-0.0612 -39.73817,-0.3082 z"
       id="path3913" />
  </g>
</svg>
