<?xml version="1.0" encoding="UTF-8" standalone="no"?>
<!-- Generator: Adobe Illustrator 13.0.2, SVG Export Plug-In . SVG Version: 6.00 Build 14948)  -->

<svg
   xmlns:dc="http://purl.org/dc/elements/1.1/"
   xmlns:cc="http://creativecommons.org/ns#"
   xmlns:rdf="http://www.w3.org/1999/02/22-rdf-syntax-ns#"
   xmlns:svg="http://www.w3.org/2000/svg"
   xmlns="http://www.w3.org/2000/svg"
   xmlns:sodipodi="http://sodipodi.sourceforge.net/DTD/sodipodi-0.dtd"
   xmlns:inkscape="http://www.inkscape.org/namespaces/inkscape"
   version="1.0"
   id="Layer_1"
   x="0px"
   y="0px"
   width="60"
   height="60"
   viewBox="-0.258 -0.548 74.1282 74.124"
   xml:space="preserve"
   sodipodi:version="0.32"
   inkscape:version="0.48.1 r9760"
   sodipodi:docname="Fuel.svg"
   inkscape:output_extension="org.inkscape.output.svg.inkscape"
   inkscape:export-filename="/Users/mherring/Desktop/try.png"
   inkscape:export-xdpi="90"
   inkscape:export-ydpi="90"><metadata
   id="metadata14"><rdf:RDF><cc:Work
       rdf:about=""><dc:format>image/svg+xml</dc:format><dc:type
         rdf:resource="http://purl.org/dc/dcmitype/StillImage" /><dc:title /></cc:Work></rdf:RDF></metadata><defs
   id="defs12"><inkscape:perspective
     sodipodi:type="inkscape:persp3d"
     inkscape:vp_x="0 : 61.769501 : 1"
     inkscape:vp_y="0 : 1000 : 0"
     inkscape:vp_z="123.547 : 61.769501 : 1"
     inkscape:persp3d-origin="61.773499 : 41.179667 : 1"
     id="perspective16" /></defs><sodipodi:namedview
   inkscape:window-height="1088"
   inkscape:window-width="1920"
   inkscape:pageshadow="2"
   inkscape:pageopacity="0.0"
   guidetolerance="1"
   gridtolerance="1"
   objecttolerance="1"
   borderopacity="1.0"
   bordercolor="#666666"
   pagecolor="#ffffff"
   id="base"
   showgrid="true"
   inkscape:zoom="11.833333"
   inkscape:cx="15.042253"
   inkscape:cy="33.506034"
   inkscape:window-x="0"
   inkscape:window-y="0"
   inkscape:current-layer="Layer_1"
   inkscape:window-maximized="1"><inkscape:grid
     type="xygrid"
     id="grid2986"
     empspacing="5"
     visible="true"
     enabled="true"
     snapvisiblegridlinesonly="true" /></sodipodi:namedview>
<g
   id="g3"
   transform="matrix(0.62538549,0,0,0.62518118,-1.623476,-5.7363138)">
	
	<path
   style="fill:#ffffff;fill-opacity:0;stroke:none"
   d="m 11.90625,2.46875 c -5.4582305,0 -9.875,4.4488262 -9.875,9.90625 l 0,75.84375 c 0,5.463878 4.4167695,9.90625 9.875,9.90625 l 75.84375,0 c 5.463878,0 9.90625,-4.442372 9.90625,-9.90625 l 0,-75.84375 c 0,-5.4582305 -4.441566,-9.90625 -9.90625,-9.90625 l -75.84375,0 z"
   transform="matrix(1.2395959,0,0,1.2395959,0.29600001,-1.3333921)"
   id="path7"
   inkscape:connector-curvature="0" />
	<path
   style="fill:#a30075;fill-opacity:1;stroke:none"
   d="m 68.234076,49.292144 c 0,1.195 -0.945,2.125 -2.148,2.125 l -22.477,0 c -1.211,0 -2.148,-0.93 -2.148,-2.125 l 0,-18.954 c 0,-1.195 0.938,-2.125 2.148,-2.125 l 22.477,0 c 1.203,0 2.148,0.93 2.148,2.125 l 0,18.954 z m 26.203,2.421 c -2.844,-0.625 -3.875,-2.086 -3.875,-3.43 l 0,-4.898 c 0,0 1.891,0.422 2.344,0.539 0.922,0.242 1.508,1.656 1.531,2.891 0.031,1.234 0,4.898 0,4.898 z m 5.726004,29.758 c 0,-0.047 -0.789004,-6.016 -0.789004,-6.016 l 0,-27.562 c 0,-2.953 -0.969,-5.352 -2.969,-7.367 l -12.765,-12.703 c -0.883,0 -3.32,2.43 -3.32,2.43 0,0.883 6.336,7.172 6.336,7.172 l -0.188,10.695 c 0,3.797 3.086,6.875 6.898,6.875 l 1.711,0.023 -0.609,20.438 0.852,7.008 3.836,20.680006 c 0.141,3.359 -2.93,5.359 -5.352,5.359 -2.242,0 -4.844,-1.852 -4.844,-4.242 l 0.047,-36.242006 c 0,-4.406 -3.578,-7.984 -7.984,-7.984 0,0 -7.664,0 -7.703,0 0.539,-0.031 0.562,-23.734 0.562,-28.766 0,-0.594 0,-0.93 0,-0.93 0,-4.289 -3.5,-7.781 -7.797,-7.781 l -22.476,0 c -4.297,0 -7.797,3.492 -7.797,7.781 l 0,82.148006 38.07,0.633 0.039,-47.992006 7.188,0 c 1.648,0 2.992,1.344 2.992,2.992 l 0,36.141006 c 0,4.852 4.531,9.102 9.703,9.102 4.883,0 10.352004,-3.883 10.352004,-9.102 -0.086,-1.204 -3.993,-22.790006 -3.993,-22.790006 z"
   id="path9"
   inkscape:connector-curvature="0" />
</g>
<rect
   style="fill:none;stroke:#a30075;stroke-width:2.47094011;stroke-miterlimit:4;stroke-opacity:1;stroke-dasharray:none"
   id="rect3755"
   width="71.657257"
   height="71.657257"
   x="0.97747004"
   y="0.68536985"
   rx="20"
   ry="20"
   inkscape:export-filename="/Users/mherring/Desktop/try.png"
   inkscape:export-xdpi="90"
   inkscape:export-ydpi="90" /><path
   style="fill:#ffffff;fill-opacity:0.50196078;stroke:none"
   d="M 15.067605,57.797934 C 11.63599,57.273274 8.7064171,55.779004 6.3575278,53.355237 4.0827543,51.007947 2.7902323,48.407112 2.2057769,45.001009 2.0632562,44.170424 2.0535203,43.211264 2.0535203,30.001008 c 0,-15.412313 -0.023769,-14.582866 0.4746505,-16.56338 C 3.8612294,8.1406 8.1192278,3.879682 13.419718,2.5386126 c 1.903983,-0.4817241 1.388538,-0.4672598 16.61648,-0.4662874 13.425304,8.573e-4 14.061938,0.00779 15.073662,0.1640299 5.616819,0.8674291 10.282322,4.8147537 12.075957,10.2170599 0.336217,1.01266 0.569574,2.166817 0.685957,3.392663 0.06374,0.671342 0.08353,5.244011 0.06401,14.788733 -0.03077,15.044642 -0.0064,14.256351 -0.496968,16.056339 -1.457544,5.347689 -5.533706,9.389646 -10.855615,10.764518 -1.896056,0.489832 -1.388592,0.475645 -16.695452,0.466733 -11.477882,-0.0067 -14.199236,-0.02954 -14.820141,-0.124467 l 0,0 z m 32.542821,-4.768693 c 2.257604,-0.570611 3.855282,-2.214502 3.983434,-4.098655 0.04461,-0.655822 -0.08184,-1.462255 -1.245535,-7.943662 -1.157188,-6.445162 -1.09762,-5.67669 -1.09762,-14.160251 0,-8.072532 0.0013,-8.051906 -0.55898,-9.205947 C 48.402334,17.0246 48.171264,16.773423 44.804601,13.395374 L 41.225157,9.8038247 40.864691,9.9956666 c -0.451152,0.2401054 -1.332296,1.0087914 -1.332296,1.1622574 0,0.179071 0.890621,1.241547 2.081886,2.483611 l 1.087128,1.133484 -0.03052,2.978388 c -0.03394,3.31205 -0.01799,3.439405 0.539167,4.303939 0.662212,1.027545 1.554368,1.505039 3.019526,1.616092 l 0.739437,0.05605 -0.0075,0.600551 c -0.0041,0.330303 -0.07068,2.635058 -0.147887,5.121678 l -0.140372,4.521126 0.226184,1.859155 c 0.132874,1.092177 0.616456,3.950916 1.172204,6.929578 0.520311,2.788733 0.940559,5.255503 0.933886,5.481713 -0.01732,0.587032 -0.297022,1.167321 -0.780752,1.619793 -0.795479,0.744077 -1.740555,0.968559 -2.643252,0.627845 -0.570548,-0.215348 -1.168749,-0.724361 -1.412277,-1.201713 -0.16162,-0.316802 -0.166253,-0.572556 -0.183018,-10.102391 l -0.0172,-9.77736 -0.185552,-0.485808 c -0.535858,-1.40297 -1.700375,-2.423847 -3.058742,-2.681456 -0.250157,-0.04744 -1.404413,-0.08626 -2.565014,-0.08626 -1.912599,0 -2.105252,-0.01285 -2.05752,-0.137238 0.09329,-0.243106 0.216165,-6.453888 0.216306,-10.933185 8.5e-5,-3.594143 -0.02218,-4.446783 -0.127988,-4.89569 -0.325205,-1.3796961 -1.41594,-2.4769894 -2.869377,-2.8866303 -0.3465,-0.097658 -1.563068,-0.1189788 -6.760564,-0.1184792 l -6.338028,6.085e-4 -0.50022,0.1899016 c -1.455834,0.5526874 -2.435186,1.7093825 -2.664429,3.1469094 -0.05872,0.36824 -0.08781,7.42245 -0.08823,21.401409 l -6.38e-4,20.852113 0.570422,-2.54e-4 c 0.894062,-3.38e-4 15.340431,0.241732 17.15493,0.287471 l 1.626761,0.04104 0,-12.164126 0,-12.164128 1.838028,5.07e-4 c 1.010916,2.54e-4 1.979453,0.03975 2.152306,0.08776 0.342698,0.09518 0.770386,0.416858 0.934106,0.702579 0.07963,0.138961 0.113698,2.449056 0.146633,9.941589 l 0.0429,9.760564 0.188242,0.555391 c 0.819053,2.416527 3.477225,3.839604 5.987079,3.205236 l 0,-3.6e-5 z"
   id="path3816"
   inkscape:connector-curvature="0"
   transform="matrix(1.23547,0,0,1.23547,-0.258,-0.5501)" /><path
   style="fill:#ffffff;fill-opacity:0.50196078;stroke:none"
   d="m 20.439955,21.619286 c -0.513558,-0.318725 -0.496323,-0.122064 -0.495977,-5.659486 3.07e-4,-4.923518 0.0048,-5.064788 0.170864,-5.337117 0.32705,-0.536426 0.15991,-0.523084 6.552771,-0.523084 6.420093,0 6.211974,-0.01723 6.553316,0.542533 0.150613,0.246988 0.158737,0.518642 0.159037,5.317668 3.38e-4,5.555669 0.01877,5.351152 -0.510092,5.663557 -0.210771,0.124505 -0.827832,0.137991 -6.220941,0.135966 -5.385097,-0.002 -6.009281,-0.0161 -6.208978,-0.140037 l 0,0 z"
   id="path4326"
   inkscape:connector-curvature="0"
   transform="matrix(1.23547,0,0,1.23547,-0.258,-0.5501)" /><path
   style="fill:#ffffff;fill-opacity:0.50196078;stroke:none"
   d="m 46.225808,21.785734 c -0.559221,-0.189919 -1.077326,-0.579868 -1.268606,-0.954808 -0.147386,-0.2889 -0.168469,-0.498446 -0.168469,-1.674393 l 0,-1.344166 0.528169,0.117721 c 0.716233,0.159639 0.854122,0.242013 1.087814,0.649855 0.18033,0.314712 0.203792,0.471874 0.228963,1.533741 0.01543,0.650704 0.01543,1.322136 0,1.492071 l -0.02804,0.308973 -0.379826,-0.128994 z"
   id="path4328"
   inkscape:connector-curvature="0"
   transform="matrix(1.23547,0,0,1.23547,-0.258,-0.5501)" /></svg>