<?xml version="1.0" encoding="UTF-8" standalone="no"?>
<!-- Created with Inkscape (http://www.inkscape.org/) -->
<svg id="svg2" xmlns:rdf="http://www.w3.org/1999/02/22-rdf-syntax-ns#" xmlns="http://www.w3.org/2000/svg" height="400" width="300" version="1.1" xmlns:cc="http://creativecommons.org/ns#" xmlns:dc="http://purl.org/dc/elements/1.1/">
 <metadata id="metadata7">
  <rdf:RDF>
   <cc:Work rdf:about="">
    <dc:format>image/svg+xml</dc:format>
    <dc:type rdf:resource="http://purl.org/dc/dcmitype/StillImage"/>
    <dc:title/>
   </cc:Work>
  </rdf:RDF>
 </metadata>
 <g id="layer5">
  <g id="g3750" transform="matrix(.80941 0 0 .80941 120.06 170.33)">
   <g id="g3" transform="matrix(.62539 0 0 .62518 -1.6235 -5.7363)">
    <path id="path7" d="m11.906 2.4688c-5.4582 0-9.875 4.4488-9.875 9.9062v75.844c0 5.4639 4.4168 9.9062 9.875 9.9062h75.844c5.4639 0 9.9062-4.4424 9.9062-9.9062v-75.844c0-5.4582-4.4416-9.9062-9.9062-9.9062h-75.844z" fill-opacity="0" transform="matrix(1.2396 0 0 1.2396 0.296 -1.3334)"/>
    <path id="path9" d="m68.234 49.292c0 1.195-0.945 2.125-2.148 2.125h-22.477c-1.211 0-2.148-0.93-2.148-2.125v-18.954c0-1.195 0.938-2.125 2.148-2.125h22.477c1.203 0 2.148 0.93 2.148 2.125v18.954zm26.203 2.421c-2.844-0.625-3.875-2.086-3.875-3.43v-4.898s1.891 0.422 2.344 0.539c0.922 0.242 1.508 1.656 1.531 2.891 0.031 1.234 0 4.898 0 4.898zm5.726 29.758c0-0.047-0.789-6.016-0.789-6.016v-27.562c0-2.953-0.969-5.352-2.969-7.367l-12.765-12.703c-0.883 0-3.32 2.43-3.32 2.43 0 0.883 6.336 7.172 6.336 7.172l-0.188 10.695c0 3.797 3.086 6.875 6.898 6.875l1.711 0.023-0.609 20.438 0.852 7.008 3.836 20.68c0.141 3.359-2.93 5.359-5.352 5.359-2.242 0-4.844-1.852-4.844-4.242l0.047-36.242c0-4.406-3.578-7.984-7.984-7.984h-7.703c0.539-0.031 0.562-23.734 0.562-28.766v-0.93c0-4.289-3.5-7.781-7.797-7.781h-22.476c-4.297 0-7.797 3.492-7.797 7.781v82.148l38.07 0.633 0.039-47.992h7.188c1.648 0 2.992 1.344 2.992 2.992v36.141c0 4.852 4.531 9.102 9.703 9.102 4.883 0 10.352-3.883 10.352-9.102-0.086-1.204-3.993-22.79-3.993-22.79z" fill="#a30075"/>
   </g>
   <rect id="rect3755" rx="20" ry="20" height="71.657" width="71.657" stroke="#a30075" y=".68537" x=".97747" stroke-width="2.4709" fill="none"/>
   <path id="path3816" d="m15.068 57.798c-3.432-0.525-6.3616-2.019-8.7105-4.443-2.2747-2.347-3.5673-4.948-4.1517-8.354-0.1425-0.831-0.1523-1.79-0.1523-15 0-15.412-0.023769-14.583 0.47465-16.563 1.333-5.2974 5.591-9.5583 10.892-10.899 1.904-0.48172 1.3885-0.46726 16.616-0.46629 13.425 0.0008573 14.062 0.00779 15.074 0.16403 5.6168 0.86743 10.282 4.8148 12.076 10.217 0.33622 1.0127 0.56957 2.1668 0.68596 3.3927 0.06374 0.67134 0.08353 5.244 0.06401 14.789-0.03077 15.045-0.0064 14.256-0.49697 16.056-1.4575 5.3477-5.5337 9.3896-10.856 10.765-1.8961 0.48983-1.3886 0.47564-16.695 0.46673-11.478-0.0067-14.199-0.02954-14.82-0.12447zm32.543-4.7687c2.2576-0.57061 3.8553-2.2145 3.9834-4.0987 0.04461-0.65582-0.08184-1.4623-1.2455-7.9437-1.1572-6.4452-1.0976-5.6767-1.0976-14.16 0-8.0725 0.0013-8.0519-0.55898-9.2059-0.29-0.596-0.521-0.848-3.887-4.226l-3.58-3.5912-0.36 0.1919c-0.45115 0.24011-1.3323 1.0088-1.3323 1.1623 0 0.17907 0.89062 1.2415 2.0819 2.4836l1.0871 1.1335-0.03052 2.9784c-0.03394 3.312-0.01799 3.4394 0.53917 4.3039 0.66221 1.0275 1.5544 1.505 3.0195 1.6161l0.73944 0.05605-0.0075 0.60055c-0.0041 0.3303-0.07068 2.6351-0.14789 5.1217l-0.14037 4.5211 0.22618 1.8592c0.13287 1.0922 0.61646 3.9509 1.1722 6.9296 0.52031 2.7887 0.94056 5.2555 0.93389 5.4817-0.01732 0.58703-0.29702 1.1673-0.78075 1.6198-0.79548 0.74408-1.7406 0.96856-2.6433 0.62784-0.572-0.216-1.17-0.725-1.414-1.203-0.161-0.317-0.166-0.572-0.183-10.102l-0.0172-9.7774-0.18555-0.48581c-0.53586-1.403-1.7004-2.4238-3.0587-2.6815-0.25016-0.04744-1.4044-0.08626-2.565-0.08626-1.9126 0-2.1053-0.01285-2.0575-0.13724 0.09329-0.24311 0.21616-6.4539 0.21631-10.933 0.000085-3.5941-0.02218-4.4468-0.12799-4.8957-0.325-1.3799-1.415-2.4772-2.869-2.8868-0.346-0.0977-1.563-0.119-6.76-0.1185l-6.338 0.0006085-0.50022 0.1899c-1.4558 0.55269-2.4352 1.7094-2.6644 3.1469-0.05872 0.36824-0.08781 7.4224-0.08823 21.401l-0.000638 20.852 0.57042-0.000254c0.89406-0.000338 15.34 0.24173 17.155 0.28747l1.6268 0.04104v-12.164-12.164l1.838 0.000507c1.0109 0.000254 1.9795 0.03975 2.1523 0.08776 0.3427 0.09518 0.77039 0.41686 0.93411 0.70258 0.07963 0.13896 0.1137 2.4491 0.14663 9.9416l0.0429 9.7606 0.18824 0.55539c0.81905 2.4165 3.4772 3.8396 5.9871 3.2052v-0.000036z" fill-opacity=".50196" transform="matrix(1.2355 0 0 1.2355 -.258 -.5501)" fill="#fff"/>
   <path id="path4326" d="m20.44 21.619c-0.51356-0.31872-0.49632-0.12206-0.49598-5.6595 0.000307-4.9235 0.0048-5.0648 0.17086-5.3371 0.32705-0.53643 0.15991-0.52308 6.5528-0.52308 6.4201 0 6.212-0.01723 6.5533 0.54253 0.15061 0.24699 0.15874 0.51864 0.15904 5.3177 0.000338 5.5557 0.01877 5.3512-0.51009 5.6636-0.21077 0.1245-0.82783 0.13799-6.2209 0.13597-5.3851-0.002-6.0093-0.0161-6.209-0.14004z" fill-opacity=".50196" transform="matrix(1.2355 0 0 1.2355 -.258 -.5501)" fill="#fff"/>
   <path id="path4328" d="m46.226 21.786c-0.55922-0.18992-1.0773-0.57987-1.2686-0.95481-0.14739-0.2889-0.16847-0.49845-0.16847-1.6744v-1.3442l0.52817 0.11772c0.71623 0.15964 0.85412 0.24201 1.0878 0.64986 0.18033 0.31471 0.20379 0.47187 0.22896 1.5337 0.01543 0.6507 0.01543 1.3221 0 1.4921l-0.02804 0.30897-0.37983-0.12899z" fill-opacity=".50196" transform="matrix(1.2355 0 0 1.2355 -.258 -.5501)" fill="#fff"/>
  </g>
 </g>
</svg>
