<?xml version="1.0" encoding="UTF-8" standalone="no"?>
<!-- Generator: Adobe Illustrator 13.0.2, SVG Export Plug-In . SVG Version: 6.00 Build 14948)  -->

<svg
   xmlns:dc="http://purl.org/dc/elements/1.1/"
   xmlns:cc="http://creativecommons.org/ns#"
   xmlns:rdf="http://www.w3.org/1999/02/22-rdf-syntax-ns#"
   xmlns:svg="http://www.w3.org/2000/svg"
   xmlns="http://www.w3.org/2000/svg"
   xmlns:sodipodi="http://sodipodi.sourceforge.net/DTD/sodipodi-0.dtd"
   xmlns:inkscape="http://www.inkscape.org/namespaces/inkscape"
   version="1.0"
   id="Layer_1"
   x="0px"
   y="0px"
   width="86"
   height="86"
   viewBox="-0.258 -0.548 106.25042 106.2444"
   xml:space="preserve"
   sodipodi:version="0.32"
   inkscape:version="0.48.1 r9760"
   sodipodi:docname="Fuel.svg"
   inkscape:output_extension="org.inkscape.output.svg.inkscape"
   inkscape:export-filename="/Users/mherring/Desktop/try.png"
   inkscape:export-xdpi="90"
   inkscape:export-ydpi="90"><metadata
   id="metadata14"><rdf:RDF><cc:Work
       rdf:about=""><dc:format>image/svg+xml</dc:format><dc:type
         rdf:resource="http://purl.org/dc/dcmitype/StillImage" /><dc:title /></cc:Work></rdf:RDF></metadata><defs
   id="defs12"><inkscape:perspective
     sodipodi:type="inkscape:persp3d"
     inkscape:vp_x="0 : 61.769501 : 1"
     inkscape:vp_y="0 : 1000 : 0"
     inkscape:vp_z="123.547 : 61.769501 : 1"
     inkscape:persp3d-origin="61.773499 : 41.179667 : 1"
     id="perspective16" /></defs><sodipodi:namedview
   inkscape:window-height="1088"
   inkscape:window-width="1920"
   inkscape:pageshadow="2"
   inkscape:pageopacity="0.0"
   guidetolerance="10.0"
   gridtolerance="10.0"
   objecttolerance="10.0"
   borderopacity="1.0"
   bordercolor="#666666"
   pagecolor="#ffffff"
   id="base"
   showgrid="false"
   inkscape:zoom="6.3415084"
   inkscape:cx="42.037201"
   inkscape:cy="60.655057"
   inkscape:window-x="1440"
   inkscape:window-y="0"
   inkscape:current-layer="Layer_1"
   inkscape:window-maximized="0" />
<g
   id="g3"
   transform="matrix(0.896353,0,0,0.89606017,-2.7504162,-7.4451069)">
	
	<path
   style="fill:#ffffff;fill-opacity:0;stroke:none"
   d="m 11.90625,2.46875 c -5.4582305,0 -9.875,4.4488262 -9.875,9.90625 l 0,75.84375 c 0,5.463878 4.4167695,9.90625 9.875,9.90625 l 75.84375,0 c 5.463878,0 9.90625,-4.442372 9.90625,-9.90625 l 0,-75.84375 c 0,-5.4582305 -4.441566,-9.90625 -9.90625,-9.90625 l -75.84375,0 z"
   transform="matrix(1.2395959,0,0,1.2395959,0.29600001,-1.3333921)"
   id="path7"
   inkscape:connector-curvature="0" />
	<path
   style="fill:#a30075;fill-opacity:1;stroke:none"
   d="m 68.234076,49.292144 c 0,1.195 -0.945,2.125 -2.148,2.125 l -22.477,0 c -1.211,0 -2.148,-0.93 -2.148,-2.125 l 0,-18.954 c 0,-1.195 0.938,-2.125 2.148,-2.125 l 22.477,0 c 1.203,0 2.148,0.93 2.148,2.125 l 0,18.954 z m 26.203,2.421 c -2.844,-0.625 -3.875,-2.086 -3.875,-3.43 l 0,-4.898 c 0,0 1.891,0.422 2.344,0.539 0.922,0.242 1.508,1.656 1.531,2.891 0.031,1.234 0,4.898 0,4.898 z m 5.726004,29.758 c 0,-0.047 -0.789004,-6.016 -0.789004,-6.016 l 0,-27.562 c 0,-2.953 -0.969,-5.352 -2.969,-7.367 l -12.765,-12.703 c -0.883,0 -3.32,2.43 -3.32,2.43 0,0.883 6.336,7.172 6.336,7.172 l -0.188,10.695 c 0,3.797 3.086,6.875 6.898,6.875 l 1.711,0.023 -0.609,20.438 0.852,7.008 3.836,20.680006 c 0.141,3.359 -2.93,5.359 -5.352,5.359 -2.242,0 -4.844,-1.852 -4.844,-4.242 l 0.047,-36.242006 c 0,-4.406 -3.578,-7.984 -7.984,-7.984 0,0 -7.664,0 -7.703,0 0.539,-0.031 0.562,-23.734 0.562,-28.766 0,-0.594 0,-0.93 0,-0.93 0,-4.289 -3.5,-7.781 -7.797,-7.781 l -22.476,0 c -4.297,0 -7.797,3.492 -7.797,7.781 l 0,82.148006 38.07,0.633 0.039,-47.992006 7.188,0 c 1.648,0 2.992,1.344 2.992,2.992 l 0,36.141006 c 0,4.852 4.531,9.102 9.703,9.102 4.883,0 10.352004,-3.883 10.352004,-9.102 -0.086,-1.204 -3.993,-22.790006 -3.993,-22.790006 z"
   id="path9"
   inkscape:connector-curvature="0" />
</g>
<rect
   style="fill:none;stroke:#a30075;stroke-width:2.47094011;stroke-miterlimit:4;stroke-opacity:1;stroke-dasharray:none"
   id="rect3755"
   width="103.77948"
   height="103.77948"
   x="0.97747004"
   y="0.68445998"
   rx="20"
   ry="20"
   inkscape:export-filename="/Users/mherring/Desktop/try.png"
   inkscape:export-xdpi="90"
   inkscape:export-ydpi="90" /></svg>