<?xml version="1.0" encoding="UTF-8" standalone="no"?>
<!-- Created with Inkscape (http://www.inkscape.org/) -->

<svg
   xmlns:dc="http://purl.org/dc/elements/1.1/"
   xmlns:cc="http://creativecommons.org/ns#"
   xmlns:rdf="http://www.w3.org/1999/02/22-rdf-syntax-ns#"
   xmlns:svg="http://www.w3.org/2000/svg"
   xmlns="http://www.w3.org/2000/svg"
   xmlns:sodipodi="http://sodipodi.sourceforge.net/DTD/sodipodi-0.dtd"
   xmlns:inkscape="http://www.inkscape.org/namespaces/inkscape"
   version="1.0"
   width="120"
   height="120"
   id="svg8708"
   sodipodi:version="0.32"
   inkscape:version="0.48.1 r9760"
   sodipodi:docname="harbour_master.svg"
   inkscape:output_extension="org.inkscape.output.svg.inkscape">
  <metadata
     id="metadata6">
    <rdf:RDF>
      <cc:Work
         rdf:about="">
        <dc:format>image/svg+xml</dc:format>
        <dc:type
           rdf:resource="http://purl.org/dc/dcmitype/StillImage" />
      </cc:Work>
    </rdf:RDF>
  </metadata>
  <sodipodi:namedview
     inkscape:window-height="1088"
     inkscape:window-width="1920"
     inkscape:pageshadow="2"
     inkscape:pageopacity="0.0"
     guidetolerance="10.0"
     gridtolerance="10.0"
     objecttolerance="10.0"
     borderopacity="1.0"
     bordercolor="#666666"
     pagecolor="#ffffff"
     id="base"
     showgrid="false"
     inkscape:zoom="4.4166667"
     inkscape:cx="28.490949"
     inkscape:cy="31.764877"
     inkscape:window-x="0"
     inkscape:window-y="0"
     inkscape:current-layer="svg8708"
     inkscape:window-maximized="1" />
  <defs
     id="defs8710">
    <inkscape:perspective
       sodipodi:type="inkscape:persp3d"
       inkscape:vp_x="0 : 60 : 1"
       inkscape:vp_y="0 : 1000 : 0"
       inkscape:vp_z="120 : 60 : 1"
       inkscape:persp3d-origin="60 : 40 : 1"
       id="perspective8" />
  </defs>
  <path
     d="M 60,13.5 C 50.667313,13.5 42.321037,18.960528 36.4375,27.40625 C 30.553963,35.851972 27,47.34108 27,60 C 27,72.65892 30.553963,84.148028 36.4375,92.59375 C 42.321037,101.03947 50.667313,106.5 60,106.5 C 69.332687,106.5 77.678963,101.03947 83.5625,92.59375 C 89.446037,84.148028 93,72.65892 93,60 C 93,47.34108 89.446037,35.851972 83.5625,27.40625 C 77.678963,18.960528 69.332687,13.5 60,13.5 z M 60,17.5 C 67.779313,17.5 74.942787,22.024222 80.28125,29.6875 C 85.619713,37.350778 89,48.09492 89,60 C 89,71.90508 85.619713,82.649222 80.28125,90.3125 C 74.942787,97.975778 67.779313,102.5 60,102.5 C 52.220687,102.5 45.057213,97.975778 39.71875,90.3125 C 34.380287,82.649222 31,71.90508 31,60 C 31,48.09492 34.380287,37.350778 39.71875,29.6875 C 45.057213,22.024222 52.220687,17.5 60,17.5 z M 60,23 C 56.157874,23 53,26.157874 53,30 C 53,33.132549 55.111053,35.805292 57.96875,36.6875 L 57.875,40 L 47.5,40 L 47.5,44 L 57.75,44 L 56.5625,86.65625 C 51.95481,85.706943 48.017364,82.886219 45.59375,79.03125 L 49,77.5 L 40,68 L 39,82 L 43.125,80.125 C 45.106983,84.889386 48.318646,88.494402 52.59375,90.6875 C 54.008668,91.413344 55.453844,91.896477 56.90625,92.1875 L 57.5,97 L 62.5,97 L 63.09375,92.21875 C 68.832121,91.063862 74.00958,86.717294 76.84375,80.125 L 81,82 L 80,68 L 71,77.5 L 74.375,79.03125 C 71.954147,82.885765 68.039183,85.674632 63.4375,86.625 L 62.25,44 L 72.5,44 L 72.5,40 L 62.125,40 L 62.03125,36.6875 C 64.888947,35.805292 67,33.132549 67,30 C 67,26.157874 63.842126,23 60,23 z M 60,27 C 61.677874,27 63,28.322126 63,30 C 63,31.677874 61.677874,33 60,33 C 58.322126,33 57,31.677874 57,30 C 57,28.322126 58.322126,27 60,27 z"
     id="path8720"
     style="fill:none;fill-opacity:1;stroke:#a30075;stroke-opacity:1;stroke-width:1;stroke-miterlimit:4;stroke-dasharray:none" />
  <path
     style="fill:none;fill-opacity:1;fill-rule:nonzero;stroke:#a30075;stroke-width:1;stroke-opacity:1;opacity:1;stroke-miterlimit:4;stroke-dasharray:none"
     d="M 58.120755,102.24356 C 52.976187,101.72289 48.656631,99.578674 44.222699,95.344583 C 37.612252,89.032078 33.166913,79.258714 31.606714,67.607547 C 31.091033,63.756557 31.089541,56.247172 31.603707,52.437736 C 33.641436,37.340235 40.451875,25.580002 50.309434,20.136761 C 55.28914,17.387015 61.624598,16.930254 67.00817,18.932844 C 73.723087,21.430671 79.589932,27.389334 83.611698,35.796226 C 87.142166,43.176156 88.802423,50.931088 88.79803,60.021254 C 88.792936,70.59173 86.325125,80.180081 81.605321,87.967594 C 75.613268,97.854267 66.926638,103.13476 58.120755,102.24355 L 58.120755,102.24356 z M 62.615255,96.645283 C 62.675708,96.427358 62.788569,95.637736 62.866057,94.890566 C 63.134085,92.306076 63.109709,92.349562 64.520592,91.939406 C 69.308185,90.547619 73.752928,86.593062 76.3452,81.418868 C 76.625955,80.858491 76.879245,80.372375 76.908091,80.338612 C 76.936913,80.304845 77.856204,80.689075 78.950943,81.192453 C 80.045683,81.69583 80.979985,82.069075 81.02717,82.021891 C 81.143683,81.905382 80.161992,68.202989 80.026913,68.060377 C 79.919728,67.947215 74.837887,73.157103 72.242626,76.040798 L 70.867834,77.568387 L 72.413479,78.261881 C 73.2636,78.6433 74.002143,78.998377 74.054717,79.050942 C 74.265147,79.261368 72.762521,81.101346 71.260234,82.472796 C 69.573736,84.012405 65.930629,86.013663 64.290566,86.301423 L 63.441509,86.4504 L 63.441509,84.481345 C 63.441509,82.144386 62.615882,51.655945 62.431216,47.173585 L 62.302952,44.060377 L 67.40054,44.060377 L 72.498113,44.060377 L 72.498113,42.022642 L 72.498113,39.984906 L 67.433402,39.984906 L 62.368678,39.984906 L 62.228343,39.135849 C 61.901887,37.160792 61.996413,36.858125 63.102009,36.338432 C 64.573402,35.646795 66.217395,33.754356 66.711505,32.18345 C 67.236149,30.515452 67.117467,28.474284 66.411163,27.018138 C 63.793574,21.621616 56.039629,21.666817 53.604593,27.092798 C 52.278086,30.048643 53.086268,33.513899 55.557758,35.467501 C 56.181944,35.960891 56.937555,36.426045 57.236889,36.501174 C 57.750199,36.630002 57.781132,36.732899 57.781132,38.311338 L 57.781132,39.984906 L 52.573585,39.984906 L 47.366038,39.984906 L 47.366038,42.022642 L 47.366038,44.060377 L 52.460377,44.060377 L 57.554717,44.060377 L 57.549355,46.267925 C 57.538386,50.784174 56.457446,86.214251 56.326639,86.345058 C 56.101372,86.57033 53.688851,85.7317 52.131851,84.886893 C 49.627698,83.528165 47.472659,81.618666 46.173661,79.607547 L 45.808053,79.041509 L 47.38092,78.362264 C 48.246007,77.988679 48.927686,77.568231 48.895768,77.427933 C 48.833255,77.153135 40.075465,67.803779 39.974832,67.904411 C 39.895349,67.98389 38.988679,80.328238 38.988679,81.330876 L 38.988679,82.104195 L 39.724528,81.78552 C 40.129245,81.610248 41.045558,81.202913 41.760779,80.880331 L 43.06118,80.293814 L 43.7729,81.705396 C 46.392229,86.900429 50.830508,90.685685 55.891148,92.040634 L 56.831346,92.292362 L 57.112762,94.666943 L 57.394193,97.041509 L 59.949763,97.041509 C 62.190822,97.041509 62.518861,96.992746 62.615253,96.645283 L 62.615255,96.645283 z"
     id="path3169" />
  <path
     style="opacity:1;fill:none;fill-opacity:1;fill-rule:nonzero;stroke:#a30075;stroke-width:1;stroke-opacity:1;stroke-miterlimit:4;stroke-dasharray:none"
     d="M 59.198146,32.814288 C 58.427941,32.653943 57.363752,31.460724 57.196678,30.570145 C 57.007657,29.562548 57.478476,28.288426 58.253719,27.709623 C 60.121956,26.31478 62.824014,27.682286 62.824014,30.022642 C 62.824019,31.874065 61.091006,33.208349 59.198146,32.814288 z"
     id="path3219" />
  <path
     style="fill:none;stroke:#a30075;stroke-width:1;stroke-miterlimit:4;stroke-opacity:1;stroke-dasharray:none;fill-opacity:1"
     d="M 57.399047,105.71169 C 52.102161,105.15419 46.597236,102.39776 41.996265,97.999202 35.139853,91.444428 30.393272,81.824909 28.552956,70.754717 25.410672,51.852688 30.651378,32.846581 41.996265,22.000798 c 2.472453,-2.36368 4.544962,-3.830661 7.52946,-5.329566 9.412415,-4.727198 20.038626,-2.738538 28.478008,5.329566 6.856413,6.554773 11.602995,16.174293 13.44331,27.244485 3.142284,18.902029 -2.098422,37.908136 -13.44331,48.753919 -4.749636,4.540688 -10.055044,7.142448 -15.757947,7.727678 -1.261571,0.12946 -2.461272,0.22183 -2.666001,0.20527 -0.204732,-0.0165 -1.186065,-0.11577 -2.180738,-0.22046 l 0,0 z m 6.744935,-3.0495 C 72.474294,100.8389 79.575975,94.424554 84.309661,84.448247 92.82177,66.508854 90.78595,42.155158 79.56885,27.735849 74.08224,20.682942 67.346574,16.981132 60,16.981132 c -6.080597,0 -11.537076,2.415627 -16.494987,7.302464 -13.684046,13.487878 -17.182457,40.421914 -7.814674,60.164651 4.666936,9.835635 11.592627,16.181873 19.781359,18.126313 2.222746,0.5278 6.465355,0.57067 8.672284,0.0876 z"
     id="path4370"
     inkscape:connector-curvature="0" />
  <path
     style="fill:none;stroke:#a30075;stroke-width:1;stroke-miterlimit:4;stroke-opacity:1;stroke-dasharray:none;fill-opacity:1"
     d="M 57.748276,94.091293 57.468403,91.729757 55.847409,91.240041 C 50.95035,89.760598 46.793718,86.119184 44.28774,81.113207 c -0.451954,-0.90283 -0.916696,-1.641509 -1.03276,-1.641509 -0.116064,0 -0.983737,0.352137 -1.928163,0.782524 l -1.717139,0.782525 0.123974,-1.065543 c 0.06818,-0.586049 0.27238,-3.143237 0.453767,-5.682641 0.181387,-2.539404 0.357761,-4.637869 0.391942,-4.663254 0.07834,-0.05818 7.057583,7.34052 7.146708,7.576236 0.03613,0.09556 -0.600661,0.456944 -1.415094,0.803083 -0.814433,0.346139 -1.480787,0.725687 -1.480787,0.843444 0,0.285274 0.76944,1.376232 1.999716,2.835319 1.226479,1.454579 3.275875,3.022942 5.245458,4.014247 1.895631,0.954081 4.765568,1.82114 4.964188,1.499766 0.08048,-0.130222 0.375291,-8.97744 0.655133,-19.660483 0.279841,-10.683042 0.570318,-20.468053 0.645505,-21.744468 l 0.136703,-2.320755 -5.238445,0 -5.238446,0 L 48,42 l 0,-1.471698 5.174806,0 5.174806,0 L 58.493951,39 c 0.254699,-2.696832 0.272722,-2.636298 -0.949317,-3.18859 -1.286307,-0.581338 -2.600302,-1.821037 -3.279882,-3.094429 -0.690794,-1.294405 -0.687193,-4.151641 0.0068,-5.433962 2.201275,-4.067104 7.25886,-4.815976 10.369498,-1.535401 1.194335,1.259582 1.577477,2.292412 1.577477,4.252382 0,1.415641 -0.105582,2.009161 -0.483328,2.716981 -0.67958,1.273392 -1.993576,2.513091 -3.279883,3.094429 C 61.233327,36.363702 61.251349,36.303168 61.506049,39 l 0.144338,1.528302 5.174805,0 5.174808,0 L 72,42 l 0,1.471698 -5.204299,0 -5.204296,0 0.136545,4.132076 c 0.0751,2.272641 0.354145,12.096545 0.620101,21.830898 0.265956,9.734352 0.538519,17.753784 0.605692,17.820959 0.234989,0.23499 2.835971,-0.577236 4.674238,-1.459655 2.369726,-1.137534 4.840542,-3.133351 6.353151,-5.1318 0.653773,-0.863762 1.188679,-1.666528 1.188679,-1.783924 0,-0.117396 -0.666439,-0.503783 -1.480979,-0.858634 -0.814537,-0.354849 -1.45133,-0.725932 -1.415094,-0.824624 0.08724,-0.237602 7.066727,-7.632444 7.146901,-7.572215 0.03418,0.02568 0.210554,2.12438 0.39194,4.663784 0.181388,2.539404 0.385583,5.096592 0.453768,5.682641 l 0.123973,1.065543 -1.717136,-0.782525 c -0.944428,-0.430387 -1.846909,-0.782524 -2.005515,-0.782524 -0.158608,0 -0.530683,0.534906 -0.826834,1.188679 -2.402386,5.303425 -7.182715,9.479649 -12.365946,10.803222 l -0.940204,0.240088 -0.281416,2.374572 -0.281418,2.374571 -1.971851,0 -1.971852,0 -0.279872,-2.361537 z M 61.981143,33.021614 C 62.853056,32.482742 63.612697,31.075901 63.612697,30 c 0,-1.0759 -0.759641,-2.482741 -1.631554,-3.021614 -1.075597,-0.664755 -2.88669,-0.664755 -3.962286,0 -0.849603,0.525084 -1.628266,1.933661 -1.636526,2.960429 -0.0087,1.078501 0.684883,2.429429 1.548563,3.016314 1.086648,0.738397 2.914524,0.768401 4.050249,0.06649 l 0,0 z"
     id="path4372"
     inkscape:connector-curvature="0" />
  <path
     style="fill:none;stroke:#a30075;stroke-width:0.99999994;stroke-miterlimit:4;stroke-opacity:1;stroke-dasharray:none"
     d="m 58.573667,95.614066 c -0.05901,-0.09906 -0.179874,-1.015014 -0.268591,-2.03546 -0.08872,-1.020446 -0.278558,-1.9951 -0.421869,-2.165898 -0.143311,-0.170799 -0.871887,-0.492967 -1.619056,-0.715927 -4.5033,-1.343817 -8.460539,-4.646117 -11.05696,-9.226988 -1.713687,-3.023463 -1.467247,-2.859892 -3.245711,-2.154276 -0.83387,0.330844 -1.538124,0.577743 -1.565008,0.548669 -0.02688,-0.02908 0.1135,-2.033975 0.311965,-4.455328 l 0.360844,-4.402465 2.782489,2.930767 c 1.530369,1.611919 2.78412,2.991706 2.786114,3.06619 0.002,0.07448 -0.400902,0.317839 -0.895325,0.540793 -0.494422,0.222955 -1.061816,0.585337 -1.260876,0.805295 -0.332607,0.367528 -0.325759,0.470449 0.08454,1.270526 0.952224,1.856814 3.603472,4.47122 6.015616,5.932023 2.267976,1.373495 5.878411,2.57436 6.74272,2.242694 0.39867,-0.152985 0.404597,-0.284285 1.085951,-24.058832 0.242681,-8.467924 0.503637,-16.644339 0.579901,-18.169811 l 0.138662,-2.773585 -5.224915,0 -5.224914,0 0,-0.792453 0,-0.792453 5.09434,0 c 2.801886,0 5.096149,-0.02547 5.098362,-0.0566 0.0022,-0.03113 0.09712,-0.941249 0.210913,-2.022482 0.28162,-2.675953 0.142996,-3.069076 -1.400192,-3.970798 -0.698077,-0.407904 -1.629615,-1.162671 -2.070086,-1.677262 -1.658671,-1.937784 -1.64751,-4.969038 0.02556,-6.942973 2.272359,-2.680989 5.811452,-2.857387 8.400039,-0.418682 0.983932,0.926961 1.336884,1.630336 1.523314,3.035714 0.333082,2.5109 -0.774247,4.559968 -3.244168,6.003203 -1.543188,0.901722 -1.681812,1.294845 -1.400192,3.970798 0.11379,1.081233 0.208701,1.991349 0.210914,2.022482 0.0022,0.03113 2.296475,0.0566 5.098362,0.0566 l 5.094339,0 0,0.792453 0,0.792453 -5.208545,0 -5.208545,0 0.12422,2.54717 c 0.06832,1.400943 0.271499,7.845283 0.451506,14.320754 0.180007,6.475472 0.449422,15.466981 0.598699,19.981132 l 0.271413,8.207547 0.708682,0 c 1.771979,0 5.69155,-1.70361 7.979963,-3.468425 1.450676,-1.118756 3.459899,-3.171127 3.888535,-3.972041 0.509493,-0.951996 0.510903,-0.320771 0.0016,0.682676 -2.321072,4.572393 -6.555752,8.205615 -11.192359,9.602692 -0.74717,0.225133 -1.457837,0.494778 -1.579259,0.599209 -0.121422,0.104432 -0.325355,1.129778 -0.453185,2.278544 l -0.232417,2.088666 -1.395016,0.0669 c -0.767259,0.03679 -1.443296,-0.01415 -1.502305,-0.113208 l -5.9e-5,0 z m 2.671616,-61.673689 c 1.259425,-0.34178 2.320005,-1.428964 2.725268,-2.793627 0.925489,-3.116466 -1.760898,-5.830234 -5.046023,-5.097452 -1.419925,0.31673 -2.465339,1.335371 -2.898045,2.823826 -0.293054,1.008068 -0.292597,1.278357 0.0038,2.276595 0.388527,1.308313 1.279176,2.261738 2.529048,2.707305 1.075912,0.383551 1.528006,0.397582 2.685903,0.08335 l 0,0 z"
     id="path4374"
     inkscape:connector-curvature="0" />
  <path
     style="fill:none;stroke:#a30075;stroke-width:0.99999994;stroke-miterlimit:4;stroke-opacity:1;stroke-dasharray:none"
     d="M 57.622641,105.14607 C 50.871351,104.14782 44.789092,100.5826 39.895008,94.754717 34.669379,88.532033 31.357905,81.395495 29.555496,72.472096 28.585775,67.671183 28.418735,65.794225 28.425389,59.773585 c 0.0068,-6.16169 0.230738,-8.361068 1.380496,-13.558952 3.539747,-16.002675 13.659486,-28.262143 25.552605,-30.955479 2.340772,-0.530096 6.79992,-0.535848 9.121261,-0.01177 5.780405,1.305021 11.280704,4.824417 15.625241,9.997896 6.061675,7.21825 9.574748,15.725778 11.172666,27.056604 0.463458,3.286385 0.397032,13.008482 -0.111383,16.301887 -2.311012,14.970258 -8.755902,26.433079 -18.35033,32.637739 -3.727997,2.41087 -7.91702,3.76313 -12.1367,3.91784 -1.307547,0.0479 -2.683019,0.042 -3.056604,-0.0133 l 0,-1e-5 z m 7.438089,-2.15393 C 82.943404,98.55461 94.049048,72.604598 88.855088,47.393038 85.588704,31.537955 76.177184,19.538042 64.981132,16.953173 c -3.116729,-0.71957 -7.650317,-0.649142 -10.754717,0.167072 -2.312219,0.607931 -6.596228,2.857066 -8.740266,4.5887 -9.757944,7.881013 -15.606033,22.298275 -15.597302,38.451943 0.0069,12.684453 3.711704,24.353432 10.45131,32.917974 6.56542,8.343188 15.924023,12.096118 24.720573,9.913278 z"
     id="path4376"
     inkscape:connector-curvature="0" />
  <path
     style="fill:none;stroke:#a30075;stroke-width:0.99999994;stroke-miterlimit:4;stroke-opacity:1;stroke-dasharray:none"
     d="m 78,79.335919 c -0.912929,-0.382692 -1.468644,-0.502196 -1.69434,-0.36436 -0.242797,0.14828 -0.39987,0.07347 -0.566921,-0.270018 -0.12709,-0.26132 -0.760517,-0.729843 -1.407615,-1.041164 l -1.176542,-0.566038 2.89208,-3.047094 2.892079,-3.047095 0.280274,3.72634 c 0.15415,2.049487 0.336348,4.057472 0.404884,4.462189 0.06854,0.404717 0.03686,0.731543 -0.0704,0.726279 C 79.446244,79.909694 78.747169,79.649127 78,79.335919 z"
     id="path4378"
     inkscape:connector-curvature="0" />
  <path
     style="fill:none;stroke:#a30075;stroke-width:0.99999994;stroke-miterlimit:4;stroke-opacity:1;stroke-dasharray:none"
     d="m 41.06459,78.617393 c 0.06085,-0.215038 0.180115,-1.639091 0.265027,-3.164563 0.08491,-1.525472 0.232465,-2.773585 0.327897,-2.773585 0.09543,0 1.051055,0.955996 2.123605,2.124435 l 1.950092,2.124435 -0.660558,0.273612 c -0.363307,0.150487 -0.836545,0.468076 -1.05164,0.705754 -0.215096,0.237678 -0.566256,0.432142 -0.780355,0.432142 -0.2141,0 -0.815746,0.150468 -1.336991,0.334374 -0.880337,0.310601 -0.939852,0.306577 -0.837077,-0.0566 l 0,0 z"
     id="path4380"
     inkscape:connector-curvature="0" />
  <path
     style="fill:none;stroke:#a30075;stroke-width:0.99999994;stroke-miterlimit:4;stroke-opacity:1;stroke-dasharray:none"
     d="m 78,78.671068 c -0.373585,-0.171061 -0.907609,-0.315617 -1.186721,-0.321233 -0.279111,-0.0056 -0.951952,-0.34949 -1.495204,-0.764163 l -0.987729,-0.753951 1.948034,-2.08441 c 1.071419,-1.146425 2.009948,-2.080732 2.085621,-2.076238 0.07567,0.0045 0.209859,1.150329 0.298192,2.546299 0.08833,1.39597 0.217456,2.822385 0.286941,3.169811 0.140476,0.702379 0.03422,0.734158 -0.949134,0.283885 z"
     id="path4382"
     inkscape:connector-curvature="0" />
  <path
     style="fill:none;stroke:#a30075;stroke-width:0.99999994;stroke-miterlimit:4;stroke-opacity:1;stroke-dasharray:none"
     d="m 77.432496,77.901659 c -0.832714,-0.253301 -2.03627,-0.905763 -2.03627,-1.103887 0,-0.09445 0.553001,-0.717864 1.228892,-1.385359 l 1.228892,-1.213627 0.11833,0.768532 c 0.284514,1.84788 0.369641,3.144439 0.205269,3.126428 -0.09768,-0.0107 -0.432986,-0.09714 -0.745113,-0.192087 l 0,0 z"
     id="path4384"
     inkscape:connector-curvature="0" />
  <path
     style="fill:none;stroke:#a30075;stroke-width:0.99999994;stroke-miterlimit:4;stroke-opacity:1;stroke-dasharray:none"
     d=""
     id="path4386"
     inkscape:connector-curvature="0" />
  <path
     style="fill:none;stroke:#a30075;stroke-width:0.99999994;stroke-miterlimit:4;stroke-opacity:1;stroke-dasharray:none"
     d=""
     id="path4388"
     inkscape:connector-curvature="0" />
  <path
     style="fill:none;stroke:#a30075;stroke-width:0.99999994;stroke-miterlimit:4;stroke-opacity:1;stroke-dasharray:none"
     d="m 58.88958,93.347529 c -0.142893,-0.960745 -0.405987,-1.969911 -0.584653,-2.24259 -0.206733,-0.315514 -0.978361,-0.71342 -2.122166,-1.094343 -2.1001,-0.699398 -4.025683,-1.814165 -6.057485,-3.506828 -1.489435,-1.240823 -1.863488,-1.885843 -0.483006,-0.832897 1.721497,1.313049 6.561658,3.023239 7.727911,2.73053 0.316721,-0.07949 0.624831,-0.312705 0.68469,-0.518249 0.219,-0.75201 0.384422,-4.820003 0.92669,-22.788812 0.304402,-10.086793 0.61694,-19.383963 0.694529,-20.660378 l 0.14107,-2.320754 -5.285938,-0.04013 -5.285939,-0.04013 5.023317,-0.134132 c 2.762824,-0.07377 5.079244,-0.19006 5.147599,-0.258414 0.06836,-0.06836 0.191419,-1.299777 0.273476,-2.736494 L 59.838869,36.2917 58.887938,35.340768 57.937006,34.389837 58.798692,34.5556 c 0.950231,0.182795 1.400706,0.177824 2.515823,-0.02777 l 0.748478,-0.137995 -0.950931,0.950931 -0.950932,0.950932 0.149194,2.612211 c 0.08206,1.436717 0.205121,2.668139 0.273476,2.736494 0.06836,0.06835 2.384775,0.184641 5.147599,0.258414 l 5.023318,0.134132 -5.283469,0.04013 -5.283469,0.04013 0.134895,1.641509 c 0.07419,0.90283 0.389211,10.50566 0.700044,21.339623 0.310833,10.833962 0.624573,20.538679 0.697201,21.566037 l 0.132051,1.867925 0.724559,0 c 1.260054,0 3.351724,-0.661153 5.574414,-1.76201 2.762735,-1.368328 2.700705,-1.349278 2.037736,-0.625827 -1.33024,1.451594 -4.064467,3.046444 -7.171146,4.18286 -1.366323,0.499798 -1.402724,0.534793 -1.628549,1.565649 -0.127044,0.579931 -0.294007,1.538384 -0.371029,2.129894 -0.139424,1.07073 -0.143852,1.075471 -1.004305,1.075471 l -0.864264,0 -0.259806,-1.74681 z"
     id="path4390"
     inkscape:connector-curvature="0" />
  <path
     style="fill:none;stroke:#a30075;stroke-width:0.99999994;stroke-miterlimit:4;stroke-opacity:1;stroke-dasharray:none"
     d="m 59.474225,93.266619 c -0.07481,-0.631662 -0.264296,-1.503215 -0.421077,-1.936786 -0.280479,-0.775651 -0.850203,-1.138934 -3.58145,-2.283704 -0.446566,-0.187173 -0.255411,-0.213664 0.90566,-0.125504 2.119171,0.160904 2.243962,-0.02516 2.488597,-3.710518 0.106177,-1.599521 0.362429,-8.664824 0.569449,-15.700673 0.207021,-7.035849 0.44727,-12.979971 0.533888,-13.209159 0.08662,-0.229189 0.390591,6.938038 0.675496,15.92717 0.284904,8.989132 0.576884,16.497308 0.648845,16.684834 0.105786,0.275674 0.417137,0.315358 1.626149,0.20726 1.58437,-0.141658 1.553638,-0.09455 -0.495798,0.759965 -1.243888,0.518642 -1.602613,1.14165 -1.861947,3.233703 -0.127188,1.026027 -0.245124,1.301887 -0.556588,1.301887 -0.306177,0 -0.425845,-0.258715 -0.531224,-1.148475 z"
     id="path4392"
     inkscape:connector-curvature="0" />
  <path
     style="fill:none;stroke:#a30075;stroke-width:0.99999994;stroke-miterlimit:4;stroke-opacity:1;stroke-dasharray:none"
     d="m 59.772738,91.754717 c -0.0013,-0.625744 -0.82403,-1.81177 -1.378904,-1.98788 -0.461484,-0.146469 -0.470822,-0.1797 -0.107615,-0.382961 0.803932,-0.449903 1.043917,-1.657299 1.263562,-6.357138 0.117568,-2.515649 0.219118,-5.643719 0.225666,-6.951266 0.02059,-4.109977 0.384164,-1.973245 0.539364,3.169811 0.228879,7.584651 0.397155,9.96264 0.728438,10.293923 0.242895,0.242895 0.21747,0.365885 -0.143092,0.692189 -0.241159,0.218246 -0.502746,0.739427 -0.581304,1.158179 -0.148588,0.792039 -0.544637,1.056845 -0.546115,0.365143 z"
     id="path4394"
     inkscape:connector-curvature="0" />
  <path
     style="fill:none;stroke:#a30075;stroke-width:0.99999994;stroke-miterlimit:4;stroke-opacity:1;stroke-dasharray:none"
     d=""
     id="path4396"
     inkscape:connector-curvature="0" />
  <path
     style="fill:none;stroke:#a30075;stroke-width:0.99999994;stroke-miterlimit:4;stroke-opacity:1;stroke-dasharray:none"
     d="M 56.943396,103.76274 C 49.97764,102.79942 43.114683,98.009805 38.250888,90.71736 30.036817,78.401735 27.422975,61.487509 31.247181,45.396227 c 0.965074,-4.060787 2.072051,-7.069574 4.081768,-11.09434 2.227094,-4.460098 4.1469,-7.199437 7.237089,-10.326486 3.446929,-3.488044 7.849616,-6.176118 11.886792,-7.257516 2.649937,-0.709812 8.499038,-0.711476 11.073607,-0.0031 7.923341,2.179904 14.555533,8.29973 19.333249,17.83967 4.726409,9.437497 6.662552,22.128187 5.108249,33.482682 -1.621927,11.848508 -5.983864,21.458475 -12.821158,28.246829 -3.989303,3.960744 -8.37799,6.383784 -13.261035,7.321544 -1.531247,0.29407 -5.330816,0.38015 -6.942346,0.15728 l 0,0 z m 8.592602,-2.65491 c 10.96078,-3.2661 19.59583,-15.699456 22.213037,-31.983902 0.49358,-3.071096 0.685329,-11.719422 0.341198,-15.388926 C 87.578965,48.283293 86.305741,43.174574 84.193326,38.098957 79.599638,27.061445 71.648762,19.658277 62.969674,18.337327 49.311001,16.258487 36.669606,28.796595 32.710671,48.349098 c -0.876684,4.329795 -1.07473,7.110888 -0.950604,13.349015 0.11993,6.027177 0.495781,8.839644 1.852439,13.861664 3.021445,11.184661 9.584984,20.300262 17.444097,24.22678 3.145221,1.571393 5.724686,2.116273 9.509434,2.008763 2.36139,-0.0671 3.344115,-0.20302 4.969961,-0.68749 z"
     id="path4398"
     inkscape:connector-curvature="0" />
  <path
     style="fill:none;stroke:#a30075;stroke-width:1;stroke-miterlimit:4;stroke-opacity:1;stroke-dasharray:none"
     d="m 77.401391,77.316098 c -0.451035,-0.158043 -1.200747,-0.544794 -1.200747,-0.619426 0,-0.04955 0.288179,-0.376579 0.640398,-0.726732 0.35222,-0.350154 0.640671,-0.601465 0.641004,-0.558471 3.32e-4,0.043 0.033,0.294306 0.07259,0.558471 0.206395,1.3771 0.195987,1.468529 -0.153245,1.346158 z"
     id="path4400"
     inkscape:connector-curvature="0" />
  <path
     style="fill:none;stroke:#a30075;stroke-width:1;stroke-miterlimit:4;stroke-opacity:1;stroke-dasharray:none"
     d="M 56.952993,97.203156 C 56.929373,97.060067 56.798774,95.988516 56.662778,94.82193 56.52678,93.655346 56.404076,92.689433 56.3901,92.675457 56.37612,92.661477 55.946882,92.525964 55.436228,92.374309 50.241166,90.831465 45.924683,87.028908 43.221009,81.613452 c -0.186836,-0.374233 -0.347015,-0.688921 -0.355952,-0.699308 -0.0089,-0.01039 -0.734205,0.300527 -1.611704,0.690917 -0.8775,0.390391 -1.856616,0.820547 -2.175815,0.955903 l -0.580361,0.246102 7.87e-4,-0.576794 c 0.0021,-1.530836 0.891958,-13.845998 1.084412,-15.007472 l 0.04339,-0.261858 0.638532,0.582058 c 0.898801,0.819306 5.93154,6.150683 8.540181,9.046946 0.900114,0.999357 0.966489,1.094097 0.800498,1.142572 -0.09955,0.02907 -0.487189,0.226767 -0.861422,0.439324 -0.374233,0.212557 -1.022636,0.536696 -1.440897,0.72031 -0.41826,0.183614 -0.773498,0.346712 -0.789417,0.36244 -0.08054,0.07957 1.199473,1.622574 1.961551,2.364571 1.699593,1.654806 3.628827,2.896861 5.792201,3.729059 0.545713,0.209922 1.440961,0.505074 1.537332,0.506838 0.132777,0.0024 0.149168,-0.364969 0.505294,-11.326017 0.400983,-12.341667 0.759118,-25.772961 0.759118,-28.469517 l 0,-1.509142 -5.083164,0 -5.083164,0 0,-2.521569 0,-2.52157 5.203239,0 5.203238,0 -0.0012,-1.180735 c -6.41e-4,-0.649404 -0.02769,-1.216757 -0.06004,-1.260785 -0.03235,-0.04403 -0.238924,-0.164717 -0.459061,-0.268201 -0.906761,-0.426255 -2.091694,-1.387054 -2.71384,-2.200507 -2.833286,-3.704509 -1.622379,-9.166569 2.494332,-11.251233 1.785405,-0.904112 3.959643,-1.043434 5.913394,-0.378921 2.536318,0.862657 4.503404,3.159976 4.909463,5.733656 0.284621,1.803989 -0.0667,3.650993 -0.967765,5.087879 -0.783295,1.24908 -1.797273,2.216476 -3.060276,2.919687 -0.85981,0.478723 -0.903538,0.570535 -0.777171,1.631779 0.05286,0.443936 0.115646,0.888207 0.139521,0.987269 l 0.04341,0.180112 5.11451,0 5.114511,0 0,2.52157 0,2.521569 -5.124714,0 -5.124713,0 0.03678,0.180112 c 0.04201,0.205723 0.04571,0.318626 0.368591,11.256432 0.37511,12.706966 0.633078,22.549613 0.691295,26.376061 l 0.05342,3.511255 0.345586,-0.04737 c 1.235528,-0.169347 4.432734,-1.870729 6.285633,-3.344877 1.083399,-0.861942 3.04444,-3.045943 2.881391,-3.208991 -0.05212,-0.05212 -1.904926,-0.921226 -3.080769,-1.445117 l -0.225979,-0.100684 0.904001,-0.998708 c 2.168749,-2.395957 4.129562,-4.462681 6.650535,-7.009756 2.622546,-2.6497 2.702105,-2.721814 2.737755,-2.481545 0.268458,1.809288 0.951329,10.827494 1.060539,14.005786 l 0.05191,1.510702 -0.183098,-0.09799 c -0.100704,-0.0539 -0.421745,-0.180653 -0.713425,-0.281684 -0.291681,-0.101031 -1.195842,-0.47829 -2.009247,-0.838355 -0.813407,-0.360065 -1.488989,-0.624944 -1.501293,-0.588621 -0.0123,0.03632 -0.289001,0.558785 -0.61488,1.161027 -1.115837,2.062129 -2.270442,3.641044 -3.84469,5.257595 -2.357648,2.421001 -4.822271,3.973816 -7.952983,5.010709 -0.623651,0.206554 -0.939288,0.353563 -1.01842,0.474333 -0.06763,0.103211 -0.196973,0.847204 -0.315277,1.813454 -0.110333,0.901142 -0.262007,1.899604 -0.337052,2.218802 l -0.136446,0.580362 -2.94358,0 -2.943579,0 -0.04295,-0.260162 0,0 z m 3.179441,-4.282666 c 0.03199,-0.253028 0.0154,-0.340212 -0.06472,-0.340212 -0.172345,0 -0.2108,0.135035 -0.151351,0.531469 0.06264,0.417711 0.148718,0.341519 0.216074,-0.191257 l 0,0 z m 0.390882,-2.947876 c 0.139217,-0.154897 0.140761,-0.183316 0.0228,-0.419766 -0.06959,-0.139492 -0.176802,-0.695119 -0.238257,-1.234727 -0.09802,-0.860674 -0.277283,-3.475926 -0.277283,-4.045221 0,-0.112522 -0.01802,-0.186569 -0.04004,-0.164549 -0.02202,0.02202 -0.07595,0.572828 -0.119834,1.224016 -0.141248,2.095778 -0.374273,3.268742 -0.763252,3.841935 l -0.203442,0.299789 0.316363,0.343214 c 0.174001,0.188768 0.412861,0.496074 0.5308,0.682903 l 0.214435,0.339687 0.204188,-0.350568 c 0.112303,-0.192813 0.271384,-0.425333 0.353515,-0.516713 l 0,0 z m 1.228335,-0.274129 c 0.02721,-0.04403 0.01132,-0.08005 -0.0353,-0.08005 -0.04663,0 -0.08477,0.03602 -0.08477,0.08005 0,0.04403 0.01588,0.08005 0.0353,0.08005 0.01942,0 0.05756,-0.03602 0.08478,-0.08005 z m 3.655626,-0.882846 c 1.539221,-0.763497 2.851434,-1.594294 1.687699,-1.068527 -0.634078,0.286473 -2.427009,0.910065 -2.617629,0.910428 -0.121409,2.4e-4 -0.13475,0.02164 -0.06004,0.09636 0.05283,0.05283 0.09606,0.178019 0.09606,0.278193 0,0.212043 0.05873,0.197823 0.893907,-0.216451 z m -10.638934,-0.0059 c -0.02421,-0.09256 -6.41e-4,-0.195107 0.0524,-0.227879 0.08262,-0.05106 -1.919367,-0.807554 -2.125211,-0.803053 -0.137049,0.003 1.958352,1.199226 2.100649,1.199226 0.0089,0 -0.0036,-0.07573 -0.02784,-0.168294 z m 17.634154,-4.671674 c 0.283857,-0.350546 0.516104,-0.666824 0.516104,-0.702841 0,-0.03602 -0.370357,0.250794 -0.823015,0.637356 -0.452658,0.386562 -0.947966,0.798189 -1.100685,0.914726 l -0.27767,0.211886 0.232481,-0.04346 c 0.226459,-0.04234 0.231184,-0.03642 0.182404,0.228388 l -0.05008,0.271854 0.402178,-0.440275 c 0.221198,-0.24215 0.634425,-0.727083 0.918283,-1.077629 l 0,0 z m -24.552816,-0.05781 c -0.234822,-0.212622 -0.492715,-0.425093 -0.573095,-0.472157 -0.126857,-0.07428 -0.135496,-0.06628 -0.06545,0.06058 0.04438,0.08038 0.290258,0.397314 0.546395,0.704296 0.455586,0.546025 0.466284,0.553108 0.492403,0.326012 0.02233,-0.194166 -0.04314,-0.295378 -0.400249,-0.618726 l 0,0 z m 28.108268,-4.568113 c 0.0014,-0.03302 -0.03965,-0.06004 -0.09121,-0.06004 -0.05157,0 -0.164898,-0.06304 -0.251845,-0.140087 -0.08695,-0.07705 -0.141472,-0.104065 -0.121169,-0.06004 0.02031,0.04403 0.08361,0.198521 0.140685,0.34332 0.09599,0.243535 0.11191,0.252536 0.212382,0.120074 0.05974,-0.07876 0.10976,-0.170212 0.111161,-0.203232 z M 42.250888,78.099004 c 0.290925,-0.0838 0.660707,-0.174859 0.821739,-0.202363 0.175944,-0.03005 0.481647,-0.200853 0.766047,-0.428005 0.260296,-0.207899 0.60607,-0.449353 0.768388,-0.536565 0.162318,-0.08721 0.285887,-0.184742 0.274599,-0.216734 -0.03119,-0.08841 -1.906456,-2.122807 -2.44559,-2.653123 l -0.474592,-0.466829 -0.04987,0.466829 c -0.02743,0.256756 -0.105929,1.259322 -0.174449,2.227925 -0.06852,0.968603 -0.139991,1.806124 -0.158825,1.861159 -0.04597,0.134316 0.05079,0.126793 0.67255,-0.05229 l 0,0 z m 34.910354,-1.575386 c 0,-0.06971 -0.04278,-0.112487 -0.09506,-0.09506 -0.14843,0.04948 -0.173049,0.221804 -0.03169,0.221804 0.06971,0 0.126746,-0.05703 0.126746,-0.126745 z M 60.144404,71.206975 c -0.02941,-1.034644 -0.07725,-2.205372 -0.106311,-2.601619 l -0.05284,-0.720448 -0.05648,1.080672 c -0.03107,0.59437 -0.08018,1.833802 -0.109142,2.754294 l -0.05266,1.673621 0.215453,-0.152675 0.215453,-0.152674 -0.05347,-1.881171 z m 0.10979,-15.006148 c 0.05517,-0.05517 -0.156646,-6.689343 -0.225014,-7.047578 -0.06083,-0.318761 -0.06116,-0.318222 -0.07169,0.120075 -0.0058,0.24215 -0.06287,1.88117 -0.126782,3.642267 -0.06391,1.761096 -0.117127,3.251523 -0.118261,3.312061 -0.0015,0.08116 0.06474,0.09671 0.252261,0.0592 0.139879,-0.02798 0.270149,-0.06669 0.289489,-0.08603 l 0,0 z M 49.303903,41.98879 c 0,-0.17611 -0.03602,-0.3202 -0.08005,-0.3202 -0.04403,0 -0.08005,0.14409 -0.08005,0.3202 0,0.176109 0.03602,0.320199 0.08005,0.320199 0.04403,0 0.08005,-0.14409 0.08005,-0.320199 z m 21.509846,-0.180112 c -0.01908,-0.09906 -0.03469,-0.01801 -0.03469,0.180112 0,0.198123 0.01561,0.279173 0.03469,0.180112 0.01908,-0.09906 0.01908,-0.261163 0,-0.360224 z m -10.708746,-0.24015 c -0.0031,-0.05503 -0.03659,-0.172107 -0.07442,-0.260162 -0.05498,-0.127939 -0.06993,-0.133274 -0.07442,-0.02656 -0.0031,0.07345 -0.02749,0.190521 -0.05422,0.260162 -0.03188,0.08309 -0.0044,0.126622 0.08005,0.126622 0.07075,0 0.126107,-0.04503 0.123013,-0.100062 z m 0.221952,-6.079477 c 0.145186,-0.140719 0.263973,-0.280806 0.263973,-0.311305 0,-0.0305 -0.270168,-0.05545 -0.600373,-0.05545 -0.330206,0 -0.600374,0.0213 -0.600374,0.04733 0,0.08197 0.507862,0.575278 0.592253,0.575278 0.0443,0 0.199336,-0.115134 0.344521,-0.255852 z m -3.584477,-1.634655 -0.194066,-0.209461 0.280174,0.05534 c 0.154096,0.03044 0.345793,0.07391 0.425994,0.0966 0.0802,0.02269 -0.119355,-0.223147 -0.44346,-0.546312 -0.66222,-0.660306 -1.007159,-1.248305 -1.26074,-2.149117 -0.239699,-0.851494 -0.221889,-1.496384 0.06605,-2.39178 0.649355,-2.019247 2.032289,-3.085895 4.13417,-3.188659 1.025463,-0.05014 1.796741,0.115325 2.582922,0.554114 1.037682,0.579156 1.977599,1.845282 2.17994,2.936513 0.197612,1.065723 0.06799,1.953829 -0.43947,3.010955 -0.277595,0.578282 -0.457616,0.828261 -0.912284,1.266805 -0.601254,0.579932 -0.597616,0.593001 0.110885,0.398321 0.1442,-0.03962 0.140224,-0.02152 -0.04002,0.182247 l -0.200124,0.226239 0.280174,-0.227879 c 1.437585,-1.169253 2.085789,-3.034439 1.726407,-4.967677 -0.187514,-1.008697 -0.470857,-1.569057 -1.133761,-2.242209 -2.091402,-2.123734 -4.843032,-2.376319 -7.052667,-0.647399 -1.349609,1.055997 -1.97416,2.33876 -1.972022,4.050331 0.0018,1.419982 0.424317,2.451197 1.407072,3.433952 0.548314,0.548315 0.853069,0.788912 0.454827,0.359078 l 0,0 z m 4.278403,-1.711692 c 0.867852,-0.44113 1.386707,-1.341996 1.311628,-2.277325 -0.103885,-1.294195 -1.095238,-2.22562 -2.374608,-2.231063 -1.282578,-0.0055 -2.213241,0.911322 -2.310915,2.27644 -0.03213,0.449047 -0.0069,0.599629 0.160927,0.961887 0.24145,0.521066 0.776574,1.139376 1.171342,1.353431 0.431855,0.234164 1.502978,0.190425 2.041626,-0.08337 l 0,0 z"
     id="path4402"
     inkscape:connector-curvature="0" />
  <path
     style="fill:none;stroke:#a30075;stroke-width:1;stroke-miterlimit:4;stroke-opacity:1;stroke-dasharray:none"
     d="m 42.205731,77.11065 c 0.02657,-0.231144 0.07293,-0.808704 0.103033,-1.283466 0.0301,-0.474763 0.08129,-0.879621 0.113755,-0.899684 0.06652,-0.04111 1.59978,1.587469 1.595058,1.694219 -0.0095,0.215845 -1.369721,0.909192 -1.783609,0.909192 -0.0451,0 -0.0567,-0.172614 -0.02824,-0.420261 z"
     id="path4404"
     inkscape:connector-curvature="0" />
  <path
     style="fill:none;stroke:#a30075;stroke-width:1;stroke-miterlimit:4;stroke-opacity:1;stroke-dasharray:none"
     d="m 42.822746,76.390201 0.0029,-0.340211 0.197111,0.240149 c 0.181791,0.221484 0.1866,0.247927 0.06187,0.340212 -0.218801,0.161888 -0.264905,0.119606 -0.261861,-0.24015 z"
     id="path4406"
     inkscape:connector-curvature="0" />
  <path
     style="fill:none;stroke:#a30075;stroke-width:1;stroke-miterlimit:4;stroke-opacity:1;stroke-dasharray:none"
     d="M 59.754947,89.623454 C 59.632227,89.48785 59.627134,89.4304 59.714391,89.166008 l 0.09979,-0.302365 0.104667,0.397408 c 0.05757,0.218575 0.106257,0.424426 0.1082,0.457446 0.0065,0.10972 -0.129893,0.06209 -0.2721,-0.09504 z"
     id="path4408"
     inkscape:connector-curvature="0" />
  <path
     style="fill:none;stroke:#a30075;stroke-width:1;stroke-miterlimit:4;stroke-opacity:1;stroke-dasharray:none"
     d="m 29.027501,56.798007 c 0.05519,-3.450211 0.275417,-5.433136 0.986859,-8.88553 0.944598,-4.583822 1.968607,-7.88791 3.56012,-11.48715 0.725508,-1.640751 2.019593,-4.17056 2.094876,-4.095276 0.01961,0.01961 -0.232192,0.570829 -0.559552,1.224939 -2.462422,4.920242 -3.603281,8.082543 -4.616581,12.796515 -0.856407,3.984089 -1.322002,7.728354 -1.473205,11.847374 -0.01455,0.396247 -0.01118,-0.234146 0.0075,-1.400872 z"
     id="path4410"
     inkscape:connector-curvature="0" />
  <path
     style="fill:none;stroke:none;stroke-width:0;stroke-miterlimit:4;stroke-opacity:1;stroke-dasharray:none;fill-opacity:1"
     d="M 59.069982,106.93594 C 53.19156,106.71501 47.441453,104.29963 42.379593,99.924994 41.304755,98.99608 39.251699,96.90742 38.346828,95.822296 34.643422,91.381159 31.645646,85.859539 29.648329,79.800482 28.403182,76.023207 27.568618,72.287211 27.058102,68.205107 26.66672,65.075602 26.611532,64.061593 26.611532,60 c 0,-4.061593 0.05519,-5.075602 0.44657,-8.205107 1.346461,-10.766343 5.297635,-20.432653 11.288726,-27.617189 0.904871,-1.085124 2.957927,-3.17378 4.032765,-4.102694 4.118526,-3.559376 8.53377,-5.759846 13.288271,-6.62261 1.611576,-0.29244 2.586455,-0.377599 4.322691,-0.377599 1.682957,0 2.680699,0.08241 4.202615,0.347143 6.551767,1.139637 12.858845,5.102591 17.818594,11.196034 6.927512,8.510996 10.976061,20.310339 11.391697,33.200664 0.329732,10.226186 -1.616699,20.029524 -5.646244,28.4377 -5.360915,11.186259 -14.025758,18.658988 -23.564047,20.322098 -1.569678,0.27369 -3.594185,0.41496 -5.123188,0.3575 l 0,0 z m 3.077771,-2.35654 c 2.900593,-0.29463 5.89883,-1.22446 8.588341,-2.66349 1.194025,-0.63886 1.602993,-0.89098 2.754576,-1.69811 C 81.650067,94.498944 87.378358,84.835519 89.999663,72.367698 90.9609,67.795729 91.139568,65.445506 91.065212,58.351293 91.017425,53.79201 90.978625,53.22593 90.526702,50.494665 88.717395,39.559843 84.987204,31.309403 78.718295,24.376819 74.177232,19.355005 67.806145,15.872433 62.327652,15.417343 c -1.997958,-0.165967 -4.864301,-0.07608 -6.339589,0.198807 -3.094877,0.576661 -6.521752,2.081403 -9.496542,4.169936 -3.926113,2.756435 -7.546421,6.765493 -10.326756,11.435647 -0.509471,0.855764 -0.597861,1.052307 -0.498301,1.108023 0.06656,0.03725 0.131522,0.05542 0.14435,0.04038 0.01283,-0.01504 0.266139,-0.459619 0.562916,-0.987948 3.972775,-7.072436 10.49785,-12.726871 17.131277,-14.845451 1.904958,-0.608405 3.269217,-0.765219 6.605622,-0.759279 3.341618,0.0059 4.477999,0.146583 6.524061,0.807392 1.33986,0.43273 2.205222,0.787271 3.521029,1.442575 6.147317,3.061515 11.291583,8.649757 15.169409,16.478607 3.606745,7.281572 5.60112,16.342267 5.602737,25.453943 7.2e-4,4.116638 -0.315744,7.573331 -1.048034,11.447125 -1.78919,9.464781 -5.342711,17.241393 -10.644417,23.294499 -4.28244,4.889379 -9.212797,8.000391 -14.573005,9.195451 -1.456363,0.32469 -2.330624,0.39656 -4.912004,0.4038 -1.998969,0.006 -2.542379,-0.018 -3.242018,-0.14099 -3.501709,-0.6154 -6.50381,-1.85533 -9.646004,-3.98401 -5.0655,-3.431636 -9.22636,-8.557175 -12.406406,-15.282797 -3.483605,-7.367633 -5.311214,-15.641656 -5.352603,-24.23251 -0.0094,-1.941266 -0.03446,-2.501454 -0.112114,-2.501557 -0.07796,-8e-5 -0.09997,0.561261 -0.09965,2.54145 6.4e-4,3.956988 0.158407,6.283043 0.602182,8.878398 1.49527,8.744856 3.960025,15.311867 7.941963,21.160298 5.157571,7.575131 11.271453,12.050758 18.654921,13.656208 0.51592,0.11218 1.226214,0.23505 1.578434,0.27304 0.742011,0.08 3.318651,0.0289 4.478643,-0.089 z m 0.427563,-3.35652 c 4.349747,-0.46346 8.993963,-2.90335 12.870098,-6.761431 4.512196,-4.491183 8.011966,-10.727876 10.196977,-18.17131 0.775255,-2.640976 1.551021,-6.225784 1.758293,-8.125057 0.353259,-3.236983 0.504634,-9.088529 0.327189,-12.647872 C 87.463395,50.212082 86.284743,44.752201 84.289004,39.587295 80.34995,29.393159 73.735189,22.133102 66.063711,19.584057 c -2.252672,-0.748509 -4.043196,-1.008281 -6.540189,-0.948861 -3.19047,0.07592 -5.731946,0.740654 -8.698672,2.275169 -8.531236,4.412711 -15.044324,14.608984 -17.682814,27.682535 -0.846826,4.195965 -1.054955,7.320556 -0.895798,13.448371 0.121446,4.675847 0.320006,6.750082 0.931048,9.726053 1.684888,8.205945 4.946249,15.270386 9.55305,20.69288 2.608072,3.069862 5.442749,5.3474 8.654862,6.953792 1.90337,0.951884 3.653161,1.507514 5.563463,1.766634 0.97658,0.13247 4.529575,0.15915 5.626655,0.0423 z"
     id="path4412"
     inkscape:connector-curvature="0" />
  <path
     style="fill:none;stroke:none"
     d=""
     id="path4414"
     inkscape:connector-curvature="0" />
  <path
     style="fill:none;stroke:none"
     d="M 57.468985,106.8094 C 47.950797,105.60446 39.730698,99.452191 33.77259,89.074024 28.541043,79.961419 25.884083,67.325608 26.73336,55.59726 27.73653,41.743672 32.635986,29.837278 40.650427,21.776755 c 4.24933,-4.273763 9.314452,-7.111505 14.711006,-8.241862 2.444836,-0.512093 6.877015,-0.504373 9.312036,0.01622 9.254507,1.978555 17.210879,8.750905 22.500257,19.151898 4.157982,8.17622 6.175407,17.093793 6.175407,27.29699 0,10.203197 -2.017425,19.12077 -6.175407,27.29699 -5.270317,10.363511 -13.29393,17.20928 -22.420207,19.12898 -1.565642,0.32933 -5.906852,0.55784 -7.284534,0.38343 z m 3.784352,-2.13992 c 3.505672,-0.27269 6.120712,-1.00898 9.183719,-2.58574 C 79.346479,97.497369 86.236751,87.677334 89.405847,75.049367 90.889077,69.139104 91.147885,66.533404 91.046996,58.5261 90.968032,52.258926 90.863464,51.289458 89.719612,46.219673 87.621295,36.9195 83.379919,28.869528 77.614428,23.244485 c -2.737746,-2.671053 -4.80786,-4.167616 -7.73772,-5.593886 -3.488565,-1.69825 -6.139684,-2.317113 -9.926178,-2.317113 -3.72688,0 -6.431756,0.619942 -9.766079,2.238327 -5.373649,2.608216 -10.829063,7.929719 -14.145251,13.79803 -0.940651,1.664573 -0.248569,1.108309 0.788489,-0.633752 1.554201,-2.61076 3.20168,-4.698133 5.587304,-7.079173 3.081279,-3.075356 6.218243,-5.19411 9.724294,-6.56794 2.740749,-1.073949 3.581444,-1.197829 8.051392,-1.186412 3.722546,0.0095 3.999952,0.03141 5.443388,0.429766 6.385904,1.762365 12.081942,6.169452 16.46622,12.740095 4.572649,6.852954 7.127766,14.102619 8.369925,23.748096 0.397364,3.085571 0.483986,10.420004 0.156643,13.263264 -1.123588,9.759336 -4.006993,18.183527 -8.466355,24.735395 -4.977605,7.313291 -11.578845,12.055438 -18.367579,13.194738 -1.707287,0.28652 -4.735741,0.37489 -6.403986,0.18685 -12.793507,-1.44199 -23.902363,-14.907923 -27.284606,-33.073845 -0.565565,-3.037629 -0.835962,-5.80167 -0.927977,-9.485904 -0.05647,-2.260853 -0.148735,-3.562217 -0.252568,-3.562217 -0.236325,0 -0.01946,7.486881 0.282362,9.748141 1.518677,11.377925 5.484608,20.532983 12.053739,27.825165 4.30122,4.77465 10.367254,8.15779 16.13242,8.99735 1.314026,0.19135 1.636886,0.19303 3.861032,0.02 l 0,0 z m 3.953237,-3.9065 c 4.49633,-1.348192 8.278524,-3.935509 12.078654,-8.262752 5.325383,-6.06406 9.440112,-16.425272 10.299972,-25.936142 0.30461,-3.369282 0.257253,-11.803984 -0.08,-14.248869 -0.880631,-6.384039 -2.511637,-11.829403 -5.083055,-16.970563 -2.126437,-4.251489 -4.193291,-7.105362 -7.362739,-10.166327 -3.388777,-3.272788 -7.04292,-5.31694 -11.209166,-6.270481 -1.474381,-0.337447 -5.838882,-0.382643 -7.261801,-0.0752 -6.762769,1.4612 -12.36241,5.701746 -16.93298,12.823158 -3.825596,5.960666 -6.615846,14.450507 -7.316052,22.260408 -0.369518,4.121503 -0.125568,12.203023 0.48328,16.009965 0.421537,2.635746 1.546444,6.962431 2.480016,9.538782 4.111466,11.346294 12.037556,19.713306 20.405188,21.54031 1.145606,0.25013 1.89262,0.28799 4.72294,0.23936 3.078472,-0.0529 3.481346,-0.0935 4.775745,-0.48165 z"
     id="path4416"
     inkscape:connector-curvature="0" />
  <path
     style="fill:none;stroke:none"
     d="m 32.2968,80.46934 c -0.893835,-2.410571 -1.7491,-5.598298 -2.401404,-8.950472 -0.764437,-3.928417 -0.911445,-5.568896 -0.94284,-10.521226 -0.01458,-2.299112 -0.01133,-2.667453 0.02347,-2.667453 0.03451,0 0.04057,0.249858 0.04174,1.719339 0.0017,2.158016 0.07487,3.819734 0.253243,5.752359 0.473737,5.132928 1.534446,9.923516 3.247598,14.667453 l 0.130312,0.360849 -0.109158,0 -0.109158,0 -0.133803,-0.360849 0,0 z"
     id="path4418"
     inkscape:connector-curvature="0" />
  <path
     style="fill:none;stroke:none"
     d="M 29.931014,80.752358 C 29.864307,80.580625 29.391887,79.142847 29.245188,78.665094 27.925286,74.366578 27.053642,69.696388 26.709702,65.080189 26.564108,63.126089 26.526831,62.090517 26.526831,60 c 0,-2.090517 0.03728,-3.126089 0.182871,-5.080189 0.311341,-4.17867 1.066288,-8.467245 2.177211,-12.367924 0.274176,-0.962689 0.348448,-1.203437 0.726874,-2.356132 l 0.327523,-0.997642 2.980384,0 2.980384,0 -0.07211,0.176887 c -0.782948,1.920613 -1.74238,5.053745 -2.31616,7.563679 -0.677663,2.964355 -1.040101,5.383001 -1.204469,8.037736 -0.107183,1.731125 -0.105246,6.403915 0.0037,8.957547 0.164636,3.858524 0.421018,5.888264 1.131451,8.957547 0.664656,2.871518 1.488555,5.576157 2.37305,7.790095 l 0.05936,0.148585 -1.595875,0 -1.595875,0 -0.02821,-0.07783 c -1.3435,-3.70646 -2.166483,-6.81054 -2.778231,-10.478773 -0.575331,-3.449871 -0.822778,-6.468412 -0.832903,-10.160377 l -0.0049,-1.79717 -0.06688,-0.0096 -0.06688,-0.0096 0.01756,2.684119 c 0.02159,3.300077 0.07436,4.562885 0.262327,6.278458 0.275519,2.514594 1.031572,6.342849 1.822152,9.226415 0.345165,1.258956 0.913923,3.059802 1.284915,4.068396 l 0.101501,0.275944 -1.217174,0 -1.217173,0 -0.03023,-0.07783 z"
     id="path4420"
     inkscape:connector-curvature="0" />
  <path
     style="fill:none;stroke:none"
     d="m 32.2968,80.46934 c -0.893835,-2.410571 -1.7491,-5.598298 -2.401404,-8.950472 -0.764437,-3.928417 -0.911445,-5.568896 -0.94284,-10.521226 -0.01458,-2.299112 -0.01133,-2.667453 0.02347,-2.667453 0.03451,0 0.04057,0.249858 0.04174,1.719339 0.0017,2.158016 0.07487,3.819734 0.253243,5.752359 0.473737,5.132928 1.534446,9.923516 3.247598,14.667453 l 0.130312,0.360849 -0.109158,0 -0.109158,0 -0.133803,-0.360849 0,0 z"
     id="path4422"
     inkscape:connector-curvature="0" />
  <path
     style="fill:none;stroke:none"
     d="M 29.931014,80.752358 C 29.864307,80.580625 29.391887,79.142847 29.245188,78.665094 27.925286,74.366578 27.053642,69.696388 26.709702,65.080189 26.564108,63.126089 26.526831,62.090517 26.526831,60 c 0,-2.090517 0.03728,-3.126089 0.182871,-5.080189 0.311341,-4.17867 1.066288,-8.467245 2.177211,-12.367924 0.274176,-0.962689 0.348448,-1.203437 0.726874,-2.356132 l 0.327523,-0.997642 2.980384,0 2.980384,0 -0.07211,0.176887 c -0.782948,1.920613 -1.74238,5.053745 -2.31616,7.563679 -0.677663,2.964355 -1.040101,5.383001 -1.204469,8.037736 -0.107183,1.731125 -0.105246,6.403915 0.0037,8.957547 0.164636,3.858524 0.421018,5.888264 1.131451,8.957547 0.664656,2.871518 1.488555,5.576157 2.37305,7.790095 l 0.05936,0.148585 -1.595875,0 -1.595875,0 -0.02821,-0.07783 c -1.3435,-3.70646 -2.166483,-6.81054 -2.778231,-10.478773 -0.575331,-3.449871 -0.822778,-6.468412 -0.832903,-10.160377 l -0.0049,-1.79717 -0.06688,-0.0096 -0.06688,-0.0096 0.01756,2.684119 c 0.02159,3.300077 0.07436,4.562885 0.262327,6.278458 0.275519,2.514594 1.031572,6.342849 1.822152,9.226415 0.345165,1.258956 0.913923,3.059802 1.284915,4.068396 l 0.101501,0.275944 -1.217174,0 -1.217173,0 -0.03023,-0.07783 z"
     id="path4424"
     inkscape:connector-curvature="0" />
  <path
     style="fill:none;stroke:#a30075;stroke-opacity:1"
     d="M 57.698496,106.8359 C 52.69942,106.30305 47.977502,104.31293 43.55087,100.8732 41.943783,99.624401 39.190054,96.868325 37.798387,95.11581 30.285929,85.655435 26.285153,72.573378 26.60603,58.518142 c 0.193502,-8.475897 1.831665,-16.153658 4.963747,-23.26415 4.860176,-11.033634 13.012476,-18.914174 22.075487,-21.339595 2.244305,-0.600616 3.709201,-0.785199 6.260779,-0.788886 3.253887,-0.0047 5.223569,0.321692 8.206002,1.359808 4.475718,1.557896 8.260791,4.10546 12.107754,8.149192 6.681814,7.023584 11.369688,17.83797 12.73327,29.374198 0.663377,5.612333 0.602775,11.971378 -0.164315,17.241389 -1.726541,11.861576 -6.51928,22.190106 -13.49832,29.089375 -5.714548,5.649227 -12.475587,8.627787 -19.423079,8.556777 -0.974947,-0.01 -1.950935,-0.0371 -2.168859,-0.0603 z m 5.716981,-2.4104 c 5.677123,-0.96599 10.623085,-3.79384 15.320664,-8.759554 5.293213,-5.595352 9.242024,-13.693753 11.213355,-22.99686 0.930695,-4.392134 1.036324,-5.49537 1.110995,-11.603774 0.07129,-5.831409 -0.01719,-7.468871 -0.586517,-10.854603 C 89.451542,44.130369 88.060563,39.559803 85.822967,34.928142 81.050493,25.049468 73.775235,18.278008 65.44674,15.962928 63.64652,15.46252 62.906931,15.385896 59.906043,15.3889 c -3.040217,0.003 -3.704548,0.07695 -5.62469,0.625787 -4.60944,1.317512 -8.757805,3.939098 -12.661728,8.001662 -2.263015,2.354974 -4.000268,4.70292 -6.065344,8.197479 -0.02374,0.04017 0.03027,0.101221 0.120017,0.135661 0.114549,0.04396 0.317994,-0.22139 0.682648,-0.890356 1.299416,-2.383811 3.227656,-4.980309 5.330377,-7.177689 4.052307,-4.234736 9.395433,-7.426672 13.750511,-8.214434 1.606249,-0.290545 6.050529,-0.363832 8.034247,-0.132486 2.293734,0.2675 4.439911,0.967596 7.034157,2.294586 8.531353,4.363894 15.49079,14.360833 18.550852,26.647523 2.546645,10.225225 2.485475,20.73538 -0.179869,30.90566 -2.557565,9.759015 -7.435606,17.79367 -14.029291,23.107742 -3.771649,3.039695 -8.154876,4.912245 -12.442049,5.315325 -2.036347,0.19146 -5.327483,0.0784 -6.801725,-0.23362 -2.411922,-0.51051 -5.298916,-1.67699 -7.622908,-3.08002 C 45.63246,99.473724 42.497292,96.760685 40.550579,94.461538 37.2315,90.541573 34.236664,85.151247 32.342456,79.687954 30.23972,73.623223 29.253546,67.900628 29.104725,60.899973 c -0.03171,-1.491881 -0.0767,-2.731547 -0.09997,-2.754814 -0.259464,-0.259464 -0.08369,7.414603 0.223762,9.76921 0.641031,4.909291 2.245192,10.979675 3.970739,15.025861 2.047113,4.800216 4.782221,9.086306 8.155389,12.780018 4.336905,4.749032 9.769778,7.830642 15.664604,8.885212 1.211959,0.21681 4.629475,0.12066 6.396226,-0.17996 z m 0.169811,-3.32602 c 1.315549,-0.22147 3.315914,-0.8835 4.811321,-1.592322 2.677139,-1.268961 4.679824,-2.733541 7.191237,-5.259009 2.868508,-2.884562 4.879453,-5.720692 6.881538,-9.705358 2.328758,-4.63483 4.461734,-11.810488 4.993303,-16.798234 0.390765,-3.666592 0.430901,-12.157838 0.0713,-15.084288 -1.165952,-9.488532 -4.550361,-18.069607 -9.616063,-24.38126 -4.002743,-4.98725 -8.894544,-8.214206 -14.162823,-9.342735 -1.101707,-0.235999 -1.538963,-0.266478 -3.792453,-0.26435 -2.214434,0.0021 -2.698769,0.03562 -3.707687,0.256672 -2.736773,0.599624 -5.25248,1.678889 -7.677101,3.293561 -7.600045,5.061231 -13.324572,14.978197 -15.555012,26.946945 -0.693682,3.722363 -0.739917,4.389208 -0.734546,10.594323 0.0064,7.433936 0.212746,9.517483 1.419261,14.333073 1.020258,4.072175 2.106523,7.033801 3.836294,10.45938 2.743557,5.433245 6.186617,9.693765 10.262578,12.699143 3.183943,2.347656 6.46362,3.680699 9.948666,4.043679 0.908447,0.0946 4.8937,-0.0416 5.830188,-0.19922 z"
     id="path4426"
     inkscape:connector-curvature="0" />
</svg>
