<?xml version="1.0" encoding="UTF-8" standalone="no"?>
<!-- Created with Inkscape (http://www.inkscape.org/) -->
<svg id="svg8708" xmlns:rdf="http://www.w3.org/1999/02/22-rdf-syntax-ns#" xmlns="http://www.w3.org/2000/svg" height="120" width="120" version="1.0" xmlns:cc="http://creativecommons.org/ns#" xmlns:dc="http://purl.org/dc/elements/1.1/">
 <metadata id="metadata6">
  <rdf:RDF>
   <cc:Work rdf:about="">
    <dc:format>image/svg+xml</dc:format>
    <dc:type rdf:resource="http://purl.org/dc/dcmitype/StillImage"/>
   </cc:Work>
  </rdf:RDF>
 </metadata>
 <path id="path8720" d="m60 13.5c-9.333 0-17.679 5.461-23.562 13.906-5.884 8.446-9.438 19.935-9.438 32.594s3.554 24.148 9.438 32.594c5.883 8.446 14.229 13.906 23.562 13.906s17.679-5.46 23.562-13.906c5.884-8.446 9.438-19.935 9.438-32.594s-3.554-24.148-9.438-32.594c-5.883-8.445-14.229-13.906-23.562-13.906zm0 4c7.779 0 14.943 4.524 20.281 12.188 5.339 7.663 8.719 18.407 8.719 30.312s-3.38 22.649-8.719 30.312c-5.338 7.664-12.502 12.188-20.281 12.188s-14.943-4.524-20.281-12.188c-5.339-7.663-8.719-18.407-8.719-30.312s3.38-22.649 8.719-30.312c5.338-7.664 12.502-12.188 20.281-12.188zm0 5.5c-3.842 0-7 3.158-7 7 0 3.133 2.111 5.805 4.969 6.688l-0.094 3.312h-10.375v4h10.25l-1.188 42.656c-4.607-0.949-8.545-3.77-10.968-7.625l3.406-1.531-9-9.5-1 14 4.125-1.875c1.982 4.764 5.194 8.369 9.469 10.563 1.415 0.725 2.86 1.208 4.312 1.5l0.594 4.812h5l0.594-4.781c5.738-1.155 10.916-5.502 13.75-12.094l4.156 1.875-1-14-9 9.5 3.375 1.531c-2.421 3.855-6.336 6.644-10.937 7.594l-1.188-42.625h10.25v-4h-10.375l-0.094-3.312c2.858-0.883 4.969-3.555 4.969-6.688 0-3.842-3.158-7-7-7zm0 4c1.678 0 3 1.322 3 3s-1.322 3-3 3-3-1.322-3-3 1.322-3 3-3z" stroke="#a30075" fill="none"/>
 <path id="path3169" d="m58.121 102.24c-5.145-0.52-9.464-2.661-13.898-6.895-6.611-6.313-11.056-16.086-12.616-27.737-0.516-3.851-0.517-11.361-0.003-15.17 2.037-15.098 8.848-26.858 18.705-32.301 4.98-2.75 11.316-3.207 16.699-1.204 6.715 2.498 12.582 8.456 16.604 16.863 3.53 7.38 5.19 15.135 5.186 24.225-0.005 10.571-2.473 20.159-7.193 27.947-5.992 9.886-14.678 15.162-23.484 14.272zm4.494-5.595c0.061-0.218 0.174-1.007 0.251-1.754 0.268-2.585 0.244-2.541 1.655-2.952 4.787-1.391 9.232-5.346 11.824-10.52 0.281-0.561 0.534-1.047 0.563-1.08 0.029-0.034 0.948 0.35 2.043 0.853 1.095 0.504 2.029 0.877 2.076 0.83 0.117-0.117-0.865-13.819-1-13.962-0.107-0.113-5.189 5.097-7.784 7.981l-1.375 1.527 1.545 0.694c0.851 0.381 1.589 0.736 1.642 0.789 0.21 0.21-1.292 2.05-2.795 3.422-1.686 1.539-5.329 3.541-6.969 3.828l-0.849 0.149v-1.969c0-2.337-0.826-32.825-1.011-37.307l-0.128-3.114h5.098 5.097v-2.037-2.038h-5.065-5.064l-0.141-0.849c-0.326-1.975-0.232-2.278 0.874-2.798 1.471-0.691 3.115-2.584 3.61-4.155 0.524-1.668 0.405-3.709-0.301-5.165-2.617-5.396-10.371-5.351-12.806 0.075-1.327 2.956-0.519 6.421 1.953 8.375 0.624 0.493 1.38 0.958 1.679 1.033 0.513 0.129 0.544 0.232 0.544 1.81v1.674h-5.207-5.208v2.038 2.037h5.094 5.095l-0.006 2.208c-0.011 4.516-1.092 39.946-1.222 40.077-0.226 0.225-2.638-0.613-4.195-1.458-2.504-1.359-4.659-3.268-5.958-5.279l-0.366-0.566 1.573-0.68c0.865-0.373 1.547-0.794 1.515-0.934-0.063-0.275-8.821-9.624-8.921-9.524-0.08 0.08-0.986 12.424-0.986 13.427v0.773l0.736-0.318c0.404-0.176 1.321-0.583 2.036-0.906l1.3-0.586 0.712 1.411c2.619 5.195 7.058 8.981 12.118 10.336l0.94 0.251 0.282 2.375 0.281 2.375h2.556c2.241 0 2.569-0.049 2.665-0.397z" stroke="#a30075" fill="none"/>
 <path id="path3219" d="m59.198 32.814c-0.77-0.16-1.834-1.353-2.001-2.244-0.189-1.007 0.281-2.282 1.057-2.86 1.868-1.395 4.57-0.028 4.57 2.313 0 1.851-1.733 3.185-3.626 2.791z" stroke="#a30075" fill="none"/>
 <path id="path4370" d="m57.399 105.71c-5.297-0.56-10.802-3.31-15.403-7.711-6.856-6.555-11.603-16.174-13.443-27.244-3.142-18.902 2.098-37.908 13.443-48.754 2.4725-2.3637 4.545-3.8307 7.5295-5.3296 9.4124-4.7272 20.039-2.7385 28.478 5.3296 6.8564 6.5548 11.603 16.174 13.443 27.244 3.1423 18.902-2.0984 37.908-13.443 48.754-4.7496 4.5407-10.055 7.1424-15.758 7.7277-1.2616 0.12946-2.4613 0.22183-2.666 0.20527-0.20473-0.0165-1.1861-0.11577-2.1807-0.22046zm6.7449-3.0495c8.33-1.82 15.432-8.235 20.166-18.212 8.512-17.939 6.476-42.293-4.741-56.712-5.487-7.053-12.222-10.755-19.569-10.755-6.0806 0-11.537 2.4156-16.495 7.3025-13.684 13.488-17.182 40.422-7.8147 60.165 4.6669 9.8356 11.593 16.182 19.781 18.126 2.2227 0.5278 6.4654 0.57067 8.6723 0.0876z" stroke="#a30075" fill="none"/>
 <path id="path4372" d="m57.748 94.091-0.28-2.361-1.621-0.49c-4.897-1.479-9.053-5.121-11.559-10.127-0.45195-0.90283-0.9167-1.6415-1.0328-1.6415-0.11606 0-0.98374 0.35214-1.9282 0.78252l-1.7171 0.78252 0.12397-1.0655c0.06818-0.58605 0.27238-3.1432 0.45377-5.6826s0.35776-4.6379 0.39194-4.6633c0.07834-0.05818 7.0576 7.3405 7.1467 7.5762 0.03613 0.09556-0.60066 0.45694-1.4151 0.80308-0.81443 0.34614-1.4808 0.72569-1.4808 0.84344 0 0.28527 0.76944 1.3762 1.9997 2.8353 1.2265 1.4546 3.2759 3.0229 5.2455 4.0142 1.8956 0.95408 4.7656 1.8211 4.9642 1.4998 0.08048-0.13022 0.37529-8.9774 0.65513-19.66s0.57032-20.468 0.6455-21.744l0.1367-2.3208h-5.2384-5.2384v-1.472-1.4717h5.1748 5.1748l0.144-1.528c0.2547-2.6968 0.27272-2.6363-0.94932-3.1886-1.2863-0.58134-2.6003-1.821-3.2799-3.0944-0.69079-1.2944-0.68719-4.1516 0.0068-5.434 2.2013-4.0671 7.2589-4.816 10.369-1.5354 1.1943 1.2596 1.5775 2.2924 1.5775 4.2524 0 1.4156-0.10558 2.0092-0.48333 2.717-0.67958 1.2734-1.9936 2.5131-3.2799 3.0944-1.222 0.552-1.204 0.491-0.949 3.188l0.14434 1.5283h5.1748 5.1748v1.472 1.4717h-5.2043-5.2043l0.13654 4.1321c0.0751 2.2726 0.35414 12.097 0.6201 21.831 0.26596 9.7344 0.53852 17.754 0.60569 17.821 0.23499 0.23499 2.836-0.57724 4.6742-1.4597 2.3697-1.1375 4.8405-3.1334 6.3532-5.1318 0.65377-0.86376 1.1887-1.6665 1.1887-1.7839s-0.66644-0.50378-1.481-0.85863c-0.81454-0.35485-1.4513-0.72593-1.4151-0.82462 0.08724-0.2376 7.0667-7.6324 7.1469-7.5722 0.03418 0.02568 0.21055 2.1244 0.39194 4.6638s0.38558 5.0966 0.45377 5.6826l0.12397 1.0655-1.7171-0.78252c-0.94443-0.43039-1.8469-0.78252-2.0055-0.78252-0.15861 0-0.53068 0.53491-0.82683 1.1887-2.4024 5.3034-7.1827 9.4796-12.366 10.803l-0.9402 0.24009-0.28142 2.3746-0.28142 2.3746h-1.9719-1.9719l-0.27987-2.3615zm4.233-61.069c0.872-0.539 1.632-1.946 1.632-3.022 0-1.0759-0.75964-2.4827-1.6316-3.0216-1.0756-0.66476-2.8867-0.66476-3.9623 0-0.8496 0.52508-1.6283 1.9337-1.6365 2.9604-0.0087 1.0785 0.68488 2.4294 1.5486 3.0163 1.0866 0.7384 2.9145 0.7684 4.0502 0.06649z" stroke="#a30075" fill="none"/>
 <path id="path4374" d="m58.574 95.614c-0.05901-0.09906-0.17987-1.015-0.26859-2.0355-0.08872-1.0204-0.27856-1.9951-0.42187-2.1659s-0.87189-0.49297-1.6191-0.71593c-4.5033-1.3438-8.4605-4.6461-11.057-9.227-1.7137-3.0235-1.4672-2.8599-3.2457-2.1543-0.83387 0.33084-1.5381 0.57774-1.565 0.54867-0.02688-0.02908 0.1135-2.034 0.31196-4.4553l0.36084-4.4025 2.7825 2.9308c1.5304 1.6119 2.7841 2.9917 2.7861 3.0662 0.002 0.07448-0.4009 0.31784-0.89532 0.54079-0.49442 0.22296-1.0618 0.58534-1.2609 0.8053-0.33261 0.36753-0.32576 0.47045 0.08454 1.2705 0.95222 1.8568 3.6035 4.4712 6.0156 5.932 2.268 1.3735 5.8784 2.5744 6.7427 2.2427 0.39867-0.15298 0.4046-0.28428 1.086-24.059 0.24268-8.4679 0.50364-16.644 0.5799-18.17l0.13866-2.7736h-5.2249-5.2249v-0.79245-0.79245h5.0943c2.8019 0 5.0961-0.02547 5.0984-0.0566 0.0022-0.03113 0.09712-0.94125 0.21091-2.0225 0.28162-2.676 0.143-3.0691-1.4002-3.9708-0.69808-0.4079-1.6296-1.1627-2.0701-1.6773-1.6587-1.9378-1.6475-4.969 0.02556-6.943 2.2724-2.681 5.8115-2.8574 8.4-0.41868 0.98393 0.92696 1.3369 1.6303 1.5233 3.0357 0.33308 2.5109-0.77425 4.56-3.2442 6.0032-1.5432 0.90172-1.6818 1.2948-1.4002 3.9708 0.11379 1.0812 0.2087 1.9913 0.21091 2.0225 0.0022 0.03113 2.2965 0.0566 5.0984 0.0566h5.0943v0.79245 0.79245h-5.2085-5.2085l0.12422 2.5472c0.06832 1.4009 0.2715 7.8453 0.45151 14.321 0.18001 6.4755 0.44942 15.467 0.5987 19.981l0.27141 8.2075h0.70868c1.772 0 5.6916-1.7036 7.98-3.4684 1.4507-1.1188 3.4599-3.1711 3.8885-3.972 0.50949-0.952 0.5109-0.32077 0.0016 0.68268-2.3211 4.5724-6.5558 8.2056-11.192 9.6027-0.74717 0.22513-1.4578 0.49478-1.5793 0.59921-0.12142 0.10443-0.32536 1.1298-0.45318 2.2785l-0.23242 2.0887-1.395 0.0669c-0.76726 0.03679-1.4433-0.01415-1.5023-0.11321h-0.000059zm2.6716-61.674c1.2594-0.34178 2.32-1.429 2.7253-2.7936 0.92549-3.1165-1.7609-5.8302-5.046-5.0975-1.4199 0.31673-2.4653 1.3354-2.898 2.8238-0.29305 1.0081-0.2926 1.2784 0.0038 2.2766 0.38853 1.3083 1.2792 2.2617 2.529 2.7073 1.0759 0.38355 1.528 0.39758 2.6859 0.08335z" stroke="#a30075" fill="none"/>
 <path id="path4376" d="m57.623 105.15c-6.752-1-12.834-4.57-17.728-10.395-5.226-6.223-8.537-13.36-10.34-22.283-0.969-4.801-1.136-6.678-1.13-12.698 0.0068-6.1617 0.23074-8.3611 1.3805-13.559 3.5397-16.003 13.659-28.262 25.553-30.955 2.3408-0.5301 6.7999-0.53585 9.1213-0.01177 5.7804 1.305 11.281 4.8244 15.625 9.9979 6.0617 7.2182 9.5747 15.726 11.173 27.057 0.46346 3.2864 0.39703 13.008-0.11138 16.302-2.311 14.97-8.7559 26.433-18.35 32.638-3.728 2.4109-7.917 3.7631-12.137 3.9178-1.3075 0.0479-2.683 0.042-3.0566-0.0133v-0.00001zm7.4381-2.1539c17.882-4.445 28.988-30.395 23.794-55.607-3.266-15.855-12.678-27.855-23.874-30.44-3.1167-0.71957-7.6503-0.64914-10.755 0.16707-2.3122 0.60793-6.5962 2.8571-8.7403 4.5887-9.7579 7.881-15.606 22.298-15.597 38.452 0.0069 12.684 3.7117 24.353 10.451 32.918 6.5654 8.3432 15.924 12.096 24.721 9.9133z" stroke="#a30075" fill="none"/>
 <path id="path4378" d="m78 79.336c-0.91293-0.38269-1.4686-0.5022-1.6943-0.36436-0.2428 0.14828-0.39987 0.07347-0.56692-0.27002-0.12709-0.26132-0.76052-0.72984-1.4076-1.0412l-1.1765-0.56604 2.8921-3.0471 2.8921-3.0471 0.28027 3.7263c0.15415 2.0495 0.33635 4.0575 0.40488 4.4622 0.06854 0.40472 0.03686 0.73154-0.0704 0.72628-0.107-0.004-0.806-0.265-1.553-0.578z" stroke="#a30075" fill="none"/>
 <path id="path4380" d="m41.065 78.617c0.06085-0.21504 0.18012-1.6391 0.26503-3.1646s0.23246-2.7736 0.3279-2.7736c0.09543 0 1.0511 0.956 2.1236 2.1244l1.9501 2.1244-0.66056 0.27361c-0.36331 0.15049-0.83654 0.46808-1.0516 0.70575-0.2151 0.23768-0.56626 0.43214-0.78036 0.43214s-0.81575 0.15047-1.337 0.33437c-0.88034 0.3106-0.93985 0.30658-0.83708-0.0566z" stroke="#a30075" fill="none"/>
 <path id="path4382" d="m78 78.671c-0.37358-0.17106-0.90761-0.31562-1.1867-0.32123-0.27911-0.0056-0.95195-0.34949-1.4952-0.76416l-0.98773-0.75395 1.948-2.0844c1.0714-1.1464 2.0099-2.0807 2.0856-2.0762 0.07567 0.0045 0.20986 1.1503 0.29819 2.5463s0.21746 2.8224 0.28694 3.1698c0.14048 0.70238 0.03422 0.73416-0.94913 0.28388z" stroke="#a30075" fill="none"/>
 <path id="path4384" d="m77.432 77.902c-0.83271-0.2533-2.0363-0.90576-2.0363-1.1039 0-0.09445 0.553-0.71786 1.2289-1.3854l1.2289-1.2136 0.11833 0.76853c0.28451 1.8479 0.36964 3.1444 0.20527 3.1264-0.09768-0.0107-0.43299-0.09714-0.74511-0.19209z" stroke="#a30075" fill="none"/>
 <path id="path4390" d="m58.89 93.348c-0.14289-0.96074-0.40599-1.9699-0.58465-2.2426-0.20673-0.31551-0.97836-0.71342-2.1222-1.0943-2.1001-0.6994-4.0257-1.8142-6.0575-3.5068-1.4894-1.2408-1.8635-1.8858-0.48301-0.8329 1.7215 1.313 6.5617 3.0232 7.7279 2.7305 0.31672-0.07949 0.62483-0.3127 0.68469-0.51825 0.219-0.75201 0.38442-4.82 0.92669-22.789 0.3044-10.087 0.61694-19.384 0.69453-20.66l0.14107-2.3208-5.2859-0.04013-5.2859-0.04013 5.0233-0.13413c2.7628-0.07377 5.0792-0.19006 5.1476-0.25841 0.06836-0.06836 0.19142-1.2998 0.27348-2.7365l0.149-2.613-0.951-0.951-0.951-0.951 0.862 0.166c0.95023 0.1828 1.4007 0.17782 2.5158-0.02777l0.74848-0.138-0.95093 0.95093-0.95093 0.95093 0.14919 2.6122c0.08206 1.4367 0.20512 2.6681 0.27348 2.7365 0.06836 0.06835 2.3848 0.18464 5.1476 0.25841l5.0233 0.13413-5.2835 0.04013-5.2835 0.04013 0.1349 1.6415c0.07419 0.90283 0.38921 10.506 0.70004 21.34s0.62457 20.539 0.6972 21.566l0.13205 1.8679h0.72456c1.2601 0 3.3517-0.66115 5.5744-1.762 2.7627-1.3683 2.7007-1.3493 2.0377-0.62583-1.3302 1.4516-4.0645 3.0464-7.1711 4.1829-1.3663 0.4998-1.4027 0.53479-1.6285 1.5656-0.12704 0.57993-0.29401 1.5384-0.37103 2.1299-0.13942 1.0707-0.14385 1.0755-1.0043 1.0755h-0.86426l-0.25981-1.7468z" stroke="#a30075" fill="none"/>
 <path id="path4392" d="m59.474 93.267c-0.07481-0.63166-0.2643-1.5032-0.42108-1.9368-0.28048-0.77565-0.8502-1.1389-3.5814-2.2837-0.44657-0.18717-0.25541-0.21366 0.90566-0.1255 2.1192 0.1609 2.244-0.02516 2.4886-3.7105 0.10618-1.5995 0.36243-8.6648 0.56945-15.701 0.20702-7.0358 0.44727-12.98 0.53389-13.209 0.08662-0.22919 0.39059 6.938 0.6755 15.927 0.2849 8.9891 0.57688 16.497 0.64884 16.685 0.10579 0.27567 0.41714 0.31536 1.6261 0.20726 1.5844-0.14166 1.5536-0.09455-0.4958 0.75996-1.2439 0.51864-1.6026 1.1416-1.8619 3.2337-0.12719 1.026-0.24512 1.3019-0.55659 1.3019-0.30618 0-0.42584-0.25872-0.53122-1.1485z" stroke="#a30075" fill="none"/>
 <path id="path4394" d="m59.773 91.755c-0.0013-0.62574-0.82403-1.8118-1.3789-1.9879-0.46148-0.14647-0.47082-0.1797-0.10762-0.38296 0.80393-0.4499 1.0439-1.6573 1.2636-6.3571 0.11757-2.5156 0.21912-5.6437 0.22567-6.9513 0.02059-4.11 0.38416-1.9732 0.53936 3.1698 0.22888 7.5847 0.39716 9.9626 0.72844 10.294 0.2429 0.2429 0.21747 0.36588-0.14309 0.69219-0.24116 0.21825-0.50275 0.73943-0.5813 1.1582-0.14859 0.79204-0.54464 1.0568-0.54612 0.36514z" stroke="#a30075" fill="none"/>
 <path id="path4398" d="m56.943 103.76c-6.965-0.96-13.828-5.75-18.692-13.043-8.214-12.315-10.828-29.229-7.004-45.321 0.96507-4.0608 2.0721-7.0696 4.0818-11.094 2.2271-4.4601 4.1469-7.1994 7.2371-10.326 3.4469-3.488 7.8496-6.1761 11.887-7.2575 2.6499-0.70981 8.499-0.71148 11.074-0.0031 7.9233 2.1799 14.556 8.2997 19.333 17.84 4.7264 9.4375 6.6626 22.128 5.1082 33.483-1.6219 11.849-5.9839 21.458-12.821 28.247-3.9893 3.9607-8.378 6.3838-13.261 7.3215-1.5312 0.29407-5.3308 0.38015-6.9423 0.15728zm8.5926-2.6549c10.961-3.2661 19.596-15.699 22.213-31.984 0.49358-3.0711 0.68533-11.719 0.3412-15.389-0.511-5.454-1.784-10.562-3.897-15.638-4.593-11.038-12.544-18.441-21.223-19.762-13.659-2.079-26.3 10.46-30.259 30.012-0.87668 4.3298-1.0747 7.1109-0.9506 13.349 0.11993 6.0272 0.49578 8.8396 1.8524 13.862 3.0214 11.185 9.585 20.3 17.444 24.227 3.1452 1.5714 5.7247 2.1163 9.5094 2.0088 2.3614-0.0671 3.3441-0.20302 4.97-0.68749z" stroke="#a30075" fill="none"/>
 <path id="path4400" d="m77.401 77.316c-0.45104-0.15804-1.2007-0.54479-1.2007-0.61943 0-0.04955 0.28818-0.37658 0.6404-0.72673s0.64067-0.60146 0.641-0.55847c0.000332 0.043 0.033 0.29431 0.07259 0.55847 0.2064 1.3771 0.19599 1.4685-0.15324 1.3462z" stroke="#a30075" fill="none"/>
 <path id="path4402" d="m56.953 97.203c-0.024-0.143-0.154-1.214-0.29-2.381s-0.259-2.133-0.273-2.147-0.443-0.149-0.954-0.301c-5.195-1.543-9.511-5.345-12.215-10.761-0.18684-0.37423-0.34702-0.68892-0.35595-0.69931-0.0089-0.01039-0.7342 0.30053-1.6117 0.69092s-1.8566 0.82055-2.1758 0.9559l-0.58036 0.2461 0.000787-0.57679c0.0021-1.5308 0.89196-13.846 1.0844-15.007l0.04339-0.26186 0.63853 0.58206c0.8988 0.81931 5.9315 6.1507 8.5402 9.0469 0.90011 0.99936 0.96649 1.0941 0.8005 1.1426-0.09955 0.02907-0.48719 0.22677-0.86142 0.43932-0.37423 0.21256-1.0226 0.5367-1.4409 0.72031-0.41826 0.18361-0.7735 0.34671-0.78942 0.36244-0.08054 0.07957 1.1995 1.6226 1.9616 2.3646 1.6996 1.6548 3.6288 2.8969 5.7922 3.7291 0.54571 0.20992 1.441 0.50507 1.5373 0.50684 0.13278 0.0024 0.14917-0.36497 0.50529-11.326 0.40098-12.342 0.75912-25.773 0.75912-28.47v-1.5091h-5.0832-5.0832v-2.5216-2.5216h5.2032 5.2032l-0.0012-1.1807c-0.000641-0.6494-0.02769-1.2168-0.06004-1.2608-0.03235-0.04403-0.23892-0.16472-0.45906-0.2682-0.90676-0.42626-2.0917-1.3871-2.7138-2.2005-2.8333-3.7045-1.6224-9.1666 2.4943-11.251 1.7854-0.90411 3.9596-1.0434 5.9134-0.37892 2.5363 0.86266 4.5034 3.16 4.9095 5.7337 0.28462 1.804-0.0667 3.651-0.96776 5.0879-0.7833 1.2491-1.7973 2.2165-3.0603 2.9197-0.85981 0.47872-0.90354 0.57054-0.77717 1.6318 0.05286 0.44394 0.11565 0.88821 0.13952 0.98727l0.04341 0.18011h5.1145 5.1145v2.5216 2.5216h-5.1247-5.1247l0.03678 0.18011c0.04201 0.20572 0.04571 0.31863 0.36859 11.256 0.37511 12.707 0.63308 22.55 0.6913 26.376l0.05342 3.5113 0.34559-0.04737c1.2355-0.16935 4.4327-1.8707 6.2856-3.3449 1.0834-0.86194 3.0444-3.0459 2.8814-3.209-0.05212-0.05212-1.9049-0.92123-3.0808-1.4451l-0.22598-0.10068 0.904-0.99871c2.1687-2.396 4.1296-4.4627 6.6505-7.0098 2.6225-2.6497 2.7021-2.7218 2.7378-2.4815 0.26846 1.8093 0.95133 10.827 1.0605 14.006l0.05191 1.5107-0.1831-0.09799c-0.1007-0.0539-0.42174-0.18065-0.71342-0.28168s-1.1958-0.47829-2.0092-0.83836c-0.81341-0.36006-1.489-0.62494-1.5013-0.58862s-0.289 0.55878-0.61488 1.161c-1.1158 2.0621-2.2704 3.641-3.8447 5.2576-2.3576 2.421-4.8223 3.9738-7.953 5.0107-0.62365 0.20655-0.93929 0.35356-1.0184 0.47433-0.06763 0.10321-0.19697 0.8472-0.31528 1.8135-0.11033 0.90114-0.26201 1.8996-0.33705 2.2188l-0.13645 0.58036h-2.9436-2.9436l-0.04295-0.26016zm3.1794-4.2827c0.03199-0.25303 0.0154-0.34021-0.06472-0.34021-0.17234 0-0.2108 0.13504-0.15135 0.53147 0.06264 0.41771 0.14872 0.34152 0.21607-0.19126zm0.39088-2.9479c0.13922-0.1549 0.14076-0.18332 0.0228-0.41977-0.06959-0.13949-0.1768-0.69512-0.23826-1.2347-0.09802-0.86067-0.27728-3.4759-0.27728-4.0452 0-0.11252-0.01802-0.18657-0.04004-0.16455s-0.07595 0.57283-0.11983 1.224c-0.14125 2.0958-0.37427 3.2687-0.76325 3.8419l-0.20344 0.29979 0.31636 0.34321c0.174 0.18877 0.41286 0.49607 0.5308 0.6829l0.21444 0.33969 0.20419-0.35057c0.1123-0.19281 0.27138-0.42533 0.35352-0.51671zm1.2283-0.27413c0.02721-0.04403 0.01132-0.08005-0.0353-0.08005-0.04663 0-0.08477 0.03602-0.08477 0.08005s0.01588 0.08005 0.0353 0.08005 0.05756-0.03602 0.08478-0.08005zm3.6556-0.88285c1.5392-0.7635 2.8514-1.5943 1.6877-1.0685-0.63408 0.28647-2.427 0.91006-2.6176 0.91043-0.12141 0.00024-0.13475 0.02164-0.06004 0.09636 0.05283 0.05283 0.09606 0.17802 0.09606 0.27819 0 0.21204 0.05873 0.19782 0.89391-0.21645zm-10.639-0.0059c-0.02421-0.09256-0.000641-0.19511 0.0524-0.22788 0.08262-0.05106-1.9194-0.80755-2.1252-0.80305-0.13705 0.003 1.9584 1.1992 2.1006 1.1992 0.0089 0-0.0036-0.07573-0.02784-0.16829zm17.634-4.6717c0.28386-0.35055 0.5161-0.66682 0.5161-0.70284s-0.37036 0.25079-0.82302 0.63736c-0.45266 0.38656-0.94797 0.79819-1.1007 0.91473l-0.27767 0.21189 0.23248-0.04346c0.22646-0.04234 0.23118-0.03642 0.1824 0.22839l-0.05008 0.27185 0.40218-0.44028c0.2212-0.24215 0.63442-0.72708 0.91828-1.0776zm-24.553-0.05781c-0.23482-0.21262-0.49272-0.42509-0.5731-0.47216-0.12686-0.07428-0.1355-0.06628-0.06545 0.06058 0.04438 0.08038 0.29026 0.39731 0.5464 0.7043 0.45559 0.54602 0.46628 0.55311 0.4924 0.32601 0.02233-0.19417-0.04314-0.29538-0.40025-0.61873zm28.108-4.5681c0.0014-0.03302-0.03965-0.06004-0.09121-0.06004-0.05157 0-0.1649-0.06304-0.25184-0.14009-0.08695-0.07705-0.14147-0.10406-0.12117-0.06004 0.02031 0.04403 0.08361 0.19852 0.14068 0.34332 0.09599 0.24354 0.11191 0.25254 0.21238 0.12007 0.05974-0.07876 0.10976-0.17021 0.11116-0.20323zm-33.706-1.412c0.29092-0.0838 0.66071-0.17486 0.82174-0.20236 0.17594-0.03005 0.48165-0.20085 0.76605-0.428 0.2603-0.2079 0.60607-0.44935 0.76839-0.53656s0.28589-0.18474 0.2746-0.21673c-0.03119-0.08841-1.9065-2.1228-2.4456-2.6531l-0.47459-0.46683-0.04987 0.46683c-0.02743 0.25676-0.10593 1.2593-0.17445 2.2279s-0.13999 1.8061-0.15882 1.8612c-0.04597 0.13432 0.05079 0.12679 0.67255-0.05229zm34.91-1.5754c0-0.06971-0.04278-0.11249-0.09506-0.09506-0.14843 0.04948-0.17305 0.2218-0.03169 0.2218 0.06971 0 0.12675-0.05703 0.12675-0.12674zm-17.017-5.317c-0.02941-1.0346-0.07725-2.2054-0.10631-2.6016l-0.05284-0.72045-0.05648 1.0807c-0.03107 0.59437-0.08018 1.8338-0.10914 2.7543l-0.05266 1.6736 0.21545-0.15268 0.21545-0.15267-0.05347-1.8812zm0.10979-15.006c0.05517-0.05517-0.15665-6.6893-0.22501-7.0476-0.06083-0.31876-0.06116-0.31822-0.07169 0.12008-0.0058 0.24215-0.06287 1.8812-0.12678 3.6423s-0.11713 3.2515-0.11826 3.3121c-0.0015 0.08116 0.06474 0.09671 0.25226 0.0592 0.13988-0.02798 0.27015-0.06669 0.28949-0.08603zm-10.95-14.212c0-0.17611-0.03602-0.3202-0.08005-0.3202s-0.08005 0.14409-0.08005 0.3202 0.03602 0.3202 0.08005 0.3202 0.08005-0.14409 0.08005-0.3202zm21.51-0.18011c-0.01908-0.09906-0.03469-0.01801-0.03469 0.18011s0.01561 0.27917 0.03469 0.18011 0.01908-0.26116 0-0.36022zm-10.709-0.24015c-0.0031-0.05503-0.03659-0.17211-0.07442-0.26016-0.05498-0.12794-0.06993-0.13327-0.07442-0.02656-0.0031 0.07345-0.02749 0.19052-0.05422 0.26016-0.03188 0.08309-0.0044 0.12662 0.08005 0.12662 0.07075 0 0.12611-0.04503 0.12301-0.10006zm0.22195-6.0795c0.14519-0.14072 0.26397-0.28081 0.26397-0.3113 0-0.0305-0.27017-0.05545-0.60037-0.05545-0.33021 0-0.60037 0.0213-0.60037 0.04733 0 0.08197 0.50786 0.57528 0.59225 0.57528 0.0443 0 0.19934-0.11513 0.34452-0.25585zm-3.5845-1.6347-0.19407-0.20946 0.28017 0.05534c0.1541 0.03044 0.34579 0.07391 0.42599 0.0966s-0.11936-0.22315-0.44346-0.54631c-0.66222-0.66031-1.0072-1.2483-1.2607-2.1491-0.2397-0.85149-0.22189-1.4964 0.06605-2.3918 0.64936-2.0192 2.0323-3.0859 4.1342-3.1887 1.0255-0.05014 1.7967 0.11532 2.5829 0.55411 1.0377 0.57916 1.9776 1.8453 2.1799 2.9365 0.19761 1.0657 0.06799 1.9538-0.43947 3.011-0.2776 0.57828-0.45762 0.82826-0.91228 1.2668-0.60125 0.57993-0.59762 0.593 0.11088 0.39832 0.1442-0.03962 0.14022-0.02152-0.04002 0.18225l-0.20012 0.22624 0.28017-0.22788c1.4376-1.1693 2.0858-3.0344 1.7264-4.9677-0.18751-1.0087-0.47086-1.5691-1.1338-2.2422-2.0914-2.1237-4.843-2.3763-7.0527-0.6474-1.3496 1.056-1.9742 2.3388-1.972 4.0503 0.0018 1.42 0.42432 2.4512 1.4071 3.434 0.54831 0.54832 0.85307 0.78891 0.45483 0.35908zm4.2784-1.7117c0.86785-0.44113 1.3867-1.342 1.3116-2.2773-0.10388-1.2942-1.0952-2.2256-2.3746-2.2311-1.2826-0.0055-2.2132 0.91132-2.3109 2.2764-0.03213 0.44905-0.0069 0.59963 0.16093 0.96189 0.24145 0.52107 0.77657 1.1394 1.1713 1.3534 0.43186 0.23416 1.503 0.19042 2.0416-0.08337z" stroke="#a30075" fill="none"/>
 <path id="path4404" d="m42.206 77.111c0.02657-0.23114 0.07293-0.8087 0.10303-1.2835 0.0301-0.47476 0.08129-0.87962 0.11376-0.89968 0.06652-0.04111 1.5998 1.5875 1.5951 1.6942-0.0095 0.21584-1.3697 0.90919-1.7836 0.90919-0.0451 0-0.0567-0.17261-0.02824-0.42026z" stroke="#a30075" fill="none"/>
 <path id="path4406" d="m42.823 76.39 0.0029-0.34021 0.19711 0.24015c0.18179 0.22148 0.1866 0.24793 0.06187 0.34021-0.2188 0.16189-0.2649 0.11961-0.26186-0.24015z" stroke="#a30075" fill="none"/>
 <path id="path4408" d="m59.755 89.623c-0.123-0.135-0.128-0.193-0.041-0.457l0.09979-0.30236 0.10467 0.39741c0.05757 0.21858 0.10626 0.42443 0.1082 0.45745 0.0065 0.10972-0.12989 0.06209-0.2721-0.09504z" stroke="#a30075" fill="none"/>
 <path id="path4410" d="m29.028 56.798c0.05519-3.4502 0.27542-5.4331 0.98686-8.8855 0.9446-4.5838 1.9686-7.8879 3.5601-11.487 0.72551-1.6408 2.0196-4.1706 2.0949-4.0953 0.01961 0.01961-0.23219 0.57083-0.55955 1.2249-2.4624 4.9202-3.6033 8.0825-4.6166 12.797-0.85641 3.9841-1.322 7.7284-1.4732 11.847-0.01455 0.39625-0.01118-0.23415 0.0075-1.4009z" stroke="#a30075" fill="none"/>
 <path id="path4412" fill="none" d="m59.07 106.94c-5.878-0.22-11.629-2.64-16.69-7.015-1.075-0.929-3.128-3.018-4.033-4.103-3.704-4.441-6.701-9.962-8.699-16.022-1.245-3.777-2.079-7.513-2.59-11.595-0.391-3.129-0.446-4.143-0.446-8.205 0-4.0616 0.05519-5.0756 0.44657-8.2051 1.3465-10.766 5.2976-20.433 11.289-27.617 0.90487-1.0851 2.9579-3.1738 4.0328-4.1027 4.1185-3.5594 8.5338-5.7598 13.288-6.6226 1.6116-0.29244 2.5865-0.3776 4.3227-0.3776 1.683 0 2.6807 0.08241 4.2026 0.34714 6.5518 1.1396 12.859 5.1026 17.819 11.196 6.9275 8.511 10.976 20.31 11.392 33.201 0.32973 10.226-1.6167 20.03-5.6462 28.438-5.3609 11.186-14.026 18.659-23.564 20.322-1.5697 0.27369-3.5942 0.41496-5.1232 0.3575zm3.0778-2.3565c2.9006-0.29463 5.8988-1.2245 8.5883-2.6635 1.194-0.63886 1.603-0.89098 2.7546-1.6981 8.159-5.721 13.887-15.384 16.509-27.852 0.961-4.572 1.14-6.922 1.065-14.017-0.048-4.559-0.086-5.125-0.538-7.856-1.81-10.935-5.54-19.186-11.809-26.118-4.541-5.022-10.912-8.505-16.39-8.96-1.998-0.16597-4.8643-0.07608-6.3396 0.19881-3.0949 0.57666-6.5218 2.0814-9.4965 4.1699-3.9261 2.7564-7.5464 6.7655-10.327 11.436-0.50947 0.85576-0.59786 1.0523-0.4983 1.108 0.06656 0.03725 0.13152 0.05542 0.14435 0.04038s0.26614-0.45962 0.56292-0.98795c3.9728-7.0724 10.498-12.727 17.131-14.845 1.905-0.6084 3.2692-0.76522 6.6056-0.75928 3.3416 0.0059 4.478 0.14658 6.5241 0.80739 1.3399 0.43273 2.2052 0.78727 3.521 1.4426 6.1473 3.0615 11.292 8.6498 15.169 16.479 3.6067 7.2816 5.6011 16.342 5.6027 25.454 0.00072 4.1166-0.31574 7.5733-1.048 11.447-1.7892 9.4648-5.3427 17.241-10.644 23.294-4.2824 4.8894-9.2128 8.0004-14.573 9.1955-1.4564 0.32469-2.3306 0.39656-4.912 0.4038-1.999 0.006-2.5424-0.018-3.242-0.14099-3.5017-0.6154-6.5038-1.8553-9.646-3.984-5.0655-3.4316-9.2264-8.5572-12.406-15.283-3.4836-7.3676-5.3112-15.642-5.3526-24.233-0.0094-1.9413-0.03446-2.5015-0.11211-2.5016-0.07796-0.00008-0.09997 0.56126-0.09965 2.5414 0.00064 3.957 0.15841 6.283 0.60218 8.8784 1.4953 8.7449 3.96 15.312 7.942 21.16 5.1576 7.5751 11.271 12.051 18.655 13.656 0.51592 0.11218 1.2262 0.23505 1.5784 0.27304 0.74201 0.08 3.3187 0.0289 4.4786-0.089zm0.42756-3.3565c4.3497-0.46346 8.994-2.9034 12.87-6.7614 4.5122-4.4912 8.012-10.728 10.197-18.171 0.77526-2.641 1.551-6.2258 1.7583-8.1251 0.35326-3.237 0.50463-9.0885 0.32719-12.648-0.265-5.303-1.443-10.763-3.439-15.928-3.939-10.194-10.554-17.454-18.225-20.003-2.2527-0.74851-4.0432-1.0083-6.5402-0.94886-3.1905 0.07592-5.7319 0.74065-8.6987 2.2752-8.5312 4.4127-15.044 14.609-17.683 27.683-0.84683 4.196-1.055 7.3206-0.8958 13.448 0.12145 4.6758 0.32001 6.7501 0.93105 9.7261 1.6849 8.2059 4.9462 15.27 9.553 20.693 2.6081 3.0699 5.4427 5.3474 8.6549 6.9538 1.9034 0.95188 3.6532 1.5075 5.5635 1.7666 0.97658 0.13247 4.5296 0.15915 5.6267 0.0423z"/>
 <path id="path4416" fill="none" d="m57.469 106.81c-9.518-1.21-17.738-7.358-23.696-17.736-5.232-9.113-7.889-21.748-7.04-33.477 1.004-13.853 5.903-25.76 13.917-33.82 4.2493-4.2738 9.3145-7.1115 14.711-8.2419 2.4448-0.51209 6.877-0.50437 9.312 0.01622 9.2545 1.9786 17.211 8.7509 22.5 19.152 4.158 8.1762 6.1754 17.094 6.1754 27.297s-2.0174 19.121-6.1754 27.297c-5.2703 10.364-13.294 17.209-22.42 19.129-1.5656 0.32933-5.9069 0.55784-7.2845 0.38343zm3.7844-2.1399c3.5057-0.27269 6.1207-1.009 9.1837-2.5857 8.909-4.583 15.8-14.403 18.969-27.031 1.483-5.91 1.742-8.516 1.641-16.523-0.079-6.267-0.184-7.237-1.327-12.306-2.099-9.3-6.34-17.35-12.106-22.976-2.7377-2.6711-4.8079-4.1676-7.7377-5.5939-3.4886-1.6982-6.1397-2.3171-9.9262-2.3171-3.7269 0-6.4318 0.61994-9.7661 2.2383-5.3736 2.6082-10.829 7.9297-14.145 13.798-0.94065 1.6646-0.24857 1.1083 0.78849-0.63375 1.5542-2.6108 3.2017-4.6981 5.5873-7.0792 3.0813-3.0754 6.2182-5.1941 9.7243-6.5679 2.7407-1.0739 3.5814-1.1978 8.0514-1.1864 3.7225 0.0095 4 0.03141 5.4434 0.42977 6.3859 1.7624 12.082 6.1695 16.466 12.74 4.5726 6.853 7.1278 14.103 8.3699 23.748 0.39736 3.0856 0.48399 10.42 0.15664 13.263-1.1236 9.7593-4.007 18.184-8.4664 24.735-4.9776 7.3133-11.579 12.055-18.368 13.195-1.7073 0.28652-4.7357 0.37489-6.404 0.18685-12.794-1.442-23.902-14.908-27.285-33.074-0.56556-3.0376-0.83596-5.8017-0.92798-9.4859-0.05647-2.2609-0.14874-3.5622-0.25257-3.5622-0.23632 0-0.01946 7.4869 0.28236 9.7481 1.5187 11.378 5.4846 20.533 12.054 27.825 4.3012 4.7746 10.367 8.1578 16.132 8.9974 1.314 0.19135 1.6369 0.19303 3.861 0.02zm3.9532-3.9065c4.4963-1.3482 8.2785-3.9355 12.079-8.2628 5.3254-6.0641 9.4401-16.425 10.3-25.936 0.30461-3.3693 0.25725-11.804-0.08-14.249-0.88063-6.384-2.5116-11.829-5.0831-16.971-2.1264-4.2515-4.1933-7.1054-7.3627-10.166-3.3888-3.2728-7.0429-5.3169-11.209-6.2705-1.4744-0.33745-5.8389-0.38264-7.2618-0.0752-6.7628 1.4612-12.362 5.7017-16.933 12.823-3.8256 5.9607-6.6158 14.451-7.3161 22.26-0.36952 4.1215-0.12557 12.203 0.48328 16.01 0.42154 2.6357 1.5464 6.9624 2.48 9.5388 4.1115 11.346 12.038 19.713 20.405 21.54 1.1456 0.25013 1.8926 0.28799 4.7229 0.23936 3.0785-0.0529 3.4813-0.0935 4.7757-0.48165z"/>
 <path id="path4418" fill="none" d="m32.297 80.469c-0.89384-2.4106-1.7491-5.5983-2.4014-8.9505-0.76444-3.9284-0.91144-5.5689-0.94284-10.521-0.01458-2.2991-0.01133-2.6675 0.02347-2.6675 0.03451 0 0.04057 0.24986 0.04174 1.7193 0.0017 2.158 0.07487 3.8197 0.25324 5.7524 0.47374 5.1329 1.5344 9.9235 3.2476 14.667l0.13031 0.36085h-0.10916-0.10916l-0.1338-0.36085z"/>
 <path id="path4420" fill="none" d="m29.931 80.752c-0.067-0.171-0.539-1.609-0.686-2.087-1.32-4.298-2.191-8.969-2.535-13.585-0.146-1.954-0.183-2.989-0.183-5.08 0-2.0905 0.03728-3.1261 0.18287-5.0802 0.31134-4.1787 1.0663-8.4672 2.1772-12.368 0.27418-0.96269 0.34845-1.2034 0.72687-2.3561l0.32752-0.99764h2.9804 2.9804l-0.07211 0.17689c-0.78295 1.9206-1.7424 5.0537-2.3162 7.5637-0.67766 2.9644-1.0401 5.383-1.2045 8.0377-0.10718 1.7311-0.10525 6.4039 0.0037 8.9575 0.16464 3.8585 0.42102 5.8883 1.1315 8.9575 0.66466 2.8715 1.4886 5.5762 2.373 7.7901l0.05936 0.14858h-1.5959-1.5959l-0.02821-0.07783c-1.3435-3.7065-2.1665-6.8105-2.7782-10.479-0.57533-3.4499-0.82278-6.4684-0.8329-10.16l-0.0049-1.7972-0.06688-0.0096-0.06688-0.0096 0.01756 2.6841c0.02159 3.3001 0.07436 4.5629 0.26233 6.2785 0.27552 2.5146 1.0316 6.3428 1.8222 9.2264 0.34516 1.259 0.91392 3.0598 1.2849 4.0684l0.1015 0.27594h-1.2172-1.2172l-0.03023-0.07783z"/>
 <path id="path4422" fill="none" d="m32.297 80.469c-0.89384-2.4106-1.7491-5.5983-2.4014-8.9505-0.76444-3.9284-0.91144-5.5689-0.94284-10.521-0.01458-2.2991-0.01133-2.6675 0.02347-2.6675 0.03451 0 0.04057 0.24986 0.04174 1.7193 0.0017 2.158 0.07487 3.8197 0.25324 5.7524 0.47374 5.1329 1.5344 9.9235 3.2476 14.667l0.13031 0.36085h-0.10916-0.10916l-0.1338-0.36085z"/>
 <path id="path4424" fill="none" d="m29.931 80.752c-0.067-0.171-0.539-1.609-0.686-2.087-1.32-4.298-2.191-8.969-2.535-13.585-0.146-1.954-0.183-2.989-0.183-5.08 0-2.0905 0.03728-3.1261 0.18287-5.0802 0.31134-4.1787 1.0663-8.4672 2.1772-12.368 0.27418-0.96269 0.34845-1.2034 0.72687-2.3561l0.32752-0.99764h2.9804 2.9804l-0.07211 0.17689c-0.78295 1.9206-1.7424 5.0537-2.3162 7.5637-0.67766 2.9644-1.0401 5.383-1.2045 8.0377-0.10718 1.7311-0.10525 6.4039 0.0037 8.9575 0.16464 3.8585 0.42102 5.8883 1.1315 8.9575 0.66466 2.8715 1.4886 5.5762 2.373 7.7901l0.05936 0.14858h-1.5959-1.5959l-0.02821-0.07783c-1.3435-3.7065-2.1665-6.8105-2.7782-10.479-0.57533-3.4499-0.82278-6.4684-0.8329-10.16l-0.0049-1.7972-0.06688-0.0096-0.06688-0.0096 0.01756 2.6841c0.02159 3.3001 0.07436 4.5629 0.26233 6.2785 0.27552 2.5146 1.0316 6.3428 1.8222 9.2264 0.34516 1.259 0.91392 3.0598 1.2849 4.0684l0.1015 0.27594h-1.2172-1.2172l-0.03023-0.07783z"/>
 <path id="path4426" d="m57.698 106.84c-4.999-0.54-9.72-2.53-14.147-5.97-1.607-1.246-4.361-4.002-5.753-5.754-7.512-9.461-11.513-22.543-11.192-36.598 0.1935-8.4759 1.8317-16.154 4.9637-23.264 4.8602-11.034 13.012-18.914 22.075-21.34 2.2443-0.60062 3.7092-0.7852 6.2608-0.78889 3.2539-0.0047 5.2236 0.32169 8.206 1.3598 4.4757 1.5579 8.2608 4.1055 12.108 8.1492 6.6818 7.0236 11.37 17.838 12.733 29.374 0.66338 5.6123 0.60278 11.971-0.16432 17.241-1.7265 11.862-6.5193 22.19-13.498 29.089-5.7145 5.6492-12.476 8.6278-19.423 8.5568-0.97495-0.01-1.9509-0.0371-2.1689-0.0603zm5.717-2.4104c5.6771-0.96599 10.623-3.7938 15.321-8.7596 5.2932-5.5954 9.242-13.694 11.213-22.997 0.9307-4.3921 1.0363-5.4954 1.111-11.604 0.07129-5.8314-0.01719-7.4689-0.58652-10.855-1.021-6.084-2.412-10.654-4.65-15.286-4.773-9.879-12.048-16.65-20.376-18.965-1.8-0.5-2.54-0.577-5.541-0.574-3.0402 0.003-3.7045 0.07695-5.6247 0.62579-4.6094 1.3175-8.7578 3.9391-12.662 8.0017-2.263 2.355-4.0003 4.7029-6.0653 8.1975-0.02374 0.04017 0.03027 0.10122 0.12002 0.13566 0.11455 0.04396 0.31799-0.22139 0.68265-0.89036 1.2994-2.3838 3.2277-4.9803 5.3304-7.1777 4.0523-4.2347 9.3954-7.4267 13.751-8.2144 1.6062-0.29054 6.0505-0.36383 8.0342-0.13249 2.2937 0.2675 4.4399 0.9676 7.0342 2.2946 8.5314 4.3639 15.491 14.361 18.551 26.648 2.5466 10.225 2.4855 20.735-0.17987 30.906-2.5576 9.759-7.4356 17.794-14.029 23.108-3.7716 3.0397-8.1549 4.9122-12.442 5.3153-2.0363 0.19146-5.3275 0.0784-6.8017-0.23362-2.4119-0.51051-5.2989-1.677-7.6229-3.08-2.349-1.416-5.484-4.129-7.43-6.428-3.319-3.92-6.314-9.311-8.209-14.774-2.102-6.065-3.088-11.787-3.237-18.788-0.03171-1.4919-0.0767-2.7315-0.09997-2.7548-0.25946-0.25946-0.08369 7.4146 0.22376 9.7692 0.64103 4.9093 2.2452 10.98 3.9707 15.026 2.0471 4.8002 4.7822 9.0863 8.1554 12.78 4.3369 4.749 9.7698 7.8306 15.665 8.8852 1.212 0.21681 4.6295 0.12066 6.3962-0.17996zm0.16981-3.326c1.3155-0.22147 3.3159-0.8835 4.8113-1.5923 2.6771-1.269 4.6798-2.7335 7.1912-5.259 2.8685-2.8846 4.8795-5.7207 6.8815-9.7054 2.3288-4.6348 4.4617-11.81 4.9933-16.798 0.39076-3.6666 0.4309-12.158 0.0713-15.084-1.166-9.4885-4.5504-18.07-9.6161-24.381-4.0027-4.9872-8.8945-8.2142-14.163-9.3427-1.1017-0.236-1.539-0.26648-3.7925-0.26435-2.2144 0.0021-2.6988 0.03562-3.7077 0.25667-2.7368 0.59962-5.2525 1.6789-7.6771 3.2936-7.6 5.0612-13.325 14.978-15.555 26.947-0.69368 3.7224-0.73992 4.3892-0.73455 10.594 0.0064 7.4339 0.21275 9.5175 1.4193 14.333 1.0203 4.0722 2.1065 7.0338 3.8363 10.459 2.7436 5.4332 6.1866 9.6938 10.263 12.699 3.1839 2.3477 6.4636 3.6807 9.9487 4.0437 0.90845 0.0946 4.8937-0.0416 5.8302-0.19922z" stroke="#a30075" fill="none"/>
</svg>
