<?xml version="1.0" encoding="UTF-8" standalone="no"?>
<!-- Created with Inkscape (http://www.inkscape.org/) -->
<svg
   xmlns:dc="http://purl.org/dc/elements/1.1/"
   xmlns:cc="http://creativecommons.org/ns#"
   xmlns:rdf="http://www.w3.org/1999/02/22-rdf-syntax-ns#"
   xmlns:svg="http://www.w3.org/2000/svg"
   xmlns="http://www.w3.org/2000/svg"
   xmlns:sodipodi="http://sodipodi.sourceforge.net/DTD/sodipodi-0.dtd"
   xmlns:inkscape="http://www.inkscape.org/namespaces/inkscape"
   version="1.0"
   width="120"
   height="120"
   id="svg8708"
   sodipodi:version="0.32"
   inkscape:version="0.46"
   sodipodi:docname="harbour_master.svg"
   inkscape:output_extension="org.inkscape.output.svg.inkscape">
  <metadata
     id="metadata6">
    <rdf:RDF>
      <cc:Work
         rdf:about="">
        <dc:format>image/svg+xml</dc:format>
        <dc:type
           rdf:resource="http://purl.org/dc/dcmitype/StillImage" />
      </cc:Work>
    </rdf:RDF>
  </metadata>
  <sodipodi:namedview
     inkscape:window-height="843"
     inkscape:window-width="1440"
     inkscape:pageshadow="2"
     inkscape:pageopacity="0.0"
     guidetolerance="10.0"
     gridtolerance="10.0"
     objecttolerance="10.0"
     borderopacity="1.0"
     bordercolor="#666666"
     pagecolor="#ffffff"
     id="base"
     showgrid="false"
     inkscape:zoom="4.4166667"
     inkscape:cx="9.0566038"
     inkscape:cy="60"
     inkscape:window-x="-5"
     inkscape:window-y="-3"
     inkscape:current-layer="svg8708" />
  <defs
     id="defs8710">
    <inkscape:perspective
       sodipodi:type="inkscape:persp3d"
       inkscape:vp_x="0 : 60 : 1"
       inkscape:vp_y="0 : 1000 : 0"
       inkscape:vp_z="120 : 60 : 1"
       inkscape:persp3d-origin="60 : 40 : 1"
       id="perspective8" />
  </defs>
  <path
     d="M 60,13.5 C 50.667313,13.5 42.321037,18.960528 36.4375,27.40625 C 30.553963,35.851972 27,47.34108 27,60 C 27,72.65892 30.553963,84.148028 36.4375,92.59375 C 42.321037,101.03947 50.667313,106.5 60,106.5 C 69.332687,106.5 77.678963,101.03947 83.5625,92.59375 C 89.446037,84.148028 93,72.65892 93,60 C 93,47.34108 89.446037,35.851972 83.5625,27.40625 C 77.678963,18.960528 69.332687,13.5 60,13.5 z M 60,17.5 C 67.779313,17.5 74.942787,22.024222 80.28125,29.6875 C 85.619713,37.350778 89,48.09492 89,60 C 89,71.90508 85.619713,82.649222 80.28125,90.3125 C 74.942787,97.975778 67.779313,102.5 60,102.5 C 52.220687,102.5 45.057213,97.975778 39.71875,90.3125 C 34.380287,82.649222 31,71.90508 31,60 C 31,48.09492 34.380287,37.350778 39.71875,29.6875 C 45.057213,22.024222 52.220687,17.5 60,17.5 z M 60,23 C 56.157874,23 53,26.157874 53,30 C 53,33.132549 55.111053,35.805292 57.96875,36.6875 L 57.875,40 L 47.5,40 L 47.5,44 L 57.75,44 L 56.5625,86.65625 C 51.95481,85.706943 48.017364,82.886219 45.59375,79.03125 L 49,77.5 L 40,68 L 39,82 L 43.125,80.125 C 45.106983,84.889386 48.318646,88.494402 52.59375,90.6875 C 54.008668,91.413344 55.453844,91.896477 56.90625,92.1875 L 57.5,97 L 62.5,97 L 63.09375,92.21875 C 68.832121,91.063862 74.00958,86.717294 76.84375,80.125 L 81,82 L 80,68 L 71,77.5 L 74.375,79.03125 C 71.954147,82.885765 68.039183,85.674632 63.4375,86.625 L 62.25,44 L 72.5,44 L 72.5,40 L 62.125,40 L 62.03125,36.6875 C 64.888947,35.805292 67,33.132549 67,30 C 67,26.157874 63.842126,23 60,23 z M 60,27 C 61.677874,27 63,28.322126 63,30 C 63,31.677874 61.677874,33 60,33 C 58.322126,33 57,31.677874 57,30 C 57,28.322126 58.322126,27 60,27 z"
     id="path8720" />
  <path
     style="fill:#ffffff;fill-opacity:0.75;fill-rule:nonzero;stroke:#000000;stroke-width:0.22641510000000001;stroke-opacity:1;opacity:1"
     d="M 58.120755,102.24356 C 52.976187,101.72289 48.656631,99.578674 44.222699,95.344583 C 37.612252,89.032078 33.166913,79.258714 31.606714,67.607547 C 31.091033,63.756557 31.089541,56.247172 31.603707,52.437736 C 33.641436,37.340235 40.451875,25.580002 50.309434,20.136761 C 55.28914,17.387015 61.624598,16.930254 67.00817,18.932844 C 73.723087,21.430671 79.589932,27.389334 83.611698,35.796226 C 87.142166,43.176156 88.802423,50.931088 88.79803,60.021254 C 88.792936,70.59173 86.325125,80.180081 81.605321,87.967594 C 75.613268,97.854267 66.926638,103.13476 58.120755,102.24355 L 58.120755,102.24356 z M 62.615255,96.645283 C 62.675708,96.427358 62.788569,95.637736 62.866057,94.890566 C 63.134085,92.306076 63.109709,92.349562 64.520592,91.939406 C 69.308185,90.547619 73.752928,86.593062 76.3452,81.418868 C 76.625955,80.858491 76.879245,80.372375 76.908091,80.338612 C 76.936913,80.304845 77.856204,80.689075 78.950943,81.192453 C 80.045683,81.69583 80.979985,82.069075 81.02717,82.021891 C 81.143683,81.905382 80.161992,68.202989 80.026913,68.060377 C 79.919728,67.947215 74.837887,73.157103 72.242626,76.040798 L 70.867834,77.568387 L 72.413479,78.261881 C 73.2636,78.6433 74.002143,78.998377 74.054717,79.050942 C 74.265147,79.261368 72.762521,81.101346 71.260234,82.472796 C 69.573736,84.012405 65.930629,86.013663 64.290566,86.301423 L 63.441509,86.4504 L 63.441509,84.481345 C 63.441509,82.144386 62.615882,51.655945 62.431216,47.173585 L 62.302952,44.060377 L 67.40054,44.060377 L 72.498113,44.060377 L 72.498113,42.022642 L 72.498113,39.984906 L 67.433402,39.984906 L 62.368678,39.984906 L 62.228343,39.135849 C 61.901887,37.160792 61.996413,36.858125 63.102009,36.338432 C 64.573402,35.646795 66.217395,33.754356 66.711505,32.18345 C 67.236149,30.515452 67.117467,28.474284 66.411163,27.018138 C 63.793574,21.621616 56.039629,21.666817 53.604593,27.092798 C 52.278086,30.048643 53.086268,33.513899 55.557758,35.467501 C 56.181944,35.960891 56.937555,36.426045 57.236889,36.501174 C 57.750199,36.630002 57.781132,36.732899 57.781132,38.311338 L 57.781132,39.984906 L 52.573585,39.984906 L 47.366038,39.984906 L 47.366038,42.022642 L 47.366038,44.060377 L 52.460377,44.060377 L 57.554717,44.060377 L 57.549355,46.267925 C 57.538386,50.784174 56.457446,86.214251 56.326639,86.345058 C 56.101372,86.57033 53.688851,85.7317 52.131851,84.886893 C 49.627698,83.528165 47.472659,81.618666 46.173661,79.607547 L 45.808053,79.041509 L 47.38092,78.362264 C 48.246007,77.988679 48.927686,77.568231 48.895768,77.427933 C 48.833255,77.153135 40.075465,67.803779 39.974832,67.904411 C 39.895349,67.98389 38.988679,80.328238 38.988679,81.330876 L 38.988679,82.104195 L 39.724528,81.78552 C 40.129245,81.610248 41.045558,81.202913 41.760779,80.880331 L 43.06118,80.293814 L 43.7729,81.705396 C 46.392229,86.900429 50.830508,90.685685 55.891148,92.040634 L 56.831346,92.292362 L 57.112762,94.666943 L 57.394193,97.041509 L 59.949763,97.041509 C 62.190822,97.041509 62.518861,96.992746 62.615253,96.645283 L 62.615255,96.645283 z"
     id="path3169" />
  <path
     style="opacity:1;fill:#ffffff;fill-opacity:0.57291667000000002;fill-rule:nonzero;stroke:#000000;stroke-width:0.22641510000000001;stroke-opacity:1"
     d="M 59.198146,32.814288 C 58.427941,32.653943 57.363752,31.460724 57.196678,30.570145 C 57.007657,29.562548 57.478476,28.288426 58.253719,27.709623 C 60.121956,26.31478 62.824014,27.682286 62.824014,30.022642 C 62.824019,31.874065 61.091006,33.208349 59.198146,32.814288 z"
     id="path3219" />
</svg>
