<?xml version="1.0" encoding="UTF-8" standalone="no"?>
<!-- Generator: Adobe Illustrator 14.0.0, SVG Export Plug-In . SVG Version: 6.00 Build 43363)  -->

<svg
   xmlns:dc="http://purl.org/dc/elements/1.1/"
   xmlns:cc="http://creativecommons.org/ns#"
   xmlns:rdf="http://www.w3.org/1999/02/22-rdf-syntax-ns#"
   xmlns:svg="http://www.w3.org/2000/svg"
   xmlns="http://www.w3.org/2000/svg"
   xmlns:sodipodi="http://sodipodi.sourceforge.net/DTD/sodipodi-0.dtd"
   xmlns:inkscape="http://www.inkscape.org/namespaces/inkscape"
   version="1.1"
   id="svg8829"
   sodipodi:version="0.32"
   inkscape:version="0.48.1 r9760"
   sodipodi:docname="Harbour.svg"
   inkscape:export-xdpi="89.361702"
   inkscape:export-ydpi="89.361702"
   inkscape:export-filename="C:\Dokumente und Einstellungen\rolf\Eigene Dateien\Eigene Karten\Harbour.png"
   inkscape:output_extension="org.inkscape.output.svg.inkscape"
   x="0px"
   y="0px"
   width="160"
   height="160"
   viewBox="0 0 160 160"
   enable-background="new 0 0 320 320"
   xml:space="preserve"><metadata
   id="metadata14"><rdf:RDF><cc:Work
       rdf:about=""><dc:format>image/svg+xml</dc:format><dc:type
         rdf:resource="http://purl.org/dc/dcmitype/StillImage" /></cc:Work></rdf:RDF></metadata>
<sodipodi:namedview
   id="base"
   inkscape:window-height="1088"
   inkscape:pageshadow="2"
   inkscape:pageopacity="0.0"
   inkscape:window-width="1920"
   inkscape:window-x="0"
   inkscape:window-y="0"
   inkscape:current-layer="g2415"
   showgrid="true"
   guidetolerance="10.0"
   inkscape:zoom="2.0820366"
   gridtolerance="10.0"
   objecttolerance="10.0"
   borderopacity="1.0"
   bordercolor="#666666"
   inkscape:cx="92.641647"
   pagecolor="#ffffff"
   inkscape:cy="117.85248"
   inkscape:window-maximized="1">
	<inkscape:grid
   type="xygrid"
   id="grid3611"
   empspacing="5"
   visible="true"
   enabled="true"
   snapvisiblegridlinesonly="true" /></sodipodi:namedview>
<defs
   id="defs4">
	
	
		<inkscape:perspective
   id="perspective15"
   inkscape:persp3d-origin="90 : 60 : 1"
   sodipodi:type="inkscape:persp3d"
   inkscape:vp_x="0 : 90 : 1"
   inkscape:vp_y="0 : 1000 : 0"
   inkscape:vp_z="180 : 90 : 1">
		</inkscape:perspective>
</defs>
<g
   id="g2415"
   transform="translate(0,-160)">
	<path
   id="path2421"
   d="m 152.4997,240.0003 c 0,40.02455 -32.47592,72.50002 -72.50001,72.50002 -40.024086,0 -72.5000157,-32.47547 -72.5000157,-72.50002 0,-40.02452 32.4759297,-72.5 72.5000157,-72.5 40.02409,0 72.50001,32.47548 72.50001,72.5 z"
   style="fill:none;stroke:#a30075;stroke-width:15;stroke-miterlimit:4;stroke-dasharray:none"
   inkscape:connector-curvature="0" />
	<path
   id="path2417"
   d="m 126.28048,252.22903 -4.21262,23.74576 -5.77482,-5.3352 c -2.87994,3.1949 -6.15952,5.90545 -10.0973,8.37546 -6.653607,4.17239 -13.935937,6.53189 -21.259876,7.21265 l -0.748377,6.9489 -7.699292,0 -0.769883,-6.9489 C 63.862493,285.08626 52.555459,279.60805 44.262506,270.39812 l -6.412882,5.57667 -3.442273,-24.07362 16.838321,12.40297 -4.289279,3.7331 c 7.313653,6.29089 17.443193,10.49577 28.796507,11.39482 l 1.517801,-63.64851 -16.071244,0 0,-4.82019 16.036647,0.176 0,-4.00756 c -4.959598,-1.08569 -8.643065,-5.09325 -8.643065,-9.87955 0,-5.63053 5.078804,-10.1865 11.348638,-10.1865 6.259566,0 11.342095,4.55597 11.342095,10.1865 0,4.67717 -3.518456,8.62854 -8.306502,9.82661 l 0,3.94023 16.510176,-0.0557 0,4.82019 -16.070306,0 1.550507,63.64851 c 11.273387,-0.89997 21.325793,-5.07237 28.618893,-11.30752 l -4.14578,-3.82132 16.83972,-12.07419 z"
   style="fill:#a30075;stroke:#a30075;stroke-width:4.90096569"
   inkscape:connector-curvature="0" />
	
		<ellipse
   id="ellipse2419"
   inkscape:transform-center-x="2.5400948"
   sodipodi:ry="10.449"
   sodipodi:rx="11.553"
   sodipodi:cy="69.002998"
   sodipodi:cx="160.02299"
   cx="160.02299"
   cy="69.002998"
   rx="11.553"
   ry="10.449"
   transform="matrix(0.46744538,0,0,0.46437406,5.1513481,165.20951)"
   style="fill:none;stroke:#ffffff;stroke-width:10.51918983"
   d="m 171.576,69.002998 c 0,5.770824 -5.17246,10.449001 -11.55301,10.449001 -6.38054,0 -11.553,-4.678177 -11.553,-10.449001 0,-5.770823 5.17246,-10.449 11.553,-10.449 6.38055,0 11.55301,4.678177 11.55301,10.449 z">
	</ellipse>
</g>
<g
   id="g2409"
   transform="matrix(0.46744538,0,0,0.46437406,5.1513481,5.2095143)">
	<path
   id="path2411"
   d="m 259.13,187.391 -9.012,51.135 -12.354,-11.489 c -6.161,6.88 -13.177,12.717 -21.601,18.036 -14.234,8.985 -29.813,14.066 -45.481,15.532 l -1.601,14.964 -16.471,0 -1.647,-14.964 C 125.6,258.147 101.411,246.35 83.67,226.517 l -13.719,12.009 -7.364,-51.841 36.022,26.709 -9.176,8.039 c 15.646,13.547 37.316,22.602 61.604,24.538 l 3.247,-137.063 -34.381,0 0,-10.38 34.307,0.379 0,-8.63 C 143.6,87.939 135.72,79.309 135.72,69.002 c 0,-12.125 10.865,-21.936 24.278,-21.936 13.391,0 24.264,9.811 24.264,21.936 0,10.072 -7.527,18.581 -17.77,21.161 l 0,8.485 35.32,-0.12 0,10.38 -34.379,0 3.317,137.063 c 24.117,-1.938 45.622,-10.923 61.224,-24.35 l -8.869,-8.229 36.025,-26.001 z M 171.576,69.003 c 0,-5.767 -5.173,-10.447 -11.553,-10.447 -6.376,0 -11.549,4.682 -11.549,10.447 0,5.77 5.173,10.449 11.549,10.449 6.379,0 11.553,-4.681 11.553,-10.449 z"
   style="fill-opacity:0"
   inkscape:connector-curvature="0" />
	
		<ellipse
   id="ellipse2413"
   sodipodi:ry="10.449"
   sodipodi:rx="11.553"
   sodipodi:cy="69.002998"
   sodipodi:cx="160.02299"
   cx="160.02299"
   cy="69.002998"
   rx="11.553"
   ry="10.449"
   style="fill-opacity:0"
   d="m 171.576,69.002998 c 0,5.770824 -5.17246,10.449001 -11.55301,10.449001 -6.38054,0 -11.553,-4.678177 -11.553,-10.449001 0,-5.770823 5.17246,-10.449 11.553,-10.449 6.38055,0 11.55301,4.678177 11.55301,10.449 z">
	</ellipse>
</g>
</svg>