<?xml version="1.0" encoding="UTF-8" standalone="no"?>
<!-- Generator: Adobe Illustrator 14.0.0, SVG Export Plug-In . SVG Version: 6.00 Build 43363)  -->

<svg
   xmlns:dc="http://purl.org/dc/elements/1.1/"
   xmlns:cc="http://creativecommons.org/ns#"
   xmlns:rdf="http://www.w3.org/1999/02/22-rdf-syntax-ns#"
   xmlns:svg="http://www.w3.org/2000/svg"
   xmlns="http://www.w3.org/2000/svg"
   xmlns:xlink="http://www.w3.org/1999/xlink"
   xmlns:sodipodi="http://sodipodi.sourceforge.net/DTD/sodipodi-0.dtd"
   xmlns:inkscape="http://www.inkscape.org/namespaces/inkscape"
   version="1.1"
   id="svg8829"
   sodipodi:version="0.32"
   inkscape:version="0.48.2 r9819"
   sodipodi:docname="LandTower.svg"
   inkscape:export-xdpi="89.361702"
   inkscape:export-ydpi="89.361702"
   inkscape:export-filename="/Users/mherring/Desktop/try.png"
   inkscape:output_extension="org.inkscape.output.svg.inkscape"
   x="0px"
   y="0px"
   width="300"
   height="400"
   viewBox="0 0 300 400"
   enable-background="new 0 0 320 320"
   xml:space="preserve"><metadata
   id="metadata14"><rdf:RDF><cc:Work
       rdf:about=""><dc:format>image/svg+xml</dc:format><dc:type
         rdf:resource="http://purl.org/dc/dcmitype/StillImage" /><dc:title /></cc:Work></rdf:RDF></metadata>
<sodipodi:namedview
   id="base"
   inkscape:window-height="1088"
   inkscape:pageshadow="2"
   inkscape:pageopacity="0.0"
   inkscape:window-width="1920"
   inkscape:window-x="0"
   inkscape:window-y="0"
   inkscape:current-layer="layer1"
   showgrid="true"
   guidetolerance="10.0"
   inkscape:zoom="11.777778"
   gridtolerance="10.0"
   objecttolerance="10.0"
   borderopacity="1.0"
   bordercolor="#666666"
   inkscape:cx="141.86571"
   pagecolor="#ffffff"
   inkscape:cy="193.14313"
   inkscape:window-maximized="0"
   inkscape:snap-global="false">
	<inkscape:grid
   type="xygrid"
   id="grid3611"
   empspacing="5"
   visible="true"
   enabled="true"
   snapvisiblegridlinesonly="true" /></sodipodi:namedview>
<defs
   id="defs4"><pattern
     patternTransform="matrix(0.7467 -0.7467 0.7467 0.7467 3977.5254 -8206.5869)"
     xlink:href="#_x31_0_lpi_30_x25_-6"
     id="SVGID_3_-88" /><clipPath
     id="SVGID_2_"><use
       xlink:href="#SVGID_1_"
       style="overflow:visible"
       id="use3208"
       x="0"
       y="0"
       width="288"
       height="400" /></clipPath></defs>
<g
   id="g2415"
   transform="translate(0,80)">
	
	
	
		
</g><g
   inkscape:groupmode="layer"
   id="layer1"
   inkscape:label="Tower"
   transform="translate(0,80)"><g
     style="display:inline"
     id="g6138"
     transform="translate(6.0849055,-79.90566)"><g
       class="st10"
       id="Chimney-18"
       style="display:none"><circle
         id="circle6013"
         r="12.5"
         cy="200.00101"
         cx="144"
         class="st2"
         sodipodi:cx="144"
         sodipodi:cy="200.00101"
         sodipodi:rx="12.5"
         sodipodi:ry="12.5"
         style="fill:none;stroke:#000000;stroke-width:5;display:inline"
         d="m 156.5,200.00101 c 0,6.90356 -5.59644,12.5 -12.5,12.5 -6.90356,0 -12.5,-5.59644 -12.5,-12.5 0,-6.90356 5.59644,-12.5 12.5,-12.5 6.90356,0 12.5,5.59644 12.5,12.5 z" /><path
         id="path6015"
         d="m 154.016,65.573 c 2.085,-4.296 10.428,-6.448 10.428,-10.744"
         class="st2"
         inkscape:connector-curvature="0"
         style="fill:none;stroke:#000000;stroke-width:5;display:inline" /><path
         id="path6017"
         d="m 134.229,65.083 c -3.558,-17.769 23.098,-33.759 30.214,-21.32"
         class="st2"
         inkscape:connector-curvature="0"
         style="fill:none;stroke:#000000;stroke-width:5;display:inline" /><path
         id="path6019"
         d="M 154.891,68.51"
         class="st2"
         inkscape:connector-curvature="0"
         style="fill:none;stroke:#000000;stroke-width:5;display:inline" /><path
         id="path6021"
         d="M 132.891,68.51"
         class="st2"
         inkscape:connector-curvature="0"
         style="fill:none;stroke:#000000;stroke-width:5;display:inline" /><polyline
         id="polyline6023"
         points="119,200 134,71 154,71 169,200  "
         class="st2"
         style="fill:none;stroke:#000000;stroke-width:5;display:inline" /><path
         id="path6025"
         d="m 159.934,39.938 c 41.957,-41.761 82.291,64.239 -0.461,20.63"
         class="st2"
         inkscape:connector-curvature="0"
         style="fill:none;stroke:#000000;stroke-width:5;display:inline" /><line
         id="line6027"
         y2="200.00101"
         x2="181.5"
         y1="200.00101"
         x1="156.5"
         class="st2"
         style="fill:none;stroke:#000000;stroke-width:5;display:inline" /><line
         id="line6029"
         y2="200.00101"
         x2="131.5"
         y1="200.00101"
         x1="106.5"
         class="st2"
         style="fill:none;stroke:#000000;stroke-width:5;display:inline" /></g><g
       class="st10"
       id="Monument-49"
       style="display:none"><line
         id="line6032"
         y2="200.00101"
         x2="181.5"
         y1="200.00101"
         x1="156.5"
         class="st2"
         style="fill:none;stroke:#000000;stroke-width:5;display:inline" /><line
         id="line6034"
         y2="200.00101"
         x2="131.5"
         y1="200.00101"
         x1="106.5"
         class="st2"
         style="fill:none;stroke:#000000;stroke-width:5;display:inline" /><circle
         id="circle6036"
         r="12.5"
         cy="200"
         cx="144"
         class="st2"
         sodipodi:cx="144"
         sodipodi:cy="200"
         sodipodi:rx="12.5"
         sodipodi:ry="12.5"
         style="fill:none;stroke:#000000;stroke-width:5;display:inline"
         d="m 156.5,200 c 0,6.90356 -5.59644,12.5 -12.5,12.5 -6.90356,0 -12.5,-5.59644 -12.5,-12.5 0,-6.90356 5.59644,-12.5 12.5,-12.5 6.90356,0 12.5,5.59644 12.5,12.5 z" /><g
         id="g6038"
         class="st7"
         style="display:inline"><defs
           id="defs6040"><path
             d="M 175.5,63.5 C 175.5,46.096 161.404,32 144,32 c -17.404,0 -31.5,14.096 -31.5,31.5 0,9.572 4.27,18.138 11.003,23.914 L 119,200 h 12 c 0,-7.18 5.82,-13 13,-13 7.18,0 13,5.82 13,13 h 12 L 164.496,87.414 C 171.23,81.638 175.5,73.072 175.5,63.5 z"
             id="SVGID_1_-63"
             inkscape:connector-curvature="0" /></defs><clipPath
           id="SVGID_2_-7"><use
             id="use6044"
             style="overflow:visible"
             xlink:href="#SVGID_1_-63"
             x="0"
             y="0"
             width="1"
             height="1" /></clipPath><pattern
           patternTransform="matrix(0.7467 -0.7467 0.7467 0.7467 3977.5254 -8206.5869)"
           xlink:href="#_x31_0_lpi_30_x25_-6"
           id="pattern5110" /><polygon
           style="fill:url(#SVGID_3_-88)"
           clip-path="url(#SVGID_2_)"
           id="polygon6047"
           points="151.935,-40 -6,117.934 136.066,260 294,102.066 "
           class="st0" /></g><g
         id="g6049"
         class="st7"
         style="display:inline"><g
           id="g6051"><path
             id="path6053"
             d="m 175.5,63 c 0,-17.404 -14.096,-31.5 -31.5,-31.5 -17.404,0 -31.5,14.096 -31.5,31.5 0,9.572 4.271,18.138 11.003,23.914 L 119,199.5 h 12 c 0,-7.18 5.82,-13 13,-13 7.18,0 13,5.82 13,13 h 12 L 164.496,86.914 C 171.23,81.138 175.5,72.572 175.5,63 z"
             class="st8"
             inkscape:connector-curvature="0"
             style="fill:none;stroke:#000000;stroke-width:5" /></g></g></g><g
       class="st10"
       id="Radio_x5F_mast-2"
       style="display:none"><circle
         id="circle6056"
         r="12.5"
         cy="200.00101"
         cx="144"
         class="st2"
         sodipodi:cx="144"
         sodipodi:cy="200.00101"
         sodipodi:rx="12.5"
         sodipodi:ry="12.5"
         style="fill:none;stroke:#000000;stroke-width:5;display:inline"
         d="m 156.5,200.00101 c 0,6.90356 -5.59644,12.5 -12.5,12.5 -6.90356,0 -12.5,-5.59644 -12.5,-12.5 0,-6.90356 5.59644,-12.5 12.5,-12.5 6.90356,0 12.5,5.59644 12.5,12.5 z" /><line
         id="line6058"
         y2="200.00101"
         x2="181.5"
         y1="200.00101"
         x1="156.5"
         class="st2"
         style="fill:none;stroke:#000000;stroke-width:5;display:inline" /><line
         id="line6060"
         y2="200.00101"
         x2="131.5"
         y1="200.00101"
         x1="106.5"
         class="st2"
         style="fill:none;stroke:#000000;stroke-width:5;display:inline" /><polyline
         id="polyline6062"
         points="119,200 144,71 169,200  "
         class="st2"
         style="fill:none;stroke:#000000;stroke-width:5;display:inline" /><g
         id="g6064"
         class="st7"
         style="display:inline"><path
           id="path6066"
           d="M 176.69,40.093 C 184.315,48.155 189,59.027 189,71 c 0,11.973 -4.685,22.845 -12.31,30.907"
           class="st9"
           inkscape:connector-curvature="0"
           style="fill:none;stroke:#000000;stroke-width:5;stroke-linecap:round" /><path
           id="path6068"
           d="M 111.31,40.093 C 103.685,48.155 99,59.027 99,71 c 0,11.973 4.685,22.845 12.31,30.907"
           class="st9"
           inkscape:connector-curvature="0"
           style="fill:none;stroke:#000000;stroke-width:5;stroke-linecap:round" /><path
           id="path6070"
           d="M 167.609,93.322 C 173.116,87.499 176.5,79.647 176.5,71 c 0,-8.647 -3.384,-16.499 -8.891,-22.321"
           class="st9"
           inkscape:connector-curvature="0"
           style="fill:none;stroke:#000000;stroke-width:5;stroke-linecap:round" /><path
           id="path6072"
           d="M 120.391,48.678 C 114.883,54.501 111.5,62.353 111.5,71 c 0,8.647 3.383,16.499 8.891,22.322"
           class="st9"
           inkscape:connector-curvature="0"
           style="fill:none;stroke:#000000;stroke-width:5;stroke-linecap:round" /></g></g><g
       class="st10"
       id="Water_x5F_tower-9"
       style="display:none"><circle
         id="circle6075"
         r="12.5"
         cy="200.00101"
         cx="144"
         class="st2"
         sodipodi:cx="144"
         sodipodi:cy="200.00101"
         sodipodi:rx="12.5"
         sodipodi:ry="12.5"
         style="fill:none;stroke:#000000;stroke-width:5;display:inline"
         d="m 156.5,200.00101 c 0,6.90356 -5.59644,12.5 -12.5,12.5 -6.90356,0 -12.5,-5.59644 -12.5,-12.5 0,-6.90356 5.59644,-12.5 12.5,-12.5 6.90356,0 12.5,5.59644 12.5,12.5 z" /><line
         id="line6077"
         y2="200.00101"
         x2="181.5"
         y1="200.00101"
         x1="156.5"
         class="st2"
         style="fill:none;stroke:#000000;stroke-width:5;display:inline" /><line
         id="line6079"
         y2="200.00101"
         x2="131.5"
         y1="200.00101"
         x1="106.5"
         class="st2"
         style="fill:none;stroke:#000000;stroke-width:5;display:inline" /><polyline
         id="polyline6081"
         points="119,200 126,71 114,71 114,30 174,30 174,71 162,71 169,200  "
         class="st2"
         style="fill:none;stroke:#000000;stroke-width:5;display:inline" /><line
         id="line6083"
         y2="71"
         x2="162"
         y1="71"
         x1="126"
         class="st2"
         style="fill:none;stroke:#000000;stroke-width:5;display:inline" /></g><g
       class="st10"
       id="Flare_x5F_stack-1"
       style="display:none"><line
         id="line6086"
         y2="200.00101"
         x2="181.5"
         y1="200.00101"
         x1="156.5"
         class="st2"
         style="fill:none;stroke:#000000;stroke-width:5;display:inline" /><line
         id="line6088"
         y2="200.00101"
         x2="131.5"
         y1="200.00101"
         x1="106.5"
         class="st2"
         style="fill:none;stroke:#000000;stroke-width:5;display:inline" /><path
         id="path6090"
         d="M 157.569,26.465 C 145.004,55.267 168.625,66.292 154,84.917 148.247,92.243 138.125,95 132.5,84.25 c -14.033,-26.818 31.25,-63 31.25,-63"
         class="st1"
         inkscape:connector-curvature="0"
         style="fill:none;stroke:#000000;stroke-width:3;display:inline" /><circle
         id="circle6092"
         r="12.5"
         cy="200"
         cx="144"
         class="st2"
         sodipodi:cx="144"
         sodipodi:cy="200"
         sodipodi:rx="12.5"
         sodipodi:ry="12.5"
         style="fill:none;stroke:#000000;stroke-width:5;display:inline"
         d="m 156.5,200 c 0,6.90356 -5.59644,12.5 -12.5,12.5 -6.90356,0 -12.5,-5.59644 -12.5,-12.5 0,-6.90356 5.59644,-12.5 12.5,-12.5 6.90356,0 12.5,5.59644 12.5,12.5 z" /><rect
         id="rect6094"
         height="100"
         width="15"
         class="st6"
         y="87.5"
         x="136.5"
         style="stroke:#000000;stroke-width:5;display:inline" /></g><g
       class="st10"
       id="Flagstaff-3"
       style="display:none"><line
         id="line6097"
         y2="200.00101"
         x2="181.5"
         y1="200.00101"
         x1="156.5"
         class="st2"
         style="fill:none;stroke:#000000;stroke-width:5;display:inline" /><line
         id="line6099"
         y2="200.00101"
         x2="131.5"
         y1="200.00101"
         x1="106.5"
         class="st2"
         style="fill:none;stroke:#000000;stroke-width:5;display:inline" /><circle
         id="circle6101"
         r="12.5"
         cy="200"
         cx="144"
         class="st2"
         sodipodi:cx="144"
         sodipodi:cy="200"
         sodipodi:rx="12.5"
         sodipodi:ry="12.5"
         style="fill:none;stroke:#000000;stroke-width:5;display:inline"
         d="m 156.5,200 c 0,6.90356 -5.59644,12.5 -12.5,12.5 -6.90356,0 -12.5,-5.59644 -12.5,-12.5 0,-6.90356 5.59644,-12.5 12.5,-12.5 6.90356,0 12.5,5.59644 12.5,12.5 z" /><line
         id="line6103"
         y2="25"
         x2="144"
         y1="187.5"
         x1="144"
         class="st2"
         style="fill:none;stroke:#000000;stroke-width:5;display:inline" /><polyline
         id="polyline6105"
         points="144,40 186,40 186,82 144,82  "
         class="st2"
         style="fill:none;stroke:#000000;stroke-width:5;display:inline" /></g><g
       class="st10"
       id="Dish_x5F_aerial-59"
       style="display:none"><line
         id="line6108"
         y2="200.00101"
         x2="181.5"
         y1="200.00101"
         x1="156.5"
         class="st2"
         style="fill:none;stroke:#000000;stroke-width:5;display:inline" /><line
         id="line6110"
         y2="200.00101"
         x2="131.5"
         y1="200.00101"
         x1="106.5"
         class="st2"
         style="fill:none;stroke:#000000;stroke-width:5;display:inline" /><circle
         id="circle6112"
         r="12.5"
         cy="200"
         cx="144"
         class="st2"
         sodipodi:cx="144"
         sodipodi:cy="200"
         sodipodi:rx="12.5"
         sodipodi:ry="12.5"
         style="fill:none;stroke:#000000;stroke-width:5;display:inline"
         d="m 156.5,200 c 0,6.90356 -5.59644,12.5 -12.5,12.5 -6.90356,0 -12.5,-5.59644 -12.5,-12.5 0,-6.90356 5.59644,-12.5 12.5,-12.5 6.90356,0 12.5,5.59644 12.5,12.5 z" /><path
         id="path6114"
         d="m 140.012,42.636 c -22.984,13.27 -29.292,45.37 -14.092,71.698 15.2,26.328 46.154,36.914 69.138,23.644 L 140.012,42.636 z"
         class="st2"
         inkscape:connector-curvature="0"
         style="fill:none;stroke:#000000;stroke-width:5;display:inline" /><polygon
         id="polygon6116"
         points="151,187 137,187 142,137 146,137 "
         class="st6"
         style="stroke:#000000;stroke-width:5;display:inline" /><polygon
         id="polygon6118"
         points="168.03,86.21 175.894,82.851 169.693,89.12 "
         class="st5"
         style="stroke:#000000;stroke-width:2;display:inline" /></g><g
       id="Tower-8"><line
         id="line6121"
         y2="71"
         x2="160"
         y1="71"
         x1="128"
         class="st8"
         style="fill:none;stroke:#000000;stroke-width:5" /><circle
         id="circle6123"
         r="12.5"
         cy="200.00101"
         cx="144"
         class="st8"
         sodipodi:cx="144"
         sodipodi:cy="200.00101"
         sodipodi:rx="12.5"
         sodipodi:ry="12.5"
         style="fill:none;stroke:#000000;stroke-width:5"
         d="m 156.5,200.00101 c 0,6.90356 -5.59644,12.5 -12.5,12.5 -6.90356,0 -12.5,-5.59644 -12.5,-12.5 0,-6.90356 5.59644,-12.5 12.5,-12.5 6.90356,0 12.5,5.59644 12.5,12.5 z" /><line
         id="line6125"
         y2="200.00101"
         x2="181.5"
         y1="200.00101"
         x1="156.5"
         class="st8"
         style="fill:none;stroke:#000000;stroke-width:5" /><line
         id="line6127"
         y2="200.00101"
         x2="131.5"
         y1="200.00101"
         x1="106.5"
         class="st8"
         style="fill:none;stroke:#000000;stroke-width:5" /><polyline
         id="polyline6129"
         points="119,200 128,71 128,32 160,32 160,71 169,200.001  "
         class="st8"
         style="fill:none;stroke:#000000;stroke-width:5" /></g></g></g>

</svg>