<?xml version="1.0" encoding="UTF-8" standalone="no"?>
<!-- Generator: Adobe Illustrator 14.0.0, SVG Export Plug-In . SVG Version: 6.00 Build 43363)  -->

<svg
   xmlns:dc="http://purl.org/dc/elements/1.1/"
   xmlns:cc="http://creativecommons.org/ns#"
   xmlns:rdf="http://www.w3.org/1999/02/22-rdf-syntax-ns#"
   xmlns:svg="http://www.w3.org/2000/svg"
   xmlns="http://www.w3.org/2000/svg"
   xmlns:sodipodi="http://sodipodi.sourceforge.net/DTD/sodipodi-0.dtd"
   xmlns:inkscape="http://www.inkscape.org/namespaces/inkscape"
   version="1.1"
   id="svg2"
   sodipodi:version="0.32"
   sodipodi:docname="Marina.svg"
   inkscape:version="0.48.1 r9760"
   inkscape:output_extension="org.inkscape.output.svg.inkscape"
   x="0px"
   y="0px"
   width="160"
   height="160"
   viewBox="0 0 160 160"
   xml:space="preserve"><metadata
   id="metadata8"><rdf:RDF><cc:Work
       rdf:about=""><dc:format>image/svg+xml</dc:format><dc:type
         rdf:resource="http://purl.org/dc/dcmitype/StillImage" /></cc:Work></rdf:RDF></metadata>
<sodipodi:namedview
   id="base"
   inkscape:window-height="1088"
   inkscape:pageshadow="2"
   inkscape:pageopacity="0.0"
   inkscape:window-width="1920"
   inkscape:window-x="0"
   inkscape:window-y="0"
   inkscape:current-layer="svg2"
   inkscape:cx="-0.99979044"
   borderopacity="1.0"
   inkscape:cy="87.169811"
   bordercolor="#666666"
   pagecolor="#ffffff"
   guidetolerance="10.0"
   showgrid="false"
   inkscape:zoom="3.123055"
   gridtolerance="10.0"
   objecttolerance="10.0"
   inkscape:window-maximized="1">
	</sodipodi:namedview>
<defs
   id="defs4">
	
	
		<inkscape:perspective
   id="perspective8"
   inkscape:persp3d-origin="60 : 40 : 1"
   sodipodi:type="inkscape:persp3d"
   inkscape:vp_x="0 : 60 : 1"
   inkscape:vp_y="0 : 1000 : 0"
   inkscape:vp_z="120 : 60 : 1">
		</inkscape:perspective>
</defs>
<path
   id="path12043"
   d="M 14.465729,125.30501 H 76.414924 L 78.405803,11.262763 h 2.994781 l 0.493738,23.343832 24.490798,-11.689639 -0.14135,10.152488 0.35189,10.135014 1.19851,10.063623 2.39602,9.831478 3.54178,9.50947 4.3864,9.134044 5.03991,8.812535 6.04381,8.042711 6.16675,6.417691 -51.977377,10.13452 v 10.15348 H 145.8329 l -6.766,7.54398 -7.11839,7.1306 -7.70022,6.3463 -8.59861,5.20206 -9.28447,3.96943 -9.797113,2.75329 -10.02557,1.50121 L 76.447774,160 l -9.989735,-0.9825 -9.760783,-2.25256 -9.48007,-3.53909 -8.985336,-4.73576 -8.228304,-5.88052 -7.275668,-6.98932 -6.326517,-7.79209 -1.935632,-2.52315 z m 15.48705,-5.59495 -0.634593,-10.18943 -0.106014,-10.116542 0.968563,-10.028178 2.378603,-9.830979 3.59503,-9.526943 4.597438,-9.133544 5.461977,-8.58039 6.396198,-7.793592 7.3996,-6.72123 8.176044,-5.863541 5.215606,-3.431756 -5.392297,8.561918 -4.651192,8.937843 -3.45318,9.526444 -2.238744,9.939313 -1.127335,10.135514 0.05176,10.135014 1.338866,10.029675 1.99088,9.259354 -29.967213,14.69105 M 11.470451,120.24574 7.0840462,111.1127 3.3820062,101.76248 1.0048963,91.950476 0,81.779018 0.38772374,71.518196 2.0963959,61.401154 5.0399109,51.570175 9.1804421,42.202489 14.430391,33.462343 20.737994,25.454579 27.9619,18.322975 36.048851,12.191844 44.857497,7.0801539 54.24947,3.1826092 64.132692,0.4847314 74.282195,-0.89216477 84.555132,-1 l 10.201763,1.17919824 9.936475,2.44925766 9.4965,3.7178194 8.84498,5.0053517 8.08745,6.148606 7.24132,7.203493 6.32652,8.098126 5.3908,8.84848 4.29881,9.455054 3.13613,9.92134 1.93762,10.17096 0.5465,10.223878 -0.91531,10.029675 -2.41493,9.741121 -3.57662,9.45505 -4.14003,9.31227 -0.12344,0.28756 h -7.98143 l 4.49341,-9.15252 3.87575,-9.33024 2.57321,-9.72464 1.07408,-10.134515 -0.49274,-10.260323 -1.86745,-10.170959 -3.22473,-9.796532 -4.4735,-9.276326 -5.65659,-8.508 -6.73016,-7.667784 -7.73656,-6.577949 -8.59761,-5.433199 -9.3213,-4.148161 -9.760286,-2.8251837 -10.112174,-1.393371 -10.203256,0.071391 -10.077333,1.5556231 -9.797117,2.9669667 -9.284963,4.254 -8.56327,5.523061 -7.69873,6.667313 -6.643067,7.70323 -5.514735,8.562417 -4.404323,9.295297 -3.2247266,9.795034 -1.900792,10.17046 -0.5290761,10.260822 1.0039008,10.099069 2.6608099,9.705669 3.982257,9.2948 4.264463,8.47255 -7.491181,5e-4 0,0 z"
   inkscape:connector-curvature="0"
   style="fill:#a30075" />
</svg>