<?xml version="1.0" encoding="UTF-8" standalone="no"?>
<!-- Created with Inkscape (http://www.inkscape.org/) -->

<svg
   xmlns:dc="http://purl.org/dc/elements/1.1/"
   xmlns:cc="http://creativecommons.org/ns#"
   xmlns:rdf="http://www.w3.org/1999/02/22-rdf-syntax-ns#"
   xmlns:svg="http://www.w3.org/2000/svg"
   xmlns="http://www.w3.org/2000/svg"
   xmlns:sodipodi="http://sodipodi.sourceforge.net/DTD/sodipodi-0.dtd"
   xmlns:inkscape="http://www.inkscape.org/namespaces/inkscape"
   width="300"
   height="400"
   id="svg2"
   version="1.1"
   inkscape:version="0.48.2 r9819"
   sodipodi:docname="Marina.svg"
   style="display:inline">
  <defs
     id="defs4" />
  <sodipodi:namedview
     id="base"
     pagecolor="#ffffff"
     bordercolor="#666666"
     borderopacity="1.0"
     inkscape:pageopacity="0.0"
     inkscape:pageshadow="2"
     inkscape:zoom="3.959798"
     inkscape:cx="69.163012"
     inkscape:cy="197.22887"
     inkscape:document-units="px"
     inkscape:current-layer="layer7"
     showgrid="true"
     inkscape:window-width="1920"
     inkscape:window-height="1088"
     inkscape:window-x="0"
     inkscape:window-y="0"
     inkscape:window-maximized="0"
     inkscape:snap-global="false">
    <inkscape:grid
       type="xygrid"
       id="grid3004"
       empspacing="5"
       visible="true"
       enabled="true"
       snapvisiblegridlinesonly="true" />
  </sodipodi:namedview>
  <metadata
     id="metadata7">
    <rdf:RDF>
      <cc:Work
         rdf:about="">
        <dc:format>image/svg+xml</dc:format>
        <dc:type
           rdf:resource="http://purl.org/dc/dcmitype/StillImage" />
        <dc:title />
      </cc:Work>
    </rdf:RDF>
  </metadata>
  <g
     inkscape:groupmode="layer"
     id="layer7"
     inkscape:label="Marina"
     style="display:inline">
    <path
       style="fill:#a30075"
       inkscape:connector-curvature="0"
       d="m 84.220844,250.3405 h 61.949196 l 1.99088,-114.04225 h 2.99478 l 0.49374,23.34383 24.4908,-11.68964 -0.14135,10.15249 0.35189,10.13501 1.19851,10.06363 2.39602,9.83147 3.54178,9.50947 4.3864,9.13405 5.03991,8.81253 6.04381,8.04271 6.16675,6.4177 -51.97738,10.13452 v 10.15348 h 62.44144 l -6.766,7.54398 -7.11839,7.1306 -7.70022,6.3463 -8.59861,5.20206 -9.28447,3.96943 -9.79711,2.75329 -10.02557,1.50121 -10.09476,0.24912 -9.98973,-0.9825 -9.76078,-2.25256 -9.48007,-3.53909 -8.98534,-4.73576 -8.228306,-5.88052 -7.27567,-6.98932 -6.32652,-7.79209 -1.93563,-2.52315 z m 15.48705,-5.59495 -0.63459,-10.18943 -0.10602,-10.11655 0.96856,-10.02817 2.378606,-9.83098 3.59504,-9.52695 4.59744,-9.13354 5.46197,-8.58039 6.3962,-7.79359 7.3996,-6.72123 8.17604,-5.86354 5.21561,-3.43176 -5.3923,8.56192 -4.65119,8.93784 -3.45318,9.52645 -2.23874,9.93931 -1.12734,10.13551 0.0518,10.13502 1.33887,10.02967 1.99088,9.25936 -29.967216,14.69105 m -18.48233,0.53568 -4.3864,-9.13304 -3.70204,-9.35022 -2.37711,-9.81201 -1.0049,-10.17146 0.38772,-10.26082 1.70868,-10.11704 2.94351,-9.83098 4.14053,-9.36769 5.24995,-8.74014 6.3076,-8.00777 7.22391,-7.1316 8.086956,-6.13113 8.80865,-5.11169 9.39197,-3.89754 9.88322,-2.69788 10.1495,-1.3769 10.27294,-0.10783 10.20176,1.17919 9.93648,2.44926 9.4965,3.71782 8.84498,5.00535 8.08745,6.14861 7.24132,7.20349 6.32652,8.09813 5.3908,8.84848 4.29881,9.45505 3.13613,9.92134 1.93762,10.17096 0.5465,10.22388 -0.91531,10.02967 -2.41493,9.74113 -3.57662,9.45505 -4.14003,9.31227 -0.12344,0.28756 h -7.98143 l 4.49341,-9.15252 3.87575,-9.33024 2.57321,-9.72464 1.07408,-10.13452 -0.49274,-10.26032 -1.86745,-10.17096 -3.22473,-9.79653 -4.4735,-9.27633 -5.65659,-8.508 -6.73016,-7.66778 -7.73656,-6.57795 -8.59761,-5.4332 -9.3213,-4.14816 -9.76029,-2.82519 -10.11217,-1.39337 -10.20326,0.0714 -10.07733,1.55563 -9.79712,2.96696 -9.28496,4.254 -8.56327,5.52306 -7.698736,6.66732 -6.64307,7.70323 -5.51473,8.56241 -4.40432,9.2953 -3.22473,9.79504 -1.90079,10.17046 -0.52908,10.26082 1.0039,10.09907 2.66081,9.70567 3.98226,9.2948 4.26446,8.47255 -7.49118,5e-4 0,0 z"
       id="path12043" />
  </g>
</svg>
