<?xml version="1.0" encoding="UTF-8" standalone="no"?>
<!-- Generator: Adobe Illustrator 14.0.0, SVG Export Plug-In . SVG Version: 6.00 Build 43363)  -->

<svg
   xmlns:dc="http://purl.org/dc/elements/1.1/"
   xmlns:cc="http://creativecommons.org/ns#"
   xmlns:rdf="http://www.w3.org/1999/02/22-rdf-syntax-ns#"
   xmlns:svg="http://www.w3.org/2000/svg"
   xmlns="http://www.w3.org/2000/svg"
   xmlns:sodipodi="http://sodipodi.sourceforge.net/DTD/sodipodi-0.dtd"
   xmlns:inkscape="http://www.inkscape.org/namespaces/inkscape"
   version="1.1"
   id="svg2"
   sodipodi:version="0.32"
   sodipodi:docname="Marina.svg"
   inkscape:version="0.48.1 r9760"
   inkscape:output_extension="org.inkscape.output.svg.inkscape"
   x="0px"
   y="0px"
   width="160"
   height="160"
   viewBox="0 0 160 160"
   xml:space="preserve"><metadata
   id="metadata8"><rdf:RDF><cc:Work
       rdf:about=""><dc:format>image/svg+xml</dc:format><dc:type
         rdf:resource="http://purl.org/dc/dcmitype/StillImage" /></cc:Work></rdf:RDF></metadata>
<sodipodi:namedview
   id="base"
   inkscape:window-height="1088"
   inkscape:pageshadow="2"
   inkscape:pageopacity="0.0"
   inkscape:window-width="1920"
   inkscape:window-x="1440"
   inkscape:window-y="0"
   inkscape:current-layer="svg2"
   inkscape:cx="-48.547558"
   borderopacity="1.0"
   inkscape:cy="87.169811"
   bordercolor="#666666"
   pagecolor="#ffffff"
   guidetolerance="10.0"
   showgrid="false"
   inkscape:zoom="1.5615275"
   gridtolerance="10.0"
   objecttolerance="10.0"
   inkscape:window-maximized="0">
	</sodipodi:namedview>
<defs
   id="defs4">
	
	
		<inkscape:perspective
   id="perspective8"
   inkscape:persp3d-origin="60 : 40 : 1"
   sodipodi:type="inkscape:persp3d"
   inkscape:vp_x="0 : 60 : 1"
   inkscape:vp_y="0 : 1000 : 0"
   inkscape:vp_z="120 : 60 : 1">
		</inkscape:perspective>
</defs>
<path
   id="path12043"
   d="m 14.532,125.252 h 62.233 l 2,-114.2165 h 3.0085 l 0.496,23.3795 24.603,-11.7075 -0.142,10.168 0.3535,10.1505 1.204,10.079 2.407,9.8465 3.558,9.524 4.4065,9.148 5.063,8.826 6.0715,8.055 6.195,6.4275 -52.2155,10.15 v 10.169 h 62.7275 l -6.797,7.5555 -7.151,7.1415 -7.7355,6.356 -8.638,5.21 -9.327,3.9755 -9.842,2.7575 L 86.939,159.7505 76.798,160 66.7625,159.016 56.957,156.76 l -9.5235,-3.5445 -9.0265,-4.743 -8.266,-5.8895 -7.309,-7 -6.3555,-7.804 -1.9445,-2.527 z m 15.558,-5.6035 -0.6375,-10.205 -0.1065,-10.132 0.973,-10.0435 2.3895,-9.846 3.6115,-9.5415 4.6185,-9.1475 5.487,-8.5935 6.4255,-7.8055 7.4335,-6.7315 8.2135,-5.8725 5.2395,-3.437 -5.417,8.575 -4.6725,8.9515 -3.469,9.541 -2.249,9.9545 -1.1325,10.151 0.052,10.1505 1.345,10.045 2,9.2735 L 30.09,119.6485 M 11.523,120.185 7.1165,111.038 3.3975,101.6735 1.0095,91.8465 0,81.6595 0.3895,71.383 2.106,61.2505 l 2.957,-9.846 4.1595,-9.382 5.274,-8.7535 6.3365,-8.02 7.257,-7.1425 8.124,-6.1405 8.849,-5.1195 9.435,-3.9035 9.9285,-2.702 10.196,-1.379 10.32,-0.108 10.2485,1.181 9.982,2.453 9.54,3.7235 8.8855,5.013 8.1245,6.158 7.2745,7.2145 6.3555,8.1105 5.4155,8.862 4.3185,9.4695 3.1505,9.9365 1.9465,10.1865 0.549,10.2395 -0.9195,10.045 -2.426,9.756 -3.593,9.4695 -4.159,9.3265 -0.124,0.288 h -8.018 l 4.514,-9.1665 3.8935,-9.3445 2.585,-9.7395 1.079,-10.15 -0.495,-10.276 -1.876,-10.1865 -3.2395,-9.8115 -4.494,-9.2905 -5.6825,-8.521 -6.761,-7.6795 -7.772,-6.588 -8.637,-5.4415 L 105.244,9.837 95.439,7.0075 85.2805,5.612 l -10.25,0.0715 -10.1235,1.558 -9.842,2.9715 -9.3275,4.2605 -8.6025,5.5315 -7.734,6.6775 -6.6735,7.715 -5.54,8.5755 -4.4245,9.3095 -3.2395,9.81 -1.9095,10.186 -0.5315,10.2765 1.0085,10.1145 2.673,9.7205 4.0005,9.309 4.284,8.4855 -7.5255,5e-4 0,0 z"
   inkscape:connector-curvature="0"
   style="fill:#a30075" />
</svg>