<?xml version="1.0" encoding="UTF-8" standalone="no"?>
<!-- Generator: Adobe Illustrator 14.0.0, SVG Export Plug-In . SVG Version: 6.00 Build 43363)  -->
<svg id="svg8829" xml:space="preserve" height="400" viewBox="0 0 300 400" xmlns:dc="http://purl.org/dc/elements/1.1/" width="300" version="1.1" xmlns:xlink="http://www.w3.org/1999/xlink" xmlns:cc="http://creativecommons.org/ns#" xmlns:rdf="http://www.w3.org/1999/02/22-rdf-syntax-ns#" xmlns="http://www.w3.org/2000/svg" y="0px" x="0px" enable-background="new 0 0 320 320"><metadata id="metadata14"><rdf:RDF><cc:Work rdf:about=""><dc:format>image/svg+xml</dc:format><dc:type rdf:resource="http://purl.org/dc/dcmitype/StillImage"/><dc:title/></cc:Work></rdf:RDF></metadata>
<defs id="defs4"><pattern id="SVGID_3_-4" xlink:href="#_x31_0_lpi_30_x25_-1" patternTransform="matrix(.7467 -.7467 .7467 .7467 3977.5 -8206.6)"/><clipPath id="SVGID_2_"><use id="use3208" xlink:href="#SVGID_1_" height="400" width="288" y="0" x="0"/></clipPath><pattern id="pattern6929" width="506.59375" patternUnits="userSpaceOnUse" patternTransform="translate(-86.562 -14)" height="291.46875"><path id="path6481" d="m215.26 1.0496 289.91 289.91h1.4142" stroke="#000" stroke-width="1px" fill="none"/><path id="path6481-9" d="m24.223 0.34253 289.91 289.91h1.4142" stroke="#000" stroke-width="1px" fill="none"/><path id="path6481-8" d="m36.163 0.34253 289.91 289.91h1.4142" stroke="#000" stroke-width="1px" fill="none"/><path id="path6481-1" d="m48.102 0.34253 289.91 289.91h1.4142" stroke="#000" stroke-width="1px" fill="none"/><path id="path6481-82" d="m60.042 0.34253 289.91 289.91h1.4142" stroke="#000" stroke-width="1px" fill="none"/><path id="path6481-6" d="m71.981 0.34253 289.91 289.91h1.4142" stroke="#000" stroke-width="1px" fill="none"/><path id="path6481-60" d="m83.921 0.34253 289.91 289.91h1.4142" stroke="#000" stroke-width="1px" fill="none"/><path id="path6481-3" d="m95.861 0.34253 289.91 289.91h1.4142" stroke="#000" stroke-width="1px" fill="none"/><path id="path6481-80" d="m107.8 0.34253 289.91 289.91h1.4142" stroke="#000" stroke-width="1px" fill="none"/><path id="path6481-12" d="m12.284 0.34253 289.91 289.91h1.4142" stroke="#000" stroke-width="1px" fill="none"/><path id="path6481-5" d="m119.74 0.34253 289.91 289.91h1.4142" stroke="#000" stroke-width="1px" fill="none"/><path id="path6481-0" d="m131.68 0.34253 289.91 289.91h1.4142" stroke="#000" stroke-width="1px" fill="none"/><path id="path6481-94" d="m143.62 0.34253 289.91 289.91h1.4142" stroke="#000" stroke-width="1px" fill="none"/><path id="path6481-7" d="m155.56 0.34253 289.91 289.91h1.4142" stroke="#000" stroke-width="1px" fill="none"/><path id="path6481-83" d="m167.5 0.34253 289.91 289.91h1.4142" stroke="#000" stroke-width="1px" fill="none"/><path id="path6481-51" d="m179.44 0.34253 289.91 289.91h1.4142" stroke="#000" stroke-width="1px" fill="none"/><path id="path6481-2" d="m191.38 0.34253 289.91 289.91h1.4142" stroke="#000" stroke-width="1px" fill="none"/><path id="path6481-01" d="m203.32 0.34253 289.91 289.91h1.4142" stroke="#000" stroke-width="1px" fill="none"/><path id="path6481-64" d="m0.34424 0.34253 289.91 289.91h1.4142" stroke="#000" stroke-width="1px" fill="none"/></pattern></defs>
<g id="layer1" transform="translate(0,80)"><g id="g3630" transform="translate(6.0094 -80)"><g id="Chimney-7" class="st10" stroke="#000" stroke-width="5" display="none" fill="none"><path id="circle3505" d="m156.5 200c0 6.9036-5.5964 12.5-12.5 12.5s-12.5-5.5964-12.5-12.5 5.5964-12.5 12.5-12.5 12.5 5.5964 12.5 12.5z" display="inline"/><path id="path3507" d="m154.02 65.573c2.085-4.296 10.428-6.448 10.428-10.744" display="inline" class="st2"/><path id="path3509" d="m134.23 65.083c-3.558-17.769 23.098-33.759 30.214-21.32" display="inline" class="st2"/><path id="path3511" d="m154.89 68.51" display="inline" class="st2"/><path id="path3513" d="m132.89 68.51" display="inline" class="st2"/><path id="polyline3515" d="m119 200 15-129h20l15 129" display="inline"/><path id="path3517" d="m159.93 39.938c41.957-41.761 82.291 64.239-0.461 20.63" display="inline" class="st2"/><path id="line3519" d="m156.5 200h25" display="inline"/><path id="line3521" d="m106.5 200h25" display="inline"/></g><g id="Monument-4"><path id="line3524" d="m156.5 200h25" stroke="#000" stroke-width="5" fill="none"/><path id="line3526" d="m106.5 200h25" stroke="#000" stroke-width="5" fill="none"/><path id="circle3528" d="m156.5 200c0 6.9036-5.5964 12.5-12.5 12.5s-12.5-5.5964-12.5-12.5 5.5964-12.5 12.5-12.5 12.5 5.5964 12.5 12.5z" stroke="#000" stroke-width="5" fill="none"/><g id="g3530"><defs id="defs3532"><path id="SVGID_1_-0" d="m175.5 63.5c0-17.404-14.1-31.5-31.5-31.5-17.404 0-31.5 14.096-31.5 31.5 0 9.572 4.27 18.138 11.003 23.914l-4.5 112.59h12c0-7.18 5.82-13 13-13s13 5.82 13 13h12l-4.5-112.59c6.73-5.772 11-14.338 11-23.91z"/></defs><clipPath id="SVGID_2_-9"><use id="use3536" xlink:href="#SVGID_1_-0" height="1" width="1" y="0" x="0"/></clipPath><path id="polygon3539" fill="url(#SVGID_3_-4)" d="m151.94-40-157.94 157.93 142.07 142.07 157.93-157.93z" clip-path="url(#SVGID_2_)"/></g><g id="g3541"><g id="g3543"><path id="path3545" d="m175.5 63c0-17.404-14.096-31.5-31.5-31.5s-31.5 14.096-31.5 31.5c0 9.572 4.271 18.138 11.003 23.914l-4.5 112.59h12c0-7.18 5.82-13 13-13s13 5.82 13 13h12l-4.5-112.59c6.73-5.772 11-14.338 11-23.91z" stroke="#000" stroke-width="5" class="st8" fill="url(#pattern6929)"/></g></g></g><g id="Radio_x5F_mast-8" class="st10" stroke="#000" stroke-width="5" display="none" fill="none"><path id="circle3548" d="m156.5 200c0 6.9036-5.5964 12.5-12.5 12.5s-12.5-5.5964-12.5-12.5 5.5964-12.5 12.5-12.5 12.5 5.5964 12.5 12.5z" display="inline"/><path id="line3550" d="m156.5 200h25" display="inline"/><path id="line3552" d="m106.5 200h25" display="inline"/><path id="polyline3554" d="m119 200 25-129 25 129" display="inline"/><g id="g3556" class="st7" stroke-linecap="round" display="inline"><path id="path3558" d="m176.69 40.093c7.63 8.062 12.31 18.934 12.31 30.907s-4.685 22.845-12.31 30.907" class="st9"/><path id="path3560" d="m111.31 40.093c-7.63 8.062-12.31 18.934-12.31 30.907s4.685 22.845 12.31 30.907" class="st9"/><path id="path3562" d="m167.61 93.322c5.51-5.823 8.89-13.675 8.89-22.322s-3.384-16.499-8.891-22.321" class="st9"/><path id="path3564" d="m120.39 48.678c-5.51 5.823-8.89 13.675-8.89 22.322s3.383 16.499 8.891 22.322" class="st9"/></g></g><g id="Water_x5F_tower-8" class="st10" stroke="#000" stroke-width="5" display="none" fill="none"><path id="circle3567" d="m156.5 200c0 6.9036-5.5964 12.5-12.5 12.5s-12.5-5.5964-12.5-12.5 5.5964-12.5 12.5-12.5 12.5 5.5964 12.5 12.5z" display="inline"/><path id="line3569" d="m156.5 200h25" display="inline"/><path id="line3571" d="m106.5 200h25" display="inline"/><path id="polyline3573" d="m119 200 7-129h-12v-41h60v41h-12l7 129" display="inline"/><path id="line3575" d="m126 71h36" display="inline"/></g><g id="Flare_x5F_stack-2" stroke="#000" display="none" class="st10"><path id="line3578" d="m156.5 200h25" stroke-width="5" display="inline" fill="none"/><path id="line3580" d="m106.5 200h25" stroke-width="5" display="inline" fill="none"/><path id="path3582" d="m157.57 26.465c-12.57 28.802 11.05 39.827-3.57 58.452-5.75 7.326-15.88 10.083-21.5-0.667-14.033-26.818 31.25-63 31.25-63" display="inline" stroke-width="3" class="st1" fill="none"/><path id="circle3584" d="m156.5 200c0 6.9036-5.5964 12.5-12.5 12.5s-12.5-5.5964-12.5-12.5 5.5964-12.5 12.5-12.5 12.5 5.5964 12.5 12.5z" stroke-width="5" display="inline" fill="none"/><path id="rect3586" d="m136.5 87.5h15v100h-15z" stroke-width="5" display="inline"/></g><g id="Flagstaff-4" class="st10" stroke="#000" stroke-width="5" display="none" fill="none"><path id="line3589" d="m156.5 200h25" display="inline"/><path id="line3591" d="m106.5 200h25" display="inline"/><path id="circle3593" d="m156.5 200c0 6.9036-5.5964 12.5-12.5 12.5s-12.5-5.5964-12.5-12.5 5.5964-12.5 12.5-12.5 12.5 5.5964 12.5 12.5z" display="inline"/><path id="line3595" d="m144 187.5v-162.5" display="inline"/><path id="polyline3597" d="m144 40h42v42h-42" display="inline"/></g><g id="Dish_x5F_aerial-5" stroke="#000" display="none" class="st10"><path id="line3600" d="m156.5 200h25" stroke-width="5" display="inline" fill="none"/><path id="line3602" d="m106.5 200h25" stroke-width="5" display="inline" fill="none"/><path id="circle3604" d="m156.5 200c0 6.9036-5.5964 12.5-12.5 12.5s-12.5-5.5964-12.5-12.5 5.5964-12.5 12.5-12.5 12.5 5.5964 12.5 12.5z" stroke-width="5" display="inline" fill="none"/><path id="path3606" d="m140.01 42.636c-22.984 13.27-29.292 45.37-14.092 71.698s46.154 36.914 69.138 23.644l-55.05-95.344z" display="inline" stroke-width="5" class="st2" fill="none"/><path id="polygon3608" d="m151 187h-14l5-50h4z" stroke-width="5" display="inline"/><path id="polygon3610" d="m169.69 89.12-1.663-2.91 7.864-3.359z" stroke-width="2" display="inline"/></g><g id="Tower-5" class="st10" stroke="#000" stroke-width="5" display="none" fill="none"><path id="line3613" d="m128 71h32" display="inline"/><path id="circle3615" d="m156.5 200c0 6.9036-5.5964 12.5-12.5 12.5s-12.5-5.5964-12.5-12.5 5.5964-12.5 12.5-12.5 12.5 5.5964 12.5 12.5z" display="inline"/><path id="line3617" d="m156.5 200h25" display="inline"/><path id="line3619" d="m106.5 200h25" display="inline"/><path id="polyline3621" d="m119 200 9-129v-39h32v39l9 129" display="inline"/></g></g></g>
</svg>
