<?xml version="1.0" encoding="UTF-8" standalone="no"?>
<!-- Generator: Adobe Illustrator 14.0.0, SVG Export Plug-In . SVG Version: 6.00 Build 43363)  -->

<svg
   xmlns:dc="http://purl.org/dc/elements/1.1/"
   xmlns:cc="http://creativecommons.org/ns#"
   xmlns:rdf="http://www.w3.org/1999/02/22-rdf-syntax-ns#"
   xmlns:svg="http://www.w3.org/2000/svg"
   xmlns="http://www.w3.org/2000/svg"
   xmlns:xlink="http://www.w3.org/1999/xlink"
   xmlns:sodipodi="http://sodipodi.sourceforge.net/DTD/sodipodi-0.dtd"
   xmlns:inkscape="http://www.inkscape.org/namespaces/inkscape"
   version="1.1"
   id="svg8829"
   sodipodi:version="0.32"
   inkscape:version="0.48.1 r9760"
   sodipodi:docname="Aardvaark.svg"
   inkscape:export-xdpi="89.361702"
   inkscape:export-ydpi="89.361702"
   inkscape:export-filename="/Users/mherring/Desktop/try.png"
   inkscape:output_extension="org.inkscape.output.svg.inkscape"
   x="0px"
   y="0px"
   width="300"
   height="400"
   viewBox="0 0 300 400"
   enable-background="new 0 0 320 320"
   xml:space="preserve"><metadata
   id="metadata14"><rdf:RDF><cc:Work
       rdf:about=""><dc:format>image/svg+xml</dc:format><dc:type
         rdf:resource="http://purl.org/dc/dcmitype/StillImage" /><dc:title></dc:title></cc:Work></rdf:RDF></metadata>
<sodipodi:namedview
   id="base"
   inkscape:window-height="1088"
   inkscape:pageshadow="2"
   inkscape:pageopacity="0.0"
   inkscape:window-width="1920"
   inkscape:window-x="0"
   inkscape:window-y="0"
   inkscape:current-layer="layer1"
   showgrid="true"
   guidetolerance="10.0"
   inkscape:zoom="11.777778"
   gridtolerance="10.0"
   objecttolerance="10.0"
   borderopacity="1.0"
   bordercolor="#666666"
   inkscape:cx="141.86571"
   pagecolor="#ffffff"
   inkscape:cy="193.14313"
   inkscape:window-maximized="1"
   inkscape:snap-global="false">
	<inkscape:grid
   type="xygrid"
   id="grid3611"
   empspacing="5"
   visible="true"
   enabled="true"
   snapvisiblegridlinesonly="true" /></sodipodi:namedview>
<defs
   id="defs4">
	
	
		<inkscape:perspective
   id="perspective15"
   inkscape:persp3d-origin="90 : 60 : 1"
   sodipodi:type="inkscape:persp3d"
   inkscape:vp_x="0 : 90 : 1"
   inkscape:vp_y="0 : 1000 : 0"
   inkscape:vp_z="180 : 90 : 1">
		</inkscape:perspective>
<pattern
   patternTransform="matrix(0.7467 -0.7467 0.7467 0.7467 3977.5254 -8206.5869)"
   xlink:href="#_x31_0_lpi_30_x25_-1"
   id="SVGID_3_-4" /><clipPath
   id="SVGID_2_"><use
     xlink:href="#SVGID_1_"
     style="overflow:visible"
     id="use3208"
     x="0"
     y="0"
     width="288"
     height="400" /></clipPath><pattern
   patternUnits="userSpaceOnUse"
   width="506.59375"
   height="291.46875"
   patternTransform="translate(-86.5625,-14)"
   id="pattern6929"><path
     inkscape:connector-curvature="0"
     id="path6481"
     d="m 215.25593,1.049642 289.91378,289.913778 1.41422,0"
     style="fill:none;stroke:#000000;stroke-width:1px;stroke-linecap:butt;stroke-linejoin:miter;stroke-opacity:1;display:inline" /><path
     inkscape:connector-curvature="0"
     id="path6481-9"
     d="m 24.22333,0.342534 289.91379,289.913776 1.41421,0"
     style="fill:none;stroke:#000000;stroke-width:1px;stroke-linecap:butt;stroke-linejoin:miter;stroke-opacity:1;display:inline" /><path
     inkscape:connector-curvature="0"
     id="path6481-8"
     d="m 36.16287,0.342534 289.91378,289.913776 1.41421,0"
     style="fill:none;stroke:#000000;stroke-width:1px;stroke-linecap:butt;stroke-linejoin:miter;stroke-opacity:1;display:inline" /><path
     inkscape:connector-curvature="0"
     id="path6481-1"
     d="m 48.10241,0.342534 289.91378,289.913776 1.41421,0"
     style="fill:none;stroke:#000000;stroke-width:1px;stroke-linecap:butt;stroke-linejoin:miter;stroke-opacity:1;display:inline" /><path
     inkscape:connector-curvature="0"
     id="path6481-82"
     d="m 60.04195,0.342534 289.91378,289.913776 1.41421,0"
     style="fill:none;stroke:#000000;stroke-width:1px;stroke-linecap:butt;stroke-linejoin:miter;stroke-opacity:1;display:inline" /><path
     inkscape:connector-curvature="0"
     id="path6481-6"
     d="m 71.98148,0.342534 289.91379,289.913776 1.41421,0"
     style="fill:none;stroke:#000000;stroke-width:1px;stroke-linecap:butt;stroke-linejoin:miter;stroke-opacity:1;display:inline" /><path
     inkscape:connector-curvature="0"
     id="path6481-60"
     d="m 83.92102,0.342534 289.91379,289.913776 1.41421,0"
     style="fill:none;stroke:#000000;stroke-width:1px;stroke-linecap:butt;stroke-linejoin:miter;stroke-opacity:1;display:inline" /><path
     inkscape:connector-curvature="0"
     id="path6481-3"
     d="m 95.86056,0.342534 289.91378,289.913776 1.41421,0"
     style="fill:none;stroke:#000000;stroke-width:1px;stroke-linecap:butt;stroke-linejoin:miter;stroke-opacity:1;display:inline" /><path
     inkscape:connector-curvature="0"
     id="path6481-80"
     d="m 107.8001,0.342534 289.91378,289.913776 1.41421,0"
     style="fill:none;stroke:#000000;stroke-width:1px;stroke-linecap:butt;stroke-linejoin:miter;stroke-opacity:1;display:inline" /><path
     inkscape:connector-curvature="0"
     id="path6481-12"
     d="m 12.28379,0.342534 289.91379,289.913776 1.41421,0"
     style="fill:none;stroke:#000000;stroke-width:1px;stroke-linecap:butt;stroke-linejoin:miter;stroke-opacity:1;display:inline" /><path
     inkscape:connector-curvature="0"
     id="path6481-5"
     d="m 119.73964,0.342534 289.91378,289.913776 1.41421,0"
     style="fill:none;stroke:#000000;stroke-width:1px;stroke-linecap:butt;stroke-linejoin:miter;stroke-opacity:1;display:inline" /><path
     inkscape:connector-curvature="0"
     id="path6481-0"
     d="m 131.67917,0.342534 289.91379,289.913776 1.41421,0"
     style="fill:none;stroke:#000000;stroke-width:1px;stroke-linecap:butt;stroke-linejoin:miter;stroke-opacity:1;display:inline" /><path
     inkscape:connector-curvature="0"
     id="path6481-94"
     d="m 143.61871,0.342534 289.91379,289.913776 1.41421,0"
     style="fill:none;stroke:#000000;stroke-width:1px;stroke-linecap:butt;stroke-linejoin:miter;stroke-opacity:1;display:inline" /><path
     inkscape:connector-curvature="0"
     id="path6481-7"
     d="m 155.55825,0.342534 289.91378,289.913776 1.41421,0"
     style="fill:none;stroke:#000000;stroke-width:1px;stroke-linecap:butt;stroke-linejoin:miter;stroke-opacity:1;display:inline" /><path
     inkscape:connector-curvature="0"
     id="path6481-83"
     d="m 167.49779,0.342534 289.91378,289.913776 1.41421,0"
     style="fill:none;stroke:#000000;stroke-width:1px;stroke-linecap:butt;stroke-linejoin:miter;stroke-opacity:1;display:inline" /><path
     inkscape:connector-curvature="0"
     id="path6481-51"
     d="m 179.43733,0.342534 289.91378,289.913776 1.41421,0"
     style="fill:none;stroke:#000000;stroke-width:1px;stroke-linecap:butt;stroke-linejoin:miter;stroke-opacity:1;display:inline" /><path
     inkscape:connector-curvature="0"
     id="path6481-2"
     d="m 191.37686,0.342534 289.91379,289.913776 1.41421,0"
     style="fill:none;stroke:#000000;stroke-width:1px;stroke-linecap:butt;stroke-linejoin:miter;stroke-opacity:1;display:inline" /><path
     inkscape:connector-curvature="0"
     id="path6481-01"
     d="m 203.3164,0.342534 289.91378,289.913776 1.41422,0"
     style="fill:none;stroke:#000000;stroke-width:1px;stroke-linecap:butt;stroke-linejoin:miter;stroke-opacity:1;display:inline" /><path
     inkscape:connector-curvature="0"
     id="path6481-64"
     d="m 0.34424,0.342534 289.91378,289.913776 1.41421,0"
     style="fill:none;stroke:#000000;stroke-width:1px;stroke-linecap:butt;stroke-linejoin:miter;stroke-opacity:1;display:inline" /></pattern></defs>
<g
   id="g2415"
   transform="translate(0,80)">
	
	
	
		
</g><g
   inkscape:groupmode="layer"
   id="layer1"
   inkscape:label="Monument"
   transform="translate(0,80)"><g
     style="display:inline"
     id="g3630"
     transform="translate(6.0094338,-80)"><g
       class="st10"
       id="Chimney-7"
       style="display:none"><path
         style="fill:none;stroke:#000000;stroke-width:5;display:inline"
         d="m 156.5,200.00101 c 0,6.90356 -5.59644,12.5 -12.5,12.5 -6.90356,0 -12.5,-5.59644 -12.5,-12.5 0,-6.90356 5.59644,-12.5 12.5,-12.5 6.90356,0 12.5,5.59644 12.5,12.5 z"
         id="circle3505"
         inkscape:connector-curvature="0" /><path
         id="path3507"
         d="m 154.016,65.573 c 2.085,-4.296 10.428,-6.448 10.428,-10.744"
         class="st2"
         inkscape:connector-curvature="0"
         style="fill:none;stroke:#000000;stroke-width:5;display:inline" /><path
         id="path3509"
         d="m 134.229,65.083 c -3.558,-17.769 23.098,-33.759 30.214,-21.32"
         class="st2"
         inkscape:connector-curvature="0"
         style="fill:none;stroke:#000000;stroke-width:5;display:inline" /><path
         id="path3511"
         d="M 154.891,68.51"
         class="st2"
         inkscape:connector-curvature="0"
         style="fill:none;stroke:#000000;stroke-width:5;display:inline" /><path
         id="path3513"
         d="M 132.891,68.51"
         class="st2"
         inkscape:connector-curvature="0"
         style="fill:none;stroke:#000000;stroke-width:5;display:inline" /><path
         style="fill:none;stroke:#000000;stroke-width:5;display:inline"
         d="m 119,200 15,-129 20,0 15,129"
         id="polyline3515"
         inkscape:connector-curvature="0" /><path
         id="path3517"
         d="m 159.934,39.938 c 41.957,-41.761 82.291,64.239 -0.461,20.63"
         class="st2"
         inkscape:connector-curvature="0"
         style="fill:none;stroke:#000000;stroke-width:5;display:inline" /><path
         style="fill:none;stroke:#000000;stroke-width:5;display:inline"
         d="m 156.5,200.00101 25,0"
         id="line3519"
         inkscape:connector-curvature="0" /><path
         style="fill:none;stroke:#000000;stroke-width:5;display:inline"
         d="m 106.5,200.00101 25,0"
         id="line3521"
         inkscape:connector-curvature="0" /></g><g
       id="Monument-4"><path
         style="fill:none;stroke:#000000;stroke-width:5"
         d="m 156.5,200.00101 25,0"
         id="line3524"
         inkscape:connector-curvature="0" /><path
         style="fill:none;stroke:#000000;stroke-width:5"
         d="m 106.5,200.00101 25,0"
         id="line3526"
         inkscape:connector-curvature="0" /><path
         style="fill:none;stroke:#000000;stroke-width:5"
         d="m 156.5,200 c 0,6.90356 -5.59644,12.5 -12.5,12.5 -6.90356,0 -12.5,-5.59644 -12.5,-12.5 0,-6.90356 5.59644,-12.5 12.5,-12.5 6.90356,0 12.5,5.59644 12.5,12.5 z"
         id="circle3528"
         inkscape:connector-curvature="0" /><g
         id="g3530"><defs
           id="defs3532"><path
             d="M 175.5,63.5 C 175.5,46.096 161.404,32 144,32 c -17.404,0 -31.5,14.096 -31.5,31.5 0,9.572 4.27,18.138 11.003,23.914 L 119,200 h 12 c 0,-7.18 5.82,-13 13,-13 7.18,0 13,5.82 13,13 h 12 L 164.496,87.414 C 171.23,81.638 175.5,73.072 175.5,63.5 z"
             id="SVGID_1_-0"
             inkscape:connector-curvature="0" /></defs><clipPath
           id="SVGID_2_-9"><use
             id="use3536"
             style="overflow:visible"
             xlink:href="#SVGID_1_-0"
             x="0"
             y="0"
             width="1"
             height="1" /></clipPath><pattern
           patternTransform="matrix(0.7467 -0.7467 0.7467 0.7467 3977.5254 -8206.5869)"
           xlink:href="#_x31_0_lpi_30_x25_-1"
           id="pattern3220" /><path
           style="fill:url(#SVGID_3_-4)"
           clip-path="url(#SVGID_2_)"
           d="M 151.935,-40 -6,117.934 136.066,260 294,102.066 z"
           id="polygon3539"
           inkscape:connector-curvature="0" /></g><g
         id="g3541"><g
           id="g3543"><path
             id="path3545"
             d="m 175.5,63 c 0,-17.404 -14.096,-31.5 -31.5,-31.5 -17.404,0 -31.5,14.096 -31.5,31.5 0,9.572 4.271,18.138 11.003,23.914 L 119,199.5 h 12 c 0,-7.18 5.82,-13 13,-13 7.18,0 13,5.82 13,13 h 12 L 164.496,86.914 C 171.23,81.138 175.5,72.572 175.5,63 z"
             class="st8"
             inkscape:connector-curvature="0"
             style="fill:url(#pattern6929);fill-opacity:1;stroke:#000000;stroke-width:5" /></g></g></g><g
       class="st10"
       id="Radio_x5F_mast-8"
       style="display:none"><path
         style="fill:none;stroke:#000000;stroke-width:5;display:inline"
         d="m 156.5,200.00101 c 0,6.90356 -5.59644,12.5 -12.5,12.5 -6.90356,0 -12.5,-5.59644 -12.5,-12.5 0,-6.90356 5.59644,-12.5 12.5,-12.5 6.90356,0 12.5,5.59644 12.5,12.5 z"
         id="circle3548"
         inkscape:connector-curvature="0" /><path
         style="fill:none;stroke:#000000;stroke-width:5;display:inline"
         d="m 156.5,200.00101 25,0"
         id="line3550"
         inkscape:connector-curvature="0" /><path
         style="fill:none;stroke:#000000;stroke-width:5;display:inline"
         d="m 106.5,200.00101 25,0"
         id="line3552"
         inkscape:connector-curvature="0" /><path
         style="fill:none;stroke:#000000;stroke-width:5;display:inline"
         d="M 119,200 144,71 169,200"
         id="polyline3554"
         inkscape:connector-curvature="0" /><g
         id="g3556"
         class="st7"
         style="display:inline"><path
           id="path3558"
           d="M 176.69,40.093 C 184.315,48.155 189,59.027 189,71 c 0,11.973 -4.685,22.845 -12.31,30.907"
           class="st9"
           inkscape:connector-curvature="0"
           style="fill:none;stroke:#000000;stroke-width:5;stroke-linecap:round" /><path
           id="path3560"
           d="M 111.31,40.093 C 103.685,48.155 99,59.027 99,71 c 0,11.973 4.685,22.845 12.31,30.907"
           class="st9"
           inkscape:connector-curvature="0"
           style="fill:none;stroke:#000000;stroke-width:5;stroke-linecap:round" /><path
           id="path3562"
           d="M 167.609,93.322 C 173.116,87.499 176.5,79.647 176.5,71 c 0,-8.647 -3.384,-16.499 -8.891,-22.321"
           class="st9"
           inkscape:connector-curvature="0"
           style="fill:none;stroke:#000000;stroke-width:5;stroke-linecap:round" /><path
           id="path3564"
           d="M 120.391,48.678 C 114.883,54.501 111.5,62.353 111.5,71 c 0,8.647 3.383,16.499 8.891,22.322"
           class="st9"
           inkscape:connector-curvature="0"
           style="fill:none;stroke:#000000;stroke-width:5;stroke-linecap:round" /></g></g><g
       class="st10"
       id="Water_x5F_tower-8"
       style="display:none"><path
         style="fill:none;stroke:#000000;stroke-width:5;display:inline"
         d="m 156.5,200.00101 c 0,6.90356 -5.59644,12.5 -12.5,12.5 -6.90356,0 -12.5,-5.59644 -12.5,-12.5 0,-6.90356 5.59644,-12.5 12.5,-12.5 6.90356,0 12.5,5.59644 12.5,12.5 z"
         id="circle3567"
         inkscape:connector-curvature="0" /><path
         style="fill:none;stroke:#000000;stroke-width:5;display:inline"
         d="m 156.5,200.00101 25,0"
         id="line3569"
         inkscape:connector-curvature="0" /><path
         style="fill:none;stroke:#000000;stroke-width:5;display:inline"
         d="m 106.5,200.00101 25,0"
         id="line3571"
         inkscape:connector-curvature="0" /><path
         style="fill:none;stroke:#000000;stroke-width:5;display:inline"
         d="m 119,200 7,-129 -12,0 0,-41 60,0 0,41 -12,0 7,129"
         id="polyline3573"
         inkscape:connector-curvature="0" /><path
         style="fill:none;stroke:#000000;stroke-width:5;display:inline"
         d="m 126,71 36,0"
         id="line3575"
         inkscape:connector-curvature="0" /></g><g
       class="st10"
       id="Flare_x5F_stack-2"
       style="display:none"><path
         style="fill:none;stroke:#000000;stroke-width:5;display:inline"
         d="m 156.5,200.00101 25,0"
         id="line3578"
         inkscape:connector-curvature="0" /><path
         style="fill:none;stroke:#000000;stroke-width:5;display:inline"
         d="m 106.5,200.00101 25,0"
         id="line3580"
         inkscape:connector-curvature="0" /><path
         id="path3582"
         d="M 157.569,26.465 C 145.004,55.267 168.625,66.292 154,84.917 148.247,92.243 138.125,95 132.5,84.25 c -14.033,-26.818 31.25,-63 31.25,-63"
         class="st1"
         inkscape:connector-curvature="0"
         style="fill:none;stroke:#000000;stroke-width:3;display:inline" /><path
         style="fill:none;stroke:#000000;stroke-width:5;display:inline"
         d="m 156.5,200 c 0,6.90356 -5.59644,12.5 -12.5,12.5 -6.90356,0 -12.5,-5.59644 -12.5,-12.5 0,-6.90356 5.59644,-12.5 12.5,-12.5 6.90356,0 12.5,5.59644 12.5,12.5 z"
         id="circle3584"
         inkscape:connector-curvature="0" /><path
         style="stroke:#000000;stroke-width:5;display:inline"
         d="m 136.5,87.5 15,0 0,100 -15,0 z"
         id="rect3586"
         inkscape:connector-curvature="0" /></g><g
       class="st10"
       id="Flagstaff-4"
       style="display:none"><path
         style="fill:none;stroke:#000000;stroke-width:5;display:inline"
         d="m 156.5,200.00101 25,0"
         id="line3589"
         inkscape:connector-curvature="0" /><path
         style="fill:none;stroke:#000000;stroke-width:5;display:inline"
         d="m 106.5,200.00101 25,0"
         id="line3591"
         inkscape:connector-curvature="0" /><path
         style="fill:none;stroke:#000000;stroke-width:5;display:inline"
         d="m 156.5,200 c 0,6.90356 -5.59644,12.5 -12.5,12.5 -6.90356,0 -12.5,-5.59644 -12.5,-12.5 0,-6.90356 5.59644,-12.5 12.5,-12.5 6.90356,0 12.5,5.59644 12.5,12.5 z"
         id="circle3593"
         inkscape:connector-curvature="0" /><path
         style="fill:none;stroke:#000000;stroke-width:5;display:inline"
         d="M 144,187.5 144,25"
         id="line3595"
         inkscape:connector-curvature="0" /><path
         style="fill:none;stroke:#000000;stroke-width:5;display:inline"
         d="m 144,40 42,0 0,42 -42,0"
         id="polyline3597"
         inkscape:connector-curvature="0" /></g><g
       class="st10"
       id="Dish_x5F_aerial-5"
       style="display:none"><path
         style="fill:none;stroke:#000000;stroke-width:5;display:inline"
         d="m 156.5,200.00101 25,0"
         id="line3600"
         inkscape:connector-curvature="0" /><path
         style="fill:none;stroke:#000000;stroke-width:5;display:inline"
         d="m 106.5,200.00101 25,0"
         id="line3602"
         inkscape:connector-curvature="0" /><path
         style="fill:none;stroke:#000000;stroke-width:5;display:inline"
         d="m 156.5,200 c 0,6.90356 -5.59644,12.5 -12.5,12.5 -6.90356,0 -12.5,-5.59644 -12.5,-12.5 0,-6.90356 5.59644,-12.5 12.5,-12.5 6.90356,0 12.5,5.59644 12.5,12.5 z"
         id="circle3604"
         inkscape:connector-curvature="0" /><path
         id="path3606"
         d="m 140.012,42.636 c -22.984,13.27 -29.292,45.37 -14.092,71.698 15.2,26.328 46.154,36.914 69.138,23.644 L 140.012,42.636 z"
         class="st2"
         inkscape:connector-curvature="0"
         style="fill:none;stroke:#000000;stroke-width:5;display:inline" /><path
         style="stroke:#000000;stroke-width:5;display:inline"
         d="m 151,187 -14,0 5,-50 4,0 z"
         id="polygon3608"
         inkscape:connector-curvature="0" /><path
         style="stroke:#000000;stroke-width:2;display:inline"
         d="m 169.693,89.12 -1.663,-2.91 7.864,-3.359 z"
         id="polygon3610"
         inkscape:connector-curvature="0" /></g><g
       class="st10"
       id="Tower-5"
       style="display:none"><path
         style="fill:none;stroke:#000000;stroke-width:5;display:inline"
         d="m 128,71 32,0"
         id="line3613"
         inkscape:connector-curvature="0" /><path
         style="fill:none;stroke:#000000;stroke-width:5;display:inline"
         d="m 156.5,200.00101 c 0,6.90356 -5.59644,12.5 -12.5,12.5 -6.90356,0 -12.5,-5.59644 -12.5,-12.5 0,-6.90356 5.59644,-12.5 12.5,-12.5 6.90356,0 12.5,5.59644 12.5,12.5 z"
         id="circle3615"
         inkscape:connector-curvature="0" /><path
         style="fill:none;stroke:#000000;stroke-width:5;display:inline"
         d="m 156.5,200.00101 25,0"
         id="line3617"
         inkscape:connector-curvature="0" /><path
         style="fill:none;stroke:#000000;stroke-width:5;display:inline"
         d="m 106.5,200.00101 25,0"
         id="line3619"
         inkscape:connector-curvature="0" /><path
         style="fill:none;stroke:#000000;stroke-width:5;display:inline"
         d="m 119,200 9,-129 0,-39 32,0 0,39 9,129.001"
         id="polyline3621"
         inkscape:connector-curvature="0" /></g></g></g>

</svg>