<?xml version="1.0" encoding="UTF-8" standalone="no"?>
<!-- Created with Inkscape (http://www.inkscape.org/) -->

<svg
   xmlns:dc="http://purl.org/dc/elements/1.1/"
   xmlns:cc="http://creativecommons.org/ns#"
   xmlns:rdf="http://www.w3.org/1999/02/22-rdf-syntax-ns#"
   xmlns:svg="http://www.w3.org/2000/svg"
   xmlns="http://www.w3.org/2000/svg"
   xmlns:sodipodi="http://sodipodi.sourceforge.net/DTD/sodipodi-0.dtd"
   xmlns:inkscape="http://www.inkscape.org/namespaces/inkscape"
   width="60"
   height="60"
   id="svg2"
   version="1.1"
   inkscape:version="0.48.2 r9819"
   sodipodi:docname="Notice_A9.svg"
   style="display:inline"
   inkscape:export-filename="/Users/mherring/boatsw/oseam/openseamap/josm/icons/WindSurfing16.png"
   inkscape:export-xdpi="12"
   inkscape:export-ydpi="12">
  <defs
     id="defs4" />
  <sodipodi:namedview
     id="base"
     pagecolor="#ffffff"
     bordercolor="#666666"
     borderopacity="1.0"
     inkscape:pageopacity="0.0"
     inkscape:pageshadow="2"
     inkscape:zoom="7.5"
     inkscape:cx="-4.5333333"
     inkscape:cy="60"
     inkscape:document-units="px"
     inkscape:current-layer="layer13"
     showgrid="true"
     inkscape:window-width="1920"
     inkscape:window-height="1088"
     inkscape:window-x="0"
     inkscape:window-y="0"
     inkscape:window-maximized="0"
     inkscape:snap-global="false">
    <inkscape:grid
       type="xygrid"
       id="grid3004"
       empspacing="5"
       visible="true"
       enabled="true"
       snapvisiblegridlinesonly="true" />
  </sodipodi:namedview>
  <metadata
     id="metadata7">
    <rdf:RDF>
      <cc:Work
         rdf:about="">
        <dc:format>image/svg+xml</dc:format>
        <dc:type
           rdf:resource="http://purl.org/dc/dcmitype/StillImage" />
        <dc:title />
      </cc:Work>
    </rdf:RDF>
  </metadata>
  <g
     inkscape:groupmode="layer"
     id="layer13"
     inkscape:label="A9"
     style="display:inline"
     transform="translate(0,-60)">
    <g
       id="g6842"
       transform="matrix(0.97035142,0,0,0.97034971,-28.22103,31.779014)">
      <g
         inkscape:label="Ebene 1"
         id="layer1-12"
         transform="translate(397.14285,273.3521)">
        <g
           id="g2899"
           transform="matrix(0.84345088,0,0,0.8434498,-52.779416,-33.400314)">
          <path
             inkscape:connector-curvature="0"
             id="path20190"
             style="fill:none;stroke:#231f20;stroke-width:0.27824995;stroke-linecap:butt;stroke-linejoin:bevel;stroke-miterlimit:22.9260006;stroke-opacity:1;stroke-dasharray:none"
             d="m -368.32349,-177.98648 62.395,0 c 0.18125,-0.001 0.36125,-0.0137 0.54,-0.0375 0.18,-0.025 0.3575,-0.0613 0.53125,-0.11125 0.175,-0.045 0.3475,-0.1025 0.51375,-0.17375 0.16625,-0.07 0.32875,-0.15125 0.48375,-0.24375 0.1575,-0.09 0.3075,-0.19 0.45125,-0.3 0.14375,-0.11 0.27875,-0.23125 0.40625,-0.35875 0.12875,-0.1275 0.24875,-0.26375 0.35875,-0.40625 0.11,-0.14375 0.21,-0.295 0.3,-0.45125 0.0925,-0.15625 0.17375,-0.3175 0.2425,-0.485 0.07,-0.16625 0.12875,-0.3375 0.17625,-0.5125 0.0487,-0.175 0.0863,-0.3525 0.11125,-0.53125 0.025,-0.17875 0.0375,-0.36 0.0362,-0.54 l 0,-62.42875 c 0,-0.18 -0.0138,-0.36125 -0.0375,-0.54 -0.0238,-0.18 -0.0613,-0.3575 -0.11,-0.53125 -0.0462,-0.175 -0.10375,-0.34625 -0.17375,-0.51375 -0.07,-0.16625 -0.1525,-0.32875 -0.245,-0.48375 -0.09,-0.15625 -0.19,-0.3075 -0.3,-0.45125 -0.11,-0.1425 -0.23,-0.27875 -0.35875,-0.40625 -0.1275,-0.12875 -0.2625,-0.24875 -0.40625,-0.35875 -0.14375,-0.11 -0.29375,-0.21 -0.45125,-0.3 -0.155,-0.0913 -0.3175,-0.1725 -0.485,-0.2425 -0.16625,-0.07 -0.3375,-0.12875 -0.5125,-0.175 -0.17375,-0.05 -0.35125,-0.0875 -0.53125,-0.1125 -0.17875,-0.025 -0.35875,-0.0375 -0.54,-0.0362 l -62.4275,0 c -0.18125,0.001 -0.3625,0.0137 -0.54125,0.0375 -0.17875,0.025 -0.35625,0.0613 -0.53125,0.11125 -0.175,0.045 -0.34625,0.1025 -0.5125,0.1725 -0.1675,0.0712 -0.32875,0.1525 -0.485,0.245 -0.15625,0.09 -0.3075,0.19 -0.45,0.3 -0.14375,0.11 -0.27875,0.23 -0.40625,0.35875 -0.12875,0.1275 -0.24875,0.26375 -0.36,0.40625 -0.11,0.14375 -0.21,0.29375 -0.3,0.45125 -0.0912,0.15625 -0.1725,0.3175 -0.2425,0.485 -0.07,0.16625 -0.12875,0.33875 -0.175,0.5125 -0.05,0.175 -0.0875,0.3525 -0.1125,0.53125 -0.025,0.17875 -0.0375,0.36 -0.0362,0.54 l 0,62.42875 c 10e-4,0.18 0.0138,0.36125 0.0387,0.54 0.0238,0.17875 0.0613,0.35625 0.11,0.53125 0.045,0.175 0.10375,0.34625 0.17375,0.51375 0.07,0.16625 0.15125,0.3275 0.24375,0.48375 0.09,0.15625 0.19,0.3075 0.30125,0.45125 0.11,0.1425 0.23,0.27875 0.35875,0.40625 0.12625,0.12875 0.2625,0.24875 0.40625,0.35875 0.1425,0.11 0.29375,0.21 0.45,0.3 0.15625,0.0913 0.3175,0.1725 0.485,0.2425 0.16625,0.07 0.33875,0.12875 0.5125,0.175 0.175,0.05 0.3525,0.0875 0.5325,0.1125 0.17875,0.025 0.35875,0.0375 0.54,0.0362 l 0.0325,0 z" />
          <path
             inkscape:connector-curvature="0"
             d="m -368.32349,-177.91898 -0.0337,0 c -0.18375,-0.001 -0.3675,-0.0137 -0.54875,-0.0387 -0.1825,-0.0238 -0.3625,-0.0625 -0.54,-0.11125 -0.1775,-0.0462 -0.35125,-0.105 -0.52125,-0.1775 -0.17,-0.0713 -0.33375,-0.15375 -0.4925,-0.2475 -0.15875,-0.0913 -0.3125,-0.19375 -0.4575,-0.305 -0.14625,-0.1125 -0.28375,-0.235 -0.4125,-0.365 -0.13125,-0.13 -0.25375,-0.2675 -0.365,-0.4125 -0.1125,-0.14625 -0.215,-0.29875 -0.305,-0.45875 -0.0937,-0.15875 -0.17625,-0.3225 -0.2475,-0.4925 -0.07,-0.16875 -0.13,-0.34375 -0.1775,-0.52125 -0.05,-0.1775 -0.0888,-0.3575 -0.11375,-0.54 -0.0262,-0.18125 -0.0387,-0.365 -0.0375,-0.54875 l 0,-62.42875 c 10e-4,-0.18375 0.0138,-0.3675 0.0387,-0.54875 0.025,-0.1825 0.0625,-0.3625 0.1125,-0.54 0.0462,-0.1775 0.105,-0.3525 0.17625,-0.5225 0.0713,-0.16875 0.15375,-0.3325 0.24875,-0.49125 0.0913,-0.15875 0.1925,-0.3125 0.305,-0.4575 0.11125,-0.14625 0.23375,-0.28375 0.365,-0.41375 0.12875,-0.13 0.26625,-0.2525 0.4125,-0.36375 0.145,-0.1125 0.29875,-0.215 0.4575,-0.30625 0.15875,-0.0925 0.32375,-0.175 0.4925,-0.24625 0.17,-0.0712 0.34375,-0.13 0.52125,-0.1775 0.1775,-0.0512 0.3575,-0.0888 0.54,-0.115 0.1825,-0.025 0.365,-0.0375 0.54875,-0.0363 l 62.42875,0 c 0.185,0.001 0.3675,0.0138 0.55,0.0388 0.18125,0.025 0.3625,0.0613 0.53875,0.1125 0.17875,0.045 0.3525,0.105 0.5225,0.17625 0.17,0.0712 0.33375,0.15375 0.49125,0.2475 0.16,0.0913 0.3125,0.19375 0.45875,0.30625 0.145,0.11125 0.28375,0.23375 0.4125,0.36375 0.13125,0.13 0.2525,0.2675 0.365,0.41375 0.11125,0.145 0.21375,0.29875 0.305,0.4575 0.0937,0.15875 0.17625,0.3225 0.2475,0.4925 0.07,0.17 0.13,0.34375 0.1775,0.52125 0.05,0.1775 0.0888,0.3575 0.11375,0.54 0.0263,0.18125 0.0375,0.365 0.0362,0.54875 l 0,62.42875 c -10e-4,0.18375 -0.0138,0.3675 -0.0375,0.54875 -0.025,0.1825 -0.0625,0.3625 -0.1125,0.54 -0.0462,0.1775 -0.105,0.3525 -0.1775,0.52125 -0.0713,0.17 -0.15375,0.33375 -0.2475,0.4925 -0.0913,0.16 -0.19375,0.3125 -0.305,0.45875 -0.1125,0.145 -0.23375,0.2825 -0.365,0.4125 -0.12875,0.13 -0.2675,0.2525 -0.4125,0.365 -0.14625,0.11125 -0.29875,0.21375 -0.45875,0.305 -0.15875,0.0925 -0.3225,0.175 -0.4925,0.24625 -0.16875,0.0712 -0.34375,0.13 -0.52125,0.17875 -0.1775,0.05 -0.3575,0.0875 -0.54,0.11375 -0.18125,0.025 -0.36375,0.0375 -0.54875,0.0362 l -62.395,0 z"
             style="fill:none;stroke:#000000;stroke-width:2.44366598;stroke-linecap:butt;stroke-linejoin:bevel;stroke-miterlimit:22.9260006;stroke-opacity:1;stroke-dasharray:none"
             id="path20194" />
          <path
             inkscape:connector-curvature="0"
             id="path20198"
             style="fill:#e72512;fill-opacity:1;fill-rule:evenodd;stroke:none"
             d="m -367.81646,-180.1551 61.34839,0 0.0197,0 c 0.10944,-9.8e-4 0.21765,-0.009 0.32586,-0.0234 0.10822,-0.0148 0.2152,-0.0369 0.31972,-0.0664 0.10575,-0.0271 0.20904,-0.0627 0.30988,-0.10452 0.10083,-0.0431 0.19797,-0.091 0.29143,-0.14756 0.0946,-0.0541 0.18568,-0.11436 0.27176,-0.18076 0.0874,-0.0664 0.16846,-0.13895 0.24593,-0.21642 0.0775,-0.0762 0.14879,-0.15863 0.21642,-0.2447 0.0664,-0.0874 0.12666,-0.1783 0.18077,-0.27176 0.0554,-0.0946 0.10452,-0.19182 0.14633,-0.29265 0.0418,-0.10084 0.0775,-0.20413 0.10575,-0.30988 0.0295,-0.10452 0.0517,-0.2115 0.0676,-0.31971 0.0148,-0.10821 0.0221,-0.21642 0.021,-0.32586 l 0,-61.38683 c 0,-0.10944 -0.007,-0.21765 -0.0221,-0.32586 -0.0147,-0.10821 -0.0369,-0.21519 -0.0664,-0.31971 -0.027,-0.10575 -0.0628,-0.20904 -0.10452,-0.30988 -0.0418,-0.10083 -0.0922,-0.19797 -0.14756,-0.29142 -0.0541,-0.0946 -0.11436,-0.18568 -0.18077,-0.27176 -0.0677,-0.0873 -0.13895,-0.16846 -0.21642,-0.24593 -0.0775,-0.0774 -0.15863,-0.15002 -0.24593,-0.21642 -0.0861,-0.0664 -0.17585,-0.12665 -0.27176,-0.18076 -0.0935,-0.0554 -0.1906,-0.10452 -0.29143,-0.14633 -0.10084,-0.0418 -0.20413,-0.0775 -0.30988,-0.10575 -0.10452,-0.0295 -0.2115,-0.0516 -0.31972,-0.0676 -0.10821,-0.0147 -0.21765,-0.0221 -0.32586,-0.0221 l -61.38774,0 c -0.10944,9.8e-4 -0.21765,0.009 -0.32586,0.0234 -0.10821,0.0148 -0.21519,0.0369 -0.31971,0.0664 -0.10576,0.0271 -0.21028,0.0627 -0.30988,0.10452 -0.10084,0.0418 -0.19798,0.0922 -0.29266,0.14756 -0.0946,0.0541 -0.18446,0.11436 -0.27176,0.18076 -0.0861,0.0677 -0.16847,0.13895 -0.24471,0.21642 -0.0774,0.0775 -0.15002,0.15862 -0.21642,0.24593 -0.0664,0.0861 -0.12666,0.17584 -0.18076,0.27175 -0.0553,0.0935 -0.10452,0.1906 -0.14633,0.29143 -0.0418,0.10083 -0.0775,0.20412 -0.10575,0.30988 -0.0295,0.10452 -0.0529,0.2115 -0.0677,0.31971 -0.016,0.1082 -0.0221,0.21764 -0.0221,0.32585 l 0,0.0197 0,61.34749 0,0.0197 c 9.8e-4,0.10944 0.009,0.21765 0.0234,0.32586 0.0148,0.10821 0.0369,0.21519 0.0664,0.31971 0.027,0.10575 0.0627,0.20904 0.10452,0.30987 0.0418,0.10084 0.091,0.19798 0.14756,0.29266 0.0541,0.0935 0.11436,0.18445 0.18076,0.27176 0.0664,0.0861 0.13895,0.16846 0.21642,0.2447 0.0762,0.0775 0.15863,0.15001 0.24471,0.21642 0.0874,0.0664 0.17707,0.12665 0.27176,0.18076 0.0946,0.0554 0.19182,0.10452 0.29266,0.14632 0.10083,0.0418 0.20412,0.0774 0.30988,0.10575 0.10452,0.0295 0.2115,0.0529 0.31971,0.0676 0.10821,0.016 0.21642,0.0221 0.32586,0.0221 l 0.0197,0 z" />
          <path
             inkscape:connector-curvature="0"
             id="path20202"
             style="fill:#ffffff;fill-opacity:1;fill-rule:evenodd;stroke:none"
             d="m -319.83849,-190.61148 -40.085,-40.085 0,40.085 40.085,0" />
          <path
             inkscape:connector-curvature="0"
             id="path20206"
             style="fill:#ffffff;fill-opacity:1;fill-rule:evenodd;stroke:none"
             d="m -314.87849,-197.77023 0,-40.085 -40.085,0 40.085,40.085" />
          <path
             inkscape:connector-curvature="0"
             id="path20210"
             style="fill:#000000;fill-opacity:1;fill-rule:evenodd;stroke:#000000;stroke-width:0.28178772;stroke-linecap:butt;stroke-linejoin:bevel;stroke-miterlimit:22.9260006;stroke-opacity:1;stroke-dasharray:none"
             d="m -359.95677,-206.85708 0,6.83709 c 0.39622,-0.004 0.79246,-0.0102 1.18994,-0.0191 0.39749,-0.009 0.79498,-0.0228 1.19121,-0.0431 1.66211,-0.081 3.31157,-0.30888 4.93318,-0.67979 1.61655,-0.3671 3.18499,-0.9165 4.67875,-1.63553 0.82789,-0.38356 1.64566,-0.79119 2.45075,-1.22411 0.80512,-0.43167 1.63428,-0.8203 2.48116,-1.16337 0.93803,-0.3823 1.91277,-0.66585 2.90902,-0.84434 0.995,-0.18102 2.00644,-0.24685 3.01536,-0.19748 1.19247,0.0431 2.37481,0.2266 3.52425,0.54939 1.15956,0.32534 2.29759,0.72536 3.40525,1.19754 1.55579,0.66333 3.10903,1.33425 4.65976,2.01278 1.53046,0.66965 3.12676,1.18234 4.76229,1.52792 0.7089,0.16077 1.42793,0.27976 2.15074,0.35698 0.72663,0.0785 1.45578,0.12533 2.1862,0.14179 0.26457,0.007 0.52915,0.0126 0.79498,0.0152 0.26457,0.003 0.52915,0.005 0.79372,0.005 l 0,-6.83709 c -0.39876,-0.006 -0.79878,-0.014 -1.19753,-0.0253 -0.39876,-0.0114 -0.79878,-0.0304 -1.19755,-0.0582 -0.7418,-0.0519 -1.48109,-0.14431 -2.21277,-0.27724 -0.72916,-0.13417 -1.44945,-0.31646 -2.15329,-0.5494 -1.25197,-0.42153 -2.47102,-0.93802 -3.64451,-1.54438 -1.17728,-0.6089 -2.37987,-1.16589 -3.60526,-1.67225 -0.43166,-0.17975 -0.8684,-0.34559 -1.31273,-0.49497 -0.44307,-0.15063 -0.88992,-0.28608 -1.34185,-0.40634 -1.0165,-0.2747 -2.04948,-0.4785 -3.09257,-0.60889 -1.04816,-0.13039 -2.10265,-0.18736 -3.1584,-0.1709 -0.82284,-0.002 -1.64566,0.0442 -2.46216,0.14052 -0.81144,0.0962 -1.61402,0.25191 -2.40267,0.46711 -1.66212,0.47851 -3.27361,1.11525 -4.81419,1.9001 -1.55325,0.79119 -3.15334,1.48364 -4.79267,2.07734 -1.01904,0.37849 -2.06848,0.66965 -3.13688,0.87092 -1.06715,0.20129 -2.14823,0.31269 -3.2331,0.33548 -0.22785,0.007 -0.45572,0.0126 -0.68358,0.0152 -0.22913,9.9e-4 -0.45699,9.9e-4 -0.68485,9.9e-4 z" />
          <path
             inkscape:connector-curvature="0"
             id="path20214"
             style="fill:#000000;fill-opacity:1;fill-rule:evenodd;stroke:#000000;stroke-width:0.28178772;stroke-linecap:butt;stroke-linejoin:bevel;stroke-miterlimit:22.9260006;stroke-opacity:1;stroke-dasharray:none"
             d="m -359.95677,-220.53252 0,6.83836 c 0.39622,-0.005 0.79246,-0.0114 1.18994,-0.0203 0.39749,-0.009 0.79498,-0.0228 1.19121,-0.0431 1.66211,-0.081 3.31157,-0.30888 4.93318,-0.67852 1.61655,-0.36838 3.18499,-0.91651 4.67875,-1.6368 0.82789,-0.38356 1.64566,-0.79118 2.45075,-1.22286 0.80512,-0.43293 1.63428,-0.82155 2.48116,-1.16461 0.93803,-0.3823 1.91277,-0.6646 2.90902,-0.84436 0.995,-0.17975 2.00644,-0.24684 3.01536,-0.19748 1.19247,0.0431 2.37481,0.2266 3.52425,0.5494 1.15956,0.32534 2.29759,0.72537 3.40525,1.19754 1.55579,0.66332 3.10903,1.33552 4.65976,2.01277 1.53046,0.66966 3.12676,1.18235 4.76229,1.52793 0.7089,0.16077 1.42793,0.27977 2.15074,0.35699 0.72663,0.0785 1.45578,0.12532 2.1862,0.14178 0.26457,0.007 0.52915,0.0126 0.79498,0.0152 0.26457,0.002 0.52915,0.005 0.79372,0.006 l 0,-6.83835 c -0.39876,-0.006 -0.79878,-0.014 -1.19753,-0.0253 -0.39876,-0.0114 -0.79878,-0.0304 -1.19755,-0.0582 -0.7418,-0.0506 -1.47982,-0.14431 -2.21277,-0.27723 -0.72916,-0.13419 -1.44945,-0.31647 -2.15329,-0.5494 -1.25197,-0.42154 -2.47102,-0.93802 -3.64451,-1.54438 -1.17728,-0.6089 -2.37987,-1.16589 -3.60526,-1.67226 -0.43166,-0.17975 -0.8684,-0.34558 -1.31273,-0.49496 -0.44307,-0.15063 -0.88992,-0.28482 -1.34185,-0.40635 -1.01524,-0.2747 -2.04948,-0.4785 -3.09257,-0.60889 -1.04816,-0.13038 -2.10265,-0.18735 -3.1584,-0.1709 -0.82284,-0.002 -1.64566,0.0443 -2.46216,0.14178 -0.81144,0.0948 -1.61402,0.25192 -2.40267,0.46585 -1.66212,0.47977 -3.27361,1.11525 -4.81419,1.90137 -1.55325,0.78992 -3.15334,1.48362 -4.79267,2.07607 -1.01904,0.3785 -2.06848,0.66966 -3.13688,0.87093 -1.06715,0.20128 -2.14823,0.31395 -3.2331,0.33673 -0.22785,0.008 -0.45572,0.0114 -0.68358,0.014 -0.22913,9.8e-4 -0.45699,0.002 -0.68485,9.8e-4 z" />
        </g>
      </g>
    </g>
  </g>
</svg>
