<?xml version="1.0" encoding="UTF-8" standalone="no"?>
<!-- Created with Inkscape (http://www.inkscape.org/) -->

<svg
   xmlns:dc="http://purl.org/dc/elements/1.1/"
   xmlns:cc="http://creativecommons.org/ns#"
   xmlns:rdf="http://www.w3.org/1999/02/22-rdf-syntax-ns#"
   xmlns:svg="http://www.w3.org/2000/svg"
   xmlns="http://www.w3.org/2000/svg"
   xmlns:sodipodi="http://sodipodi.sourceforge.net/DTD/sodipodi-0.dtd"
   xmlns:inkscape="http://www.inkscape.org/namespaces/inkscape"
   width="60"
   height="60"
   id="svg2"
   version="1.1"
   inkscape:version="0.48.2 r9819"
   sodipodi:docname="Notice_A1a.svg"
   style="display:inline"
   inkscape:export-filename="/Users/mherring/boatsw/oseam/openseamap/josm/icons/WindSurfing16.png"
   inkscape:export-xdpi="12"
   inkscape:export-ydpi="12">
  <defs
     id="defs4" />
  <sodipodi:namedview
     id="base"
     pagecolor="#ffffff"
     bordercolor="#666666"
     borderopacity="1.0"
     inkscape:pageopacity="0.0"
     inkscape:pageshadow="2"
     inkscape:zoom="7.5"
     inkscape:cx="-4.5333333"
     inkscape:cy="60"
     inkscape:document-units="px"
     inkscape:current-layer="layer2"
     showgrid="true"
     inkscape:window-width="1920"
     inkscape:window-height="1088"
     inkscape:window-x="0"
     inkscape:window-y="0"
     inkscape:window-maximized="0"
     inkscape:snap-global="false">
    <inkscape:grid
       type="xygrid"
       id="grid3004"
       empspacing="5"
       visible="true"
       enabled="true"
       snapvisiblegridlinesonly="true" />
  </sodipodi:namedview>
  <metadata
     id="metadata7">
    <rdf:RDF>
      <cc:Work
         rdf:about="">
        <dc:format>image/svg+xml</dc:format>
        <dc:type
           rdf:resource="http://purl.org/dc/dcmitype/StillImage" />
        <dc:title />
      </cc:Work>
    </rdf:RDF>
  </metadata>
  <g
     inkscape:groupmode="layer"
     id="layer2"
     inkscape:label="A1a"
     style="display:inline"
     transform="translate(0,-60)">
    <g
       id="g3004"
       transform="matrix(0.98687757,0,0,0.96868992,-28.717861,31.927408)">
      <g
         inkscape:label="Ebene 1"
         id="layer1-3"
         transform="translate(539.49805,-38.126849)">
        <g
           id="g2816"
           transform="matrix(0.82932582,0,0,0.84487896,-81.923511,15.213724)">
          <path
             inkscape:connector-curvature="0"
             id="path19994"
             style="fill:none;stroke:#231f20;stroke-width:0.27614662;stroke-linecap:butt;stroke-linejoin:bevel;stroke-miterlimit:22.9260006;stroke-opacity:1;stroke-dasharray:none"
             d="m -444.63625,98.076468 c 0,-0.0775 0,-0.15375 -10e-4,-0.23125 0,-0.0775 0,-0.15375 -0.001,-0.23125 -0.0188,-1.5425 -0.13625,-3.0825 -0.3525,-4.61 -0.21625,-1.53 -0.54125,-3.0425 -0.9725,-4.52625 -0.39875,-1.4925 -0.90625,-2.9525 -1.51875,-4.37125 -0.6125,-1.4175 -1.3225,-2.79125 -2.125,-4.11 -0.7825,-1.3325 -1.655,-2.60875 -2.61,-3.8225 -0.955,-1.2125 -1.9925,-2.3575 -3.10625,-3.4275 -1.0975,-1.085 -2.27,-2.09375 -3.5075,-3.01625 -1.23625,-0.925 -2.53625,-1.7625 -3.88875,-2.5075 -1.3425,-0.76375 -2.735,-1.43375 -4.17,-2.00625 -1.43375,-0.5725 -2.905,-1.045 -4.40375,-1.415 -1.495,-0.39 -3.01375,-0.67625 -4.5475,-0.8575 -1.5325,-0.1825 -3.0775,-0.2575 -4.62125,-0.2275 -1.54375,0.01 -3.085,0.12625 -4.61375,0.34875 -1.5275,0.22125 -3.03875,0.5475 -4.52125,0.97625 -1.48875,0.40875 -2.9475,0.92125 -4.3675,1.53 -1.41875,0.61 -2.79375,1.31625 -4.115,2.11375 -1.3325,0.78125 -2.60875,1.6525 -3.82125,2.60875 -1.2125,0.955 -2.35875,1.99375 -3.42875,3.10625 -1.085,1.09875 -2.0925,2.27125 -3.01625,3.50875 -0.92375,1.2375 -1.76125,2.53625 -2.5075,3.88875 -0.7625,1.3425 -1.4325,2.735 -2.005,4.16875 -0.5725,1.435 -1.045,2.90625 -1.415,4.405 -0.39,1.495 -0.6775,3.01375 -0.85875,4.5475 -0.18125,1.5325 -0.2575,3.07625 -0.22625,4.62 0.01,1.545002 0.12625,3.086252 0.3475,4.613752 0.22125,1.52875 0.5475,3.04 0.97625,4.5225 0.41,1.48875 0.92125,2.9475 1.53125,4.36625 0.60875,1.41875 1.315,2.79375 2.11375,4.11625 0.78,1.33125 1.65125,2.60875 2.6075,3.82125 0.95625,1.2125 1.995,2.35875 3.1075,3.4275 1.09875,1.085 2.27125,2.0925 3.50875,3.01625 1.23625,0.925 2.53625,1.7625 3.88875,2.5075 1.34125,0.76375 2.735,1.43375 4.16875,2.00625 1.43375,0.57125 2.90625,1.045 4.405,1.415 1.49375,0.39 3.0125,0.67625 4.54625,0.8575 1.53375,0.18125 3.0775,0.2575 4.62125,0.2275 1.54375,-0.01 3.08625,-0.12625 4.61375,-0.3475 1.5275,-0.22125 3.03875,-0.54875 4.5225,-0.9775 1.48875,-0.40875 2.9475,-0.92 4.36625,-1.53 1.41875,-0.60875 2.79375,-1.31625 4.115,-2.11375 1.3325,-0.78 2.60875,-1.6525 3.82125,-2.60875 1.21375,-0.955 2.35875,-1.99375 3.42875,-3.10625 1.085,-1.09875 2.0925,-2.27125 3.0175,-3.50875 0.92375,-1.2375 1.76125,-2.53625 2.50625,-3.88875 0.7625,-1.34125 1.4325,-2.73375 2.00375,-4.1675 0.57125,-1.435 1.045,-2.9075 1.4175,-4.40625 0.3725,-1.42125 0.6525,-2.86375 0.83625,-4.32125 0.18375,-1.45375 0.2675,-2.918752 0.25125,-4.383752 z" />
          <path
             inkscape:connector-curvature="0"
             d="m -444.56875,98.076468 c 0,0.0775 0,0.155 -10e-4,0.2325 0,0.07625 0,0.15375 -10e-4,0.23125 -0.0187,1.546252 -0.13625,3.088752 -0.35375,4.618752 -0.21625,1.5325 -0.54125,3.04875 -0.97375,4.535 -0.4,1.495 -0.90875,2.95875 -1.5225,4.37875 -0.61375,1.42125 -1.325,2.7975 -2.12875,4.11875 -0.78375,1.335 -1.6575,2.61375 -2.615,3.82875 -0.9575,1.215 -1.99625,2.3625 -3.11125,3.435 -1.1,1.0875 -2.275,2.0975 -3.51375,3.0225 -1.24,0.925 -2.5425,1.765 -3.8975,2.51125 -1.345,0.765 -2.74,1.43625 -4.1775,2.01 -1.43625,0.5725 -2.91125,1.04625 -4.4125,1.4175 -1.4975,0.39125 -3.01875,0.67875 -4.55625,0.86 -1.535,0.1825 -3.0825,0.2575 -4.63,0.2275 -1.54625,-0.01 -3.09,-0.12625 -4.62125,-0.34875 -1.53125,-0.22125 -3.045,-0.54875 -4.53125,-0.97875 -1.4925,-0.41 -2.95375,-0.9225 -4.375,-1.5325 -1.42125,-0.61125 -2.79875,-1.31875 -4.12375,-2.11875 -1.33375,-0.78125 -2.61375,-1.655 -3.82875,-2.6125 -1.215,-0.9575 -2.3625,-1.9975 -3.435,-3.11375 -1.08625,-1.1 -2.09625,-2.275 -3.02125,-3.515 -0.92625,-1.23875 -1.765,-2.54125 -2.5125,-3.895 -0.76375,-1.345 -1.43625,-2.74125 -2.00875,-4.1775 -0.57375,-1.4375 -1.0475,-2.91125 -1.41875,-4.41375 -0.39,-1.49625 -0.6775,-3.01875 -0.85875,-4.555 -0.1825,-1.53625 -0.25875,-3.082502 -0.2275,-4.630002 0.01,-1.54625 0.12625,-3.09125 0.3475,-4.6225 0.2225,-1.53125 0.55,-3.045 0.97875,-4.53125 0.41,-1.49125 0.9225,-2.9525 1.53375,-4.37375 0.61,-1.42125 1.3175,-2.8 2.1175,-4.12375 0.7825,-1.335 1.655,-2.61375 2.61375,-3.82875 0.9575,-1.215 1.9975,-2.3625 3.1125,-3.435 1.10125,-1.08625 2.275,-2.09625 3.515,-3.0225 1.24,-0.925 2.54125,-1.76375 3.89625,-2.51125 1.345,-0.765 2.74,-1.43625 4.1775,-2.01 1.43625,-0.5725 2.91125,-1.04625 4.41375,-1.4175 1.49625,-0.39125 3.0175,-0.67875 4.555,-0.86 1.53625,-0.1825 3.0825,-0.2575 4.63,-0.2275 1.54625,0.01 3.09125,0.1275 4.6225,0.34875 1.53,0.2225 3.04375,0.54875 4.53,0.97875 1.4925,0.41 2.95375,0.9225 4.375,1.53375 1.42125,0.61 2.79875,1.3175 4.12375,2.1175 1.33375,0.7825 2.61375,1.655 3.82875,2.6125 1.215,0.9575 2.3625,1.9975 3.435,3.11375 1.08625,1.10125 2.09625,2.275 3.0225,3.515 0.925,1.23875 1.765,2.54125 2.51125,3.89625 0.76375,1.34375 1.435,2.73875 2.0075,4.175 0.57375,1.4375 1.0475,2.9125 1.42,4.415 0.37375,1.42375 0.6525,2.87 0.8375,4.33 0.185,1.45625 0.26875,2.92375 0.2525,4.39125 z"
             style="fill:#ffffff;stroke:#231f20;stroke-width:2.44369006;stroke-linecap:butt;stroke-linejoin:bevel;stroke-miterlimit:22.9260006;stroke-opacity:1;stroke-dasharray:none"
             id="path19998" />
          <path
             inkscape:connector-curvature="0"
             d="m -447.44112,104.64183 -0.0259,0.13386 c -0.007,0.0439 -0.0172,0.0891 -0.0259,0.13262 -0.07,0.35161 -0.15007,0.70076 -0.23864,1.04748 -0.0898,0.34675 -0.18697,0.69226 -0.28908,1.03536 -0.39976,1.37841 -0.88442,2.73009 -1.45026,4.05012 -0.56459,1.32 -1.22392,2.59989 -1.9718,3.82745 -0.7233,1.24217 -1.5376,2.43079 -2.43803,3.55496 -0.90042,1.12538 -1.87956,2.18626 -2.92882,3.17783 -1.03327,1.00611 -2.13418,1.94167 -3.29539,2.80062 -1.16119,0.85894 -2.3802,1.63635 -3.64965,2.32862 -1.25959,0.71051 -2.56716,1.3322 -3.91411,1.86387 -1.34693,0.53161 -2.72955,0.96959 -4.13676,1.31389 -1.40353,0.36137 -2.82918,0.62782 -4.26962,0.79691 -1.44042,0.16788 -2.88944,0.23846 -4.33848,0.21048 -1.45026,-0.0101 -2.89808,-0.1168 -4.33234,-0.32361 -1.43427,-0.2044 -2.85378,-0.50856 -4.24625,-0.90641 -1.39859,-0.37957 -2.7689,-0.85528 -4.10107,-1.421 -1.33219,-0.56573 -2.62255,-1.22148 -3.86369,-1.96362 -1.25099,-0.72508 -2.44909,-1.53413 -3.58815,-2.42226 -1.13782,-0.88813 -2.21414,-1.85292 -3.21911,-2.88461 -1.01975,-1.02075 -1.96814,-2.10839 -2.83657,-3.25688 -0.86844,-1.1485 -1.65446,-2.35536 -2.35069,-3.61335 -0.7122,-1.24947 -1.33709,-2.5464 -1.86972,-3.8798 -0.53261,-1.33218 -0.9816,-2.69602 -1.34201,-4.08297 -0.0689,-0.25182 -0.13532,-0.5049 -0.19927,-0.75792 -0.0652,-0.25187 -0.12916,-0.50489 -0.1919,-0.75797 l 65.11307,-0.004 m -0.0491,-13.133099 -65.06263,0 c 0.0147,-0.0438 0.0296,-0.08761 0.0443,-0.131395 0.0147,-0.0438 0.0295,-0.08761 0.043,-0.131391 0.10701,-0.341869 0.20172,-0.68739 0.28168,-1.036559 0.0813,-0.349168 0.16237,-0.698339 0.24725,-1.046291 0.33827,-1.394239 0.80202,-2.754418 1.38631,-4.065929 0.58552,-1.317595 1.26575,-2.591394 2.03455,-3.81166 0.74051,-1.234864 1.5622,-2.421063 2.45892,-3.550085 0.89304,-1.126587 1.8648,-2.189909 2.90792,-3.182669 1.02957,-1.009787 2.12926,-1.945367 3.29046,-2.801862 1.16242,-0.857718 2.3839,-1.63635 3.65457,-2.328602 1.26084,-0.708073 2.56964,-1.330982 3.91657,-1.861427 1.34571,-0.53166 2.72832,-0.970858 4.13552,-1.315159 1.4023,-0.362553 2.8292,-0.627776 4.2684,-0.796883 1.43918,-0.16911 2.88944,-0.238458 4.33971,-0.210478 1.45027,0.0085 2.89807,0.116797 4.33235,0.322403 1.43427,0.205611 2.85379,0.509765 4.24624,0.907598 1.39736,0.379585 2.76646,0.855281 4.09862,1.421005 1.33218,0.566946 2.62376,1.222702 3.86615,1.963623 1.25223,0.723883 2.45277,1.532934 3.59305,2.421061 1.13907,0.886912 2.21292,1.850476 3.21422,2.887034 1.01234,1.02074 1.95335,2.110825 2.81564,3.259313 0.86597,1.153351 1.65692,2.359015 2.37036,3.609697 0.73559,1.242164 1.38385,2.532995 1.93862,3.863975 0.55229,1.324894 0.97914,2.697236 1.27436,4.09878 0.0566,0.251836 0.10947,0.503676 0.15868,0.756733 0.0504,0.253057 0.0984,0.506111 0.14514,0.759168"
             style="fill:#e72512;fill-opacity:1;fill-rule:evenodd;stroke:none"
             id="path20006" />
        </g>
      </g>
    </g>
  </g>
</svg>
