<?xml version="1.0" encoding="UTF-8" standalone="no"?>
<!-- Created with Inkscape (http://www.inkscape.org/) -->

<svg
   xmlns:dc="http://purl.org/dc/elements/1.1/"
   xmlns:cc="http://creativecommons.org/ns#"
   xmlns:rdf="http://www.w3.org/1999/02/22-rdf-syntax-ns#"
   xmlns:svg="http://www.w3.org/2000/svg"
   xmlns="http://www.w3.org/2000/svg"
   xmlns:sodipodi="http://sodipodi.sourceforge.net/DTD/sodipodi-0.dtd"
   xmlns:inkscape="http://www.inkscape.org/namespaces/inkscape"
   width="60"
   height="60"
   id="svg2"
   version="1.1"
   inkscape:version="0.48.2 r9819"
   sodipodi:docname="Notice_A17.svg"
   style="display:inline"
   inkscape:export-filename="/Users/mherring/boatsw/oseam/openseamap/josm/icons/WindSurfing16.png"
   inkscape:export-xdpi="12"
   inkscape:export-ydpi="12">
  <defs
     id="defs4" />
  <sodipodi:namedview
     id="base"
     pagecolor="#ffffff"
     bordercolor="#666666"
     borderopacity="1.0"
     inkscape:pageopacity="0.0"
     inkscape:pageshadow="2"
     inkscape:zoom="7.5"
     inkscape:cx="-4.5333333"
     inkscape:cy="60"
     inkscape:document-units="px"
     inkscape:current-layer="layer19"
     showgrid="true"
     inkscape:window-width="1920"
     inkscape:window-height="1088"
     inkscape:window-x="0"
     inkscape:window-y="0"
     inkscape:window-maximized="0"
     inkscape:snap-global="false">
    <inkscape:grid
       type="xygrid"
       id="grid3004"
       empspacing="5"
       visible="true"
       enabled="true"
       snapvisiblegridlinesonly="true" />
  </sodipodi:namedview>
  <metadata
     id="metadata7">
    <rdf:RDF>
      <cc:Work
         rdf:about="">
        <dc:format>image/svg+xml</dc:format>
        <dc:type
           rdf:resource="http://purl.org/dc/dcmitype/StillImage" />
        <dc:title />
      </cc:Work>
    </rdf:RDF>
  </metadata>
  <g
     inkscape:groupmode="layer"
     id="layer19"
     inkscape:label="A17"
     style="display:inline"
     transform="translate(0,-60)">
    <g
       id="g7051"
       transform="matrix(0.97035075,0,0,0.97035075,-28.221013,31.778926)">
      <g
         inkscape:label="Ebene 1"
         id="layer1-72"
         transform="translate(-290.00005,-472.36219)">
        <g
           id="g2904"
           transform="matrix(0.84346237,0,0,0.84345099,54.788177,83.340775)">
          <path
             inkscape:connector-curvature="0"
             id="path20342"
             style="fill:none;stroke:#231f20;stroke-width:0.27824989;stroke-linecap:butt;stroke-linejoin:bevel;stroke-miterlimit:22.9260006;stroke-opacity:1;stroke-dasharray:none"
             d="m 319.29136,567.72781 61.4175,0 0.0175,0 0.0188,0 c 0.20125,-10e-4 0.4025,-0.015 0.60125,-0.0425 0.2,-0.0275 0.3975,-0.0675 0.59125,-0.1225 0.195,-0.0512 0.385,-0.115 0.57125,-0.19375 0.18625,-0.0775 0.36625,-0.16875 0.53875,-0.27125 0.175,-0.1 0.3425,-0.2125 0.5025,-0.335 0.15875,-0.1225 0.31,-0.25625 0.45125,-0.39875 0.14375,-0.14125 0.2775,-0.2925 0.4,-0.4525 0.1225,-0.15875 0.235,-0.3275 0.335,-0.50125 0.10125,-0.17375 0.19125,-0.35375 0.26875,-0.54 0.0775,-0.185 0.1425,-0.37625 0.195,-0.57 0.055,-0.195 0.0975,-0.3925 0.125,-0.5925 0.0288,-0.19875 0.0412,-0.4 0.04,-0.6 l 0,-61.49125 c -10e-4,-0.2 -0.015,-0.40125 -0.0425,-0.60125 -0.0263,-0.19875 -0.0675,-0.39625 -0.1225,-0.59 -0.05,-0.195 -0.115,-0.38625 -0.1925,-0.57125 -0.0788,-0.18625 -0.16875,-0.36625 -0.27125,-0.54 -0.10125,-0.17375 -0.2125,-0.3425 -0.335,-0.50125 -0.1225,-0.16 -0.25625,-0.31125 -0.4,-0.4525 -0.14125,-0.1425 -0.2925,-0.27625 -0.45125,-0.39875 -0.16,-0.12375 -0.3275,-0.235 -0.5025,-0.335 -0.1725,-0.1025 -0.35375,-0.1925 -0.53875,-0.27 -0.18625,-0.0775 -0.3775,-0.1425 -0.57125,-0.195 -0.19375,-0.055 -0.39125,-0.0962 -0.59125,-0.125 -0.19875,-0.0275 -0.4,-0.0412 -0.60125,-0.04 l -61.49,0 c -0.20125,0.001 -0.4025,0.015 -0.60125,0.0425 -0.2,0.0275 -0.3975,0.0687 -0.59125,0.1225 -0.195,0.0512 -0.38625,0.115 -0.57125,0.19375 -0.18625,0.0775 -0.36625,0.16875 -0.53875,0.27125 -0.175,0.1 -0.3425,0.21125 -0.5025,0.335 -0.15875,0.1225 -0.31,0.25625 -0.45125,0.39875 -0.14375,0.14125 -0.2775,0.2925 -0.4,0.4525 -0.1225,0.15875 -0.235,0.3275 -0.33375,0.50125 -0.1025,0.17375 -0.1925,0.35375 -0.27,0.54 -0.0775,0.185 -0.14375,0.37625 -0.19625,0.57125 -0.0537,0.19375 -0.0962,0.39125 -0.12375,0.59 -0.0288,0.2 -0.0412,0.40125 -0.04,0.60125 l 0,0.0188 -10e-4,0.0188 0,61.41625 10e-4,0.0188 0,0.0187 c 0.001,0.20125 0.015,0.40125 0.0412,0.60125 0.0275,0.19875 0.0688,0.39625 0.1225,0.59125 0.0512,0.19375 0.11625,0.385 0.19375,0.57125 0.0788,0.185 0.16875,0.365 0.2725,0.53875 0.1,0.17375 0.21125,0.34125 0.33375,0.50125 0.1225,0.16 0.25625,0.31125 0.4,0.4525 0.14125,0.1425 0.2925,0.27625 0.45125,0.39875 0.16,0.1225 0.3275,0.235 0.5025,0.335 0.1725,0.1025 0.35375,0.1925 0.53875,0.27 0.18625,0.0775 0.37625,0.1425 0.57125,0.195 0.19375,0.055 0.39125,0.0962 0.59125,0.125 0.19875,0.0275 0.4,0.0412 0.60125,0.04 l 0.0188,0 0.0175,0 z" />
          <path
             inkscape:connector-curvature="0"
             id="path20346"
             style="fill:#ffffff;fill-opacity:1;fill-rule:evenodd;stroke:#000000;stroke-width:2.44364667;stroke-linecap:butt;stroke-linejoin:bevel;stroke-miterlimit:22.9260006;stroke-opacity:1;stroke-dasharray:none"
             d="m 319.29136,567.79531 -0.0362,0 c -0.205,-10e-4 -0.40875,-0.015 -0.61125,-0.0425 -0.2025,-0.0275 -0.4025,-0.07 -0.59875,-0.125 -0.1975,-0.0512 -0.39125,-0.11625 -0.58,-0.19625 -0.18875,-0.0788 -0.37125,-0.17125 -0.54625,-0.275 -0.1775,-0.1025 -0.3475,-0.215 -0.51,-0.34 -0.16125,-0.12375 -0.315,-0.26 -0.45875,-0.405 -0.145,-0.14375 -0.28,-0.29625 -0.405,-0.45875 -0.125,-0.16125 -0.2375,-0.33125 -0.33875,-0.50875 -0.10375,-0.17625 -0.195,-0.35875 -0.27375,-0.5475 -0.0788,-0.18875 -0.145,-0.38125 -0.1975,-0.57875 -0.0563,-0.1975 -0.0987,-0.3975 -0.1275,-0.6 -0.0288,-0.2025 -0.0425,-0.40625 -0.04,-0.61 l 0,-61.49125 c 0.001,-0.20375 0.015,-0.4075 0.0425,-0.61 0.0275,-0.2025 0.0687,-0.4025 0.125,-0.6 0.05,-0.1975 0.11625,-0.39125 0.195,-0.58 0.08,-0.1875 0.17125,-0.37 0.27625,-0.54625 0.10125,-0.17625 0.215,-0.34625 0.33875,-0.50875 0.125,-0.16125 0.26,-0.315 0.405,-0.45875 0.14375,-0.14625 0.2975,-0.28125 0.45875,-0.40625 0.1625,-0.12375 0.3325,-0.23625 0.51,-0.33875 0.175,-0.10375 0.3575,-0.195 0.54625,-0.27375 0.18875,-0.0788 0.3825,-0.145 0.58,-0.1975 0.19625,-0.0563 0.39625,-0.0975 0.6,-0.12625 0.20125,-0.0288 0.405,-0.0425 0.61,-0.0412 l 61.49125,0 c 0.20375,0.001 0.4075,0.0163 0.61,0.0437 0.20125,0.0263 0.4025,0.0688 0.59875,0.12375 0.1975,0.0512 0.39125,0.1175 0.58,0.19625 0.18875,0.0788 0.37125,0.17125 0.54625,0.275 0.1775,0.1025 0.3475,0.215 0.50875,0.34 0.1625,0.125 0.31625,0.26 0.46,0.405 0.145,0.14375 0.28,0.2975 0.405,0.45875 0.125,0.1625 0.2375,0.33125 0.33875,0.50875 0.10375,0.17625 0.195,0.35875 0.27375,0.54625 0.0788,0.19 0.145,0.3825 0.1975,0.58 0.0563,0.1975 0.0987,0.3975 0.1275,0.6 0.0275,0.2025 0.0412,0.40625 0.04,0.61 l 0,61.49125 c -10e-4,0.20375 -0.015,0.4075 -0.0425,0.61 -0.0275,0.2025 -0.0687,0.4025 -0.125,0.6 -0.0512,0.1975 -0.11625,0.39125 -0.19625,0.58 -0.0787,0.1875 -0.17125,0.37 -0.275,0.54625 -0.10125,0.1775 -0.215,0.3475 -0.33875,0.50875 -0.125,0.1625 -0.26,0.315 -0.405,0.45875 -0.14375,0.145 -0.2975,0.28125 -0.46,0.405 -0.16125,0.125 -0.33125,0.23875 -0.50875,0.34 -0.17625,0.1025 -0.3575,0.195 -0.54625,0.27375 -0.18875,0.0788 -0.3825,0.145 -0.58,0.1975 -0.19625,0.0563 -0.3975,0.0975 -0.6,0.12625 -0.20125,0.0288 -0.405,0.0425 -0.60875,0.0412 l -61.455,0 z" />
          <path
             inkscape:connector-curvature="0"
             id="path20350"
             style="fill:#e72512;fill-opacity:1;fill-rule:evenodd;stroke:none"
             d="m 319.71545,565.55901 60.59137,0 c 0.12697,-9.8e-4 0.25148,-0.01 0.37599,-0.0271 0.12573,-0.0161 0.24901,-0.0419 0.36982,-0.0764 0.12204,-0.0308 0.24161,-0.0715 0.35749,-0.12081 0.11588,-0.0481 0.22805,-0.10478 0.33654,-0.16889 0.10971,-0.0629 0.21449,-0.13313 0.31434,-0.20956 0.0999,-0.0777 0.19477,-0.16026 0.28353,-0.25025 0.0888,-0.0888 0.17258,-0.18245 0.24901,-0.2823 0.0764,-0.0999 0.1467,-0.20464 0.20834,-0.31436 0.0641,-0.10848 0.1208,-0.22066 0.17011,-0.33654 0.0481,-0.11588 0.0888,-0.23545 0.12081,-0.3575 0.0345,-0.12081 0.0605,-0.24408 0.0777,-0.36982 0.0185,-0.12451 0.0271,-0.25025 0.0259,-0.37599 l 0,-60.61569 c -9.9e-4,-0.12574 -0.01,-0.25025 -0.0259,-0.37599 -0.0173,-0.12451 -0.0431,-0.24778 -0.0777,-0.36859 -0.0308,-0.12205 -0.0715,-0.24162 -0.12081,-0.3575 -0.0493,-0.11588 -0.10478,-0.22929 -0.17011,-0.33654 -0.0616,-0.10972 -0.13191,-0.2145 -0.20834,-0.31435 -0.0764,-0.0999 -0.16025,-0.19478 -0.24901,-0.28354 -0.0888,-0.0888 -0.18368,-0.17258 -0.28353,-0.24901 -0.0999,-0.0764 -0.20463,-0.1467 -0.31434,-0.20834 -0.10849,-0.0641 -0.22066,-0.12081 -0.33654,-0.17012 -0.11588,-0.048 -0.23545,-0.0888 -0.35749,-0.12204 -0.12081,-0.0332 -0.24409,-0.0592 -0.36982,-0.0777 -0.12451,-0.0173 -0.24902,-0.0259 -0.37599,-0.0247 l -60.61356,0 c -0.12574,9.9e-4 -0.25148,0.01 -0.37599,0.0259 -0.12574,0.0173 -0.24901,0.0432 -0.36982,0.0764 -0.12204,0.0321 -0.24161,0.0727 -0.35749,0.12204 -0.11588,0.048 -0.22806,0.10479 -0.33654,0.17012 -0.10971,0.0616 -0.21449,0.13191 -0.31434,0.20834 -0.0999,0.0764 -0.19478,0.16025 -0.2823,0.24901 -0.09,0.0888 -0.17382,0.18368 -0.25025,0.28354 -0.0764,0.0999 -0.14669,0.20463 -0.20956,0.31435 -0.0629,0.10848 -0.11958,0.22066 -0.16765,0.33654 -0.0493,0.11588 -0.09,0.23545 -0.12328,0.3575 -0.0332,0.12081 -0.0605,0.24408 -0.0777,0.36982 -0.0173,0.12451 -0.0259,0.24902 -0.0247,0.37476 l 0,60.61569 c 0,0.12574 0.01,0.25148 0.0259,0.37599 0.0173,0.12574 0.0431,0.24901 0.0764,0.36982 0.0321,0.12205 0.0728,0.24162 0.12205,0.3575 0.0481,0.11588 0.10478,0.22806 0.16888,0.33654 0.0628,0.10972 0.13314,0.2145 0.20956,0.31436 0.0777,0.0999 0.16026,0.19354 0.25025,0.2823 0.0876,0.09 0.18244,0.17381 0.2823,0.25025 0.0999,0.0764 0.20463,0.14669 0.31434,0.20956 0.10848,0.0629 0.22066,0.11958 0.33654,0.16766 0.11588,0.0493 0.23545,0.09 0.35749,0.12204 0.12081,0.0345 0.24408,0.0604 0.36982,0.0789 0.12451,0.0173 0.25025,0.0259 0.37599,0.0246 l 0.0222,0 z" />
          <path
             inkscape:connector-curvature="0"
             id="path20354"
             style="fill:#ffffff;fill-opacity:1;fill-rule:evenodd;stroke:none"
             d="m 366.46386,555.98531 -40.085,-40.085 0,40.085 40.085,0" />
          <path
             inkscape:connector-curvature="0"
             id="path20358"
             style="fill:#ffffff;fill-opacity:1;fill-rule:evenodd;stroke:none"
             d="m 373.62136,548.82656 0,-40.085 -40.085,0 40.085,40.085" />
          <path
             inkscape:connector-curvature="0"
             id="path20362"
             style="fill:#000000;fill-opacity:1;fill-rule:evenodd;stroke:none"
             d="m 340.81011,551.10031 c 1.0725,-13.28375 3.57375,-26.805 7.50625,-40.565 7.29625,8.1825 11.76375,17.63875 14.29625,27.96625 -6.82375,7.08875 -14.02625,11.70625 -21.8025,12.59875" />
          <path
             inkscape:connector-curvature="0"
             id="path20366"
             style="fill:#000000;fill-opacity:1;fill-rule:evenodd;stroke:none"
             d="m 336.25386,553.24406 9.395,0.0838 0.43375,-1.15625 c -3.6925,-0.8625 -7.15375,-0.95125 -10.275,0.09 l 0.44625,0.9825" />
          <path
             inkscape:connector-curvature="0"
             id="path20370"
             style="fill:#000000;fill-opacity:1;fill-rule:evenodd;stroke:none"
             d="m 340.81011,551.10031 c 0.0312,-0.38 0.90875,-4.82 -0.16875,-6.12125 -1.07625,-1.30125 -2.29125,-2.60875 -4.19875,-4.4575 l -0.0638,-3.0975 c -0.0125,-0.645 -0.495,-1.17875 -0.5375,-1.7325 1.8325,0.0662 3.64375,-0.0925 5.44375,-0.35375 l 0.21875,-0.58125 -7.14125,-0.8675 -1.68375,0.19875 c -1.38125,1.715 0.43,3.50375 0.81625,5.1325 l 0.0662,2.0525 c 0.0613,1.96 2.8075,3.8125 4.9025,4.5625 0.29625,1.9675 0.83,3.87125 1.74875,5.675 l 0.5975,-0.41" />
          <path
             inkscape:connector-curvature="0"
             id="path20374"
             style="fill:#000000;fill-opacity:1;fill-rule:evenodd;stroke:none"
             d="m 332.91386,529.99281 c 0.87375,0.0588 1.45875,0.84 1.58375,1.92125 0.125,1.08125 -0.28875,2.20875 -1.265,2.0075 -0.975,-0.2025 -1.61375,-0.99875 -1.7675,-1.9825 -0.1525,-0.985 0.575,-2.00375 1.44875,-1.94625" />
          <path
             inkscape:connector-curvature="0"
             id="path20378"
             style="fill:none;stroke:#000000;stroke-width:1.34223425;stroke-linecap:butt;stroke-linejoin:miter;stroke-miterlimit:22.9260006;stroke-opacity:1;stroke-dasharray:none"
             d="m 344.61067,533.45278 -3.06755,1.36271 -0.23179,0.59426 c 0,0 1.35364,2.22464 1.44901,2.23361" />
        </g>
      </g>
    </g>
  </g>
</svg>
