<?xml version="1.0" encoding="UTF-8" standalone="no"?>
<!-- Created with Inkscape (http://www.inkscape.org/) -->

<svg
   xmlns:dc="http://purl.org/dc/elements/1.1/"
   xmlns:cc="http://creativecommons.org/ns#"
   xmlns:rdf="http://www.w3.org/1999/02/22-rdf-syntax-ns#"
   xmlns:svg="http://www.w3.org/2000/svg"
   xmlns="http://www.w3.org/2000/svg"
   xmlns:sodipodi="http://sodipodi.sourceforge.net/DTD/sodipodi-0.dtd"
   xmlns:inkscape="http://www.inkscape.org/namespaces/inkscape"
   width="60"
   height="80"
   id="svg2"
   version="1.1"
   inkscape:version="0.48.2 r9819"
   sodipodi:docname="Notice_B2b.svg"
   style="display:inline"
   inkscape:export-filename="/Users/mherring/boatsw/oseam/openseamap/josm/icons/WindSurfing16.png"
   inkscape:export-xdpi="12"
   inkscape:export-ydpi="12">
  <defs
     id="defs4" />
  <sodipodi:namedview
     id="base"
     pagecolor="#ffffff"
     bordercolor="#666666"
     borderopacity="1.0"
     inkscape:pageopacity="0.0"
     inkscape:pageshadow="2"
     inkscape:zoom="8"
     inkscape:cx="29.177842"
     inkscape:cy="51.668915"
     inkscape:document-units="px"
     inkscape:current-layer="layer27"
     showgrid="true"
     inkscape:window-width="1920"
     inkscape:window-height="1088"
     inkscape:window-x="0"
     inkscape:window-y="0"
     inkscape:window-maximized="1"
     inkscape:snap-global="false">
    <inkscape:grid
       type="xygrid"
       id="grid3004"
       empspacing="5"
       visible="true"
       enabled="true"
       snapvisiblegridlinesonly="true" />
  </sodipodi:namedview>
  <metadata
     id="metadata7">
    <rdf:RDF>
      <cc:Work
         rdf:about="">
        <dc:format>image/svg+xml</dc:format>
        <dc:type
           rdf:resource="http://purl.org/dc/dcmitype/StillImage" />
        <dc:title />
      </cc:Work>
    </rdf:RDF>
  </metadata>
  <g
     inkscape:groupmode="layer"
     id="layer27"
     inkscape:label="B2b"
     style="display:inline"
     transform="translate(0,-40)">
    <g
       transform="matrix(0.97183127,0,0,0.97891162,377.08258,23.148261)"
       id="layer1-2"
       inkscape:label="Ebene 1">
      <g
         transform="matrix(1.2431935,0,0,1.1243729,86.854865,-7.2231421)"
         id="g3175">
        <g
           id="g7672"
           transform="matrix(0,1.25,1.25,0,-377.71717,92.365843)"
           style="fill:#e72512;fill-opacity:1;stroke:#000000;stroke-width:1.02525723">
          <path
             d="m -0.39435817,0.24320734 0,-0.0137933 c -9.8561e-4,-0.0778339 -0.005914,-0.15566777 -0.0167554,-0.23350165 -0.009856,-0.07684864 -0.0256258,-0.15271204 -0.0473092,-0.2275902 -0.0197122,-0.0758634 -0.0443524,-0.14975633 -0.0749063,-0.22167878 -0.0305539,-0.0719224 -0.0650502,-0.14088917 -0.10447458,-0.20788543 -0.0394244,-0.0679815 -0.0827912,-0.13300726 -0.13010041,-0.19507732 -0.0473092,-0.0610848 -0.0995465,-0.12019915 -0.15474065,-0.17438736 -0.0542085,-0.055173 -0.11334509,-0.107391 -0.17445289,-0.1546825 -0.062093,-0.047292 -0.1271436,-0.090642 -0.194165,-0.1290663 -0.068007,-0.03941 -0.1369997,-0.074878 -0.2089491,-0.1044354 -0.07195,-0.030542 -0.1458702,-0.055173 -0.2207765,-0.075863 -0.074906,-0.021675 -0.1517838,-0.037439 -0.2296469,-0.048277 -0.076878,-0.010838 -0.1547407,-0.015764 -0.2326038,-0.015764 l -50.4976881,0 c -0.07786,9.852e-4 -0.155726,0.00591 -0.232603,0.016749 -0.07688,0.00985 -0.153755,0.025616 -0.228662,0.047291 -0.07589,0.019705 -0.149812,0.044336 -0.221762,0.074878 -0.07096,0.030542 -0.140942,0.065026 -0.207963,0.1054206 -0.06801,0.038424 -0.132072,0.081775 -0.194165,0.1290663 -0.06209,0.047291 -0.120245,0.099509 -0.175439,0.1546825 -0.05519,0.0541882 -0.107431,0.11330255 -0.154741,0.17438736 -0.04731,0.0620701 -0.09068,0.12709583 -0.129114,0.19507732 -0.03943,0.0669963 -0.07491,0.13596299 -0.104475,0.20788543 -0.02957,0.0719224 -0.05519,0.14581537 -0.07589,0.22167878 -0.0207,0.0748782 -0.03745,0.15074156 -0.04829,0.22857544 -0.01084,0.07684864 -0.01577,0.15468253 -0.01478,0.23251641 l 0,32.46066876 c 0,0.07783 0.0059,0.155668 0.01577,0.232516 0.01084,0.07783 0.02661,0.153698 0.04731,0.228576 0.01971,0.07586 0.04534,0.149756 0.07491,0.220693 0.03055,0.07192 0.06604,0.141875 0.105461,0.208871 0.03844,0.06798 0.0818,0.133007 0.129114,0.194092 0.0483,0.06207 0.09955,0.120199 0.154741,0.175373 0.05519,0.05517 0.113345,0.106405 0.175439,0.154682 0.06209,0.04729 0.126158,0.09064 0.194165,0.129066 0.06702,0.03941 0.136999,0.07389 0.207963,0.104436 0.07294,0.02956 0.146856,0.05517 0.221762,0.07488 0.07491,0.02168 0.151784,0.03744 0.228662,0.04926 0.07688,0.01084 0.15474,0.01576 0.232603,0.01478 l 50.4976881,0 c 0.077863,0 0.1557262,-0.0059 0.2335894,-0.01576 0.076877,-0.01084 0.153755,-0.0266 0.2286613,-0.04828 0.074906,-0.01872 0.148827,-0.04434 0.2207765,-0.07389 0.071949,-0.03054 0.1409421,-0.06601 0.2089491,-0.105421 0.067021,-0.03842 0.1320717,-0.08177 0.194165,-0.130051 0.061108,-0.04729 0.12024439,-0.09852 0.17445289,-0.153697 0.0561797,-0.05517 0.10743141,-0.113303 0.15474065,-0.175373 0.0473092,-0.06108 0.0906761,-0.126111 0.13010041,-0.194092 0.0384388,-0.067 0.0739207,-0.136948 0.10447458,-0.208871 0.0295683,-0.07192 0.0542085,-0.145815 0.0749063,-0.220693 0.0216834,-0.07488 0.0374531,-0.151727 0.0482948,-0.228576 0.0108417,-0.07685 0.0157697,-0.154682 0.0157697,-0.232516 l 0,-0.01478 0,-32.43209642 z"
             style="fill:#e72512;fill-opacity:1;fill-rule:evenodd;stroke:none"
             id="path7674"
             inkscape:connector-curvature="0" />
        </g>
        <g
           id="g7676"
           transform="matrix(0,1.25,1.25,0,-378.26592,93.463343)"
           style="stroke:#000000;stroke-width:1.02525723">
          <path
             d="m 0,0 0,33.814 c -0.001,0.098 -0.007,0.196 -0.02,0.293 -0.014,0.097 -0.034,0.193 -0.06,0.288 -0.025,0.094 -0.056,0.188 -0.094,0.278 -0.038,0.09 -0.083,0.178 -0.133,0.262 -0.048,0.085 -0.103,0.167 -0.163,0.245 -0.06,0.077 -0.124,0.151 -0.194,0.22 -0.069,0.07 -0.142,0.135 -0.22,0.194 -0.078,0.06 -0.159,0.114 -0.245,0.163 -0.084,0.05 -0.172,0.094 -0.262,0.131 -0.091,0.038 -0.184,0.07 -0.278,0.096 -0.095,0.026 -0.191,0.047 -0.288,0.06 -0.097,0.014 -0.195,0.021 -0.293,0.02 l -52.12,0 c -0.098,0 -0.196,-0.007 -0.293,-0.021 -0.097,-0.013 -0.193,-0.033 -0.288,-0.059 -0.094,-0.025 -0.187,-0.057 -0.278,-0.095 -0.09,-0.038 -0.178,-0.082 -0.262,-0.132 -0.085,-0.049 -0.167,-0.103 -0.244,-0.163 -0.078,-0.059 -0.152,-0.124 -0.221,-0.194 -0.069,-0.069 -0.135,-0.143 -0.194,-0.22 -0.06,-0.078 -0.114,-0.16 -0.163,-0.245 -0.05,-0.084 -0.094,-0.172 -0.131,-0.262 -0.038,-0.091 -0.07,-0.184 -0.095,-0.278 -0.027,-0.095 -0.047,-0.191 -0.061,-0.288 -0.014,-0.097 -0.02,-0.195 -0.02,-0.293 l 0,-33.832 c 10e-4,-0.098 0.008,-0.196 0.021,-0.293 0.013,-0.097 0.033,-0.193 0.06,-0.287 0.024,-0.095 0.056,-0.188 0.094,-0.279 0.038,-0.09 0.082,-0.178 0.132,-0.262 0.049,-0.085 0.103,-0.167 0.163,-0.245 0.06,-0.077 0.125,-0.151 0.194,-0.22 0.069,-0.069 0.143,-0.135 0.221,-0.194 0.077,-0.06 0.159,-0.114 0.244,-0.163 0.084,-0.05 0.172,-0.094 0.262,-0.131 0.091,-0.038 0.184,-0.07 0.278,-0.095 0.095,-0.027 0.191,-0.048 0.288,-0.061 0.097,-0.014 0.195,-0.02 0.293,-0.02 l 52.12,0 c 0.098,10e-4 0.196,0.008 0.293,0.021 0.097,0.013 0.193,0.033 0.288,0.06 0.095,0.024 0.188,0.056 0.278,0.094 0.09,0.038 0.178,0.082 0.262,0.132 0.085,0.049 0.167,0.103 0.245,0.163 0.078,0.06 0.151,0.125 0.22,0.194 0.07,0.069 0.135,0.143 0.195,0.22 0.059,0.078 0.114,0.16 0.162,0.245 0.05,0.084 0.094,0.172 0.132,0.263 0.037,0.09 0.069,0.183 0.095,0.278 0.026,0.094 0.047,0.19 0.06,0.287 0.014,0.097 0.021,0.195 0.02,0.293 L 0,0 z"
             style="fill:none;stroke:#000000;stroke-width:0.22145556;stroke-linecap:butt;stroke-linejoin:bevel;stroke-miterlimit:22.9260006;stroke-opacity:1;stroke-dasharray:none"
             id="path7678"
             inkscape:connector-curvature="0" />
          <g
             id="g7680"
             transform="translate(0.037,0)"
             style="stroke:#000000;stroke-width:1.02525723">
            <path
               d="m 0,0 0,-0.018 c -0.001,-0.1 -0.007,-0.199 -0.021,-0.298 -0.013,-0.098 -0.033,-0.196 -0.061,-0.292 -0.025,-0.096 -0.057,-0.191 -0.095,-0.283 -0.039,-0.092 -0.084,-0.181 -0.135,-0.266 -0.049,-0.087 -0.104,-0.17 -0.165,-0.249 -0.061,-0.079 -0.127,-0.153 -0.198,-0.223 -0.07,-0.072 -0.144,-0.138 -0.223,-0.198 C -0.977,-1.888 -1.06,-1.943 -1.147,-1.992 -1.232,-2.043 -1.322,-2.088 -1.414,-2.126 -1.505,-2.165 -1.6,-2.197 -1.696,-2.223 -1.792,-2.25 -1.89,-2.271 -1.989,-2.284 -2.087,-2.298 -2.187,-2.305 -2.286,-2.304 l -52.12,0 c -0.1,0 -0.2,0.007 -0.298,0.021 -0.099,0.013 -0.197,0.033 -0.293,0.06 -0.096,0.025 -0.191,0.057 -0.283,0.096 -0.091,0.039 -0.18,0.084 -0.266,0.135 -0.086,0.049 -0.169,0.104 -0.248,0.165 -0.079,0.061 -0.154,0.127 -0.224,0.198 -0.071,0.069 -0.137,0.144 -0.198,0.223 -0.06,0.079 -0.116,0.162 -0.165,0.249 -0.051,0.085 -0.095,0.175 -0.134,0.266 -0.038,0.092 -0.07,0.187 -0.096,0.283 -0.028,0.096 -0.048,0.194 -0.062,0.293 -0.014,0.098 -0.021,0.197 -0.02,0.297 l 0,33.832 c 10e-4,0.1 0.007,0.199 0.021,0.298 0.013,0.099 0.034,0.196 0.061,0.292 0.025,0.097 0.057,0.191 0.096,0.283 0.038,0.092 0.083,0.181 0.134,0.266 0.049,0.087 0.105,0.17 0.165,0.249 0.061,0.079 0.127,0.154 0.198,0.224 0.07,0.071 0.145,0.137 0.224,0.197 0.079,0.061 0.162,0.117 0.248,0.166 0.086,0.05 0.175,0.095 0.267,0.133 0.092,0.039 0.186,0.071 0.282,0.097 0.096,0.027 0.194,0.048 0.293,0.062 0.098,0.014 0.198,0.02 0.298,0.02 l 52.12,0 c 0.099,-10e-4 0.199,-0.008 0.298,-0.021 0.098,-0.014 0.196,-0.034 0.292,-0.061 0.096,-0.025 0.191,-0.057 0.283,-0.096 0.091,-0.038 0.181,-0.083 0.266,-0.134 0.087,-0.05 0.17,-0.105 0.248,-0.166 0.08,-0.06 0.154,-0.126 0.224,-0.197 0.071,-0.07 0.137,-0.145 0.198,-0.224 0.061,-0.079 0.116,-0.162 0.165,-0.249 0.051,-0.085 0.095,-0.174 0.134,-0.266 0.038,-0.092 0.071,-0.187 0.096,-0.283 0.028,-0.096 0.048,-0.193 0.062,-0.292 C -0.006,34.013 0.001,33.914 0,33.814 L 0,0 z"
               style="fill:none;stroke:#000000;stroke-width:1.38748491;stroke-linecap:butt;stroke-linejoin:bevel;stroke-miterlimit:22.9260006;stroke-opacity:1;stroke-dasharray:none"
               id="path7682"
               inkscape:connector-curvature="0" />
          </g>
        </g>
        <path
           d="m -373.89592,30.614594 0,54.893749 32.75375,0 0,-54.893749 -32.75375,0 z"
           style="fill:#ffffff;fill-opacity:1;fill-rule:nonzero;stroke:none"
           id="path7684"
           inkscape:connector-curvature="0" />
        <g
           id="g7686"
           transform="matrix(0,1.25,1.25,0,-366.57967,81.717093)"
           style="stroke:#000000;stroke-width:1.02525723">
          <path
             d="m 0,0 -10.643,0.058 -15.341,12.565 -7.96,0.162"
             style="fill:none;stroke:#000000;stroke-width:2.05051446;stroke-linecap:butt;stroke-linejoin:miter;stroke-miterlimit:22.9260006;stroke-opacity:1;stroke-dasharray:none"
             id="path7688"
             inkscape:connector-curvature="0" />
        </g>
        <g
           id="g7690"
           transform="matrix(0,1.25,1.25,0,-350.46967,32.917093)"
           style="fill:#000000">
          <path
             d="M 0,0 5.111,-2.686 5.216,2.477 0,0"
             style="fill:#000000;fill-opacity:1;fill-rule:evenodd;stroke:none"
             id="path7692"
             inkscape:connector-curvature="0" />
        </g>
      </g>
    </g>
  </g>
</svg>
