<?xml version="1.0" encoding="UTF-8" standalone="no"?>
<!-- Created with Inkscape (http://www.inkscape.org/) -->

<svg
   xmlns:dc="http://purl.org/dc/elements/1.1/"
   xmlns:cc="http://creativecommons.org/ns#"
   xmlns:rdf="http://www.w3.org/1999/02/22-rdf-syntax-ns#"
   xmlns:svg="http://www.w3.org/2000/svg"
   xmlns="http://www.w3.org/2000/svg"
   xmlns:sodipodi="http://sodipodi.sourceforge.net/DTD/sodipodi-0.dtd"
   xmlns:inkscape="http://www.inkscape.org/namespaces/inkscape"
   width="120"
   height="120"
   id="svg2"
   version="1.1"
   inkscape:version="0.48.2 r9819"
   sodipodi:docname="Notice_A3.svg"
   style="display:inline"
   inkscape:export-filename="/Users/mherring/boatsw/oseam/openseamap/josm/icons/WindSurfing16.png"
   inkscape:export-xdpi="12"
   inkscape:export-ydpi="12">
  <defs
     id="defs4" />
  <sodipodi:namedview
     id="base"
     pagecolor="#ffffff"
     bordercolor="#666666"
     borderopacity="1.0"
     inkscape:pageopacity="0.0"
     inkscape:pageshadow="2"
     inkscape:zoom="7.5"
     inkscape:cx="-4.5333333"
     inkscape:cy="60"
     inkscape:document-units="px"
     inkscape:current-layer="layer5"
     showgrid="true"
     inkscape:window-width="1920"
     inkscape:window-height="1088"
     inkscape:window-x="0"
     inkscape:window-y="0"
     inkscape:window-maximized="1"
     inkscape:snap-global="false">
    <inkscape:grid
       type="xygrid"
       id="grid3004"
       empspacing="5"
       visible="true"
       enabled="true"
       snapvisiblegridlinesonly="true" />
  </sodipodi:namedview>
  <metadata
     id="metadata7">
    <rdf:RDF>
      <cc:Work
         rdf:about="">
        <dc:format>image/svg+xml</dc:format>
        <dc:type
           rdf:resource="http://purl.org/dc/dcmitype/StillImage" />
        <dc:title />
      </cc:Work>
    </rdf:RDF>
  </metadata>
  <g
     inkscape:groupmode="layer"
     id="layer5"
     inkscape:label="A3"
     style="display:inline">
    <g
       transform="translate(122.85711,267.63773)"
       id="layer1-5"
       inkscape:label="Ebene 1">
      <g
         transform="matrix(1.2431832,0,0,1.1243781,15.2858,25.82559)"
         id="g2877">
        <path
           d="m -83.127421,-173.84142 -0.01724,0 c -0.09729,-9.8e-4 -0.194586,-0.007 -0.291879,-0.0209 -0.09606,-0.0123 -0.190892,-0.032 -0.28449,-0.0591 -0.09483,-0.0246 -0.187197,-0.0555 -0.277101,-0.0936 -0.0899,-0.0382 -0.176113,-0.0813 -0.259859,-0.13059 -0.08498,-0.0493 -0.16626,-0.10349 -0.243848,-0.16263 -0.07636,-0.0591 -0.150251,-0.12443 -0.217986,-0.19342 -0.06897,-0.0677 -0.13424,-0.14168 -0.193355,-0.21807 -0.05912,-0.0777 -0.113304,-0.15893 -0.161334,-0.24393 -0.04926,-0.0838 -0.0936,-0.17002 -0.130546,-0.25996 -0.03818,-0.0899 -0.06897,-0.18233 -0.09483,-0.27597 -0.02709,-0.0936 -0.0468,-0.18973 -0.06035,-0.28705 -0.01355,-0.0961 -0.01971,-0.19343 -0.01971,-0.28953 l 0,-63.12299 c 0.0012,-0.0973 0.0074,-0.19466 0.02094,-0.29075 0.01232,-0.0973 0.03202,-0.19219 0.05911,-0.28583 0.02463,-0.0948 0.05542,-0.18726 0.0936,-0.2772 0.03818,-0.0887 0.08128,-0.17618 0.131777,-0.25995 0.04803,-0.0851 0.102219,-0.16509 0.161334,-0.24271 0.05911,-0.0776 0.124387,-0.1503 0.193355,-0.21929 0.06773,-0.069 0.141629,-0.13429 0.217986,-0.19343 0.07759,-0.0591 0.158871,-0.11334 0.243848,-0.16139 0.08375,-0.0493 0.169955,-0.0936 0.259859,-0.13059 0.0899,-0.037 0.182271,-0.069 0.277101,-0.0948 0.0936,-0.0258 0.188428,-0.0468 0.285722,-0.0604 0.09606,-0.0135 0.193354,-0.0197 0.290647,-0.0184 l 40.576173,0 c 0.09729,0 0.194586,0.007 0.290648,0.0197 0.09729,0.0136 0.192123,0.0333 0.285721,0.0591 0.09483,0.0246 0.187197,0.0567 0.27587,0.0936 0.0899,0.0383 0.177344,0.0826 0.26109,0.13183 0.08375,0.048 0.166261,0.10226 0.242617,0.16139 0.07759,0.0604 0.15025,0.12443 0.219218,0.19343 0.06897,0.069 0.133008,0.14168 0.193355,0.21929 0.05911,0.0777 0.113303,0.1577 0.161334,0.24271 0.04926,0.0838 0.09237,0.17125 0.130545,0.25995 0.03695,0.0912 0.06897,0.18357 0.0936,0.2772 0.02709,0.0936 0.0468,0.1885 0.06158,0.28583 0.01355,0.0961 0.01971,0.19342 0.01847,0.29075 l 0,63.12299 c 0,0.0961 -0.0074,0.19343 -0.0197,0.29076 -0.01355,0.0961 -0.03325,0.19219 -0.06035,0.28582 -0.0234,0.0936 -0.05542,0.18604 -0.09237,0.27597 -0.03818,0.09 -0.08251,0.17618 -0.131777,0.25995 -0.04803,0.0851 -0.10222,0.16633 -0.162566,0.24394 -0.05911,0.0764 -0.123156,0.15031 -0.192123,0.21807 -0.06897,0.0702 -0.141629,0.13428 -0.219218,0.19342 -0.07636,0.0591 -0.158871,0.11335 -0.242617,0.16263 -0.08375,0.0481 -0.171187,0.0924 -0.26109,0.13059 -0.0899,0.037 -0.182271,0.0677 -0.27587,0.0936 -0.0936,0.0271 -0.18966,0.0468 -0.285721,0.0604 -0.09606,0.0135 -0.193355,0.0197 -0.290648,0.0197 l -0.01847,0 -40.540458,0 z"
           style="fill:#e72512;fill-opacity:1;fill-rule:evenodd;stroke:none"
           id="path20736"
           inkscape:connector-curvature="0" />
        <path
           d="m -50.980209,-180.20719 -27.88,-48.29125 0,48.29125 27.88,0"
           style="fill:#ffffff;fill-opacity:1;fill-rule:evenodd;stroke:none"
           id="path20740"
           inkscape:connector-curvature="0" />
        <path
           d="m -46.856459,-186.78094 0,-48.29 -27.88,0 27.88,48.29"
           style="fill:#ffffff;fill-opacity:1;fill-rule:evenodd;stroke:none"
           id="path20744"
           inkscape:connector-curvature="0" />
        <path
           d="m -83.980209,-172.25094 42.2675,0 c 0.1225,-10e-4 0.245,-0.009 0.36625,-0.025 0.12125,-0.0175 0.24125,-0.0425 0.36,-0.075 0.1175,-0.0312 0.235,-0.07 0.3475,-0.1175 0.1125,-0.0475 0.2225,-0.10375 0.3275,-0.16625 0.10625,-0.06 0.20875,-0.12875 0.30625,-0.20375 0.09625,-0.075 0.18875,-0.155 0.275,-0.2425 0.0875,-0.0863 0.16875,-0.17875 0.2425,-0.275 0.075,-0.0975 0.1425,-0.19875 0.20375,-0.30625 0.0625,-0.105 0.1175,-0.215 0.16375,-0.3275 0.0475,-0.11375 0.0875,-0.23 0.12,-0.3475 0.0325,-0.11875 0.05875,-0.23875 0.075,-0.36 0.0175,-0.12125 0.02625,-0.24375 0.025,-0.36625 l 0,-65.15 c -0.0012,-0.1225 -0.0087,-0.245 -0.02625,-0.36625 -0.01625,-0.12125 -0.04125,-0.24125 -0.07375,-0.36 -0.03125,-0.1175 -0.07125,-0.23375 -0.11875,-0.3475 -0.0475,-0.1125 -0.1025,-0.2225 -0.165,-0.3275 -0.06125,-0.10625 -0.12875,-0.20875 -0.20375,-0.305 -0.07375,-0.0975 -0.155,-0.19 -0.2425,-0.27625 -0.08625,-0.0863 -0.17875,-0.16875 -0.275,-0.2425 -0.0975,-0.075 -0.2,-0.1425 -0.30625,-0.20375 -0.105,-0.0625 -0.215,-0.1175 -0.3275,-0.16375 -0.11375,-0.0475 -0.23,-0.0875 -0.3475,-0.11875 -0.11875,-0.0337 -0.23875,-0.0588 -0.36,-0.0763 -0.12125,-0.0175 -0.24375,-0.025 -0.36625,-0.025 l -42.29,0 c -0.1225,0.001 -0.245,0.01 -0.36625,0.0263 -0.12125,0.0162 -0.24125,0.0412 -0.35875,0.075 -0.11875,0.03 -0.235,0.07 -0.34875,0.1175 -0.1125,0.0475 -0.2225,0.1025 -0.3275,0.165 -0.10625,0.0613 -0.20875,0.12875 -0.30625,0.20375 -0.09625,0.075 -0.18875,0.15625 -0.275,0.2425 -0.08625,0.0863 -0.16875,0.17875 -0.2425,0.27625 -0.075,0.0962 -0.1425,0.19875 -0.20375,0.305 -0.0625,0.105 -0.1175,0.215 -0.16375,0.3275 -0.0475,0.11375 -0.0875,0.23 -0.11875,0.3475 -0.03375,0.11875 -0.06,0.23875 -0.07625,0.36 -0.0175,0.12125 -0.025,0.24375 -0.025,0.36625 l 0,65.15 c 0.0012,0.1225 0.01,0.245 0.02625,0.36625 0.01625,0.12125 0.04125,0.24125 0.075,0.36 0.03,0.11875 0.07,0.235 0.1175,0.3475 0.0475,0.1125 0.1025,0.2225 0.165,0.3275 0.06125,0.10625 0.12875,0.20875 0.20375,0.30625 0.075,0.0962 0.15625,0.18875 0.2425,0.275 0.08625,0.0875 0.17875,0.16875 0.275,0.24375 0.0975,0.0737 0.2,0.1425 0.30625,0.2025 0.105,0.0625 0.215,0.1175 0.32875,0.165 0.1125,0.0463 0.22875,0.0863 0.3475,0.11875 0.1175,0.0325 0.2375,0.0588 0.35875,0.075 0.12125,0.0175 0.24375,0.0263 0.36625,0.025 l 0.0225,0 z"
           style="fill:none;stroke:#231f20;stroke-width:0.27000001;stroke-linecap:butt;stroke-linejoin:bevel;stroke-miterlimit:22.9260006;stroke-opacity:1;stroke-dasharray:none"
           id="path20748"
           inkscape:connector-curvature="0" />
        <path
           id="path20752"
           style="fill:none;stroke:#000000;stroke-width:1.69163334;stroke-linecap:butt;stroke-linejoin:bevel;stroke-miterlimit:22.9260006;stroke-opacity:1;stroke-dasharray:none"
           d="m -83.980209,-172.20469 -0.0225,0 c -0.125,-0.001 -0.24875,-0.009 -0.3725,-0.0263 -0.1225,-0.0162 -0.245,-0.0412 -0.365,-0.0762 -0.12,-0.0312 -0.23875,-0.0713 -0.35375,-0.11875 -0.115,-0.0488 -0.22625,-0.105 -0.3325,-0.16875 -0.10875,-0.0612 -0.2125,-0.13 -0.31125,-0.20625 -0.09875,-0.0763 -0.19125,-0.15875 -0.27875,-0.2475 -0.09,-0.0875 -0.1725,-0.18125 -0.2475,-0.27875 -0.07625,-0.0987 -0.145,-0.2025 -0.20625,-0.31125 -0.06375,-0.1075 -0.12,-0.21875 -0.1675,-0.33375 -0.04875,-0.11375 -0.08875,-0.2325 -0.12125,-0.3525 -0.03375,-0.12 -0.06,-0.2425 -0.07625,-0.36625 -0.0175,-0.1225 -0.02625,-0.2475 -0.025,-0.37125 l 0,-65.15 c 0,-0.125 0.0087,-0.25 0.02625,-0.3725 0.01625,-0.12375 0.04125,-0.24625 0.075,-0.36625 0.03125,-0.12 0.07125,-0.23875 0.12,-0.35375 0.04875,-0.11375 0.10375,-0.225 0.16875,-0.3325 0.06125,-0.1075 0.13,-0.21125 0.20625,-0.31 0.07625,-0.0987 0.15875,-0.1925 0.2475,-0.28 0.08625,-0.0888 0.18,-0.17125 0.27875,-0.2475 0.09875,-0.0762 0.2025,-0.145 0.31125,-0.20625 0.10625,-0.0637 0.2175,-0.11875 0.3325,-0.1675 0.115,-0.0475 0.23375,-0.0875 0.35375,-0.12 0.12,-0.035 0.2425,-0.06 0.36625,-0.0775 0.1225,-0.0175 0.24625,-0.0263 0.37125,-0.025 l 42.29,0 c 0.125,0.001 0.24875,0.009 0.3725,0.0263 0.1225,0.0163 0.245,0.0412 0.365,0.0763 0.12125,0.0312 0.23875,0.0712 0.35375,0.11875 0.115,0.0488 0.22625,0.105 0.3325,0.16875 0.10875,0.0613 0.2125,0.13 0.31125,0.20625 0.09875,0.0763 0.1925,0.15875 0.28,0.2475 0.08875,0.0875 0.17125,0.18125 0.24625,0.28 0.07625,0.0987 0.145,0.2025 0.2075,0.31 0.0625,0.1075 0.11875,0.21875 0.16625,0.33375 0.04875,0.115 0.08875,0.2325 0.12125,0.3525 0.03375,0.12 0.06,0.2425 0.0775,0.36625 0.0175,0.1225 0.025,0.2475 0.025,0.3725 l 0,65.15 c -0.0013,0.12375 -0.01,0.24875 -0.02625,0.37125 -0.0175,0.12375 -0.0425,0.24625 -0.07625,0.36625 -0.03125,0.12 -0.07125,0.23875 -0.12,0.35375 -0.0475,0.11375 -0.10375,0.225 -0.1675,0.3325 -0.0625,0.10875 -0.13125,0.2125 -0.2075,0.31 -0.075,0.0987 -0.1575,0.1925 -0.24625,0.28 -0.0875,0.0888 -0.18125,0.17125 -0.28,0.2475 -0.09875,0.0762 -0.2025,0.145 -0.31125,0.20625 -0.10625,0.0638 -0.2175,0.11875 -0.3325,0.1675 -0.115,0.0475 -0.23375,0.0888 -0.35375,0.12 -0.12,0.035 -0.2425,0.06 -0.365,0.0775 -0.12375,0.0175 -0.2475,0.0263 -0.3725,0.025 l -42.2675,0 z"
           inkscape:connector-curvature="0" />
        <path
           d="m -70.195209,-195.65469 -0.0175,0 0.0088,-0.003 0.0087,0.003 z"
           style="fill:#a7a9ac;fill-opacity:1;fill-rule:evenodd;stroke:#231f20;stroke-width:0.27000001;stroke-linecap:butt;stroke-linejoin:bevel;stroke-miterlimit:22.9260006;stroke-opacity:1;stroke-dasharray:none"
           id="path20756"
           inkscape:connector-curvature="0" />
        <path
           d="m -55.563959,-219.29719 -0.0175,0 0.0087,-0.002 0.0088,0.002 z"
           style="fill:#a7a9ac;fill-opacity:1;fill-rule:evenodd;stroke:#231f20;stroke-width:0.27000001;stroke-linecap:butt;stroke-linejoin:bevel;stroke-miterlimit:22.9260006;stroke-opacity:1;stroke-dasharray:none"
           id="path20760"
           inkscape:connector-curvature="0" />
        <path
           d="m -52.568959,-227.20969 2.37,0.375 0.01375,0.002 c 0.02,0.002 0.04,0.005 0.06125,0.007 0.02,0.001 0.04125,0.002 0.0625,0.002 0.025,0 0.05125,0 0.07625,-0.001 0.025,-0.001 0.05125,-0.005 0.07625,-0.009 0.025,-0.002 0.04875,-0.007 0.07375,-0.0125 0.02375,-0.006 0.04625,-0.0125 0.07,-0.02 0.0225,-0.006 0.04375,-0.015 0.065,-0.0238 0.02,-0.009 0.04,-0.0188 0.05875,-0.0288 0.01875,-0.01 0.03625,-0.0213 0.0525,-0.0337 0.01625,-0.0112 0.03125,-0.0238 0.04375,-0.0375 0.01375,-0.0125 0.02625,-0.0263 0.03625,-0.04 0.01125,-0.0138 0.02,-0.0275 0.02625,-0.0425 0.0075,-0.0137 0.01375,-0.0288 0.0175,-0.0437 0.0038,-0.015 0.0063,-0.03 0.0075,-0.045 0,-0.015 0,-0.03 -0.0037,-0.0462 -0.0025,-0.0138 -0.0063,-0.03 -0.0125,-0.0438 -0.0063,-0.015 -0.01375,-0.03 -0.0225,-0.0437 -0.0087,-0.015 -0.02,-0.0288 -0.0325,-0.0412 l -0.0075,-0.008 -4.21,-4.30625 -4.17125,4.30625 -0.0063,0.006 c -0.01,0.0113 -0.01875,0.0225 -0.0275,0.0337 -0.0075,0.0113 -0.01375,0.0225 -0.02,0.0337 -0.0075,0.015 -0.0125,0.03 -0.01625,0.045 -0.005,0.015 -0.0063,0.03 -0.0075,0.045 0,0.015 0.0012,0.03 0.0038,0.045 0.0025,0.015 0.0075,0.03 0.01375,0.045 0.005,0.015 0.0125,0.0288 0.0225,0.0438 0.0088,0.0137 0.02,0.0275 0.0325,0.0412 0.0125,0.0125 0.02625,0.0263 0.04125,0.0375 0.015,0.0125 0.03125,0.0238 0.04875,0.035 0.01875,0.0113 0.0375,0.0213 0.0575,0.0312 0.02,0.009 0.04,0.0188 0.0625,0.0263 0.0225,0.007 0.045,0.015 0.06875,0.0213 0.0225,0.006 0.0475,0.0112 0.0725,0.015 0.02375,0.004 0.04875,0.007 0.075,0.01 0.025,0.003 0.05,0.004 0.07625,0.004 0.02625,0.001 0.05125,0 0.0775,-0.001 0.025,-0.001 0.05,-0.005 0.075,-0.009 l 0.0075,-0.001 0.0075,-0.001 2.33,-0.3725 0,13.09125 0,0.009 0,0.009 c 0.0012,0.0312 0.0063,0.0613 0.01375,0.0913 0.0087,0.03 0.02,0.0588 0.035,0.0888 0.01375,0.0288 0.03125,0.0575 0.0525,0.085 0.02,0.0275 0.045,0.055 0.0725,0.08 0.02625,0.0263 0.05625,0.0513 0.0875,0.075 0.0325,0.0237 0.0675,0.045 0.105,0.0662 0.0375,0.0212 0.0775,0.04 0.11875,0.0588 0.04125,0.0175 0.085,0.0337 0.13,0.0475 0.045,0.015 0.09125,0.0275 0.14,0.0387 0.0475,0.01 0.0975,0.0188 0.1475,0.0263 0.03875,0.006 0.0775,0.01 0.11625,0.0138 0.04,0.002 0.07875,0.005 0.11875,0.005 l 0.01375,0 0.045,0 c 0.05125,0 0.1025,-0.002 0.15375,-0.006 0.05125,-0.005 0.10125,-0.0112 0.15,-0.02 0.05,-0.007 0.09875,-0.0175 0.145,-0.03 0.0475,-0.0125 0.09375,-0.0263 0.1375,-0.0425 0.04375,-0.015 0.08625,-0.0325 0.12625,-0.0512 0.04,-0.0188 0.07875,-0.0388 0.11375,-0.0613 0.03625,-0.0213 0.07,-0.045 0.1,-0.0688 0.03125,-0.025 0.05875,-0.05 0.08375,-0.0762 0.025,-0.0263 0.04625,-0.0538 0.06625,-0.0825 0.01875,-0.0288 0.03375,-0.0575 0.04625,-0.0862 0.01,-0.025 0.01875,-0.05 0.025,-0.0763 0.0063,-0.025 0.0087,-0.05 0.01,-0.0762 l 0,-0.0163 0,-13.0925 z"
           style="fill:#000000;fill-opacity:1;fill-rule:evenodd;stroke:#000000;stroke-width:0.27000001;stroke-linecap:butt;stroke-linejoin:bevel;stroke-miterlimit:22.9260006;stroke-opacity:1;stroke-dasharray:none"
           id="path20764"
           inkscape:connector-curvature="0" />
        <path
           d="m -52.600209,-220.54969 2.37,0.375 0.01375,0.002 c 0.02,0.002 0.04,0.005 0.06125,0.007 0.02,0.001 0.04125,0.002 0.06125,0.002 0.02625,0 0.0525,0 0.0775,-0.001 0.025,-0.001 0.05125,-0.005 0.07625,-0.009 0.025,-0.002 0.04875,-0.007 0.07375,-0.0125 0.02375,-0.006 0.04625,-0.0125 0.07,-0.02 0.0225,-0.006 0.04375,-0.015 0.065,-0.0238 0.02,-0.009 0.04,-0.0187 0.05875,-0.0288 0.01875,-0.01 0.03625,-0.0212 0.0525,-0.0337 0.01625,-0.0112 0.03125,-0.0238 0.04375,-0.0375 0.01375,-0.0125 0.02625,-0.0263 0.03625,-0.04 0.01,-0.0138 0.02,-0.0275 0.02625,-0.0425 0.0075,-0.0137 0.01375,-0.0288 0.0175,-0.0437 0.0038,-0.015 0.0063,-0.03 0.0075,-0.045 0,-0.015 0,-0.03 -0.0037,-0.0462 -0.0025,-0.015 -0.0063,-0.03 -0.0125,-0.0437 -0.0063,-0.015 -0.01375,-0.03 -0.0225,-0.0438 -0.0087,-0.015 -0.02,-0.0288 -0.0325,-0.0412 l -0.0037,-0.004 -0.0038,-0.004 -4.21,-4.30625 -4.17125,4.30625 -0.0063,0.006 c -0.01,0.0113 -0.01875,0.0225 -0.0275,0.0337 -0.0075,0.0113 -0.01375,0.0225 -0.02,0.0337 -0.0075,0.015 -0.0125,0.03 -0.01625,0.045 -0.005,0.015 -0.0063,0.03 -0.0075,0.045 0,0.015 0.0012,0.03 0.0038,0.045 0.0025,0.015 0.0075,0.03 0.01375,0.045 0.005,0.015 0.0125,0.0288 0.0225,0.0438 0.0088,0.0137 0.02,0.0275 0.0325,0.0412 0.0125,0.0125 0.02625,0.0263 0.04125,0.0375 0.015,0.0125 0.03125,0.0238 0.04875,0.035 0.01875,0.0113 0.0375,0.0213 0.05625,0.0312 0.02125,0.009 0.04125,0.0175 0.06375,0.0263 0.0225,0.007 0.045,0.015 0.06875,0.0213 0.0225,0.006 0.0475,0.0112 0.07125,0.015 0.025,0.004 0.05,0.008 0.07625,0.01 0.025,0.002 0.05,0.004 0.07625,0.004 0.025,0.001 0.05125,0 0.0775,-0.001 0.025,-0.001 0.05,-0.005 0.075,-0.009 l 0.0075,-0.001 0.0075,-0.001 2.33,-0.3725 0,13.09125 0,0.009 0,0.009 c 0.0012,0.0312 0.0063,0.0613 0.01375,0.0913 0.0075,0.03 0.02,0.0588 0.035,0.0888 0.01375,0.0288 0.03125,0.0575 0.0525,0.085 0.02,0.0275 0.045,0.055 0.0725,0.08 0.02625,0.0263 0.05625,0.0513 0.0875,0.075 0.0325,0.0225 0.0675,0.045 0.105,0.0662 0.0375,0.0212 0.0775,0.04 0.11875,0.0588 0.04125,0.0175 0.085,0.0325 0.13,0.0475 0.045,0.015 0.09125,0.0275 0.14,0.0387 0.0475,0.01 0.0975,0.0188 0.1475,0.0263 0.03875,0.006 0.0775,0.01 0.11625,0.0138 0.04,0.002 0.07875,0.005 0.11875,0.005 l 0.01375,0 0.045,0 c 0.05125,0 0.1025,-0.002 0.15375,-0.006 0.05,-0.005 0.10125,-0.0112 0.15,-0.02 0.05,-0.008 0.09875,-0.0175 0.145,-0.03 0.0475,-0.0125 0.09375,-0.0263 0.13625,-0.0425 0.045,-0.015 0.0875,-0.0325 0.1275,-0.0512 0.04,-0.0188 0.07875,-0.0388 0.11375,-0.0613 0.03625,-0.0213 0.07,-0.045 0.1,-0.0688 0.03125,-0.025 0.05875,-0.05 0.08375,-0.0762 0.025,-0.0263 0.04625,-0.0538 0.06625,-0.0825 0.01875,-0.0288 0.03375,-0.0575 0.04625,-0.0862 0.01,-0.025 0.01875,-0.05 0.025,-0.0763 0.0063,-0.025 0.0087,-0.05 0.01,-0.0762 l 0,-0.0163 0,-13.0925 z"
           style="fill:#000000;fill-opacity:1;fill-rule:evenodd;stroke:#000000;stroke-width:0.27000001;stroke-linecap:butt;stroke-linejoin:bevel;stroke-miterlimit:22.9260006;stroke-opacity:1;stroke-dasharray:none"
           id="path20768"
           inkscape:connector-curvature="0" />
        <path
           d="m -74.232709,-196.09094 -0.0175,0 0.0087,-0.002 0.0088,0.002 z"
           style="fill:#a7a9ac;fill-opacity:1;fill-rule:evenodd;stroke:#231f20;stroke-width:0.27000001;stroke-linecap:butt;stroke-linejoin:bevel;stroke-miterlimit:22.9260006;stroke-opacity:1;stroke-dasharray:none"
           id="path20772"
           inkscape:connector-curvature="0" />
        <path
           d="m -71.236459,-204.00344 2.37,0.375 0.01375,0.002 c 0.02,0.003 0.04,0.005 0.06125,0.008 0.02,0.001 0.04125,0.002 0.0625,0.002 0.025,0 0.05125,0 0.07625,-10e-4 0.025,-0.001 0.05125,-0.005 0.07625,-0.009 0.025,-0.002 0.04875,-0.007 0.07375,-0.0125 0.02375,-0.006 0.04625,-0.0125 0.06875,-0.02 0.02375,-0.006 0.045,-0.015 0.06625,-0.0237 0.02,-0.009 0.04,-0.0188 0.05875,-0.0288 0.01875,-0.01 0.03625,-0.0213 0.0525,-0.0337 0.01625,-0.0113 0.03125,-0.0238 0.04375,-0.0375 0.01375,-0.0125 0.02625,-0.0262 0.03625,-0.04 0.01,-0.0137 0.02,-0.0275 0.02625,-0.0425 0.0075,-0.0138 0.01375,-0.0288 0.0175,-0.0438 0.0038,-0.015 0.0063,-0.03 0.0075,-0.045 0,-0.015 0,-0.03 -0.0038,-0.0463 -0.0025,-0.0137 -0.0063,-0.03 -0.0125,-0.0437 -0.0063,-0.015 -0.01375,-0.03 -0.0225,-0.0437 -0.0087,-0.0138 -0.02,-0.0288 -0.0325,-0.0413 l -0.0038,-0.004 -0.0038,-0.004 -4.21,-4.30625 -4.17125,4.30625 -0.0062,0.006 c -0.01,0.0112 -0.01875,0.0225 -0.0275,0.0337 -0.0075,0.0112 -0.01375,0.0225 -0.02,0.0337 -0.0075,0.015 -0.0125,0.03 -0.01625,0.045 -0.005,0.015 -0.0062,0.03 -0.0075,0.045 0,0.015 0.0012,0.03 0.0037,0.045 0.0025,0.015 0.0063,0.03 0.01375,0.045 0.005,0.015 0.0125,0.0288 0.0225,0.0437 0.0087,0.0137 0.02,0.0275 0.0325,0.0412 0.0125,0.0125 0.02625,0.0263 0.04125,0.0375 0.015,0.0125 0.03125,0.0237 0.04875,0.035 0.01875,0.0112 0.0375,0.0212 0.05625,0.0312 0.02125,0.009 0.04125,0.0175 0.06375,0.0263 0.0225,0.007 0.045,0.015 0.06875,0.0212 0.0225,0.006 0.0475,0.01 0.07125,0.015 0.025,0.004 0.05,0.007 0.07625,0.01 0.025,0.002 0.05,0.004 0.07625,0.004 0.025,0.001 0.05125,0 0.0775,-0.001 0.025,-0.001 0.05,-0.005 0.075,-0.009 l 0.0075,-10e-4 0.0075,-0.001 2.33,-0.3725 0,13.09125 0,0.009 0,0.009 c 0.0012,0.0312 0.0062,0.0613 0.01375,0.0913 0.0087,0.03 0.02,0.0587 0.035,0.0887 0.01375,0.0288 0.03125,0.0575 0.0525,0.085 0.02,0.0275 0.045,0.055 0.0725,0.08 0.02625,0.0262 0.05625,0.0512 0.0875,0.075 0.0325,0.0238 0.0675,0.045 0.105,0.0662 0.0375,0.0213 0.0775,0.04 0.11875,0.0588 0.04125,0.0175 0.085,0.0337 0.13,0.0475 0.045,0.015 0.09125,0.0275 0.14,0.0387 0.0475,0.01 0.0975,0.0187 0.1475,0.0263 0.03875,0.006 0.0775,0.01 0.11625,0.0137 0.04,0.002 0.07875,0.005 0.11875,0.005 l 0.01375,0 0.045,0 c 0.05125,0 0.1025,-0.002 0.15375,-0.006 0.05,-0.005 0.10125,-0.0113 0.15,-0.02 0.05,-0.007 0.09875,-0.0175 0.145,-0.03 0.0475,-0.0125 0.09375,-0.0263 0.13625,-0.0425 0.045,-0.015 0.0875,-0.0325 0.1275,-0.0513 0.04,-0.0188 0.07875,-0.0387 0.11375,-0.0613 0.03625,-0.0213 0.07,-0.045 0.1,-0.0687 0.03125,-0.025 0.05875,-0.05 0.08375,-0.0763 0.025,-0.0262 0.04625,-0.0537 0.06625,-0.0825 0.01875,-0.0288 0.03375,-0.0575 0.04625,-0.0863 0.01,-0.025 0.01875,-0.05 0.025,-0.0762 0.0062,-0.025 0.0087,-0.05 0.01,-0.0763 l 0,-0.0162 0,-13.0925 z"
           style="fill:#000000;fill-opacity:1;fill-rule:evenodd;stroke:#000000;stroke-width:0.27000001;stroke-linecap:butt;stroke-linejoin:bevel;stroke-miterlimit:22.9260006;stroke-opacity:1;stroke-dasharray:none"
           id="path20776"
           inkscape:connector-curvature="0" />
        <path
           d="m -71.267709,-197.34344 2.37,0.375 0.01375,0.002 c 0.02,0.004 0.04,0.005 0.06125,0.007 0.02,0.001 0.04125,0.002 0.0625,0.002 0.025,0 0.05125,0 0.07625,-0.001 0.025,-0.001 0.05125,-0.005 0.07625,-0.009 0.025,-0.002 0.04875,-0.008 0.07375,-0.0125 0.02375,-0.006 0.04625,-0.0125 0.06875,-0.02 0.02375,-0.006 0.045,-0.015 0.06625,-0.0238 0.02,-0.009 0.04,-0.0188 0.05875,-0.0288 0.01875,-0.01 0.03625,-0.0213 0.0525,-0.0337 0.01625,-0.0113 0.03125,-0.0238 0.04375,-0.0375 0.01375,-0.0125 0.02625,-0.0263 0.03625,-0.04 0.01125,-0.0137 0.02,-0.0275 0.02625,-0.0425 0.0075,-0.0137 0.01375,-0.0288 0.0175,-0.0437 0.0038,-0.015 0.0063,-0.03 0.0075,-0.045 0,-0.015 0,-0.03 -0.0038,-0.0462 -0.0025,-0.0138 -0.0063,-0.03 -0.0125,-0.0438 -0.0063,-0.015 -0.01375,-0.03 -0.0225,-0.0437 -0.0087,-0.0138 -0.02,-0.0288 -0.0325,-0.0412 l -0.0038,-0.004 -0.0038,-0.004 -4.21,-4.30625 -4.17125,4.30625 -0.0062,0.006 c -0.01,0.0112 -0.01875,0.0225 -0.0275,0.0337 -0.0075,0.0112 -0.01375,0.0225 -0.02,0.0337 -0.0075,0.015 -0.0125,0.03 -0.01625,0.045 -0.005,0.015 -0.0062,0.03 -0.0075,0.045 0,0.015 0.0012,0.03 0.0037,0.045 0.0025,0.015 0.0075,0.03 0.01375,0.045 0.005,0.015 0.0125,0.0288 0.0225,0.0437 0.0087,0.0138 0.02,0.0275 0.0325,0.0413 0.0125,0.0125 0.02625,0.0262 0.04125,0.0375 0.015,0.0125 0.03125,0.0238 0.04875,0.035 0.01875,0.0112 0.0375,0.0213 0.0575,0.0312 0.02,0.009 0.04,0.0187 0.0625,0.0263 0.0225,0.007 0.045,0.015 0.06875,0.0212 0.0225,0.006 0.0475,0.0113 0.07125,0.015 0.025,0.004 0.05,0.007 0.07625,0.01 0.025,0.002 0.05,0.004 0.07625,0.004 0.025,0.001 0.05125,0 0.0775,-0.001 0.025,-0.001 0.05,-0.004 0.075,-0.009 l 0.0075,-10e-4 0.0075,-0.001 2.33,-0.3725 0,13.09125 0,0.009 0,0.009 c 0.0012,0.0312 0.0062,0.0613 0.01375,0.0913 0.0087,0.03 0.02,0.0588 0.035,0.0888 0.01375,0.0288 0.03125,0.0575 0.0525,0.085 0.02,0.0275 0.045,0.055 0.0725,0.08 0.02625,0.0263 0.05625,0.0513 0.0875,0.075 0.0325,0.0238 0.0675,0.045 0.105,0.0663 0.0375,0.0212 0.0775,0.04 0.11875,0.0587 0.04125,0.0175 0.085,0.0337 0.13,0.0475 0.045,0.015 0.09125,0.0275 0.14,0.0387 0.0475,0.01 0.0975,0.0188 0.1475,0.0263 0.03875,0.006 0.0775,0.01 0.11625,0.0137 0.04,0.003 0.07875,0.005 0.11875,0.005 l 0.01375,0 0.045,0 c 0.05125,0 0.1025,-0.002 0.15375,-0.006 0.05,-0.005 0.10125,-0.0112 0.15,-0.02 0.05,-0.007 0.09875,-0.0175 0.145,-0.03 0.0475,-0.0125 0.09375,-0.0263 0.13625,-0.0425 0.045,-0.015 0.0875,-0.0325 0.1275,-0.0513 0.04,-0.0187 0.07875,-0.0387 0.11375,-0.0613 0.03625,-0.0212 0.07,-0.045 0.1,-0.0687 0.03125,-0.025 0.05875,-0.05 0.08375,-0.0762 0.025,-0.0263 0.04625,-0.0538 0.06625,-0.0825 0.01875,-0.0288 0.03375,-0.0575 0.04625,-0.0863 0.01,-0.025 0.01875,-0.05 0.025,-0.0762 0.0062,-0.025 0.0087,-0.05 0.01,-0.0763 l 0,-0.0162 0,-13.0925 z"
           style="fill:#000000;fill-opacity:1;fill-rule:evenodd;stroke:#000000;stroke-width:0.27000001;stroke-linecap:butt;stroke-linejoin:bevel;stroke-miterlimit:22.9260006;stroke-opacity:1;stroke-dasharray:none"
           id="path20780"
           inkscape:connector-curvature="0" />
      </g>
    </g>
  </g>
</svg>
