<?xml version="1.0" encoding="UTF-8" standalone="no"?>
<!-- Created with Inkscape (http://www.inkscape.org/) -->

<svg
   xmlns:dc="http://purl.org/dc/elements/1.1/"
   xmlns:cc="http://creativecommons.org/ns#"
   xmlns:rdf="http://www.w3.org/1999/02/22-rdf-syntax-ns#"
   xmlns:svg="http://www.w3.org/2000/svg"
   xmlns="http://www.w3.org/2000/svg"
   xmlns:sodipodi="http://sodipodi.sourceforge.net/DTD/sodipodi-0.dtd"
   xmlns:inkscape="http://www.inkscape.org/namespaces/inkscape"
   width="60"
   height="80"
   id="svg2"
   version="1.1"
   inkscape:version="0.48.2 r9819"
   sodipodi:docname="Notice_A6.svg"
   style="display:inline"
   inkscape:export-filename="/Users/mherring/boatsw/oseam/openseamap/josm/icons/WindSurfing16.png"
   inkscape:export-xdpi="12"
   inkscape:export-ydpi="12">
  <defs
     id="defs4" />
  <sodipodi:namedview
     id="base"
     pagecolor="#ffffff"
     bordercolor="#666666"
     borderopacity="1.0"
     inkscape:pageopacity="0.0"
     inkscape:pageshadow="2"
     inkscape:zoom="7.5"
     inkscape:cx="-4.5333333"
     inkscape:cy="60"
     inkscape:document-units="px"
     inkscape:current-layer="layer10"
     showgrid="true"
     inkscape:window-width="1920"
     inkscape:window-height="1088"
     inkscape:window-x="0"
     inkscape:window-y="0"
     inkscape:window-maximized="0"
     inkscape:snap-global="false">
    <inkscape:grid
       type="xygrid"
       id="grid3004"
       empspacing="5"
       visible="true"
       enabled="true"
       snapvisiblegridlinesonly="true" />
  </sodipodi:namedview>
  <metadata
     id="metadata7">
    <rdf:RDF>
      <cc:Work
         rdf:about="">
        <dc:format>image/svg+xml</dc:format>
        <dc:type
           rdf:resource="http://purl.org/dc/dcmitype/StillImage" />
        <dc:title />
      </cc:Work>
    </rdf:RDF>
  </metadata>
  <g
     inkscape:groupmode="layer"
     id="layer10"
     inkscape:label="A6"
     style="display:inline"
     transform="translate(0,-40)">
    <g
       id="g6762"
       transform="matrix(0.9718394,0,0,0.97890548,-28.310296,21.265691)">
      <g
         inkscape:label="Ebene 1"
         id="layer1-6"
         transform="translate(-289.99998,-472.36227)">
        <g
           id="g2927"
           transform="matrix(1.2431816,0,0,1.1243781,-85.113578,-66.214202)">
          <path
             inkscape:connector-curvature="0"
             id="path20102"
             style="fill:#e72512;fill-opacity:1;fill-rule:evenodd;stroke:none"
             d="m 329.72966,566.15858 -0.0172,0 c -0.0972,0 -0.19458,-0.008 -0.29065,-0.0197 -0.0972,-0.0136 -0.19212,-0.0333 -0.28572,-0.0604 -0.0948,-0.0234 -0.1872,-0.0554 -0.2771,-0.0936 -0.0899,-0.037 -0.17611,-0.0813 -0.25986,-0.13059 -0.085,-0.0493 -0.16626,-0.10226 -0.24262,-0.16263 -0.0776,-0.0591 -0.15148,-0.1232 -0.21921,-0.19219 -0.069,-0.069 -0.13424,-0.14168 -0.19336,-0.2193 -0.0591,-0.0777 -0.1133,-0.15892 -0.16133,-0.2427 -0.0493,-0.0838 -0.0936,-0.17125 -0.13055,-0.26119 -0.0381,-0.0899 -0.069,-0.18233 -0.0948,-0.27596 -0.0271,-0.0936 -0.0468,-0.18973 -0.0604,-0.28583 -0.0135,-0.0973 -0.0197,-0.19342 -0.0197,-0.29075 l 0,-63.12293 c 9.9e-4,-0.0973 0.007,-0.19342 0.021,-0.29075 0.0135,-0.0961 0.0332,-0.19219 0.0591,-0.28583 0.0246,-0.0936 0.0554,-0.18603 0.0936,-0.27597 0.0381,-0.09 0.0813,-0.1774 0.13178,-0.26118 0.048,-0.0838 0.10222,-0.16509 0.16133,-0.24271 0.0591,-0.0777 0.12439,-0.1503 0.19336,-0.21929 0.0677,-0.069 0.14162,-0.13306 0.21921,-0.19343 0.0764,-0.0591 0.15764,-0.11334 0.24262,-0.16139 0.0838,-0.0493 0.16996,-0.0924 0.25986,-0.13059 0.09,-0.037 0.18227,-0.069 0.2771,-0.0936 0.0936,-0.0271 0.18843,-0.0468 0.28572,-0.0603 0.0961,-0.0136 0.19336,-0.021 0.29065,-0.0197 l 40.57622,0 c 0.0972,0 0.19458,0.008 0.29064,0.0197 0.0972,0.0135 0.19213,0.0332 0.28573,0.0603 0.0948,0.0234 0.18719,0.0555 0.2771,0.0936 0.0899,0.037 0.17611,0.0813 0.25986,0.13059 0.0837,0.0493 0.16626,0.10226 0.24261,0.16263 0.0775,0.0591 0.15025,0.1232 0.21922,0.19219 0.069,0.069 0.13424,0.14168 0.19336,0.21929 0.0591,0.0777 0.1133,0.15893 0.16133,0.24271 0.0493,0.0838 0.0923,0.17125 0.13055,0.26118 0.0381,0.09 0.069,0.18234 0.0948,0.27597 0.0259,0.0936 0.0468,0.18973 0.0604,0.28583 0.0135,0.0973 0.0197,0.19342 0.0184,0.29075 l 0,63.12293 c 0,0.0973 -0.007,0.19342 -0.0197,0.29075 -0.0136,0.0961 -0.0332,0.19219 -0.0591,0.28583 -0.0246,0.0936 -0.0566,0.18726 -0.0936,0.27596 -0.0381,0.09 -0.0826,0.17741 -0.13178,0.26119 -0.048,0.0838 -0.10222,0.16509 -0.16256,0.2427 -0.0591,0.0777 -0.12316,0.15031 -0.19213,0.2193 -0.069,0.069 -0.14163,0.13306 -0.21922,0.19343 -0.0763,0.0591 -0.15763,0.11211 -0.24261,0.16139 -0.0838,0.0493 -0.17119,0.0924 -0.26109,0.13059 -0.0887,0.037 -0.18227,0.069 -0.27587,0.0936 -0.0936,0.0271 -0.18966,0.0468 -0.28572,0.0604 -0.0961,0.0135 -0.19336,0.021 -0.29065,0.0197 l -40.55898,0 z" />
          <path
             inkscape:connector-curvature="0"
             id="path20106"
             style="fill:#ffffff;fill-opacity:1;fill-rule:evenodd;stroke:none"
             d="m 361.87818,559.79406 -27.88,-48.29 0,48.29 27.88,0" />
          <path
             inkscape:connector-curvature="0"
             id="path20110"
             style="fill:#ffffff;fill-opacity:1;fill-rule:evenodd;stroke:none"
             d="m 366.00193,553.21906 0,-48.29 -27.88,0 27.88,48.29" />
          <path
             inkscape:connector-curvature="0"
             id="path20114"
             style="fill:none;stroke:#231f20;stroke-width:0.27681914;stroke-linecap:butt;stroke-linejoin:bevel;stroke-miterlimit:22.9260006;stroke-opacity:1;stroke-dasharray:none"
             d="m 328.87693,567.74906 42.2675,0 c 0.1225,-10e-4 0.245,-0.009 0.36625,-0.025 0.12125,-0.0175 0.24125,-0.0425 0.36,-0.075 0.11875,-0.0312 0.235,-0.07 0.3475,-0.1175 0.1125,-0.0475 0.2225,-0.10375 0.3275,-0.16625 0.10625,-0.06 0.20875,-0.12875 0.30625,-0.20375 0.0962,-0.075 0.18875,-0.155 0.275,-0.2425 0.0875,-0.0862 0.16875,-0.1775 0.2425,-0.275 0.075,-0.0975 0.14375,-0.19875 0.20375,-0.30625 0.0625,-0.105 0.1175,-0.215 0.16375,-0.3275 0.0475,-0.11375 0.0875,-0.23 0.12,-0.3475 0.0325,-0.11875 0.0588,-0.23875 0.075,-0.36 0.0175,-0.12125 0.0263,-0.24375 0.025,-0.36625 l 0,-65.15 c 0,-0.1225 -0.009,-0.24375 -0.025,-0.36625 -0.0175,-0.12125 -0.0425,-0.24125 -0.075,-0.35875 -0.0312,-0.11875 -0.0712,-0.235 -0.11875,-0.34875 -0.0462,-0.1125 -0.1025,-0.2225 -0.165,-0.3275 -0.0612,-0.10625 -0.12875,-0.20875 -0.20375,-0.305 -0.0738,-0.0975 -0.155,-0.19 -0.2425,-0.27625 -0.0863,-0.0863 -0.17875,-0.1675 -0.275,-0.2425 -0.0975,-0.075 -0.2,-0.1425 -0.30625,-0.20375 -0.105,-0.0625 -0.215,-0.1175 -0.3275,-0.16375 -0.11375,-0.0475 -0.23,-0.0875 -0.3475,-0.11875 -0.11875,-0.0337 -0.23875,-0.0587 -0.36,-0.0763 -0.12125,-0.0175 -0.24375,-0.025 -0.36625,-0.025 l -42.29,0 c -0.1225,10e-4 -0.24375,0.01 -0.36625,0.0263 -0.12125,0.0163 -0.24125,0.0412 -0.35875,0.075 -0.11875,0.03 -0.235,0.07 -0.34875,0.1175 -0.1125,0.0475 -0.2225,0.1025 -0.3275,0.165 -0.10625,0.0613 -0.20875,0.12875 -0.305,0.20375 -0.0975,0.075 -0.19,0.15625 -0.27625,0.2425 -0.0863,0.0863 -0.1675,0.17875 -0.2425,0.27625 -0.075,0.0962 -0.1425,0.19875 -0.20375,0.305 -0.0625,0.105 -0.1175,0.215 -0.16375,0.3275 -0.0475,0.11375 -0.0875,0.23 -0.11875,0.34875 -0.0337,0.1175 -0.06,0.2375 -0.0762,0.35875 -0.0175,0.12125 -0.025,0.24375 -0.025,0.36625 l 0,65.15 c 10e-4,0.1225 0.01,0.245 0.0263,0.36625 0.0163,0.12125 0.0412,0.24125 0.075,0.36 0.03,0.11875 0.07,0.235 0.1175,0.3475 0.0475,0.1125 0.1025,0.2225 0.165,0.3275 0.0612,0.10625 0.12875,0.20875 0.20375,0.30625 0.075,0.0975 0.15625,0.18875 0.2425,0.275 0.0863,0.0875 0.17875,0.16875 0.27625,0.24375 0.0962,0.0738 0.19875,0.1425 0.305,0.2025 0.10625,0.0625 0.215,0.1175 0.32875,0.165 0.1125,0.0475 0.22875,0.0863 0.3475,0.11875 0.1175,0.0325 0.2375,0.0588 0.36,0.075 0.12125,0.0175 0.2425,0.0263 0.365,0.025 l 0.0225,0 z" />
          <path
             inkscape:connector-curvature="0"
             d="m 328.87693,567.79531 -0.0225,0 c -0.125,-10e-4 -0.24875,-0.009 -0.37125,-0.0263 -0.12375,-0.0163 -0.24625,-0.0412 -0.36625,-0.0762 -0.12,-0.0312 -0.23875,-0.0712 -0.35375,-0.11875 -0.115,-0.0488 -0.22625,-0.105 -0.3325,-0.16875 -0.10875,-0.0612 -0.2125,-0.13 -0.31125,-0.20625 -0.0987,-0.0763 -0.19125,-0.15875 -0.27875,-0.2475 -0.0888,-0.0875 -0.17125,-0.18 -0.2475,-0.28 -0.0763,-0.0975 -0.145,-0.20125 -0.20625,-0.31 -0.0638,-0.1075 -0.12,-0.21875 -0.1675,-0.33375 -0.0487,-0.11375 -0.0888,-0.2325 -0.12125,-0.3525 -0.0337,-0.12 -0.06,-0.2425 -0.0763,-0.36625 -0.0175,-0.1225 -0.0263,-0.2475 -0.025,-0.37125 l 0,-65.15125 c 0,-0.12375 0.009,-0.2475 0.0263,-0.37125 0.0162,-0.12375 0.0412,-0.24625 0.075,-0.36625 0.0312,-0.12 0.0712,-0.23875 0.12,-0.35375 0.0487,-0.11375 0.105,-0.225 0.16875,-0.3325 0.0612,-0.1075 0.13,-0.21125 0.20625,-0.31 0.0762,-0.0987 0.15875,-0.1925 0.2475,-0.28 0.0875,-0.0888 0.18,-0.17125 0.27875,-0.2475 0.0987,-0.075 0.2025,-0.145 0.31125,-0.20625 0.1075,-0.0637 0.21875,-0.11875 0.3325,-0.1675 0.115,-0.0475 0.23375,-0.0875 0.35375,-0.12 0.12,-0.0337 0.2425,-0.06 0.36625,-0.0775 0.1225,-0.0175 0.24625,-0.0263 0.37125,-0.025 l 42.29125,0 c 0.12375,0.001 0.2475,0.009 0.37125,0.0263 0.12375,0.0163 0.245,0.0425 0.365,0.0763 0.12125,0.0312 0.23875,0.0712 0.35375,0.12 0.115,0.0475 0.22625,0.10375 0.3325,0.1675 0.10875,0.0613 0.2125,0.13125 0.31125,0.20625 0.0987,0.0763 0.1925,0.15875 0.28,0.2475 0.0888,0.0875 0.17125,0.18125 0.24625,0.28 0.0762,0.0987 0.14625,0.2025 0.2075,0.31 0.0638,0.1075 0.11875,0.21875 0.16625,0.33375 0.0487,0.115 0.0888,0.2325 0.12125,0.3525 0.0337,0.12 0.06,0.2425 0.0775,0.36625 0.0175,0.1225 0.025,0.2475 0.025,0.37125 l 0,65.15125 c -10e-4,0.12375 -0.01,0.24875 -0.0263,0.3725 -0.0175,0.1225 -0.0425,0.245 -0.0762,0.365 -0.0312,0.12 -0.0713,0.23875 -0.12,0.35375 -0.0475,0.115 -0.10375,0.225 -0.1675,0.3325 -0.0612,0.10875 -0.13125,0.2125 -0.2075,0.31 -0.075,0.1 -0.1575,0.1925 -0.24625,0.28 -0.0875,0.0888 -0.18125,0.17125 -0.28,0.2475 -0.0987,0.0762 -0.2025,0.145 -0.31125,0.20625 -0.10625,0.0638 -0.2175,0.11875 -0.3325,0.1675 -0.115,0.0475 -0.2325,0.0888 -0.35375,0.12 -0.12,0.035 -0.24125,0.06 -0.365,0.0775 -0.12375,0.0175 -0.2475,0.0263 -0.37125,0.025 l -42.26875,0 z"
             style="fill:none;stroke:#000000;stroke-width:1.73435855;stroke-linecap:butt;stroke-linejoin:bevel;stroke-miterlimit:22.9260006;stroke-opacity:1;stroke-dasharray:none"
             id="path20118" />
          <path
             inkscape:connector-curvature="0"
             id="path20122"
             style="fill:#000000;fill-opacity:1;fill-rule:evenodd;stroke:#000000;stroke-width:0.27681914;stroke-linecap:butt;stroke-linejoin:bevel;stroke-miterlimit:22.9260006;stroke-opacity:1;stroke-dasharray:none"
             d="m 352.74318,543.87281 0,-26.375 c 0.15,0.0163 0.30125,0.0338 0.45125,0.0525 0.15,0.0175 0.3,0.0362 0.45,0.0562 0.6,0.08 1.1975,0.18375 1.79,0.3075 0.5925,0.125 1.18125,0.27 1.76375,0.43625 0.58375,0.16 1.1625,0.3425 1.73375,0.545 0.57,0.20375 1.1325,0.42875 1.685,0.6775 0.1375,0.0612 0.27625,0.12375 0.41375,0.18625 0.1375,0.0638 0.275,0.1275 0.41125,0.19125 0.0125,0.006 0.025,0.0113 0.0375,0.0175 0.0125,0.005 0.025,0.01 0.0375,0.0137 0.0512,0.0188 0.10375,0.0325 0.1575,0.04 0.0538,0.007 0.1075,0.009 0.1625,0.005 0.0675,-0.004 0.135,-0.0163 0.19875,-0.0388 0.0637,-0.0213 0.125,-0.0512 0.18125,-0.09 0.0575,-0.0362 0.10875,-0.08 0.155,-0.13 0.045,-0.0513 0.0837,-0.1075 0.11375,-0.1675 0.0312,-0.06 0.055,-0.12375 0.0688,-0.19 0.015,-0.0662 0.0212,-0.135 0.0175,-0.2025 -10e-4,-0.0538 -0.007,-0.10875 -0.0213,-0.16125 -0.0125,-0.0525 -0.0312,-0.10375 -0.0562,-0.15125 -0.006,-0.0125 -0.0125,-0.0237 -0.0188,-0.0362 -0.006,-0.0113 -0.0138,-0.0237 -0.02,-0.035 -0.13625,-0.2075 -0.275,-0.41375 -0.41375,-0.62 -0.14,-0.205 -0.28375,-0.4075 -0.43125,-0.60625 -0.59375,-0.79625 -1.27125,-1.525 -2.02125,-2.17375 -0.755,-0.65375 -1.57875,-1.22375 -2.45625,-1.69875 -1.07875,-0.62375 -2.23625,-1.09875 -3.44125,-1.4125 -1.205,-0.31375 -2.4475,-0.46375 -3.6925,-0.44375 -1.24375,-0.0175 -2.48375,0.135 -3.68625,0.45 -1.20625,0.31625 -2.365,0.78875 -3.44625,1.40625 -0.88125,0.4725 -1.71,1.03875 -2.46875,1.69 -0.75375,0.645 -1.42875,1.3775 -2.00875,2.1825 -0.14875,0.19875 -0.29375,0.40125 -0.4325,0.60625 -0.13875,0.205 -0.27625,0.4125 -0.4125,0.62 -0.007,0.0113 -0.0137,0.0237 -0.02,0.035 -0.006,0.0125 -0.0125,0.0237 -0.0188,0.0362 -0.025,0.0475 -0.0437,0.0987 -0.0562,0.15125 -0.0138,0.0525 -0.02,0.1075 -0.0213,0.16125 -0.004,0.0675 10e-4,0.13625 0.0163,0.2025 0.015,0.0662 0.0387,0.13 0.07,0.19 0.03,0.06 0.0688,0.11625 0.11375,0.1675 0.0462,0.05 0.0975,0.0937 0.155,0.13 0.0562,0.0387 0.11625,0.0687 0.18125,0.09 0.0638,0.0213 0.13125,0.035 0.19875,0.0388 0.055,0.005 0.10875,0.002 0.1625,-0.004 0.0538,-0.007 0.10625,-0.0212 0.15625,-0.0412 0.0138,-0.004 0.0263,-0.009 0.0388,-0.0137 0.0125,-0.006 0.025,-0.0113 0.0375,-0.0175 0.13625,-0.0637 0.27375,-0.1275 0.41125,-0.19 0.1375,-0.0638 0.275,-0.12625 0.41375,-0.1875 0.55375,-0.245 1.11625,-0.46875 1.68625,-0.6725 0.57125,-0.20375 1.14875,-0.3875 1.7325,-0.55 0.5825,-0.16875 1.17,-0.315 1.7625,-0.44125 0.5925,-0.125 1.19,-0.22625 1.79,-0.3025 0.15125,-0.02 0.30125,-0.0387 0.45125,-0.0575 0.15,-0.0175 0.30125,-0.035 0.45125,-0.0512 l 0,26.375 -4.115,0 0,3.6575 3.69,0 c -0.0337,0.065 -0.0675,0.12875 -0.10125,0.19375 -0.0325,0.065 -0.0638,0.13125 -0.0937,0.1975 -0.11875,0.26625 -0.2025,0.54625 -0.25125,0.83375 -0.0475,0.29 -0.06,0.585 -0.0337,0.8775 0.0213,0.365 0.1,0.725 0.235,1.06625 0.1325,0.34 0.32,0.65875 0.55375,0.94125 0.2225,0.28875 0.49125,0.5425 0.79375,0.7475 0.3025,0.20625 0.63625,0.36375 0.9875,0.46625 0.3475,0.1125 0.7125,0.17 1.0775,0.17 0.36625,0 0.73,-0.0575 1.07875,-0.17 0.35125,-0.1025 0.68375,-0.26 0.98625,-0.4675 0.30375,-0.205 0.57125,-0.4575 0.795,-0.74625 0.2325,-0.28375 0.4175,-0.60125 0.55125,-0.94125 0.1325,-0.34125 0.2125,-0.70125 0.23625,-1.06625 0.0288,-0.29375 0.0188,-0.58875 -0.0288,-0.88 -0.0462,-0.2875 -0.13125,-0.5675 -0.255,-0.83125 -0.03,-0.0662 -0.0612,-0.1325 -0.0937,-0.1975 -0.0337,-0.065 -0.0675,-0.12875 -0.10125,-0.19375 l 3.69,0 0,-3.6575 -4.115,0 z" />
          <path
             inkscape:connector-curvature="0"
             id="path20126"
             style="fill:#ffffff;fill-opacity:1;fill-rule:evenodd;stroke:#000000;stroke-width:0.27681914;stroke-linecap:butt;stroke-linejoin:bevel;stroke-miterlimit:22.9260006;stroke-opacity:1;stroke-dasharray:none"
             d="m 351.37193,549.35906 -0.001,0.0425 c 0,0.015 -10e-4,0.0287 -10e-4,0.0437 -0.004,0.0575 -0.01,0.11375 -0.0213,0.17125 -0.01,0.0562 -0.025,0.11125 -0.0437,0.16625 -0.0213,0.0687 -0.0488,0.135 -0.0813,0.19875 -0.0325,0.065 -0.07,0.12625 -0.1125,0.18375 -0.0425,0.0588 -0.0888,0.11375 -0.14,0.16375 -0.0513,0.0512 -0.10625,0.0975 -0.16375,0.14 -0.0588,0.0425 -0.12,0.08 -0.18375,0.1125 -0.0637,0.0325 -0.13125,0.06 -0.19875,0.0813 -0.0687,0.0237 -0.13875,0.04 -0.21,0.0512 -0.07,0.0113 -0.1425,0.0175 -0.21375,0.0163 -0.0725,10e-4 -0.14375,-0.005 -0.215,-0.0163 -0.0713,-0.0113 -0.14125,-0.0275 -0.20875,-0.0512 -0.0688,-0.0213 -0.13625,-0.0488 -0.2,-0.0813 -0.0638,-0.0325 -0.125,-0.07 -0.1825,-0.1125 -0.0588,-0.0425 -0.11375,-0.0888 -0.165,-0.14 -0.0512,-0.05 -0.0975,-0.105 -0.13875,-0.16375 -0.0425,-0.0575 -0.08,-0.11875 -0.11375,-0.18375 -0.0325,-0.0637 -0.0587,-0.13 -0.0813,-0.19875 -0.0225,-0.0688 -0.04,-0.1375 -0.0512,-0.20875 -0.0113,-0.0713 -0.0163,-0.14375 -0.0163,-0.215 0,-0.0725 0.005,-0.14375 0.0163,-0.215 0.0113,-0.0712 0.0288,-0.14125 0.0512,-0.20875 0.0225,-0.0687 0.0488,-0.135 0.0813,-0.2 0.0337,-0.0638 0.0713,-0.125 0.11375,-0.1825 0.0413,-0.0588 0.0875,-0.11375 0.13875,-0.16375 0.0512,-0.0512 0.10625,-0.0975 0.165,-0.14 0.0575,-0.0425 0.11875,-0.08 0.1825,-0.11375 0.0637,-0.0325 0.13125,-0.0588 0.2,-0.0812 0.0675,-0.0225 0.1375,-0.0388 0.20875,-0.0513 0.0712,-0.0112 0.1425,-0.0162 0.215,-0.015 0.0713,-10e-4 0.14375,0.004 0.21375,0.015 0.0713,0.0125 0.14125,0.0288 0.21,0.0513 0.0675,0.0225 0.135,0.0487 0.19875,0.0812 0.0638,0.0337 0.125,0.0712 0.18375,0.11375 0.0575,0.0425 0.1125,0.0888 0.16375,0.14 0.0512,0.05 0.0975,0.105 0.14,0.16375 0.0425,0.0575 0.08,0.11875 0.1125,0.1825 0.0325,0.065 0.06,0.13125 0.0813,0.2 0.0187,0.0538 0.0337,0.11 0.045,0.16625 0.01,0.0575 0.0175,0.11375 0.02,0.17125 10e-4,0.0137 10e-4,0.0287 10e-4,0.0425 l 0.001,0.0438 z" />
        </g>
      </g>
    </g>
  </g>
</svg>
