<?xml version="1.0" encoding="UTF-8" standalone="no"?>
<!-- Created with Inkscape (http://www.inkscape.org/) -->

<svg
   xmlns:dc="http://purl.org/dc/elements/1.1/"
   xmlns:cc="http://creativecommons.org/ns#"
   xmlns:rdf="http://www.w3.org/1999/02/22-rdf-syntax-ns#"
   xmlns:svg="http://www.w3.org/2000/svg"
   xmlns="http://www.w3.org/2000/svg"
   xmlns:sodipodi="http://sodipodi.sourceforge.net/DTD/sodipodi-0.dtd"
   xmlns:inkscape="http://www.inkscape.org/namespaces/inkscape"
   width="60"
   height="60"
   id="svg2"
   version="1.1"
   inkscape:version="0.48.2 r9819"
   sodipodi:docname="Notice_E5_13.svg"
   style="display:inline"
   inkscape:export-filename="/Users/mherring/boatsw/oseam/openseamap/josm/icons/WindSurfing16.png"
   inkscape:export-xdpi="12"
   inkscape:export-ydpi="12">
  <defs
     id="defs4" />
  <sodipodi:namedview
     id="base"
     pagecolor="#ffffff"
     bordercolor="#666666"
     borderopacity="1.0"
     inkscape:pageopacity="0.0"
     inkscape:pageshadow="2"
     inkscape:zoom="5.3032952"
     inkscape:cx="14.367998"
     inkscape:cy="59.084222"
     inkscape:document-units="px"
     inkscape:current-layer="layer19"
     showgrid="true"
     inkscape:window-width="1920"
     inkscape:window-height="1088"
     inkscape:window-x="0"
     inkscape:window-y="0"
     inkscape:window-maximized="1"
     inkscape:snap-global="false">
    <inkscape:grid
       type="xygrid"
       id="grid3004"
       empspacing="5"
       visible="true"
       enabled="true"
       snapvisiblegridlinesonly="true" />
  </sodipodi:namedview>
  <metadata
     id="metadata7">
    <rdf:RDF>
      <cc:Work
         rdf:about="">
        <dc:format>image/svg+xml</dc:format>
        <dc:type
           rdf:resource="http://purl.org/dc/dcmitype/StillImage" />
        <dc:title />
      </cc:Work>
    </rdf:RDF>
  </metadata>
  <g
     inkscape:groupmode="layer"
     id="layer19"
     inkscape:label="E5.13"
     style="display:inline"
     transform="translate(0,-60)">
    <g
       transform="matrix(0.97220277,0,0,0.97220277,-310.27094,-427.56406)"
       id="layer1-3"
       inkscape:label="Ebene 1">
      <g
         transform="matrix(0.84345072,0,0,0.84345072,54.792249,83.340918)"
         id="g3165">
        <g
           id="g3661"
           transform="matrix(0,1.25,1.25,0,318.81933,567.79531)"
           style="fill:#ffffff;stroke:#000000;stroke-width:1.02859211">
          <path
             d="M 0,0 0,-0.027 C -0.001,-0.174 -0.011,-0.32 -0.031,-0.466 -0.05,-0.612 -0.081,-0.756 -0.12,-0.897 -0.157,-1.04 -0.205,-1.179 -0.262,-1.315 -0.319,-1.45 -0.385,-1.582 -0.46,-1.708 -0.533,-1.836 -0.615,-1.958 -0.705,-2.075 -0.794,-2.192 -0.892,-2.302 -0.996,-2.405 -1.1,-2.51 -1.21,-2.608 -1.326,-2.697 c -0.117,-0.09 -0.239,-0.171 -0.367,-0.244 -0.127,-0.075 -0.258,-0.141 -0.394,-0.198 -0.136,-0.056 -0.275,-0.104 -0.417,-0.142 -0.142,-0.04 -0.286,-0.071 -0.432,-0.091 -0.145,-0.021 -0.292,-0.03 -0.439,-0.03 l -49.943,0 c -0.147,0.001 -0.294,0.012 -0.439,0.031 -0.146,0.02 -0.29,0.05 -0.431,0.09 -0.143,0.037 -0.283,0.084 -0.419,0.141 -0.135,0.057 -0.266,0.123 -0.392,0.199 -0.128,0.073 -0.251,0.155 -0.367,0.244 -0.117,0.09 -0.227,0.187 -0.331,0.292 -0.104,0.103 -0.202,0.213 -0.291,0.33 -0.09,0.116 -0.172,0.239 -0.245,0.367 -0.074,0.126 -0.14,0.258 -0.197,0.393 -0.057,0.136 -0.104,0.275 -0.142,0.418 -0.041,0.141 -0.071,0.285 -0.092,0.431 -0.02,0.146 -0.03,0.293 -0.029,0.439 l 0,49.943 c 10e-4,0.147 0.011,0.294 0.031,0.44 0.02,0.145 0.05,0.289 0.09,0.431 0.036,0.143 0.084,0.282 0.141,0.418 0.057,0.135 0.123,0.267 0.198,0.393 0.073,0.128 0.155,0.25 0.245,0.367 0.089,0.116 0.187,0.227 0.291,0.33 0.104,0.105 0.214,0.202 0.331,0.292 0.116,0.09 0.239,0.171 0.367,0.244 0.126,0.075 0.257,0.141 0.393,0.197 0.136,0.057 0.275,0.105 0.418,0.143 0.141,0.04 0.285,0.07 0.431,0.091 0.145,0.021 0.292,0.03 0.439,0.029 l 49.943,0 c 0.147,-10e-4 0.294,-0.011 0.439,-0.031 0.146,-0.019 0.29,-0.049 0.432,-0.089 0.143,-0.037 0.282,-0.084 0.417,-0.142 0.136,-0.057 0.267,-0.123 0.394,-0.198 0.127,-0.073 0.25,-0.155 0.367,-0.244 0.116,-0.09 0.226,-0.187 0.33,-0.292 0.105,-0.103 0.202,-0.214 0.292,-0.33 0.089,-0.117 0.171,-0.239 0.244,-0.367 0.075,-0.127 0.14,-0.258 0.197,-0.394 0.057,-0.135 0.104,-0.275 0.143,-0.417 0.039,-0.142 0.07,-0.286 0.091,-0.432 C -0.009,50.21 0.001,50.063 0,49.916 L 0,0 z"
             style="fill:#ffffff;fill-opacity:1;fill-rule:evenodd;stroke:#000000;stroke-width:0.22217588;stroke-linecap:butt;stroke-linejoin:bevel;stroke-miterlimit:22.9260006;stroke-opacity:1;stroke-dasharray:none"
             id="path3663"
             inkscape:connector-curvature="0" />
        </g>
        <g
           id="g3665"
           transform="matrix(0,1.25,1.25,0,318.81933,567.72781)">
          <path
             d="m 0,0 0,49.89 0,0.013 0,0.013 c -0.001,0.145 -0.011,0.289 -0.031,0.432 -0.019,0.144 -0.048,0.286 -0.088,0.425 -0.036,0.14 -0.083,0.278 -0.139,0.411 -0.056,0.133 -0.121,0.263 -0.195,0.387 -0.072,0.126 -0.152,0.246 -0.241,0.361 -0.088,0.114 -0.184,0.223 -0.286,0.325 -0.102,0.103 -0.211,0.199 -0.325,0.287 -0.115,0.088 -0.236,0.169 -0.361,0.24 -0.125,0.074 -0.254,0.138 -0.388,0.194 -0.133,0.056 -0.271,0.103 -0.41,0.14 -0.14,0.04 -0.282,0.07 -0.425,0.09 -0.144,0.02 -0.288,0.03 -0.432,0.029 l -49.943,0 c -0.144,-0.001 -0.289,-0.011 -0.432,-0.03 -0.144,-0.019 -0.285,-0.049 -0.425,-0.089 -0.14,-0.036 -0.277,-0.082 -0.41,-0.138 -0.134,-0.057 -0.263,-0.122 -0.388,-0.196 -0.125,-0.071 -0.246,-0.152 -0.361,-0.24 -0.114,-0.088 -0.223,-0.184 -0.324,-0.287 -0.104,-0.102 -0.199,-0.211 -0.288,-0.325 -0.088,-0.115 -0.168,-0.235 -0.24,-0.361 -0.073,-0.125 -0.138,-0.254 -0.194,-0.387 -0.056,-0.134 -0.103,-0.271 -0.14,-0.411 -0.04,-0.139 -0.07,-0.281 -0.09,-0.425 -0.02,-0.143 -0.03,-0.288 -0.029,-0.432 l 0,-49.942 c 10e-4,-0.145 0.011,-0.289 0.03,-0.433 0.02,-0.143 0.049,-0.285 0.089,-0.424 0.036,-0.14 0.082,-0.278 0.138,-0.411 0.057,-0.134 0.122,-0.263 0.196,-0.387 0.072,-0.126 0.152,-0.247 0.24,-0.361 0.089,-0.115 0.184,-0.223 0.288,-0.325 0.101,-0.103 0.21,-0.199 0.324,-0.287 0.115,-0.088 0.236,-0.169 0.361,-0.241 0.125,-0.073 0.255,-0.138 0.388,-0.194 0.133,-0.055 0.271,-0.102 0.41,-0.14 0.14,-0.039 0.282,-0.069 0.425,-0.09 0.143,-0.02 0.288,-0.03 0.432,-0.028 l 0.013,0 0.014,-10e-4 49.889,0 0.013,10e-4 0.014,0 c 0.144,0 0.288,0.01 0.432,0.03 0.143,0.019 0.285,0.049 0.425,0.088 0.14,0.036 0.277,0.083 0.41,0.139 0.134,0.056 0.263,0.121 0.388,0.195 0.125,0.072 0.246,0.153 0.36,0.241 0.115,0.088 0.224,0.184 0.326,0.287 0.102,0.102 0.198,0.21 0.287,0.325 0.088,0.114 0.168,0.235 0.24,0.361 0.073,0.124 0.138,0.254 0.194,0.387 0.056,0.134 0.103,0.271 0.14,0.411 0.04,0.139 0.07,0.281 0.09,0.425 0.02,0.143 0.03,0.287 0.029,0.432 L 0,-0.013 0,0 z"
             style="fill:none;stroke:#231f20;stroke-width:1.95120728;stroke-linecap:butt;stroke-linejoin:bevel;stroke-miterlimit:22.9260006;stroke-opacity:1;stroke-dasharray:none"
             id="path3667"
             inkscape:connector-curvature="0" />
        </g>
        <g
           id="g3669"
           transform="matrix(0,1.25,1.25,0,318.81933,564.75906)"
           style="fill:#003399;fill-opacity:1">
          <path
             d="m 0,0 0,-0.008 c 0,-0.042 -0.003,-0.084 -0.009,-0.125 -0.005,-0.042 -0.014,-0.083 -0.026,-0.124 -0.01,-0.04 -0.024,-0.08 -0.04,-0.119 -0.016,-0.038 -0.035,-0.076 -0.056,-0.112 -0.022,-0.037 -0.045,-0.072 -0.071,-0.105 -0.025,-0.033 -0.053,-0.065 -0.083,-0.094 -0.029,-0.03 -0.061,-0.058 -0.094,-0.084 -0.033,-0.025 -0.068,-0.048 -0.105,-0.069 -0.036,-0.022 -0.074,-0.04 -0.112,-0.057 -0.039,-0.016 -0.079,-0.03 -0.119,-0.04 -0.041,-0.012 -0.082,-0.021 -0.124,-0.026 -0.041,-0.006 -0.083,-0.009 -0.125,-0.009 l -0.008,0 -49.89,0 -0.007,0 c -0.042,0 -0.084,0.003 -0.126,0.009 -0.041,0.005 -0.083,0.014 -0.123,0.026 -0.041,0.01 -0.081,0.024 -0.119,0.04 -0.039,0.016 -0.077,0.035 -0.113,0.057 -0.036,0.021 -0.071,0.044 -0.104,0.07 -0.034,0.025 -0.065,0.053 -0.095,0.083 -0.03,0.029 -0.058,0.061 -0.083,0.094 -0.026,0.033 -0.049,0.068 -0.07,0.105 -0.021,0.036 -0.04,0.074 -0.057,0.112 -0.016,0.039 -0.029,0.079 -0.04,0.119 -0.012,0.041 -0.02,0.082 -0.026,0.124 -0.006,0.041 -0.009,0.083 -0.008,0.125 l 0,49.905 c 0,0.042 0.002,0.084 0.008,0.126 0.006,0.041 0.014,0.083 0.026,0.123 0.01,0.041 0.024,0.081 0.04,0.119 0.017,0.039 0.036,0.077 0.057,0.113 0.021,0.036 0.044,0.071 0.07,0.104 0.025,0.034 0.053,0.065 0.083,0.095 0.03,0.03 0.061,0.058 0.095,0.083 0.033,0.026 0.068,0.049 0.104,0.07 0.036,0.021 0.074,0.04 0.113,0.057 0.038,0.015 0.078,0.029 0.119,0.04 0.04,0.012 0.082,0.02 0.123,0.026 0.042,0.006 0.084,0.009 0.126,0.008 l 49.905,0 c 0.042,0 0.084,-0.003 0.125,-0.008 0.042,-0.006 0.083,-0.014 0.124,-0.026 0.04,-0.01 0.08,-0.024 0.119,-0.04 0.038,-0.016 0.076,-0.035 0.112,-0.057 0.037,-0.021 0.072,-0.044 0.105,-0.07 0.033,-0.025 0.065,-0.053 0.094,-0.083 0.03,-0.03 0.058,-0.061 0.084,-0.095 0.025,-0.033 0.048,-0.068 0.07,-0.104 0.021,-0.036 0.039,-0.074 0.056,-0.113 0.016,-0.038 0.03,-0.078 0.04,-0.119 0.012,-0.04 0.021,-0.082 0.027,-0.123 C -0.003,49.981 0,49.939 0,49.897 L 0,49.89 0,0"
             style="fill:#003399;fill-opacity:1;fill-rule:evenodd;stroke:none"
             id="path3671"
             inkscape:connector-curvature="0" />
        </g>
        <g
           id="g3673"
           transform="matrix(0,1.25,1.25,0,351.43183,558.09156)">
          <path
             d="m 0,0 -19.437,19.437 c -0.006,0.005 -0.011,0.01 -0.016,0.015 -0.005,0.005 -0.01,0.01 -0.015,0.015 -0.051,0.049 -0.105,0.094 -0.162,0.136 -0.057,0.042 -0.118,0.079 -0.18,0.113 -0.062,0.034 -0.126,0.064 -0.192,0.089 -0.066,0.026 -0.134,0.046 -0.203,0.062 -0.068,0.017 -0.138,0.029 -0.208,0.036 -0.071,0.008 -0.142,0.011 -0.212,0.008 -0.071,-0.001 -0.142,-0.007 -0.211,-0.018 -0.07,-0.011 -0.139,-0.027 -0.207,-0.048 -0.068,-0.019 -0.134,-0.044 -0.199,-0.073 -0.065,-0.028 -0.127,-0.062 -0.187,-0.099 -0.049,-0.03 -0.097,-0.062 -0.142,-0.097 -0.045,-0.034 -0.089,-0.072 -0.13,-0.112 L -21.714,19.451 -21.728,19.437 -41.166,0 l -0.015,-0.015 -0.014,-0.016 c -0.049,-0.051 -0.095,-0.105 -0.136,-0.162 -0.042,-0.057 -0.08,-0.117 -0.113,-0.18 -0.035,-0.062 -0.064,-0.126 -0.089,-0.192 -0.026,-0.066 -0.046,-0.133 -0.062,-0.202 -0.017,-0.069 -0.029,-0.139 -0.037,-0.209 -0.007,-0.071 -0.01,-0.141 -0.008,-0.212 0.002,-0.071 0.008,-0.141 0.019,-0.211 0.011,-0.07 0.027,-0.139 0.047,-0.207 0.02,-0.068 0.044,-0.134 0.073,-0.199 0.029,-0.064 0.062,-0.127 0.1,-0.187 0.029,-0.049 0.061,-0.096 0.096,-0.142 0.035,-0.045 0.072,-0.088 0.112,-0.129 0.005,-0.005 0.009,-0.01 0.014,-0.014 0.004,-0.005 0.009,-0.009 0.013,-0.014 l 19.438,-19.437 c 0.005,-0.005 0.01,-0.01 0.015,-0.015 0.005,-0.005 0.01,-0.01 0.015,-0.015 0.051,-0.049 0.105,-0.094 0.163,-0.136 0.057,-0.042 0.117,-0.079 0.179,-0.113 0.062,-0.034 0.126,-0.064 0.192,-0.089 0.066,-0.026 0.134,-0.046 0.203,-0.062 0.069,-0.017 0.139,-0.029 0.209,-0.037 0.07,-0.007 0.141,-0.01 0.212,-0.007 0.07,0.001 0.141,0.007 0.211,0.018 0.07,0.011 0.139,0.027 0.206,0.048 0.068,0.02 0.135,0.044 0.199,0.073 0.065,0.028 0.127,0.062 0.188,0.099 0.049,0.029 0.096,0.062 0.142,0.096 0.045,0.035 0.088,0.073 0.129,0.113 l 0.014,0.013 0.014,0.014 L 0,-2.291 0.015,-2.276 0.03,-2.26 c 0.049,0.051 0.094,0.105 0.136,0.162 0.041,0.057 0.079,0.117 0.112,0.18 0.035,0.061 0.065,0.126 0.09,0.192 0.025,0.066 0.046,0.133 0.062,0.202 0.016,0.069 0.029,0.139 0.036,0.209 0.008,0.071 0.01,0.141 0.008,0.212 -0.001,0.071 -0.008,0.141 -0.019,0.211 -0.011,0.07 -0.027,0.139 -0.047,0.207 -0.02,0.068 -0.044,0.134 -0.073,0.199 -0.029,0.064 -0.062,0.127 -0.099,0.187 -0.03,0.049 -0.062,0.096 -0.097,0.142 -0.035,0.045 -0.072,0.088 -0.112,0.129 -0.005,0.005 -0.009,0.01 -0.014,0.014 C 0.009,-0.009 0.005,-0.005 0,0"
             style="fill:#ffffff;fill-opacity:1;fill-rule:evenodd;stroke:none"
             id="path3675"
             inkscape:connector-curvature="0" />
        </g>
        <g
           id="g3677"
           transform="matrix(0,1.25,1.25,0,349.97433,541.73156)"
           style="fill:#003399;fill-opacity:1">
          <path
             d="m 0,0 -10.258,5.939 -0.013,0.007 c -0.02,0.011 -0.042,0.021 -0.064,0.03 -0.022,0.008 -0.044,0.015 -0.067,0.02 -0.023,0.006 -0.046,0.011 -0.07,0.013 -0.023,0.002 -0.047,0.003 -0.07,0.002 -0.024,0 -0.047,-0.002 -0.071,-0.005 C -10.636,6.002 -10.659,5.996 -10.682,5.99 -10.704,5.983 -10.727,5.975 -10.748,5.966 -10.77,5.956 -10.79,5.945 -10.81,5.932 -10.831,5.92 -10.85,5.907 -10.868,5.892 -10.887,5.877 -10.904,5.861 -10.92,5.844 -10.937,5.827 -10.952,5.809 -10.966,5.79 -10.979,5.771 -10.992,5.751 -11.003,5.73 -11.015,5.709 -11.025,5.688 -11.033,5.666 -11.041,5.644 -11.048,5.621 -11.054,5.598 -11.059,5.58 -11.062,5.561 -11.065,5.542 -11.067,5.523 -11.069,5.504 -11.069,5.484 l 0,-0.012 0,-11.879 0,-0.014 c 0.001,-0.023 0.003,-0.047 0.007,-0.07 0.003,-0.024 0.009,-0.046 0.015,-0.069 0.007,-0.023 0.015,-0.045 0.024,-0.067 0.01,-0.021 0.021,-0.042 0.034,-0.062 0.012,-0.02 0.025,-0.039 0.04,-0.058 0.015,-0.018 0.031,-0.035 0.048,-0.051 0.017,-0.017 0.035,-0.032 0.054,-0.046 0.02,-0.014 0.04,-0.026 0.06,-0.037 0.021,-0.011 0.043,-0.021 0.064,-0.03 0.022,-0.008 0.045,-0.015 0.068,-0.021 0.023,-0.005 0.046,-0.009 0.07,-0.012 0.023,-0.002 0.047,-0.003 0.07,-0.002 0.024,0 0.047,0.002 0.07,0.006 0.024,0.004 0.047,0.009 0.069,0.016 0.019,0.005 0.037,0.011 0.055,0.019 0.018,0.007 0.035,0.015 0.051,0.025 l 0.012,0.006 L 0,-0.935 0.012,-0.927 c 0.02,0.012 0.04,0.025 0.058,0.04 0.018,0.015 0.036,0.031 0.052,0.049 0.016,0.016 0.031,0.034 0.045,0.054 0.014,0.019 0.026,0.039 0.037,0.059 0.012,0.021 0.022,0.043 0.03,0.065 0.009,0.022 0.015,0.044 0.021,0.067 0.005,0.023 0.009,0.046 0.012,0.07 0.002,0.023 0.003,0.047 0.002,0.07 0,0.024 -0.002,0.047 -0.006,0.071 -0.004,0.023 -0.009,0.046 -0.016,0.069 -0.006,0.022 -0.015,0.044 -0.024,0.066 -0.01,0.021 -0.021,0.042 -0.033,0.062 -0.013,0.02 -0.026,0.04 -0.041,0.058 -0.015,0.018 -0.031,0.035 -0.048,0.052 -0.014,0.013 -0.028,0.025 -0.043,0.037 -0.015,0.011 -0.031,0.022 -0.047,0.031 L 0,0"
             style="fill:#003399;fill-opacity:1;fill-rule:evenodd;stroke:none"
             id="path3679"
             inkscape:connector-curvature="0" />
        </g>
      </g>
    </g>
  </g>
</svg>
