<?xml version="1.0" encoding="UTF-8" standalone="no"?>
<!-- Created with Inkscape (http://www.inkscape.org/) -->

<svg
   xmlns:dc="http://purl.org/dc/elements/1.1/"
   xmlns:cc="http://creativecommons.org/ns#"
   xmlns:rdf="http://www.w3.org/1999/02/22-rdf-syntax-ns#"
   xmlns:svg="http://www.w3.org/2000/svg"
   xmlns="http://www.w3.org/2000/svg"
   xmlns:sodipodi="http://sodipodi.sourceforge.net/DTD/sodipodi-0.dtd"
   xmlns:inkscape="http://www.inkscape.org/namespaces/inkscape"
   width="60"
   height="80"
   id="svg2"
   version="1.1"
   inkscape:version="0.48.2 r9819"
   sodipodi:docname="Notice_E11.svg"
   style="display:inline"
   inkscape:export-filename="/Users/mherring/boatsw/oseam/openseamap/josm/icons/WindSurfing16.png"
   inkscape:export-xdpi="12"
   inkscape:export-ydpi="12">
  <defs
     id="defs4" />
  <sodipodi:namedview
     id="base"
     pagecolor="#ffffff"
     bordercolor="#666666"
     borderopacity="1.0"
     inkscape:pageopacity="0.0"
     inkscape:pageshadow="2"
     inkscape:zoom="5.3032952"
     inkscape:cx="14.367998"
     inkscape:cy="59.084222"
     inkscape:document-units="px"
     inkscape:current-layer="layer42"
     showgrid="true"
     inkscape:window-width="1920"
     inkscape:window-height="1088"
     inkscape:window-x="0"
     inkscape:window-y="0"
     inkscape:window-maximized="1"
     inkscape:snap-global="false">
    <inkscape:grid
       type="xygrid"
       id="grid3004"
       empspacing="5"
       visible="true"
       enabled="true"
       snapvisiblegridlinesonly="true" />
  </sodipodi:namedview>
  <metadata
     id="metadata7">
    <rdf:RDF>
      <cc:Work
         rdf:about="">
        <dc:format>image/svg+xml</dc:format>
        <dc:type
           rdf:resource="http://purl.org/dc/dcmitype/StillImage" />
        <dc:title />
      </cc:Work>
    </rdf:RDF>
  </metadata>
  <g
     inkscape:groupmode="layer"
     id="layer42"
     inkscape:label="E11"
     style="display:inline"
     transform="translate(0,-40)">
    <g
       transform="matrix(0.9721119,0,0,0.97911083,-310.23912,-441.24163)"
       id="layer1-00"
       inkscape:label="Ebene 1">
      <g
         transform="matrix(1.3082732,0,0,1.1833168,-107.89563,-97.590893)"
         id="g2995">
        <g
           id="g3753"
           transform="matrix(0,1.25,1.25,0,329.93368,565.97969)"
           style="fill:#f9f9f9;stroke:#000000;stroke-width:1.02500486">
          <path
             d="m 0,0 0,32.123 c 0,0.093 -0.007,0.186 -0.02,0.278 -0.012,0.093 -0.031,0.184 -0.056,0.274 -0.023,0.09 -0.054,0.178 -0.09,0.264 -0.036,0.086 -0.078,0.169 -0.125,0.249 -0.047,0.081 -0.098,0.158 -0.155,0.232 -0.057,0.074 -0.119,0.144 -0.185,0.209 -0.065,0.067 -0.135,0.129 -0.209,0.185 -0.074,0.057 -0.151,0.109 -0.232,0.155 -0.08,0.047 -0.164,0.089 -0.249,0.125 -0.086,0.036 -0.175,0.066 -0.265,0.09 -0.09,0.025 -0.181,0.045 -0.273,0.058 -0.092,0.013 -0.185,0.019 -0.278,0.018 l -49.514,0 c -0.093,0 -0.186,-0.007 -0.278,-0.019 -0.093,-0.013 -0.184,-0.032 -0.274,-0.057 -0.09,-0.023 -0.178,-0.053 -0.264,-0.089 -0.086,-0.036 -0.169,-0.078 -0.249,-0.126 -0.081,-0.046 -0.159,-0.098 -0.232,-0.155 -0.074,-0.056 -0.144,-0.118 -0.209,-0.185 -0.067,-0.065 -0.129,-0.135 -0.185,-0.209 -0.057,-0.074 -0.109,-0.151 -0.155,-0.232 -0.047,-0.08 -0.089,-0.164 -0.125,-0.249 -0.036,-0.086 -0.066,-0.174 -0.09,-0.264 -0.025,-0.09 -0.045,-0.181 -0.058,-0.274 -0.013,-0.092 -0.019,-0.185 -0.019,-0.278 l 0,-32.14 c 0.001,-0.093 0.008,-0.186 0.02,-0.278 0.013,-0.092 0.032,-0.184 0.057,-0.273 0.023,-0.09 0.053,-0.179 0.089,-0.265 0.036,-0.086 0.078,-0.169 0.126,-0.249 0.046,-0.081 0.098,-0.158 0.155,-0.232 0.056,-0.074 0.118,-0.144 0.185,-0.209 0.065,-0.067 0.135,-0.128 0.209,-0.185 0.073,-0.057 0.151,-0.108 0.232,-0.155 0.08,-0.047 0.163,-0.089 0.249,-0.125 0.086,-0.035 0.174,-0.066 0.264,-0.09 0.09,-0.025 0.181,-0.045 0.274,-0.058 0.092,-0.013 0.185,-0.019 0.278,-0.018 l 49.514,0 c 0.093,10e-4 0.186,0.007 0.278,0.02 0.092,0.012 0.183,0.031 0.273,0.056 0.091,0.023 0.179,0.054 0.265,0.09 0.085,0.036 0.169,0.078 0.249,0.125 0.081,0.047 0.158,0.098 0.232,0.155 0.074,0.057 0.144,0.119 0.209,0.185 0.066,0.065 0.128,0.135 0.185,0.209 0.057,0.074 0.108,0.151 0.155,0.232 0.047,0.08 0.089,0.164 0.125,0.249 0.035,0.086 0.066,0.175 0.09,0.265 0.025,0.09 0.045,0.181 0.058,0.273 0.012,0.092 0.019,0.185 0.018,0.278 L 0,0 z"
             style="fill:#f9f9f9;stroke:#000000;stroke-width:0.22140107;stroke-linecap:butt;stroke-linejoin:bevel;stroke-miterlimit:22.9260006;stroke-opacity:1;stroke-dasharray:none"
             id="path3755"
             inkscape:connector-curvature="0" />
          <g
             id="g3757"
             transform="translate(0.035,0)"
             style="fill:#f9f9f9;stroke:#000000;stroke-width:1.02500486">
            <path
               d="M 0,0 0,-0.017 C -0.001,-0.112 -0.007,-0.206 -0.02,-0.3 -0.033,-0.393 -0.052,-0.486 -0.078,-0.577 -0.101,-0.669 -0.132,-0.759 -0.168,-0.846 -0.205,-0.933 -0.248,-1.018 -0.296,-1.099 -0.343,-1.181 -0.396,-1.26 -0.454,-1.335 -0.511,-1.41 -0.574,-1.481 -0.641,-1.548 -0.708,-1.615 -0.779,-1.678 -0.854,-1.736 -0.929,-1.793 -1.007,-1.846 -1.09,-1.893 -1.171,-1.941 -1.256,-1.983 -1.343,-2.02 -1.43,-2.056 -1.52,-2.087 -1.612,-2.111 -1.703,-2.137 -1.795,-2.157 -1.889,-2.17 -1.983,-2.183 -2.078,-2.189 -2.172,-2.189 l -49.514,0 c -0.095,10e-4 -0.189,0.007 -0.283,0.02 -0.094,0.013 -0.187,0.032 -0.278,0.058 -0.091,0.023 -0.181,0.054 -0.269,0.09 -0.087,0.037 -0.171,0.08 -0.253,0.128 -0.082,0.047 -0.16,0.1 -0.235,0.158 -0.076,0.057 -0.147,0.12 -0.213,0.187 -0.068,0.067 -0.13,0.138 -0.188,0.213 -0.058,0.075 -0.11,0.154 -0.157,0.236 -0.048,0.081 -0.09,0.166 -0.127,0.253 -0.037,0.087 -0.067,0.177 -0.092,0.269 -0.026,0.091 -0.045,0.184 -0.059,0.277 -0.013,0.094 -0.019,0.188 -0.018,0.283 l 0,32.14 c 0,0.095 0.007,0.189 0.02,0.283 0.012,0.094 0.032,0.186 0.057,0.278 0.024,0.091 0.055,0.181 0.091,0.269 0.037,0.087 0.079,0.171 0.128,0.253 0.047,0.082 0.099,0.16 0.157,0.235 0.058,0.076 0.12,0.146 0.188,0.213 0.066,0.068 0.137,0.13 0.213,0.188 0.074,0.058 0.153,0.11 0.235,0.157 0.082,0.048 0.166,0.09 0.254,0.127 0.087,0.037 0.177,0.067 0.268,0.092 0.091,0.026 0.184,0.045 0.278,0.059 0.094,0.013 0.188,0.019 0.283,0.018 l 49.514,0 c 0.095,0 0.189,-0.007 0.283,-0.02 0.094,-0.012 0.186,-0.032 0.277,-0.057 0.092,-0.024 0.182,-0.055 0.269,-0.091 0.088,-0.037 0.172,-0.08 0.253,-0.128 0.083,-0.047 0.161,-0.099 0.236,-0.157 0.075,-0.058 0.146,-0.12 0.213,-0.188 0.067,-0.066 0.13,-0.137 0.188,-0.213 0.057,-0.074 0.11,-0.153 0.157,-0.235 0.048,-0.082 0.09,-0.167 0.127,-0.254 0.036,-0.087 0.067,-0.177 0.091,-0.268 0.026,-0.092 0.046,-0.184 0.059,-0.278 C -0.006,32.312 0.001,32.218 0,32.123 L 0,0 z"
               style="fill:#f9f9f9;stroke:#000000;stroke-width:1.31809342;stroke-linecap:butt;stroke-linejoin:bevel;stroke-miterlimit:22.9260006;stroke-opacity:1;stroke-dasharray:none"
               id="path3759"
               inkscape:connector-curvature="0" />
          </g>
        </g>
        <g
           id="g3761"
           transform="matrix(0,1.25,1.25,0,329.93368,564.06844)"
           style="fill:#003399;fill-opacity:1">
          <path
             d="m 0,0 0,-0.005 c 0,-0.027 -0.002,-0.054 -0.006,-0.081 -0.003,-0.026 -0.009,-0.053 -0.016,-0.079 -0.007,-0.026 -0.016,-0.052 -0.026,-0.077 -0.011,-0.025 -0.023,-0.049 -0.037,-0.072 -0.013,-0.024 -0.028,-0.046 -0.045,-0.068 -0.016,-0.021 -0.034,-0.041 -0.053,-0.06 -0.019,-0.019 -0.04,-0.037 -0.061,-0.054 -0.021,-0.016 -0.044,-0.031 -0.067,-0.045 -0.024,-0.013 -0.048,-0.026 -0.073,-0.036 -0.025,-0.01 -0.05,-0.019 -0.076,-0.026 -0.026,-0.008 -0.053,-0.013 -0.08,-0.017 -0.027,-0.004 -0.054,-0.006 -0.08,-0.005 l -45.646,0 L 0,30.72 0,0"
             style="fill:#003399;fill-opacity:1;fill-rule:evenodd;stroke:none"
             id="path3763"
             inkscape:connector-curvature="0" />
        </g>
        <g
           id="g3765"
           transform="matrix(0,1.25,1.25,0,370.84868,558.49219)"
           style="fill:#003399;fill-opacity:1">
          <path
             d="m 0,0 -46.27,-31.345 0,30.724 c 0.001,0.027 0.002,0.054 0.006,0.081 0.004,0.027 0.009,0.053 0.017,0.079 0.007,0.027 0.015,0.052 0.026,0.077 0.01,0.025 0.023,0.049 0.036,0.072 0.014,0.024 0.029,0.046 0.045,0.068 0.017,0.021 0.034,0.042 0.053,0.061 0.019,0.019 0.04,0.037 0.061,0.053 0.022,0.017 0.044,0.032 0.068,0.045 0.023,0.014 0.047,0.026 0.072,0.036 0.025,0.011 0.051,0.02 0.077,0.027 0.026,0.007 0.052,0.012 0.079,0.016 0.027,0.004 0.054,0.006 0.081,0.006 L 0,0"
             style="fill:#003399;fill-opacity:1;fill-rule:evenodd;stroke:none"
             id="path3767"
             inkscape:connector-curvature="0" />
        </g>
      </g>
    </g>
  </g>
</svg>
