<?xml version="1.0" encoding="UTF-8" standalone="no"?>
<!-- Created with Inkscape (http://www.inkscape.org/) -->

<svg
   xmlns:dc="http://purl.org/dc/elements/1.1/"
   xmlns:cc="http://creativecommons.org/ns#"
   xmlns:rdf="http://www.w3.org/1999/02/22-rdf-syntax-ns#"
   xmlns:svg="http://www.w3.org/2000/svg"
   xmlns="http://www.w3.org/2000/svg"
   xmlns:sodipodi="http://sodipodi.sourceforge.net/DTD/sodipodi-0.dtd"
   xmlns:inkscape="http://www.inkscape.org/namespaces/inkscape"
   width="60"
   height="60"
   id="svg2"
   version="1.1"
   inkscape:version="0.48.2 r9819"
   sodipodi:docname="Notice_E5.svg"
   style="display:inline"
   inkscape:export-filename="/Users/mherring/boatsw/oseam/openseamap/josm/icons/WindSurfing16.png"
   inkscape:export-xdpi="12"
   inkscape:export-ydpi="12">
  <defs
     id="defs4" />
  <sodipodi:namedview
     id="base"
     pagecolor="#ffffff"
     bordercolor="#666666"
     borderopacity="1.0"
     inkscape:pageopacity="0.0"
     inkscape:pageshadow="2"
     inkscape:zoom="5.3032952"
     inkscape:cx="14.367998"
     inkscape:cy="59.084222"
     inkscape:document-units="px"
     inkscape:current-layer="layer6"
     showgrid="true"
     inkscape:window-width="1920"
     inkscape:window-height="1088"
     inkscape:window-x="0"
     inkscape:window-y="0"
     inkscape:window-maximized="1"
     inkscape:snap-global="false">
    <inkscape:grid
       type="xygrid"
       id="grid3004"
       empspacing="5"
       visible="true"
       enabled="true"
       snapvisiblegridlinesonly="true" />
  </sodipodi:namedview>
  <metadata
     id="metadata7">
    <rdf:RDF>
      <cc:Work
         rdf:about="">
        <dc:format>image/svg+xml</dc:format>
        <dc:type
           rdf:resource="http://purl.org/dc/dcmitype/StillImage" />
        <dc:title />
      </cc:Work>
    </rdf:RDF>
  </metadata>
  <g
     inkscape:groupmode="layer"
     id="layer6"
     inkscape:label="E5"
     style="display:inline"
     transform="translate(0,-60)">
    <g
       id="g7168"
       transform="translate(-29.999995,30.000002)">
      <g
         inkscape:label="Ebene 1"
         id="layer1-840"
         transform="matrix(0.96873315,0,0,0.97035379,-279.05665,-456.57969)">
        <g
           id="g3091"
           transform="matrix(0.84485803,0,0,0.84344713,54.299702,83.342825)">
          <path
             inkscape:connector-curvature="0"
             d="m 318.81931,567.72781 62.37875,0 0.0163,0 c 0.18125,-10e-4 0.36125,-0.0137 0.54,-0.0375 0.18,-0.025 0.3575,-0.0613 0.53125,-0.11125 0.175,-0.045 0.3475,-0.10375 0.51375,-0.17375 0.16625,-0.07 0.32875,-0.15125 0.48375,-0.24375 0.1575,-0.09 0.3075,-0.19 0.45125,-0.30125 0.14375,-0.11 0.27875,-0.23 0.40625,-0.3575 0.12875,-0.1275 0.24875,-0.26375 0.35875,-0.40625 0.11,-0.14375 0.21,-0.295 0.3,-0.45125 0.0925,-0.15625 0.17375,-0.31875 0.2425,-0.485 0.07,-0.16625 0.12875,-0.3375 0.175,-0.5125 0.05,-0.175 0.0875,-0.3525 0.1125,-0.53125 0.025,-0.18 0.0375,-0.36 0.0362,-0.54 l 0,-62.42875 c 0,-0.18 -0.0137,-0.36125 -0.0375,-0.54 -0.0238,-0.18 -0.0613,-0.3575 -0.11125,-0.53125 -0.045,-0.175 -0.1025,-0.34625 -0.1725,-0.51375 -0.07,-0.16625 -0.1525,-0.32875 -0.245,-0.48375 -0.09,-0.15625 -0.19,-0.3075 -0.3,-0.45125 -0.11,-0.1425 -0.23,-0.27875 -0.35875,-0.405 -0.1275,-0.13 -0.2625,-0.25 -0.40625,-0.36 -0.14375,-0.11 -0.29375,-0.21 -0.45125,-0.3 -0.155,-0.0912 -0.3175,-0.1725 -0.48375,-0.2425 -0.1675,-0.07 -0.33875,-0.12875 -0.51375,-0.175 -0.17375,-0.05 -0.35125,-0.0875 -0.53125,-0.1125 -0.17875,-0.025 -0.35875,-0.0375 -0.54,-0.0362 l -62.4275,0 c -0.18125,0.001 -0.36125,0.0138 -0.54125,0.0375 -0.17875,0.025 -0.35625,0.0612 -0.53,0.11125 -0.175,0.045 -0.3475,0.1025 -0.51375,0.1725 -0.16625,0.0712 -0.32875,0.1525 -0.485,0.245 -0.15625,0.09 -0.3075,0.19 -0.45,0.3 -0.14375,0.11125 -0.27875,0.23 -0.40625,0.36 -0.12875,0.12625 -0.24875,0.2625 -0.35875,0.405 -0.11125,0.14375 -0.21125,0.295 -0.30125,0.45125 -0.0913,0.15625 -0.1725,0.3175 -0.2425,0.485 -0.0687,0.16625 -0.1275,0.3375 -0.175,0.5125 -0.05,0.175 -0.0862,0.3525 -0.1125,0.53125 -0.025,0.17875 -0.0375,0.36 -0.035,0.54 l -10e-4,0.0163 0,62.39625 10e-4,0.0162 c 0,0.18 0.0125,0.36 0.0375,0.54 0.0238,0.17875 0.0612,0.35625 0.11,0.53125 0.045,0.175 0.10375,0.34625 0.17375,0.51375 0.07,0.16625 0.15125,0.3275 0.24375,0.48375 0.09,0.15625 0.19125,0.3075 0.30125,0.45125 0.11,0.1425 0.23,0.27875 0.35875,0.40625 0.1275,0.1275 0.2625,0.2475 0.40625,0.35875 0.1425,0.11 0.29375,0.21 0.45,0.3 0.15625,0.0913 0.31875,0.1725 0.485,0.2425 0.16625,0.07 0.33875,0.12875 0.51375,0.175 0.17375,0.05 0.35125,0.0875 0.53125,0.1125 0.17875,0.025 0.35875,0.0375 0.54,0.0362 l 0.0163,0 0.0162,0 z"
             style="fill:none;stroke:#231f20;stroke-width:0.27848169;stroke-linecap:butt;stroke-linejoin:bevel;stroke-miterlimit:22.9260006;stroke-opacity:1;stroke-dasharray:none"
             id="path17857" />
          <path
             inkscape:connector-curvature="0"
             id="path17861"
             style="fill:#ffffff;stroke:#000000;stroke-width:2.44366717;stroke-linecap:butt;stroke-linejoin:bevel;stroke-miterlimit:22.9260006;stroke-opacity:1;stroke-dasharray:none"
             d="m 318.81931,567.79531 -0.0337,0 c -0.18375,-10e-4 -0.36625,-0.0138 -0.54875,-0.0388 -0.1825,-0.0237 -0.3625,-0.0625 -0.54,-0.11125 -0.1775,-0.0463 -0.3525,-0.10625 -0.52125,-0.1775 -0.17,-0.0713 -0.33375,-0.15375 -0.49125,-0.2475 -0.16,-0.0913 -0.31375,-0.19375 -0.45875,-0.30625 -0.14625,-0.11125 -0.28375,-0.23375 -0.4125,-0.36375 -0.13125,-0.13 -0.25375,-0.2675 -0.365,-0.4125 -0.1125,-0.14625 -0.215,-0.29875 -0.30625,-0.45875 -0.0925,-0.15875 -0.175,-0.3225 -0.245,-0.4925 -0.0713,-0.16875 -0.13125,-0.34375 -0.17875,-0.52125 -0.05,-0.1775 -0.0888,-0.3575 -0.11375,-0.54 -0.0263,-0.18125 -0.0375,-0.365 -0.0375,-0.54875 l 0,-62.42875 c 10e-4,-0.18375 0.015,-0.3675 0.0388,-0.54875 0.025,-0.1825 0.0625,-0.3625 0.1125,-0.54 0.0463,-0.1775 0.105,-0.3525 0.17625,-0.5225 0.0712,-0.16875 0.15375,-0.3325 0.2475,-0.49125 0.0925,-0.15875 0.19375,-0.3125 0.30625,-0.4575 0.1125,-0.14625 0.23375,-0.28375 0.365,-0.41375 0.12875,-0.13 0.26625,-0.2525 0.4125,-0.36375 0.145,-0.1125 0.29875,-0.215 0.45875,-0.30625 0.1575,-0.0925 0.32125,-0.175 0.49125,-0.24625 0.17,-0.0713 0.34375,-0.13 0.52125,-0.1775 0.1775,-0.0513 0.3575,-0.0888 0.54,-0.115 0.1825,-0.025 0.365,-0.0375 0.54875,-0.0362 l 62.42875,0 c 0.185,0.001 0.3675,0.0138 0.55,0.0387 0.18125,0.025 0.3625,0.0625 0.53875,0.1125 0.17875,0.045 0.3525,0.105 0.5225,0.17625 0.17,0.0712 0.33375,0.15375 0.49125,0.2475 0.16,0.0912 0.3125,0.19375 0.45875,0.30625 0.14625,0.11125 0.28375,0.23375 0.4125,0.36375 0.13125,0.13 0.2525,0.2675 0.365,0.41375 0.1125,0.145 0.21375,0.29875 0.305,0.4575 0.0937,0.15875 0.17625,0.3225 0.24625,0.4925 0.0712,0.17 0.13125,0.34375 0.17875,0.52125 0.05,0.1775 0.0888,0.3575 0.11375,0.54 0.0263,0.18125 0.0375,0.365 0.0363,0.54875 l 0,62.42875 c -10e-4,0.18375 -0.0138,0.3675 -0.0388,0.54875 -0.0237,0.1825 -0.0613,0.3625 -0.11125,0.54 -0.0463,0.1775 -0.105,0.3525 -0.1775,0.52125 -0.0712,0.17 -0.15375,0.33375 -0.2475,0.4925 -0.0913,0.15875 -0.1925,0.3125 -0.305,0.45875 -0.1125,0.145 -0.23375,0.2825 -0.365,0.4125 -0.12875,0.13 -0.26625,0.2525 -0.4125,0.365 -0.14625,0.11125 -0.29875,0.21375 -0.45875,0.305 -0.15875,0.0925 -0.3225,0.175 -0.4925,0.24625 -0.16875,0.0712 -0.34375,0.13 -0.52125,0.17875 -0.17625,0.05 -0.3575,0.0875 -0.53875,0.11375 -0.1825,0.025 -0.36625,0.0375 -0.55,0.0363 l -62.395,0 z" />
          <path
             inkscape:connector-curvature="0"
             d="m 318.81931,564.75781 -0.01,0 c -0.0525,0 -0.105,-0.004 -0.15625,-0.0112 -0.0525,-0.006 -0.10375,-0.0175 -0.155,-0.0325 -0.05,-0.0125 -0.1,-0.0288 -0.14875,-0.05 -0.0475,-0.02 -0.095,-0.0437 -0.14,-0.0712 -0.0463,-0.0263 -0.09,-0.055 -0.13125,-0.0863 -0.0412,-0.0325 -0.0813,-0.0675 -0.1175,-0.105 -0.0375,-0.0363 -0.0725,-0.0763 -0.105,-0.1175 -0.0312,-0.0413 -0.06,-0.085 -0.0863,-0.13125 -0.0275,-0.045 -0.05,-0.0925 -0.0713,-0.14 -0.02,-0.0487 -0.0375,-0.0988 -0.05,-0.15 -0.015,-0.05 -0.0263,-0.10125 -0.0325,-0.15375 -0.007,-0.0512 -0.0113,-0.10375 -0.0113,-0.15625 l 0,-62.38125 c 0,-0.0525 0.004,-0.105 0.0113,-0.1575 0.007,-0.0525 0.0175,-0.10375 0.0325,-0.15375 0.0125,-0.0513 0.0288,-0.10125 0.05,-0.15 0.02,-0.0475 0.0437,-0.095 0.0713,-0.14 0.0263,-0.045 0.055,-0.0888 0.0863,-0.13125 0.0325,-0.0412 0.0675,-0.08 0.105,-0.1175 0.0362,-0.0375 0.0763,-0.0725 0.1175,-0.10375 0.0412,-0.0325 0.085,-0.0613 0.13125,-0.0875 0.045,-0.0263 0.0925,-0.05 0.14,-0.0713 0.0487,-0.02 0.0987,-0.0362 0.14875,-0.05 0.0512,-0.015 0.1025,-0.025 0.155,-0.0325 0.0513,-0.008 0.10375,-0.0113 0.15625,-0.0113 l 62.38125,0 c 0.0525,10e-4 0.105,0.004 0.1575,0.0113 0.0525,0.007 0.10375,0.0175 0.15375,0.0325 0.0512,0.0125 0.10125,0.03 0.15,0.05 0.0475,0.02 0.095,0.0438 0.14,0.0713 0.045,0.0262 0.0888,0.055 0.13125,0.0875 0.0413,0.0312 0.08,0.0663 0.1175,0.10375 0.0375,0.0375 0.0725,0.0762 0.10375,0.1175 0.0325,0.0425 0.0613,0.0863 0.0875,0.13125 0.0263,0.045 0.05,0.0925 0.0712,0.14125 0.02,0.0475 0.0363,0.0975 0.05,0.14875 0.015,0.05 0.025,0.10125 0.0325,0.15375 0.007,0.0525 0.0112,0.105 0.0112,0.1575 l 0,62.38125 c 0,0.0525 -0.004,0.105 -0.0112,0.15625 -0.007,0.0525 -0.0175,0.10375 -0.0325,0.15375 -0.0125,0.0512 -0.03,0.10125 -0.05,0.15 -0.02,0.0475 -0.0437,0.095 -0.0712,0.14 -0.0263,0.0463 -0.055,0.09 -0.0875,0.13125 -0.0312,0.0413 -0.0662,0.0812 -0.10375,0.1175 -0.0375,0.0375 -0.0762,0.0725 -0.1175,0.105 -0.0425,0.0312 -0.0863,0.06 -0.13125,0.0863 -0.045,0.0275 -0.0925,0.05 -0.14125,0.0712 -0.0475,0.02 -0.0975,0.0375 -0.14875,0.05 -0.05,0.015 -0.10125,0.0262 -0.15375,0.0325 -0.0525,0.007 -0.105,0.0112 -0.1575,0.0112 l -62.37125,0"
             style="fill:#003499;fill-opacity:1;fill-rule:evenodd;stroke:none"
             id="path17865" />
        </g>
      </g>
      <text
         transform="scale(0.99916451,1.0008362)"
         sodipodi:linespacing="125%"
         id="text7830"
         y="76.432076"
         x="43.527065"
         style="font-size:46.53807449px;font-style:normal;font-variant:normal;font-weight:bold;font-stretch:normal;line-height:125%;letter-spacing:0px;word-spacing:0px;fill:#ffffff;fill-opacity:1;stroke:none;font-family:Arial;-inkscape-font-specification:Arial Bold"
         xml:space="preserve"><tspan
           y="76.432076"
           x="43.527065"
           id="tspan7832"
           sodipodi:role="line">P</tspan></text>
    </g>
  </g>
</svg>
