<?xml version="1.0" encoding="UTF-8" standalone="no"?>
<!-- Created with Inkscape (http://www.inkscape.org/) -->

<svg
   xmlns:dc="http://purl.org/dc/elements/1.1/"
   xmlns:cc="http://creativecommons.org/ns#"
   xmlns:rdf="http://www.w3.org/1999/02/22-rdf-syntax-ns#"
   xmlns:svg="http://www.w3.org/2000/svg"
   xmlns="http://www.w3.org/2000/svg"
   xmlns:sodipodi="http://sodipodi.sourceforge.net/DTD/sodipodi-0.dtd"
   xmlns:inkscape="http://www.inkscape.org/namespaces/inkscape"
   width="60"
   height="60"
   id="svg2"
   version="1.1"
   inkscape:version="0.48.2 r9819"
   sodipodi:docname="Notice_E13.svg"
   style="display:inline"
   inkscape:export-filename="/Users/mherring/boatsw/oseam/openseamap/josm/icons/WindSurfing16.png"
   inkscape:export-xdpi="12"
   inkscape:export-ydpi="12">
  <defs
     id="defs4" />
  <sodipodi:namedview
     id="base"
     pagecolor="#ffffff"
     bordercolor="#666666"
     borderopacity="1.0"
     inkscape:pageopacity="0.0"
     inkscape:pageshadow="2"
     inkscape:zoom="5.3032952"
     inkscape:cx="14.367998"
     inkscape:cy="59.084222"
     inkscape:document-units="px"
     inkscape:current-layer="layer43"
     showgrid="true"
     inkscape:window-width="1920"
     inkscape:window-height="1088"
     inkscape:window-x="0"
     inkscape:window-y="0"
     inkscape:window-maximized="1"
     inkscape:snap-global="false">
    <inkscape:grid
       type="xygrid"
       id="grid3004"
       empspacing="5"
       visible="true"
       enabled="true"
       snapvisiblegridlinesonly="true" />
  </sodipodi:namedview>
  <metadata
     id="metadata7">
    <rdf:RDF>
      <cc:Work
         rdf:about="">
        <dc:format>image/svg+xml</dc:format>
        <dc:type
           rdf:resource="http://purl.org/dc/dcmitype/StillImage" />
        <dc:title />
      </cc:Work>
    </rdf:RDF>
  </metadata>
  <g
     inkscape:groupmode="layer"
     id="layer43"
     inkscape:label="E13"
     style="display:inline"
     transform="translate(0,-60)">
    <g
       transform="matrix(0.97034917,0,0,0.9703334,-416.36063,-373.89358)"
       id="layer1-998"
       inkscape:label="Ebene 1">
      <g
         transform="matrix(0.84346443,0,0,0.84346443,72.00636,74.83597)"
         id="g2985">
        <g
           id="g3769"
           transform="matrix(0,1.25,1.25,0,428.81875,510.47334)"
           style="fill:#003399;fill-opacity:1">
          <path
             d="M 0,0 0,-0.008 C 0,-0.05 -0.003,-0.092 -0.009,-0.133 -0.014,-0.175 -0.023,-0.216 -0.035,-0.256 -0.045,-0.297 -0.059,-0.337 -0.075,-0.376 -0.091,-0.414 -0.11,-0.452 -0.131,-0.488 -0.153,-0.525 -0.176,-0.56 -0.202,-0.593 -0.227,-0.626 -0.255,-0.658 -0.285,-0.687 -0.314,-0.717 -0.346,-0.745 -0.379,-0.771 -0.412,-0.796 -0.447,-0.819 -0.484,-0.84 -0.52,-0.862 -0.558,-0.88 -0.596,-0.896 -0.635,-0.913 -0.675,-0.927 -0.715,-0.937 -0.756,-0.949 -0.797,-0.958 -0.839,-0.964 -0.88,-0.969 -0.922,-0.972 -0.964,-0.972 l -0.008,0 -49.89,0 -0.007,0 c -0.042,0 -0.084,0.003 -0.126,0.009 -0.041,0.005 -0.083,0.014 -0.123,0.026 -0.041,0.01 -0.081,0.024 -0.119,0.04 -0.039,0.016 -0.077,0.035 -0.113,0.057 -0.036,0.021 -0.071,0.044 -0.104,0.07 -0.034,0.025 -0.065,0.053 -0.095,0.083 -0.03,0.029 -0.058,0.061 -0.083,0.094 -0.026,0.033 -0.049,0.068 -0.07,0.105 -0.021,0.036 -0.04,0.074 -0.057,0.112 -0.016,0.039 -0.029,0.079 -0.04,0.12 -0.012,0.04 -0.02,0.081 -0.026,0.123 -0.006,0.041 -0.009,0.083 -0.008,0.125 l 0,49.905 c 0,0.042 0.002,0.084 0.008,0.126 0.006,0.041 0.014,0.083 0.026,0.123 0.01,0.041 0.024,0.081 0.04,0.119 0.017,0.039 0.036,0.077 0.057,0.113 0.021,0.036 0.044,0.071 0.07,0.104 0.025,0.034 0.053,0.065 0.083,0.095 0.03,0.03 0.061,0.058 0.095,0.083 0.033,0.026 0.068,0.049 0.104,0.07 0.036,0.021 0.074,0.04 0.113,0.057 0.038,0.016 0.078,0.029 0.119,0.04 0.04,0.012 0.082,0.02 0.123,0.026 0.042,0.006 0.084,0.009 0.126,0.009 l 49.905,0 c 0.042,0 0.084,-0.003 0.125,-0.009 0.042,-0.006 0.083,-0.014 0.124,-0.026 0.04,-0.01 0.08,-0.024 0.119,-0.04 0.038,-0.016 0.076,-0.035 0.112,-0.057 0.037,-0.021 0.072,-0.044 0.105,-0.07 0.033,-0.025 0.065,-0.053 0.094,-0.083 0.03,-0.03 0.058,-0.061 0.084,-0.095 0.025,-0.033 0.048,-0.068 0.07,-0.104 0.021,-0.036 0.039,-0.074 0.056,-0.113 0.016,-0.038 0.03,-0.078 0.04,-0.119 0.012,-0.04 0.021,-0.082 0.027,-0.123 C -0.003,49.981 0,49.939 0,49.897 L 0,49.89 0,0"
             style="fill:#003399;fill-opacity:1;fill-rule:evenodd;stroke:none"
             id="path3771"
             inkscape:connector-curvature="0" />
        </g>
        <g
           id="g3773"
           transform="matrix(0,1.25,1.25,0,428.81875,513.44209)">
          <path
             d="m 0,0 0,49.89 0,0.013 0,0.013 c -0.001,0.145 -0.011,0.289 -0.031,0.432 -0.019,0.144 -0.048,0.286 -0.088,0.425 -0.036,0.14 -0.083,0.278 -0.139,0.411 -0.056,0.133 -0.121,0.263 -0.195,0.387 -0.072,0.126 -0.152,0.246 -0.241,0.361 -0.088,0.114 -0.184,0.223 -0.286,0.325 -0.102,0.103 -0.211,0.199 -0.325,0.287 -0.115,0.088 -0.236,0.169 -0.361,0.24 -0.125,0.074 -0.254,0.138 -0.388,0.194 -0.133,0.056 -0.271,0.103 -0.41,0.14 -0.14,0.04 -0.282,0.07 -0.425,0.09 -0.144,0.02 -0.288,0.03 -0.432,0.029 l -49.943,0 c -0.144,-0.001 -0.289,-0.011 -0.432,-0.03 -0.144,-0.019 -0.285,-0.049 -0.425,-0.089 -0.14,-0.036 -0.277,-0.082 -0.41,-0.138 -0.134,-0.057 -0.263,-0.122 -0.388,-0.196 -0.125,-0.071 -0.246,-0.152 -0.361,-0.24 -0.114,-0.088 -0.223,-0.184 -0.324,-0.287 -0.104,-0.102 -0.199,-0.211 -0.288,-0.325 -0.088,-0.115 -0.168,-0.235 -0.24,-0.361 -0.073,-0.125 -0.138,-0.254 -0.194,-0.387 -0.056,-0.134 -0.103,-0.271 -0.14,-0.411 -0.04,-0.139 -0.07,-0.281 -0.09,-0.425 -0.02,-0.143 -0.03,-0.288 -0.029,-0.432 l 0,-49.942 c 10e-4,-0.145 0.011,-0.289 0.03,-0.433 0.02,-0.143 0.049,-0.285 0.089,-0.424 0.036,-0.141 0.082,-0.278 0.138,-0.411 0.057,-0.133 0.122,-0.263 0.196,-0.388 0.072,-0.125 0.152,-0.246 0.24,-0.36 0.089,-0.115 0.184,-0.223 0.288,-0.325 0.101,-0.103 0.21,-0.199 0.324,-0.287 0.115,-0.089 0.236,-0.169 0.361,-0.241 0.125,-0.073 0.255,-0.138 0.388,-0.194 0.133,-0.055 0.271,-0.102 0.41,-0.14 0.14,-0.039 0.282,-0.069 0.425,-0.089 0.143,-0.021 0.288,-0.031 0.432,-0.029 l 0.013,0 0.014,-10e-4 49.889,0 0.013,10e-4 0.014,0 c 0.144,0 0.288,0.01 0.432,0.03 0.143,0.019 0.285,0.049 0.425,0.088 0.14,0.036 0.277,0.083 0.41,0.139 0.134,0.056 0.263,0.121 0.388,0.195 0.125,0.072 0.246,0.153 0.36,0.241 0.115,0.088 0.224,0.184 0.326,0.287 0.102,0.102 0.198,0.21 0.287,0.325 0.088,0.114 0.168,0.235 0.24,0.36 0.073,0.125 0.138,0.255 0.194,0.388 0.056,0.134 0.103,0.271 0.14,0.411 0.04,0.139 0.07,0.281 0.09,0.425 0.02,0.143 0.03,0.287 0.029,0.432 L 0,-0.013 0,0 z"
             style="fill:none;stroke:#231f20;stroke-width:0.22260211;stroke-linecap:butt;stroke-linejoin:bevel;stroke-miterlimit:22.9260006;stroke-opacity:1;stroke-dasharray:none"
             id="path3775"
             inkscape:connector-curvature="0" />
          <g
             id="g3777"
             transform="translate(0.054,0)">
            <path
               d="M 0,0 0,-0.027 C -0.001,-0.174 -0.011,-0.32 -0.031,-0.466 -0.05,-0.612 -0.081,-0.756 -0.12,-0.897 -0.157,-1.04 -0.205,-1.18 -0.262,-1.315 -0.319,-1.45 -0.385,-1.582 -0.46,-1.708 -0.533,-1.836 -0.615,-1.958 -0.705,-2.075 -0.794,-2.192 -0.892,-2.302 -0.996,-2.405 -1.1,-2.51 -1.21,-2.608 -1.326,-2.697 -1.443,-2.787 -1.565,-2.868 -1.693,-2.941 -1.82,-3.016 -1.951,-3.082 -2.087,-3.138 -2.223,-3.195 -2.362,-3.243 -2.504,-3.281 -2.646,-3.321 -2.79,-3.352 -2.936,-3.372 -3.081,-3.393 -3.228,-3.402 -3.375,-3.401 l -49.943,0 c -0.147,0 -0.294,0.011 -0.439,0.03 -0.146,0.02 -0.29,0.05 -0.431,0.09 -0.143,0.037 -0.283,0.084 -0.419,0.141 -0.135,0.057 -0.266,0.123 -0.392,0.199 -0.128,0.073 -0.251,0.155 -0.367,0.244 -0.117,0.09 -0.227,0.187 -0.331,0.292 -0.104,0.103 -0.202,0.213 -0.291,0.33 -0.09,0.116 -0.172,0.239 -0.245,0.367 -0.074,0.126 -0.14,0.258 -0.197,0.393 -0.057,0.136 -0.104,0.275 -0.142,0.418 -0.041,0.141 -0.071,0.285 -0.092,0.431 -0.02,0.146 -0.03,0.293 -0.029,0.439 l 0,49.943 c 10e-4,0.147 0.011,0.294 0.031,0.44 0.02,0.145 0.05,0.29 0.09,0.431 0.036,0.143 0.084,0.282 0.141,0.418 0.057,0.135 0.123,0.267 0.198,0.393 0.073,0.128 0.155,0.25 0.245,0.367 0.089,0.116 0.187,0.227 0.291,0.33 0.104,0.105 0.214,0.202 0.331,0.292 0.116,0.09 0.239,0.171 0.367,0.244 0.126,0.075 0.257,0.141 0.393,0.197 0.136,0.057 0.275,0.105 0.418,0.143 0.141,0.04 0.285,0.07 0.431,0.091 0.145,0.021 0.292,0.03 0.439,0.029 l 49.943,0 c 0.147,0 0.294,-0.011 0.439,-0.031 0.146,-0.019 0.29,-0.049 0.432,-0.089 0.143,-0.037 0.282,-0.084 0.417,-0.142 0.136,-0.057 0.267,-0.123 0.394,-0.198 0.127,-0.073 0.25,-0.155 0.367,-0.244 0.116,-0.09 0.226,-0.187 0.33,-0.292 0.105,-0.103 0.202,-0.214 0.292,-0.33 0.089,-0.117 0.171,-0.239 0.244,-0.367 0.075,-0.127 0.14,-0.258 0.197,-0.394 0.057,-0.135 0.104,-0.275 0.143,-0.417 0.039,-0.141 0.07,-0.286 0.091,-0.431 0.02,-0.146 0.03,-0.293 0.029,-0.44 L 0,0 z"
               style="fill:none;stroke:#231f20;stroke-width:1.95491886;stroke-linecap:butt;stroke-linejoin:bevel;stroke-miterlimit:22.9260006;stroke-opacity:1;stroke-dasharray:none"
               id="path3779"
               inkscape:connector-curvature="0" />
          </g>
        </g>
        <g
           id="g3781"
           transform="matrix(0,1.25,1.25,0,461.61875,460.19209)">
          <path
             d="m 0,0 0,-4.542 c 0,-0.035 -0.003,-0.07 -0.007,-0.104 -0.005,-0.035 -0.012,-0.069 -0.022,-0.103 -0.008,-0.034 -0.02,-0.067 -0.033,-0.099 -0.014,-0.033 -0.03,-0.064 -0.047,-0.094 -0.018,-0.031 -0.037,-0.06 -0.059,-0.087 -0.021,-0.028 -0.044,-0.054 -0.069,-0.079 -0.025,-0.025 -0.051,-0.048 -0.079,-0.069 -0.028,-0.022 -0.057,-0.041 -0.087,-0.059 -0.03,-0.017 -0.062,-0.033 -0.094,-0.047 -0.032,-0.013 -0.065,-0.025 -0.099,-0.034 -0.034,-0.009 -0.068,-0.017 -0.103,-0.022 -0.035,-0.004 -0.069,-0.007 -0.105,-0.006 l -0.012,0 c -0.035,0 -0.07,0.002 -0.105,0.007 -0.035,0.005 -0.069,0.012 -0.103,0.021 -0.034,0.009 -0.067,0.02 -0.099,0.034 -0.032,0.014 -0.064,0.03 -0.094,0.047 -0.03,0.018 -0.059,0.037 -0.087,0.059 -0.028,0.021 -0.054,0.044 -0.078,0.069 -0.025,0.024 -0.049,0.051 -0.07,0.079 -0.021,0.027 -0.041,0.056 -0.058,0.087 -0.018,0.03 -0.034,0.061 -0.047,0.094 -0.014,0.032 -0.025,0.065 -0.034,0.099 -0.01,0.034 -0.017,0.068 -0.022,0.103 -0.004,0.034 -0.007,0.069 -0.007,0.104 l 0,11.351 c 0.001,0.036 0.003,0.07 0.008,0.105 0.004,0.035 0.012,0.069 0.021,0.103 0.009,0.034 0.02,0.067 0.034,0.099 0.013,0.033 0.029,0.064 0.047,0.094 0.017,0.03 0.037,0.059 0.058,0.087 0.021,0.028 0.045,0.054 0.07,0.079 0.024,0.025 0.05,0.048 0.078,0.069 0.028,0.022 0.057,0.041 0.087,0.059 0.03,0.017 0.062,0.033 0.094,0.047 0.033,0.013 0.066,0.024 0.099,0.033 0.034,0.01 0.068,0.017 0.103,0.022 0.035,0.004 0.07,0.007 0.105,0.007 l 0.012,0 C -0.768,7.612 -0.734,7.61 -0.699,7.605 -0.664,7.601 -0.63,7.594 -0.596,7.584 -0.562,7.576 -0.529,7.565 -0.497,7.551 -0.465,7.537 -0.433,7.521 -0.403,7.504 -0.373,7.486 -0.344,7.466 -0.316,7.445 -0.288,7.424 -0.262,7.401 -0.237,7.376 -0.212,7.351 -0.189,7.325 -0.168,7.297 -0.146,7.269 -0.127,7.241 -0.109,7.21 -0.092,7.18 -0.076,7.148 -0.063,7.116 -0.049,7.084 -0.038,7.051 -0.029,7.017 -0.019,6.983 -0.012,6.949 -0.007,6.914 -0.002,6.879 0,6.845 0,6.809 l 0,-4.541 7.559,0 0,1.566 8.099,0 0,2.699 0.81,0 0,-1.08 2.97,0 -10e-4,10.529 -1.079,0 0,0.81 -2.7,0 0,1.08 14.038,0 0,-1.08 -2.699,0 0,-0.81 -2.16,0 0,-9.864 C 24.87,6.099 24.904,6.081 24.937,6.063 24.97,6.044 25.003,6.025 25.036,6.006 25.25,5.881 25.455,5.742 25.649,5.589 25.843,5.436 26.027,5.269 26.198,5.09 26.373,4.914 26.535,4.726 26.682,4.528 26.831,4.329 26.965,4.121 27.084,3.904 27.206,3.689 27.313,3.465 27.405,3.235 27.497,3.006 27.573,2.769 27.632,2.529 27.695,2.29 27.741,2.046 27.77,1.8 27.799,1.555 27.811,1.307 27.806,1.059 27.804,0.812 27.786,0.565 27.75,0.32 27.715,0.075 27.662,-0.167 27.594,-0.405 c -0.066,-0.239 -0.148,-0.473 -0.245,-0.701 -0.098,-0.227 -0.211,-0.448 -0.34,-0.659 -0.125,-0.213 -0.265,-0.417 -0.419,-0.61 -0.154,-0.194 -0.32,-0.379 -0.497,-0.552 -0.174,-0.177 -0.361,-0.342 -0.558,-0.494 -0.196,-0.15 -0.406,-0.281 -0.627,-0.392 l -0.036,-0.018 -0.035,-0.018 0,-5.816 c 0,-0.077 0.002,-0.153 0.003,-0.23 0.002,-0.076 0.005,-0.152 0.01,-0.229 0.012,-0.17 0.035,-0.34 0.067,-0.508 0.033,-0.168 0.074,-0.334 0.123,-0.498 0.064,-0.228 0.143,-0.45 0.235,-0.667 0.092,-0.217 0.199,-0.427 0.321,-0.629 0.119,-0.203 0.251,-0.398 0.397,-0.583 0.147,-0.185 0.306,-0.36 0.476,-0.524 0.168,-0.165 0.346,-0.32 0.535,-0.461 0.189,-0.142 0.387,-0.269 0.594,-0.382 0.205,-0.115 0.418,-0.215 0.638,-0.301 0.219,-0.086 0.444,-0.16 0.671,-0.221 0.125,-0.036 0.251,-0.067 0.379,-0.094 0.126,-0.026 0.254,-0.045 0.383,-0.056 0.094,-0.009 0.189,-0.014 0.283,-0.015 0.095,-0.002 0.189,-0.002 0.284,-10e-4 l 0,-5.398 -0.071,-0.001 -0.07,0.001 c -0.471,0.002 -0.942,0.036 -1.408,0.103 -0.467,0.067 -0.929,0.168 -1.382,0.301 -0.456,0.123 -0.901,0.278 -1.335,0.465 -0.433,0.186 -0.852,0.403 -1.255,0.648 -0.407,0.238 -0.797,0.505 -1.167,0.796 -0.37,0.292 -0.72,0.609 -1.047,0.949 -0.331,0.335 -0.638,0.693 -0.92,1.071 -0.282,0.378 -0.538,0.775 -0.767,1.188 -0.234,0.409 -0.439,0.835 -0.615,1.273 -0.176,0.437 -0.319,0.887 -0.429,1.345 -0.095,0.375 -0.169,0.755 -0.22,1.139 -0.052,0.383 -0.085,0.768 -0.099,1.155 -0.003,0.06 -0.005,0.121 -0.007,0.182 -0.002,0.061 -0.005,0.122 -0.006,0.183 l 0,6.478 -2.97,0 0,-1.079 -0.81,0 0,2.699 -8.099,0 L 7.559,0 0,0"
             style="fill:#ffffff;fill-opacity:1;fill-rule:evenodd;stroke:none"
             id="path3783"
             inkscape:connector-curvature="0" />
        </g>
      </g>
    </g>
  </g>
</svg>
