<?xml version="1.0" encoding="UTF-8" standalone="no"?>
<!-- Created with Inkscape (http://www.inkscape.org/) -->

<svg
   xmlns:dc="http://purl.org/dc/elements/1.1/"
   xmlns:cc="http://creativecommons.org/ns#"
   xmlns:rdf="http://www.w3.org/1999/02/22-rdf-syntax-ns#"
   xmlns:svg="http://www.w3.org/2000/svg"
   xmlns="http://www.w3.org/2000/svg"
   xmlns:sodipodi="http://sodipodi.sourceforge.net/DTD/sodipodi-0.dtd"
   xmlns:inkscape="http://www.inkscape.org/namespaces/inkscape"
   width="60"
   height="60"
   id="svg2"
   version="1.1"
   inkscape:version="0.48.2 r9819"
   sodipodi:docname="Notice_B8.svg"
   style="display:inline"
   inkscape:export-filename="/Users/mherring/boatsw/oseam/openseamap/josm/icons/WindSurfing16.png"
   inkscape:export-xdpi="12"
   inkscape:export-ydpi="12">
  <defs
     id="defs4" />
  <sodipodi:namedview
     id="base"
     pagecolor="#ffffff"
     bordercolor="#666666"
     borderopacity="1.0"
     inkscape:pageopacity="0.0"
     inkscape:pageshadow="2"
     inkscape:zoom="8"
     inkscape:cx="29.177842"
     inkscape:cy="51.668915"
     inkscape:document-units="px"
     inkscape:current-layer="layer35"
     showgrid="true"
     inkscape:window-width="1920"
     inkscape:window-height="1088"
     inkscape:window-x="0"
     inkscape:window-y="0"
     inkscape:window-maximized="1"
     inkscape:snap-global="false">
    <inkscape:grid
       type="xygrid"
       id="grid3004"
       empspacing="5"
       visible="true"
       enabled="true"
       snapvisiblegridlinesonly="true" />
  </sodipodi:namedview>
  <metadata
     id="metadata7">
    <rdf:RDF>
      <cc:Work
         rdf:about="">
        <dc:format>image/svg+xml</dc:format>
        <dc:type
           rdf:resource="http://purl.org/dc/dcmitype/StillImage" />
        <dc:title />
      </cc:Work>
    </rdf:RDF>
  </metadata>
  <g
     inkscape:groupmode="layer"
     id="layer35"
     inkscape:label="B8"
     style="display:inline"
     transform="translate(0,-60)">
    <g
       transform="matrix(0.97034835,0,0,0.97034835,-956.98285,-753.72282)"
       id="layer1-7"
       inkscape:label="Ebene 1">
      <g
         transform="matrix(0.84290363,0,0,0.84291694,159.78945,136.58452)"
         id="g3082">
        <path
           d="m 992.33975,844.70197 0,49.60625 49.60625,0 0,-49.60625 -49.60625,0 z"
           style="fill:#ffffff;fill-opacity:1;fill-rule:nonzero;stroke:none"
           id="path7862-3"
           inkscape:connector-curvature="0" />
        <path
           id="path7846-5"
           style="fill:#ffffff;stroke:#000000;stroke-width:0.2782506;stroke-linecap:butt;stroke-linejoin:bevel;stroke-miterlimit:22.9260006;stroke-opacity:1;stroke-dasharray:none"
           d="m 985.94163,904.8931 62.43497,0 c 0.1813,-10e-4 0.3625,-0.0137 0.5413,-0.0375 0.1787,-0.025 0.3562,-0.0613 0.5312,-0.11125 0.175,-0.045 0.3475,-0.10375 0.5138,-0.17375 0.1662,-0.07 0.3287,-0.15125 0.4837,-0.24375 0.1575,-0.09 0.3088,-0.19125 0.4513,-0.30125 0.1437,-0.11 0.28,-0.23 0.4075,-0.35875 0.1287,-0.1275 0.2487,-0.2625 0.3587,-0.40625 0.11,-0.14375 0.2113,-0.295 0.3,-0.45125 0.092,-0.15625 0.1738,-0.31875 0.2425,-0.485 0.071,-0.1675 0.1288,-0.33875 0.1763,-0.51375 0.049,-0.17375 0.086,-0.3525 0.1125,-0.53125 0.025,-0.17875 0.037,-0.36 0.036,-0.54 l 0,-62.46875 c -10e-4,-0.18125 -0.014,-0.36125 -0.039,-0.54 -0.024,-0.18 -0.061,-0.3575 -0.11,-0.5325 -0.045,-0.175 -0.1038,-0.34625 -0.1738,-0.51375 -0.07,-0.16625 -0.1525,-0.32875 -0.245,-0.48375 -0.09,-0.1575 -0.19,-0.3075 -0.3,-0.45125 -0.11,-0.14375 -0.23,-0.27875 -0.3587,-0.40625 -0.1275,-0.12875 -0.2638,-0.24875 -0.4075,-0.36 -0.1425,-0.11 -0.2938,-0.21 -0.4513,-0.3 -0.155,-0.0913 -0.3175,-0.1725 -0.4837,-0.2425 -0.1675,-0.07 -0.3388,-0.12875 -0.5138,-0.175 -0.175,-0.05 -0.3525,-0.0875 -0.5312,-0.1125 -0.1788,-0.025 -0.36,-0.0375 -0.5413,-0.0362 l -62.46747,0 c -0.18125,0 -0.3625,0.0137 -0.54125,0.0375 -0.18,0.0238 -0.3575,0.0613 -0.53125,0.11125 -0.175,0.045 -0.3475,0.1025 -0.51375,0.1725 -0.1675,0.0712 -0.32875,0.1525 -0.485,0.245 -0.15625,0.09 -0.3075,0.19 -0.45125,0.3 -0.1425,0.11125 -0.27875,0.23125 -0.40625,0.36 -0.12875,0.1275 -0.24875,0.2625 -0.35875,0.40625 -0.11125,0.14375 -0.21125,0.29375 -0.30125,0.45125 -0.0913,0.15625 -0.1725,0.3175 -0.2425,0.485 -0.07,0.16625 -0.12875,0.33875 -0.175,0.5125 -0.05,0.175 -0.0875,0.3525 -0.1125,0.5325 -0.025,0.17875 -0.0375,0.35875 -0.0362,0.54 l 0,62.46875 c 10e-4,0.18 0.0138,0.36125 0.0387,0.54 0.0238,0.18 0.06,0.3575 0.11,0.53125 0.045,0.175 0.10375,0.3475 0.17375,0.51375 0.07,0.1675 0.15125,0.32875 0.24375,0.485 0.09,0.15625 0.19125,0.3075 0.30125,0.45125 0.11,0.14375 0.23,0.27875 0.35875,0.40625 0.1275,0.12875 0.26375,0.24875 0.40625,0.35875 0.14375,0.11 0.295,0.21125 0.45125,0.30125 0.15625,0.0913 0.31875,0.1725 0.485,0.2425 0.1675,0.07 0.33875,0.1275 0.51375,0.175 0.175,0.05 0.3525,0.0875 0.53125,0.1125 0.17875,0.025 0.36,0.0375 0.54125,0.0362 l 0.0325,0 z"
           inkscape:connector-curvature="0" />
        <path
           d="m 985.94163,904.9606 -0.0337,0 c -0.18375,-10e-4 -0.3675,-0.0137 -0.54875,-0.0387 -0.1825,-0.0238 -0.36375,-0.0625 -0.54,-0.11125 -0.17875,-0.0462 -0.3525,-0.10625 -0.5225,-0.1775 -0.17,-0.0712 -0.33375,-0.15375 -0.4925,-0.2475 -0.15875,-0.0925 -0.3125,-0.19375 -0.4575,-0.30625 -0.14625,-0.1125 -0.28375,-0.23375 -0.41375,-0.365 -0.13125,-0.12875 -0.2525,-0.26625 -0.365,-0.4125 -0.1125,-0.14625 -0.21375,-0.29875 -0.305,-0.45875 -0.0937,-0.15875 -0.17625,-0.32375 -0.2475,-0.4925 -0.0713,-0.17 -0.13,-0.34375 -0.1775,-0.5225 -0.05,-0.17625 -0.0888,-0.3575 -0.11375,-0.54 -0.0263,-0.18125 -0.0388,-0.365 -0.0375,-0.54875 l 0,-62.46875 c 10e-4,-0.18375 0.0138,-0.3675 0.0387,-0.55 0.025,-0.1825 0.0625,-0.3625 0.1125,-0.53875 0.0462,-0.17875 0.105,-0.35375 0.17625,-0.52375 0.0713,-0.16875 0.15375,-0.33375 0.24875,-0.49125 0.0913,-0.16 0.1925,-0.3125 0.305,-0.45875 0.1125,-0.14625 0.23375,-0.28375 0.365,-0.41375 0.12875,-0.13 0.2675,-0.2525 0.4125,-0.36375 0.14625,-0.1125 0.3,-0.215 0.45875,-0.30625 0.15875,-0.0937 0.32375,-0.175 0.4925,-0.24625 0.17,-0.0712 0.345,-0.13 0.5225,-0.17875 0.17625,-0.05 0.3575,-0.0887 0.54,-0.11375 0.18125,-0.0263 0.365,-0.0375 0.54875,-0.0362 l 62.47002,0 c 0.1837,10e-4 0.3675,0.0137 0.5487,0.0375 0.1825,0.025 0.3625,0.0625 0.54,0.1125 0.1788,0.0463 0.3525,0.105 0.5225,0.1775 0.17,0.0712 0.3338,0.15375 0.4925,0.2475 0.1588,0.0913 0.3125,0.19375 0.4575,0.30625 0.1463,0.11125 0.285,0.23375 0.4138,0.36375 0.1312,0.13 0.2525,0.2675 0.365,0.41375 0.1112,0.14625 0.2137,0.29875 0.3062,0.45875 0.092,0.15875 0.175,0.3225 0.2463,0.4925 0.071,0.17 0.13,0.34375 0.1775,0.5225 0.051,0.17625 0.089,0.3575 0.115,0.53875 0.025,0.1825 0.038,0.36625 0.036,0.55 l 0,62.46875 c -10e-4,0.18375 -0.014,0.3675 -0.039,0.55 -0.025,0.18125 -0.062,0.3625 -0.1125,0.53875 -0.046,0.17875 -0.105,0.3525 -0.1763,0.5225 -0.071,0.17 -0.1537,0.33375 -0.2475,0.4925 -0.093,0.16 -0.195,0.3125 -0.3062,0.45875 -0.1125,0.145 -0.2338,0.28375 -0.365,0.4125 -0.1288,0.13125 -0.2675,0.25375 -0.4138,0.365 -0.145,0.1125 -0.2987,0.215 -0.4575,0.30625 -0.1587,0.0925 -0.3237,0.175 -0.4925,0.24625 -0.17,0.0712 -0.345,0.13 -0.5225,0.17875 -0.1775,0.05 -0.3575,0.0875 -0.54,0.11375 -0.1812,0.025 -0.365,0.0375 -0.5487,0.0362 l -62.43627,0 z"
           style="fill:#ffffff;stroke:#000000;stroke-width:2.44523692;stroke-linecap:butt;stroke-linejoin:bevel;stroke-miterlimit:22.9260006;stroke-opacity:1;stroke-dasharray:none"
           id="path7850-3"
           inkscape:connector-curvature="0" />
        <path
           id="path7842-6"
           style="fill:#e72512;fill-opacity:1;fill-rule:evenodd;stroke:none"
           d="m 986.44893,902.72303 -0.0197,0 c -0.10944,-9.8e-4 -0.21765,-0.009 -0.32586,-0.0234 -0.10821,-0.0148 -0.21519,-0.0369 -0.32094,-0.0664 -0.10575,-0.0271 -0.20904,-0.0628 -0.30987,-0.10452 -0.10083,-0.0418 -0.19798,-0.091 -0.29143,-0.14756 -0.0946,-0.0541 -0.18568,-0.11436 -0.27298,-0.18076 -0.0861,-0.0677 -0.16847,-0.13895 -0.24471,-0.21765 -0.0775,-0.0762 -0.15002,-0.1574 -0.21642,-0.2447 -0.0664,-0.0861 -0.12665,-0.17707 -0.18076,-0.27176 -0.0553,-0.0934 -0.10452,-0.19182 -0.14633,-0.29265 -0.043,-0.10083 -0.0775,-0.20413 -0.10575,-0.30865 -0.0307,-0.10575 -0.0528,-0.21273 -0.0676,-0.32094 -0.016,-0.10821 -0.0234,-0.21764 -0.0221,-0.32585 l 0,-61.42614 c 0,-0.10944 0.009,-0.21888 0.0234,-0.32586 0.0136,-0.10821 0.0356,-0.21519 0.0664,-0.32094 0.027,-0.10575 0.0615,-0.20904 0.10452,-0.30987 0.0418,-0.10083 0.091,-0.19797 0.14756,-0.29266 0.0541,-0.0935 0.11436,-0.18444 0.18076,-0.27175 0.0664,-0.0861 0.13895,-0.16723 0.21642,-0.2447 0.0762,-0.0775 0.15863,-0.15002 0.2447,-0.21642 0.0874,-0.0664 0.1783,-0.12665 0.27299,-0.18199 0.0935,-0.0541 0.19182,-0.10329 0.29143,-0.1451 0.10083,-0.043 0.20412,-0.0775 0.30987,-0.10575 0.10575,-0.0307 0.21273,-0.0529 0.32094,-0.0677 0.10821,-0.0159 0.21642,-0.0233 0.32586,-0.0221 l 61.42637,0 c 0.1095,0 0.2177,0.007 0.3259,0.0221 0.1082,0.0148 0.2152,0.0369 0.3209,0.0677 0.1058,0.0271 0.2091,0.0615 0.3099,0.10452 0.1008,0.0418 0.198,0.091 0.2927,0.14633 0.093,0.0553 0.1844,0.11559 0.2705,0.18199 0.087,0.0664 0.1685,0.13895 0.2459,0.21642 0.078,0.0774 0.15,0.15862 0.2164,0.2447 0.066,0.0873 0.1267,0.1783 0.1808,0.27175 0.055,0.0947 0.1045,0.19183 0.1463,0.29266 0.042,0.10083 0.078,0.20412 0.1058,0.30987 0.03,0.10575 0.053,0.21273 0.068,0.32094 0.016,0.10698 0.024,0.21642 0.023,0.32586 l 0,61.42614 c 0,0.10821 -0.01,0.21764 -0.023,0.32585 -0.015,0.10821 -0.038,0.21519 -0.068,0.32094 -0.027,0.10452 -0.061,0.20904 -0.1045,0.30988 -0.042,0.0996 -0.091,0.19797 -0.1476,0.29142 -0.054,0.0946 -0.1144,0.18568 -0.1808,0.27176 -0.067,0.0861 -0.1389,0.16846 -0.2164,0.2447 -0.078,0.0787 -0.1586,0.15125 -0.2459,0.21765 -0.087,0.0664 -0.1771,0.12665 -0.2705,0.18076 -0.094,0.0554 -0.1919,0.10452 -0.2927,0.14633 -0.1008,0.0418 -0.2041,0.0775 -0.3099,0.10575 -0.1057,0.0295 -0.2127,0.0528 -0.3209,0.0677 -0.1082,0.0159 -0.2164,0.0221 -0.3259,0.0221 l -0.02,0 -61.38709,0 z"
           inkscape:connector-curvature="0" />
        <path
           d="m 993.50538,845.8681 0,47.275 47.27502,0 0,-47.275 -47.27502,0 z"
           style="fill:#ffffff;fill-opacity:1;fill-rule:nonzero;stroke:none"
           id="path7852-8"
           inkscape:connector-curvature="0" />
        <g
           id="g7874"
           transform="matrix(0,1.25,1.25,0,1022.4572,881.19692)"
           style="fill:#000000;stroke:#000000;stroke-width:1.03055763">
          <path
             d="M 0,0 0.033,0 C 0.217,-0.001 0.401,-0.014 0.583,-0.039 0.765,-0.063 0.945,-0.101 1.122,-0.15 1.3,-0.197 1.474,-0.256 1.644,-0.327 1.813,-0.398 1.978,-0.481 2.136,-0.575 2.295,-0.667 2.448,-0.769 2.594,-0.881 2.74,-0.993 2.877,-1.115 3.007,-1.245 3.138,-1.375 3.26,-1.512 3.372,-1.658 3.484,-1.804 3.586,-1.957 3.677,-2.116 3.77,-2.275 3.852,-2.439 3.923,-2.608 3.994,-2.778 4.054,-2.952 4.101,-3.13 4.152,-3.307 4.19,-3.487 4.215,-3.67 4.241,-3.851 4.253,-4.035 4.252,-4.219 l 0,-0.066 C 4.251,-4.469 4.238,-4.652 4.213,-4.835 4.189,-5.017 4.151,-5.197 4.101,-5.374 4.055,-5.552 3.996,-5.726 3.925,-5.896 3.854,-6.065 3.771,-6.229 3.677,-6.388 3.585,-6.547 3.483,-6.7 3.371,-6.846 3.259,-6.992 3.137,-7.129 3.007,-7.259 2.878,-7.389 2.74,-7.512 2.594,-7.624 2.448,-7.735 2.295,-7.838 2.136,-7.929 1.977,-8.022 1.813,-8.104 1.643,-8.175 1.474,-8.246 1.3,-8.306 1.122,-8.353 0.945,-8.404 0.764,-8.442 0.582,-8.467 0.401,-8.493 0.217,-8.505 0.033,-8.504 l -18.775,0 c -0.184,10e-4 -0.367,0.014 -0.549,0.039 -0.183,0.024 -0.363,0.062 -0.54,0.112 -0.178,0.046 -0.352,0.105 -0.521,0.176 -0.17,0.072 -0.334,0.154 -0.492,0.248 -0.16,0.092 -0.313,0.194 -0.459,0.306 -0.145,0.112 -0.283,0.234 -0.412,0.364 -0.131,0.13 -0.253,0.267 -0.365,0.413 -0.112,0.146 -0.214,0.299 -0.305,0.458 -0.094,0.159 -0.176,0.323 -0.247,0.493 -0.071,0.169 -0.13,0.344 -0.178,0.521 -0.05,0.177 -0.088,0.358 -0.114,0.54 -0.026,0.182 -0.038,0.365 -0.037,0.549 l 0,0.066 c 10e-4,0.184 0.014,0.368 0.039,0.55 0.025,0.182 0.062,0.362 0.112,0.539 0.046,0.178 0.105,0.352 0.176,0.522 0.072,0.169 0.155,0.333 0.249,0.492 0.091,0.159 0.193,0.312 0.305,0.458 0.112,0.146 0.234,0.283 0.365,0.413 0.129,0.131 0.267,0.253 0.412,0.365 0.146,0.112 0.299,0.214 0.459,0.305 0.158,0.093 0.323,0.175 0.492,0.246 0.17,0.071 0.344,0.131 0.521,0.179 0.177,0.05 0.358,0.088 0.54,0.113 0.182,0.026 0.365,0.038 0.549,0.037 L 0,0 z"
             style="fill:#000000;fill-opacity:1;fill-rule:evenodd;stroke:#000000;stroke-width:0.22260047;stroke-linecap:butt;stroke-linejoin:bevel;stroke-miterlimit:22.9260006;stroke-opacity:1;stroke-dasharray:none"
             id="path7876"
             inkscape:connector-curvature="0" />
        </g>
      </g>
    </g>
  </g>
</svg>
