<?xml version="1.0" encoding="UTF-8" standalone="no"?>
<!-- Created with Inkscape (http://www.inkscape.org/) -->

<svg
   xmlns:dc="http://purl.org/dc/elements/1.1/"
   xmlns:cc="http://creativecommons.org/ns#"
   xmlns:rdf="http://www.w3.org/1999/02/22-rdf-syntax-ns#"
   xmlns:svg="http://www.w3.org/2000/svg"
   xmlns="http://www.w3.org/2000/svg"
   xmlns:sodipodi="http://sodipodi.sourceforge.net/DTD/sodipodi-0.dtd"
   xmlns:inkscape="http://www.inkscape.org/namespaces/inkscape"
   width="60"
   height="60"
   id="svg2"
   version="1.1"
   inkscape:version="0.48.2 r9819"
   sodipodi:docname="Notice_E5_7.svg"
   style="display:inline"
   inkscape:export-filename="/Users/mherring/boatsw/oseam/openseamap/josm/icons/WindSurfing16.png"
   inkscape:export-xdpi="12"
   inkscape:export-ydpi="12">
  <defs
     id="defs4" />
  <sodipodi:namedview
     id="base"
     pagecolor="#ffffff"
     bordercolor="#666666"
     borderopacity="1.0"
     inkscape:pageopacity="0.0"
     inkscape:pageshadow="2"
     inkscape:zoom="5.3032952"
     inkscape:cx="14.367998"
     inkscape:cy="59.084222"
     inkscape:document-units="px"
     inkscape:current-layer="layer13"
     showgrid="true"
     inkscape:window-width="1920"
     inkscape:window-height="1088"
     inkscape:window-x="0"
     inkscape:window-y="0"
     inkscape:window-maximized="1"
     inkscape:snap-global="false">
    <inkscape:grid
       type="xygrid"
       id="grid3004"
       empspacing="5"
       visible="true"
       enabled="true"
       snapvisiblegridlinesonly="true" />
  </sodipodi:namedview>
  <metadata
     id="metadata7">
    <rdf:RDF>
      <cc:Work
         rdf:about="">
        <dc:format>image/svg+xml</dc:format>
        <dc:type
           rdf:resource="http://purl.org/dc/dcmitype/StillImage" />
        <dc:title />
      </cc:Work>
    </rdf:RDF>
  </metadata>
  <g
     inkscape:groupmode="layer"
     id="layer13"
     inkscape:label="E5.7"
     style="display:inline"
     transform="translate(0,-60)">
    <g
       transform="matrix(0.97220729,0,0,0.97220729,-310.27266,-427.5666)"
       id="layer1-11"
       inkscape:label="Ebene 1">
      <g
         transform="matrix(0.84344961,0,0,0.8434498,54.792648,83.341406)"
         id="g2993">
        <path
           d="m 318.81931,567.7953 -0.0337,0 c -0.18375,-10e-4 -0.36625,-0.0137 -0.54875,-0.0387 -0.1825,-0.0238 -0.3625,-0.0625 -0.53875,-0.11125 -0.17875,-0.0462 -0.35375,-0.10625 -0.5225,-0.1775 -0.17,-0.0712 -0.33375,-0.15375 -0.49125,-0.2475 -0.16,-0.0913 -0.3125,-0.19375 -0.45875,-0.30625 -0.14625,-0.11125 -0.28375,-0.23375 -0.4125,-0.36375 -0.13125,-0.13 -0.25375,-0.2675 -0.365,-0.4125 -0.1125,-0.14625 -0.21375,-0.29875 -0.30625,-0.45875 -0.0925,-0.15875 -0.175,-0.3225 -0.245,-0.4925 -0.0713,-0.17 -0.13125,-0.34375 -0.17875,-0.52125 -0.05,-0.1775 -0.0888,-0.3575 -0.11375,-0.54 -0.0263,-0.18125 -0.0375,-0.365 -0.0375,-0.54875 l 0,-62.42875 c 10e-4,-0.18375 0.015,-0.3675 0.0388,-0.54875 0.025,-0.1825 0.0625,-0.3625 0.1125,-0.54 0.0463,-0.1775 0.105,-0.3525 0.17625,-0.5225 0.0712,-0.16875 0.15375,-0.3325 0.2475,-0.49125 0.0925,-0.15875 0.195,-0.3125 0.30625,-0.4575 0.1125,-0.14625 0.23375,-0.28375 0.365,-0.41375 0.12875,-0.13 0.26625,-0.2525 0.4125,-0.36375 0.145,-0.1125 0.29875,-0.215 0.45875,-0.30625 0.1575,-0.0925 0.3225,-0.175 0.49125,-0.24625 0.17,-0.0712 0.34375,-0.13 0.5225,-0.1775 0.17625,-0.0512 0.35625,-0.0888 0.53875,-0.115 0.1825,-0.025 0.36625,-0.0375 0.54875,-0.0363 l 62.42875,0 c 0.18375,10e-4 0.3675,0.0138 0.55,0.0388 0.18125,0.025 0.3625,0.0625 0.53875,0.1125 0.17875,0.045 0.3525,0.105 0.5225,0.17625 0.16875,0.0712 0.33375,0.15375 0.49125,0.2475 0.16,0.0913 0.3125,0.19375 0.45875,0.30625 0.145,0.11125 0.28375,0.23375 0.4125,0.36375 0.13125,0.13 0.2525,0.2675 0.365,0.41375 0.1125,0.145 0.21375,0.29875 0.305,0.4575 0.0937,0.15875 0.17625,0.3225 0.24625,0.4925 0.0712,0.17 0.13125,0.34375 0.17875,0.52125 0.05,0.1775 0.0875,0.3575 0.11375,0.54 0.0263,0.18125 0.0375,0.365 0.0363,0.54875 l 0,62.42875 c -10e-4,0.18375 -0.0138,0.3675 -0.0388,0.54875 -0.0237,0.1825 -0.0613,0.3625 -0.11125,0.54 -0.0463,0.1775 -0.105,0.3525 -0.1775,0.52125 -0.0712,0.17 -0.15375,0.33375 -0.2475,0.4925 -0.0913,0.15875 -0.19375,0.3125 -0.305,0.45875 -0.1125,0.145 -0.23375,0.2825 -0.365,0.4125 -0.12875,0.13125 -0.2675,0.2525 -0.4125,0.365 -0.14625,0.11125 -0.29875,0.21375 -0.45875,0.305 -0.15875,0.0937 -0.3225,0.175 -0.4925,0.24625 -0.16875,0.0712 -0.34375,0.13 -0.52125,0.17875 -0.17625,0.0488 -0.3575,0.0875 -0.53875,0.11375 -0.1825,0.025 -0.36625,0.0375 -0.55,0.0362 l -62.395,0 z"
           style="fill:#ffffff;stroke:#000000;stroke-width:0.27771857;stroke-linecap:butt;stroke-linejoin:bevel;stroke-miterlimit:22.9260006;stroke-opacity:1;stroke-dasharray:none"
           id="path18031-7"
           inkscape:connector-curvature="0" />
        <path
           id="path18023-9"
           style="fill:#003399;fill-opacity:1;fill-rule:evenodd;stroke:#231f20;stroke-width:0.27771857;stroke-linecap:butt;stroke-linejoin:bevel;stroke-miterlimit:22.9260006;stroke-opacity:1;stroke-dasharray:none"
           d="m 318.81931,564.7578 -0.01,0 c -0.0525,0 -0.105,-0.004 -0.15625,-0.0113 -0.0525,-0.006 -0.10375,-0.0175 -0.155,-0.0325 -0.05,-0.0125 -0.1,-0.03 -0.14875,-0.05 -0.0475,-0.02 -0.095,-0.0438 -0.14,-0.0713 -0.0463,-0.0263 -0.09,-0.055 -0.13125,-0.0875 -0.0412,-0.0312 -0.0813,-0.0662 -0.1175,-0.10375 -0.0375,-0.0362 -0.0725,-0.0762 -0.105,-0.1175 -0.0312,-0.0413 -0.06,-0.085 -0.0863,-0.13125 -0.0275,-0.045 -0.05,-0.0925 -0.0713,-0.14 -0.02,-0.0488 -0.0375,-0.0987 -0.05,-0.14875 -0.015,-0.0512 -0.025,-0.1025 -0.0325,-0.155 -0.007,-0.0512 -0.0113,-0.10375 -0.0113,-0.15625 l 0,-0.01 0,-62.3625 0,-0.009 c 0,-0.0525 0.004,-0.105 0.0113,-0.1575 0.007,-0.0513 0.0175,-0.10375 0.0325,-0.15375 0.0125,-0.0512 0.03,-0.10125 0.05,-0.14875 0.02,-0.0487 0.0437,-0.0962 0.0713,-0.14125 0.0263,-0.045 0.055,-0.0888 0.0875,-0.13125 0.0312,-0.0413 0.0663,-0.08 0.10375,-0.1175 0.0362,-0.0375 0.0763,-0.0725 0.1175,-0.10375 0.0412,-0.0325 0.085,-0.0613 0.13125,-0.0875 0.045,-0.0263 0.0925,-0.05 0.14,-0.0712 0.0487,-0.02 0.0987,-0.0363 0.14875,-0.05 0.0512,-0.015 0.1025,-0.025 0.155,-0.0325 0.0513,-0.007 0.10375,-0.0112 0.15625,-0.01 l 62.38125,0 c 0.0525,0 0.105,0.002 0.1575,0.01 0.0512,0.007 0.10375,0.0175 0.15375,0.0325 0.0512,0.0125 0.10125,0.03 0.14875,0.05 0.0488,0.0212 0.0963,0.0437 0.14125,0.0712 0.045,0.0263 0.0888,0.055 0.13,0.0875 0.0425,0.0312 0.0813,0.0662 0.11875,0.10375 0.0375,0.0375 0.0725,0.0762 0.10375,0.1175 0.0325,0.0425 0.0613,0.0862 0.0875,0.13125 0.0263,0.045 0.05,0.0925 0.0712,0.14125 0.02,0.0487 0.0363,0.0975 0.05,0.14875 0.015,0.05 0.025,0.1025 0.0325,0.15375 0.007,0.0525 0.0112,0.105 0.0112,0.1575 l 0,62.38125 c 0,0.0525 -0.004,0.105 -0.0112,0.15625 -0.007,0.0525 -0.0175,0.10375 -0.0325,0.155 -0.0125,0.05 -0.03,0.1 -0.05,0.14875 -0.02,0.0475 -0.0437,0.095 -0.0712,0.14 -0.0263,0.0462 -0.055,0.09 -0.0875,0.13125 -0.0312,0.0412 -0.0662,0.0812 -0.10375,0.1175 -0.0375,0.0375 -0.0762,0.0725 -0.11875,0.105 -0.0412,0.0312 -0.085,0.06 -0.13,0.0862 -0.045,0.0275 -0.0925,0.05 -0.14125,0.0713 -0.0475,0.02 -0.0975,0.0375 -0.14875,0.05 -0.05,0.015 -0.1025,0.0263 -0.15375,0.0325 -0.0525,0.007 -0.105,0.0113 -0.1575,0.0113 l -0.009,0 -62.3625,0 z"
           inkscape:connector-curvature="0" />
        <path
           id="path18027-7"
           style="fill:none;stroke:#231f20;stroke-width:2.43900084;stroke-linecap:butt;stroke-linejoin:bevel;stroke-miterlimit:22.9260006;stroke-opacity:1;stroke-dasharray:none"
           d="m 318.81931,567.7278 62.3625,0 0.0163,0 0.0163,0 c 0.18125,-10e-4 0.36125,-0.0137 0.54,-0.0387 0.18,-0.0238 0.3575,-0.06 0.53125,-0.11 0.175,-0.045 0.3475,-0.10375 0.51375,-0.17375 0.16625,-0.07 0.32875,-0.15125 0.48375,-0.24375 0.1575,-0.09 0.3075,-0.19 0.45125,-0.30125 0.1425,-0.11 0.27875,-0.23 0.40625,-0.3575 0.12875,-0.1275 0.24875,-0.26375 0.35875,-0.40625 0.11,-0.14375 0.21,-0.295 0.3,-0.45125 0.0925,-0.15625 0.1725,-0.3175 0.2425,-0.485 0.07,-0.16625 0.12875,-0.33875 0.175,-0.5125 0.05,-0.175 0.0875,-0.3525 0.1125,-0.53125 0.025,-0.17875 0.0375,-0.36 0.0362,-0.54 l 0,-62.42875 c -10e-4,-0.18 -0.0137,-0.36125 -0.0375,-0.54 -0.0238,-0.18 -0.0613,-0.35625 -0.11125,-0.53125 -0.045,-0.175 -0.1025,-0.34625 -0.1725,-0.5125 -0.0712,-0.1675 -0.1525,-0.32875 -0.245,-0.485 -0.09,-0.15625 -0.19,-0.3075 -0.3,-0.45125 -0.11,-0.1425 -0.23,-0.27875 -0.35875,-0.405 -0.1275,-0.13 -0.26375,-0.24875 -0.40625,-0.36 -0.14375,-0.11 -0.29375,-0.21 -0.45125,-0.3 -0.15625,-0.0913 -0.3175,-0.1725 -0.48375,-0.2425 -0.1675,-0.07 -0.33875,-0.12875 -0.51375,-0.175 -0.17375,-0.05 -0.35125,-0.0875 -0.53125,-0.1125 -0.17875,-0.025 -0.36,-0.0375 -0.54,-0.0362 l -62.4275,0 c -0.18125,0.001 -0.36125,0.0137 -0.54125,0.0375 -0.17875,0.025 -0.35625,0.0613 -0.53,0.11125 -0.175,0.045 -0.3475,0.1025 -0.51375,0.1725 -0.16625,0.0713 -0.32875,0.1525 -0.485,0.245 -0.15625,0.09 -0.3075,0.19 -0.45,0.3 -0.14375,0.11125 -0.27875,0.23 -0.40625,0.36 -0.12875,0.12625 -0.24875,0.2625 -0.35875,0.405 -0.11,0.14375 -0.21125,0.295 -0.30125,0.45125 -0.0913,0.15625 -0.1725,0.31875 -0.2425,0.485 -0.0687,0.16625 -0.1275,0.33875 -0.175,0.5125 -0.0488,0.175 -0.0863,0.3525 -0.1125,0.53125 -0.025,0.17875 -0.0375,0.36 -0.035,0.54 l 0,0.0175 -10e-4,0.0162 0,62.36125 10e-4,0.0163 0,0.0175 c 0.001,0.18 0.0125,0.36125 0.0375,0.54 0.0238,0.17875 0.0612,0.35625 0.11,0.53125 0.045,0.175 0.10375,0.34625 0.17375,0.5125 0.07,0.1675 0.15125,0.32875 0.24375,0.485 0.09,0.15625 0.19125,0.3075 0.30125,0.45 0.11,0.14375 0.23,0.28 0.35875,0.4075 0.1275,0.1275 0.2625,0.24875 0.40625,0.35875 0.1425,0.11 0.29375,0.21 0.45,0.3 0.15625,0.0913 0.31875,0.1725 0.485,0.2425 0.1675,0.07 0.33875,0.12875 0.51375,0.175 0.17375,0.05 0.35125,0.0875 0.53125,0.1125 0.17875,0.025 0.35875,0.0375 0.54,0.0362 l 0.0163,0 0.0163,0 z"
           inkscape:connector-curvature="0" />
        <path
           id="path18035-9"
           style="fill:#ffffff;fill-opacity:1;fill-rule:evenodd;stroke:none"
           d="m 375.72931,550.5853 c 0.006,-0.01 0.0125,-0.02 0.0188,-0.03 l -25.8,-44.51375 -25.71,44.48875 0.0175,0.0275 0.0163,0.0275 51.4575,0"
           inkscape:connector-curvature="0" />
        <g
           id="g3913"
           transform="matrix(0,1.25,1.25,0,350.40951,547.27341)"
           style="fill:#003399;fill-opacity:1">
          <path
             d="M 0,0 -6.418,4.238 -6.426,4.243 C -6.439,4.252 -6.453,4.259 -6.466,4.265 -6.48,4.271 -6.494,4.276 -6.509,4.279 -6.523,4.284 -6.537,4.287 -6.552,4.289 -6.567,4.29 -6.581,4.291 -6.596,4.29 -6.611,4.29 -6.626,4.289 -6.64,4.286 -6.655,4.283 -6.669,4.279 -6.683,4.275 -6.697,4.27 -6.711,4.264 -6.725,4.257 -6.738,4.251 -6.751,4.243 -6.764,4.234 -6.776,4.225 -6.789,4.215 -6.8,4.205 -6.812,4.194 -6.822,4.183 -6.833,4.171 -6.843,4.158 -6.852,4.146 -6.861,4.132 -6.87,4.118 -6.877,4.104 -6.884,4.089 -6.892,4.074 -6.898,4.059 -6.903,4.044 -6.908,4.028 -6.913,4.012 -6.916,3.995 -6.919,3.982 -6.921,3.969 -6.923,3.955 -6.924,3.942 -6.925,3.928 -6.926,3.914 l 0,-8.496 c 0.001,-0.017 0.002,-0.034 0.004,-0.05 0.003,-0.017 0.006,-0.033 0.01,-0.049 0.004,-0.017 0.009,-0.032 0.015,-0.048 0.006,-0.015 0.013,-0.03 0.021,-0.044 0.008,-0.015 0.016,-0.029 0.026,-0.042 0.009,-0.013 0.019,-0.025 0.03,-0.036 0.01,-0.012 0.022,-0.023 0.034,-0.033 0.012,-0.01 0.024,-0.019 0.037,-0.027 0.013,-0.008 0.026,-0.015 0.04,-0.021 0.014,-0.006 0.028,-0.011 0.042,-0.015 0.015,-0.004 0.029,-0.007 0.044,-0.009 0.015,-10e-4 0.029,-0.002 0.044,-10e-4 0.015,0 0.03,0.002 0.044,0.004 0.015,0.003 0.029,0.006 0.043,0.012 0.012,0.003 0.023,0.008 0.034,0.013 0.011,0.005 0.022,0.011 0.032,0.018 l 0.008,0.005 6.418,4.238 0.008,0.005 c 0.012,0.009 0.024,0.019 0.036,0.029 0.011,0.011 0.022,0.022 0.032,0.035 0.01,0.012 0.02,0.025 0.029,0.038 0.008,0.014 0.016,0.028 0.023,0.043 0.007,0.015 0.013,0.03 0.019,0.046 0.005,0.015 0.009,0.032 0.012,0.048 0.004,0.016 0.006,0.033 0.008,0.05 0.001,0.016 0.002,0.033 0.001,0.05 0,0.017 -0.001,0.034 -0.004,0.05 -0.002,0.017 -0.005,0.033 -0.01,0.049 -0.003,0.016 -0.009,0.032 -0.015,0.048 -0.005,0.015 -0.013,0.03 -0.021,0.044 -0.007,0.015 -0.016,0.029 -0.025,0.042 -0.009,0.013 -0.019,0.025 -0.03,0.036 -0.009,0.01 -0.017,0.019 -0.027,0.027 -0.009,0.008 -0.019,0.015 -0.029,0.022 L 0,0"
             style="fill:#003399;fill-opacity:1;fill-rule:evenodd;stroke:none"
             id="path3915"
             inkscape:connector-curvature="0" />
        </g>
        <g
           id="g3917"
           transform="matrix(0,1.25,1.25,0,350.40951,537.66591)"
           style="fill:#003399;fill-opacity:1">
          <path
             d="M 0,0 -6.426,4.243 C -6.439,4.252 -6.453,4.259 -6.466,4.265 -6.48,4.271 -6.494,4.276 -6.509,4.279 -6.523,4.284 -6.537,4.287 -6.552,4.289 -6.567,4.29 -6.581,4.291 -6.596,4.29 -6.611,4.29 -6.626,4.289 -6.64,4.286 -6.655,4.283 -6.669,4.279 -6.683,4.275 -6.697,4.27 -6.711,4.264 -6.725,4.257 -6.738,4.251 -6.751,4.243 -6.764,4.234 -6.776,4.225 -6.789,4.215 -6.8,4.205 -6.812,4.194 -6.822,4.183 -6.833,4.171 -6.843,4.158 -6.852,4.146 -6.861,4.132 -6.87,4.118 -6.877,4.104 -6.885,4.089 -6.892,4.074 -6.898,4.059 -6.903,4.044 -6.908,4.028 -6.913,4.012 -6.916,3.995 -6.919,3.982 -6.921,3.969 -6.923,3.955 -6.924,3.942 -6.925,3.928 -6.926,3.914 l 0,-8.496 c 0.001,-0.017 0.002,-0.034 0.004,-0.05 0.003,-0.017 0.006,-0.033 0.01,-0.049 0.004,-0.017 0.009,-0.032 0.015,-0.048 0.006,-0.015 0.013,-0.03 0.021,-0.044 0.008,-0.015 0.016,-0.029 0.025,-0.042 0.01,-0.013 0.02,-0.025 0.031,-0.036 0.01,-0.012 0.022,-0.023 0.034,-0.033 0.011,-0.01 0.024,-0.019 0.037,-0.027 0.013,-0.008 0.026,-0.015 0.04,-0.021 0.014,-0.006 0.028,-0.011 0.042,-0.015 0.015,-0.004 0.029,-0.007 0.044,-0.009 0.015,-10e-4 0.029,-0.002 0.044,-10e-4 0.015,0 0.03,0.002 0.044,0.004 0.015,0.003 0.029,0.006 0.043,0.012 0.012,0.003 0.023,0.008 0.034,0.013 0.011,0.005 0.022,0.011 0.032,0.018 l 0.007,0.005 6.419,4.238 0.008,0.005 c 0.012,0.009 0.024,0.019 0.036,0.029 0.011,0.011 0.022,0.022 0.032,0.035 0.01,0.012 0.02,0.025 0.029,0.038 0.008,0.014 0.016,0.028 0.023,0.043 0.007,0.015 0.013,0.03 0.019,0.046 0.005,0.015 0.009,0.032 0.012,0.048 0.004,0.016 0.007,0.033 0.008,0.05 0.001,0.016 0.002,0.033 0.001,0.05 0,0.017 -0.001,0.034 -0.004,0.05 -0.002,0.017 -0.005,0.033 -0.01,0.049 -0.003,0.016 -0.009,0.032 -0.015,0.048 -0.006,0.015 -0.013,0.03 -0.021,0.044 -0.007,0.015 -0.015,0.029 -0.025,0.042 -0.009,0.013 -0.019,0.025 -0.03,0.036 -0.009,0.01 -0.017,0.019 -0.027,0.027 -0.009,0.008 -0.019,0.015 -0.029,0.022 L 0,0"
             style="fill:#003399;fill-opacity:1;fill-rule:evenodd;stroke:none"
             id="path3919"
             inkscape:connector-curvature="0" />
        </g>
        <path
           d="m 350.40951,528.05841 5.2975,-8.0225 0.006,-0.01 c 0.0113,-0.0163 0.02,-0.0325 0.0275,-0.05 0.007,-0.0175 0.0138,-0.035 0.0175,-0.0537 0.006,-0.0175 0.01,-0.035 0.0125,-0.0538 10e-4,-0.0187 0.002,-0.0362 10e-4,-0.055 0,-0.0188 -10e-4,-0.0375 -0.005,-0.055 -0.004,-0.0188 -0.009,-0.0362 -0.0138,-0.0538 -0.006,-0.0175 -0.0138,-0.035 -0.0225,-0.0525 -0.007,-0.0162 -0.0175,-0.0325 -0.0288,-0.0487 -0.0112,-0.015 -0.0237,-0.0312 -0.0362,-0.045 -0.0137,-0.015 -0.0275,-0.0275 -0.0425,-0.0412 -0.0163,-0.0125 -0.0312,-0.0238 -0.0488,-0.035 -0.0175,-0.0113 -0.035,-0.02 -0.0537,-0.0288 -0.0188,-0.01 -0.0375,-0.0175 -0.0562,-0.0238 -0.02,-0.006 -0.04,-0.0125 -0.0613,-0.0163 -0.0163,-0.004 -0.0325,-0.006 -0.05,-0.009 -0.0161,-10e-4 -0.0336,-0.003 -0.0511,-0.004 l -10.62,0 c -0.0213,10e-4 -0.0425,0.002 -0.0625,0.005 -0.0213,0.004 -0.0413,0.007 -0.0613,0.0125 -0.0213,0.005 -0.04,0.0113 -0.06,0.0188 -0.0188,0.007 -0.0375,0.0163 -0.055,0.0263 -0.0188,0.01 -0.0362,0.02 -0.0525,0.0325 -0.0162,0.0113 -0.0312,0.0238 -0.045,0.0375 -0.015,0.0125 -0.0288,0.0275 -0.0412,0.0425 -0.0125,0.0137 -0.0238,0.03 -0.0337,0.0462 -0.01,0.0163 -0.0188,0.0325 -0.0263,0.05 -0.008,0.0175 -0.0138,0.035 -0.0188,0.0525 -0.005,0.0187 -0.009,0.0362 -0.0113,0.055 -10e-4,0.0187 -0.002,0.0362 -10e-4,0.055 0,0.0188 0.002,0.0375 0.005,0.055 0.004,0.0188 0.007,0.0362 0.015,0.0538 0.004,0.015 0.01,0.0288 0.0163,0.0425 0.006,0.0138 0.0137,0.0275 0.0225,0.04 l 0.006,0.01 5.2975,8.0225 0.006,0.01 c 0.0113,0.015 0.0238,0.03 0.0362,0.045 0.0138,0.0138 0.0275,0.0275 0.0437,0.04 0.015,0.0125 0.0312,0.025 0.0475,0.0362 0.0175,0.01 0.035,0.02 0.0537,0.0288 0.0188,0.009 0.0375,0.0163 0.0575,0.0238 0.0188,0.006 0.04,0.0113 0.06,0.015 0.02,0.005 0.0412,0.009 0.0625,0.01 0.02,10e-4 0.0412,0.002 0.0625,10e-4 0.0213,0 0.0425,-10e-4 0.0625,-0.005 0.0213,-0.002 0.0412,-0.006 0.0613,-0.0125 0.02,-0.004 0.04,-0.0113 0.06,-0.0188 0.0188,-0.006 0.0375,-0.0163 0.055,-0.025 0.0187,-0.01 0.0362,-0.02 0.0525,-0.0325 0.0163,-0.0113 0.0312,-0.0238 0.045,-0.0375 0.0125,-0.0112 0.0238,-0.0213 0.0337,-0.0337 0.01,-0.0112 0.0188,-0.0238 0.0275,-0.0362 l 0.006,-0.009"
           style="fill:#003399;fill-opacity:1;fill-rule:evenodd;stroke:none"
           id="path3923"
           inkscape:connector-curvature="0" />
      </g>
    </g>
  </g>
</svg>
