<?xml version="1.0" encoding="UTF-8" standalone="no"?>
<!-- Created with Inkscape (http://www.inkscape.org/) -->

<svg
   xmlns:dc="http://purl.org/dc/elements/1.1/"
   xmlns:cc="http://creativecommons.org/ns#"
   xmlns:rdf="http://www.w3.org/1999/02/22-rdf-syntax-ns#"
   xmlns:svg="http://www.w3.org/2000/svg"
   xmlns="http://www.w3.org/2000/svg"
   xmlns:sodipodi="http://sodipodi.sourceforge.net/DTD/sodipodi-0.dtd"
   xmlns:inkscape="http://www.inkscape.org/namespaces/inkscape"
   width="120"
   height="120"
   id="svg2"
   version="1.1"
   inkscape:version="0.48.2 r9819"
   sodipodi:docname="Notice_A8.svg"
   style="display:inline"
   inkscape:export-filename="/Users/mherring/boatsw/oseam/openseamap/josm/icons/WindSurfing16.png"
   inkscape:export-xdpi="12"
   inkscape:export-ydpi="12">
  <defs
     id="defs4" />
  <sodipodi:namedview
     id="base"
     pagecolor="#ffffff"
     bordercolor="#666666"
     borderopacity="1.0"
     inkscape:pageopacity="0.0"
     inkscape:pageshadow="2"
     inkscape:zoom="7.5"
     inkscape:cx="-4.5333333"
     inkscape:cy="60"
     inkscape:document-units="px"
     inkscape:current-layer="layer12"
     showgrid="true"
     inkscape:window-width="1920"
     inkscape:window-height="1088"
     inkscape:window-x="0"
     inkscape:window-y="0"
     inkscape:window-maximized="1"
     inkscape:snap-global="false">
    <inkscape:grid
       type="xygrid"
       id="grid3004"
       empspacing="5"
       visible="true"
       enabled="true"
       snapvisiblegridlinesonly="true" />
  </sodipodi:namedview>
  <metadata
     id="metadata7">
    <rdf:RDF>
      <cc:Work
         rdf:about="">
        <dc:format>image/svg+xml</dc:format>
        <dc:type
           rdf:resource="http://purl.org/dc/dcmitype/StillImage" />
        <dc:title />
      </cc:Work>
    </rdf:RDF>
  </metadata>
  <g
     inkscape:groupmode="layer"
     id="layer12"
     inkscape:label="A8"
     style="display:inline">
    <g
       transform="translate(42.857142,-223.79076)"
       id="layer1-50"
       inkscape:label="Ebene 1">
      <g
         transform="matrix(0.84346231,0,0,0.84345099,2.6835032,44.427162)"
         id="g2908">
        <path
           d="m -13.565787,319.15638 61.4175,0 0.0175,0 0.01875,0 c 0.20125,-0.001 0.4025,-0.015 0.60125,-0.0425 0.2,-0.0275 0.3975,-0.0675 0.59125,-0.1225 0.195,-0.0512 0.385,-0.115 0.57125,-0.19375 0.18625,-0.0775 0.36625,-0.16875 0.53875,-0.27125 0.175,-0.1 0.3425,-0.2125 0.5025,-0.335 0.15875,-0.1225 0.31,-0.25625 0.45125,-0.39875 0.14375,-0.14125 0.2775,-0.2925 0.4,-0.4525 0.1225,-0.15875 0.235,-0.3275 0.335,-0.50125 0.10125,-0.17375 0.19125,-0.35375 0.26875,-0.54 0.0775,-0.185 0.1425,-0.37625 0.195,-0.57 0.055,-0.195 0.0975,-0.3925 0.125,-0.5925 0.02875,-0.19875 0.04125,-0.4 0.04,-0.6 l 0,-61.49125 c -0.0012,-0.20125 -0.015,-0.40125 -0.0425,-0.60125 -0.02625,-0.19875 -0.0675,-0.39625 -0.1225,-0.59 -0.05,-0.195 -0.115,-0.38625 -0.1925,-0.57125 -0.07875,-0.18625 -0.16875,-0.36625 -0.27125,-0.54 -0.10125,-0.17375 -0.2125,-0.3425 -0.335,-0.50125 -0.1225,-0.16 -0.25625,-0.31125 -0.4,-0.4525 -0.14125,-0.1425 -0.2925,-0.27625 -0.45125,-0.39875 -0.16,-0.12375 -0.3275,-0.235 -0.5025,-0.335 -0.1725,-0.1025 -0.35375,-0.1925 -0.53875,-0.27 -0.18625,-0.0775 -0.3775,-0.1425 -0.57125,-0.195 -0.19375,-0.055 -0.39125,-0.0962 -0.59125,-0.125 -0.19875,-0.0275 -0.4,-0.0412 -0.60125,-0.04 l -61.49,0 c -0.20125,0.001 -0.4025,0.015 -0.60125,0.0425 -0.2,0.0275 -0.3975,0.0687 -0.59125,0.1225 -0.195,0.0513 -0.38625,0.115 -0.57125,0.19375 -0.18625,0.0775 -0.36625,0.16875 -0.53875,0.27125 -0.175,0.1 -0.3425,0.21125 -0.5025,0.335 -0.15875,0.1225 -0.31,0.25625 -0.45125,0.39875 -0.14375,0.14125 -0.2775,0.2925 -0.4,0.4525 -0.1225,0.15875 -0.235,0.3275 -0.33375,0.50125 -0.1025,0.17375 -0.1925,0.35375 -0.27,0.54 -0.0775,0.185 -0.14375,0.37625 -0.195,0.57125 -0.055,0.19375 -0.0975,0.39125 -0.125,0.59 -0.02875,0.2 -0.04125,0.4 -0.04,0.60125 l 0,0.0188 -0.0012,0.0187 0,61.41625 0.0012,0.0188 0,0.0188 c 0.0012,0.20125 0.015,0.40125 0.04125,0.60125 0.0275,0.19875 0.06875,0.39625 0.12375,0.59125 0.05,0.19375 0.115,0.385 0.1925,0.57125 0.07875,0.185 0.16875,0.365 0.2725,0.53875 0.1,0.17375 0.21125,0.34125 0.33375,0.50125 0.1225,0.16 0.25625,0.31125 0.4,0.4525 0.14125,0.1425 0.2925,0.27625 0.45125,0.39875 0.16,0.12375 0.3275,0.235 0.5025,0.335 0.1725,0.1025 0.35375,0.1925 0.53875,0.27 0.18625,0.0775 0.37625,0.1425 0.57125,0.195 0.19375,0.055 0.39125,0.0962 0.59125,0.125 0.19875,0.0275 0.4,0.0412 0.60125,0.04 l 0.01875,0 0.0175,0 z"
           style="fill:none;stroke:#231f20;stroke-width:0.27000001;stroke-linecap:butt;stroke-linejoin:bevel;stroke-miterlimit:22.9260006;stroke-opacity:1;stroke-dasharray:none"
           id="path20162"
           inkscape:connector-curvature="0" />
        <path
           d="m -13.565787,319.22388 -0.03625,0 c -0.205,-0.001 -0.40875,-0.0163 -0.61125,-0.0425 -0.2025,-0.0275 -0.4025,-0.07 -0.59875,-0.125 -0.1975,-0.0512 -0.39125,-0.11625 -0.58,-0.19625 -0.18875,-0.0788 -0.37125,-0.17125 -0.54625,-0.275 -0.1775,-0.1025 -0.3475,-0.215 -0.51,-0.34 -0.16125,-0.12375 -0.315,-0.26 -0.45875,-0.405 -0.145,-0.14375 -0.28,-0.29625 -0.405,-0.45875 -0.125,-0.16125 -0.2375,-0.33125 -0.33875,-0.50875 -0.10375,-0.17625 -0.195,-0.35875 -0.27375,-0.5475 -0.07875,-0.18875 -0.145,-0.38125 -0.1975,-0.57875 -0.05625,-0.1975 -0.09875,-0.3975 -0.1275,-0.6 -0.02875,-0.2025 -0.0425,-0.40625 -0.04,-0.61 l 0,-61.49125 c 0.0012,-0.20375 0.015,-0.4075 0.0425,-0.61 0.0275,-0.2025 0.06875,-0.4025 0.125,-0.6 0.05,-0.1975 0.11625,-0.39125 0.195,-0.58 0.08,-0.1875 0.17125,-0.37 0.27625,-0.54625 0.10125,-0.17625 0.215,-0.34625 0.34,-0.50875 0.12375,-0.16125 0.25875,-0.315 0.40375,-0.45875 0.14375,-0.14625 0.2975,-0.28125 0.45875,-0.40625 0.1625,-0.12375 0.3325,-0.23625 0.51,-0.33875 0.17625,-0.10375 0.35875,-0.195 0.54625,-0.27375 0.18875,-0.0788 0.3825,-0.145 0.58,-0.1975 0.19625,-0.0562 0.3975,-0.0975 0.6,-0.12625 0.20125,-0.0288 0.405,-0.0425 0.61,-0.0412 l 61.49125,0 c 0.20375,0.001 0.4075,0.0163 0.61,0.0437 0.2025,0.0263 0.4025,0.0688 0.59875,0.12375 0.1975,0.0513 0.3925,0.1175 0.58,0.19625 0.18875,0.0787 0.37125,0.17125 0.54625,0.275 0.1775,0.1025 0.3475,0.215 0.50875,0.34 0.1625,0.125 0.31625,0.26 0.46,0.405 0.145,0.14375 0.28,0.2975 0.405,0.45875 0.125,0.1625 0.2375,0.33125 0.33875,0.50875 0.10375,0.17625 0.195,0.35875 0.27375,0.54625 0.07875,0.19 0.145,0.3825 0.1975,0.58 0.05625,0.1975 0.09875,0.3975 0.1275,0.6 0.0275,0.2025 0.04125,0.40625 0.04,0.61 l 0,61.49125 c -0.0012,0.20375 -0.015,0.4075 -0.0425,0.61 -0.0275,0.2025 -0.06875,0.4025 -0.125,0.6 -0.05125,0.1975 -0.11625,0.39125 -0.19625,0.58 -0.07875,0.1875 -0.17125,0.37 -0.275,0.54625 -0.10125,0.1775 -0.215,0.3475 -0.33875,0.50875 -0.125,0.1625 -0.26,0.315 -0.405,0.45875 -0.14375,0.145 -0.2975,0.28125 -0.46,0.405 -0.16125,0.125 -0.33125,0.23875 -0.50875,0.34 -0.175,0.1025 -0.3575,0.195 -0.54625,0.27375 -0.18875,0.0788 -0.3825,0.145 -0.58,0.1975 -0.19625,0.0563 -0.39625,0.0975 -0.6,0.12625 -0.20125,0.0288 -0.405,0.0425 -0.60875,0.0412 l -61.455,0 z"
           style="fill:#ffffff;fill-opacity:1;fill-rule:evenodd;stroke:#000000;stroke-width:2.37119484;stroke-linecap:butt;stroke-linejoin:bevel;stroke-miterlimit:22.9260006;stroke-opacity:1;stroke-dasharray:none"
           id="path20166"
           inkscape:connector-curvature="0" />
        <path
           d="m -13.141804,316.98761 60.591514,0 c 0.126972,-9.8e-4 0.251479,-0.01 0.377218,-0.0271 0.124507,-0.0161 0.24778,-0.0419 0.368589,-0.0764 0.122041,-0.0308 0.241616,-0.0715 0.357493,-0.12081 0.115878,-0.048 0.228057,-0.10478 0.336538,-0.17012 0.109713,-0.0616 0.214496,-0.13191 0.314348,-0.20834 0.09985,-0.0777 0.194772,-0.16025 0.283529,-0.25025 0.08876,-0.0888 0.172584,-0.18244 0.249013,-0.2823 0.07643,-0.0999 0.146696,-0.20463 0.208333,-0.31435 0.0641,-0.10848 0.120808,-0.22066 0.170118,-0.33654 0.04808,-0.11711 0.08876,-0.23546 0.122041,-0.3575 0.03328,-0.12081 0.05917,-0.24409 0.07643,-0.36983 0.01849,-0.1245 0.02712,-0.25025 0.02589,-0.37599 l 0,-60.6158 c -0.0012,-0.12574 -0.0099,-0.25025 -0.02589,-0.37599 -0.01726,-0.12451 -0.04315,-0.24778 -0.07643,-0.36859 -0.03205,-0.12205 -0.07273,-0.24162 -0.122041,-0.3575 -0.04931,-0.11588 -0.104783,-0.22929 -0.170118,-0.33654 -0.06164,-0.10972 -0.131903,-0.2145 -0.208333,-0.31436 -0.07643,-0.0999 -0.160255,-0.19477 -0.249013,-0.28353 -0.08876,-0.0888 -0.183677,-0.17259 -0.283529,-0.24902 -0.09985,-0.0764 -0.204635,-0.14669 -0.314348,-0.20957 -0.108481,-0.0628 -0.22066,-0.11957 -0.336538,-0.16888 -0.115877,-0.0481 -0.235452,-0.0888 -0.357493,-0.12205 -0.120809,-0.0332 -0.244082,-0.0592 -0.369822,-0.0776 -0.124506,-0.0173 -0.249013,-0.0259 -0.375985,-0.0247 l -60.613703,0 c -0.125739,9.9e-4 -0.251478,0.01 -0.375985,0.0259 -0.125739,0.0173 -0.249013,0.0431 -0.369821,0.0764 -0.122041,0.032 -0.241617,0.0727 -0.357494,0.12205 -0.115877,0.0481 -0.228056,0.10478 -0.336537,0.16888 -0.109714,0.0629 -0.214497,0.13314 -0.314348,0.20957 -0.09985,0.0764 -0.19354,0.16026 -0.282297,0.24902 -0.08999,0.0888 -0.173816,0.18368 -0.250246,0.28353 -0.07643,0.0998 -0.146696,0.20464 -0.209565,0.31435 -0.06287,0.10849 -0.119576,0.22067 -0.167653,0.33655 -0.04931,0.11588 -0.08999,0.23545 -0.122041,0.3575 -0.03452,0.12081 -0.06164,0.24408 -0.07889,0.36982 -0.01726,0.12451 -0.02589,0.24902 -0.02465,0.37476 l 0,60.6158 c 0,0.12574 0.0099,0.25148 0.02589,0.37599 0.01726,0.12574 0.04315,0.24902 0.07766,0.36983 0.03082,0.12204 0.0715,0.24162 0.120809,0.3575 0.04808,0.11588 0.104782,0.22806 0.168885,0.33654 0.06287,0.10972 0.133135,0.2145 0.209565,0.31435 0.07766,0.0999 0.160256,0.19355 0.250246,0.2823 0.08876,0.09 0.182445,0.17382 0.282297,0.25025 0.09985,0.0764 0.204634,0.1467 0.314348,0.20834 0.108481,0.0641 0.22066,0.12081 0.336537,0.16889 0.115877,0.0493 0.235453,0.09 0.357494,0.12204 0.120808,0.0345 0.244082,0.0605 0.369821,0.0789 0.124507,0.0173 0.250246,0.0247 0.375985,0.0247 l 0.02219,0 z"
           style="fill:#e72512;fill-opacity:1;fill-rule:evenodd;stroke:none"
           id="path20170"
           inkscape:connector-curvature="0" />
        <path
           d="m 33.605463,307.41263 -40.0850005,-40.085 0,40.085 40.0850005,0"
           style="fill:#ffffff;fill-opacity:1;fill-rule:evenodd;stroke:none"
           id="path20174"
           inkscape:connector-curvature="0" />
        <path
           d="m 40.764213,300.25513 0,-40.085 -40.08500047,0 40.08500047,40.085"
           style="fill:#ffffff;fill-opacity:1;fill-rule:evenodd;stroke:none"
           id="path20178"
           inkscape:connector-curvature="0" />
        <path
           d="m 4.1592125,284.59638 11.3150005,-2.98875 -3.22375,-1.86625 c 0.0475,-0.0587 0.09625,-0.11625 0.1475,-0.17125 0.0525,-0.0563 0.10375,-0.11125 0.15625,-0.16625 0.07,-0.075 0.13875,-0.15 0.20875,-0.225 0.06875,-0.0763 0.13875,-0.15 0.21125,-0.2225 0.20625,-0.21 0.42875,-0.4025 0.665,-0.57875 0.2375,-0.17625 0.48625,-0.335 0.74625,-0.475 0.25625,-0.14625 0.5225,-0.27375 0.79625,-0.38375 0.27375,-0.10875 0.55375,-0.19875 0.84,-0.27 0.285,-0.0737 0.575,-0.12875 0.8675,-0.16375 0.2925,-0.035 0.5875,-0.0487 0.8825,-0.0425 0.295,0.001 0.58875,0.0238 0.88125,0.0663 0.29125,0.0412 0.58,0.10375 0.8625,0.18625 0.28375,0.0775 0.5625,0.175 0.83375,0.2925 0.27,0.115 0.5325,0.25 0.785,0.4025 0.25375,0.14875 0.4975,0.315 0.72875,0.4975 0.2325,0.1825 0.45125,0.38125 0.655,0.59375 0.20625,0.21 0.39875,0.43375 0.575,0.66875 0.17625,0.23625 0.33625,0.485 0.47875,0.7425 0.14625,0.25625 0.27375,0.5225 0.3825,0.79625 0.11,0.27375 0.2,0.55375 0.27125,0.84125 0.07375,0.28375 0.12875,0.57375 0.16375,0.86625 0.03375,0.29375 0.04875,0.5875 0.0425,0.8825 -0.0025,0.295 -0.02375,0.58875 -0.06625,0.88125 -0.0425,0.29125 -0.105,0.57875 -0.18625,0.8625 -0.07875,0.28375 -0.17625,0.5625 -0.2925,0.83375 -0.11625,0.27 -0.25125,0.5325 -0.4025,0.785 -0.15,0.255 -0.31625,0.49875 -0.49875,0.73 -0.18125,0.23125 -0.38,0.45 -0.5925,0.65375 -0.21,0.20625 -0.43375,0.3975 -0.67,0.57375 -0.23625,0.17625 -0.485,0.33625 -0.7425,0.48 -0.255,0.14875 -0.52125,0.27875 -0.795,0.39 -0.2725,0.11125 -0.55375,0.19875 -0.84125,0.26375 -0.19,0.0437 -0.38125,0.08 -0.57375,0.10625 -0.19375,0.0263 -0.3875,0.0488 -0.58125,0.0675 -0.08375,0.009 -0.1675,0.0163 -0.2525,0.0225 -0.08375,0.006 -0.16875,0.01 -0.25375,0.0112 l 0,4.7575 c 0.11875,0.002 0.23625,0 0.35375,-0.006 0.11875,-0.007 0.2375,-0.0163 0.355,-0.0275 0.3575,-0.0325 0.7125,-0.0763 1.06625,-0.13375 0.3525,-0.0575 0.70375,-0.13 1.05,-0.21875 0.48625,-0.12 0.96375,-0.2725 1.4275,-0.4575 0.46625,-0.18625 0.91875,-0.40375 1.35375,-0.6525 0.43875,-0.24125 0.86125,-0.51375 1.2625,-0.81375 0.40125,-0.29875 0.78125,-0.62625 1.1375,-0.97875 0.36125,-0.3475 0.6975,-0.71875 1.00875,-1.11125 0.31,-0.39375 0.5925,-0.80875 0.84625,-1.24125 0.25875,-0.4275 0.4875,-0.87375 0.685,-1.335 0.1975,-0.46 0.36375,-0.93375 0.49625,-1.41625 0.14,-0.48125 0.24625,-0.97125 0.3175,-1.4675 0.07125,-0.49625 0.11,-0.99625 0.1125,-1.49625 0.01,-0.50125 -0.015,-1.0025 -0.07375,-1.5 -0.05875,-0.4975 -0.15125,-0.99 -0.2775,-1.475 -0.12,-0.48625 -0.27375,-0.96375 -0.46,-1.42875 -0.185,-0.46625 -0.4025,-0.9175 -0.65,-1.35375 -0.2425,-0.4375 -0.51375,-0.86 -0.81375,-1.26125 -0.3,-0.40125 -0.62625,-0.78125 -0.97875,-1.1375 -0.3475,-0.3625 -0.71875,-0.69875 -1.1125,-1.00875 -0.3925,-0.31 -0.8075,-0.5925 -1.24,-0.84625 -0.42875,-0.25875 -0.875,-0.4875 -1.335,-0.68625 -0.46,-0.1975 -0.93375,-0.3625 -1.41625,-0.49625 -0.48125,-0.13875 -0.97125,-0.245 -1.4675,-0.31625 -0.495,-0.0725 -0.99625,-0.11 -1.4975,-0.11375 -0.5,-0.01 -1.00125,0.015 -1.49875,0.0738 -0.4975,0.0587 -0.99,0.15125 -1.475,0.27875 -0.48625,0.12 -0.9625,0.27375 -1.4275,0.46 -0.46625,0.18625 -0.91875,0.4025 -1.355,0.65 -0.44,0.24 -0.86375,0.51125 -1.26625,0.81125 -0.4025,0.2975 -0.78125,0.625 -1.1337505,0.98 -0.12625,0.12375 -0.2475,0.25125 -0.365,0.3825 -0.11875,0.1325 -0.23,0.27 -0.335,0.4125 l -1.78125,-3.06375 -3.03625,11.29375 z"
           style="fill:#000000;fill-opacity:1;fill-rule:evenodd;stroke:#000000;stroke-width:0.27000001;stroke-linecap:butt;stroke-linejoin:bevel;stroke-miterlimit:22.9260006;stroke-opacity:1;stroke-dasharray:none"
           id="path20182"
           inkscape:connector-curvature="0" />
        <path
           d="m 38.871713,276.94888 -2.98,-11.3175 -1.80125,3.1025 c -0.0725,-0.0825 -0.1475,-0.165 -0.22375,-0.245 -0.075,-0.0813 -0.1525,-0.16 -0.23,-0.23875 -0.67875,-0.695 -1.40125,-1.3475 -2.1625,-1.9525 -0.76,-0.605 -1.56375,-1.15625 -2.40375,-1.6475 -0.82875,-0.50875 -1.69375,-0.95625 -2.5875,-1.3375 -0.895,-0.3825 -1.815,-0.7025 -2.75375,-0.9575 -0.935,-0.27 -1.88625,-0.475 -2.84875,-0.615 -0.9625,-0.14 -1.93375,-0.2125 -2.905,-0.22 -0.9725,-0.0188 -1.945,0.0288 -2.91125,0.1425 -0.965,0.115 -1.9225,0.295 -2.8625,0.54125 -0.945,0.23375 -1.87125,0.53125 -2.7750005,0.89125 -0.90375,0.36 -1.78125,0.7825 -2.62625,1.26375 -0.85125,0.46875 -1.67,0.99625 -2.44875,1.57875 -0.78,0.58125 -1.5175,1.21625 -2.21,1.9 -0.70125,0.67375 -1.35499997,1.395 -1.95624997,2.15875 -0.6025,0.76375 -1.15125,1.56875 -1.64250003,2.4075 -0.50375,0.8325 -0.94875,1.6975 -1.3325,2.59125 -0.38375,0.89375 -0.705,1.8125 -0.9625,2.75 -0.27125,0.935 -0.47625,1.88625 -0.61625,2.84875 -0.13875,0.9625 -0.2125,1.93375 -0.21875,2.905 -0.01875,0.9725 0.02875,1.945 0.1425,2.91125 0.115,0.965 0.295,1.9225 0.54125,2.8625 0.2325,0.945 0.53,1.87125 0.89125,2.775 0.36,0.90375 0.7825,1.78125 1.26375,2.62625 0.46875,0.85125 0.99625003,1.67 1.57875003,2.44875 0.58125,0.77875 1.21624997,1.5175 1.89874997,2.21 0.675,0.70125 1.39625,1.355 2.16,1.95625 0.76375,0.6025 1.5675,1.15125 2.40625,1.6425 0.8325,0.5025 1.69875,0.9475 2.5925,1.33125 0.89375,0.38375 1.8125005,0.70625 2.7500005,0.96375 0.93375,0.27125 1.885,0.47875 2.8475,0.61875 0.9625,0.14 1.93375,0.2125 2.90625,0.21625 0.97375,0.0163 1.94625,-0.0337 2.9125,-0.15125 0.965,-0.11625 1.92,-0.29375 2.86125,-0.5325 0.36375,-0.0863 0.725,-0.18375 1.0825,-0.29125 0.35875,-0.10875 0.71375,-0.23375 1.0625,-0.37375 l -1.62,-4.4375 c -0.2725,0.11375 -0.55,0.2125 -0.8325,0.29625 -0.2825,0.085 -0.5675,0.16 -0.855,0.2275 -0.745,0.17875 -1.5,0.3175 -2.26,0.4125 -0.75875,0.095 -1.52375,0.13625 -2.28875,0.12625 -0.76625,0 -1.53125,-0.055 -2.28875,-0.1675 -0.75875,-0.11125 -1.50875,-0.275 -2.245,-0.49 -0.73875,-0.205 -1.4625,-0.45875 -2.1675,-0.76125 -0.70375,-0.30125 -1.3862505,-0.65125 -2.0412505,-1.0475 -0.66125,-0.38625 -1.295,-0.81875 -1.89625,-1.29375 -0.6025,-0.47375 -1.17,-0.98875 -1.70125,-1.5425 -0.53875,-0.545 -1.03875,-1.12625 -1.4975,-1.74 -0.4575,-0.615 -0.87375,-1.25875 -1.24375,-1.93 -0.37875,-0.66625 -0.71125,-1.3575 -0.995,-2.06875 -0.28375,-0.71125 -0.51874997,-1.4425 -0.70249997,-2.18625 -0.19375,-0.74125 -0.33625,-1.495 -0.42625,-2.25625 -0.09,-0.76 -0.1275,-1.52625 -0.1125,-2.2925 0.005,-0.76625 0.0625,-1.53125 0.17375,-2.28875 0.10875,-0.75875 0.27125,-1.50875 0.48375,-2.245 0.20375,-0.73875 0.45749997,-1.4625 0.75999997,-2.16625 0.3025,-0.705 0.6525,-1.38625 1.04875,-2.0425 0.3875,-0.66125 0.82,-1.295 1.29375,-1.89625 0.475,-0.6025 0.99,-1.17 1.5425,-1.70125 0.545,-0.53875 1.12625,-1.03875 1.74,-1.49625 0.61375,-0.45875 1.25875,-0.875 1.93,-1.245 0.66625,-0.37875 1.3575005,-0.71125 2.0687505,-0.995 0.71125,-0.28375 1.4425,-0.51875 2.18625,-0.7025 0.74125,-0.1925 1.495,-0.335 2.255,-0.425 0.76125,-0.09 1.5275,-0.1275 2.29375,-0.1125 0.76625,0.004 1.5325,0.0612 2.29125,0.17125 0.7575,0.11 1.5075,0.27125 2.2425,0.485 0.7375,0.205 1.46,0.45875 2.1625,0.7625 0.705,0.30375 1.3875,0.65375 2.04625,1.04625 0.665,0.385 1.30375,0.815 1.91,1.28625 0.60375,0.47 1.1675,0.98875 1.6875,1.55 0.08375,0.0875 0.165,0.17625 0.24625,0.26625 0.08125,0.09 0.16,0.1825 0.2375,0.275 l -3.15625,1.815 11.29125,3.04625 z"
           style="fill:#000000;fill-opacity:1;fill-rule:evenodd;stroke:#000000;stroke-width:0.27000001;stroke-linecap:butt;stroke-linejoin:bevel;stroke-miterlimit:22.9260006;stroke-opacity:1;stroke-dasharray:none"
           id="path20186"
           inkscape:connector-curvature="0" />
      </g>
    </g>
  </g>
</svg>
