<?xml version="1.0" encoding="UTF-8" standalone="no"?>
<!-- Created with Inkscape (http://www.inkscape.org/) -->

<svg
   xmlns:dc="http://purl.org/dc/elements/1.1/"
   xmlns:cc="http://creativecommons.org/ns#"
   xmlns:rdf="http://www.w3.org/1999/02/22-rdf-syntax-ns#"
   xmlns:svg="http://www.w3.org/2000/svg"
   xmlns="http://www.w3.org/2000/svg"
   xmlns:sodipodi="http://sodipodi.sourceforge.net/DTD/sodipodi-0.dtd"
   xmlns:inkscape="http://www.inkscape.org/namespaces/inkscape"
   width="60"
   height="60"
   id="svg2"
   version="1.1"
   inkscape:version="0.48.2 r9819"
   sodipodi:docname="Notice_B6.svg"
   style="display:inline"
   inkscape:export-filename="/Users/mherring/boatsw/oseam/openseamap/josm/icons/WindSurfing16.png"
   inkscape:export-xdpi="12"
   inkscape:export-ydpi="12">
  <defs
     id="defs4" />
  <sodipodi:namedview
     id="base"
     pagecolor="#ffffff"
     bordercolor="#666666"
     borderopacity="1.0"
     inkscape:pageopacity="0.0"
     inkscape:pageshadow="2"
     inkscape:zoom="8"
     inkscape:cx="29.177842"
     inkscape:cy="51.668915"
     inkscape:document-units="px"
     inkscape:current-layer="layer33"
     showgrid="true"
     inkscape:window-width="1920"
     inkscape:window-height="1088"
     inkscape:window-x="0"
     inkscape:window-y="0"
     inkscape:window-maximized="1"
     inkscape:snap-global="false">
    <inkscape:grid
       type="xygrid"
       id="grid3004"
       empspacing="5"
       visible="true"
       enabled="true"
       snapvisiblegridlinesonly="true" />
  </sodipodi:namedview>
  <metadata
     id="metadata7">
    <rdf:RDF>
      <cc:Work
         rdf:about="">
        <dc:format>image/svg+xml</dc:format>
        <dc:type
           rdf:resource="http://purl.org/dc/dcmitype/StillImage" />
        <dc:title />
      </cc:Work>
    </rdf:RDF>
  </metadata>
  <g
     inkscape:groupmode="layer"
     id="layer33"
     inkscape:label="B6"
     style="display:inline"
     transform="translate(0,-60)">
    <g
       transform="matrix(0.97034834,0,0,0.97034834,-372.00142,-290.72802)"
       id="layer1-8"
       inkscape:label="Ebene 1">
      <g
         transform="matrix(0.84290176,0,0,0.84291652,65.083556,61.633619)"
         id="g3100">
        <g
           id="g7844"
           transform="matrix(0,1.25,1.25,0,383.08446,427.75031)"
           style="fill:#ffffff;stroke:#000000;stroke-width:1.03055775">
          <path
             d="m 0,0 0,49.948 c -0.001,0.145 -0.011,0.29 -0.03,0.433 -0.02,0.143 -0.049,0.285 -0.089,0.425 -0.036,0.14 -0.083,0.278 -0.139,0.411 -0.056,0.133 -0.121,0.263 -0.195,0.387 -0.072,0.126 -0.153,0.247 -0.241,0.361 -0.088,0.115 -0.184,0.224 -0.287,0.326 -0.102,0.103 -0.21,0.199 -0.325,0.287 -0.115,0.088 -0.236,0.169 -0.361,0.24 -0.125,0.074 -0.255,0.139 -0.388,0.194 -0.134,0.057 -0.271,0.103 -0.411,0.141 -0.139,0.039 -0.282,0.069 -0.425,0.09 -0.143,0.02 -0.288,0.03 -0.432,0.029 l -49.975,0 c -0.145,-10e-4 -0.289,-0.011 -0.432,-0.031 -0.144,-0.019 -0.286,-0.049 -0.426,-0.088 -0.14,-0.036 -0.277,-0.083 -0.411,-0.139 -0.133,-0.056 -0.263,-0.122 -0.387,-0.196 -0.126,-0.072 -0.246,-0.152 -0.361,-0.24 -0.115,-0.088 -0.223,-0.184 -0.325,-0.287 -0.103,-0.102 -0.199,-0.211 -0.288,-0.326 -0.088,-0.114 -0.168,-0.235 -0.24,-0.361 -0.073,-0.124 -0.138,-0.254 -0.194,-0.387 -0.056,-0.134 -0.103,-0.271 -0.14,-0.411 -0.04,-0.14 -0.07,-0.282 -0.09,-0.425 -0.02,-0.143 -0.03,-0.288 -0.029,-0.433 l 0,-49.974 c 0,-0.145 0.011,-0.29 0.03,-0.433 0.019,-0.144 0.049,-0.286 0.089,-0.425 0.036,-0.14 0.082,-0.278 0.138,-0.411 0.057,-0.134 0.122,-0.263 0.196,-0.388 0.072,-0.125 0.152,-0.246 0.24,-0.361 0.089,-0.114 0.185,-0.223 0.288,-0.325 0.102,-0.103 0.21,-0.199 0.325,-0.287 0.115,-0.089 0.235,-0.169 0.361,-0.241 0.125,-0.073 0.254,-0.138 0.388,-0.194 0.133,-0.056 0.271,-0.103 0.41,-0.14 0.14,-0.04 0.282,-0.07 0.426,-0.09 0.143,-0.02 0.287,-0.03 0.432,-0.029 l 49.975,0 c 0.144,10e-4 0.289,0.011 0.432,0.031 0.144,0.019 0.286,0.048 0.425,0.088 0.14,0.036 0.278,0.083 0.411,0.139 0.134,0.056 0.263,0.121 0.388,0.195 0.125,0.072 0.246,0.153 0.361,0.241 0.115,0.088 0.223,0.184 0.325,0.287 0.103,0.102 0.199,0.211 0.287,0.325 0.088,0.115 0.169,0.236 0.241,0.361 0.073,0.125 0.138,0.255 0.194,0.388 0.056,0.134 0.102,0.271 0.14,0.411 0.04,0.14 0.07,0.282 0.09,0.425 0.02,0.143 0.03,0.288 0.029,0.433 L 0,0 z"
             style="fill:#ffffff;stroke:#000000;stroke-width:0.22260047;stroke-linecap:butt;stroke-linejoin:bevel;stroke-miterlimit:22.9260006;stroke-opacity:1;stroke-dasharray:none"
             id="path7846-8"
             inkscape:connector-curvature="0" />
          <g
             id="g7848"
             transform="translate(0.054,0)"
             style="fill:#ffffff;stroke:#000000;stroke-width:1.03055775">
            <path
               d="M 0,0 0,-0.027 C -0.001,-0.174 -0.011,-0.321 -0.031,-0.466 -0.05,-0.612 -0.081,-0.757 -0.12,-0.898 -0.157,-1.041 -0.205,-1.18 -0.262,-1.316 -0.319,-1.452 -0.385,-1.583 -0.46,-1.71 -0.534,-1.837 -0.615,-1.96 -0.705,-2.076 -0.795,-2.193 -0.892,-2.303 -0.997,-2.407 -1.1,-2.512 -1.21,-2.609 -1.327,-2.699 -1.444,-2.789 -1.566,-2.87 -1.694,-2.943 -1.821,-3.018 -1.953,-3.084 -2.088,-3.141 -2.224,-3.198 -2.363,-3.245 -2.506,-3.283 -2.647,-3.323 -2.792,-3.354 -2.938,-3.374 -3.083,-3.395 -3.23,-3.405 -3.377,-3.404 l -49.975,0 c -0.147,10e-4 -0.294,0.011 -0.44,0.031 -0.146,0.02 -0.29,0.05 -0.431,0.09 -0.143,0.037 -0.283,0.084 -0.419,0.141 -0.135,0.057 -0.267,0.123 -0.393,0.199 -0.128,0.073 -0.25,0.154 -0.367,0.244 -0.117,0.09 -0.227,0.187 -0.331,0.292 -0.104,0.103 -0.202,0.214 -0.291,0.33 -0.09,0.117 -0.172,0.24 -0.245,0.367 -0.075,0.127 -0.14,0.259 -0.197,0.394 -0.057,0.136 -0.104,0.276 -0.143,0.418 -0.04,0.141 -0.071,0.286 -0.091,0.432 -0.021,0.145 -0.03,0.292 -0.029,0.439 l 0,49.976 c 10e-4,0.147 0.011,0.294 0.03,0.439 0.02,0.146 0.05,0.29 0.09,0.432 0.037,0.143 0.084,0.282 0.142,0.418 0.057,0.136 0.123,0.267 0.198,0.394 0.073,0.127 0.155,0.25 0.245,0.366 0.089,0.117 0.187,0.228 0.291,0.331 0.104,0.105 0.214,0.202 0.331,0.292 0.117,0.089 0.239,0.171 0.367,0.245 0.127,0.074 0.258,0.14 0.394,0.197 0.136,0.057 0.275,0.104 0.418,0.142 0.141,0.041 0.286,0.071 0.431,0.092 0.146,0.02 0.293,0.03 0.44,0.029 l 49.975,0 c 0.147,-10e-4 0.294,-0.011 0.44,-0.031 0.145,-0.02 0.29,-0.05 0.431,-0.09 0.143,-0.037 0.282,-0.084 0.418,-0.141 0.136,-0.057 0.267,-0.123 0.394,-0.198 0.128,-0.074 0.25,-0.156 0.367,-0.245 0.116,-0.09 0.227,-0.187 0.33,-0.292 0.105,-0.103 0.203,-0.214 0.292,-0.331 0.09,-0.116 0.172,-0.239 0.245,-0.366 0.074,-0.127 0.14,-0.259 0.197,-0.394 0.057,-0.136 0.104,-0.276 0.143,-0.418 0.04,-0.142 0.07,-0.286 0.091,-0.432 0.02,-0.145 0.03,-0.292 0.029,-0.439 L 0,0 z"
               style="fill:#ffffff;stroke:#000000;stroke-width:1.95619237;stroke-linecap:butt;stroke-linejoin:bevel;stroke-miterlimit:22.9260006;stroke-opacity:1;stroke-dasharray:none"
               id="path7850-2"
               inkscape:connector-curvature="0" />
          </g>
        </g>
        <g
           id="g7840"
           transform="matrix(0,1.25,1.25,0,383.08446,426.12906)"
           style="fill:#e72512;fill-opacity:1;stroke:#000000;stroke-width:1.03055775">
          <path
             d="m -0.43910714,0.40585959 0,-0.0157398 c -9.8372e-4,-0.0875529 -0.006886,-0.17412203 -0.0186908,-0.26069117 -0.0118047,-0.08656914 -0.0295118,-0.17215454 -0.0531212,-0.2567562 -0.021642,-0.0846017 -0.05017,-0.16723584 -0.0836166,-0.24790254 -0.0334467,-0.0806667 -0.0727956,-0.15838218 -0.11804699,-0.23314644 -0.0432839,-0.075748 -0.0914864,-0.14854477 -0.14460757,-0.21839033 -0.0541049,-0.0688618 -0.11116093,-0.13477241 -0.1741192,-0.19576441 -0.060991,-0.061976 -0.1259168,-0.1200163 -0.1957613,-0.1731382 -0.068861,-0.053122 -0.1416564,-0.1013253 -0.2174032,-0.1446099 -0.074763,-0.044268 -0.1534611,-0.083618 -0.2341266,-0.117065 -0.080665,-0.034431 -0.1632983,-0.061976 -0.2469149,-0.084602 -0.0846,-0.024593 -0.1701846,-0.042301 -0.2567523,-0.054106 -0.086568,-0.012789 -0.1741193,-0.018691 -0.2606871,-0.017707 l -49.1409971,0 c -0.08755,0 -0.175103,0.00689 -0.260687,0.018691 -0.08657,0.010821 -0.172152,0.028528 -0.256752,0.053122 -0.0846,0.021642 -0.167234,0.049187 -0.247899,0.083618 -0.08067,0.033447 -0.15838,0.072797 -0.234127,0.1180488 -0.07476,0.043285 -0.147558,0.091488 -0.217403,0.1446099 -0.06886,0.053122 -0.133787,0.1111626 -0.195761,0.1731382 -0.06198,0.0609919 -0.120015,0.12690259 -0.173136,0.19576441 -0.05312,0.0698456 -0.101323,0.14264233 -0.145591,0.21839033 -0.04328,0.0747643 -0.08263,0.15346348 -0.11608,0.23314644 -0.03443,0.0806667 -0.06197,0.16330088 -0.0846,0.24790254 -0.02459,0.08460166 -0.0423,0.17018706 -0.0541,0.2567562 -0.01279,0.0865691 -0.01869,0.17313828 -0.01771,0.26069117 l 0,49.14176041 c 0,0.08755 0.0059,0.174122 0.01771,0.260691 0.01181,0.08657 0.02951,0.172155 0.0541,0.256756 0.02164,0.0846 0.04919,0.167236 0.08362,0.247903 0.03345,0.08067 0.0728,0.158382 0.117063,0.23413 0.04427,0.07476 0.09247,0.147561 0.145591,0.216423 0.05312,0.06985 0.111161,0.134772 0.173136,0.196748 0.06197,0.06198 0.1269,0.120016 0.195761,0.173138 0.06985,0.05312 0.14264,0.101326 0.217403,0.14461 0.07575,0.04427 0.153461,0.08362 0.234127,0.117065 0.08067,0.03345 0.163298,0.06198 0.247899,0.0846 0.0846,0.02361 0.170184,0.0423 0.256752,0.05411 0.08558,0.01279 0.173135,0.01869 0.260687,0.01771 l 49.1409971,0 c 0.086568,0 0.1741193,-0.0059 0.2606871,-0.01771 0.086568,-0.0118 0.1721519,-0.0305 0.2567523,-0.05411 0.083617,-0.02164 0.1672332,-0.04919 0.2478987,-0.08362 0.079682,-0.03345 0.1583797,-0.0728 0.2331428,-0.118049 0.075747,-0.04328 0.1485424,-0.09149 0.2174032,-0.14461 0.068861,-0.05312 0.1347703,-0.111162 0.1957613,-0.173138 0.0629583,-0.06198 0.12099805,-0.126902 0.1741192,-0.196748 0.0531211,-0.06886 0.10132367,-0.141659 0.14460757,-0.216423 0.0442676,-0.07575 0.0836166,-0.153463 0.11706327,-0.23413 0.0334467,-0.08067 0.0619747,-0.163301 0.0846003,-0.247903 0.0236094,-0.0846 0.0423002,-0.170187 0.0541049,-0.256756 0.0127884,-0.08657 0.0177071,-0.173138 0.0177071,-0.260691 l 0,-0.01574 0,-49.11028057 z"
             style="fill:#e72512;fill-opacity:1;fill-rule:evenodd;stroke:none"
             id="path7842-9"
             inkscape:connector-curvature="0" />
        </g>
        <path
           d="m 390.64821,368.72531 0,47.275 47.275,0 0,-47.275 -47.275,0 z"
           style="fill:#ffffff;fill-opacity:1;fill-rule:nonzero;stroke:none"
           id="path7852-3"
           inkscape:connector-curvature="0" />
        <g
           id="g7854"
           transform="matrix(0,1.25,1.25,0,411.93446,400.46281)"
           style="fill:#000000" />
      </g>
    </g>
  </g>
</svg>
