<?xml version="1.0" encoding="UTF-8" standalone="no"?>
<!-- Created with Inkscape (http://www.inkscape.org/) -->

<svg
   xmlns:dc="http://purl.org/dc/elements/1.1/"
   xmlns:cc="http://creativecommons.org/ns#"
   xmlns:rdf="http://www.w3.org/1999/02/22-rdf-syntax-ns#"
   xmlns:svg="http://www.w3.org/2000/svg"
   xmlns="http://www.w3.org/2000/svg"
   xmlns:sodipodi="http://sodipodi.sourceforge.net/DTD/sodipodi-0.dtd"
   xmlns:inkscape="http://www.inkscape.org/namespaces/inkscape"
   width="120"
   height="120"
   id="svg2"
   version="1.1"
   inkscape:version="0.48.2 r9819"
   sodipodi:docname="Notice_A5.svg"
   style="display:inline"
   inkscape:export-filename="/Users/mherring/boatsw/oseam/openseamap/josm/icons/WindSurfing16.png"
   inkscape:export-xdpi="12"
   inkscape:export-ydpi="12">
  <defs
     id="defs4" />
  <sodipodi:namedview
     id="base"
     pagecolor="#ffffff"
     bordercolor="#666666"
     borderopacity="1.0"
     inkscape:pageopacity="0.0"
     inkscape:pageshadow="2"
     inkscape:zoom="7.5"
     inkscape:cx="-4.5333333"
     inkscape:cy="60"
     inkscape:document-units="px"
     inkscape:current-layer="layer8"
     showgrid="true"
     inkscape:window-width="1920"
     inkscape:window-height="1088"
     inkscape:window-x="0"
     inkscape:window-y="0"
     inkscape:window-maximized="1"
     inkscape:snap-global="false">
    <inkscape:grid
       type="xygrid"
       id="grid3004"
       empspacing="5"
       visible="true"
       enabled="true"
       snapvisiblegridlinesonly="true" />
  </sodipodi:namedview>
  <metadata
     id="metadata7">
    <rdf:RDF>
      <cc:Work
         rdf:about="">
        <dc:format>image/svg+xml</dc:format>
        <dc:type
           rdf:resource="http://purl.org/dc/dcmitype/StillImage" />
        <dc:title />
      </cc:Work>
    </rdf:RDF>
  </metadata>
  <g
     inkscape:groupmode="layer"
     id="layer8"
     inkscape:label="A5"
     style="display:inline">
    <g
       transform="translate(97.142857,284.78063)"
       id="layer1-37"
       inkscape:label="Ebene 1">
      <g
         id="g3726">
        <path
           d="m -63.014474,-196.78076 -0.0166,0 c -0.0923,0 -0.183579,-0.008 -0.274849,-0.0187 -0.09127,-0.0125 -0.181505,-0.0311 -0.270701,-0.057 -0.08816,-0.0228 -0.175281,-0.0518 -0.260329,-0.0881 -0.08504,-0.0352 -0.166984,-0.0767 -0.246846,-0.12342 -0.07986,-0.0456 -0.156612,-0.0975 -0.229214,-0.1535 -0.0726,-0.056 -0.142092,-0.1172 -0.206396,-0.18255 -0.06534,-0.0643 -0.126534,-0.13378 -0.182541,-0.20638 -0.056,-0.0726 -0.106829,-0.14937 -0.153501,-0.22923 -0.04564,-0.0788 -0.08712,-0.16179 -0.122386,-0.24683 -0.0363,-0.0851 -0.06534,-0.17115 -0.08919,-0.26034 -0.02593,-0.0892 -0.04459,-0.17943 -0.05705,-0.2707 -0.01349,-0.0902 -0.01971,-0.18254 -0.01867,-0.27485 l 0,-51.77758 c 0,-0.0913 0.0073,-0.18357 0.0197,-0.27381 0.01244,-0.0923 0.03007,-0.18253 0.056,-0.2707 0.02282,-0.0892 0.05289,-0.17631 0.08816,-0.26137 0.03527,-0.085 0.07675,-0.16698 0.123424,-0.2458 0.04667,-0.0798 0.09749,-0.15662 0.153501,-0.22922 0.056,-0.0737 0.117199,-0.14209 0.182541,-0.20639 0.06431,-0.0654 0.133795,-0.12654 0.206396,-0.18255 0.0726,-0.056 0.149353,-0.10786 0.229214,-0.1535 0.07986,-0.0466 0.161799,-0.0872 0.246846,-0.12239 0.08504,-0.0363 0.17217,-0.0654 0.260329,-0.0892 0.08919,-0.0249 0.17943,-0.0446 0.270701,-0.0571 0.09127,-0.0125 0.182541,-0.0187 0.274849,-0.0187 l 51.777471,0 c 0.09127,8.3e-4 0.183578,0.008 0.274849,0.0198 0.09127,0.0114 0.181504,0.0311 0.269664,0.056 0.0892,0.0228 0.176318,0.0518 0.261366,0.0872 0.08505,0.0363 0.166984,0.0777 0.245809,0.12445 0.07986,0.0456 0.156612,0.0975 0.2292136,0.1535 0.073639,0.056 0.1420919,0.11721 0.2074335,0.18255 0.065342,0.0643 0.1254972,0.13275 0.1825414,0.20639 0.056007,0.0726 0.1068282,0.14936 0.1524637,0.22922 0.046672,0.0788 0.088159,0.16076 0.1234228,0.24581 0.035264,0.0851 0.065342,0.17217 0.089197,0.26136 0.024891,0.0892 0.043561,0.17944 0.057044,0.27071 0.012446,0.0902 0.018669,0.18254 0.017632,0.27381 l 0,51.77758 c 0,0.0923 -0.00722,0.18461 -0.018669,0.27484 -0.012446,0.0913 -0.031115,0.18151 -0.056007,0.27071 -0.023855,0.0892 -0.052896,0.17631 -0.08816,0.26136 -0.036301,0.084 -0.077787,0.16699 -0.12446,0.24581 -0.045636,0.0798 -0.096457,0.15662 -0.1524636,0.22922 -0.057044,0.0726 -0.1172,0.14209 -0.1825415,0.20639 -0.065342,0.0664 -0.1337946,0.12653 -0.2074335,0.18255 -0.072602,0.0571 -0.1493524,0.10786 -0.2292144,0.1535 -0.07883,0.0467 -0.160761,0.0872 -0.245808,0.12342 -0.08505,0.0353 -0.172169,0.0643 -0.261366,0.0881 -0.08816,0.0259 -0.178393,0.0446 -0.269664,0.057 -0.09127,0.0135 -0.183579,0.0198 -0.274849,0.0187 l -51.760876,0 z"
           style="fill:#e72512;fill-opacity:1;fill-rule:evenodd;stroke:none"
           id="path20046-6"
           inkscape:connector-curvature="0" />
        <path
           d="m -23.252825,-204.85572 -33.813899,-33.81395 0,33.81395 33.813899,0"
           style="fill:#ffffff;fill-opacity:1;fill-rule:evenodd;stroke:none"
           id="path20050-2"
           inkscape:connector-curvature="0" />
        <path
           d="m -17.218997,-210.89061 0,-33.81395 -33.813898,0 33.813898,33.81395"
           style="fill:#ffffff;fill-opacity:1;fill-rule:evenodd;stroke:none"
           id="path20054-9"
           inkscape:connector-curvature="0" />
        <path
           d="m -63.442149,-194.9515 52.627044,0 c 0.152875,-8.4e-4 0.304696,-0.0116 0.455463,-0.0316 0.151821,-0.0211 0.301533,-0.0517 0.4480825,-0.0938 0.1476037,-0.038 0.2930987,-0.0865 0.4333223,-0.14655 0.1402235,-0.059 0.277284,-0.12757 0.4080188,-0.20559 0.1328433,-0.0759 0.2593607,-0.16026 0.3806066,-0.25304 0.1212459,-0.0928 0.2351116,-0.19505 0.3426515,-0.30364 0.1085941,-0.10649 0.2098081,-0.22035 0.3025876,-0.3416 0.092779,-0.12125 0.1771244,-0.24882 0.2530349,-0.38061 0.078019,-0.13179 0.1465494,-0.26779 0.2045365,-0.40907 0.059042,-0.14022 0.1085942,-0.28466 0.148658,-0.43227 0.041118,-0.1476 0.072748,-0.29732 0.093834,-0.44808 0.021086,-0.15077 0.031629,-0.30364 0.030575,-0.45547 l 0,-52.65558 c 0,-0.15182 -0.011597,-0.30469 -0.031629,-0.45546 -0.020032,-0.15182 -0.051661,-0.30153 -0.092779,-0.44808 -0.039009,-0.14761 -0.087508,-0.29205 -0.1465493,-0.43333 -0.059041,-0.14022 -0.1286261,-0.27728 -0.2066452,-0.40802 -0.07591,-0.13178 -0.1602555,-0.25936 -0.2530349,-0.3806 -0.092779,-0.12019 -0.1939935,-0.23511 -0.3025876,-0.34265 -0.1075399,-0.1086 -0.2214056,-0.20981 -0.3426515,-0.30259 -0.1212459,-0.0928 -0.2477633,-0.17713 -0.3806066,-0.25304 -0.1307348,-0.0769 -0.2677953,-0.14549 -0.4090732,-0.20453 -0.1402235,-0.0591 -0.2846642,-0.1086 -0.4322679,-0.14761 -0.1465495,-0.0422 -0.2962615,-0.0738 -0.4480825,-0.0949 -0.150767,-0.0211 -0.302588,-0.0316 -0.455463,-0.0305 l -52.654456,0 c -0.152876,8.4e-4 -0.305751,0.0116 -0.456518,0.0316 -0.150766,0.0211 -0.300479,0.0516 -0.448082,0.0938 -0.147604,0.038 -0.292045,0.0865 -0.432268,0.1455 -0.141278,0.06 -0.277284,0.12863 -0.409073,0.20664 -0.131789,0.0759 -0.259361,0.16026 -0.379553,0.25304 -0.121246,0.0928 -0.236166,0.19399 -0.342651,0.30259 -0.108594,0.10754 -0.209808,0.22246 -0.303642,0.34265 -0.09278,0.12125 -0.177125,0.24776 -0.253035,0.38061 -0.07697,0.13179 -0.145495,0.26779 -0.204537,0.40907 -0.05904,0.14022 -0.108594,0.28572 -0.147603,0.43227 -0.04217,0.1476 -0.0738,0.29732 -0.09489,0.44808 -0.02109,0.15077 -0.03163,0.30364 -0.03057,0.45547 l 0,52.65558 c 10e-4,0.15182 0.0116,0.30469 0.03268,0.45546 0.02003,0.15077 0.05166,0.30048 0.09278,0.44808 0.03796,0.14761 0.08751,0.29205 0.146549,0.43333 0.05904,0.14022 0.127572,0.27623 0.205591,0.40802 0.07591,0.13178 0.160255,0.25936 0.254089,0.3806 0.09278,0.12019 0.193994,0.23511 0.302588,0.3416 0.106485,0.10965 0.221405,0.21086 0.342651,0.30364 0.120192,0.0928 0.247764,0.17713 0.379553,0.25304 0.131789,0.077 0.267795,0.14549 0.409073,0.20453 0.140223,0.059 0.285718,0.1086 0.432268,0.14761 0.147603,0.0422 0.297316,0.0738 0.449137,0.0949 0.150766,0.0211 0.302587,0.0316 0.455463,0.0305 l 0.02741,0 z"
           style="fill:none;stroke:#231f20;stroke-width:0.22773159;stroke-linecap:butt;stroke-linejoin:bevel;stroke-miterlimit:22.9260006;stroke-opacity:1;stroke-dasharray:none"
           id="path20058-8"
           inkscape:connector-curvature="0" />
        <path
           id="path20062-5"
           style="fill:none;stroke:#000000;stroke-width:2;stroke-linecap:butt;stroke-linejoin:bevel;stroke-miterlimit:22.9260006;stroke-opacity:1;stroke-dasharray:none"
           d="m -63.442149,-194.89457 -0.02847,0 c -0.154984,-8.4e-4 -0.308913,-0.0115 -0.462843,-0.0326 -0.153929,-0.0201 -0.30575,-0.0527 -0.455463,-0.0938 -0.149712,-0.0391 -0.297316,-0.0886 -0.439648,-0.14972 -0.143386,-0.06 -0.281501,-0.12968 -0.415399,-0.20875 -0.133897,-0.077 -0.263578,-0.16342 -0.385878,-0.25725 -0.123355,-0.0949 -0.239329,-0.19716 -0.348977,-0.30786 -0.109649,-0.10965 -0.212971,-0.22562 -0.307859,-0.34792 -0.09383,-0.12336 -0.180288,-0.25199 -0.257253,-0.38694 -0.07802,-0.1339 -0.147603,-0.27201 -0.207699,-0.4154 -0.05904,-0.14233 -0.109649,-0.28993 -0.149712,-0.43965 -0.04217,-0.14971 -0.07486,-0.30153 -0.09594,-0.45546 -0.02214,-0.15288 -0.03268,-0.30786 -0.03163,-0.46284 l 0,-52.65558 c 0.001,-0.15499 0.0116,-0.30997 0.03268,-0.46285 0.02109,-0.15393 0.05272,-0.30575 0.09489,-0.45546 0.03901,-0.14971 0.08856,-0.29732 0.148658,-0.4407 0.0601,-0.14234 0.12968,-0.28045 0.208753,-0.41435 0.07802,-0.1339 0.163419,-0.26358 0.258307,-0.38588 0.09383,-0.12335 0.197156,-0.23933 0.306805,-0.34898 0.109648,-0.10964 0.225622,-0.21297 0.348977,-0.3068 0.1223,-0.0949 0.251981,-0.18134 0.385878,-0.25831 0.133898,-0.078 0.272013,-0.1476 0.415399,-0.2077 0.143387,-0.0601 0.289936,-0.10965 0.439648,-0.14971 0.149713,-0.0433 0.301534,-0.0749 0.455463,-0.097 0.15393,-0.0211 0.307859,-0.0316 0.462843,-0.0305 l 52.655511,0 c 0.154984,8.4e-4 0.309968,0.0116 0.463897,0.0326 0.152876,0.0211 0.305751,0.0516 0.4544088,0.0949 0.1507667,0.0379 0.2973161,0.0886 0.4407025,0.14866 0.1433865,0.0601 0.2815014,0.12968 0.4143447,0.20875 0.1349519,0.077 0.263578,0.16342 0.3869325,0.25831 0.1223002,0.0938 0.2393289,0.19716 0.347923,0.3068 0.1107028,0.10965 0.2129711,0.22563 0.3078592,0.34898 0.093834,0.1223 0.1802874,0.25198 0.2572521,0.38588 0.079073,0.1339 0.1486581,0.27201 0.2087538,0.4154 0.059041,0.14339 0.1096485,0.28994 0.1497124,0.43965 0.042173,0.14971 0.074856,0.30153 0.095942,0.45546 0.02214,0.15288 0.031629,0.30786 0.030575,0.46285 l 0,52.65558 c -0.00101,0.15498 -0.011597,0.30996 -0.031629,0.46284 -0.021086,0.15393 -0.052716,0.30575 -0.094888,0.45546 -0.03901,0.14972 -0.088562,0.29732 -0.1497124,0.43965 -0.060096,0.14339 -0.1296803,0.2815 -0.2087538,0.4154 -0.076965,0.13495 -0.1634183,0.26358 -0.2572521,0.38694 -0.094888,0.1223 -0.1971564,0.23827 -0.3078592,0.34792 -0.1085941,0.1107 -0.2256228,0.21297 -0.347923,0.30786 -0.1233545,0.0938 -0.2519806,0.18029 -0.3869325,0.25725 -0.1338977,0.079 -0.2720126,0.1476 -0.415399,0.2077 -0.1423321,0.06 -0.2899358,0.10965 -0.4396482,0.15077 -0.1497118,0.0422 -0.3015328,0.0738 -0.4554628,0.0959 -0.152875,0.0211 -0.307859,0.0316 -0.462843,0.0305 l -52.627044,0 z"
           inkscape:connector-curvature="0" />
        <path
           d="m -50.805164,-217.94924 0,-21.63135 16.508419,0 0.141278,8.4e-4 c 0.04744,0 0.09489,8.4e-4 0.142332,0.002 0.471278,0.0105 0.942555,0.0517 1.408561,0.12441 0.467061,0.0728 0.927795,0.17923 1.380095,0.31735 0.454408,0.12862 0.899328,0.28993 1.330542,0.48287 0.431214,0.19294 0.847667,0.4154 1.248305,0.66527 0.404856,0.2446 0.791789,0.51662 1.158689,0.81393 0.366901,0.29627 0.712715,0.61889 1.036389,0.96365 0.326837,0.33948 0.630479,0.70217 0.908817,1.08488 0.277284,0.38167 0.528211,0.7823 0.750671,1.19876 0.227731,0.41434 0.426996,0.8424 0.595686,1.2831 0.16869,0.44176 0.307859,0.893 0.415399,1.35268 0.09278,0.37112 0.164473,0.74751 0.21508,1.12706 0.04955,0.3785 0.07696,0.75911 0.08118,1.14077 10e-4,0.0433 10e-4,0.0864 0.0021,0.12863 l 0.001,0.12862 -0.001,0.14128 c -0.001,0.0475 -0.0021,0.0949 -0.0031,0.14233 -0.0095,0.47128 -0.05166,0.94256 -0.124409,1.40857 -0.07275,0.46706 -0.178179,0.92779 -0.316294,1.38009 -0.12968,0.45441 -0.29099,0.89933 -0.483929,1.33055 -0.191885,0.43121 -0.414345,0.84872 -0.665271,1.2483 -0.244601,0.40486 -0.515559,0.79179 -0.812875,1.15869 -0.297316,0.36691 -0.618881,0.71272 -0.963641,1.03639 -0.340543,0.3279 -0.703226,0.63154 -1.084887,0.90882 -0.382716,0.27729 -0.783354,0.52821 -1.199808,0.75067 -0.41329,0.22774 -0.842395,0.427 -1.283097,0.59569 -0.440703,0.16869 -0.893003,0.30786 -1.352683,0.41646 -0.371118,0.0917 -0.747507,0.16341 -1.126005,0.21402 -0.378498,0.0496 -0.760159,0.077 -1.14182,0.0811 -0.04217,8.4e-4 -0.0854,0.002 -0.128626,0.002 l -0.128626,8.4e-4 -9.677532,0 0,7.96956 -6.830888,0 0,-7.96956 z"
           style="fill:#000000;fill-opacity:1;fill-rule:evenodd;stroke:#000000;stroke-width:0.22773159;stroke-linecap:butt;stroke-linejoin:bevel;stroke-miterlimit:22.9260006;stroke-opacity:1;stroke-dasharray:none"
           id="path20066"
           inkscape:connector-curvature="0" />
        <path
           d="m -43.973221,-232.74969 0,7.96955 9.677531,0 0.05166,0 c 0.01792,0 0.03479,-8.4e-4 0.05272,-8.4e-4 0.173961,-0.004 0.346868,-0.019 0.518721,-0.0464 0.171853,-0.0263 0.341597,-0.0654 0.508179,-0.11598 0.167635,-0.0485 0.331054,-0.10754 0.490255,-0.17818 0.159201,-0.0717 0.31313,-0.15287 0.460734,-0.24565 0.148658,-0.0896 0.29099,-0.18978 0.425942,-0.29943 0.136007,-0.10964 0.262524,-0.22773 0.381661,-0.3553 0.121246,-0.12546 0.233003,-0.25831 0.335272,-0.39958 0.102268,-0.14023 0.195047,-0.28783 0.276229,-0.44176 0.08434,-0.15182 0.158147,-0.30997 0.220352,-0.47233 0.0622,-0.16237 0.112811,-0.32895 0.152875,-0.49869 0.03374,-0.13706 0.0601,-0.27518 0.07802,-0.4154 0.01898,-0.13917 0.02847,-0.2794 0.03058,-0.41962 l 0.0011,-0.0284 0,-0.0284 0,-0.059 c 0,-0.0169 0,-0.0348 -0.0011,-0.0517 -0.0021,-0.17397 -0.01581,-0.34793 -0.04112,-0.51873 -0.0253,-0.1729 -0.06326,-0.34265 -0.112812,-0.51028 -0.04639,-0.16764 -0.104377,-0.33211 -0.173961,-0.49131 -0.06959,-0.15921 -0.150767,-0.31419 -0.241438,-0.46179 -0.08856,-0.14972 -0.187667,-0.2931 -0.296261,-0.42911 -0.108594,-0.13601 -0.225623,-0.26463 -0.352141,-0.38482 -0.124408,-0.12125 -0.257252,-0.23406 -0.396421,-0.33844 -0.140223,-0.10332 -0.286773,-0.1961 -0.439648,-0.27939 -0.151821,-0.0854 -0.308914,-0.16026 -0.471278,-0.22352 -0.162364,-0.0633 -0.327891,-0.11597 -0.497635,-0.15709 -0.141278,-0.0369 -0.284664,-0.0654 -0.430159,-0.0854 -0.144441,-0.019 -0.289936,-0.0295 -0.436486,-0.0316 l -0.04639,0 -0.04744,-8.4e-4 -9.677531,0 z"
           style="fill:#ffffff;fill-opacity:1;fill-rule:evenodd;stroke:#000000;stroke-width:0.22773159;stroke-linecap:butt;stroke-linejoin:bevel;stroke-miterlimit:22.9260006;stroke-opacity:1;stroke-dasharray:none"
           id="path20070"
           inkscape:connector-curvature="0" />
        <path
           d="m -32.214478,-225.36739 -6.921559,-7.3823 -4.838239,0 0,7.96955 9.781908,-8.4e-4 c 0.681086,-0.0527 1.340031,-0.24777 1.97789,-0.5862"
           style="fill:#e72512;fill-opacity:1;fill-rule:evenodd;stroke:none"
           id="path20074"
           inkscape:connector-curvature="0" />
      </g>
    </g>
  </g>
</svg>
