<?xml version="1.0" encoding="UTF-8" standalone="no"?>
<!-- Created with Inkscape (http://www.inkscape.org/) -->

<svg
   xmlns:dc="http://purl.org/dc/elements/1.1/"
   xmlns:cc="http://creativecommons.org/ns#"
   xmlns:rdf="http://www.w3.org/1999/02/22-rdf-syntax-ns#"
   xmlns:svg="http://www.w3.org/2000/svg"
   xmlns="http://www.w3.org/2000/svg"
   xmlns:sodipodi="http://sodipodi.sourceforge.net/DTD/sodipodi-0.dtd"
   xmlns:inkscape="http://www.inkscape.org/namespaces/inkscape"
   width="60"
   height="60"
   id="svg2"
   version="1.1"
   inkscape:version="0.48.2 r9819"
   sodipodi:docname="Notice_E16.svg"
   style="display:inline"
   inkscape:export-filename="/Users/mherring/boatsw/oseam/openseamap/josm/icons/WindSurfing16.png"
   inkscape:export-xdpi="12"
   inkscape:export-ydpi="12">
  <defs
     id="defs4" />
  <sodipodi:namedview
     id="base"
     pagecolor="#ffffff"
     bordercolor="#666666"
     borderopacity="1.0"
     inkscape:pageopacity="0.0"
     inkscape:pageshadow="2"
     inkscape:zoom="5.3032952"
     inkscape:cx="14.367998"
     inkscape:cy="59.084222"
     inkscape:document-units="px"
     inkscape:current-layer="layer46"
     showgrid="true"
     inkscape:window-width="1920"
     inkscape:window-height="1088"
     inkscape:window-x="0"
     inkscape:window-y="0"
     inkscape:window-maximized="1"
     inkscape:snap-global="false">
    <inkscape:grid
       type="xygrid"
       id="grid3004"
       empspacing="5"
       visible="true"
       enabled="true"
       snapvisiblegridlinesonly="true" />
  </sodipodi:namedview>
  <metadata
     id="metadata7">
    <rdf:RDF>
      <cc:Work
         rdf:about="">
        <dc:format>image/svg+xml</dc:format>
        <dc:type
           rdf:resource="http://purl.org/dc/dcmitype/StillImage" />
        <dc:title />
      </cc:Work>
    </rdf:RDF>
  </metadata>
  <g
     inkscape:groupmode="layer"
     id="layer46"
     inkscape:label="E16"
     style="display:inline"
     transform="translate(0,-60)">
    <g
       transform="matrix(0.97035079,0,0,0.97033389,-510.62398,-293.49474)"
       id="layer1-194"
       inkscape:label="Ebene 1">
      <g
         transform="matrix(0.84346443,0,0,0.84346443,87.212673,61.865881)"
         id="g2941">
        <g
           id="g3801"
           transform="matrix(0,1.25,1.25,0,525.96161,430.58495)"
           style="fill:#ffffff;stroke:#000000;stroke-width:1.03056431">
          <path
             d="m 0,0 0,49.89 0,0.013 0,0.013 c -0.001,0.145 -0.011,0.289 -0.031,0.432 -0.019,0.144 -0.048,0.286 -0.088,0.425 -0.036,0.14 -0.083,0.278 -0.139,0.411 -0.056,0.133 -0.121,0.263 -0.195,0.387 -0.072,0.126 -0.153,0.246 -0.241,0.361 -0.088,0.114 -0.184,0.223 -0.287,0.325 -0.101,0.103 -0.21,0.199 -0.324,0.287 -0.115,0.088 -0.236,0.169 -0.361,0.24 -0.125,0.074 -0.254,0.138 -0.388,0.194 -0.133,0.056 -0.271,0.103 -0.41,0.14 -0.14,0.04 -0.282,0.07 -0.425,0.09 -0.144,0.02 -0.288,0.03 -0.432,0.029 l -49.943,0 c -0.144,-0.001 -0.289,-0.011 -0.432,-0.03 -0.144,-0.019 -0.285,-0.049 -0.425,-0.089 -0.14,-0.036 -0.277,-0.082 -0.41,-0.138 -0.134,-0.057 -0.263,-0.122 -0.388,-0.196 -0.125,-0.071 -0.246,-0.152 -0.361,-0.24 -0.114,-0.088 -0.223,-0.184 -0.324,-0.287 -0.104,-0.102 -0.199,-0.211 -0.288,-0.325 -0.088,-0.115 -0.168,-0.235 -0.24,-0.361 -0.073,-0.125 -0.138,-0.254 -0.194,-0.387 -0.056,-0.134 -0.103,-0.271 -0.14,-0.411 -0.04,-0.139 -0.07,-0.281 -0.09,-0.425 -0.02,-0.143 -0.03,-0.288 -0.029,-0.432 l 0,-49.942 c 10e-4,-0.145 0.011,-0.289 0.03,-0.433 0.02,-0.143 0.049,-0.285 0.089,-0.424 0.036,-0.14 0.082,-0.278 0.138,-0.411 0.057,-0.133 0.122,-0.263 0.196,-0.388 0.072,-0.125 0.152,-0.246 0.24,-0.36 0.089,-0.115 0.184,-0.223 0.288,-0.325 0.101,-0.103 0.21,-0.199 0.324,-0.287 0.115,-0.089 0.236,-0.169 0.361,-0.241 0.125,-0.073 0.255,-0.138 0.388,-0.194 0.133,-0.055 0.27,-0.102 0.41,-0.14 0.14,-0.039 0.282,-0.069 0.425,-0.089 0.143,-0.021 0.288,-0.031 0.432,-0.029 l 0.013,0 0.014,-10e-4 49.889,0 0.013,10e-4 0.014,0 c 0.144,0 0.288,0.01 0.432,0.03 0.143,0.019 0.285,0.049 0.425,0.088 0.14,0.036 0.277,0.083 0.41,0.139 0.134,0.056 0.263,0.121 0.388,0.195 0.125,0.072 0.246,0.153 0.36,0.241 0.115,0.088 0.224,0.184 0.325,0.287 0.103,0.102 0.2,0.21 0.288,0.325 0.088,0.114 0.168,0.235 0.24,0.36 0.073,0.125 0.138,0.255 0.194,0.388 0.056,0.134 0.103,0.271 0.14,0.411 0.04,0.139 0.07,0.281 0.09,0.425 0.02,0.143 0.03,0.287 0.029,0.432 L 0,-0.013 0,0 z"
             style="fill:#ffffff;stroke:#000000;stroke-width:0.22260185;stroke-linecap:butt;stroke-linejoin:bevel;stroke-miterlimit:22.9260006;stroke-opacity:1;stroke-dasharray:none"
             id="path3803"
             inkscape:connector-curvature="0" />
          <g
             id="g3805"
             transform="translate(0.054,0)"
             style="fill:#ffffff;stroke:#000000;stroke-width:1.03056431">
            <path
               d="M 0,0 0,-0.027 C -0.001,-0.174 -0.011,-0.32 -0.031,-0.466 -0.05,-0.612 -0.081,-0.756 -0.12,-0.897 -0.157,-1.04 -0.205,-1.18 -0.262,-1.315 -0.319,-1.45 -0.385,-1.582 -0.46,-1.708 -0.533,-1.836 -0.615,-1.958 -0.705,-2.075 -0.794,-2.192 -0.892,-2.302 -0.996,-2.405 -1.1,-2.51 -1.21,-2.608 -1.326,-2.697 -1.443,-2.787 -1.565,-2.868 -1.693,-2.941 -1.82,-3.016 -1.951,-3.082 -2.087,-3.138 -2.223,-3.195 -2.362,-3.243 -2.504,-3.281 -2.646,-3.321 -2.79,-3.352 -2.936,-3.372 -3.081,-3.393 -3.228,-3.402 -3.375,-3.401 l -49.943,0 c -0.147,0 -0.294,0.011 -0.439,0.03 -0.146,0.02 -0.29,0.05 -0.431,0.09 -0.143,0.037 -0.283,0.084 -0.419,0.141 -0.135,0.057 -0.266,0.123 -0.392,0.199 -0.128,0.073 -0.251,0.155 -0.367,0.244 -0.117,0.09 -0.227,0.187 -0.331,0.292 -0.104,0.103 -0.202,0.213 -0.291,0.33 -0.09,0.116 -0.172,0.239 -0.245,0.367 -0.074,0.126 -0.14,0.258 -0.197,0.393 -0.057,0.136 -0.104,0.275 -0.142,0.418 -0.041,0.141 -0.071,0.285 -0.092,0.431 -0.02,0.146 -0.03,0.293 -0.029,0.439 l 0,49.943 c 10e-4,0.147 0.011,0.294 0.031,0.44 0.02,0.145 0.05,0.29 0.09,0.431 0.036,0.143 0.084,0.282 0.141,0.418 0.057,0.135 0.123,0.267 0.198,0.393 0.073,0.128 0.155,0.25 0.245,0.367 0.089,0.116 0.187,0.227 0.291,0.33 0.104,0.105 0.214,0.202 0.331,0.292 0.116,0.09 0.239,0.171 0.367,0.244 0.126,0.075 0.257,0.141 0.393,0.197 0.136,0.057 0.275,0.105 0.418,0.143 0.141,0.04 0.285,0.07 0.431,0.091 0.145,0.021 0.292,0.03 0.439,0.029 l 49.943,0 c 0.147,0 0.294,-0.011 0.439,-0.031 0.146,-0.019 0.29,-0.049 0.432,-0.089 0.142,-0.037 0.282,-0.084 0.417,-0.142 0.136,-0.057 0.267,-0.123 0.394,-0.198 0.127,-0.073 0.25,-0.155 0.367,-0.244 0.116,-0.09 0.226,-0.187 0.33,-0.292 0.105,-0.103 0.202,-0.214 0.292,-0.33 0.089,-0.117 0.171,-0.239 0.244,-0.367 0.075,-0.127 0.14,-0.258 0.197,-0.394 0.057,-0.135 0.104,-0.275 0.143,-0.417 0.039,-0.141 0.07,-0.286 0.091,-0.431 0.02,-0.146 0.03,-0.293 0.029,-0.44 L 0,0 z"
               style="fill:#ffffff;stroke:#000000;stroke-width:1.95491648;stroke-linecap:butt;stroke-linejoin:bevel;stroke-miterlimit:22.9260006;stroke-opacity:1;stroke-dasharray:none"
               id="path3807"
               inkscape:connector-curvature="0" />
          </g>
        </g>
        <g
           id="g3809"
           transform="matrix(0,1.25,1.25,0,525.96161,427.6162)"
           style="fill:#003399;fill-opacity:1">
          <path
             d="m 0,0 0,-0.008 c 0,-0.042 -0.003,-0.084 -0.009,-0.125 -0.005,-0.042 -0.014,-0.083 -0.026,-0.123 -0.01,-0.041 -0.024,-0.081 -0.04,-0.12 -0.016,-0.038 -0.035,-0.076 -0.057,-0.112 -0.02,-0.037 -0.044,-0.072 -0.07,-0.105 -0.025,-0.033 -0.053,-0.065 -0.083,-0.094 -0.029,-0.03 -0.061,-0.058 -0.094,-0.084 C -0.412,-0.796 -0.447,-0.819 -0.484,-0.84 -0.52,-0.862 -0.558,-0.88 -0.596,-0.896 -0.635,-0.913 -0.675,-0.927 -0.715,-0.937 -0.756,-0.949 -0.797,-0.958 -0.839,-0.964 -0.88,-0.969 -0.922,-0.972 -0.964,-0.972 l -0.008,0 -49.89,0 -0.007,0 c -0.042,0 -0.084,0.003 -0.126,0.009 -0.041,0.005 -0.083,0.014 -0.123,0.026 -0.041,0.01 -0.081,0.024 -0.119,0.04 -0.039,0.016 -0.077,0.035 -0.113,0.057 -0.036,0.021 -0.071,0.044 -0.104,0.07 -0.034,0.025 -0.065,0.053 -0.095,0.083 -0.03,0.029 -0.058,0.061 -0.083,0.094 -0.026,0.033 -0.049,0.068 -0.07,0.105 -0.021,0.036 -0.04,0.074 -0.057,0.112 -0.016,0.039 -0.029,0.079 -0.04,0.12 -0.012,0.04 -0.02,0.081 -0.026,0.123 -0.006,0.041 -0.009,0.083 -0.008,0.125 l 0,49.905 c 0,0.042 0.002,0.084 0.008,0.126 0.006,0.041 0.014,0.083 0.026,0.123 0.01,0.041 0.024,0.081 0.04,0.119 0.017,0.039 0.035,0.077 0.057,0.113 0.021,0.036 0.044,0.071 0.07,0.104 0.025,0.034 0.053,0.065 0.083,0.095 0.03,0.03 0.061,0.058 0.095,0.083 0.033,0.026 0.068,0.049 0.104,0.07 0.036,0.021 0.074,0.04 0.113,0.057 0.038,0.016 0.078,0.029 0.119,0.04 0.04,0.012 0.082,0.02 0.123,0.026 0.042,0.006 0.084,0.009 0.126,0.009 l 49.905,0 c 0.042,0 0.084,-0.003 0.125,-0.009 0.042,-0.006 0.083,-0.014 0.124,-0.026 0.04,-0.01 0.08,-0.024 0.119,-0.04 0.038,-0.016 0.076,-0.035 0.112,-0.057 0.037,-0.021 0.072,-0.044 0.105,-0.07 0.033,-0.025 0.065,-0.053 0.094,-0.083 0.03,-0.03 0.058,-0.061 0.084,-0.095 0.025,-0.033 0.049,-0.068 0.069,-0.104 0.022,-0.036 0.04,-0.074 0.057,-0.113 0.016,-0.038 0.03,-0.078 0.04,-0.119 0.012,-0.04 0.021,-0.082 0.027,-0.123 C -0.003,49.981 0,49.939 0,49.897 L 0,49.89 0,0"
             style="fill:#003399;fill-opacity:1;fill-rule:evenodd;stroke:none"
             id="path3811"
             inkscape:connector-curvature="0" />
        </g>
        <g
           id="g3813"
           transform="matrix(0,1.25,1.25,0,535.89781,398.7262)">
          <path
             d="M 0,0 0.712,0 0.746,0.002 C 0.757,0.003 0.769,0.003 0.78,0.004 0.911,0.014 1.04,0.041 1.163,0.086 1.287,0.13 1.403,0.194 1.508,0.276 1.596,0.339 1.676,0.414 1.744,0.499 1.812,0.584 1.867,0.678 1.91,0.778 1.96,0.89 1.994,1.009 2.01,1.13 2.027,1.253 2.029,1.377 2.016,1.501 2.007,1.626 1.982,1.749 1.942,1.868 1.903,1.986 1.845,2.097 1.771,2.197 1.697,2.299 1.608,2.389 1.505,2.463 1.403,2.537 1.291,2.596 1.171,2.637 1.133,2.652 1.094,2.665 1.055,2.676 1.015,2.686 0.976,2.695 0.936,2.702 0.919,2.705 0.902,2.708 0.886,2.71 0.869,2.713 0.852,2.715 0.835,2.717 l -1.547,0 c -0.019,0 -0.038,0 -0.057,0 C -0.788,2.716 -0.807,2.716 -0.825,2.714 -0.901,2.709 -0.977,2.695 -1.05,2.672 -1.123,2.649 -1.195,2.62 -1.264,2.585 -1.336,2.551 -1.405,2.511 -1.471,2.465 -1.536,2.42 -1.596,2.368 -1.649,2.309 -1.685,2.272 -1.717,2.233 -1.747,2.191 -1.776,2.149 -1.803,2.105 -1.827,2.06 -1.837,2.042 -1.846,2.024 -1.855,2.006 -1.864,1.988 -1.873,1.969 -1.882,1.951 L -2.578,0.224 -2.594,0.183 C -2.599,0.169 -2.604,0.156 -2.61,0.142 -2.653,0.036 -2.703,-0.067 -2.762,-0.166 -2.82,-0.266 -2.884,-0.361 -2.953,-0.453 -3.076,-0.624 -3.216,-0.782 -3.369,-0.926 -3.523,-1.07 -3.691,-1.198 -3.872,-1.306 -4.074,-1.434 -4.29,-1.537 -4.517,-1.612 -4.742,-1.687 -4.976,-1.734 -5.213,-1.751 -5.232,-1.753 -5.251,-1.755 -5.27,-1.757 l -0.057,-0.004 -1.13,0 c -0.031,0 -0.062,0 -0.093,10e-4 -0.031,0.001 -0.062,0.002 -0.093,0.003 -0.168,0.009 -0.333,0.036 -0.495,0.079 -0.164,0.044 -0.323,0.102 -0.476,0.172 -0.24,0.102 -0.466,0.233 -0.675,0.388 -0.208,0.156 -0.396,0.337 -0.557,0.541 -0.18,0.213 -0.329,0.451 -0.443,0.706 -0.114,0.255 -0.192,0.525 -0.233,0.801 -0.04,0.232 -0.053,0.469 -0.038,0.704 0.014,0.235 0.057,0.467 0.127,0.692 0.083,0.289 0.208,0.564 0.371,0.816 0.164,0.253 0.363,0.482 0.592,0.678 0.177,0.162 0.373,0.302 0.584,0.418 0.209,0.116 0.431,0.206 0.661,0.269 0.094,0.028 0.19,0.051 0.287,0.07 0.096,0.018 0.193,0.031 0.291,0.039 0.021,0.002 0.042,0.004 0.064,0.005 l 0.064,0.005 0.86,0 0,-1.891 -0.716,0 L -6.412,2.731 -6.449,2.727 C -6.526,2.718 -6.602,2.706 -6.678,2.689 -6.754,2.672 -6.827,2.648 -6.898,2.617 -7.008,2.571 -7.11,2.507 -7.199,2.427 -7.289,2.346 -7.367,2.254 -7.431,2.151 -7.497,2.055 -7.549,1.951 -7.586,1.841 -7.624,1.731 -7.645,1.617 -7.65,1.502 -7.662,1.339 -7.642,1.174 -7.591,1.019 -7.54,0.861 -7.459,0.715 -7.353,0.588 -7.274,0.487 -7.18,0.398 -7.073,0.327 -6.969,0.256 -6.852,0.204 -6.73,0.174 -6.687,0.162 -6.644,0.152 -6.6,0.146 -6.556,0.139 -6.512,0.133 -6.468,0.128 l 0.04,-0.004 0.04,-0.004 0.851,0 0.034,0.002 c 0.011,0.001 0.023,0.002 0.034,0.003 0.087,0.008 0.172,0.024 0.256,0.048 0.084,0.023 0.166,0.054 0.244,0.093 0.074,0.034 0.145,0.076 0.211,0.124 0.066,0.048 0.128,0.102 0.183,0.162 0.032,0.034 0.062,0.068 0.089,0.105 0.028,0.036 0.053,0.075 0.075,0.115 0.008,0.014 0.016,0.027 0.023,0.042 l 0.021,0.042 0.575,1.433 0.021,0.045 0.022,0.046 c 0.045,0.102 0.089,0.205 0.133,0.309 0.042,0.103 0.09,0.205 0.142,0.304 0.069,0.132 0.149,0.258 0.241,0.376 0.092,0.118 0.193,0.23 0.302,0.334 0.13,0.128 0.271,0.246 0.421,0.351 0.149,0.104 0.308,0.194 0.475,0.269 0.168,0.078 0.344,0.141 0.524,0.187 0.18,0.046 0.364,0.077 0.549,0.092 l 0.044,0.005 0.044,0.004 1.679,0 L 0.84,4.607 0.876,4.604 C 1.001,4.592 1.125,4.577 1.248,4.557 1.372,4.538 1.494,4.512 1.615,4.479 1.869,4.412 2.112,4.311 2.337,4.177 2.564,4.043 2.773,3.879 2.957,3.69 3.131,3.524 3.284,3.337 3.413,3.135 3.542,2.932 3.646,2.716 3.724,2.49 3.813,2.253 3.872,2.006 3.901,1.755 3.93,1.503 3.93,1.248 3.9,0.996 3.867,0.661 3.783,0.333 3.65,0.023 3.518,-0.286 3.336,-0.572 3.11,-0.823 2.931,-1.035 2.724,-1.221 2.493,-1.375 2.264,-1.528 2.014,-1.647 1.751,-1.728 1.618,-1.773 1.482,-1.808 1.343,-1.833 1.205,-1.859 1.066,-1.877 0.926,-1.888 L 0.882,-1.891 0.839,-1.895 0,-1.895 0,0"
             style="fill:#ffffff;fill-opacity:1;fill-rule:evenodd;stroke:none"
             id="path3815"
             inkscape:connector-curvature="0" />
        </g>
        <g
           id="g3817"
           transform="matrix(0,1.25,1.25,0,543.74661,403.4662)">
          <path
             d="m 0,0 -13.227,0 0,3.213 0.005,0.07 c 0.002,0.023 0.004,0.046 0.006,0.07 0.016,0.169 0.046,0.338 0.089,0.503 0.044,0.165 0.102,0.327 0.174,0.482 0.101,0.23 0.231,0.447 0.389,0.643 0.157,0.196 0.339,0.372 0.541,0.522 0.141,0.112 0.293,0.211 0.452,0.294 0.158,0.083 0.325,0.15 0.496,0.201 0.102,0.032 0.205,0.059 0.309,0.08 0.104,0.021 0.209,0.038 0.314,0.051 0.024,0.003 0.048,0.006 0.072,0.009 l 0.073,0.009 2.165,0 0.034,0 0.034,0 C -7.889,6.144 -7.707,6.117 -7.529,6.066 -7.35,6.016 -7.175,5.948 -7.008,5.865 -6.774,5.757 -6.553,5.622 -6.35,5.462 -6.149,5.305 -5.97,5.12 -5.821,4.912 -5.676,4.724 -5.556,4.517 -5.463,4.298 -5.37,4.079 -5.299,3.851 -5.253,3.617 -5.241,3.564 -5.23,3.51 -5.222,3.457 -5.213,3.403 -5.207,3.349 -5.203,3.295 -5.201,3.267 -5.2,3.239 -5.199,3.211 -5.198,3.183 -5.198,3.155 -5.198,3.127 l 0,-1.245 L 0,1.882 0,0"
             style="fill:#ffffff;fill-opacity:1;fill-rule:evenodd;stroke:none"
             id="path3819"
             inkscape:connector-curvature="0" />
        </g>
        <g
           id="g3821"
           transform="matrix(0,1.25,1.25,0,553.22411,390.63745)">
          <path
             d="m 0,0 -0.054,0.004 c -0.019,0.001 -0.037,0.003 -0.055,0.004 -0.236,0.02 -0.47,0.065 -0.697,0.133 -0.228,0.068 -0.448,0.163 -0.653,0.283 -0.243,0.132 -0.466,0.297 -0.662,0.492 -0.196,0.194 -0.366,0.414 -0.502,0.654 -0.116,0.187 -0.21,0.387 -0.283,0.596 -0.071,0.208 -0.121,0.423 -0.146,0.642 -0.037,0.268 -0.038,0.54 -0.004,0.808 0.033,0.268 0.103,0.53 0.208,0.78 0.111,0.283 0.264,0.548 0.455,0.786 0.193,0.239 0.419,0.451 0.671,0.627 0.228,0.172 0.479,0.312 0.745,0.417 0.262,0.103 0.539,0.161 0.82,0.172 0.018,0.001 0.037,0.002 0.055,0.003 l 0.055,0.002 7.345,0 0.059,-0.005 C 7.377,6.396 7.396,6.394 7.416,6.392 7.607,6.373 7.795,6.34 7.981,6.293 8.167,6.245 8.348,6.18 8.523,6.099 8.842,5.959 9.135,5.765 9.389,5.526 9.644,5.287 9.855,5.005 10.012,4.693 10.139,4.467 10.234,4.225 10.295,3.974 10.357,3.723 10.387,3.465 10.384,3.207 10.388,2.944 10.359,2.682 10.298,2.427 10.237,2.173 10.144,1.928 10.019,1.699 9.912,1.489 9.779,1.293 9.624,1.116 9.469,0.937 9.294,0.776 9.103,0.635 8.903,0.481 8.686,0.352 8.455,0.249 8.227,0.148 7.986,0.079 7.739,0.045 7.679,0.036 7.619,0.028 7.559,0.022 7.499,0.016 7.439,0.011 7.379,0.007 L 7.281,0 0,0"
             style="fill:#ffffff;fill-opacity:1;fill-rule:evenodd;stroke:none"
             id="path3823"
             inkscape:connector-curvature="0" />
        </g>
        <g
           id="g3825"
           transform="matrix(0,1.25,1.25,0,555.59031,390.76495)"
           style="fill:#003399;fill-opacity:1">
          <path
             d="M 0,0 7.078,0 7.125,0.004 C 7.141,0.005 7.157,0.007 7.172,0.008 7.297,0.021 7.42,0.048 7.539,0.089 7.658,0.13 7.77,0.189 7.871,0.264 7.985,0.342 8.084,0.44 8.163,0.552 8.243,0.665 8.303,0.791 8.341,0.925 8.383,1.057 8.402,1.195 8.398,1.334 8.394,1.473 8.366,1.61 8.317,1.739 8.277,1.856 8.219,1.967 8.146,2.067 8.074,2.168 7.987,2.257 7.889,2.332 7.816,2.39 7.738,2.44 7.655,2.48 7.572,2.521 7.485,2.553 7.395,2.575 7.357,2.586 7.319,2.594 7.28,2.601 7.241,2.607 7.202,2.612 7.163,2.614 7.148,2.615 7.134,2.616 7.119,2.616 7.105,2.616 7.09,2.617 7.076,2.617 l -7.095,0 -0.049,-0.004 C -0.085,2.612 -0.101,2.61 -0.117,2.608 -0.22,2.598 -0.321,2.575 -0.419,2.541 -0.518,2.508 -0.611,2.461 -0.697,2.403 -0.815,2.329 -0.919,2.235 -1.004,2.125 -1.09,2.014 -1.157,1.89 -1.202,1.757 -1.253,1.621 -1.281,1.477 -1.284,1.332 -1.287,1.187 -1.265,1.043 -1.218,0.905 -1.181,0.782 -1.126,0.666 -1.053,0.559 -0.981,0.454 -0.893,0.361 -0.791,0.284 -0.722,0.229 -0.647,0.182 -0.567,0.143 -0.488,0.105 -0.405,0.074 -0.32,0.051 -0.28,0.04 -0.241,0.03 -0.201,0.022 -0.161,0.015 -0.121,0.009 -0.08,0.006 -0.067,0.004 -0.053,0.003 -0.04,0.002 L 0,0"
             style="fill:#003399;fill-opacity:1;fill-rule:evenodd;stroke:none"
             id="path3827"
             inkscape:connector-curvature="0" />
        </g>
        <g
           id="g3829"
           transform="matrix(0,1.25,1.25,0,563.57031,403.4662)">
          <path
             d="m 0,0 -13.227,0 0,3.47 c 0,0.029 0,0.059 0,0.089 10e-4,0.03 10e-4,0.06 0.003,0.09 0.013,0.26 0.07,0.517 0.168,0.759 0.099,0.246 0.232,0.477 0.394,0.688 0.16,0.227 0.351,0.431 0.567,0.606 0.213,0.174 0.45,0.316 0.703,0.421 0.138,0.063 0.281,0.115 0.427,0.155 0.145,0.041 0.293,0.073 0.443,0.096 0.021,0.004 0.042,0.007 0.062,0.01 l 0.063,0.01 1.811,0 0.078,-0.01 C -8.482,6.381 -8.456,6.378 -8.43,6.374 -8.249,6.35 -8.069,6.314 -7.893,6.266 -7.716,6.217 -7.544,6.151 -7.38,6.07 -7.222,5.996 -7.071,5.906 -6.93,5.802 -6.789,5.699 -6.657,5.583 -6.537,5.455 -6.46,5.376 -6.387,5.294 -6.319,5.207 -6.251,5.12 -6.187,5.03 -6.129,4.937 -6.115,4.915 -6.101,4.892 -6.087,4.87 -6.074,4.847 -6.06,4.825 -6.047,4.802 L 0,6.861 0,4.843 -5.657,3.071 -5.657,1.896 0,1.896 0,0"
             style="fill:#ffffff;fill-opacity:1;fill-rule:evenodd;stroke:none"
             id="path3831"
             inkscape:connector-curvature="0" />
        </g>
        <g
           id="g3833"
           transform="matrix(0,1.25,1.25,0,565.94031,389.1662)"
           style="fill:#003399;fill-opacity:1">
          <path
             d="m 0,0 4.121,0 0,1.443 C 4.121,1.459 4.12,1.476 4.12,1.493 4.119,1.51 4.118,1.527 4.117,1.543 4.106,1.689 4.069,1.832 4.008,1.964 3.947,2.098 3.862,2.218 3.756,2.319 3.693,2.386 3.623,2.444 3.546,2.494 3.469,2.543 3.387,2.586 3.303,2.621 3.247,2.646 3.189,2.667 3.13,2.684 3.072,2.701 3.012,2.714 2.951,2.72 2.936,2.722 2.92,2.724 2.904,2.725 2.888,2.726 2.872,2.727 2.856,2.728 l -1.58,0 L 1.232,2.725 C 1.218,2.723 1.204,2.722 1.189,2.72 1.115,2.712 1.042,2.699 0.969,2.682 0.897,2.664 0.826,2.64 0.758,2.61 0.668,2.573 0.584,2.524 0.506,2.466 0.428,2.407 0.358,2.34 0.296,2.264 0.241,2.2 0.192,2.13 0.152,2.055 0.111,1.981 0.079,1.903 0.055,1.822 0.039,1.772 0.027,1.721 0.018,1.67 0.008,1.618 0.003,1.566 0.001,1.515 0.001,1.496 0,1.478 0,1.46 0,1.442 0,1.424 0,1.406 L 0,0"
             style="fill:#003399;fill-opacity:1;fill-rule:evenodd;stroke:none"
             id="path3835"
             inkscape:connector-curvature="0" />
        </g>
        <g
           id="g3837"
           transform="matrix(0,1.25,1.25,0,575.58031,403.46745)">
          <path
             d="m 0,0 -11.463,0 0,-2.251 -1.765,0 0,6.389 1.765,0.002 0,-2.248 L 0,1.892 0,0"
             style="fill:#ffffff;fill-opacity:1;fill-rule:evenodd;stroke:none"
             id="path3839"
             inkscape:connector-curvature="0" />
        </g>
        <g
           id="g3841"
           transform="matrix(0,1.25,1.25,0,546.08781,389.1662)"
           style="fill:#003399;fill-opacity:1">
          <path
             d="m 0,0 4.466,0 0,1.192 c 0,0.018 -0.001,0.037 -0.001,0.055 0,0.018 -10e-4,0.037 -0.002,0.055 C 4.457,1.41 4.435,1.517 4.399,1.619 4.363,1.722 4.314,1.819 4.252,1.909 4.198,1.994 4.134,2.071 4.061,2.141 3.988,2.21 3.907,2.269 3.82,2.319 3.738,2.368 3.651,2.408 3.561,2.438 3.471,2.467 3.378,2.486 3.284,2.493 3.271,2.494 3.259,2.495 3.247,2.496 l -0.037,0.002 -2.002,0 C 1.186,2.497 1.164,2.495 1.141,2.492 1.119,2.49 1.097,2.488 1.075,2.484 0.963,2.468 0.854,2.436 0.752,2.389 0.648,2.342 0.552,2.281 0.466,2.206 0.37,2.13 0.287,2.039 0.219,1.938 0.151,1.836 0.098,1.726 0.062,1.61 0.045,1.562 0.032,1.513 0.022,1.464 0.012,1.414 0.005,1.365 0.003,1.315 0.001,1.296 0.001,1.276 0.001,1.257 0,1.238 0,1.218 0,1.199 L 0,0"
             style="fill:#003399;fill-opacity:1;fill-rule:evenodd;stroke:none"
             id="path3843"
             inkscape:connector-curvature="0" />
        </g>
      </g>
    </g>
  </g>
</svg>
