<?xml version="1.0" encoding="UTF-8" standalone="no"?>
<!-- Created with Inkscape (http://www.inkscape.org/) -->

<svg
   xmlns:dc="http://purl.org/dc/elements/1.1/"
   xmlns:cc="http://creativecommons.org/ns#"
   xmlns:rdf="http://www.w3.org/1999/02/22-rdf-syntax-ns#"
   xmlns:svg="http://www.w3.org/2000/svg"
   xmlns="http://www.w3.org/2000/svg"
   xmlns:sodipodi="http://sodipodi.sourceforge.net/DTD/sodipodi-0.dtd"
   xmlns:inkscape="http://www.inkscape.org/namespaces/inkscape"
   width="60"
   height="60"
   id="svg2"
   version="1.1"
   inkscape:version="0.48.2 r9819"
   sodipodi:docname="Notice_E15.svg"
   style="display:inline"
   inkscape:export-filename="/Users/mherring/boatsw/oseam/openseamap/josm/icons/WindSurfing16.png"
   inkscape:export-xdpi="12"
   inkscape:export-ydpi="12">
  <defs
     id="defs4" />
  <sodipodi:namedview
     id="base"
     pagecolor="#ffffff"
     bordercolor="#666666"
     borderopacity="1.0"
     inkscape:pageopacity="0.0"
     inkscape:pageshadow="2"
     inkscape:zoom="5.3032952"
     inkscape:cx="14.367998"
     inkscape:cy="59.084222"
     inkscape:document-units="px"
     inkscape:current-layer="layer45"
     showgrid="true"
     inkscape:window-width="1920"
     inkscape:window-height="1088"
     inkscape:window-x="0"
     inkscape:window-y="0"
     inkscape:window-maximized="1"
     inkscape:snap-global="false">
    <inkscape:grid
       type="xygrid"
       id="grid3004"
       empspacing="5"
       visible="true"
       enabled="true"
       snapvisiblegridlinesonly="true" />
  </sodipodi:namedview>
  <metadata
     id="metadata7">
    <rdf:RDF>
      <cc:Work
         rdf:about="">
        <dc:format>image/svg+xml</dc:format>
        <dc:type
           rdf:resource="http://purl.org/dc/dcmitype/StillImage" />
        <dc:title />
      </cc:Work>
    </rdf:RDF>
  </metadata>
  <g
     inkscape:groupmode="layer"
     id="layer45"
     inkscape:label="E15"
     style="display:inline"
     transform="translate(0,-60)">
    <g
       transform="matrix(0.97035077,0,0,0.97033667,-83.669558,-55.070253)"
       id="layer1-08"
       inkscape:label="Ebene 1">
      <g
         transform="matrix(0.84346192,0,0,0.84346192,18.337306,23.403231)"
         id="g2965">
        <g
           id="g3789"
           transform="matrix(0,1.25,1.25,0,85.961647,184.87066)"
           style="fill:#ffffff;stroke:#000000;stroke-width:1.03056288">
          <path
             d="m 0,0 0,49.916 c -0.001,0.144 -0.01,0.289 -0.03,0.432 -0.019,0.144 -0.049,0.286 -0.088,0.425 -0.037,0.14 -0.083,0.278 -0.139,0.411 -0.056,0.133 -0.122,0.263 -0.196,0.387 -0.072,0.126 -0.152,0.246 -0.24,0.361 -0.088,0.114 -0.184,0.223 -0.287,0.325 -0.102,0.103 -0.211,0.199 -0.325,0.287 -0.115,0.088 -0.235,0.169 -0.361,0.24 -0.125,0.074 -0.254,0.138 -0.387,0.194 -0.134,0.056 -0.271,0.103 -0.411,0.14 -0.14,0.04 -0.282,0.07 -0.425,0.09 -0.143,0.02 -0.287,0.03 -0.432,0.029 l -49.942,0 c -0.145,0 -0.289,-0.011 -0.433,-0.03 -0.143,-0.019 -0.285,-0.049 -0.424,-0.089 -0.14,-0.036 -0.278,-0.082 -0.411,-0.138 -0.134,-0.056 -0.263,-0.122 -0.387,-0.196 -0.126,-0.071 -0.246,-0.152 -0.361,-0.24 -0.115,-0.088 -0.224,-0.184 -0.325,-0.287 -0.103,-0.102 -0.199,-0.211 -0.288,-0.325 -0.088,-0.115 -0.168,-0.235 -0.24,-0.361 -0.073,-0.125 -0.138,-0.254 -0.194,-0.387 -0.055,-0.134 -0.102,-0.271 -0.14,-0.411 -0.04,-0.139 -0.069,-0.281 -0.089,-0.425 -0.021,-0.143 -0.03,-0.288 -0.03,-0.432 l 0,-49.942 c 10e-4,-0.145 0.011,-0.289 0.03,-0.433 0.02,-0.143 0.049,-0.285 0.089,-0.424 0.036,-0.141 0.083,-0.278 0.139,-0.411 0.056,-0.133 0.121,-0.263 0.195,-0.388 0.072,-0.125 0.153,-0.246 0.24,-0.36 0.089,-0.115 0.185,-0.223 0.288,-0.325 0.101,-0.103 0.21,-0.199 0.325,-0.287 0.115,-0.089 0.235,-0.169 0.361,-0.241 0.124,-0.073 0.254,-0.138 0.387,-0.194 0.134,-0.055 0.271,-0.102 0.411,-0.14 0.139,-0.04 0.281,-0.07 0.424,-0.09 0.144,-0.02 0.288,-0.03 0.433,-0.028 l 49.942,0 c 0.145,0 0.289,0.01 0.432,0.03 0.144,0.019 0.286,0.049 0.425,0.088 0.14,0.036 0.277,0.083 0.411,0.139 0.133,0.056 0.263,0.122 0.387,0.195 0.125,0.072 0.246,0.153 0.361,0.241 0.114,0.088 0.223,0.184 0.325,0.287 0.103,0.102 0.199,0.21 0.287,0.325 0.088,0.114 0.169,0.235 0.24,0.36 0.074,0.125 0.138,0.255 0.194,0.388 0.056,0.134 0.103,0.271 0.141,0.411 0.039,0.139 0.069,0.281 0.089,0.425 0.021,0.143 0.03,0.287 0.029,0.432 L 0,0 z"
             style="fill:#ffffff;stroke:#000000;stroke-width:0.22260153;stroke-linecap:butt;stroke-linejoin:bevel;stroke-miterlimit:22.9260006;stroke-opacity:1;stroke-dasharray:none"
             id="path3791"
             inkscape:connector-curvature="0" />
          <g
             id="g3793"
             transform="translate(0.054,0)"
             style="fill:#ffffff;stroke:#000000;stroke-width:1.03056288">
            <path
               d="M 0,0 0,-0.027 C -0.001,-0.173 -0.011,-0.32 -0.031,-0.466 -0.05,-0.612 -0.081,-0.756 -0.12,-0.897 -0.158,-1.04 -0.205,-1.18 -0.262,-1.315 -0.319,-1.45 -0.385,-1.582 -0.46,-1.708 -0.533,-1.836 -0.615,-1.958 -0.705,-2.075 -0.794,-2.192 -0.892,-2.302 -0.996,-2.405 -1.1,-2.51 -1.21,-2.608 -1.326,-2.697 -1.443,-2.787 -1.566,-2.868 -1.693,-2.941 -1.82,-3.016 -1.951,-3.082 -2.087,-3.138 -2.223,-3.195 -2.362,-3.243 -2.504,-3.281 -2.646,-3.321 -2.79,-3.352 -2.936,-3.372 -3.081,-3.393 -3.228,-3.403 -3.375,-3.401 l -49.943,0 c -0.147,0 -0.294,0.01 -0.439,0.03 -0.146,0.02 -0.29,0.05 -0.432,0.09 -0.142,0.037 -0.282,0.084 -0.417,0.141 -0.136,0.057 -0.267,0.124 -0.393,0.199 -0.128,0.073 -0.251,0.155 -0.367,0.244 -0.117,0.09 -0.227,0.187 -0.331,0.292 -0.104,0.103 -0.202,0.213 -0.291,0.33 -0.09,0.116 -0.171,0.239 -0.244,0.367 -0.075,0.126 -0.141,0.258 -0.198,0.393 -0.057,0.136 -0.104,0.275 -0.142,0.418 -0.04,0.141 -0.071,0.286 -0.091,0.431 -0.021,0.146 -0.031,0.293 -0.03,0.439 l 0,49.943 c 10e-4,0.147 0.011,0.294 0.031,0.44 0.02,0.145 0.05,0.29 0.09,0.431 0.036,0.143 0.084,0.282 0.141,0.417 0.057,0.136 0.124,0.267 0.199,0.394 0.073,0.128 0.154,0.25 0.244,0.367 0.089,0.116 0.187,0.227 0.291,0.33 0.104,0.105 0.214,0.202 0.331,0.292 0.116,0.089 0.239,0.171 0.367,0.244 0.126,0.075 0.257,0.141 0.393,0.197 0.136,0.057 0.275,0.105 0.417,0.143 0.142,0.04 0.286,0.07 0.432,0.091 0.145,0.02 0.292,0.03 0.439,0.029 l 49.943,0 c 0.147,0 0.294,-0.011 0.439,-0.031 0.146,-0.019 0.29,-0.049 0.432,-0.089 0.142,-0.037 0.282,-0.084 0.417,-0.142 0.136,-0.057 0.267,-0.123 0.394,-0.198 0.127,-0.073 0.25,-0.155 0.366,-0.244 0.117,-0.09 0.227,-0.187 0.331,-0.292 0.105,-0.103 0.202,-0.214 0.292,-0.33 0.089,-0.117 0.171,-0.239 0.244,-0.367 0.074,-0.127 0.14,-0.258 0.197,-0.394 0.057,-0.135 0.104,-0.275 0.143,-0.417 0.04,-0.141 0.07,-0.286 0.091,-0.431 C -0.008,50.21 0.001,50.063 0,49.916 L 0,0 z"
               style="fill:#ffffff;stroke:#000000;stroke-width:1.95491946;stroke-linecap:butt;stroke-linejoin:bevel;stroke-miterlimit:22.9260006;stroke-opacity:1;stroke-dasharray:none"
               id="path3795"
               inkscape:connector-curvature="0" />
          </g>
        </g>
        <g
           id="g3785"
           transform="matrix(0,1.25,1.25,0,85.961647,181.90066)"
           style="fill:#003399;fill-opacity:1">
          <path
             d="M 0,0 0,-0.008 C 0,-0.05 -0.003,-0.092 -0.009,-0.133 -0.014,-0.175 -0.023,-0.216 -0.034,-0.256 -0.045,-0.297 -0.058,-0.337 -0.075,-0.376 -0.091,-0.414 -0.11,-0.452 -0.131,-0.488 -0.152,-0.525 -0.175,-0.56 -0.201,-0.593 -0.227,-0.626 -0.255,-0.658 -0.285,-0.687 -0.314,-0.717 -0.346,-0.745 -0.379,-0.771 -0.412,-0.796 -0.447,-0.819 -0.484,-0.84 -0.52,-0.862 -0.557,-0.88 -0.596,-0.896 -0.635,-0.913 -0.675,-0.926 -0.715,-0.937 -0.756,-0.949 -0.797,-0.958 -0.839,-0.964 -0.88,-0.969 -0.922,-0.972 -0.964,-0.972 l -49.905,0 c -0.042,0 -0.084,0.003 -0.125,0.009 -0.042,0.005 -0.083,0.014 -0.124,0.026 -0.041,0.01 -0.08,0.024 -0.119,0.04 -0.039,0.016 -0.076,0.035 -0.113,0.057 -0.036,0.021 -0.071,0.044 -0.104,0.07 -0.034,0.025 -0.065,0.053 -0.095,0.083 -0.029,0.029 -0.057,0.061 -0.083,0.094 -0.025,0.033 -0.049,0.068 -0.07,0.105 -0.021,0.036 -0.04,0.074 -0.056,0.112 -0.017,0.039 -0.03,0.079 -0.041,0.12 -0.011,0.04 -0.02,0.081 -0.026,0.123 -0.006,0.041 -0.008,0.083 -0.008,0.125 l 0,49.905 c 0,0.042 0.003,0.084 0.009,0.126 0.006,0.041 0.014,0.083 0.025,0.123 0.011,0.041 0.024,0.081 0.041,0.119 0.016,0.039 0.035,0.077 0.056,0.113 0.021,0.036 0.045,0.071 0.07,0.104 0.026,0.034 0.054,0.065 0.083,0.095 0.03,0.03 0.061,0.058 0.095,0.083 0.033,0.026 0.068,0.049 0.104,0.07 0.037,0.021 0.074,0.04 0.113,0.057 0.039,0.016 0.078,0.029 0.119,0.04 0.041,0.012 0.082,0.02 0.124,0.026 0.041,0.006 0.083,0.009 0.125,0.009 l 49.905,0 c 0.042,-0.001 0.084,-0.004 0.125,-0.01 0.042,-0.005 0.083,-0.013 0.124,-0.025 0.04,-0.011 0.08,-0.024 0.119,-0.04 0.039,-0.017 0.076,-0.036 0.112,-0.057 0.037,-0.021 0.072,-0.044 0.105,-0.07 0.033,-0.025 0.065,-0.053 0.094,-0.083 0.03,-0.03 0.058,-0.061 0.084,-0.095 0.026,-0.033 0.049,-0.068 0.07,-0.104 0.021,-0.036 0.04,-0.074 0.056,-0.113 0.016,-0.038 0.03,-0.078 0.041,-0.119 0.011,-0.04 0.02,-0.082 0.026,-0.123 C -0.002,49.981 0.001,49.939 0,49.897 L 0,0"
             style="fill:#003399;fill-opacity:1;fill-rule:evenodd;stroke:none"
             id="path3787"
             inkscape:connector-curvature="0" />
        </g>
        <g
           id="g3797"
           transform="matrix(0,1.25,1.25,0,112.66535,153.33316)">
          <path
             d="M 0,0 C 0.208,-0.541 0.425,-1.078 0.651,-1.612 0.874,-2.142 1.123,-2.661 1.397,-3.167 1.785,-3.868 2.225,-4.539 2.713,-5.173 3.207,-5.816 3.73,-6.435 4.281,-7.03 4.819,-7.64 5.4,-8.212 6.019,-8.741 c 0.614,-0.526 1.304,-0.955 2.048,-1.274 0.138,-0.06 0.275,-0.122 0.411,-0.186 0.135,-0.062 0.263,-0.138 0.381,-0.228 0.055,-0.042 0.106,-0.087 0.156,-0.134 0.049,-0.048 0.098,-0.097 0.144,-0.148 0.072,-0.075 0.14,-0.154 0.205,-0.235 0.065,-0.08 0.123,-0.166 0.175,-0.255 0.048,-0.081 0.089,-0.166 0.124,-0.253 0.034,-0.088 0.063,-0.179 0.085,-0.27 0.023,-0.092 0.041,-0.185 0.052,-0.279 0.011,-0.093 0.016,-0.187 0.014,-0.281 C 9.813,-12.379 9.806,-12.473 9.792,-12.566 9.778,-12.659 9.759,-12.752 9.733,-12.842 9.699,-12.967 9.657,-13.089 9.606,-13.208 9.555,-13.326 9.498,-13.443 9.437,-13.556 9.371,-13.68 9.3,-13.802 9.225,-13.92 9.15,-14.038 9.07,-14.153 8.986,-14.265 8.859,-14.435 8.722,-14.597 8.577,-14.751 8.431,-14.906 8.28,-15.055 8.124,-15.198 7.866,-15.44 7.596,-15.669 7.314,-15.883 7.033,-16.096 6.737,-16.29 6.43,-16.463 6.124,-16.642 5.805,-16.797 5.476,-16.928 5.148,-17.059 4.81,-17.166 4.466,-17.247 4.163,-17.321 3.857,-17.38 3.549,-17.422 c -0.309,-0.042 -0.62,-0.076 -0.93,-0.102 -0.303,-0.028 -0.606,-0.048 -0.909,-0.061 -0.302,-0.012 -0.605,-0.009 -0.907,0.01 -0.429,0.026 -0.854,0.086 -1.272,0.181 -0.42,0.096 -0.834,0.218 -1.238,0.366 -0.355,0.123 -0.704,0.264 -1.045,0.423 -0.34,0.158 -0.672,0.334 -0.994,0.527 -0.406,0.239 -0.795,0.505 -1.166,0.797 -0.37,0.291 -0.721,0.609 -1.048,0.949 -0.331,0.335 -0.639,0.693 -0.921,1.071 -0.282,0.377 -0.538,0.774 -0.765,1.187 -0.233,0.41 -0.438,0.836 -0.612,1.274 -0.175,0.438 -0.32,0.887 -0.433,1.345 -0.119,0.456 -0.206,0.92 -0.262,1.388 -0.055,0.468 -0.078,0.94 -0.069,1.411 0.003,0.472 0.038,0.942 0.106,1.409 0.068,0.467 0.167,0.928 0.298,1.381 0.125,0.454 0.282,0.899 0.468,1.332 0.186,0.434 0.402,0.854 0.645,1.258 0.238,0.408 0.504,0.799 0.796,1.17 0.291,0.37 0.608,0.719 0.95,1.044 0.08,0.078 0.16,0.155 0.242,0.23 0.082,0.076 0.164,0.151 0.247,0.226 -0.007,0.007 -0.013,0.013 -0.02,0.02 -0.007,0.006 -0.014,0.013 -0.02,0.019 -0.169,0.165 -0.324,0.343 -0.464,0.533 -0.141,0.189 -0.268,0.389 -0.38,0.597 -0.116,0.205 -0.218,0.417 -0.305,0.636 -0.087,0.219 -0.16,0.444 -0.217,0.673 -0.061,0.228 -0.107,0.46 -0.136,0.695 -0.029,0.234 -0.039,0.469 -0.03,0.704 0.007,0.216 0.028,0.431 0.061,0.645 0.033,0.214 0.071,0.427 0.114,0.64 -0.573,0.089 -1.147,0.169 -1.722,0.24 -0.571,0.071 -1.145,0.115 -1.721,0.13 -0.801,0.015 -1.601,-0.031 -2.395,-0.137 C -13.308,6.683 -14.107,6.539 -14.897,6.36 -15.695,6.199 -16.48,5.982 -17.248,5.711 -18.01,5.442 -18.727,5.058 -19.374,4.574 -19.496,4.485 -19.618,4.397 -19.741,4.31 -19.863,4.225 -19.993,4.152 -20.13,4.094 -20.193,4.068 -20.257,4.046 -20.323,4.027 -20.39,4.008 -20.457,3.991 -20.524,3.976 -20.625,3.951 -20.727,3.931 -20.829,3.915 -20.932,3.9 -21.035,3.892 -21.138,3.892 c -0.094,-10e-4 -0.188,0.006 -0.281,0.02 -0.094,0.014 -0.186,0.034 -0.277,0.061 -0.091,0.025 -0.18,0.056 -0.267,0.094 -0.086,0.037 -0.17,0.079 -0.251,0.128 -0.081,0.048 -0.159,0.102 -0.233,0.16 -0.074,0.059 -0.144,0.122 -0.21,0.189 -0.091,0.092 -0.175,0.19 -0.252,0.293 -0.078,0.104 -0.15,0.211 -0.217,0.321 -0.075,0.119 -0.145,0.241 -0.21,0.365 -0.065,0.124 -0.125,0.251 -0.179,0.38 -0.083,0.195 -0.155,0.394 -0.216,0.597 -0.061,0.204 -0.115,0.409 -0.161,0.617 -0.081,0.344 -0.143,0.692 -0.188,1.043 -0.044,0.35 -0.064,0.703 -0.061,1.056 -0.001,0.354 0.024,0.708 0.075,1.058 0.05,0.35 0.127,0.696 0.229,1.034 0.086,0.3 0.189,0.594 0.307,0.882 0.118,0.289 0.243,0.574 0.377,0.856 0.126,0.277 0.26,0.549 0.401,0.818 0.141,0.268 0.295,0.529 0.463,0.781 0.236,0.358 0.501,0.696 0.792,1.011 0.292,0.316 0.605,0.613 0.935,0.889 0.285,0.246 0.582,0.477 0.89,0.694 0.307,0.215 0.625,0.414 0.953,0.596 0.41,0.233 0.835,0.437 1.273,0.612 0.438,0.175 0.887,0.32 1.346,0.433 0.456,0.119 0.919,0.207 1.388,0.262 0.468,0.056 0.939,0.079 1.411,0.069 0.471,-0.003 0.942,-0.039 1.409,-0.106 0.466,-0.068 0.928,-0.168 1.381,-0.299 0.454,-0.124 0.9,-0.281 1.333,-0.466 0.433,-0.187 0.853,-0.402 1.257,-0.646 0.407,-0.239 0.797,-0.505 1.167,-0.797 0.37,-0.291 0.72,-0.609 1.046,-0.949 0.332,-0.335 0.639,-0.693 0.921,-1.07 0.282,-0.379 0.538,-0.775 0.766,-1.188 0.234,-0.41 0.44,-0.836 0.615,-1.274 0.176,-0.437 0.319,-0.887 0.43,-1.345 0.027,-0.108 0.053,-0.216 0.078,-0.325 0.025,-0.109 0.049,-0.217 0.072,-0.326 l 0.027,0.007 0.027,0.007 c 0.216,0.055 0.436,0.094 0.659,0.116 0.223,0.022 0.447,0.039 0.67,0.05 l 0.036,0 0.035,0 c 0.236,-0.002 0.471,-0.02 0.704,-0.053 0.234,-0.033 0.464,-0.083 0.691,-0.15 C 0.25,10.336 0.473,10.258 0.689,10.165 0.906,10.071 1.116,9.963 1.318,9.841 1.522,9.722 1.718,9.59 1.905,9.445 2.09,9.3 2.264,9.141 2.425,8.968 2.455,8.937 2.485,8.905 2.515,8.873 2.544,8.84 2.573,8.808 2.603,8.775 2.959,9.22 3.308,9.669 3.65,10.124 c 0.341,0.453 0.66,0.92 0.956,1.402 0.412,0.686 0.773,1.403 1.079,2.143 0.309,0.749 0.584,1.512 0.824,2.286 0.259,0.772 0.464,1.56 0.613,2.36 0.148,0.795 0.175,1.608 0.079,2.411 -0.017,0.149 -0.032,0.299 -0.045,0.449 -0.013,0.148 -0.011,0.297 0.007,0.445 0.009,0.067 0.022,0.135 0.038,0.201 0.017,0.067 0.036,0.133 0.056,0.199 0.03,0.1 0.064,0.199 0.101,0.295 0.038,0.096 0.082,0.19 0.134,0.279 0.046,0.082 0.099,0.16 0.158,0.234 0.059,0.074 0.122,0.144 0.191,0.209 0.067,0.066 0.139,0.127 0.215,0.184 0.075,0.056 0.154,0.108 0.237,0.153 0.082,0.046 0.167,0.087 0.255,0.122 0.087,0.035 0.177,0.064 0.268,0.087 0.125,0.033 0.252,0.057 0.38,0.072 0.128,0.016 0.257,0.025 0.387,0.028 0.14,0.005 0.28,0.005 0.421,-0.001 0.139,-0.006 0.279,-0.018 0.418,-0.035 0.211,-0.025 0.419,-0.063 0.625,-0.111 0.207,-0.049 0.412,-0.105 0.614,-0.169 0.339,-0.102 0.672,-0.222 0.998,-0.359 0.325,-0.137 0.641,-0.296 0.945,-0.475 0.307,-0.176 0.601,-0.374 0.879,-0.594 0.278,-0.219 0.539,-0.458 0.782,-0.715 0.215,-0.225 0.419,-0.461 0.61,-0.707 0.191,-0.247 0.375,-0.498 0.553,-0.755 0.175,-0.247 0.344,-0.5 0.507,-0.756 0.162,-0.256 0.31,-0.52 0.445,-0.791 0.192,-0.383 0.352,-0.782 0.479,-1.192 0.128,-0.411 0.229,-0.83 0.303,-1.255 0.07,-0.369 0.122,-0.742 0.156,-1.116 0.033,-0.374 0.046,-0.749 0.039,-1.124 C 18.354,13.056 18.318,12.586 18.251,12.12 18.184,11.653 18.084,11.191 17.953,10.738 17.829,10.283 17.673,9.837 17.486,9.404 17.3,8.971 17.084,8.551 16.84,8.148 16.602,7.741 16.336,7.351 16.044,6.981 15.752,6.611 15.435,6.261 15.095,5.934 14.759,5.603 14.402,5.295 14.024,5.013 13.646,4.731 13.249,4.475 12.836,4.247 12.426,4.014 12.001,3.809 11.563,3.634 11.125,3.46 10.676,3.315 10.218,3.203 9.762,3.084 9.299,2.997 8.831,2.942 8.362,2.887 7.89,2.863 7.419,2.871 6.946,2.873 6.475,2.907 6.007,2.974 5.541,3.04 5.08,3.141 4.629,3.276 4.473,3.32 4.318,3.368 4.164,3.419 4.01,3.47 3.857,3.522 3.704,3.575 3.63,3.381 3.552,3.188 3.471,2.997 3.39,2.807 3.299,2.621 3.198,2.44 3.081,2.236 2.949,2.041 2.802,1.858 2.654,1.673 2.495,1.498 2.325,1.333 2.157,1.167 1.978,1.011 1.79,0.868 1.602,0.726 1.403,0.6 1.195,0.49 1.006,0.388 0.81,0.299 0.61,0.221 0.408,0.143 0.205,0.07 0,0"
             style="fill:#ffffff;fill-opacity:1;fill-rule:evenodd;stroke:none"
             id="path3799"
             inkscape:connector-curvature="0" />
        </g>
      </g>
    </g>
  </g>
</svg>
