<?xml version="1.0" encoding="UTF-8" standalone="no"?>
<!-- Created with Inkscape (http://www.inkscape.org/) -->

<svg
   xmlns:dc="http://purl.org/dc/elements/1.1/"
   xmlns:cc="http://creativecommons.org/ns#"
   xmlns:rdf="http://www.w3.org/1999/02/22-rdf-syntax-ns#"
   xmlns:svg="http://www.w3.org/2000/svg"
   xmlns="http://www.w3.org/2000/svg"
   xmlns:sodipodi="http://sodipodi.sourceforge.net/DTD/sodipodi-0.dtd"
   xmlns:inkscape="http://www.inkscape.org/namespaces/inkscape"
   width="60"
   height="60"
   id="svg2"
   version="1.1"
   inkscape:version="0.48.2 r9819"
   sodipodi:docname="Notice_E5_9.svg"
   style="display:inline"
   inkscape:export-filename="/Users/mherring/boatsw/oseam/openseamap/josm/icons/WindSurfing16.png"
   inkscape:export-xdpi="12"
   inkscape:export-ydpi="12">
  <defs
     id="defs4" />
  <sodipodi:namedview
     id="base"
     pagecolor="#ffffff"
     bordercolor="#666666"
     borderopacity="1.0"
     inkscape:pageopacity="0.0"
     inkscape:pageshadow="2"
     inkscape:zoom="5.3032952"
     inkscape:cx="14.367998"
     inkscape:cy="59.084222"
     inkscape:document-units="px"
     inkscape:current-layer="layer15"
     showgrid="true"
     inkscape:window-width="1920"
     inkscape:window-height="1088"
     inkscape:window-x="0"
     inkscape:window-y="0"
     inkscape:window-maximized="1"
     inkscape:snap-global="false">
    <inkscape:grid
       type="xygrid"
       id="grid3004"
       empspacing="5"
       visible="true"
       enabled="true"
       snapvisiblegridlinesonly="true" />
  </sodipodi:namedview>
  <metadata
     id="metadata7">
    <rdf:RDF>
      <cc:Work
         rdf:about="">
        <dc:format>image/svg+xml</dc:format>
        <dc:type
           rdf:resource="http://purl.org/dc/dcmitype/StillImage" />
        <dc:title />
      </cc:Work>
    </rdf:RDF>
  </metadata>
  <g
     inkscape:groupmode="layer"
     id="layer15"
     inkscape:label="E5.9"
     style="display:inline"
     transform="translate(0,-60)">
    <g
       transform="matrix(0.97035072,0,0,0.97035072,-309.62216,-426.57806)"
       id="layer1-6"
       inkscape:label="Ebene 1">
      <g
         transform="matrix(0.84345072,0,0,0.8434498,54.792158,83.341405)"
         id="g2838">
        <g
           id="g3629"
           transform="matrix(0,1.25,1.25,0,318.81875,496.99656)"
           style="fill:#ffffff;stroke:#000000;stroke-width:1.03055513">
          <path
             d="m 0,0 0,49.89 0,0.013 0,0.013 c 0.001,0.145 0.011,0.289 0.031,0.432 0.019,0.144 0.048,0.286 0.088,0.425 0.036,0.14 0.083,0.278 0.139,0.411 0.056,0.133 0.121,0.263 0.195,0.387 0.072,0.126 0.152,0.246 0.241,0.361 0.088,0.114 0.184,0.223 0.286,0.325 0.102,0.103 0.211,0.199 0.325,0.287 0.115,0.088 0.236,0.169 0.361,0.24 0.125,0.074 0.254,0.138 0.388,0.194 0.133,0.056 0.271,0.103 0.41,0.14 0.14,0.04 0.282,0.07 0.425,0.09 0.144,0.02 0.288,0.03 0.432,0.029 l 49.943,0 c 0.144,-0.001 0.289,-0.011 0.432,-0.03 0.144,-0.019 0.285,-0.049 0.425,-0.089 0.14,-0.036 0.277,-0.082 0.41,-0.138 0.134,-0.057 0.263,-0.122 0.388,-0.196 0.125,-0.071 0.246,-0.152 0.361,-0.24 0.114,-0.088 0.223,-0.184 0.324,-0.287 0.104,-0.102 0.199,-0.211 0.288,-0.325 0.088,-0.115 0.168,-0.235 0.24,-0.361 0.073,-0.125 0.138,-0.254 0.194,-0.387 0.056,-0.134 0.103,-0.271 0.14,-0.411 0.04,-0.139 0.07,-0.281 0.09,-0.425 0.02,-0.143 0.03,-0.288 0.029,-0.432 l 0,-49.942 c -10e-4,-0.145 -0.011,-0.289 -0.03,-0.433 -0.02,-0.143 -0.049,-0.285 -0.089,-0.424 -0.036,-0.141 -0.082,-0.278 -0.138,-0.411 -0.057,-0.133 -0.122,-0.263 -0.196,-0.388 -0.072,-0.125 -0.152,-0.246 -0.24,-0.36 -0.089,-0.115 -0.184,-0.223 -0.288,-0.325 -0.101,-0.103 -0.21,-0.199 -0.324,-0.287 -0.115,-0.089 -0.236,-0.169 -0.361,-0.241 -0.125,-0.073 -0.255,-0.138 -0.388,-0.194 -0.133,-0.055 -0.271,-0.102 -0.41,-0.14 -0.14,-0.039 -0.282,-0.069 -0.425,-0.089 -0.143,-0.021 -0.288,-0.031 -0.432,-0.029 l -0.014,0 -0.013,-10e-4 -49.889,0 -0.013,10e-4 -0.014,0 c -0.144,0 -0.288,0.01 -0.432,0.03 -0.143,0.019 -0.285,0.049 -0.425,0.088 -0.14,0.036 -0.277,0.083 -0.41,0.139 -0.134,0.056 -0.263,0.121 -0.388,0.195 -0.125,0.072 -0.246,0.153 -0.36,0.241 -0.115,0.088 -0.224,0.184 -0.326,0.287 -0.102,0.102 -0.198,0.21 -0.287,0.325 -0.088,0.114 -0.168,0.235 -0.24,0.36 -0.073,0.125 -0.138,0.255 -0.194,0.388 -0.056,0.134 -0.103,0.271 -0.14,0.411 -0.04,0.139 -0.07,0.281 -0.09,0.425 -0.02,0.143 -0.03,0.287 -0.029,0.432 L 0,-0.013 0,0 z"
             style="fill:#ffffff;stroke:#000000;stroke-width:0.22259994;stroke-linecap:butt;stroke-linejoin:bevel;stroke-miterlimit:22.9260006;stroke-opacity:1;stroke-dasharray:none"
             id="path3631"
             inkscape:connector-curvature="0" />
          <g
             id="g3633"
             transform="translate(-0.054,0)"
             style="fill:#ffffff;stroke:#000000;stroke-width:1.03055513">
            <path
               d="M 0,0 0,-0.027 C 0.001,-0.174 0.011,-0.32 0.031,-0.466 0.05,-0.612 0.081,-0.756 0.12,-0.897 0.157,-1.04 0.205,-1.18 0.262,-1.315 0.319,-1.451 0.385,-1.582 0.46,-1.708 0.533,-1.836 0.615,-1.958 0.705,-2.075 0.794,-2.192 0.892,-2.302 0.996,-2.405 1.1,-2.51 1.21,-2.608 1.326,-2.697 c 0.117,-0.09 0.239,-0.171 0.367,-0.245 0.127,-0.074 0.258,-0.14 0.394,-0.196 0.136,-0.057 0.275,-0.105 0.417,-0.143 0.142,-0.04 0.286,-0.071 0.432,-0.091 0.145,-0.021 0.292,-0.03 0.439,-0.03 l 49.943,0 c 0.147,0.001 0.294,0.012 0.439,0.031 0.146,0.02 0.29,0.05 0.431,0.09 0.143,0.037 0.283,0.084 0.419,0.141 0.135,0.057 0.266,0.123 0.393,0.198 0.127,0.074 0.25,0.156 0.366,0.245 0.117,0.09 0.227,0.187 0.331,0.292 0.104,0.103 0.202,0.213 0.291,0.33 0.09,0.116 0.172,0.239 0.245,0.367 0.074,0.126 0.14,0.258 0.197,0.393 0.057,0.136 0.104,0.275 0.142,0.418 0.041,0.141 0.071,0.285 0.092,0.431 0.02,0.146 0.03,0.293 0.029,0.439 l 0,49.943 c -10e-4,0.147 -0.011,0.294 -0.031,0.44 -0.02,0.145 -0.05,0.289 -0.09,0.431 -0.036,0.143 -0.084,0.282 -0.141,0.418 -0.057,0.135 -0.123,0.267 -0.198,0.393 -0.073,0.127 -0.155,0.25 -0.245,0.367 -0.089,0.116 -0.187,0.227 -0.291,0.33 -0.104,0.105 -0.214,0.202 -0.331,0.292 -0.116,0.09 -0.239,0.171 -0.366,0.244 -0.127,0.075 -0.258,0.141 -0.394,0.197 -0.136,0.057 -0.275,0.105 -0.418,0.143 -0.141,0.04 -0.285,0.07 -0.431,0.091 -0.145,0.021 -0.292,0.03 -0.439,0.029 l -49.943,0 C 3.228,53.29 3.081,53.28 2.936,53.26 2.79,53.241 2.646,53.211 2.504,53.171 2.362,53.134 2.222,53.087 2.087,53.029 1.951,52.972 1.82,52.906 1.693,52.831 1.566,52.758 1.443,52.676 1.326,52.587 1.21,52.497 1.1,52.4 0.996,52.295 0.891,52.192 0.794,52.081 0.704,51.965 0.615,51.848 0.533,51.726 0.46,51.598 0.385,51.471 0.32,51.34 0.263,51.204 0.206,51.069 0.159,50.929 0.12,50.787 0.081,50.645 0.05,50.501 0.029,50.355 0.009,50.21 -0.001,50.063 0,49.916 L 0,0 z"
               style="fill:#ffffff;stroke:#000000;stroke-width:1.95493245;stroke-linecap:butt;stroke-linejoin:bevel;stroke-miterlimit:22.9260006;stroke-opacity:1;stroke-dasharray:none"
               id="path3635"
               inkscape:connector-curvature="0" />
          </g>
        </g>
        <g
           id="g3625"
           transform="matrix(0,1.25,1.25,0,318.81875,499.96656)"
           style="fill:#003399;fill-opacity:1">
          <path
             d="m 0,0 0,-0.008 c 0,-0.042 0.003,-0.084 0.009,-0.125 0.005,-0.042 0.014,-0.083 0.026,-0.124 0.01,-0.04 0.024,-0.08 0.04,-0.119 0.016,-0.038 0.035,-0.076 0.057,-0.112 0.021,-0.037 0.044,-0.072 0.07,-0.105 0.025,-0.033 0.053,-0.065 0.083,-0.094 0.029,-0.03 0.061,-0.058 0.094,-0.084 0.033,-0.025 0.068,-0.048 0.105,-0.069 0.036,-0.022 0.074,-0.04 0.112,-0.057 0.039,-0.016 0.079,-0.03 0.119,-0.04 0.041,-0.012 0.082,-0.021 0.124,-0.026 0.041,-0.006 0.083,-0.009 0.125,-0.009 l 0.008,0 49.89,0 0.007,0 c 0.042,0 0.084,0.003 0.126,0.009 0.041,0.005 0.083,0.014 0.123,0.026 0.041,0.01 0.081,0.024 0.119,0.04 0.039,0.016 0.077,0.035 0.113,0.057 0.036,0.021 0.071,0.044 0.105,0.07 0.033,0.025 0.064,0.053 0.094,0.083 0.03,0.029 0.058,0.061 0.083,0.094 0.026,0.033 0.049,0.068 0.07,0.105 0.021,0.036 0.04,0.074 0.057,0.112 0.016,0.039 0.029,0.079 0.04,0.119 0.012,0.041 0.02,0.082 0.026,0.124 0.006,0.041 0.009,0.083 0.008,0.125 l 0,49.905 c 0,0.042 -0.002,0.084 -0.008,0.126 -0.006,0.041 -0.014,0.083 -0.026,0.123 -0.01,0.041 -0.024,0.081 -0.04,0.119 -0.016,0.039 -0.035,0.077 -0.057,0.113 -0.021,0.036 -0.044,0.071 -0.07,0.105 -0.025,0.033 -0.053,0.064 -0.083,0.094 -0.03,0.03 -0.061,0.058 -0.094,0.083 -0.034,0.026 -0.068,0.049 -0.105,0.07 -0.036,0.021 -0.074,0.04 -0.113,0.057 -0.038,0.016 -0.078,0.029 -0.119,0.04 -0.04,0.012 -0.082,0.02 -0.123,0.026 -0.042,0.006 -0.084,0.009 -0.126,0.008 l -49.905,0 C 0.922,50.861 0.88,50.859 0.839,50.853 0.797,50.847 0.756,50.839 0.715,50.827 0.675,50.817 0.635,50.803 0.596,50.787 0.558,50.771 0.52,50.752 0.484,50.73 0.447,50.709 0.412,50.686 0.379,50.66 0.346,50.635 0.314,50.607 0.285,50.577 0.255,50.547 0.227,50.516 0.201,50.483 0.176,50.449 0.153,50.414 0.132,50.378 0.11,50.342 0.092,50.304 0.075,50.265 0.059,50.227 0.045,50.187 0.035,50.146 0.023,50.106 0.014,50.064 0.009,50.023 0.003,49.981 0,49.939 0,49.897 L 0,49.89 0,0"
             style="fill:#003399;fill-opacity:1;fill-rule:evenodd;stroke:none"
             id="path3627"
             inkscape:connector-curvature="0" />
        </g>
        <g
           id="g3637"
           transform="matrix(0,1.25,1.25,0,375.72875,514.13906)">
          <path
             d="M 0,0 C 0.008,0.005 0.016,0.01 0.024,0.015 L 35.635,-20.625 0.044,-41.193 0.022,-41.179 0,-41.166 0,0"
             style="fill:#ffffff;fill-opacity:1;fill-rule:evenodd;stroke:none"
             id="path3639"
             inkscape:connector-curvature="0" />
        </g>
        <g
           id="g3641"
           transform="matrix(0,0.76,0.76,0,360.08924,523.74229)"
           style="fill:#003399;fill-opacity:1">
          <path
             d="M 0,0 C 0.005,0.003 0.01,0.007 0.016,0.01 L 23.452,-13.574 0.029,-27.11 0.014,-27.101 0,-27.092 0,0"
             style="fill:#003399;fill-opacity:1;fill-rule:evenodd;stroke:none"
             id="path3643"
             inkscape:connector-curvature="0" />
        </g>
      </g>
    </g>
  </g>
</svg>
