<?xml version="1.0" encoding="UTF-8" standalone="no"?>
<!-- Created with Inkscape (http://www.inkscape.org/) -->

<svg
   xmlns:dc="http://purl.org/dc/elements/1.1/"
   xmlns:cc="http://creativecommons.org/ns#"
   xmlns:rdf="http://www.w3.org/1999/02/22-rdf-syntax-ns#"
   xmlns:svg="http://www.w3.org/2000/svg"
   xmlns="http://www.w3.org/2000/svg"
   xmlns:sodipodi="http://sodipodi.sourceforge.net/DTD/sodipodi-0.dtd"
   xmlns:inkscape="http://www.inkscape.org/namespaces/inkscape"
   width="120"
   height="120"
   id="svg2"
   version="1.1"
   inkscape:version="0.48.2 r9819"
   sodipodi:docname="Notice_A13.svg"
   style="display:inline"
   inkscape:export-filename="/Users/mherring/boatsw/oseam/openseamap/josm/icons/WindSurfing16.png"
   inkscape:export-xdpi="12"
   inkscape:export-ydpi="12">
  <defs
     id="defs4" />
  <sodipodi:namedview
     id="base"
     pagecolor="#ffffff"
     bordercolor="#666666"
     borderopacity="1.0"
     inkscape:pageopacity="0.0"
     inkscape:pageshadow="2"
     inkscape:zoom="7.5"
     inkscape:cx="-4.5333333"
     inkscape:cy="60"
     inkscape:document-units="px"
     inkscape:current-layer="layer16"
     showgrid="true"
     inkscape:window-width="1920"
     inkscape:window-height="1088"
     inkscape:window-x="0"
     inkscape:window-y="0"
     inkscape:window-maximized="1"
     inkscape:snap-global="false">
    <inkscape:grid
       type="xygrid"
       id="grid3004"
       empspacing="5"
       visible="true"
       enabled="true"
       snapvisiblegridlinesonly="true" />
  </sodipodi:namedview>
  <metadata
     id="metadata7">
    <rdf:RDF>
      <cc:Work
         rdf:about="">
        <dc:format>image/svg+xml</dc:format>
        <dc:type
           rdf:resource="http://purl.org/dc/dcmitype/StillImage" />
        <dc:title />
      </cc:Work>
    </rdf:RDF>
  </metadata>
  <g
     inkscape:groupmode="layer"
     id="layer16"
     inkscape:label="A13"
     style="display:inline">
    <g
       transform="translate(-289.99943,-472.36224)"
       id="layer1-11"
       inkscape:label="Ebene 1">
      <g
         transform="matrix(0.84345182,0,0,0.84345083,54.791773,83.340867)"
         id="g2944">
        <path
           id="path20616"
           style="fill:#ffffff;stroke:#000000;stroke-width:0.27000001;stroke-linecap:butt;stroke-linejoin:bevel;stroke-miterlimit:22.9260006;stroke-opacity:1;stroke-dasharray:none"
           d="m 318.81875,567.79531 -0.0337,0 c -0.18375,-10e-4 -0.36625,-0.0137 -0.54875,-0.0387 -0.1825,-0.0238 -0.3625,-0.0625 -0.53875,-0.1125 -0.17875,-0.045 -0.35375,-0.105 -0.5225,-0.17625 -0.17,-0.0712 -0.33375,-0.15375 -0.49125,-0.2475 -0.16,-0.0913 -0.3125,-0.19375 -0.45875,-0.305 -0.14625,-0.1125 -0.28375,-0.235 -0.4125,-0.365 -0.13125,-0.13 -0.25375,-0.2675 -0.365,-0.4125 -0.1125,-0.14625 -0.21375,-0.29875 -0.30625,-0.45875 -0.0925,-0.15875 -0.175,-0.3225 -0.24625,-0.4925 -0.07,-0.16875 -0.13,-0.34375 -0.1775,-0.52125 -0.05,-0.1775 -0.0887,-0.3575 -0.11375,-0.54 -0.0263,-0.18125 -0.0375,-0.365 -0.0375,-0.54875 l 0,-62.42875 c 10e-4,-0.18375 0.015,-0.3675 0.0387,-0.54875 0.025,-0.1825 0.0625,-0.3625 0.1125,-0.54 0.0463,-0.1775 0.105,-0.3525 0.17625,-0.52125 0.0712,-0.17 0.15375,-0.33375 0.2475,-0.4925 0.0925,-0.15875 0.195,-0.3125 0.30625,-0.4575 0.1125,-0.14625 0.23375,-0.28375 0.365,-0.41375 0.12875,-0.13 0.26625,-0.2525 0.4125,-0.36375 0.145,-0.1125 0.29875,-0.215 0.45875,-0.30625 0.1575,-0.0925 0.3225,-0.175 0.49125,-0.24625 0.17,-0.0713 0.34375,-0.13 0.5225,-0.1775 0.17625,-0.0512 0.35625,-0.0888 0.53875,-0.115 0.1825,-0.025 0.365,-0.0375 0.54875,-0.0362 l 62.42875,0 c 0.18375,10e-4 0.3675,0.0138 0.55,0.0387 0.18125,0.025 0.36125,0.0625 0.53875,0.1125 0.17875,0.0462 0.3525,0.105 0.5225,0.17625 0.16875,0.0713 0.33375,0.15375 0.49125,0.2475 0.15875,0.0913 0.3125,0.19375 0.45875,0.30625 0.145,0.11125 0.28375,0.23375 0.4125,0.36375 0.13125,0.13 0.2525,0.2675 0.365,0.41375 0.1125,0.145 0.21375,0.29875 0.305,0.4575 0.0937,0.15875 0.17625,0.3225 0.24625,0.4925 0.0713,0.17 0.13125,0.34375 0.17875,0.52125 0.05,0.1775 0.0875,0.3575 0.11375,0.54 0.0263,0.1825 0.0375,0.365 0.0362,0.54875 l 0,62.42875 c -0.001,0.18375 -0.0138,0.3675 -0.0387,0.54875 -0.0238,0.1825 -0.0613,0.3625 -0.11125,0.54 -0.0463,0.1775 -0.105,0.3525 -0.1775,0.52125 -0.0713,0.17 -0.15375,0.33375 -0.2475,0.4925 -0.0913,0.16 -0.19375,0.3125 -0.305,0.45875 -0.1125,0.145 -0.23375,0.2825 -0.365,0.4125 -0.12875,0.13 -0.2675,0.2525 -0.4125,0.365 -0.14625,0.11125 -0.29875,0.21375 -0.45875,0.305 -0.15875,0.0925 -0.3225,0.175 -0.4925,0.24625 -0.16875,0.0713 -0.34375,0.13 -0.52125,0.1775 -0.1775,0.0512 -0.3575,0.0888 -0.54,0.115 -0.18125,0.025 -0.365,0.0375 -0.54875,0.0362 l -62.395,0 z"
           inkscape:connector-curvature="0" />
        <path
           d="m 319.32585,565.55907 -0.0197,0 c -0.10944,0 -0.21765,-0.009 -0.32586,-0.0221 -0.10821,-0.0148 -0.21519,-0.0382 -0.31972,-0.0677 -0.10575,-0.0271 -0.20904,-0.0615 -0.30987,-0.10453 -0.10084,-0.0418 -0.19798,-0.091 -0.29267,-0.14633 -0.0934,-0.0541 -0.18568,-0.11559 -0.27175,-0.18199 -0.0861,-0.0664 -0.16847,-0.13895 -0.24471,-0.21642 -0.0775,-0.0762 -0.15002,-0.15863 -0.21642,-0.2447 -0.0664,-0.0861 -0.12666,-0.17708 -0.18076,-0.27176 -0.0553,-0.0946 -0.10452,-0.19183 -0.14633,-0.29266 -0.0418,-0.10084 -0.0775,-0.2029 -0.10575,-0.30865 -0.0295,-0.10575 -0.0529,-0.21274 -0.0677,-0.32095 -0.0147,-0.10698 -0.0221,-0.21642 -0.0221,-0.32586 l 0,-61.38647 c 9.8e-4,-0.10944 0.009,-0.21888 0.0233,-0.32586 0.0148,-0.10821 0.0369,-0.21519 0.0664,-0.32094 0.0271,-0.10576 0.0627,-0.20905 0.10452,-0.30988 0.0418,-0.0996 0.091,-0.19798 0.14756,-0.29143 0.0541,-0.0946 0.11436,-0.18568 0.18076,-0.27176 0.0664,-0.0861 0.13895,-0.16847 0.21642,-0.24471 0.0762,-0.0775 0.15863,-0.15002 0.24471,-0.21642 0.0861,-0.0664 0.1783,-0.12788 0.27176,-0.18076 0.0947,-0.0554 0.19182,-0.10452 0.29266,-0.14633 0.10083,-0.043 0.20412,-0.0775 0.30987,-0.10575 0.10453,-0.0295 0.21151,-0.0528 0.31972,-0.0677 0.10821,-0.0148 0.21642,-0.0221 0.32586,-0.0221 l 61.38767,0 c 0.10821,9.9e-4 0.21765,0.009 0.32586,0.0234 0.10822,0.0147 0.2152,0.0369 0.31972,0.0664 0.10575,0.027 0.20904,0.0615 0.30988,0.10452 0.10083,0.0418 0.19797,0.091 0.29143,0.14756 0.0946,0.0528 0.18568,0.11436 0.27176,0.18076 0.0873,0.0664 0.16846,0.13896 0.24593,0.21642 0.0775,0.0762 0.14879,0.15863 0.21642,0.24471 0.0664,0.0861 0.12666,0.17707 0.18076,0.27176 0.0553,0.0934 0.1033,0.19183 0.14633,0.29143 0.0418,0.10083 0.0775,0.20412 0.10576,0.30988 0.0295,0.10575 0.0516,0.21273 0.0677,0.32094 0.0147,0.10698 0.0221,0.21642 0.0209,0.32586 l 0,61.38647 c 0,0.10944 -0.009,0.21888 -0.0234,0.32586 -0.0136,0.10821 -0.0356,0.2152 -0.0652,0.32095 -0.0282,0.10575 -0.0627,0.20904 -0.10453,0.30988 -0.043,0.0996 -0.0922,0.19797 -0.14756,0.29143 -0.0541,0.0947 -0.11559,0.18568 -0.18076,0.27176 -0.0676,0.0861 -0.13895,0.16846 -0.21642,0.2447 -0.0775,0.0787 -0.15863,0.15002 -0.24593,0.21642 -0.0861,0.0677 -0.17708,0.12789 -0.27176,0.18199 -0.0935,0.0541 -0.1906,0.1033 -0.29143,0.1451 -0.10084,0.0431 -0.20413,0.0775 -0.30988,0.10576 -0.10452,0.0307 -0.2115,0.0528 -0.31972,0.0677 -0.10821,0.0159 -0.21765,0.0233 -0.32586,0.0221 l -61.36799,0 z"
           style="fill:#e72512;fill-opacity:1;fill-rule:evenodd;stroke:none"
           id="path20600"
           inkscape:connector-curvature="0" />
        <path
           d="m 366.4675,555.98406 -40.09,-40.09 0,40.09 40.09,0"
           style="fill:#ffffff;fill-opacity:1;fill-rule:evenodd;stroke:none"
           id="path20604"
           inkscape:connector-curvature="0" />
        <path
           d="m 373.62125,548.83031 0,-40.09 -40.09,0 40.09,40.09"
           style="fill:#ffffff;fill-opacity:1;fill-rule:evenodd;stroke:none"
           id="path20608"
           inkscape:connector-curvature="0" />
        <path
           d="m 318.81875,567.72781 62.37875,0 0.0163,0 c 0.18125,-10e-4 0.36125,-0.0137 0.54,-0.0375 0.18,-0.025 0.3575,-0.0612 0.53125,-0.11125 0.175,-0.045 0.3475,-0.10375 0.51375,-0.17375 0.16625,-0.07 0.32875,-0.15125 0.48375,-0.24375 0.1575,-0.09 0.3075,-0.19 0.45125,-0.3 0.1425,-0.11125 0.27875,-0.23125 0.40625,-0.35875 0.12875,-0.1275 0.24875,-0.26375 0.35875,-0.40625 0.11,-0.14375 0.21,-0.295 0.3,-0.45125 0.0925,-0.15625 0.1725,-0.3175 0.2425,-0.485 0.07,-0.16625 0.12875,-0.3375 0.175,-0.5125 0.05,-0.175 0.0875,-0.3525 0.1125,-0.53125 0.025,-0.17875 0.0375,-0.36 0.0362,-0.54 l 0,-62.42875 c -0.001,-0.18 -0.0138,-0.36125 -0.0375,-0.54 -0.0238,-0.17875 -0.0612,-0.35625 -0.11125,-0.53125 -0.045,-0.175 -0.1025,-0.34625 -0.1725,-0.5125 -0.0712,-0.1675 -0.1525,-0.32875 -0.245,-0.485 -0.09,-0.15625 -0.19,-0.3075 -0.3,-0.45 -0.11,-0.14375 -0.23,-0.28 -0.35875,-0.40625 -0.1275,-0.12875 -0.26375,-0.24875 -0.40625,-0.36 -0.14375,-0.11 -0.29375,-0.21 -0.45125,-0.3 -0.15625,-0.0913 -0.3175,-0.1725 -0.485,-0.2425 -0.16625,-0.07 -0.3375,-0.1275 -0.5125,-0.175 -0.17375,-0.05 -0.35125,-0.0875 -0.53125,-0.1125 -0.17875,-0.025 -0.36,-0.0375 -0.54,-0.0362 l -62.4275,0 c -0.18125,0.001 -0.36125,0.0138 -0.54125,0.0375 -0.17875,0.025 -0.35625,0.0612 -0.53,0.11125 -0.17625,0.045 -0.3475,0.10375 -0.51375,0.17375 -0.1675,0.07 -0.32875,0.15125 -0.485,0.24375 -0.15625,0.09 -0.3075,0.19 -0.45,0.3 -0.14375,0.11125 -0.27875,0.23125 -0.40625,0.36 -0.12875,0.12625 -0.24875,0.2625 -0.35875,0.40625 -0.11125,0.1425 -0.21125,0.29375 -0.30125,0.45 -0.0913,0.15625 -0.1725,0.31875 -0.2425,0.485 -0.0687,0.1675 -0.1275,0.33875 -0.175,0.5125 -0.0488,0.175 -0.0863,0.3525 -0.1125,0.53125 -0.025,0.17875 -0.0375,0.36 -0.035,0.54 l 0,0.0163 -10e-4,0.0175 0,62.36125 10e-4,0.0175 0,0.0163 c 0,0.18 0.0125,0.36125 0.0375,0.54 0.0238,0.17875 0.0612,0.35625 0.11,0.53125 0.045,0.175 0.10375,0.34625 0.17375,0.51375 0.07,0.16625 0.15125,0.3275 0.24375,0.48375 0.09,0.15625 0.19125,0.3075 0.30125,0.45125 0.11,0.1425 0.23,0.27875 0.35875,0.40625 0.1275,0.1275 0.2625,0.2475 0.40625,0.35875 0.1425,0.11 0.29375,0.21 0.45,0.3 0.15625,0.0912 0.31875,0.1725 0.485,0.2425 0.1675,0.07 0.33875,0.12875 0.51375,0.175 0.17375,0.05 0.35125,0.0875 0.53125,0.1125 0.17875,0.025 0.35875,0.0375 0.54,0.0362 l 0.0163,0 0.0163,0 z"
           style="fill:none;stroke:#231f20;stroke-width:2.37120962;stroke-linecap:butt;stroke-linejoin:bevel;stroke-miterlimit:22.9260006;stroke-opacity:1;stroke-dasharray:none"
           id="path20612"
           inkscape:connector-curvature="0" />
        <path
           d="m 329.8175,535.86781 0,0.89 0.002,0.0425 c 0,0.0138 10e-4,0.0288 0.002,0.0425 0.0113,0.1625 0.0437,0.3225 0.0962,0.4775 0.0513,0.155 0.12875,0.30125 0.22625,0.43125 0.0738,0.11 0.1625,0.20875 0.26375,0.295 0.10125,0.085 0.2125,0.155 0.33375,0.20875 0.13125,0.0625 0.2725,0.105 0.41625,0.125 0.14625,0.0213 0.29375,0.0237 0.44125,0.007 0.14875,-0.0112 0.29625,-0.0437 0.4375,-0.0937 0.14,-0.05 0.27125,-0.12125 0.38875,-0.2125 0.12375,-0.0925 0.23125,-0.20625 0.3175,-0.33375 0.0875,-0.12875 0.15625,-0.26875 0.20625,-0.41625 0.0163,-0.0475 0.0312,-0.0962 0.045,-0.145 0.0125,-0.05 0.0238,-0.0987 0.0312,-0.14875 0.004,-0.0213 0.006,-0.0425 0.01,-0.0625 0.002,-0.0213 0.005,-0.0425 0.007,-0.0638 l 0,-1.93375 c 0,-0.0237 0,-0.0475 0,-0.0712 0,-0.0238 -10e-4,-0.0462 -0.002,-0.07 -0.006,-0.095 -0.0238,-0.18875 -0.0512,-0.28 -0.0263,-0.0912 -0.0613,-0.18125 -0.1025,-0.2675 -0.04,-0.09 -0.0875,-0.17625 -0.14125,-0.25875 -0.0537,-0.0812 -0.11625,-0.15625 -0.18625,-0.22375 -0.0437,-0.0438 -0.0913,-0.085 -0.14,-0.12125 -0.05,-0.0375 -0.1025,-0.0712 -0.15625,-0.10125 -0.0213,-0.0125 -0.0425,-0.0238 -0.0638,-0.035 -0.0225,-0.0113 -0.0437,-0.0225 -0.065,-0.0338 l -2.05125,-0.87 -0.0487,-0.02 c -0.0163,-0.006 -0.0325,-0.0125 -0.0488,-0.02 -0.1275,-0.0538 -0.25,-0.1175 -0.3675,-0.19 -0.1175,-0.0725 -0.23125,-0.1525 -0.34,-0.23875 -0.20375,-0.15625 -0.3925,-0.33125 -0.56375,-0.52375 -0.17,-0.19125 -0.32125,-0.40125 -0.44875,-0.625 -0.15375,-0.25375 -0.27625,-0.525 -0.365,-0.80875 -0.0888,-0.28125 -0.14375,-0.5725 -0.16375,-0.8675 -0.002,-0.0237 -0.004,-0.0475 -0.006,-0.0712 l -0.005,-0.0712 0,-1.4125 c 0,-0.0388 0.001,-0.0775 0.001,-0.11625 0,-0.0387 0.002,-0.0775 0.004,-0.11625 0.01,-0.20875 0.0425,-0.415 0.0937,-0.6175 0.0512,-0.20375 0.12,-0.40375 0.20375,-0.59625 0.12,-0.29625 0.27375,-0.57875 0.4575,-0.84 0.18375,-0.26 0.40125,-0.49625 0.645,-0.7 0.25125,-0.2225 0.53125,-0.4075 0.835,-0.55125 0.3025,-0.14375 0.625,-0.2425 0.95625,-0.29375 0.275,-0.05 0.55625,-0.0663 0.83625,-0.0475 0.27875,0.0187 0.555,0.0712 0.82125,0.15875 0.34625,0.105 0.675,0.2625 0.97375,0.46875 0.3,0.205 0.57,0.4525 0.8,0.735 0.19375,0.22375 0.36125,0.47 0.49875,0.73375 0.1375,0.26125 0.24375,0.5375 0.3175,0.8225 0.0325,0.11875 0.06,0.23875 0.0825,0.35875 0.0213,0.12 0.0375,0.24125 0.0462,0.36375 0.002,0.0263 0.005,0.0537 0.006,0.08 l 0.006,0.08 0,1.075 -2.245,0 0,-0.89375 -0.005,-0.0475 -0.005,-0.0462 c -0.0113,-0.0962 -0.0263,-0.19125 -0.045,-0.28625 -0.02,-0.0937 -0.0487,-0.18625 -0.0863,-0.275 -0.0537,-0.13625 -0.12875,-0.26125 -0.22375,-0.37375 -0.095,-0.1125 -0.20625,-0.21125 -0.32875,-0.2925 -0.11375,-0.0813 -0.2375,-0.14625 -0.3675,-0.19375 -0.13,-0.0462 -0.26625,-0.0738 -0.40375,-0.08 -0.195,-0.0137 -0.39125,0.0113 -0.57625,0.0763 -0.1875,0.0637 -0.36125,0.16375 -0.50875,0.295 -0.1225,0.1 -0.22875,0.21875 -0.31375,0.3525 -0.0825,0.13125 -0.14375,0.275 -0.17875,0.42625 -0.0138,0.0537 -0.025,0.1075 -0.0337,0.1625 -0.007,0.055 -0.015,0.11 -0.02,0.165 l -0.005,0.05 -0.005,0.05 0,1.06375 0.002,0.0425 c 10e-4,0.0137 0.002,0.0288 0.004,0.0425 0.01,0.1075 0.0288,0.215 0.0563,0.32 0.0275,0.105 0.0637,0.2075 0.11125,0.305 0.04,0.0925 0.0888,0.18 0.14625,0.26375 0.0562,0.0825 0.12125,0.15875 0.19375,0.22875 0.0387,0.04 0.08,0.0775 0.12375,0.11125 0.0437,0.035 0.0888,0.0662 0.13625,0.0937 0.0162,0.01 0.0325,0.02 0.05,0.0287 l 0.05,0.0263 1.70125,0.71875 0.055,0.0263 0.0537,0.0275 c 0.12125,0.0575 0.24375,0.1125 0.3675,0.16625 0.1225,0.0538 0.2425,0.1125 0.36,0.1775 0.15875,0.0863 0.30875,0.1875 0.44875,0.3025 0.14125,0.115 0.2725,0.24125 0.39375,0.37625 0.155,0.165 0.295,0.34125 0.41875,0.52875 0.12375,0.18625 0.23,0.385 0.31875,0.59125 0.0937,0.21125 0.1675,0.43125 0.2225,0.6575 0.0537,0.225 0.09,0.45375 0.10875,0.68375 l 0.005,0.055 0.005,0.055 0,2.09875 -0.004,0.045 -0.004,0.045 c -0.015,0.155 -0.0325,0.31 -0.0563,0.46375 -0.0225,0.155 -0.0537,0.3075 -0.0937,0.45875 -0.0775,0.31375 -0.19625,0.61625 -0.355,0.89875 -0.1575,0.28375 -0.35375,0.54625 -0.58,0.77875 -0.19625,0.215 -0.41625,0.405 -0.65625,0.5675 -0.24,0.16125 -0.4975,0.2925 -0.76875,0.3925 -0.28125,0.10875 -0.57375,0.18375 -0.8725,0.22 -0.29875,0.0375 -0.6025,0.0362 -0.9025,-10e-4 -0.40125,-0.0412 -0.7925,-0.14875 -1.16,-0.31625 -0.36875,-0.16625 -0.70625,-0.39375 -0.99875,-0.67125 -0.25625,-0.22625 -0.4775,-0.4875 -0.66,-0.77625 -0.18125,-0.2863 -0.32125,-0.5963 -0.41625,-0.9213 -0.0525,-0.1675 -0.095,-0.33875 -0.125,-0.51125 -0.03,-0.1725 -0.0512,-0.34625 -0.065,-0.52125 l -0.004,-0.0538 -0.004,-0.055 0,-1.04875 2.25,0 z"
           style="fill:#000000;fill-opacity:1;fill-rule:evenodd;stroke:#000000;stroke-width:0.27000001;stroke-linecap:butt;stroke-linejoin:bevel;stroke-miterlimit:22.9260006;stroke-opacity:1;stroke-dasharray:none"
           id="path20620"
           inkscape:connector-curvature="0" />
        <path
           d="m 337.27375,540.60906 0,-16.53375 3.81625,0 0.0825,0.006 c 0.0275,0.003 0.055,0.005 0.0825,0.008 0.2025,0.02 0.4025,0.0575 0.59875,0.1125 0.19625,0.0538 0.3875,0.12625 0.57125,0.21625 0.2775,0.1275 0.535,0.2925 0.7675,0.49 0.23375,0.19625 0.44125,0.42375 0.6175,0.6725 0.1325,0.17875 0.25,0.3675 0.34875,0.5675 0.0987,0.1975 0.1775,0.405 0.2375,0.6175 0.0387,0.1275 0.07,0.25625 0.095,0.38625 0.025,0.13 0.045,0.26125 0.0613,0.3925 0.004,0.03 0.007,0.0612 0.01,0.0912 l 0.0113,0.09 0,2.70625 0,0.0425 0,0.0438 c -0.004,0.22875 -0.0362,0.45625 -0.0962,0.6775 -0.06,0.225 -0.14,0.44375 -0.23875,0.65375 -0.12625,0.29 -0.285,0.565 -0.47375,0.81875 -0.1875,0.2525 -0.4075,0.47625 -0.6575,0.66625 -0.2225,0.1775 -0.46625,0.3275 -0.72625,0.44375 -0.26,0.1175 -0.5325,0.20625 -0.8125,0.265 -0.0625,0.015 -0.12625,0.0275 -0.19,0.0387 -0.0638,0.0113 -0.1275,0.0188 -0.1925,0.0238 -0.0337,0.002 -0.0662,0.004 -0.1,0.005 -0.0325,0.001 -0.0663,0.001 -0.1,0.001 l -1.4775,0 0,6.4975 -2.235,0 z"
           style="fill:#000000;fill-opacity:1;fill-rule:evenodd;stroke:#000000;stroke-width:0.27000001;stroke-linecap:butt;stroke-linejoin:bevel;stroke-miterlimit:22.9260006;stroke-opacity:1;stroke-dasharray:none"
           id="path20624"
           inkscape:connector-curvature="0" />
        <path
           d="m 346.2775,527.78031 0.005,-0.0675 c 10e-4,-0.0237 0.002,-0.0462 0.005,-0.0688 0.0237,-0.29375 0.075,-0.585 0.15625,-0.86875 0.08,-0.285 0.19375,-0.56 0.3375,-0.81875 0.15375,-0.3 0.34875,-0.57625 0.57875,-0.8225 0.23,-0.24625 0.4925,-0.46 0.78125,-0.63375 0.22125,-0.1425 0.4575,-0.26 0.705,-0.35125 0.2475,-0.09 0.505,-0.1525 0.76625,-0.18375 0.31875,-0.0463 0.64125,-0.0475 0.96,-0.004 0.32,0.0412 0.63,0.12875 0.925,0.25875 0.34125,0.14 0.65875,0.33375 0.93875,0.57375 0.28375,0.2425 0.53375,0.5225 0.74,0.8325 0.20625,0.28875 0.37375,0.60375 0.49625,0.93625 0.12125,0.3275 0.19,0.6725 0.2025,1.02125 10e-4,0.0225 0.002,0.0462 0.004,0.0687 l 0.002,0.0688 0,9.18125 -0.006,0.0738 c -0.002,0.025 -0.004,0.0488 -0.006,0.0738 -0.0225,0.2375 -0.0625,0.4725 -0.11875,0.70375 -0.0562,0.2325 -0.13375,0.46 -0.23,0.67875 -0.1625,0.395 -0.39,0.7575 -0.67375,1.07625 -0.2825,0.32 -0.61875,0.58625 -0.995,0.78625 -0.26625,0.15625 -0.55375,0.275 -0.8525,0.3525 -0.2975,0.0775 -0.605,0.115 -0.91375,0.1125 -0.3125,0.005 -0.625,-0.0325 -0.9275,-0.10875 -0.30125,-0.0763 -0.5925,-0.19375 -0.8625,-0.3475 -0.2525,-0.13625 -0.48625,-0.30375 -0.69625,-0.49625 -0.2125,-0.195 -0.4025,-0.4125 -0.56625,-0.64875 -0.185,-0.2525 -0.33875,-0.525 -0.46,-0.81375 -0.12,-0.285 -0.20125,-0.585 -0.24125,-0.8925 -0.0113,-0.0738 -0.02,-0.14875 -0.0275,-0.22375 -0.007,-0.075 -0.0138,-0.15 -0.0175,-0.225 l -0.005,-0.0612 -0.004,-0.0612 0,-9.10125 z"
           style="fill:#000000;fill-opacity:1;fill-rule:evenodd;stroke:#000000;stroke-width:0.27000001;stroke-linecap:butt;stroke-linejoin:bevel;stroke-miterlimit:22.9260006;stroke-opacity:1;stroke-dasharray:none"
           id="path20628"
           inkscape:connector-curvature="0" />
        <path
           d="m 356.1075,540.60906 0,-16.53375 4.12,0 c 0.035,0 0.0712,0 0.10625,0 0.035,0.001 0.0712,0.003 0.10625,0.004 0.3125,0.0175 0.61875,0.0888 0.905,0.2125 0.2925,0.125 0.56625,0.29 0.81375,0.49 0.27375,0.20375 0.5175,0.44375 0.725,0.71375 0.205,0.2675 0.37125,0.56125 0.495,0.87375 0.075,0.17375 0.13625,0.3525 0.185,0.535 0.0475,0.18125 0.0862,0.36625 0.11375,0.5525 0.004,0.0263 0.007,0.0525 0.0113,0.0788 l 0.0112,0.0775 0,2.26375 -0.0112,0.0975 c -0.004,0.0325 -0.008,0.065 -0.0113,0.0975 -0.0288,0.22625 -0.0713,0.45 -0.13,0.67 -0.0563,0.22125 -0.135,0.43625 -0.2325,0.6425 -0.0863,0.19625 -0.1925,0.38375 -0.315,0.56 -0.12375,0.1775 -0.26125,0.3425 -0.415,0.49375 -0.0925,0.0963 -0.19125,0.18625 -0.29375,0.2725 -0.1025,0.085 -0.21,0.16375 -0.32125,0.2375 -0.0263,0.0175 -0.0525,0.035 -0.08,0.0525 -0.0263,0.0163 -0.0537,0.0338 -0.08,0.0512 l 2.445,7.5575 -2.39625,0 -2.10375,-7.07125 -1.39625,0 0,7.07125 -2.25125,0 z"
           style="fill:#000000;fill-opacity:1;fill-rule:evenodd;stroke:#000000;stroke-width:0.27000001;stroke-linecap:butt;stroke-linejoin:bevel;stroke-miterlimit:22.9260006;stroke-opacity:1;stroke-dasharray:none"
           id="path20632"
           inkscape:connector-curvature="0" />
        <path
           d="m 367.51625,540.61031 0,-14.32875 -2.67375,0 0,-2.20625 7.5875,0 10e-4,2.20625 -2.66875,0 0,14.32875 -2.24625,0 z"
           style="fill:#000000;fill-opacity:1;fill-rule:evenodd;stroke:#000000;stroke-width:0.27000001;stroke-linecap:butt;stroke-linejoin:bevel;stroke-miterlimit:22.9260006;stroke-opacity:1;stroke-dasharray:none"
           id="path20636"
           inkscape:connector-curvature="0" />
        <path
           d="m 358.35875,526.30906 0,5.1525 1.71375,0 c 0.0188,-10e-4 0.0387,-0.002 0.0588,-0.002 0.02,-10e-4 0.04,-0.003 0.06,-0.004 0.175,-0.0138 0.345,-0.0613 0.5025,-0.13875 0.1575,-0.0762 0.3,-0.1825 0.41875,-0.3125 0.08,-0.0788 0.15,-0.1675 0.20875,-0.26375 0.0587,-0.0963 0.10875,-0.1975 0.15,-0.3025 0.0288,-0.07 0.0537,-0.1425 0.075,-0.21625 0.02,-0.0725 0.035,-0.1475 0.0425,-0.2225 0.002,-0.02 0.004,-0.04 0.006,-0.06 10e-4,-0.02 0.002,-0.04 0.004,-0.0588 l 0,-1.97625 -0.005,-0.0537 c -10e-4,-0.0188 -0.004,-0.0362 -0.005,-0.055 -0.009,-0.0912 -0.025,-0.18375 -0.045,-0.27375 -0.0213,-0.0913 -0.05,-0.18 -0.0863,-0.265 -0.0437,-0.11125 -0.1,-0.21625 -0.17,-0.31375 -0.0688,-0.0975 -0.15,-0.185 -0.24,-0.26375 -0.0763,-0.0675 -0.15875,-0.12875 -0.2475,-0.17875 -0.0875,-0.0512 -0.18125,-0.0925 -0.2775,-0.1225 -0.06,-0.02 -0.12,-0.035 -0.18125,-0.0463 -0.06,-0.0112 -0.1225,-0.0187 -0.18375,-0.0213 -0.0225,0 -0.0437,-0.001 -0.065,-0.001 -0.0213,0 -0.0437,0 -0.065,0 l -1.66875,0 z"
           style="fill:#ffffff;fill-opacity:1;fill-rule:evenodd;stroke:#000000;stroke-width:0.27000001;stroke-linecap:butt;stroke-linejoin:bevel;stroke-miterlimit:22.9260006;stroke-opacity:1;stroke-dasharray:none"
           id="path20640"
           inkscape:connector-curvature="0" />
        <path
           d="m 339.4975,526.30906 0,5.5825 1.415,0 c 0.0225,0 0.0437,0 0.0662,-10e-4 0.0213,0 0.0437,-0.001 0.065,-0.002 0.12875,-0.009 0.25625,-0.035 0.3775,-0.08 0.12125,-0.045 0.2375,-0.10625 0.3425,-0.18375 0.1025,-0.0675 0.195,-0.14875 0.2775,-0.24 0.0813,-0.0912 0.1525,-0.1925 0.21,-0.3 0.0587,-0.1025 0.10625,-0.2125 0.14125,-0.325 0.035,-0.1125 0.0575,-0.2275 0.065,-0.345 0.001,-0.015 0.002,-0.0312 0.004,-0.0463 l 0.002,-0.045 0,-2.50375 c -0.001,-0.0275 -0.004,-0.055 -0.006,-0.0825 -0.002,-0.0288 -0.006,-0.0563 -0.01,-0.0838 -0.0188,-0.13875 -0.0562,-0.27375 -0.11125,-0.4025 -0.0563,-0.12875 -0.13,-0.25 -0.21875,-0.35875 -0.09,-0.1175 -0.19625,-0.22125 -0.3175,-0.30625 -0.12,-0.0863 -0.25125,-0.1525 -0.39125,-0.19875 -0.0562,-0.02 -0.11375,-0.0375 -0.1725,-0.05 -0.0587,-0.0125 -0.1175,-0.02 -0.1775,-0.0237 -0.0225,-10e-4 -0.0462,-0.003 -0.0687,-0.003 -0.0225,-10e-4 -0.0462,-10e-4 -0.0688,-10e-4 l -1.42375,0 z"
           style="fill:#ffffff;fill-opacity:1;fill-rule:evenodd;stroke:#000000;stroke-width:0.27000001;stroke-linecap:butt;stroke-linejoin:bevel;stroke-miterlimit:22.9260006;stroke-opacity:1;stroke-dasharray:none"
           id="path20644"
           inkscape:connector-curvature="0" />
        <path
           d="m 348.52625,527.90656 0,8.84875 0.005,0.0575 c 10e-4,0.02 0.002,0.04 0.005,0.0588 0.015,0.155 0.0462,0.30875 0.095,0.45625 0.0475,0.14875 0.11875,0.29 0.20875,0.4175 0.0913,0.14 0.20625,0.2625 0.33875,0.3625 0.13375,0.10125 0.285,0.1775 0.445,0.225 0.1575,0.0525 0.3225,0.0762 0.4875,0.07 0.16375,-0.005 0.3275,-0.0388 0.48,-0.1 0.14125,-0.05 0.27375,-0.12375 0.3925,-0.215 0.11875,-0.0912 0.22375,-0.19875 0.31125,-0.32 0.07,-0.0913 0.12875,-0.19 0.1775,-0.29375 0.0475,-0.10375 0.0862,-0.21125 0.1125,-0.3225 0.0113,-0.0488 0.0213,-0.0963 0.03,-0.145 0.007,-0.0488 0.0125,-0.0975 0.015,-0.14625 10e-4,-0.0188 0.002,-0.0362 0.002,-0.055 l 10e-4,-0.0537 0,-8.86875 -0.005,-0.0612 c -10e-4,-0.02 -0.002,-0.0412 -0.005,-0.0612 -0.0125,-0.1275 -0.0387,-0.25375 -0.0788,-0.37625 -0.04,-0.1225 -0.095,-0.24 -0.165,-0.34875 -0.0863,-0.145 -0.1975,-0.275 -0.3275,-0.38125 -0.13125,-0.10875 -0.28,-0.1925 -0.44,-0.25 -0.16,-0.0637 -0.33125,-0.0975 -0.50375,-0.10125 -0.1725,-0.004 -0.345,0.0237 -0.5075,0.0812 -0.1475,0.0462 -0.2875,0.1175 -0.41375,0.2075 -0.125,0.0913 -0.23375,0.20125 -0.32375,0.32625 -0.0662,0.0875 -0.1225,0.18125 -0.16875,0.28125 -0.045,0.0987 -0.0813,0.2025 -0.10875,0.30875 -0.0125,0.0488 -0.0238,0.0975 -0.0337,0.14875 -0.009,0.0488 -0.0163,0.1 -0.02,0.15 -10e-4,0.0163 -0.002,0.0338 -0.004,0.05 l -0.002,0.05 z"
           style="fill:#cc0000;fill-opacity:1;fill-rule:evenodd;stroke:#000000;stroke-width:0.27000001;stroke-linecap:butt;stroke-linejoin:bevel;stroke-miterlimit:22.9260006;stroke-opacity:1;stroke-dasharray:none"
           id="path20648"
           inkscape:connector-curvature="0" />
        <path
           d="m 341.96,531.33031 -2.36625,-3.0375 -0.006,-1.88875 1.515,0.004 c 0.76125,0.0788 1.29625,0.805 1.2775,1.40375 l -0.0563,2.81875 c -0.0687,0.25125 -0.16875,0.51625 -0.36375,0.7"
           style="fill:#cc0000;fill-opacity:1;fill-rule:evenodd;stroke:none"
           id="path20652"
           inkscape:connector-curvature="0" />
      </g>
    </g>
  </g>
</svg>
