<?xml version="1.0" encoding="UTF-8" standalone="no"?>
<!-- Created with Inkscape (http://www.inkscape.org/) -->

<svg
   xmlns:dc="http://purl.org/dc/elements/1.1/"
   xmlns:cc="http://creativecommons.org/ns#"
   xmlns:rdf="http://www.w3.org/1999/02/22-rdf-syntax-ns#"
   xmlns:svg="http://www.w3.org/2000/svg"
   xmlns="http://www.w3.org/2000/svg"
   xmlns:sodipodi="http://sodipodi.sourceforge.net/DTD/sodipodi-0.dtd"
   xmlns:inkscape="http://www.inkscape.org/namespaces/inkscape"
   width="60"
   height="60"
   id="svg2"
   version="1.1"
   inkscape:version="0.48.2 r9819"
   sodipodi:docname="Notice_E5_16.svg"
   style="display:inline"
   inkscape:export-filename="/Users/mherring/boatsw/oseam/openseamap/josm/icons/WindSurfing16.png"
   inkscape:export-xdpi="12"
   inkscape:export-ydpi="12">
  <defs
     id="defs4" />
  <sodipodi:namedview
     id="base"
     pagecolor="#ffffff"
     bordercolor="#666666"
     borderopacity="1.0"
     inkscape:pageopacity="0.0"
     inkscape:pageshadow="2"
     inkscape:zoom="5.3032952"
     inkscape:cx="14.367998"
     inkscape:cy="59.084222"
     inkscape:document-units="px"
     inkscape:current-layer="layer23"
     showgrid="true"
     inkscape:window-width="1920"
     inkscape:window-height="1088"
     inkscape:window-x="0"
     inkscape:window-y="0"
     inkscape:window-maximized="1"
     inkscape:snap-global="false">
    <inkscape:grid
       type="xygrid"
       id="grid3004"
       empspacing="5"
       visible="true"
       enabled="true"
       snapvisiblegridlinesonly="true" />
  </sodipodi:namedview>
  <metadata
     id="metadata7">
    <rdf:RDF>
      <cc:Work
         rdf:about="">
        <dc:format>image/svg+xml</dc:format>
        <dc:type
           rdf:resource="http://purl.org/dc/dcmitype/StillImage" />
        <dc:title />
      </cc:Work>
    </rdf:RDF>
  </metadata>
  <g
     inkscape:groupmode="layer"
     id="layer23"
     inkscape:label="E5.16"
     style="display:inline"
     transform="translate(0,-60)">
    <g
       transform="matrix(0.97035073,0,0,0.97035073,124.26267,-91.113951)"
       id="layer1-7"
       inkscape:label="Ebene 1">
      <g
         transform="matrix(0.84345185,0,0,0.84345038,-15.207534,29.219656)"
         id="g3127">
        <path
           id="path17837"
           style="fill:none;stroke:#231f20;stroke-width:0.27824992;stroke-linecap:butt;stroke-linejoin:bevel;stroke-miterlimit:22.9260006;stroke-opacity:1;stroke-dasharray:none"
           d="m -128.32353,222.01355 62.362497,0 0.0162,0 0.0163,0 c 0.18125,-0.001 0.36125,-0.0138 0.54,-0.0388 0.18,-0.0237 0.3575,-0.06 0.53125,-0.11 0.175,-0.045 0.3475,-0.10375 0.51375,-0.17375 0.16625,-0.07 0.32875,-0.15125 0.48375,-0.24375 0.1575,-0.09 0.3075,-0.19 0.45125,-0.30125 0.1425,-0.11 0.27875,-0.23 0.40625,-0.35875 0.12875,-0.12625 0.24875,-0.2625 0.35875,-0.405 0.11,-0.14375 0.21,-0.295 0.3,-0.45125 0.0925,-0.15625 0.1725,-0.3175 0.2425,-0.485 0.07,-0.16625 0.12875,-0.33875 0.175,-0.5125 0.05,-0.175 0.0875,-0.3525 0.1125,-0.53125 0.025,-0.18 0.0375,-0.36 0.0362,-0.54 l 0,-62.42875 c -0.001,-0.18 -0.0138,-0.36125 -0.0375,-0.54 -0.0237,-0.18 -0.0612,-0.35625 -0.11125,-0.53125 -0.045,-0.175 -0.1025,-0.34625 -0.1725,-0.5125 -0.0712,-0.1675 -0.1525,-0.32875 -0.245,-0.485 -0.09,-0.15625 -0.19,-0.3075 -0.3,-0.45125 -0.11,-0.1425 -0.23,-0.27875 -0.35875,-0.405 -0.1275,-0.13 -0.26375,-0.24875 -0.40625,-0.36 -0.14375,-0.11 -0.29375,-0.21 -0.45125,-0.3 -0.15625,-0.0913 -0.3175,-0.1725 -0.485,-0.2425 -0.16625,-0.07 -0.3375,-0.12875 -0.5125,-0.175 -0.17375,-0.05 -0.35125,-0.0875 -0.53125,-0.1125 -0.17875,-0.025 -0.36,-0.0375 -0.54,-0.0362 l -62.427497,0 c -0.18125,0.001 -0.36125,0.0138 -0.54125,0.0375 -0.17875,0.025 -0.35625,0.0612 -0.53,0.11125 -0.17625,0.045 -0.3475,0.1025 -0.51375,0.1725 -0.1675,0.0712 -0.32875,0.1525 -0.485,0.245 -0.15625,0.09 -0.3075,0.19 -0.45,0.3 -0.14375,0.11125 -0.27875,0.23 -0.40625,0.36 -0.12875,0.12625 -0.24875,0.2625 -0.35875,0.405 -0.11125,0.14375 -0.21125,0.295 -0.30125,0.45125 -0.0913,0.15625 -0.1725,0.31875 -0.2425,0.485 -0.0688,0.16625 -0.1275,0.33875 -0.175,0.5125 -0.0488,0.175 -0.0863,0.3525 -0.1125,0.53125 -0.025,0.17875 -0.0375,0.36 -0.035,0.54 l 0,0.0163 -0.001,0.0175 0,62.36125 0.001,0.0163 0,0.0175 c 0,0.18 0.0125,0.36 0.0375,0.54 0.0237,0.17875 0.0612,0.35625 0.11,0.53125 0.045,0.175 0.10375,0.34625 0.17375,0.5125 0.07,0.1675 0.15125,0.32875 0.24375,0.485 0.09,0.15625 0.19125,0.3075 0.30125,0.45 0.11,0.14375 0.23,0.28 0.35875,0.40625 0.1275,0.12875 0.2625,0.24875 0.40625,0.36 0.1425,0.11 0.29375,0.21 0.45,0.3 0.15625,0.0913 0.31875,0.1725 0.485,0.2425 0.1675,0.07 0.33875,0.12875 0.51375,0.175 0.17375,0.05 0.35125,0.0875 0.53125,0.1125 0.17875,0.025 0.35875,0.0375 0.54,0.0362 l 0.0163,0 0.0162,0 z"
           inkscape:connector-curvature="0" />
        <path
           d="m -128.32353,222.08105 -0.0337,0 c -0.18375,-0.001 -0.36625,-0.0138 -0.54875,-0.0388 -0.1825,-0.0237 -0.3625,-0.0625 -0.53875,-0.11125 -0.17875,-0.0463 -0.35375,-0.10625 -0.5225,-0.1775 -0.17,-0.0713 -0.33375,-0.15375 -0.49125,-0.2475 -0.16,-0.0912 -0.3125,-0.19375 -0.45875,-0.30625 -0.14625,-0.11125 -0.28375,-0.23375 -0.4125,-0.36375 -0.13125,-0.13 -0.25375,-0.2675 -0.365,-0.4125 -0.1125,-0.14625 -0.21375,-0.29875 -0.30625,-0.45875 -0.0925,-0.15875 -0.175,-0.3225 -0.24625,-0.4925 -0.07,-0.17 -0.13,-0.34375 -0.1775,-0.52125 -0.05,-0.1775 -0.0888,-0.3575 -0.11375,-0.54 -0.0263,-0.18125 -0.0375,-0.365 -0.0375,-0.54875 l 0,-62.42875 c 10e-4,-0.18375 0.015,-0.3675 0.0387,-0.54875 0.025,-0.1825 0.0625,-0.3625 0.1125,-0.54 0.0462,-0.1775 0.105,-0.3525 0.17625,-0.5225 0.0712,-0.16875 0.15375,-0.3325 0.2475,-0.49125 0.0925,-0.15875 0.195,-0.3125 0.30625,-0.4575 0.1125,-0.14625 0.23375,-0.28375 0.365,-0.41375 0.12875,-0.13 0.26625,-0.2525 0.4125,-0.36375 0.145,-0.1125 0.29875,-0.215 0.45875,-0.30625 0.1575,-0.0925 0.3225,-0.175 0.49125,-0.24625 0.17,-0.0713 0.34375,-0.13 0.5225,-0.17875 0.17625,-0.05 0.35625,-0.0875 0.53875,-0.11375 0.1825,-0.025 0.36625,-0.0375 0.54875,-0.0362 l 62.428747,0 c 0.18375,0.001 0.3675,0.0138 0.55,0.0387 0.18125,0.0238 0.3625,0.0625 0.53875,0.11125 0.17875,0.0463 0.3525,0.10625 0.5225,0.1775 0.16875,0.0713 0.33375,0.15375 0.49125,0.2475 0.15875,0.0913 0.3125,0.19375 0.45875,0.30625 0.145,0.11125 0.28375,0.23375 0.4125,0.36375 0.13125,0.13 0.2525,0.2675 0.365,0.41375 0.1125,0.145 0.21375,0.29875 0.305,0.4575 0.0937,0.15875 0.17625,0.3225 0.24625,0.4925 0.0713,0.17 0.13125,0.34375 0.17875,0.52125 0.05,0.1775 0.0875,0.3575 0.11375,0.54 0.0263,0.18125 0.0375,0.365 0.0362,0.54875 l 0,62.42875 c -10e-4,0.18375 -0.0138,0.3675 -0.0387,0.54875 -0.0238,0.1825 -0.0613,0.3625 -0.11125,0.54 -0.0462,0.1775 -0.105,0.3525 -0.1775,0.52125 -0.0712,0.17 -0.15375,0.33375 -0.2475,0.4925 -0.0912,0.15875 -0.19375,0.3125 -0.305,0.45875 -0.1125,0.145 -0.23375,0.2825 -0.365,0.4125 -0.12875,0.13 -0.2675,0.2525 -0.4125,0.365 -0.14625,0.11125 -0.29875,0.21375 -0.45875,0.305 -0.15875,0.0937 -0.3225,0.175 -0.4925,0.24625 -0.16875,0.0712 -0.34375,0.13 -0.52125,0.17875 -0.17625,0.0487 -0.3575,0.0875 -0.54,0.1125 -0.18125,0.0263 -0.365,0.0387 -0.54875,0.0375 l -62.394997,0 z"
           style="fill:#ffffff;stroke:#000000;stroke-width:2.44366288;stroke-linecap:butt;stroke-linejoin:bevel;stroke-miterlimit:22.9260006;stroke-opacity:1;stroke-dasharray:none"
           id="path17841"
           inkscape:connector-curvature="0" />
        <path
           id="path17845"
           style="fill:#003499;fill-opacity:1;fill-rule:evenodd;stroke:none"
           d="m -128.32353,219.0448 -0.01,0 c -0.0525,0 -0.105,-0.004 -0.15625,-0.0113 -0.0525,-0.006 -0.10375,-0.0175 -0.155,-0.0325 -0.05,-0.0125 -0.1,-0.03 -0.14875,-0.05 -0.0475,-0.02 -0.095,-0.0438 -0.14,-0.0713 -0.0463,-0.0263 -0.09,-0.055 -0.13125,-0.0875 -0.0412,-0.0312 -0.0812,-0.0662 -0.1175,-0.10375 -0.0375,-0.0362 -0.0725,-0.0762 -0.105,-0.1175 -0.0312,-0.0412 -0.0613,-0.085 -0.0862,-0.13125 -0.0275,-0.045 -0.05,-0.0925 -0.0713,-0.14 -0.02,-0.0488 -0.0375,-0.0987 -0.05,-0.14875 -0.015,-0.0512 -0.0263,-0.1025 -0.0337,-0.155 -0.006,-0.0512 -0.01,-0.10375 -0.01,-0.15625 l 0,-0.01 0,-62.3625 0,-0.009 c 0,-0.0525 0.004,-0.105 0.0113,-0.1575 0.006,-0.0512 0.0175,-0.10375 0.0325,-0.15375 0.0125,-0.0512 0.03,-0.10125 0.05,-0.14875 0.02,-0.0488 0.0438,-0.0963 0.0713,-0.14125 0.025,-0.045 0.055,-0.0888 0.0875,-0.13 0.0312,-0.0425 0.0663,-0.0813 0.10375,-0.11875 0.0362,-0.0375 0.0762,-0.0725 0.1175,-0.10375 0.0413,-0.0325 0.085,-0.0612 0.13125,-0.0875 0.045,-0.0263 0.0925,-0.05 0.14,-0.0712 0.0488,-0.02 0.0987,-0.0362 0.14875,-0.05 0.0513,-0.015 0.1025,-0.025 0.155,-0.0325 0.0513,-0.008 0.10375,-0.0113 0.15625,-0.01 l 62.381247,0 c 0.0525,0 0.105,0.002 0.1575,0.01 0.0513,0.007 0.10375,0.0175 0.15375,0.0325 0.0513,0.0125 0.10125,0.03 0.14875,0.05 0.0487,0.0213 0.0962,0.045 0.14125,0.0712 0.045,0.0263 0.0888,0.055 0.13,0.0875 0.0425,0.0312 0.0813,0.0663 0.11875,0.10375 0.0375,0.0375 0.0725,0.0763 0.10375,0.11875 0.0325,0.0412 0.0613,0.085 0.0875,0.13 0.0263,0.045 0.05,0.0925 0.0713,0.14125 0.02,0.0475 0.0362,0.0975 0.05,0.14875 0.015,0.05 0.025,0.1025 0.0325,0.15375 0.008,0.0525 0.0113,0.105 0.01,0.1575 l 0,62.38125 c 0,0.0525 -0.002,0.105 -0.01,0.15625 -0.007,0.0525 -0.0175,0.10375 -0.0325,0.155 -0.0125,0.05 -0.03,0.1 -0.05,0.14875 -0.02,0.0475 -0.045,0.095 -0.0713,0.14 -0.0262,0.0462 -0.055,0.09 -0.0875,0.13125 -0.0312,0.0412 -0.0663,0.0812 -0.10375,0.1175 -0.0375,0.0375 -0.0762,0.0725 -0.11875,0.105 -0.0412,0.0312 -0.085,0.06 -0.13,0.0862 -0.045,0.0275 -0.0925,0.0513 -0.14125,0.0713 -0.0475,0.02 -0.0975,0.0375 -0.14875,0.05 -0.05,0.015 -0.1025,0.0263 -0.15375,0.0338 -0.0525,0.006 -0.105,0.01 -0.1575,0.01 l -0.009,0 -62.362497,0"
           inkscape:connector-curvature="0" />
        <path
           id="path17849"
           style="fill:#ffffff;fill-opacity:1;fill-rule:evenodd;stroke:none"
           d="m -108.61603,190.6973 0,-24.2975 6.75,0 12.147497,0.001 0.15875,0.001 c 0.0537,0 0.10625,0.001 0.16,0.003 0.52875,0.0112 1.0575,0.0575 1.58125,0.14 0.525,0.0812 1.0425,0.2 1.55,0.355 0.51125,0.145 1.01,0.32625 1.495,0.5425 0.48375,0.2175 0.9525,0.46625 1.4025,0.74875 0.45375,0.27375 0.88875,0.57875 1.30125,0.9125 0.4125,0.33375 0.80125,0.695 1.16375,1.0825 0.3675,0.3825 0.70875,0.79 1.02,1.21875 0.3125,0.42875 0.59375,0.87875 0.84375,1.3475 0.25625,0.46375 0.48,0.945 0.67,1.44125 0.18875,0.495 0.345,1.0025 0.46625,1.51875 0.10375,0.4175 0.185,0.84 0.24125,1.265 0.0563,0.425 0.0863,0.85375 0.0913,1.2825 10e-4,0.0475 0.002,0.0963 0.002,0.14375 l 0.001,0.145 -0.001,0.15875 c -0.001,0.0538 -0.002,0.10625 -0.004,0.16 -0.0112,0.52875 -0.0575,1.0575 -0.13875,1.58125 -0.0825,0.525 -0.20125,1.0425 -0.35625,1.55 -0.145,0.51125 -0.32625,1.01 -0.5425,1.495 -0.2175,0.48375 -0.46625,0.9525 -0.7475,1.4025 -0.275,0.45375 -0.58,0.88875 -0.91375,1.30125 -0.33375,0.4125 -0.695,0.80125 -1.0825,1.16375 -0.3825,0.3675 -0.78875,0.70875 -1.21875,1.02125 -0.42875,0.31125 -0.87875,0.5925 -1.3475,0.8425 -0.46375,0.25625 -0.945,0.48 -1.44125,0.67 -0.495,0.19 -1.0025,0.345 -1.51875,0.46625 -0.41625,0.105 -0.84,0.185 -1.265,0.24125 -0.425,0.0562 -0.85375,0.0862 -1.2825,0.0912 -0.0475,0.001 -0.0962,0.003 -0.14375,0.003 l -0.145,0.001 -12.147497,0 0,19.5725 -6.75,0 0,-19.5725"
           inkscape:connector-curvature="0" />
        <path
           id="path17853"
           style="fill:#003499;fill-opacity:1;fill-rule:evenodd;stroke:none"
           d="m -101.86603,173.1498 0,10.79875 12.147497,0 0.0712,-0.001 c 0.0238,0 0.0475,0 0.07,-0.001 0.23625,-0.005 0.47125,-0.025 0.70375,-0.0613 0.23375,-0.0362 0.46375,-0.09 0.68875,-0.15875 0.2275,-0.065 0.44875,-0.145 0.665,-0.24125 0.215,-0.0962 0.4225,-0.2075 0.6225,-0.3325 0.2025,-0.12125 0.395,-0.2575 0.57875,-0.405 0.1825,-0.14875 0.35625,-0.31 0.5175,-0.48125 0.1625,-0.17 0.315,-0.35125 0.4525,-0.5425 0.13875,-0.19 0.26375,-0.39 0.375,-0.59875 0.11375,-0.20625 0.21375,-0.42 0.29875,-0.64 0.0838,-0.22 0.1525,-0.44625 0.20625,-0.675 0.0487,-0.195 0.085,-0.39125 0.11,-0.59 0.025,-0.1975 0.0375,-0.3975 0.0387,-0.5975 0.001,-0.0362 0.001,-0.0713 0.001,-0.1075 0,-0.035 -0.001,-0.0712 -0.002,-0.1075 -0.005,-0.235 -0.0263,-0.47 -0.0625,-0.7025 -0.0362,-0.23375 -0.0888,-0.46375 -0.1575,-0.68875 -0.0637,-0.2275 -0.145,-0.45 -0.24125,-0.665 -0.0963,-0.215 -0.20625,-0.42375 -0.33125,-0.62375 -0.1225,-0.20125 -0.25875,-0.39375 -0.40625,-0.5775 -0.14875,-0.1825 -0.30875,-0.35625 -0.48125,-0.5175 -0.17,-0.1625 -0.35125,-0.315 -0.54125,-0.45375 -0.19125,-0.13875 -0.39125,-0.26375 -0.59875,-0.375 -0.2075,-0.11375 -0.42125,-0.2125 -0.64125,-0.2975 -0.22,-0.0838 -0.44625,-0.15375 -0.675,-0.2075 -0.185,-0.0462 -0.3725,-0.0812 -0.5625,-0.10625 -0.18875,-0.025 -0.37875,-0.0387 -0.57,-0.0412 -0.0213,0 -0.0425,-10e-4 -0.0637,-10e-4 l -0.0637,0 -12.148747,0"
           inkscape:connector-curvature="0" />
      </g>
    </g>
  </g>
</svg>
