<?xml version="1.0" encoding="UTF-8" standalone="no"?>
<!-- Created with Inkscape (http://www.inkscape.org/) -->

<svg
   xmlns:dc="http://purl.org/dc/elements/1.1/"
   xmlns:cc="http://creativecommons.org/ns#"
   xmlns:rdf="http://www.w3.org/1999/02/22-rdf-syntax-ns#"
   xmlns:svg="http://www.w3.org/2000/svg"
   xmlns="http://www.w3.org/2000/svg"
   xmlns:sodipodi="http://sodipodi.sourceforge.net/DTD/sodipodi-0.dtd"
   xmlns:inkscape="http://www.inkscape.org/namespaces/inkscape"
   width="60"
   height="60"
   id="svg2"
   version="1.1"
   inkscape:version="0.48.2 r9819"
   sodipodi:docname="Notice_E19.svg"
   style="display:inline"
   inkscape:export-filename="/Users/mherring/boatsw/oseam/openseamap/josm/icons/WindSurfing16.png"
   inkscape:export-xdpi="12"
   inkscape:export-ydpi="12">
  <defs
     id="defs4" />
  <sodipodi:namedview
     id="base"
     pagecolor="#ffffff"
     bordercolor="#666666"
     borderopacity="1.0"
     inkscape:pageopacity="0.0"
     inkscape:pageshadow="2"
     inkscape:zoom="5.3032952"
     inkscape:cx="14.367998"
     inkscape:cy="59.084222"
     inkscape:document-units="px"
     inkscape:current-layer="layer49"
     showgrid="true"
     inkscape:window-width="1920"
     inkscape:window-height="1088"
     inkscape:window-x="0"
     inkscape:window-y="0"
     inkscape:window-maximized="1"
     inkscape:snap-global="false">
    <inkscape:grid
       type="xygrid"
       id="grid3004"
       empspacing="5"
       visible="true"
       enabled="true"
       snapvisiblegridlinesonly="true" />
  </sodipodi:namedview>
  <metadata
     id="metadata7">
    <rdf:RDF>
      <cc:Work
         rdf:about="">
        <dc:format>image/svg+xml</dc:format>
        <dc:type
           rdf:resource="http://purl.org/dc/dcmitype/StillImage" />
        <dc:title />
      </cc:Work>
    </rdf:RDF>
  </metadata>
  <g
     inkscape:groupmode="layer"
     id="layer49"
     inkscape:label="E19"
     style="display:inline"
     transform="translate(0,-60)">
    <g
       transform="matrix(0.97035069,0,0,0.97035069,-596.56927,-326.77057)"
       id="layer1-21"
       inkscape:label="Ebene 1">
      <g
         transform="matrix(0.84345072,0,0,0.84345072,101.08611,67.238706)"
         id="g2973">
        <g
           id="g4619"
           transform="matrix(0,1.25,1.25,0,614.53361,464.87066)"
           style="fill:#ffffff;stroke:#000000;stroke-width:1.03055525">
          <path
             d="m 0,0 0,49.89 0,0.013 0,0.013 c -0.001,0.145 -0.011,0.289 -0.031,0.432 -0.019,0.144 -0.048,0.286 -0.088,0.425 -0.036,0.14 -0.083,0.278 -0.139,0.411 -0.056,0.133 -0.121,0.263 -0.195,0.387 -0.072,0.126 -0.152,0.246 -0.241,0.361 -0.088,0.114 -0.184,0.223 -0.286,0.325 -0.102,0.103 -0.211,0.199 -0.325,0.287 -0.115,0.088 -0.236,0.168 -0.361,0.24 -0.125,0.074 -0.254,0.138 -0.388,0.194 -0.134,0.056 -0.271,0.103 -0.41,0.14 -0.14,0.04 -0.282,0.07 -0.425,0.09 -0.143,0.02 -0.288,0.03 -0.432,0.029 l -49.943,0 c -0.144,-0.001 -0.289,-0.011 -0.432,-0.03 -0.144,-0.019 -0.285,-0.049 -0.425,-0.089 -0.14,-0.036 -0.277,-0.082 -0.41,-0.138 -0.134,-0.057 -0.263,-0.122 -0.388,-0.196 -0.125,-0.072 -0.246,-0.152 -0.361,-0.24 -0.114,-0.088 -0.223,-0.184 -0.324,-0.287 -0.104,-0.102 -0.199,-0.211 -0.288,-0.325 -0.088,-0.115 -0.168,-0.235 -0.24,-0.361 -0.073,-0.125 -0.138,-0.254 -0.194,-0.388 -0.056,-0.133 -0.103,-0.27 -0.14,-0.41 -0.04,-0.139 -0.07,-0.281 -0.09,-0.425 -0.02,-0.143 -0.03,-0.288 -0.029,-0.432 l 0,-49.942 c 10e-4,-0.145 0.011,-0.289 0.03,-0.433 0.02,-0.143 0.049,-0.285 0.089,-0.424 0.036,-0.141 0.082,-0.278 0.138,-0.411 0.057,-0.134 0.122,-0.263 0.196,-0.388 0.072,-0.125 0.152,-0.246 0.24,-0.36 0.089,-0.115 0.184,-0.224 0.288,-0.325 0.101,-0.103 0.21,-0.199 0.324,-0.287 0.115,-0.089 0.236,-0.169 0.361,-0.241 0.125,-0.073 0.255,-0.138 0.388,-0.194 0.133,-0.056 0.271,-0.102 0.41,-0.14 0.14,-0.039 0.282,-0.069 0.425,-0.09 0.143,-0.02 0.288,-0.03 0.432,-0.028 l 0.013,0 0.013,-10e-4 49.89,0 0.013,10e-4 0.014,0 c 0.144,0 0.289,0.01 0.432,0.03 0.143,0.019 0.285,0.049 0.425,0.088 0.14,0.036 0.277,0.083 0.41,0.139 0.134,0.056 0.263,0.121 0.388,0.195 0.125,0.072 0.246,0.153 0.36,0.241 0.115,0.088 0.224,0.184 0.326,0.287 0.102,0.101 0.198,0.21 0.287,0.325 0.088,0.114 0.168,0.235 0.24,0.36 0.073,0.125 0.138,0.255 0.194,0.388 0.056,0.134 0.103,0.271 0.14,0.411 0.04,0.139 0.07,0.281 0.09,0.425 0.02,0.143 0.03,0.287 0.029,0.432 L 0,-0.013 0,0 z"
             style="fill:#ffffff;stroke:#000000;stroke-width:0.22259995;stroke-linecap:butt;stroke-linejoin:bevel;stroke-miterlimit:22.9260006;stroke-opacity:1;stroke-dasharray:none"
             id="path4621"
             inkscape:connector-curvature="0" />
          <g
             id="g4623"
             transform="translate(0.054,0)"
             style="fill:#ffffff;stroke:#000000;stroke-width:1.03055525">
            <path
               d="m 0,0 0,-0.027 c -0.001,-0.147 -0.011,-0.293 -0.031,-0.439 -0.02,-0.146 -0.05,-0.29 -0.09,-0.432 -0.036,-0.142 -0.084,-0.282 -0.141,-0.417 -0.057,-0.136 -0.123,-0.267 -0.198,-0.393 -0.073,-0.128 -0.155,-0.25 -0.245,-0.367 -0.089,-0.117 -0.187,-0.227 -0.291,-0.33 -0.104,-0.105 -0.214,-0.203 -0.33,-0.292 -0.117,-0.09 -0.239,-0.171 -0.367,-0.245 -0.127,-0.074 -0.258,-0.14 -0.394,-0.197 -0.136,-0.056 -0.275,-0.104 -0.417,-0.142 -0.142,-0.04 -0.286,-0.071 -0.432,-0.091 -0.145,-0.021 -0.292,-0.03 -0.439,-0.03 l -49.943,0 c -0.147,0.001 -0.294,0.012 -0.439,0.031 -0.146,0.02 -0.29,0.05 -0.432,0.09 -0.142,0.037 -0.282,0.084 -0.418,0.141 -0.135,0.057 -0.266,0.123 -0.393,0.198 -0.127,0.074 -0.25,0.156 -0.366,0.245 -0.117,0.09 -0.227,0.187 -0.331,0.292 -0.104,0.103 -0.202,0.213 -0.291,0.33 -0.09,0.116 -0.172,0.239 -0.245,0.367 -0.074,0.126 -0.14,0.258 -0.197,0.393 -0.057,0.136 -0.104,0.275 -0.142,0.417 -0.041,0.142 -0.071,0.286 -0.092,0.432 -0.02,0.146 -0.03,0.292 -0.029,0.439 l 0,49.943 c 10e-4,0.147 0.011,0.294 0.031,0.44 0.02,0.145 0.05,0.289 0.09,0.431 0.036,0.142 0.084,0.282 0.141,0.418 0.057,0.135 0.123,0.267 0.198,0.393 0.073,0.127 0.155,0.25 0.245,0.367 0.089,0.116 0.187,0.227 0.291,0.33 0.104,0.105 0.214,0.202 0.331,0.292 0.116,0.089 0.239,0.171 0.366,0.244 0.127,0.075 0.258,0.141 0.394,0.197 0.136,0.057 0.275,0.105 0.417,0.143 0.142,0.04 0.286,0.07 0.432,0.091 0.145,0.021 0.292,0.03 0.439,0.029 l 49.943,0 c 0.147,-10e-4 0.294,-0.011 0.439,-0.031 0.146,-0.019 0.29,-0.049 0.432,-0.089 0.142,-0.037 0.282,-0.084 0.417,-0.142 0.136,-0.057 0.267,-0.123 0.394,-0.198 0.127,-0.073 0.25,-0.155 0.367,-0.244 0.116,-0.09 0.226,-0.187 0.33,-0.292 0.105,-0.103 0.202,-0.214 0.292,-0.33 0.089,-0.117 0.171,-0.239 0.244,-0.367 0.074,-0.127 0.14,-0.258 0.197,-0.394 0.057,-0.135 0.104,-0.275 0.142,-0.417 0.04,-0.142 0.071,-0.286 0.091,-0.432 C -0.009,50.21 0.001,50.063 0,49.916 L 0,0 z"
               style="fill:#ffffff;stroke:#000000;stroke-width:1.95493162;stroke-linecap:butt;stroke-linejoin:bevel;stroke-miterlimit:22.9260006;stroke-opacity:1;stroke-dasharray:none"
               id="path4625"
               inkscape:connector-curvature="0" />
          </g>
        </g>
        <g
           id="g4615"
           transform="matrix(0,1.25,1.25,0,614.53361,461.90066)"
           style="fill:#003399;fill-opacity:1">
          <path
             d="m 0,0 0,-0.008 c 0,-0.042 -0.003,-0.084 -0.009,-0.125 -0.005,-0.042 -0.014,-0.083 -0.026,-0.124 -0.01,-0.04 -0.024,-0.08 -0.04,-0.119 -0.016,-0.038 -0.035,-0.076 -0.057,-0.112 -0.021,-0.037 -0.044,-0.072 -0.07,-0.105 -0.025,-0.033 -0.053,-0.065 -0.083,-0.094 -0.029,-0.03 -0.061,-0.058 -0.094,-0.084 -0.034,-0.025 -0.068,-0.049 -0.105,-0.069 -0.036,-0.022 -0.074,-0.04 -0.112,-0.057 -0.039,-0.016 -0.079,-0.03 -0.12,-0.04 -0.04,-0.012 -0.081,-0.021 -0.123,-0.027 -0.041,-0.005 -0.083,-0.008 -0.125,-0.008 l -0.008,0 -49.89,0 -0.007,0 c -0.042,0 -0.084,0.003 -0.126,0.009 -0.041,0.005 -0.083,0.014 -0.123,0.026 -0.041,0.01 -0.081,0.024 -0.119,0.04 -0.039,0.016 -0.077,0.035 -0.113,0.057 -0.036,0.02 -0.071,0.044 -0.105,0.069 -0.033,0.026 -0.064,0.054 -0.094,0.084 -0.03,0.029 -0.058,0.061 -0.083,0.094 -0.026,0.033 -0.049,0.068 -0.07,0.105 -0.021,0.036 -0.04,0.074 -0.057,0.112 -0.016,0.039 -0.029,0.079 -0.04,0.119 -0.012,0.041 -0.02,0.082 -0.026,0.124 -0.006,0.041 -0.009,0.083 -0.008,0.125 l 0,49.905 c 0,0.042 0.002,0.084 0.008,0.126 0.006,0.041 0.014,0.083 0.026,0.123 0.01,0.041 0.024,0.081 0.04,0.119 0.016,0.039 0.035,0.077 0.057,0.113 0.021,0.036 0.044,0.071 0.07,0.104 0.025,0.034 0.053,0.065 0.083,0.095 0.03,0.03 0.061,0.058 0.094,0.083 0.034,0.026 0.069,0.049 0.105,0.07 0.036,0.021 0.074,0.04 0.113,0.057 0.038,0.016 0.078,0.029 0.119,0.04 0.04,0.012 0.082,0.02 0.123,0.026 0.042,0.006 0.084,0.009 0.126,0.008 l 49.905,0 c 0.042,0 0.084,-0.002 0.125,-0.008 0.042,-0.006 0.083,-0.014 0.123,-0.026 0.041,-0.01 0.081,-0.024 0.12,-0.04 0.038,-0.017 0.076,-0.036 0.112,-0.057 0.037,-0.021 0.071,-0.044 0.105,-0.07 0.033,-0.025 0.065,-0.053 0.094,-0.083 0.03,-0.03 0.058,-0.061 0.084,-0.095 0.025,-0.033 0.048,-0.068 0.069,-0.104 0.022,-0.036 0.04,-0.074 0.057,-0.113 0.016,-0.038 0.03,-0.078 0.04,-0.119 0.012,-0.04 0.021,-0.082 0.026,-0.123 C -0.003,49.981 0,49.939 0,49.897 L 0,49.89 0,0"
             style="fill:#003399;fill-opacity:1;fill-rule:evenodd;stroke:none"
             id="path4617"
             inkscape:connector-curvature="0" />
        </g>
        <g
           id="g4627"
           transform="matrix(0,1.25,1.25,0,656.81611,419.11441)">
          <path
             d="m 0,0 c -0.01,0.01 -0.02,0.019 -0.03,0.029 -0.011,0.01 -0.02,0.02 -0.03,0.03 -0.058,0.058 -0.113,0.12 -0.162,0.187 -0.049,0.066 -0.094,0.135 -0.133,0.208 -0.042,0.072 -0.078,0.146 -0.108,0.223 -0.03,0.076 -0.056,0.155 -0.075,0.235 -0.021,0.08 -0.037,0.161 -0.046,0.243 -0.01,0.082 -0.014,0.165 -0.012,0.247 0,0.083 0.006,0.165 0.018,0.247 0.012,0.081 0.03,0.162 0.052,0.241 0.022,0.08 0.05,0.158 0.082,0.233 0.033,0.076 0.07,0.15 0.113,0.22 0.042,0.072 0.088,0.14 0.14,0.205 0.051,0.065 0.106,0.126 0.166,0.183 0.059,0.058 0.121,0.111 0.187,0.161 0.067,0.049 0.136,0.094 0.208,0.134 0.072,0.041 0.146,0.078 0.223,0.109 0.076,0.031 0.155,0.056 0.235,0.074 0.076,0.018 0.153,0.031 0.231,0.039 0.078,0.008 0.156,0.014 0.234,0.019 l 0.025,0 C 1.401,3.266 1.483,3.26 1.564,3.248 1.646,3.237 1.727,3.219 1.806,3.196 1.886,3.175 1.964,3.148 2.04,3.115 2.116,3.082 2.189,3.044 2.259,3.001 2.331,2.96 2.399,2.913 2.464,2.862 2.529,2.811 2.59,2.755 2.647,2.696 2.705,2.637 2.759,2.574 2.808,2.508 2.858,2.442 2.902,2.373 2.942,2.301 2.983,2.229 3.018,2.155 3.049,2.078 3.079,2.001 3.105,1.922 3.125,1.843 3.146,1.763 3.162,1.681 3.172,1.599 3.182,1.517 3.186,1.435 3.183,1.352 3.182,1.339 3.182,1.326 3.182,1.313 L 3.18,1.274 l 2.163,-1.69 0,12.052 0,0.026 c 0.001,0.045 0.005,0.091 0.012,0.136 0.006,0.045 0.016,0.089 0.029,0.133 0.012,0.046 0.028,0.09 0.047,0.134 0.018,0.043 0.04,0.085 0.065,0.125 0.024,0.041 0.05,0.08 0.079,0.116 0.03,0.038 0.061,0.072 0.096,0.105 0.033,0.033 0.069,0.064 0.107,0.092 0.038,0.028 0.078,0.054 0.119,0.076 0.041,0.024 0.083,0.044 0.127,0.061 0.044,0.018 0.089,0.032 0.135,0.043 0.045,0.012 0.092,0.02 0.138,0.026 0.048,0.005 0.095,0.008 0.142,0.007 0.047,0 0.094,-0.004 0.141,-0.011 0.047,-0.006 0.092,-0.017 0.138,-0.03 l 0.013,-0.004 8.653,-2.704 0.024,-0.008 c 0.029,-0.01 0.058,-0.021 0.086,-0.033 0.028,-0.012 0.056,-0.026 0.083,-0.041 0.041,-0.022 0.081,-0.047 0.12,-0.075 0.038,-0.027 0.074,-0.057 0.108,-0.09 0.034,-0.033 0.067,-0.067 0.096,-0.104 0.03,-0.036 0.057,-0.075 0.081,-0.115 0.025,-0.04 0.047,-0.082 0.066,-0.125 0.02,-0.043 0.036,-0.088 0.049,-0.133 0.014,-0.045 0.024,-0.091 0.032,-0.138 0.008,-0.046 0.011,-0.093 0.012,-0.14 l 0,-0.015 0,-17.802 4.185,-3.269 2.618,0 6.43,-5.037 0.011,-0.009 c 0.003,-0.003 0.007,-0.006 0.011,-0.009 0.036,-0.03 0.071,-0.062 0.103,-0.096 0.032,-0.035 0.062,-0.071 0.089,-0.11 0.028,-0.038 0.052,-0.079 0.075,-0.12 0.022,-0.042 0.041,-0.085 0.057,-0.129 0.017,-0.044 0.03,-0.09 0.041,-0.136 0.01,-0.046 0.018,-0.092 0.022,-0.139 0.005,-0.047 0.006,-0.094 0.004,-0.141 -10e-4,-0.047 -0.006,-0.094 -0.014,-0.141 -0.008,-0.046 -0.019,-0.092 -0.032,-0.137 -0.014,-0.045 -0.031,-0.089 -0.051,-0.132 -0.016,-0.035 -0.033,-0.069 -0.052,-0.102 -0.02,-0.032 -0.041,-0.064 -0.064,-0.094 l -0.016,-0.02 -1.995,-2.551 -0.008,-0.011 -0.009,-0.011 c -0.03,-0.036 -0.062,-0.071 -0.097,-0.103 -0.034,-0.032 -0.071,-0.062 -0.109,-0.089 -0.039,-0.028 -0.079,-0.053 -0.12,-0.075 -0.042,-0.022 -0.085,-0.041 -0.13,-0.057 -0.043,-0.017 -0.089,-0.031 -0.135,-0.041 -0.046,-0.011 -0.092,-0.018 -0.139,-0.022 -0.047,-0.005 -0.094,-0.007 -0.141,-0.005 -0.047,0.001 -0.095,0.006 -0.141,0.015 -0.046,0.007 -0.092,0.018 -0.137,0.032 -0.046,0.013 -0.09,0.03 -0.133,0.05 -0.035,0.016 -0.069,0.033 -0.102,0.053 -0.033,0.02 -0.065,0.041 -0.096,0.065 l -0.02,0.015 -6.665,5.238 0,2.038 -3.24,2.532 0,-9.7 0,-0.025 c -10e-4,-0.044 -0.004,-0.088 -0.01,-0.132 -0.007,-0.043 -0.016,-0.086 -0.028,-0.128 -0.012,-0.046 -0.027,-0.091 -0.046,-0.134 -0.018,-0.044 -0.04,-0.086 -0.064,-0.126 -0.023,-0.041 -0.049,-0.081 -0.078,-0.118 -0.029,-0.037 -0.061,-0.072 -0.095,-0.105 l -0.01,-0.01 -0.01,-0.01 -8.639,-8.098 -0.019,-0.018 c -0.024,-0.021 -0.049,-0.042 -0.075,-0.061 -0.026,-0.019 -0.052,-0.038 -0.08,-0.054 -0.04,-0.026 -0.082,-0.048 -0.125,-0.067 -0.043,-0.019 -0.087,-0.035 -0.133,-0.048 -0.045,-0.014 -0.091,-0.024 -0.137,-0.032 -0.047,-0.007 -0.094,-0.011 -0.141,-0.012 -0.047,-0.002 -0.094,0 -0.141,0.005 -0.047,0.005 -0.094,0.013 -0.14,0.024 -0.045,0.011 -0.09,0.025 -0.134,0.042 -0.045,0.016 -0.087,0.037 -0.129,0.059 -0.041,0.022 -0.081,0.048 -0.119,0.075 -0.038,0.028 -0.075,0.058 -0.109,0.091 -0.034,0.032 -0.066,0.067 -0.096,0.104 -0.03,0.036 -0.057,0.075 -0.081,0.115 -0.025,0.04 -0.047,0.082 -0.066,0.125 -0.019,0.043 -0.036,0.087 -0.049,0.133 -0.014,0.045 -0.024,0.091 -0.032,0.137 -0.007,0.047 -0.011,0.094 -0.012,0.141 l 0,0.014 0,0.014 0,8.659 c -0.293,-0.031 -0.586,-0.059 -0.879,-0.084 -0.294,-0.025 -0.588,-0.04 -0.882,-0.043 -0.472,-0.005 -0.944,0.026 -1.411,0.094 -0.468,0.066 -0.929,0.17 -1.379,0.31 -0.451,0.135 -0.892,0.3 -1.321,0.493 -0.429,0.193 -0.853,0.4 -1.269,0.62 -0.174,0.089 -0.346,0.182 -0.517,0.277 -0.17,0.096 -0.335,0.2 -0.495,0.311 -0.124,0.085 -0.243,0.177 -0.359,0.274 -0.114,0.097 -0.224,0.199 -0.329,0.308 -0.135,0.138 -0.261,0.285 -0.376,0.44 -0.116,0.155 -0.221,0.317 -0.315,0.486 -0.097,0.167 -0.182,0.341 -0.255,0.52 -0.072,0.18 -0.131,0.365 -0.174,0.553 -0.062,0.257 -0.095,0.519 -0.099,0.782 -0.003,0.263 0.025,0.525 0.085,0.781 0.034,0.164 0.08,0.326 0.135,0.485 0.055,0.159 0.113,0.317 0.175,0.473 L 0,0"
             style="fill:#ffffff;fill-opacity:1;fill-rule:evenodd;stroke:none"
             id="path4629"
             inkscape:connector-curvature="0" />
        </g>
        <g
           id="g4631"
           transform="matrix(0,1.25,1.25,0,645.37736,407.90691)">
          <path
             d="M 0,0 0.025,0 0.049,0 C 0.214,-0.002 0.379,-0.015 0.542,-0.038 0.706,-0.061 0.867,-0.096 1.026,-0.142 1.185,-0.185 1.341,-0.239 1.493,-0.304 1.644,-0.37 1.791,-0.446 1.932,-0.531 2.075,-0.615 2.211,-0.708 2.341,-0.81 2.47,-0.912 2.593,-1.023 2.707,-1.142 2.823,-1.26 2.931,-1.385 3.03,-1.517 3.128,-1.649 3.218,-1.788 3.298,-1.933 3.379,-2.076 3.451,-2.225 3.512,-2.379 3.573,-2.532 3.624,-2.689 3.663,-2.849 3.705,-3.009 3.736,-3.171 3.755,-3.335 3.774,-3.499 3.783,-3.664 3.779,-3.829 3.778,-3.994 3.766,-4.159 3.742,-4.322 3.718,-4.486 3.683,-4.647 3.638,-4.806 3.594,-4.965 3.539,-5.12 3.474,-5.272 3.409,-5.424 3.334,-5.571 3.248,-5.712 3.165,-5.854 3.072,-5.991 2.969,-6.121 2.867,-6.25 2.756,-6.373 2.637,-6.487 2.52,-6.603 2.394,-6.71 2.262,-6.809 2.13,-6.908 1.991,-6.998 1.847,-7.077 1.703,-7.159 1.554,-7.23 1.401,-7.292 1.248,-7.353 1.091,-7.403 0.93,-7.443 0.77,-7.485 0.608,-7.515 0.444,-7.535 0.281,-7.554 0.115,-7.562 -0.05,-7.559 c -0.165,0.001 -0.329,0.014 -0.493,0.037 -0.163,0.024 -0.324,0.059 -0.483,0.105 -0.159,0.044 -0.315,0.098 -0.467,0.163 -0.151,0.065 -0.298,0.141 -0.44,0.226 -0.142,0.084 -0.278,0.177 -0.408,0.279 -0.129,0.102 -0.252,0.213 -0.366,0.332 -0.116,0.118 -0.224,0.243 -0.323,0.375 -0.099,0.132 -0.188,0.271 -0.268,0.416 -0.081,0.143 -0.153,0.292 -0.214,0.445 -0.061,0.154 -0.112,0.311 -0.151,0.471 -0.042,0.16 -0.072,0.322 -0.092,0.486 -0.019,0.164 -0.028,0.329 -0.024,0.494 10e-4,0.165 0.013,0.33 0.037,0.493 0.024,0.163 0.058,0.325 0.104,0.483 0.044,0.159 0.099,0.315 0.164,0.467 0.065,0.152 0.14,0.299 0.226,0.44 0.083,0.142 0.176,0.279 0.278,0.408 0.103,0.13 0.214,0.252 0.333,0.367 0.117,0.116 0.242,0.223 0.375,0.322 0.132,0.099 0.271,0.189 0.415,0.268 0.144,0.082 0.292,0.153 0.446,0.214 0.153,0.061 0.311,0.112 0.471,0.152 0.151,0.039 0.306,0.07 0.461,0.089 C -0.313,-0.007 -0.157,0.002 0,0"
             style="fill:#ffffff;fill-opacity:1;fill-rule:evenodd;stroke:none"
             id="path4633"
             inkscape:connector-curvature="0" />
        </g>
        <g
           id="g4635"
           transform="matrix(0,1.25,1.25,0,656.22111,421.19191)"
           style="fill:#003399;fill-opacity:1">
          <path
             d="m 0,0 -1.179,-10.835 0,-0.572 c 0.083,-0.004 0.167,-0.008 0.25,-0.012 0.084,-0.004 0.167,-0.008 0.25,-0.013 0.523,-0.033 1.044,-0.096 1.56,-0.187 0.516,-0.092 1.026,-0.213 1.527,-0.364 0.214,-0.062 0.427,-0.127 0.639,-0.196 0.212,-0.07 0.423,-0.14 0.633,-0.212 l 0,9.709 L 0.188,0.048 0.142,0.034 C 0.127,0.03 0.111,0.026 0.096,0.022 0.08,0.018 0.064,0.014 0.048,0.01 L 0,0"
             style="fill:#003399;fill-opacity:1;fill-rule:evenodd;stroke:none"
             id="path4637"
             inkscape:connector-curvature="0" />
        </g>
      </g>
    </g>
  </g>
</svg>
