<?xml version="1.0" encoding="UTF-8" standalone="no"?>
<!-- Created with Inkscape (http://www.inkscape.org/) -->

<svg
   xmlns:dc="http://purl.org/dc/elements/1.1/"
   xmlns:cc="http://creativecommons.org/ns#"
   xmlns:rdf="http://www.w3.org/1999/02/22-rdf-syntax-ns#"
   xmlns:svg="http://www.w3.org/2000/svg"
   xmlns="http://www.w3.org/2000/svg"
   xmlns:sodipodi="http://sodipodi.sourceforge.net/DTD/sodipodi-0.dtd"
   xmlns:inkscape="http://www.inkscape.org/namespaces/inkscape"
   width="60"
   height="60"
   id="svg2"
   version="1.1"
   inkscape:version="0.48.2 r9819"
   sodipodi:docname="Notice_E9h.svg"
   style="display:inline"
   inkscape:export-filename="/Users/mherring/boatsw/oseam/openseamap/josm/icons/WindSurfing16.png"
   inkscape:export-xdpi="12"
   inkscape:export-ydpi="12">
  <defs
     id="defs4" />
  <sodipodi:namedview
     id="base"
     pagecolor="#ffffff"
     bordercolor="#666666"
     borderopacity="1.0"
     inkscape:pageopacity="0.0"
     inkscape:pageshadow="2"
     inkscape:zoom="5.3032952"
     inkscape:cx="14.367998"
     inkscape:cy="59.084222"
     inkscape:document-units="px"
     inkscape:current-layer="layer34"
     showgrid="true"
     inkscape:window-width="1920"
     inkscape:window-height="1088"
     inkscape:window-x="0"
     inkscape:window-y="0"
     inkscape:window-maximized="1"
     inkscape:snap-global="false">
    <inkscape:grid
       type="xygrid"
       id="grid3004"
       empspacing="5"
       visible="true"
       enabled="true"
       snapvisiblegridlinesonly="true" />
  </sodipodi:namedview>
  <metadata
     id="metadata7">
    <rdf:RDF>
      <cc:Work
         rdf:about="">
        <dc:format>image/svg+xml</dc:format>
        <dc:type
           rdf:resource="http://purl.org/dc/dcmitype/StillImage" />
        <dc:title />
      </cc:Work>
    </rdf:RDF>
  </metadata>
  <g
     inkscape:groupmode="layer"
     id="layer34"
     inkscape:label="E9h"
     style="display:inline"
     transform="translate(0,-60)">
    <g
       id="g9966"
       transform="matrix(0.97035072,0,0,0.97035072,-28.22101,31.778929)">
      <g
         inkscape:label="Ebene 1"
         id="layer1-22-4"
         transform="translate(-290.00001,-472.36222)"
         style="display:inline">
        <g
           id="g4037-3-13"
           transform="matrix(0,-0.8434498,-0.84345072,0,799.02128,827.56965)">
          <g
             style="fill:#ffffff;stroke:#000000;stroke-width:1.03055513"
             transform="matrix(1.25,0,0,-1.25,385.36563,563.54286)"
             id="g3565-1-1">
            <path
               inkscape:connector-curvature="0"
               id="path3567-4-2"
               style="fill:#ffffff;stroke:#000000;stroke-width:0.22259994;stroke-linecap:butt;stroke-linejoin:bevel;stroke-miterlimit:22.9260006;stroke-opacity:1;stroke-dasharray:none"
               d="m 0,0 0,49.89 0,0.013 0,0.013 c -0.001,0.145 -0.011,0.289 -0.031,0.432 -0.019,0.144 -0.048,0.286 -0.088,0.425 -0.036,0.14 -0.083,0.278 -0.139,0.411 -0.056,0.133 -0.121,0.263 -0.195,0.387 -0.072,0.126 -0.153,0.246 -0.241,0.361 -0.088,0.114 -0.184,0.223 -0.287,0.325 -0.101,0.103 -0.21,0.199 -0.324,0.287 -0.115,0.088 -0.236,0.169 -0.361,0.24 -0.125,0.074 -0.254,0.138 -0.388,0.194 -0.133,0.056 -0.271,0.103 -0.41,0.14 -0.14,0.04 -0.282,0.07 -0.425,0.09 -0.144,0.02 -0.288,0.03 -0.432,0.029 l -49.943,0 c -0.144,-0.001 -0.289,-0.011 -0.432,-0.03 -0.144,-0.019 -0.285,-0.049 -0.425,-0.089 -0.14,-0.036 -0.277,-0.082 -0.411,-0.138 -0.133,-0.057 -0.262,-0.122 -0.387,-0.196 -0.125,-0.071 -0.246,-0.152 -0.361,-0.24 -0.114,-0.088 -0.223,-0.184 -0.324,-0.287 -0.104,-0.102 -0.199,-0.211 -0.288,-0.325 -0.088,-0.115 -0.168,-0.235 -0.24,-0.361 -0.073,-0.125 -0.138,-0.254 -0.194,-0.387 -0.056,-0.134 -0.103,-0.271 -0.14,-0.411 -0.04,-0.139 -0.07,-0.281 -0.09,-0.425 -0.02,-0.143 -0.03,-0.288 -0.029,-0.432 l 0,-49.942 c 10e-4,-0.145 0.011,-0.289 0.03,-0.433 0.02,-0.143 0.049,-0.285 0.089,-0.424 0.036,-0.14 0.082,-0.278 0.138,-0.411 0.057,-0.134 0.122,-0.263 0.196,-0.387 0.072,-0.126 0.152,-0.247 0.24,-0.361 0.089,-0.115 0.184,-0.223 0.288,-0.325 0.101,-0.103 0.21,-0.199 0.324,-0.287 0.115,-0.088 0.236,-0.169 0.361,-0.241 0.125,-0.073 0.255,-0.138 0.388,-0.194 0.133,-0.055 0.27,-0.102 0.41,-0.14 0.14,-0.039 0.282,-0.069 0.425,-0.09 0.143,-0.02 0.288,-0.03 0.432,-0.028 l 0.013,0 0.014,-10e-4 49.889,0 0.013,10e-4 0.014,0 c 0.144,0 0.288,0.01 0.432,0.03 0.143,0.019 0.285,0.049 0.425,0.088 0.14,0.036 0.277,0.083 0.41,0.139 0.134,0.056 0.263,0.121 0.388,0.195 0.125,0.072 0.246,0.153 0.36,0.241 0.115,0.088 0.224,0.184 0.325,0.287 0.103,0.102 0.199,0.21 0.288,0.325 0.088,0.114 0.168,0.235 0.24,0.361 0.073,0.124 0.138,0.254 0.194,0.387 0.056,0.134 0.103,0.271 0.14,0.411 0.04,0.139 0.07,0.281 0.09,0.425 0.02,0.143 0.03,0.287 0.029,0.432 L 0,-0.013 0,0 z" />
            <g
               style="fill:#ffffff;stroke:#000000;stroke-width:1.03055513"
               transform="translate(0.054,0)"
               id="g3569-1-11">
              <path
                 inkscape:connector-curvature="0"
                 id="path3571-4-2"
                 style="fill:#ffffff;stroke:#000000;stroke-width:1.95493245;stroke-linecap:butt;stroke-linejoin:bevel;stroke-miterlimit:22.9260006;stroke-opacity:1;stroke-dasharray:none"
                 d="M 0,0 0,-0.027 C -0.001,-0.174 -0.011,-0.32 -0.031,-0.466 -0.05,-0.612 -0.081,-0.756 -0.12,-0.897 -0.157,-1.04 -0.205,-1.179 -0.262,-1.315 -0.319,-1.45 -0.385,-1.582 -0.46,-1.708 -0.533,-1.836 -0.615,-1.958 -0.705,-2.075 -0.794,-2.192 -0.892,-2.302 -0.996,-2.405 -1.1,-2.51 -1.21,-2.608 -1.326,-2.697 c -0.117,-0.09 -0.239,-0.171 -0.367,-0.244 -0.127,-0.075 -0.258,-0.141 -0.394,-0.198 -0.136,-0.056 -0.275,-0.104 -0.417,-0.142 -0.142,-0.04 -0.286,-0.071 -0.432,-0.091 -0.145,-0.021 -0.292,-0.03 -0.439,-0.03 l -49.943,0 c -0.147,0.001 -0.294,0.012 -0.439,0.031 -0.146,0.02 -0.29,0.05 -0.432,0.09 -0.142,0.037 -0.282,0.084 -0.418,0.141 -0.135,0.057 -0.266,0.123 -0.392,0.199 -0.128,0.073 -0.251,0.155 -0.367,0.244 -0.117,0.09 -0.227,0.187 -0.331,0.292 -0.104,0.103 -0.202,0.213 -0.291,0.33 -0.09,0.116 -0.172,0.239 -0.245,0.367 -0.074,0.126 -0.14,0.258 -0.197,0.393 -0.057,0.136 -0.104,0.275 -0.142,0.418 -0.041,0.141 -0.071,0.285 -0.092,0.431 -0.02,0.146 -0.03,0.293 -0.029,0.439 l 0,49.943 c 10e-4,0.147 0.011,0.294 0.031,0.44 0.02,0.145 0.05,0.289 0.09,0.431 0.036,0.143 0.084,0.282 0.141,0.418 0.057,0.135 0.123,0.267 0.198,0.393 0.073,0.128 0.155,0.25 0.245,0.367 0.089,0.116 0.187,0.227 0.291,0.33 0.104,0.105 0.214,0.202 0.331,0.292 0.116,0.09 0.239,0.171 0.367,0.244 0.126,0.075 0.257,0.141 0.393,0.197 0.136,0.057 0.275,0.105 0.417,0.143 0.142,0.04 0.286,0.07 0.432,0.091 0.145,0.021 0.292,0.03 0.439,0.029 l 49.943,0 c 0.147,-10e-4 0.294,-0.011 0.439,-0.031 0.146,-0.019 0.29,-0.049 0.432,-0.089 0.142,-0.037 0.282,-0.084 0.417,-0.142 0.136,-0.057 0.267,-0.123 0.394,-0.198 0.127,-0.073 0.25,-0.155 0.367,-0.244 0.116,-0.09 0.226,-0.187 0.33,-0.292 0.105,-0.103 0.202,-0.214 0.292,-0.33 0.089,-0.117 0.171,-0.239 0.244,-0.367 0.075,-0.127 0.14,-0.258 0.197,-0.394 0.057,-0.135 0.104,-0.275 0.143,-0.417 0.039,-0.142 0.07,-0.286 0.091,-0.432 C -0.009,50.21 0.001,50.063 0,49.916 L 0,0 z" />
            </g>
          </g>
          <g
             style="fill:#003399;fill-opacity:1"
             transform="matrix(1.25,0,0,-1.25,382.39563,563.54286)"
             id="g3573-16-2">
            <path
               inkscape:connector-curvature="0"
               id="path3575-1-8"
               style="fill:#003399;fill-opacity:1;fill-rule:evenodd;stroke:none"
               d="m 0,0 0,-0.008 c 0,-0.042 -0.003,-0.084 -0.009,-0.125 -0.005,-0.042 -0.014,-0.083 -0.026,-0.124 -0.01,-0.04 -0.024,-0.08 -0.04,-0.119 -0.016,-0.038 -0.035,-0.076 -0.057,-0.112 -0.021,-0.037 -0.044,-0.072 -0.07,-0.105 -0.025,-0.033 -0.053,-0.065 -0.083,-0.094 -0.029,-0.03 -0.061,-0.058 -0.094,-0.084 -0.033,-0.025 -0.068,-0.048 -0.105,-0.069 -0.036,-0.022 -0.074,-0.04 -0.112,-0.057 -0.039,-0.016 -0.079,-0.03 -0.119,-0.04 -0.041,-0.012 -0.082,-0.021 -0.124,-0.026 -0.041,-0.006 -0.083,-0.009 -0.125,-0.009 l -0.008,0 -49.89,0 -0.007,0 c -0.042,0 -0.084,0.003 -0.126,0.009 -0.041,0.005 -0.083,0.014 -0.123,0.026 -0.041,0.01 -0.081,0.024 -0.119,0.04 -0.039,0.016 -0.077,0.035 -0.113,0.057 -0.036,0.021 -0.071,0.044 -0.104,0.07 -0.034,0.025 -0.065,0.053 -0.095,0.083 -0.03,0.029 -0.058,0.061 -0.083,0.094 -0.026,0.033 -0.049,0.068 -0.07,0.105 -0.021,0.036 -0.04,0.074 -0.057,0.112 -0.016,0.039 -0.029,0.079 -0.04,0.119 -0.011,0.041 -0.02,0.082 -0.026,0.124 -0.006,0.041 -0.009,0.083 -0.008,0.125 l 0,49.905 c 0,0.042 0.002,0.084 0.008,0.126 0.006,0.041 0.015,0.083 0.026,0.123 0.01,0.041 0.024,0.081 0.04,0.119 0.017,0.039 0.036,0.077 0.057,0.113 0.021,0.036 0.044,0.071 0.07,0.104 0.025,0.034 0.053,0.065 0.083,0.095 0.03,0.03 0.061,0.058 0.095,0.083 0.033,0.026 0.068,0.049 0.104,0.07 0.036,0.021 0.074,0.04 0.113,0.057 0.038,0.016 0.078,0.029 0.119,0.04 0.04,0.012 0.082,0.02 0.123,0.026 0.042,0.006 0.084,0.009 0.126,0.008 l 49.905,0 c 0.042,0 0.084,-0.002 0.125,-0.008 0.042,-0.006 0.083,-0.014 0.124,-0.026 0.04,-0.01 0.08,-0.024 0.119,-0.04 0.038,-0.016 0.076,-0.035 0.112,-0.057 0.037,-0.021 0.072,-0.044 0.105,-0.07 0.033,-0.025 0.065,-0.053 0.094,-0.083 0.03,-0.03 0.058,-0.061 0.084,-0.095 0.025,-0.033 0.048,-0.068 0.069,-0.104 0.022,-0.036 0.04,-0.074 0.057,-0.113 0.016,-0.038 0.03,-0.078 0.04,-0.119 0.012,-0.04 0.021,-0.082 0.027,-0.123 C -0.003,49.981 0,49.939 0,49.897 L 0,49.89 0,0" />
          </g>
          <path
             inkscape:connector-curvature="0"
             id="path4079-0-5"
             style="fill:#ffffff;fill-opacity:1;fill-rule:nonzero;stroke:none"
             d="m 316.78397,536.96561 38.17655,0 0,-10.05006 -38.17654,0 0,10.05006 z" />
          <path
             inkscape:connector-curvature="0"
             id="path4081-2-3"
             style="fill:#ffffff;fill-opacity:1;fill-rule:nonzero;stroke:none"
             d="m 350.26011,530.19584 0,4.2397 33.50003,0 0,-4.2397 -33.50003,0 z" />
        </g>
      </g>
      <path
         inkscape:connector-curvature="0"
         id="path4079-0-4-4"
         style="fill:#ffffff;fill-opacity:1;fill-rule:nonzero;stroke:none;display:inline"
         d="m 88.236061,64.260568 -30,0 0,-8.47673 29.99999,0 0,8.47673 z" />
      <path
         inkscape:connector-curvature="0"
         id="path4081-2-3-5"
         style="fill:#ffffff;fill-opacity:1;fill-rule:nonzero;stroke:none;display:inline"
         d="m 59.588379,58.190875 0,3.575978 -28.255594,0 0,-3.575978 28.255594,0 z" />
    </g>
  </g>
</svg>
