<?xml version="1.0" encoding="UTF-8" standalone="no"?>
<!-- Created with Inkscape (http://www.inkscape.org/) -->

<svg
   xmlns:dc="http://purl.org/dc/elements/1.1/"
   xmlns:cc="http://creativecommons.org/ns#"
   xmlns:rdf="http://www.w3.org/1999/02/22-rdf-syntax-ns#"
   xmlns:svg="http://www.w3.org/2000/svg"
   xmlns="http://www.w3.org/2000/svg"
   xmlns:sodipodi="http://sodipodi.sourceforge.net/DTD/sodipodi-0.dtd"
   xmlns:inkscape="http://www.inkscape.org/namespaces/inkscape"
   width="80"
   height="60"
   id="svg2"
   version="1.1"
   inkscape:version="0.48.2 r9819"
   sodipodi:docname="Notice_E5_2.svg"
   style="display:inline"
   inkscape:export-filename="/Users/mherring/boatsw/oseam/openseamap/josm/icons/WindSurfing16.png"
   inkscape:export-xdpi="12"
   inkscape:export-ydpi="12">
  <defs
     id="defs4" />
  <sodipodi:namedview
     id="base"
     pagecolor="#ffffff"
     bordercolor="#666666"
     borderopacity="1.0"
     inkscape:pageopacity="0.0"
     inkscape:pageshadow="2"
     inkscape:zoom="5.3032952"
     inkscape:cx="14.367998"
     inkscape:cy="59.084222"
     inkscape:document-units="px"
     inkscape:current-layer="layer8"
     showgrid="true"
     inkscape:window-width="1920"
     inkscape:window-height="1088"
     inkscape:window-x="0"
     inkscape:window-y="0"
     inkscape:window-maximized="1"
     inkscape:snap-global="false">
    <inkscape:grid
       type="xygrid"
       id="grid3004"
       empspacing="5"
       visible="true"
       enabled="true"
       snapvisiblegridlinesonly="true" />
  </sodipodi:namedview>
  <metadata
     id="metadata7">
    <rdf:RDF>
      <cc:Work
         rdf:about="">
        <dc:format>image/svg+xml</dc:format>
        <dc:type
           rdf:resource="http://purl.org/dc/dcmitype/StillImage" />
        <dc:title />
      </cc:Work>
    </rdf:RDF>
  </metadata>
  <g
     inkscape:groupmode="layer"
     id="layer8"
     inkscape:label="E5.2"
     style="display:inline"
     transform="translate(0,-60)">
    <g
       transform="matrix(0.97890646,0,0,0.97183825,274.93763,244.58689)"
       id="layer1-2"
       inkscape:label="Ebene 1">
      <g
         transform="matrix(1.1243779,0,0,1.2432136,29.850715,38.687144)"
         id="g3068">
        <path
           id="path17949"
           style="fill:none;stroke:#231f20;stroke-width:0.27681923;stroke-linecap:butt;stroke-linejoin:bevel;stroke-miterlimit:22.9260006;stroke-opacity:1;stroke-dasharray:none"
           d="m -272.09565,-135.11014 64.2175,0 c 0.14125,-0.001 0.28375,-0.0112 0.425,-0.03 0.14,-0.0188 0.28,-0.0475 0.4175,-0.0863 0.1375,-0.0362 0.2725,-0.0812 0.40375,-0.1375 0.13125,-0.055 0.25875,-0.11875 0.38,-0.19125 0.12375,-0.0712 0.2425,-0.15 0.355,-0.23625 0.11375,-0.0875 0.22,-0.18125 0.32,-0.2825 0.10125,-0.1 0.19625,-0.2075 0.2825,-0.32 0.0863,-0.1125 0.16625,-0.23125 0.23625,-0.355 0.0725,-0.1225 0.13625,-0.25 0.19125,-0.38 0.055,-0.1325 0.1,-0.2675 0.1375,-0.405 0.0388,-0.13625 0.0688,-0.27625 0.0888,-0.4175 0.02,-0.14 0.0288,-0.2825 0.0275,-0.425 l 0,-41.3825 c 0,-0.14125 -0.01,-0.28375 -0.0288,-0.42375 -0.02,-0.14125 -0.0487,-0.28125 -0.0875,-0.41875 -0.035,-0.1375 -0.0812,-0.2725 -0.13625,-0.40375 -0.055,-0.13125 -0.12,-0.2575 -0.1925,-0.38 -0.0712,-0.12375 -0.15,-0.2425 -0.23625,-0.355 -0.0863,-0.1125 -0.18125,-0.22 -0.2825,-0.32 -0.1,-0.10125 -0.20625,-0.195 -0.32,-0.2825 -0.1125,-0.0863 -0.23125,-0.165 -0.355,-0.23625 -0.12125,-0.0725 -0.24875,-0.135 -0.38,-0.19 -0.13125,-0.055 -0.26625,-0.10125 -0.40375,-0.13875 -0.1375,-0.0388 -0.2775,-0.0688 -0.4175,-0.0888 -0.14125,-0.0188 -0.28375,-0.0288 -0.425,-0.0275 l -64.24375,0 c -0.14125,0 -0.28375,0.01 -0.42375,0.03 -0.14125,0.0187 -0.28125,0.0475 -0.41875,0.0863 -0.1375,0.0362 -0.2725,0.0812 -0.40375,0.13625 -0.13125,0.0563 -0.25875,0.12 -0.38125,0.1925 -0.1225,0.0712 -0.24125,0.15 -0.35375,0.23625 -0.11375,0.0875 -0.22,0.18125 -0.32,0.2825 -0.10125,0.1 -0.19625,0.2075 -0.2825,0.32 -0.0863,0.1125 -0.16625,0.23125 -0.23625,0.355 -0.0725,0.1225 -0.13625,0.24875 -0.19125,0.38 -0.055,0.13125 -0.1,0.26625 -0.1375,0.40375 -0.0387,0.1375 -0.0688,0.2775 -0.0888,0.41875 -0.02,0.14 -0.0288,0.2825 -0.0275,0.42375 l 0,41.3825 c 0.001,0.1425 0.01,0.285 0.0288,0.425 0.02,0.14125 0.0488,0.28125 0.0875,0.4175 0.0362,0.13875 0.0813,0.27375 0.13625,0.405 0.0563,0.13125 0.12,0.2575 0.1925,0.38 0.0712,0.12375 0.15,0.2425 0.23625,0.355 0.0863,0.1125 0.18125,0.22 0.2825,0.32 0.1,0.10125 0.20625,0.195 0.32,0.2825 0.1125,0.0863 0.23,0.165 0.35375,0.23625 0.1225,0.0725 0.25,0.13625 0.38125,0.19 0.13125,0.055 0.26625,0.10125 0.40375,0.13875 0.1375,0.0388 0.2775,0.0675 0.41875,0.0875 0.14,0.02 0.2825,0.03 0.42375,0.0288 l 0.0263,0 z"
           inkscape:connector-curvature="0" />
        <path
           d="m -272.09565,-135.06389 -0.0263,0 c -0.14375,-0.001 -0.2875,-0.0113 -0.43125,-0.03 -0.1425,-0.02 -0.28375,-0.0488 -0.4225,-0.0888 -0.14,-0.0362 -0.2775,-0.0825 -0.41,-0.13875 -0.1325,-0.055 -0.2625,-0.12 -0.38625,-0.19375 -0.125,-0.0725 -0.245,-0.1525 -0.36,-0.24 -0.11375,-0.0875 -0.2225,-0.18375 -0.32375,-0.28625 -0.1025,-0.10125 -0.19875,-0.21 -0.28625,-0.32375 -0.0875,-0.115 -0.16875,-0.235 -0.24,-0.36 -0.0725,-0.12375 -0.1375,-0.25375 -0.1925,-0.38625 -0.0563,-0.1325 -0.1025,-0.27 -0.14,-0.41 -0.04,-0.13875 -0.07,-0.28 -0.09,-0.42375 -0.02,-0.1425 -0.03,-0.28625 -0.0288,-0.43 l 0,-41.3825 c 10e-4,-0.14375 0.0113,-0.28875 0.03,-0.43125 0.02,-0.14375 0.0487,-0.285 0.0888,-0.42375 0.0362,-0.13875 0.0825,-0.27625 0.13875,-0.41 0.055,-0.1325 0.12,-0.26125 0.19375,-0.385 0.0725,-0.125 0.1525,-0.24625 0.24,-0.36 0.0875,-0.11375 0.18375,-0.2225 0.28625,-0.32375 0.10125,-0.1025 0.21,-0.19875 0.32375,-0.28625 0.115,-0.0887 0.235,-0.16875 0.36,-0.24 0.12375,-0.0725 0.25375,-0.1375 0.38625,-0.19375 0.13375,-0.055 0.27,-0.1025 0.41,-0.14 0.13875,-0.0387 0.28,-0.0687 0.42375,-0.0888 0.1425,-0.02 0.28625,-0.03 0.43,-0.0288 l 64.24375,0 c 0.14375,0 0.2875,0.01 0.43125,0.03 0.1425,0.0188 0.28375,0.0488 0.4225,0.0875 0.14,0.0375 0.2775,0.0825 0.41,0.13875 0.1325,0.0562 0.2625,0.12125 0.38625,0.195 0.125,0.0712 0.245,0.15125 0.36,0.24 0.11375,0.0875 0.2225,0.18375 0.32375,0.28625 0.1025,0.10125 0.19875,0.21 0.28625,0.32375 0.0875,0.11375 0.1675,0.235 0.24,0.36 0.0725,0.12375 0.1375,0.2525 0.1925,0.385 0.0563,0.13375 0.1025,0.27125 0.14,0.41 0.04,0.13875 0.07,0.28125 0.09,0.42375 0.02,0.1425 0.03,0.2875 0.0288,0.43125 l 0,41.3825 c -0.001,0.14375 -0.0113,0.2875 -0.03,0.43125 -0.02,0.1425 -0.0488,0.28375 -0.0888,0.4225 -0.0362,0.14 -0.0825,0.2775 -0.13875,0.41 -0.055,0.13375 -0.12,0.2625 -0.19375,0.38625 -0.0725,0.125 -0.1525,0.245 -0.24,0.36 -0.0875,0.11375 -0.18375,0.2225 -0.28625,0.32375 -0.10125,0.1025 -0.21,0.19875 -0.32375,0.28625 -0.115,0.0888 -0.235,0.16875 -0.36,0.24 -0.12375,0.0725 -0.25375,0.1375 -0.38625,0.1925 -0.1325,0.0563 -0.27,0.1025 -0.41,0.14 -0.13875,0.04 -0.28,0.07 -0.42375,0.09 -0.1425,0.02 -0.28625,0.03 -0.43,0.0288 l -64.2175,0 z"
           style="fill:#ffffff;stroke:#000000;stroke-width:1.73433673;stroke-linecap:butt;stroke-linejoin:bevel;stroke-miterlimit:22.9260006;stroke-opacity:1;stroke-dasharray:none"
           id="path17953"
           inkscape:connector-curvature="0" />
        <path
           id="path17957"
           style="fill:#003399;fill-opacity:1;fill-rule:evenodd;stroke:none"
           d="m -273.37565,-137.12139 0,-41.99875 0,-0.025 0,-0.025 c 0.001,-0.0825 0.006,-0.165 0.0138,-0.24625 0.007,-0.0812 0.0188,-0.1625 0.0337,-0.24125 0.0138,-0.08 0.03,-0.1575 0.0512,-0.2325 0.02,-0.075 0.0437,-0.14875 0.07,-0.21875 0.025,-0.07 0.0538,-0.1375 0.0863,-0.2025 0.0312,-0.0637 0.065,-0.125 0.10125,-0.18125 0.0362,-0.0575 0.0738,-0.11 0.115,-0.15875 0.04,-0.0488 0.0825,-0.0925 0.12625,-0.13125 0.0437,-0.04 0.0888,-0.075 0.135,-0.105 0.0475,-0.0288 0.095,-0.0538 0.14375,-0.0725 0.04,-0.0163 0.0787,-0.0288 0.11875,-0.0375 0.04,-0.008 0.0813,-0.0125 0.12125,-0.0138 l 0.0138,0 64.49375,0 0.0137,0 c 0.05,0.001 0.1,0.009 0.15,0.0225 0.0487,0.0125 0.0975,0.0312 0.14625,0.055 0.0475,0.0225 0.0937,0.05 0.14,0.085 0.045,0.0325 0.09,0.0713 0.1325,0.115 0.0425,0.0425 0.0825,0.0913 0.1225,0.1425 0.0387,0.0525 0.075,0.10875 0.10875,0.16875 0.035,0.06 0.0662,0.12375 0.0962,0.19 0.0288,0.0662 0.055,0.1375 0.0787,0.21 0.025,0.0725 0.0463,0.1475 0.0637,0.22375 0.0175,0.0775 0.0325,0.15625 0.0438,0.2375 0.01,0.065 0.0175,0.13 0.0225,0.19625 0.005,0.0662 0.009,0.13375 0.009,0.2 l 0,0.0225 0,42.02125 -66.75125,0"
           inkscape:connector-curvature="0" />
        <g
           transform="scale(0.77778684,1.2856993)"
           style="font-size:11.66680241px;fill:#ffffff"
           id="text17959" />
      </g>
    </g>
  </g>
</svg>
