<?xml version="1.0" encoding="UTF-8" standalone="no"?>
<!-- Created with Inkscape (http://www.inkscape.org/) -->

<svg
   xmlns:dc="http://purl.org/dc/elements/1.1/"
   xmlns:cc="http://creativecommons.org/ns#"
   xmlns:rdf="http://www.w3.org/1999/02/22-rdf-syntax-ns#"
   xmlns:svg="http://www.w3.org/2000/svg"
   xmlns="http://www.w3.org/2000/svg"
   xmlns:sodipodi="http://sodipodi.sourceforge.net/DTD/sodipodi-0.dtd"
   xmlns:inkscape="http://www.inkscape.org/namespaces/inkscape"
   width="60"
   height="60"
   id="svg2"
   version="1.1"
   inkscape:version="0.48.2 r9819"
   sodipodi:docname="Notice_E17.svg"
   style="display:inline"
   inkscape:export-filename="/Users/mherring/boatsw/oseam/openseamap/josm/icons/WindSurfing16.png"
   inkscape:export-xdpi="12"
   inkscape:export-ydpi="12">
  <defs
     id="defs4" />
  <sodipodi:namedview
     id="base"
     pagecolor="#ffffff"
     bordercolor="#666666"
     borderopacity="1.0"
     inkscape:pageopacity="0.0"
     inkscape:pageshadow="2"
     inkscape:zoom="5.3032952"
     inkscape:cx="14.367998"
     inkscape:cy="59.084222"
     inkscape:document-units="px"
     inkscape:current-layer="layer47"
     showgrid="true"
     inkscape:window-width="1920"
     inkscape:window-height="1088"
     inkscape:window-x="0"
     inkscape:window-y="0"
     inkscape:window-maximized="1"
     inkscape:snap-global="false">
    <inkscape:grid
       type="xygrid"
       id="grid3004"
       empspacing="5"
       visible="true"
       enabled="true"
       snapvisiblegridlinesonly="true" />
  </sodipodi:namedview>
  <metadata
     id="metadata7">
    <rdf:RDF>
      <cc:Work
         rdf:about="">
        <dc:format>image/svg+xml</dc:format>
        <dc:type
           rdf:resource="http://purl.org/dc/dcmitype/StillImage" />
        <dc:title />
      </cc:Work>
    </rdf:RDF>
  </metadata>
  <g
     inkscape:groupmode="layer"
     id="layer47"
     inkscape:label="E17"
     style="display:inline"
     transform="translate(0,-60)">
    <g
       transform="matrix(0.97035078,0,0,0.97033378,-69.807477,83.549289)"
       id="layer1-86"
       inkscape:label="Ebene 1">
      <g
         transform="matrix(0.84346453,0,0,0.84346453,16.100791,1.0406317)"
         id="g2929">
        <g
           id="g3549"
           transform="matrix(0,1.25,1.25,0,71.675889,42.013522)"
           style="fill:#ffffff;stroke:#000000;stroke-width:1.03056431">
          <path
             d="m 0,0 0,49.916 c -0.001,0.144 -0.011,0.289 -0.03,0.432 -0.02,0.144 -0.049,0.286 -0.088,0.425 -0.037,0.14 -0.083,0.278 -0.139,0.411 -0.056,0.133 -0.122,0.263 -0.196,0.387 -0.072,0.126 -0.152,0.246 -0.24,0.361 -0.088,0.114 -0.184,0.223 -0.287,0.325 -0.102,0.103 -0.211,0.199 -0.325,0.287 -0.115,0.088 -0.235,0.169 -0.361,0.24 -0.125,0.074 -0.254,0.138 -0.388,0.194 -0.133,0.056 -0.27,0.103 -0.41,0.14 -0.14,0.04 -0.282,0.07 -0.425,0.09 -0.143,0.02 -0.288,0.03 -0.432,0.029 l -49.942,0 c -0.145,-0.001 -0.289,-0.011 -0.433,-0.03 -0.143,-0.019 -0.285,-0.049 -0.424,-0.089 -0.14,-0.036 -0.278,-0.082 -0.411,-0.138 -0.134,-0.057 -0.263,-0.122 -0.387,-0.196 -0.126,-0.072 -0.246,-0.152 -0.361,-0.24 -0.115,-0.088 -0.223,-0.184 -0.325,-0.287 -0.103,-0.102 -0.199,-0.211 -0.287,-0.325 -0.089,-0.115 -0.169,-0.235 -0.241,-0.361 -0.073,-0.125 -0.138,-0.254 -0.194,-0.388 -0.055,-0.133 -0.102,-0.27 -0.14,-0.41 -0.039,-0.139 -0.069,-0.281 -0.089,-0.425 -0.021,-0.143 -0.03,-0.288 -0.03,-0.432 l 0,-49.942 c 10e-4,-0.145 0.011,-0.289 0.031,-0.432 0.019,-0.144 0.049,-0.286 0.088,-0.425 0.036,-0.14 0.083,-0.278 0.139,-0.411 0.056,-0.133 0.121,-0.263 0.195,-0.387 0.072,-0.126 0.153,-0.246 0.241,-0.361 0.088,-0.115 0.184,-0.223 0.287,-0.325 0.102,-0.103 0.21,-0.199 0.325,-0.287 0.115,-0.089 0.235,-0.169 0.361,-0.241 0.124,-0.073 0.254,-0.138 0.387,-0.194 0.134,-0.055 0.271,-0.102 0.411,-0.14 0.139,-0.039 0.281,-0.069 0.424,-0.089 0.144,-0.021 0.288,-0.03 0.433,-0.029 l 49.942,0 c 0.144,0 0.289,0.011 0.432,0.03 0.144,0.019 0.286,0.049 0.425,0.088 0.14,0.036 0.277,0.083 0.411,0.139 0.133,0.056 0.262,0.122 0.387,0.195 0.125,0.072 0.246,0.153 0.361,0.241 0.114,0.088 0.223,0.184 0.325,0.287 0.103,0.102 0.199,0.21 0.287,0.325 0.088,0.114 0.168,0.235 0.24,0.361 0.074,0.124 0.138,0.254 0.194,0.387 0.056,0.134 0.103,0.271 0.141,0.411 0.039,0.139 0.069,0.281 0.089,0.425 0.02,0.143 0.03,0.287 0.029,0.432 L 0,0 z"
             style="fill:#ffffff;stroke:#000000;stroke-width:0.22260186;stroke-linecap:butt;stroke-linejoin:bevel;stroke-miterlimit:22.9260006;stroke-opacity:1;stroke-dasharray:none"
             id="path3551"
             inkscape:connector-curvature="0" />
          <g
             id="g3553"
             transform="translate(0.054,0)"
             style="fill:#ffffff;stroke:#000000;stroke-width:1.03056431">
            <path
               d="M 0,0 0,-0.013 0,-0.027 C -0.001,-0.173 -0.011,-0.32 -0.031,-0.466 -0.05,-0.612 -0.081,-0.756 -0.121,-0.897 -0.158,-1.04 -0.205,-1.18 -0.262,-1.315 -0.319,-1.45 -0.385,-1.582 -0.46,-1.708 -0.534,-1.836 -0.615,-1.958 -0.705,-2.075 -0.794,-2.192 -0.892,-2.302 -0.996,-2.405 -1.1,-2.51 -1.21,-2.608 -1.326,-2.697 c -0.117,-0.09 -0.24,-0.171 -0.367,-0.244 -0.127,-0.075 -0.258,-0.141 -0.394,-0.197 -0.136,-0.057 -0.275,-0.105 -0.417,-0.143 -0.142,-0.04 -0.286,-0.071 -0.432,-0.091 -0.145,-0.02 -0.292,-0.03 -0.439,-0.029 l -0.013,0 -49.917,0 -0.013,0 c -0.147,0 -0.294,0.011 -0.439,0.03 -0.146,0.02 -0.29,0.05 -0.431,0.09 -0.143,0.037 -0.283,0.084 -0.419,0.141 -0.135,0.057 -0.266,0.124 -0.392,0.199 -0.128,0.073 -0.251,0.155 -0.367,0.244 -0.117,0.09 -0.227,0.187 -0.331,0.292 -0.104,0.103 -0.202,0.213 -0.291,0.33 -0.09,0.116 -0.172,0.239 -0.245,0.367 -0.074,0.126 -0.14,0.258 -0.197,0.393 -0.057,0.136 -0.104,0.275 -0.142,0.418 -0.041,0.141 -0.071,0.286 -0.092,0.431 -0.02,0.146 -0.03,0.293 -0.029,0.439 l 0,49.943 c 10e-4,0.147 0.011,0.294 0.031,0.44 0.02,0.145 0.05,0.29 0.09,0.431 0.037,0.143 0.084,0.282 0.141,0.418 0.057,0.135 0.123,0.267 0.198,0.393 0.074,0.128 0.155,0.25 0.245,0.367 0.089,0.116 0.187,0.227 0.291,0.33 0.104,0.105 0.214,0.202 0.331,0.292 0.116,0.09 0.239,0.171 0.367,0.244 0.126,0.075 0.257,0.141 0.393,0.197 0.136,0.057 0.275,0.105 0.418,0.143 0.141,0.04 0.285,0.07 0.431,0.091 0.145,0.021 0.292,0.03 0.439,0.029 l 49.943,0 c 0.147,0 0.294,-0.011 0.439,-0.031 0.146,-0.019 0.29,-0.049 0.432,-0.089 0.142,-0.037 0.282,-0.085 0.417,-0.142 0.136,-0.057 0.267,-0.123 0.394,-0.198 0.127,-0.073 0.25,-0.155 0.366,-0.244 0.117,-0.09 0.227,-0.187 0.331,-0.292 0.105,-0.103 0.202,-0.214 0.292,-0.33 0.089,-0.117 0.171,-0.239 0.244,-0.367 0.074,-0.127 0.14,-0.258 0.197,-0.394 0.057,-0.135 0.104,-0.275 0.142,-0.417 0.04,-0.141 0.071,-0.286 0.092,-0.431 0.02,-0.146 0.03,-0.293 0.029,-0.44 L 0,49.903 0,0 z"
               style="fill:#ffffff;stroke:#000000;stroke-width:1.95491636;stroke-linecap:butt;stroke-linejoin:bevel;stroke-miterlimit:22.9260006;stroke-opacity:1;stroke-dasharray:none"
               id="path3555"
               inkscape:connector-curvature="0" />
          </g>
        </g>
        <g
           id="g3545"
           transform="matrix(0,1.25,1.25,0,71.675889,39.043522)"
           style="fill:#003399;fill-opacity:1">
          <path
             d="M 0,0 0,-0.008 C 0,-0.05 -0.003,-0.092 -0.009,-0.133 -0.014,-0.175 -0.023,-0.216 -0.034,-0.256 -0.045,-0.297 -0.058,-0.337 -0.075,-0.376 -0.091,-0.414 -0.11,-0.452 -0.131,-0.488 -0.152,-0.524 -0.175,-0.56 -0.201,-0.593 -0.227,-0.626 -0.255,-0.658 -0.285,-0.687 -0.314,-0.717 -0.346,-0.745 -0.379,-0.77 -0.412,-0.796 -0.447,-0.819 -0.484,-0.84 -0.52,-0.862 -0.557,-0.88 -0.596,-0.896 -0.635,-0.913 -0.675,-0.926 -0.715,-0.937 -0.756,-0.949 -0.797,-0.958 -0.839,-0.964 -0.88,-0.969 -0.922,-0.972 -0.964,-0.972 l -49.905,0 c -0.042,0.001 -0.084,0.003 -0.125,0.009 -0.042,0.006 -0.083,0.014 -0.124,0.026 -0.041,0.01 -0.08,0.024 -0.119,0.04 -0.039,0.016 -0.076,0.035 -0.113,0.057 -0.036,0.021 -0.071,0.044 -0.104,0.07 -0.034,0.025 -0.065,0.053 -0.095,0.083 -0.029,0.029 -0.057,0.061 -0.083,0.094 -0.025,0.033 -0.049,0.068 -0.069,0.105 -0.022,0.036 -0.041,0.074 -0.057,0.112 -0.016,0.039 -0.03,0.079 -0.041,0.12 -0.011,0.04 -0.02,0.081 -0.026,0.123 -0.006,0.041 -0.008,0.083 -0.008,0.125 l 0,49.905 c 0,0.042 0.003,0.084 0.008,0.126 0.006,0.041 0.015,0.083 0.026,0.123 0.011,0.041 0.024,0.081 0.04,0.119 0.017,0.039 0.036,0.077 0.058,0.113 0.02,0.036 0.044,0.071 0.069,0.104 0.026,0.034 0.054,0.065 0.083,0.095 0.03,0.03 0.061,0.057 0.095,0.083 0.033,0.026 0.068,0.049 0.104,0.07 0.037,0.021 0.074,0.04 0.113,0.056 0.039,0.017 0.078,0.03 0.119,0.041 0.041,0.012 0.082,0.02 0.124,0.026 0.041,0.006 0.083,0.009 0.125,0.009 l 49.905,0 c 0.042,0 0.084,-0.004 0.125,-0.009 0.042,-0.006 0.083,-0.014 0.124,-0.026 0.04,-0.01 0.08,-0.024 0.119,-0.04 0.039,-0.016 0.076,-0.035 0.112,-0.057 0.037,-0.021 0.072,-0.044 0.105,-0.07 0.033,-0.026 0.065,-0.053 0.094,-0.083 0.03,-0.03 0.058,-0.061 0.084,-0.095 0.026,-0.033 0.049,-0.068 0.07,-0.104 0.021,-0.036 0.04,-0.074 0.056,-0.113 0.016,-0.038 0.03,-0.078 0.041,-0.119 0.011,-0.04 0.02,-0.082 0.026,-0.123 C -0.003,49.981 0,49.939 0,49.897 L 0,0"
             style="fill:#003399;fill-opacity:1;fill-rule:evenodd;stroke:none"
             id="path3547"
             inkscape:connector-curvature="0" />
        </g>
        <g
           id="g3557"
           transform="matrix(0,1.25,1.25,0,113.48589,28.751022)">
          <path
             d="m 0,0 -0.972,7.262 c -0.001,0.093 -0.015,0.185 -0.042,0.274 -0.035,0.136 -0.073,0.271 -0.114,0.406 -0.076,0.265 -0.164,0.527 -0.261,0.785 -0.088,0.226 -0.192,0.445 -0.313,0.655 -0.126,0.225 -0.267,0.443 -0.422,0.65 -0.155,0.209 -0.324,0.406 -0.506,0.592 -0.045,0.047 -0.092,0.094 -0.139,0.14 -0.05,0.048 -0.101,0.096 -0.152,0.143 -0.162,0.15 -0.33,0.294 -0.502,0.433 -0.117,0.105 -0.251,0.192 -0.394,0.258 -0.024,0.011 -0.045,0.026 -0.064,0.045 -0.02,0.019 -0.04,0.039 -0.059,0.06 -0.024,0.027 -0.047,0.054 -0.07,0.082 -0.022,0.026 -0.042,0.055 -0.061,0.085 -0.018,0.029 -0.035,0.06 -0.048,0.093 -0.014,0.033 -0.026,0.066 -0.035,0.101 -0.01,0.034 -0.017,0.069 -0.022,0.103 -0.005,0.035 -0.008,0.071 -0.009,0.106 0,0.035 0.002,0.071 0.006,0.106 0.004,0.035 0.01,0.07 0.019,0.104 0.009,0.034 0.02,0.068 0.033,0.101 0.013,0.033 0.028,0.064 0.046,0.095 0.017,0.031 0.036,0.061 0.057,0.089 0.021,0.029 0.044,0.055 0.069,0.081 0.025,0.025 0.051,0.049 0.079,0.071 0.028,0.022 0.057,0.042 0.087,0.06 0.031,0.018 0.062,0.034 0.094,0.048 0.033,0.014 0.066,0.026 0.101,0.035 0.034,0.01 0.069,0.018 0.104,0.023 0.035,0.005 0.07,0.007 0.105,0.007 0.035,10e-4 0.069,-10e-4 0.104,-0.006 0.036,-0.004 0.071,-0.01 0.106,-0.018 0.046,-0.01 0.091,-0.023 0.134,-0.04 0.041,-0.016 0.078,-0.04 0.109,-0.071 l 0.043,-0.032 0.044,-0.032 c 0.213,-0.158 0.424,-0.318 0.634,-0.481 0.209,-0.163 0.41,-0.336 0.602,-0.519 0.241,-0.224 0.464,-0.467 0.667,-0.727 0.204,-0.261 0.389,-0.536 0.554,-0.822 0.17,-0.284 0.321,-0.579 0.451,-0.882 C 0.194,9.16 0.303,8.849 0.391,8.531 0.436,8.376 0.477,8.219 0.514,8.061 0.551,7.903 0.587,7.745 0.621,7.586 l 3.294,-24.324 -1.62,0 -1.35,10.259 -8.337,-5.518 c -0.035,-0.021 -0.07,-0.043 -0.103,-0.069 -0.045,-0.033 -0.09,-0.068 -0.134,-0.104 -0.064,-0.051 -0.127,-0.105 -0.188,-0.161 -0.053,-0.048 -0.104,-0.098 -0.155,-0.15 -0.105,-0.105 -0.203,-0.216 -0.294,-0.335 -0.109,-0.145 -0.208,-0.297 -0.296,-0.455 -0.058,-0.099 -0.112,-0.2 -0.164,-0.302 -0.035,-0.06 -0.06,-0.127 -0.075,-0.195 l -2.025,-7.316 c -0.005,-0.023 -0.012,-0.044 -0.02,-0.066 -0.009,-0.025 -0.019,-0.05 -0.028,-0.074 -0.041,-0.106 -0.084,-0.211 -0.13,-0.314 -0.043,-0.097 -0.09,-0.193 -0.142,-0.286 -0.077,-0.143 -0.165,-0.281 -0.263,-0.411 -0.1,-0.134 -0.209,-0.261 -0.327,-0.379 -0.116,-0.121 -0.24,-0.233 -0.371,-0.336 -0.128,-0.1 -0.263,-0.192 -0.404,-0.275 -0.036,-0.022 -0.073,-0.044 -0.11,-0.064 -0.038,-0.022 -0.077,-0.043 -0.116,-0.063 -0.019,-0.01 -0.039,-0.02 -0.059,-0.029 -0.018,-0.009 -0.036,-0.017 -0.054,-0.025 l -14.255,-6.344 c -0.036,-0.038 -0.077,-0.07 -0.122,-0.098 -0.049,-0.03 -0.099,-0.058 -0.15,-0.084 -0.084,-0.045 -0.171,-0.087 -0.258,-0.127 -0.084,-0.038 -0.171,-0.07 -0.26,-0.096 -0.09,-0.027 -0.182,-0.047 -0.274,-0.06 -0.094,-0.013 -0.189,-0.02 -0.284,-0.021 -0.094,-10e-4 -0.189,0.003 -0.283,0.015 -0.093,0.01 -0.186,0.028 -0.277,0.052 -0.091,0.022 -0.181,0.051 -0.269,0.086 -0.087,0.035 -0.173,0.076 -0.254,0.122 -0.083,0.046 -0.163,0.097 -0.238,0.154 -0.076,0.056 -0.147,0.117 -0.214,0.184 -0.068,0.065 -0.132,0.135 -0.19,0.209 -0.058,0.074 -0.112,0.153 -0.159,0.234 -0.049,0.08 -0.092,0.164 -0.13,0.251 -0.037,0.086 -0.068,0.176 -0.093,0.267 -0.026,0.09 -0.045,0.183 -0.058,0.276 -0.014,0.093 -0.021,0.188 -0.023,0.282 -0.003,0.094 10e-4,0.188 0.011,0.282 0.01,0.094 0.029,0.187 0.055,0.277 0.003,0.011 0.006,0.022 0.01,0.032 0.003,0.01 0.006,0.021 0.01,0.031 l 4.773,19.356 0,21.084 1.08,0 0,-19.016 4.32,-0.961 -2.7,-13.498 5.604,2.376 c 0.038,0.013 0.074,0.03 0.11,0.048 0.043,0.022 0.085,0.045 0.128,0.067 0.221,0.116 0.437,0.24 0.647,0.374 0.195,0.125 0.375,0.271 0.538,0.437 0.118,0.114 0.225,0.237 0.323,0.369 0.099,0.134 0.188,0.275 0.267,0.422 0.079,0.144 0.149,0.292 0.209,0.445 0.06,0.154 0.112,0.311 0.157,0.471 l 0.005,0.02 0.006,0.019 1.374,4.779 c 0.008,0.031 0.019,0.063 0.031,0.094 0.015,0.039 0.031,0.078 0.047,0.116 0.033,0.08 0.068,0.159 0.105,0.237 0.034,0.072 0.07,0.142 0.11,0.212 0.08,0.142 0.169,0.279 0.268,0.409 0.1,0.133 0.208,0.26 0.322,0.381 0.075,0.083 0.155,0.162 0.239,0.236 0.086,0.076 0.178,0.144 0.276,0.204 0.009,0.006 0.018,0.012 0.028,0.018 0.009,0.005 0.017,0.01 0.026,0.015 L 0,0"
             style="fill:#ffffff;fill-opacity:1;fill-rule:evenodd;stroke:none"
             id="path3559"
             inkscape:connector-curvature="0" />
        </g>
        <g
           id="g3561"
           transform="matrix(0,1.25,1.25,0,75.690889,-15.625228)">
          <path
             d="M 0,0 0.025,0 0.05,0.001 C 0.215,0.003 0.379,0.015 0.542,0.038 0.706,0.061 0.867,0.096 1.026,0.142 1.185,0.185 1.342,0.239 1.493,0.304 1.645,0.37 1.792,0.446 1.932,0.531 2.075,0.615 2.211,0.708 2.341,0.81 2.471,0.912 2.593,1.024 2.707,1.142 2.823,1.26 2.931,1.385 3.03,1.517 3.129,1.649 3.218,1.788 3.298,1.933 3.379,2.076 3.451,2.225 3.512,2.379 3.573,2.532 3.624,2.689 3.664,2.849 3.705,3.009 3.736,3.171 3.755,3.335 3.775,3.499 3.783,3.664 3.779,3.829 3.778,3.994 3.766,4.159 3.742,4.322 3.719,4.486 3.684,4.647 3.638,4.806 3.594,4.965 3.539,5.121 3.474,5.272 3.409,5.424 3.334,5.571 3.248,5.712 3.165,5.855 3.072,5.991 2.97,6.121 2.867,6.25 2.756,6.373 2.637,6.487 2.52,6.603 2.395,6.711 2.262,6.809 2.13,6.908 1.991,6.998 1.847,7.077 1.703,7.159 1.555,7.231 1.401,7.292 1.248,7.353 1.091,7.403 0.93,7.443 0.771,7.485 0.608,7.515 0.445,7.535 0.281,7.554 0.116,7.562 -0.049,7.559 -0.214,7.558 -0.379,7.545 -0.543,7.522 -0.706,7.498 -0.867,7.463 -1.026,7.417 -1.185,7.373 -1.341,7.319 -1.492,7.254 -1.644,7.189 -1.791,7.113 -1.932,7.028 -2.075,6.944 -2.211,6.851 -2.341,6.749 -2.47,6.647 -2.593,6.536 -2.707,6.417 -2.823,6.299 -2.931,6.174 -3.03,6.042 -3.128,5.91 -3.218,5.771 -3.298,5.626 -3.379,5.483 -3.451,5.334 -3.512,5.181 -3.573,5.028 -3.624,4.87 -3.663,4.71 -3.705,4.55 -3.735,4.388 -3.755,4.224 -3.774,4.06 -3.782,3.895 -3.779,3.73 -3.778,3.565 -3.766,3.4 -3.742,3.237 -3.718,3.074 -3.683,2.912 -3.637,2.754 -3.594,2.595 -3.539,2.439 -3.474,2.287 -3.409,2.136 -3.333,1.989 -3.248,1.847 -3.165,1.705 -3.071,1.568 -2.969,1.439 -2.867,1.309 -2.756,1.187 -2.637,1.072 -2.52,0.956 -2.394,0.849 -2.262,0.75 -2.13,0.651 -1.991,0.562 -1.846,0.482 -1.703,0.401 -1.554,0.329 -1.401,0.268 -1.248,0.207 -1.091,0.156 -0.93,0.117 -0.778,0.077 -0.624,0.047 -0.468,0.027 -0.313,0.007 -0.156,-0.002 0,0"
             style="fill:#ffffff;fill-opacity:1;fill-rule:evenodd;stroke:none"
             id="path3563"
             inkscape:connector-curvature="0" />
        </g>
      </g>
    </g>
  </g>
</svg>
