<?xml version="1.0" encoding="UTF-8" standalone="no"?>
<!-- Created with Inkscape (http://www.inkscape.org/) -->

<svg
   xmlns:dc="http://purl.org/dc/elements/1.1/"
   xmlns:cc="http://creativecommons.org/ns#"
   xmlns:rdf="http://www.w3.org/1999/02/22-rdf-syntax-ns#"
   xmlns:svg="http://www.w3.org/2000/svg"
   xmlns="http://www.w3.org/2000/svg"
   xmlns:sodipodi="http://sodipodi.sourceforge.net/DTD/sodipodi-0.dtd"
   xmlns:inkscape="http://www.inkscape.org/namespaces/inkscape"
   width="60"
   height="60"
   id="svg2"
   version="1.1"
   inkscape:version="0.48.2 r9819"
   sodipodi:docname="Notice_E23.svg"
   style="display:inline"
   inkscape:export-filename="/Users/mherring/boatsw/oseam/openseamap/josm/icons/WindSurfing16.png"
   inkscape:export-xdpi="12"
   inkscape:export-ydpi="12">
  <defs
     id="defs4" />
  <sodipodi:namedview
     id="base"
     pagecolor="#ffffff"
     bordercolor="#666666"
     borderopacity="1.0"
     inkscape:pageopacity="0.0"
     inkscape:pageshadow="2"
     inkscape:zoom="5.3032952"
     inkscape:cx="14.367998"
     inkscape:cy="59.084222"
     inkscape:document-units="px"
     inkscape:current-layer="layer53"
     showgrid="true"
     inkscape:window-width="1920"
     inkscape:window-height="1088"
     inkscape:window-x="0"
     inkscape:window-y="0"
     inkscape:window-maximized="1"
     inkscape:snap-global="false">
    <inkscape:grid
       type="xygrid"
       id="grid3004"
       empspacing="5"
       visible="true"
       enabled="true"
       snapvisiblegridlinesonly="true" />
  </sodipodi:namedview>
  <metadata
     id="metadata7">
    <rdf:RDF>
      <cc:Work
         rdf:about="">
        <dc:format>image/svg+xml</dc:format>
        <dc:type
           rdf:resource="http://purl.org/dc/dcmitype/StillImage" />
        <dc:title />
      </cc:Work>
    </rdf:RDF>
  </metadata>
  <g
     inkscape:groupmode="layer"
     id="layer53"
     inkscape:label="E23"
     style="display:inline"
     transform="translate(0,-60)">
    <g
       style="display:inline"
       transform="matrix(0.97035069,0,0,0.97035069,138.12538,-179.83175)"
       id="layer1-82"
       inkscape:label="Ebene 1">
      <g
         id="text4832"
         style="font-size:25.94532585px;font-style:normal;font-variant:normal;font-weight:normal;font-stretch:normal;text-align:start;line-height:125%;writing-mode:lr-tb;text-anchor:start;fill:#ffffff;fill-opacity:1;stroke:none;font-family:DIN 1451 Mittelschrift;-inkscape-font-specification:DIN 1451 Mittelschrift">
        <text
           transform="translate(-146.99732,242.50825)"
           id="text2827"
           y="29.391695"
           x="27.829817"
           style="font-size:40px;font-style:normal;font-weight:normal;fill:#000000;fill-opacity:1;stroke:none;font-family:Bitstream Vera Sans"
           xml:space="preserve"><tspan
             y="29.391695"
             x="27.829817"
             id="tspan2829"
             sodipodi:role="line" /></text>
      </g>
      <g
         transform="matrix(0.84345072,0,0,0.84345072,-17.444153,43.532671)"
         id="g2931">
        <g
           id="g4573"
           transform="matrix(0,1.25,1.25,0,-142.60982,313.44209)"
           style="fill:#ffffff;stroke:#000000;stroke-width:1.03055525">
          <path
             d="m 0,0 0,49.89 0,0.013 0,0.013 c -0.001,0.145 -0.011,0.289 -0.031,0.432 -0.019,0.144 -0.048,0.286 -0.088,0.425 -0.036,0.14 -0.083,0.278 -0.139,0.411 -0.056,0.133 -0.121,0.263 -0.195,0.387 -0.072,0.126 -0.152,0.246 -0.241,0.361 -0.088,0.114 -0.184,0.223 -0.286,0.325 -0.102,0.103 -0.211,0.199 -0.325,0.287 -0.115,0.088 -0.236,0.168 -0.361,0.24 -0.125,0.074 -0.254,0.138 -0.388,0.194 -0.133,0.056 -0.271,0.103 -0.41,0.14 -0.14,0.04 -0.282,0.07 -0.425,0.09 -0.144,0.02 -0.288,0.03 -0.432,0.029 l -49.943,0 c -0.144,-0.001 -0.289,-0.011 -0.432,-0.03 -0.144,-0.019 -0.285,-0.049 -0.425,-0.089 -0.14,-0.036 -0.277,-0.082 -0.41,-0.138 -0.134,-0.057 -0.263,-0.122 -0.388,-0.196 -0.125,-0.072 -0.246,-0.152 -0.361,-0.24 -0.114,-0.088 -0.223,-0.184 -0.324,-0.287 -0.104,-0.102 -0.199,-0.211 -0.288,-0.325 -0.088,-0.115 -0.168,-0.235 -0.24,-0.361 -0.073,-0.125 -0.138,-0.254 -0.194,-0.388 -0.056,-0.133 -0.103,-0.27 -0.14,-0.41 -0.04,-0.139 -0.07,-0.281 -0.09,-0.425 -0.02,-0.143 -0.03,-0.288 -0.029,-0.432 l 0,-49.942 c 10e-4,-0.145 0.011,-0.289 0.03,-0.433 0.02,-0.143 0.049,-0.285 0.089,-0.424 0.036,-0.141 0.082,-0.278 0.138,-0.411 0.057,-0.134 0.122,-0.263 0.196,-0.388 0.072,-0.125 0.152,-0.246 0.24,-0.36 0.089,-0.115 0.184,-0.224 0.288,-0.325 0.101,-0.103 0.21,-0.199 0.324,-0.287 0.115,-0.089 0.236,-0.169 0.361,-0.241 0.125,-0.073 0.255,-0.138 0.388,-0.194 0.133,-0.056 0.271,-0.102 0.41,-0.14 0.14,-0.039 0.282,-0.069 0.425,-0.09 0.143,-0.02 0.288,-0.03 0.432,-0.028 l 0.014,0 0.013,-10e-4 49.889,0 0.013,10e-4 0.014,0 c 0.144,0 0.288,0.01 0.432,0.03 0.143,0.019 0.285,0.049 0.425,0.088 0.14,0.036 0.277,0.083 0.41,0.139 0.134,0.056 0.263,0.121 0.388,0.195 0.125,0.072 0.246,0.153 0.36,0.241 0.115,0.088 0.224,0.184 0.326,0.287 0.102,0.101 0.198,0.21 0.287,0.325 0.088,0.114 0.168,0.235 0.24,0.36 0.073,0.125 0.138,0.255 0.194,0.388 0.056,0.134 0.103,0.271 0.14,0.411 0.04,0.139 0.07,0.281 0.09,0.425 0.02,0.143 0.03,0.287 0.029,0.432 L 0,-0.013 0,0 z"
             style="fill:#ffffff;stroke:#000000;stroke-width:0.22259995;stroke-linecap:butt;stroke-linejoin:bevel;stroke-miterlimit:22.9260006;stroke-opacity:1;stroke-dasharray:none"
             id="path4575"
             inkscape:connector-curvature="0" />
          <g
             id="g4577"
             transform="translate(0.054,0)"
             style="fill:#ffffff;stroke:#000000;stroke-width:1.03055525">
            <path
               d="M 0,0 0,-0.027 C -0.001,-0.174 -0.011,-0.32 -0.031,-0.466 -0.05,-0.612 -0.081,-0.756 -0.121,-0.898 -0.157,-1.04 -0.205,-1.18 -0.262,-1.315 -0.319,-1.451 -0.385,-1.582 -0.46,-1.708 -0.533,-1.836 -0.615,-1.958 -0.705,-2.075 -0.794,-2.192 -0.892,-2.302 -0.996,-2.405 -1.1,-2.51 -1.21,-2.608 -1.326,-2.697 c -0.117,-0.09 -0.239,-0.171 -0.367,-0.245 -0.127,-0.074 -0.258,-0.14 -0.394,-0.197 -0.136,-0.056 -0.275,-0.104 -0.417,-0.142 -0.142,-0.04 -0.286,-0.071 -0.432,-0.091 -0.145,-0.021 -0.292,-0.03 -0.439,-0.03 l -49.943,0 c -0.147,0.001 -0.294,0.012 -0.439,0.031 -0.146,0.02 -0.29,0.05 -0.432,0.09 -0.142,0.037 -0.282,0.084 -0.418,0.141 -0.135,0.057 -0.266,0.123 -0.393,0.198 -0.127,0.074 -0.25,0.156 -0.366,0.245 -0.117,0.09 -0.227,0.187 -0.331,0.292 -0.104,0.103 -0.202,0.213 -0.291,0.33 -0.09,0.116 -0.172,0.239 -0.245,0.367 -0.074,0.126 -0.14,0.258 -0.197,0.393 -0.057,0.136 -0.104,0.275 -0.142,0.417 -0.041,0.142 -0.071,0.286 -0.092,0.432 -0.02,0.146 -0.03,0.292 -0.029,0.439 l 0,49.943 c 10e-4,0.147 0.011,0.294 0.031,0.44 0.02,0.145 0.05,0.289 0.09,0.431 0.036,0.142 0.084,0.282 0.141,0.418 0.057,0.135 0.123,0.267 0.198,0.393 0.073,0.127 0.155,0.25 0.245,0.367 0.089,0.116 0.187,0.227 0.291,0.33 0.104,0.105 0.214,0.202 0.331,0.292 0.116,0.089 0.239,0.171 0.366,0.244 0.127,0.075 0.258,0.141 0.394,0.197 0.136,0.057 0.275,0.105 0.417,0.143 0.142,0.04 0.286,0.07 0.432,0.091 0.145,0.021 0.292,0.03 0.439,0.029 l 49.943,0 c 0.147,-10e-4 0.294,-0.011 0.439,-0.031 0.146,-0.019 0.29,-0.049 0.432,-0.089 0.142,-0.037 0.282,-0.084 0.417,-0.142 0.136,-0.057 0.267,-0.123 0.394,-0.198 0.127,-0.073 0.25,-0.155 0.367,-0.244 0.116,-0.09 0.226,-0.187 0.33,-0.292 0.104,-0.103 0.202,-0.214 0.292,-0.33 0.089,-0.117 0.171,-0.239 0.244,-0.367 0.074,-0.127 0.14,-0.258 0.197,-0.394 0.057,-0.135 0.104,-0.275 0.142,-0.417 0.04,-0.142 0.071,-0.286 0.092,-0.432 C -0.009,50.21 0.001,50.063 0,49.916 L 0,0 z"
               style="fill:#ffffff;stroke:#000000;stroke-width:1.95493162;stroke-linecap:butt;stroke-linejoin:bevel;stroke-miterlimit:22.9260006;stroke-opacity:1;stroke-dasharray:none"
               id="path4579"
               inkscape:connector-curvature="0" />
          </g>
        </g>
        <path
           id="path4571"
           style="fill:#003399;fill-opacity:1;fill-rule:evenodd;stroke:none"
           d="m -142.60982,310.47334 -0.01,0 c -0.0525,0 -0.105,-0.004 -0.15625,-0.0113 -0.0525,-0.006 -0.10375,-0.0175 -0.155,-0.0325 -0.05,-0.0125 -0.1,-0.03 -0.14875,-0.05 -0.0475,-0.02 -0.095,-0.0437 -0.14,-0.0713 -0.0463,-0.025 -0.09,-0.055 -0.13125,-0.0875 -0.0413,-0.0312 -0.0813,-0.0663 -0.1175,-0.10375 -0.0375,-0.0362 -0.0725,-0.0763 -0.105,-0.1175 -0.0312,-0.0412 -0.0613,-0.085 -0.0863,-0.13125 -0.0275,-0.045 -0.05,-0.0925 -0.0712,-0.14 -0.02,-0.0487 -0.0375,-0.0987 -0.05,-0.14875 -0.015,-0.0512 -0.0263,-0.1025 -0.0337,-0.155 -0.006,-0.0513 -0.01,-0.10375 -0.01,-0.15625 l 0,-0.01 0,-62.3625 0,-0.009 c 0,-0.0525 0.004,-0.105 0.0112,-0.1575 0.006,-0.0513 0.0175,-0.10375 0.0325,-0.15375 0.0125,-0.0513 0.03,-0.10125 0.05,-0.14875 0.02,-0.0487 0.0437,-0.0962 0.0712,-0.14125 0.025,-0.045 0.055,-0.0888 0.0863,-0.13125 0.0325,-0.0413 0.0675,-0.08 0.105,-0.1175 0.0362,-0.0375 0.0762,-0.0725 0.1175,-0.10375 0.0412,-0.0325 0.085,-0.0613 0.13125,-0.0875 0.045,-0.0263 0.0925,-0.05 0.14,-0.0713 0.0488,-0.02 0.0988,-0.0362 0.14875,-0.05 0.0513,-0.015 0.1025,-0.025 0.155,-0.0325 0.0513,-0.008 0.10375,-0.0113 0.15625,-0.01 l 62.38125,0 c 0.0525,0 0.105,0.002 0.1575,0.01 0.05125,0.007 0.10375,0.0175 0.15375,0.0325 0.05125,0.0125 0.10125,0.03 0.14875,0.05 0.04875,0.0213 0.09625,0.045 0.14125,0.0713 0.045,0.0262 0.08875,0.055 0.13,0.0875 0.0425,0.0312 0.08125,0.0663 0.11875,0.10375 0.0375,0.0375 0.0725,0.0762 0.10375,0.1175 0.0325,0.0425 0.06125,0.0862 0.0875,0.13125 0.02625,0.045 0.05,0.0925 0.07125,0.14125 0.02,0.0475 0.03625,0.0975 0.05,0.14875 0.015,0.05 0.025,0.1025 0.0325,0.15375 0.0075,0.0525 0.01125,0.105 0.01,0.1575 l 0,62.38125 c 0,0.0525 -0.0025,0.105 -0.01,0.15625 -0.0075,0.0525 -0.0175,0.10375 -0.0325,0.155 -0.0125,0.05 -0.03,0.1 -0.05,0.14875 -0.02125,0.0475 -0.045,0.095 -0.07125,0.14 -0.02625,0.0462 -0.055,0.09 -0.0875,0.13125 -0.03125,0.0412 -0.06625,0.0813 -0.10375,0.1175 -0.0375,0.0375 -0.07625,0.0725 -0.11875,0.105 -0.04125,0.0312 -0.085,0.0613 -0.13,0.0863 -0.045,0.0275 -0.0925,0.05 -0.14125,0.0713 -0.0475,0.02 -0.0975,0.0375 -0.14875,0.05 -0.05,0.015 -0.1025,0.0263 -0.15375,0.0337 -0.0525,0.006 -0.105,0.01 -0.1575,0.01 l -0.0088,0 -62.3625,0"
           inkscape:connector-curvature="0" />
        <text
           xml:space="preserve"
           style="font-size:10px;font-style:normal;font-variant:normal;font-weight:bold;font-stretch:normal;text-align:start;line-height:100%;writing-mode:lr-tb;text-anchor:start;fill:#ffffff;fill-opacity:1;stroke:none;font-family:Nimbus Sans L;-inkscape-font-specification:Nimbus Sans L Bold"
           x="-135.35423"
           y="276.86954"
           id="text2831"
           sodipodi:linespacing="100%"><tspan
             sodipodi:role="line"
             id="tspan2837"
             x="-135.35423"
             y="276.86954"
             style="font-size:24px;font-style:normal;font-variant:normal;font-weight:normal;font-stretch:normal;text-align:start;line-height:100%;writing-mode:lr-tb;text-anchor:start;font-family:Nimbus Sans L;-inkscape-font-specification:Nimbus Sans L">VHF</tspan></text>
        <g
           style="font-size:25.94499969px;font-style:normal;font-variant:normal;font-weight:normal;font-stretch:normal;text-align:start;line-height:125%;writing-mode:lr-tb;text-anchor:start;fill:#ffffff;fill-opacity:1;stroke:none;font-family:DIN 1451 Mittelschrift;-inkscape-font-specification:DIN 1451 Mittelschrift"
           id="text4836" />
      </g>
    </g>
  </g>
</svg>
