<?xml version="1.0" encoding="UTF-8" standalone="no"?>
<!-- Created with Inkscape (http://www.inkscape.org/) -->

<svg
   xmlns:dc="http://purl.org/dc/elements/1.1/"
   xmlns:cc="http://creativecommons.org/ns#"
   xmlns:rdf="http://www.w3.org/1999/02/22-rdf-syntax-ns#"
   xmlns:svg="http://www.w3.org/2000/svg"
   xmlns="http://www.w3.org/2000/svg"
   xmlns:sodipodi="http://sodipodi.sourceforge.net/DTD/sodipodi-0.dtd"
   xmlns:inkscape="http://www.inkscape.org/namespaces/inkscape"
   width="60"
   height="60"
   id="svg2"
   version="1.1"
   inkscape:version="0.48.2 r9819"
   sodipodi:docname="Notice_A12.svg"
   style="display:inline"
   inkscape:export-filename="/Users/mherring/boatsw/oseam/openseamap/josm/icons/WindSurfing16.png"
   inkscape:export-xdpi="12"
   inkscape:export-ydpi="12">
  <defs
     id="defs4" />
  <sodipodi:namedview
     id="base"
     pagecolor="#ffffff"
     bordercolor="#666666"
     borderopacity="1.0"
     inkscape:pageopacity="0.0"
     inkscape:pageshadow="2"
     inkscape:zoom="7.5"
     inkscape:cx="-4.5333333"
     inkscape:cy="60"
     inkscape:document-units="px"
     inkscape:current-layer="layer3"
     showgrid="true"
     inkscape:window-width="1920"
     inkscape:window-height="1088"
     inkscape:window-x="0"
     inkscape:window-y="0"
     inkscape:window-maximized="0"
     inkscape:snap-global="false">
    <inkscape:grid
       type="xygrid"
       id="grid3004"
       empspacing="5"
       visible="true"
       enabled="true"
       snapvisiblegridlinesonly="true" />
  </sodipodi:namedview>
  <metadata
     id="metadata7">
    <rdf:RDF>
      <cc:Work
         rdf:about="">
        <dc:format>image/svg+xml</dc:format>
        <dc:type
           rdf:resource="http://purl.org/dc/dcmitype/StillImage" />
        <dc:title />
      </cc:Work>
    </rdf:RDF>
  </metadata>
  <g
     inkscape:groupmode="layer"
     id="layer3"
     inkscape:label="A12"
     style="display:inline"
     transform="translate(0,-60)">
    <g
       id="g6903"
       transform="matrix(0.97035072,0,0,0.97035072,-28.221011,31.778929)">
      <g
         inkscape:label="Ebene 1"
         id="layer1-1"
         transform="translate(97.142857,284.78062)">
        <g
           id="g2902"
           transform="matrix(0.84344971,0,0,0.84345083,-5.8147249,-35.189219)">
          <path
             inkscape:connector-curvature="0"
             id="path20046"
             style="fill:#e72512;fill-opacity:1;fill-rule:evenodd;stroke:none"
             d="m -67.816436,-191.58391 -0.01968,0 c -0.109441,0 -0.217652,-0.009 -0.325863,-0.0221 -0.108211,-0.0148 -0.215193,-0.0369 -0.320945,-0.0676 -0.104522,-0.0271 -0.207815,-0.0615 -0.308648,-0.10453 -0.100833,-0.0418 -0.197977,-0.091 -0.292662,-0.14633 -0.09469,-0.0541 -0.185681,-0.11559 -0.271758,-0.18199 -0.08608,-0.0664 -0.168465,-0.13895 -0.244705,-0.21642 -0.07747,-0.0762 -0.15002,-0.15863 -0.216422,-0.24471 -0.0664,-0.0861 -0.126656,-0.17707 -0.181992,-0.27175 -0.05411,-0.0935 -0.103292,-0.19183 -0.145101,-0.29267 -0.04304,-0.10083 -0.07747,-0.20289 -0.105752,-0.30864 -0.03074,-0.10576 -0.05288,-0.21274 -0.06763,-0.32095 -0.01599,-0.10698 -0.02336,-0.21642 -0.02213,-0.32586 l 0,-61.38777 c 0,-0.10821 0.0087,-0.21765 0.02336,-0.32464 0.01476,-0.10944 0.03566,-0.21642 0.0664,-0.32094 0.02705,-0.10575 0.06271,-0.20905 0.104522,-0.30988 0.04181,-0.10083 0.091,-0.19798 0.146331,-0.29143 0.05534,-0.0946 0.11559,-0.18568 0.181992,-0.27176 0.0664,-0.0874 0.138953,-0.16846 0.216422,-0.2447 0.07624,-0.0775 0.158628,-0.15002 0.244705,-0.21643 0.08608,-0.0664 0.177073,-0.12788 0.271758,-0.18199 0.09468,-0.0553 0.191829,-0.10329 0.292662,-0.1451 0.100833,-0.043 0.204126,-0.0775 0.308648,-0.10575 0.105752,-0.0295 0.212734,-0.0528 0.320945,-0.0676 0.108211,-0.0147 0.216422,-0.0221 0.325863,-0.0221 l 61.3877372,0 c 0.1082112,9.8e-4 0.2176521,0.009 0.3258633,0.0234 0.1082113,0.0136 0.2151928,0.0369 0.319715,0.0664 0.1057519,0.0271 0.2090444,0.0615 0.3098776,0.10329 0.1008332,0.043 0.1979774,0.0922 0.2914325,0.14756 0.094685,0.0541 0.1856807,0.11559 0.2717578,0.18199 0.087307,0.0664 0.1684652,0.13895 0.2459346,0.21642 0.077469,0.0762 0.1487904,0.1574 0.2164224,0.24471 0.066402,0.0861 0.1266564,0.17707 0.180762,0.27176 0.055335,0.0935 0.1045222,0.1906 0.1463311,0.29143 0.041809,0.10083 0.077469,0.20413 0.1057519,0.30988 0.029512,0.10575 0.051646,0.21273 0.067632,0.32094 0.014756,0.10698 0.022134,0.21642 0.020904,0.32464 l 0,61.38777 c 0,0.10944 -0.00856,0.21888 -0.022134,0.32586 -0.014756,0.10821 -0.03689,0.21519 -0.066402,0.32094 -0.028282,0.10576 -0.062713,0.20905 -0.1045223,0.30988 -0.043039,0.0996 -0.092225,0.19798 -0.1475607,0.29143 -0.054106,0.0946 -0.1143596,0.18569 -0.180762,0.27176 -0.067632,0.0861 -0.138953,0.16847 -0.2164224,0.24471 -0.077469,0.0787 -0.1586278,0.15002 -0.2459346,0.21642 -0.086077,0.0677 -0.1770729,0.12789 -0.2717578,0.18199 -0.093455,0.0554 -0.1905993,0.10329 -0.2914325,0.14633 -0.1008332,0.0418 -0.2041257,0.0762 -0.3098776,0.10453 -0.1045222,0.0307 -0.2115037,0.0528 -0.319715,0.0676 -0.1082112,0.0159 -0.2176521,0.0234 -0.3258633,0.0221 l -61.3680622,0 z" />
          <path
             inkscape:connector-curvature="0"
             id="path20050"
             style="fill:#ffffff;fill-opacity:1;fill-rule:evenodd;stroke:none"
             d="m -20.674736,-201.15755 -40.09,-40.09 0,40.09 40.09,0" />
          <path
             inkscape:connector-curvature="0"
             id="path20054"
             style="fill:#ffffff;fill-opacity:1;fill-rule:evenodd;stroke:none"
             d="m -13.520986,-208.31255 0,-40.09 -40.09,0 40.09,40.09" />
          <path
             inkscape:connector-curvature="0"
             id="path20058"
             style="fill:none;stroke:#231f20;stroke-width:0.27824992;stroke-linecap:butt;stroke-linejoin:bevel;stroke-miterlimit:22.9260006;stroke-opacity:1;stroke-dasharray:none"
             d="m -68.323486,-189.41505 62.3949996,0 c 0.18125,-0.001 0.36125,-0.0137 0.54,-0.0375 0.18,-0.025 0.3575,-0.0613 0.53125,-0.11125 0.175,-0.045 0.3475,-0.1025 0.51375,-0.17375 0.16625,-0.07 0.32875,-0.15125 0.48375,-0.24375 0.1575,-0.09 0.3075,-0.19 0.45125,-0.3 0.14375,-0.11 0.27875,-0.23125 0.40625,-0.36 0.12875,-0.12625 0.24875,-0.26125 0.35875,-0.405 0.11,-0.14375 0.21,-0.295 0.3,-0.45125 0.0925,-0.15625 0.17375,-0.3175 0.2425,-0.485 0.07,-0.16625 0.12875,-0.3375 0.17625,-0.5125 0.04875,-0.175 0.08625,-0.3525 0.11125,-0.53125 0.025,-0.17875 0.0375,-0.36 0.03625,-0.54 l 0,-62.42875 c 0,-0.18 -0.01375,-0.36125 -0.0375,-0.54 -0.02375,-0.18 -0.06125,-0.3575 -0.11,-0.53125 -0.04625,-0.175 -0.10375,-0.34625 -0.17375,-0.51375 -0.07,-0.16625 -0.1525,-0.32875 -0.245,-0.48375 -0.09,-0.15625 -0.19,-0.3075 -0.3,-0.45125 -0.11,-0.1425 -0.23,-0.27875 -0.35875,-0.40625 -0.1275,-0.12875 -0.2625,-0.24875 -0.40625,-0.35875 -0.14375,-0.11 -0.29375,-0.21 -0.45125,-0.3 -0.155,-0.0912 -0.3175,-0.1725 -0.485,-0.2425 -0.16625,-0.07 -0.3375,-0.12875 -0.5125,-0.175 -0.17375,-0.05 -0.35125,-0.0875 -0.53125,-0.1125 -0.17875,-0.025 -0.35875,-0.0375 -0.54,-0.0362 l -62.4274996,0 c -0.18125,0.001 -0.3625,0.0138 -0.54125,0.0375 -0.17875,0.025 -0.35625,0.0612 -0.53125,0.11125 -0.175,0.045 -0.34625,0.1025 -0.5125,0.1725 -0.1675,0.0712 -0.32875,0.1525 -0.485,0.245 -0.15625,0.09 -0.3075,0.19 -0.45,0.3 -0.14375,0.11 -0.28,0.23 -0.40625,0.35875 -0.12875,0.1275 -0.24875,0.26375 -0.36,0.40625 -0.11,0.14375 -0.21,0.29375 -0.3,0.45125 -0.09125,0.15625 -0.1725,0.3175 -0.2425,0.485 -0.07,0.16625 -0.12875,0.33875 -0.175,0.5125 -0.05,0.175 -0.0875,0.3525 -0.1125,0.53125 -0.025,0.17875 -0.0375,0.36 -0.03625,0.54 l 0,62.42875 c 0.0012,0.18 0.01375,0.36125 0.03875,0.54 0.02375,0.17875 0.06125,0.35625 0.11,0.53125 0.045,0.175 0.10375,0.34625 0.17375,0.51375 0.07,0.16625 0.15125,0.3275 0.24375,0.48375 0.09,0.15625 0.19,0.3075 0.30125,0.45125 0.11,0.1425 0.23,0.27875 0.35875,0.405 0.12625,0.13 0.2625,0.25 0.40625,0.36 0.1425,0.11 0.29375,0.21 0.45,0.3 0.15625,0.0913 0.3175,0.1725 0.485,0.2425 0.16625,0.07 0.33875,0.12875 0.5125,0.175 0.175,0.05 0.3525,0.0875 0.5325,0.1125 0.17875,0.025 0.35875,0.0375 0.54,0.0362 l 0.0325,0 z" />
          <path
             inkscape:connector-curvature="0"
             d="m -68.323486,-189.34755 -0.03375,0 c -0.18375,-10e-4 -0.36625,-0.0137 -0.54875,-0.0387 -0.1825,-0.0238 -0.3625,-0.0625 -0.54,-0.11125 -0.1775,-0.0463 -0.3525,-0.105 -0.52125,-0.1775 -0.17,-0.0712 -0.33375,-0.15375 -0.4925,-0.2475 -0.15875,-0.0913 -0.3125,-0.19375 -0.4575,-0.305 -0.14625,-0.1125 -0.28375,-0.23375 -0.41375,-0.365 -0.13,-0.13 -0.2525,-0.2675 -0.365,-0.4125 -0.11125,-0.14625 -0.21375,-0.29875 -0.305,-0.45875 -0.0925,-0.15875 -0.175,-0.3225 -0.24625,-0.4925 -0.07,-0.16875 -0.13,-0.34375 -0.1775,-0.52125 -0.05,-0.1775 -0.08875,-0.3575 -0.11375,-0.54 -0.02625,-0.18125 -0.03875,-0.365 -0.0375,-0.54875 l 0,-62.42875 c 0.0012,-0.18375 0.01375,-0.3675 0.03875,-0.54875 0.025,-0.1825 0.0625,-0.3625 0.1125,-0.54 0.04625,-0.1775 0.105,-0.3525 0.17625,-0.5225 0.07125,-0.16875 0.15375,-0.3325 0.2475,-0.49125 0.0925,-0.15875 0.19375,-0.3125 0.30625,-0.4575 0.11125,-0.14625 0.23375,-0.28375 0.36375,-0.41375 0.13,-0.13 0.2675,-0.2525 0.41375,-0.36375 0.145,-0.1125 0.29875,-0.215 0.4575,-0.30625 0.15875,-0.0925 0.3225,-0.175 0.4925,-0.24625 0.17,-0.0713 0.34375,-0.13 0.52125,-0.1775 0.1775,-0.0513 0.3575,-0.0888 0.54,-0.115 0.1825,-0.025 0.365,-0.0375 0.54875,-0.0362 l 62.4287496,0 c 0.18375,0.001 0.3675,0.0138 0.55,0.0387 0.18125,0.025 0.3625,0.0612 0.53875,0.1125 0.17875,0.045 0.3525,0.105 0.5225,0.17625 0.17,0.0713 0.33375,0.15375 0.49125,0.2475 0.16,0.0913 0.3125,0.19375 0.45875,0.30625 0.145,0.11125 0.28375,0.23375 0.4125,0.36375 0.13125,0.13 0.2525,0.2675 0.365,0.41375 0.11125,0.145 0.21375,0.29875 0.305,0.4575 0.09375,0.15875 0.17625,0.3225 0.2475,0.4925 0.07,0.17 0.13,0.34375 0.1775,0.52125 0.05,0.1775 0.08875,0.3575 0.11375,0.54 0.02625,0.18125 0.0375,0.365 0.03625,0.54875 l 0,62.42875 c -0.0012,0.18375 -0.01375,0.3675 -0.0375,0.54875 -0.025,0.1825 -0.0625,0.3625 -0.1125,0.54 -0.04625,0.1775 -0.105,0.3525 -0.1775,0.52125 -0.07125,0.17 -0.15375,0.33375 -0.2475,0.4925 -0.09125,0.16 -0.19375,0.3125 -0.305,0.45875 -0.1125,0.145 -0.23375,0.2825 -0.365,0.4125 -0.12875,0.13125 -0.2675,0.2525 -0.4125,0.365 -0.14625,0.11125 -0.29875,0.21375 -0.45875,0.305 -0.15875,0.0937 -0.3225,0.175 -0.4925,0.24625 -0.16875,0.0712 -0.34375,0.13 -0.52125,0.17875 -0.1775,0.05 -0.3575,0.0875 -0.54,0.11375 -0.18125,0.025 -0.365,0.0375 -0.54875,0.0362 l -62.3949996,0 z"
             style="fill:none;stroke:#000000;stroke-width:2.4436655;stroke-linecap:butt;stroke-linejoin:bevel;stroke-miterlimit:22.9260006;stroke-opacity:1;stroke-dasharray:none"
             id="path20062" />
          <path
             inkscape:connector-curvature="0"
             d="m -41.173159,-228.10072 c -0.251109,-0.42156 -0.509145,-0.83848 -0.774271,-1.25161 -0.262039,-0.41023 -0.544215,-0.80755 -0.845382,-1.19044 -0.424247,-0.52925 -0.887589,-1.02601 -1.385683,-1.48503 -0.5044,-0.46566 -1.029557,-0.90714 -1.574643,-1.32458 -0.536394,-0.43183 -1.103218,-0.82578 -1.695595,-1.17842 -0.587779,-0.35084 -1.22508,-0.60987 -1.89168,-0.76938 -0.123761,-0.0303 -0.246981,-0.0624 -0.36965,-0.0963 -0.121545,-0.0324 -0.239251,-0.0774 -0.350625,-0.13562 -0.05185,-0.0272 -0.100971,-0.0574 -0.149385,-0.0894 -0.04778,-0.033 -0.0957,-0.0669 -0.141387,-0.10284 -0.07086,-0.0522 -0.138897,-0.10842 -0.204749,-0.16668 -0.06567,-0.0574 -0.126434,-0.12087 -0.182581,-0.18767 -0.05162,-0.0607 -0.0981,-0.12574 -0.139738,-0.19331 -0.04099,-0.0685 -0.07818,-0.14032 -0.109649,-0.21308 -0.0324,-0.0734 -0.06081,-0.14846 -0.08334,-0.22533 -0.0222,-0.0761 -0.0401,-0.15373 -0.05199,-0.23242 -0.01294,-0.0794 -0.02018,-0.15888 -0.02208,-0.23843 -0.0016,-0.0796 8.45e-4,-0.15991 0.0097,-0.23874 0.01047,-0.10916 0.02798,-0.21696 0.05354,-0.32356 0.02557,-0.10574 0.05641,-0.21153 0.09117,-0.31456 0.03732,-0.11292 0.07909,-0.22488 0.124762,-0.33408 0.04568,-0.1092 0.09597,-0.21661 0.150024,-0.3221 0.08162,-0.16003 0.172742,-0.31483 0.271683,-0.4641 0.09963,-0.15024 0.204291,-0.2962 0.313994,-0.43786 0.180631,-0.23889 0.373138,-0.46864 0.577818,-0.68761 0.203986,-0.21798 0.4232,-0.42226 0.65462,-0.6106 0.229712,-0.1932 0.473724,-0.36825 0.729513,-0.5247 0.254961,-0.1563 0.521699,-0.29402 0.797169,-0.41091 0.242265,-0.10516 0.489171,-0.19825 0.74019,-0.27743 0.251857,-0.0793 0.506523,-0.15228 0.7615,-0.2184 0.248856,-0.0668 0.498858,-0.1269 0.749857,-0.18115 0.250311,-0.0533 0.503595,-0.0943 0.758367,-0.12163 0.361744,-0.0398 0.725018,-0.0507 1.087463,-0.0313 0.364265,0.0199 0.727238,0.0624 1.085598,0.12792 0.313887,0.0517 0.625337,0.11936 0.932704,0.20314 0.306376,0.0831 0.608668,0.18234 0.905039,0.29722 0.373066,0.14121 0.735818,0.30738 1.087266,0.49783 0.350477,0.18975 0.688965,0.40476 1.010579,0.64156 0.324238,0.23205 0.632573,0.48659 0.922071,0.76154 0.289365,0.27412 0.559894,0.56865 0.80851,0.88069 0.253192,0.30868 0.485319,0.63471 0.693285,0.97521 0.208803,0.34034 0.394149,0.69417 0.554086,1.06009 0.164647,0.36339 0.303741,0.73805 0.417537,1.12048 0.112889,0.38259 0.199741,0.77309 0.25984,1.16732 0.06468,0.39431 0.103245,0.79138 0.113393,1.19075 0.01015,0.39938 -0.0064,0.79819 -0.0508,1.19491 -0.03927,0.3967 -0.106525,0.79047 -0.199698,1.17839 -0.09304,0.38875 -0.213117,0.77012 -0.358018,1.14202 -0.140159,0.37451 -0.306112,0.73885 -0.496643,1.09024 -0.189827,0.3504 -0.404365,0.68701 -0.643207,1.00719 -0.05555,0.0765 -0.111315,0.15225 -0.169006,0.22658 -0.05751,0.0752 -0.115219,0.14948 -0.173738,0.22395 0.0069,0.005 0.0127,0.009 0.01952,0.0138 0.0067,0.004 0.01358,0.009 0.01937,0.013 0.164678,0.11344 0.31953,0.23973 0.463595,0.37818 0.144749,0.13748 0.279395,0.28614 0.402671,0.44362 0.126158,0.15442 0.241679,0.31667 0.345667,0.48692 0.104017,0.17024 0.197146,0.3475 0.277524,0.53039 0.08353,0.18149 0.155206,0.36845 0.213085,0.56036 0.05768,0.19108 0.09983,0.38569 0.125911,0.58306 0.02504,0.18123 0.0384,0.3636 0.04147,0.54688 0.0032,0.18327 0.0019,0.36645 -0.0034,0.5503 0.490942,-0.008 0.981422,-0.0234 1.47146,-0.0466 0.486686,-0.0226 0.972018,-0.0682 1.454859,-0.13821 0.670613,-0.10229 1.331647,-0.25533 1.979076,-0.45757 0.65495,-0.20353 1.301103,-0.4382 1.934741,-0.70077 0.642889,-0.2487 1.266904,-0.54226 1.868988,-0.87843 0.597374,-0.33365 1.140709,-0.7568 1.611301,-1.25334 0.08907,-0.0917 0.178266,-0.18265 0.268447,-0.27286 0.08964,-0.0884 0.187661,-0.16794 0.293686,-0.23597 0.04881,-0.0307 0.09911,-0.0583 0.151461,-0.0836 0.05326,-0.0255 0.106675,-0.0492 0.160436,-0.0714 0.08069,-0.0353 0.162963,-0.0666 0.245793,-0.0946 0.08379,-0.0273 0.168617,-0.0487 0.254578,-0.0635 0.07831,-0.0143 0.157757,-0.0219 0.237363,-0.0236 0.08046,-0.002 0.160099,0.002 0.239906,0.0112 0.07957,0.008 0.158246,0.0209 0.236296,0.0401 0.07705,0.0185 0.153194,0.0416 0.227805,0.0708 0.07449,0.0284 0.147314,0.0623 0.21738,0.10009 0.07025,0.0386 0.137652,0.0811 0.202326,0.12759 0.08917,0.0637 0.173277,0.13344 0.252295,0.20833 0.07995,0.0756 0.155412,0.15455 0.227085,0.23672 0.07963,0.0885 0.155541,0.18029 0.227555,0.27442 0.07197,0.0941 0.140279,0.1915 0.203834,0.29139 0.09723,0.15079 0.185813,0.3065 0.265805,0.46713 0.08019,0.16145 0.154601,0.32475 0.222764,0.4917 0.116902,0.27539 0.2185,0.55685 0.306346,0.84324 0.08691,0.2857 0.154151,0.57736 0.202171,0.87231 0.05139,0.29523 0.08144,0.59413 0.08902,0.89346 0.0085,0.29917 -0.0063,0.59888 -0.04295,0.8955 -0.02876,0.26262 -0.0726,0.52268 -0.129816,0.77987 -0.05705,0.25803 -0.120541,0.51373 -0.191966,0.76821 -0.06546,0.24917 -0.138306,0.49531 -0.217428,0.73995 -0.07927,0.24381 -0.170394,0.48364 -0.274482,0.71796 -0.145648,0.33251 -0.318368,0.65249 -0.516086,0.95701 -0.198402,0.3055 -0.41706,0.59816 -0.652899,0.87572 -0.202598,0.2461 -0.417349,0.48139 -0.643292,0.70658 -0.225401,0.22338 -0.46227,0.43499 -0.709914,0.63385 -0.308773,0.25316 -0.634219,0.48428 -0.974671,0.69306 -0.340452,0.20878 -0.694379,0.39411 -1.061238,0.55418 -0.363497,0.16464 -0.73727,0.30442 -1.120789,0.41753 -0.382537,0.1138 -0.772306,0.2005 -1.167642,0.2598 -0.393489,0.065 -0.791718,0.10248 -1.191053,0.11352 -0.398631,0.0101 -0.798514,-0.007 -1.19533,-0.0515 -0.396651,-0.0384 -0.791348,-0.10545 -1.179216,-0.19773 -0.388145,-0.094 -0.769461,-0.21314 -1.141568,-0.35881 -0.373903,-0.14107 -0.737493,-0.30709 -1.088113,-0.49768 -0.350467,-0.18976 -0.688127,-0.40491 -1.008903,-0.64185 -0.325066,-0.23191 -0.632563,-0.4866 -0.921928,-0.76071 -0.289642,-0.27579 -0.560027,-0.56949 -0.809481,-0.88138 -0.25403,-0.30854 -0.486985,-0.63443 -0.695798,-0.97478 -0.209488,-0.33937 -0.393312,-0.69431 -0.551573,-1.06052 -0.03795,-0.0863 -0.07511,-0.17263 -0.111716,-0.25997 -0.03641,-0.0874 -0.072,-0.17402 -0.106833,-0.26166 l -0.02145,0.01 -0.02147,0.01 c -0.17238,0.0769 -0.350384,0.14091 -0.533336,0.19123 -0.182953,0.0503 -0.367449,0.0966 -0.551978,0.13775 l -0.03006,0.005 -0.02917,0.005 c -0.197234,0.0322 -0.395931,0.0508 -0.595113,0.0567 -0.200009,0.006 -0.399114,-0.003 -0.598151,-0.0261 -0.198177,-0.0184 -0.395459,-0.0515 -0.589046,-0.0981 -0.194567,-0.0473 -0.385287,-0.10733 -0.571351,-0.18017 -0.187299,-0.07 -0.369778,-0.15208 -0.546611,-0.24625 -0.175166,-0.0945 -0.343164,-0.20218 -0.502306,-0.32344 -0.02947,-0.0216 -0.05909,-0.044 -0.08871,-0.0664 -0.02888,-0.0234 -0.05771,-0.0459 -0.08747,-0.0692 -0.233326,0.4223 -0.460244,0.84693 -0.680457,1.27556 -0.219663,0.42682 -0.418958,0.86217 -0.596915,1.30674 -0.245538,0.63139 -0.444058,1.28134 -0.593393,1.94259 -0.150549,0.66919 -0.270708,1.34519 -0.360088,2.02535 -0.105525,0.68122 -0.163696,1.36804 -0.173403,2.05685 -0.0096,0.6845 0.08436,1.36667 0.279541,2.02287 0.03554,0.12187 0.06955,0.24487 0.101888,0.36816 0.03205,0.12161 0.05143,0.24626 0.05785,0.37228 0.0017,0.0573 0.001,0.11578 -0.0029,0.17315 -0.0046,0.0583 -0.011,0.11613 -0.0182,0.17405 -0.01071,0.0877 -0.0249,0.17521 -0.042,0.2606 -0.01798,0.0856 -0.04117,0.17027 -0.07185,0.25198 -0.02669,0.075 -0.05966,0.14767 -0.09833,0.21788 -0.03868,0.0702 -0.08118,0.13762 -0.129449,0.20174 -0.04642,0.0647 -0.0978,0.12588 -0.153057,0.18433 -0.05456,0.0575 -0.113042,0.11219 -0.175861,0.16162 -0.06181,0.0501 -0.126902,0.0965 -0.195332,0.13834 -0.06762,0.0417 -0.138537,0.0788 -0.211189,0.111 -0.09958,0.0454 -0.202134,0.0837 -0.3068,0.11453 -0.104534,0.0317 -0.210898,0.0577 -0.31896,0.0788 -0.116118,0.0242 -0.232958,0.0443 -0.351473,0.0595 -0.116865,0.0149 -0.235411,0.025 -0.353848,0.0307 -0.179674,0.009 -0.358698,0.007 -0.53749,-0.003 -0.179772,-0.0112 -0.358882,-0.0285 -0.536624,-0.053 -0.297524,-0.0365 -0.592619,-0.0889 -0.884307,-0.15648 -0.29085,-0.0677 -0.577352,-0.15508 -0.856697,-0.26086 -0.281418,-0.10283 -0.555147,-0.22589 -0.818675,-0.36959 -0.263384,-0.14287 -0.515441,-0.30487 -0.755058,-0.48446 -0.211663,-0.1569 -0.415727,-0.32456 -0.610373,-0.50243 -0.19479,-0.1787 -0.384307,-0.36174 -0.569678,-0.55065 -0.181445,-0.18099 -0.358733,-0.36785 -0.531444,-0.55807 -0.171873,-0.19037 -0.333213,-0.38942 -0.484706,-0.59617 -0.215114,-0.29202 -0.405813,-0.60198 -0.57055,-0.92585 -0.165709,-0.32456 -0.310034,-0.65966 -0.432688,-1.00364 -0.111319,-0.29783 -0.208142,-0.60158 -0.290107,-0.90874 -0.08109,-0.30731 -0.145664,-0.61832 -0.193583,-0.93219 -0.06468,-0.3943 -0.102457,-0.79151 -0.11325,-1.18992 -0.01103,-0.39922 0.0063,-0.79901 0.05066,-1.19573 0.03829,-0.39739 0.104563,-0.79186 0.198583,-1.17992 0.09317,-0.38792 0.213251,-0.76929 0.359133,-1.14049 0.140303,-0.37368 0.306399,-0.73719 0.497063,-1.08774 0.190675,-0.35055 0.40507,-0.688 0.641949,-1.00955 0.232975,-0.32432 0.486769,-0.63245 0.761823,-0.92191 0.275043,-0.28946 0.569669,-0.55994 0.881663,-0.80936 0.308773,-0.25316 0.634076,-0.48511 0.974528,-0.6939 0.340585,-0.20794 0.694522,-0.39328 1.060687,-0.55236 0.363497,-0.16465 0.737423,-0.30359 1.120104,-0.41656 0.383508,-0.11311 0.773972,-0.20078 1.168184,-0.26161 0.395029,-0.0661 0.792965,-0.10526 1.193126,-0.11645 0.398353,-0.0117 0.797543,0.006 1.193257,0.0545 0.136499,0.0144 0.272722,0.0322 0.408549,0.0527 0.135825,0.0205 0.270967,0.0419 0.406242,0.0642 0.034,-0.17247 0.0714,-0.34467 0.111621,-0.51563 0.04038,-0.17013 0.08967,-0.33836 0.148021,-0.50384 0.06844,-0.18698 0.150625,-0.36859 0.247076,-0.54233 0.097,-0.17557 0.204624,-0.34436 0.322844,-0.50639 0.116421,-0.16257 0.24345,-0.31838 0.379852,-0.46464 0.136546,-0.14542 0.28456,-0.27906 0.442386,-0.40065 0.143105,-0.11219 0.293927,-0.21454 0.449657,-0.30828 0.157395,-0.094 0.316345,-0.18403 0.477399,-0.27181"
             style="fill:#000000;fill-opacity:1;fill-rule:evenodd;stroke:#000000;stroke-width:1.03055513"
             id="path3799" />
        </g>
      </g>
    </g>
  </g>
</svg>
