<?xml version="1.0" encoding="UTF-8" standalone="no"?>
<!-- Created with Inkscape (http://www.inkscape.org/) -->

<svg
   xmlns:dc="http://purl.org/dc/elements/1.1/"
   xmlns:cc="http://creativecommons.org/ns#"
   xmlns:rdf="http://www.w3.org/1999/02/22-rdf-syntax-ns#"
   xmlns:svg="http://www.w3.org/2000/svg"
   xmlns="http://www.w3.org/2000/svg"
   xmlns:sodipodi="http://sodipodi.sourceforge.net/DTD/sodipodi-0.dtd"
   xmlns:inkscape="http://www.inkscape.org/namespaces/inkscape"
   width="60"
   height="60"
   id="svg2"
   version="1.1"
   inkscape:version="0.48.2 r9819"
   sodipodi:docname="Notice_A14.svg"
   style="display:inline"
   inkscape:export-filename="/Users/mherring/boatsw/oseam/openseamap/josm/icons/WindSurfing16.png"
   inkscape:export-xdpi="12"
   inkscape:export-ydpi="12">
  <defs
     id="defs4" />
  <sodipodi:namedview
     id="base"
     pagecolor="#ffffff"
     bordercolor="#666666"
     borderopacity="1.0"
     inkscape:pageopacity="0.0"
     inkscape:pageshadow="2"
     inkscape:zoom="7.5"
     inkscape:cx="-4.5333333"
     inkscape:cy="60"
     inkscape:document-units="px"
     inkscape:current-layer="layer17"
     showgrid="true"
     inkscape:window-width="1920"
     inkscape:window-height="1088"
     inkscape:window-x="0"
     inkscape:window-y="0"
     inkscape:window-maximized="0"
     inkscape:snap-global="false">
    <inkscape:grid
       type="xygrid"
       id="grid3004"
       empspacing="5"
       visible="true"
       enabled="true"
       snapvisiblegridlinesonly="true" />
  </sodipodi:namedview>
  <metadata
     id="metadata7">
    <rdf:RDF>
      <cc:Work
         rdf:about="">
        <dc:format>image/svg+xml</dc:format>
        <dc:type
           rdf:resource="http://purl.org/dc/dcmitype/StillImage" />
        <dc:title />
      </cc:Work>
    </rdf:RDF>
  </metadata>
  <g
     inkscape:groupmode="layer"
     id="layer17"
     inkscape:label="A14"
     style="display:inline"
     transform="translate(0,-60)">
    <g
       id="g6968"
       transform="matrix(0.97035075,0,0,0.97035075,-28.221013,31.778923)">
      <g
         inkscape:label="Ebene 1"
         id="layer1-38"
         transform="translate(17.142857,-55.219303)">
        <g
           id="g2935"
           transform="matrix(0.84346232,0,0,0.84345048,6.7087579,18.037526)">
          <path
             inkscape:connector-curvature="0"
             id="path20262"
             style="fill:none;stroke:#231f20;stroke-width:0.27824989;stroke-linecap:butt;stroke-linejoin:bevel;stroke-miterlimit:22.9260006;stroke-opacity:1;stroke-dasharray:none"
             d="m 12.148498,150.58495 61.4175,0 0.0175,0 0.01875,0 c 0.20125,-0.001 0.4025,-0.015 0.60125,-0.0425 0.2,-0.0275 0.3975,-0.0675 0.59125,-0.1225 0.195,-0.0513 0.385,-0.115 0.57125,-0.19375 0.18625,-0.0775 0.36625,-0.16875 0.53875,-0.27125 0.175,-0.1 0.3425,-0.2125 0.5025,-0.335 0.15875,-0.1225 0.31,-0.25625 0.45125,-0.39875 0.14375,-0.14125 0.2775,-0.2925 0.4,-0.4525 0.1225,-0.15875 0.235,-0.3275 0.335,-0.50125 0.10125,-0.17375 0.19125,-0.35375 0.26875,-0.54 0.0775,-0.185 0.1425,-0.37625 0.195,-0.57125 0.055,-0.19375 0.0975,-0.39125 0.125,-0.59125 0.02875,-0.19875 0.04125,-0.4 0.04,-0.6 l 0,-61.491249 c -0.0012,-0.20125 -0.015,-0.40125 -0.0425,-0.60125 -0.02625,-0.19875 -0.0675,-0.39625 -0.1225,-0.59 -0.05,-0.195 -0.115,-0.38625 -0.1925,-0.57125 -0.07875,-0.18625 -0.16875,-0.36625 -0.27125,-0.54 -0.10125,-0.175 -0.2125,-0.3425 -0.335,-0.50125 -0.1225,-0.16 -0.25625,-0.31125 -0.4,-0.4525 -0.14125,-0.1425 -0.2925,-0.27625 -0.45125,-0.39875 -0.16,-0.12375 -0.3275,-0.235 -0.5025,-0.335 -0.1725,-0.1025 -0.35375,-0.1925 -0.53875,-0.27 -0.18625,-0.0775 -0.3775,-0.1425 -0.57125,-0.195 -0.19375,-0.055 -0.39125,-0.09625 -0.59125,-0.125 -0.19875,-0.0275 -0.4,-0.04125 -0.60125,-0.04 l -61.49,0 c -0.20125,0.0012 -0.4025,0.015 -0.60125,0.0425 -0.2,0.0275 -0.3975,0.0675 -0.59125,0.1225 -0.195,0.05125 -0.38625,0.115 -0.57125,0.19375 -0.18625,0.0775 -0.3662498,0.16875 -0.5387498,0.27125 -0.175,0.1 -0.3425,0.21125 -0.5025,0.335 -0.15875,0.1225 -0.31,0.25625 -0.45125,0.39875 -0.14375,0.14125 -0.2775,0.2925 -0.4,0.4525 -0.1225,0.15875 -0.2349999,0.32625 -0.3337499,0.50125 -0.1025,0.17375 -0.1925,0.35375 -0.27,0.54 -0.0775,0.185 -0.14375,0.37625 -0.19625,0.57125 -0.05375,0.19375 -0.09625,0.39125 -0.12375,0.59 -0.02875,0.2 -0.04125,0.4 -0.04,0.60125 l 0,0.01875 -0.00125,0.01875 0,61.416249 0.00125,0.0188 0,0.0187 c 0.00125,0.20125 0.015,0.40125 0.04125,0.60125 0.0275,0.19875 0.06875,0.39625 0.1225,0.59 0.05125,0.195 0.11625,0.38625 0.19375,0.5725 0.07875,0.185 0.16875,0.365 0.2725,0.53875 0.1,0.17375 0.2112499,0.34125 0.3337499,0.50125 0.1225,0.16 0.25625,0.31125 0.4,0.4525 0.14125,0.1425 0.2925,0.27625 0.45125,0.39875 0.16,0.1225 0.3275,0.235 0.5025,0.335 0.1725,0.1025 0.3537498,0.1925 0.5387498,0.27 0.18625,0.0775 0.37625,0.1425 0.57125,0.195 0.19375,0.055 0.39125,0.0962 0.59125,0.125 0.19875,0.0275 0.4,0.0412 0.60125,0.04 l 0.01875,0 0.0175,0 z" />
          <path
             inkscape:connector-curvature="0"
             id="path20266"
             style="fill:#ffffff;fill-opacity:1;fill-rule:evenodd;stroke:#000000;stroke-width:2.44364762;stroke-linecap:butt;stroke-linejoin:bevel;stroke-miterlimit:22.9260006;stroke-opacity:1;stroke-dasharray:none"
             d="m 12.148498,150.65245 -0.03625,0 c -0.205,-10e-4 -0.40875,-0.015 -0.61125,-0.0425 -0.2025,-0.0275 -0.4025,-0.07 -0.59875,-0.125 -0.1975,-0.0513 -0.39125,-0.11625 -0.58,-0.19625 -0.18875,-0.0788 -0.3712498,-0.17125 -0.5462498,-0.275 -0.1775,-0.1025 -0.3475,-0.215 -0.51,-0.34 -0.16125,-0.12375 -0.315,-0.26 -0.45875,-0.405 -0.145,-0.14375 -0.28,-0.29625 -0.405,-0.45875 -0.1249999,-0.16125 -0.2374999,-0.33125 -0.3387499,-0.50875 -0.10375,-0.17625 -0.195,-0.35875 -0.27375,-0.5475 -0.07875,-0.18875 -0.145,-0.38125 -0.1975,-0.57875 -0.05625,-0.1975 -0.09875,-0.3975 -0.1275,-0.6 -0.02875,-0.2025 -0.0425,-0.40625 -0.04,-0.61 l 0,-61.491249 c 0.00125,-0.20375 0.015,-0.4075 0.0425,-0.61 0.0275,-0.2025 0.06875,-0.4025 0.125,-0.6 0.05,-0.1975 0.11625,-0.39125 0.195,-0.57875 0.08,-0.18875 0.17125,-0.37125 0.27625,-0.5475 0.10125,-0.17625 0.215,-0.34625 0.3387499,-0.50875 0.125,-0.16125 0.26,-0.315 0.405,-0.45875 0.14375,-0.145 0.2975,-0.28125 0.45875,-0.40625 0.1625,-0.12375 0.3325,-0.23625 0.51,-0.33875 0.175,-0.10375 0.3574998,-0.195 0.5462498,-0.27375 0.18875,-0.07875 0.3825,-0.145 0.58,-0.1975 0.19625,-0.05625 0.39625,-0.0975 0.6,-0.12625 0.20125,-0.02875 0.405,-0.0425 0.61,-0.04125 l 61.49125,0 c 0.20375,0.0012 0.4075,0.01625 0.61,0.04375 0.20125,0.0275 0.4025,0.06875 0.59875,0.12375 0.1975,0.05125 0.39125,0.1175 0.58,0.19625 0.18875,0.07875 0.37125,0.17125 0.54625,0.275 0.1775,0.1025 0.3475,0.21625 0.50875,0.34 0.1625,0.125 0.31625,0.26 0.46,0.405 0.145,0.14375 0.28,0.2975 0.405,0.45875 0.125,0.1625 0.2375,0.33125 0.33875,0.50875 0.10375,0.17625 0.195,0.35875 0.27375,0.5475 0.07875,0.18875 0.145,0.38125 0.1975,0.57875 0.05625,0.1975 0.09875,0.3975 0.1275,0.6 0.0275,0.2025 0.04125,0.40625 0.04,0.61 l 0,61.491249 c -0.0012,0.20375 -0.015,0.4075 -0.0425,0.61 -0.0275,0.2025 -0.06875,0.4025 -0.125,0.6 -0.05125,0.1975 -0.11625,0.39125 -0.19625,0.58 -0.07875,0.1875 -0.17125,0.37 -0.275,0.54625 -0.10125,0.1775 -0.215,0.3475 -0.33875,0.50875 -0.125,0.1625 -0.26,0.315 -0.405,0.45875 -0.14375,0.145 -0.2975,0.28125 -0.46,0.405 -0.16125,0.125 -0.33125,0.23875 -0.50875,0.34 -0.17625,0.1025 -0.3575,0.195 -0.54625,0.27375 -0.18875,0.0787 -0.3825,0.145 -0.58,0.1975 -0.19625,0.0563 -0.3975,0.0975 -0.6,0.12625 -0.20125,0.0288 -0.405,0.0425 -0.60875,0.0412 l -61.455,0 z" />
          <path
             inkscape:connector-curvature="0"
             id="path20270"
             style="fill:#e72512;fill-opacity:1;fill-rule:evenodd;stroke:none"
             d="m 12.57248,148.41615 60.591514,0 c 0.126972,-9.8e-4 0.251479,-0.01 0.375985,-0.0271 0.125739,-0.0161 0.249013,-0.0419 0.369821,-0.0764 0.122041,-0.0308 0.241617,-0.0715 0.357494,-0.12081 0.115878,-0.048 0.228057,-0.10478 0.336538,-0.16889 0.109713,-0.0641 0.214496,-0.13313 0.314348,-0.20957 0.09985,-0.0776 0.194772,-0.16025 0.283529,-0.25024 0.08876,-0.0888 0.172584,-0.18245 0.249013,-0.28231 0.07643,-0.0999 0.146696,-0.20463 0.208333,-0.31435 0.0641,-0.10848 0.120808,-0.22066 0.170118,-0.33654 0.04808,-0.11588 0.08876,-0.23546 0.120808,-0.3575 0.03452,-0.12081 0.0604,-0.24408 0.07766,-0.36982 0.01849,-0.12451 0.02712,-0.25025 0.02589,-0.376 l 0,-60.615774 c -0.0012,-0.125741 -0.0099,-0.250249 -0.02589,-0.37599 -0.01726,-0.124508 -0.04314,-0.247783 -0.07766,-0.368593 -0.03082,-0.122043 -0.0715,-0.24162 -0.120808,-0.357499 -0.04931,-0.115879 -0.104783,-0.229293 -0.170118,-0.336542 -0.06164,-0.109715 -0.131903,-0.214499 -0.208333,-0.314353 -0.07643,-0.09985 -0.160256,-0.194775 -0.249013,-0.283533 -0.08876,-0.08876 -0.183678,-0.172586 -0.283529,-0.249017 -0.09985,-0.07643 -0.204635,-0.146697 -0.314348,-0.209568 -0.108481,-0.06287 -0.22066,-0.119577 -0.336538,-0.168887 -0.115877,-0.04808 -0.235453,-0.08876 -0.357494,-0.122043 -0.120808,-0.03328 -0.244082,-0.05917 -0.369821,-0.07766 -0.124506,-0.01726 -0.249013,-0.02589 -0.375985,-0.02466 l -60.613703,0 c -0.125739,0.0012 -0.251478,0.0099 -0.375985,0.02589 -0.125739,0.01726 -0.249013,0.04315 -0.369821,0.07643 -0.122041,0.03205 -0.241617,0.07273 -0.357494,0.122043 -0.115877,0.04808 -0.228056,0.104784 -0.336537,0.168887 -0.109714,0.06287 -0.214497,0.133138 -0.314348,0.209568 -0.09985,0.07643 -0.194773,0.160259 -0.282297,0.249017 -0.08999,0.08876 -0.173815,0.18368 -0.250245,0.283533 -0.07643,0.09985 -0.146696,0.204638 -0.209565,0.314353 -0.06287,0.108482 -0.1195763,0.220663 -0.1676531,0.336542 -0.049309,0.115879 -0.08999,0.235456 -0.1232737,0.357499 -0.033284,0.12081 -0.060404,0.244085 -0.077663,0.369826 -0.017258,0.124508 -0.025887,0.249016 -0.024655,0.374757 l 0,60.615774 c 0,0.12575 0.00986,0.25149 0.025887,0.376 0.017258,0.12574 0.043146,0.24901 0.07643,0.36982 0.032051,0.12204 0.072731,0.24162 0.122041,0.3575 0.048077,0.11588 0.1047827,0.22806 0.1688858,0.33654 0.06287,0.10972 0.133135,0.2145 0.209565,0.31435 0.07766,0.0999 0.160256,0.19355 0.250245,0.28231 0.08752,0.09 0.182445,0.17381 0.282297,0.25024 0.09985,0.0764 0.204634,0.1467 0.314348,0.20957 0.108481,0.0628 0.22066,0.11958 0.336537,0.16766 0.115877,0.0493 0.235453,0.09 0.357494,0.12204 0.120808,0.0345 0.244082,0.0605 0.369821,0.0789 0.124507,0.0173 0.250246,0.0259 0.375985,0.0246 l 0.02219,0 z" />
          <path
             inkscape:connector-curvature="0"
             id="path20274"
             style="fill:#ffffff;fill-opacity:1;fill-rule:evenodd;stroke:none"
             d="m 59.320998,138.8412 -40.085,-40.085 0,40.085 40.085,0" />
          <path
             inkscape:connector-curvature="0"
             id="path20278"
             style="fill:#ffffff;fill-opacity:1;fill-rule:evenodd;stroke:none"
             d="m 66.478498,131.6837 0,-40.085 -40.085,0 40.085,40.085" />
          <path
             inkscape:connector-curvature="0"
             id="path20282"
             style="fill:#000000;fill-opacity:1;fill-rule:evenodd;stroke:none"
             d="m 34.004748,131.0762 -6.01375,-0.805 c -0.07625,0 -0.15375,-0.0125 -0.22625,-0.035 -0.11375,-0.0288 -0.225,-0.06 -0.33625,-0.0937 -0.22,-0.0637 -0.43625,-0.135 -0.65,-0.21625 -0.1875,-0.0725 -0.36875,-0.15875 -0.5425,-0.26 -0.1875,-0.10375 -0.3675,-0.22125 -0.53875,-0.34875 -0.1725,-0.12875 -0.33625,-0.26875 -0.49,-0.41875 -0.04,-0.0375 -0.0775,-0.0762 -0.11625,-0.115 -0.04,-0.0413 -0.07875,-0.0838 -0.1175,-0.12625 -0.12375,-0.135 -0.24375,-0.27375 -0.35875,-0.415 -0.0875,-0.0975 -0.15875,-0.20875 -0.21375,-0.3275 -0.01,-0.0188 -0.0225,-0.0363 -0.0375,-0.0525 -0.015,-0.0162 -0.0325,-0.0325 -0.05,-0.0487 -0.0225,-0.02 -0.04375,-0.04 -0.0675,-0.0588 -0.0225,-0.0175 -0.045,-0.035 -0.07,-0.05 -0.025,-0.015 -0.05125,-0.0288 -0.0775,-0.04 -0.0275,-0.0113 -0.055,-0.0213 -0.08375,-0.0288 -0.0275,-0.008 -0.05625,-0.0138 -0.08625,-0.0187 -0.02875,-0.004 -0.0575,-0.006 -0.08625,-0.006 -0.03,-0.001 -0.05875,10e-4 -0.08875,0.004 -0.02875,0.004 -0.0575,0.009 -0.08625,0.0163 -0.0275,0.007 -0.05625,0.0162 -0.0825,0.0275 -0.0275,0.01 -0.05375,0.0238 -0.08,0.0375 -0.025,0.015 -0.05,0.03 -0.07375,0.0475 -0.0225,0.0175 -0.045,0.0375 -0.06625,0.0575 -0.02125,0.02 -0.04,0.0425 -0.05875,0.065 -0.0175,0.0237 -0.035,0.0475 -0.05,0.0725 -0.015,0.025 -0.0275,0.0512 -0.04,0.0787 -0.01125,0.0263 -0.02125,0.0538 -0.02875,0.0825 -0.0075,0.0288 -0.01375,0.0575 -0.01875,0.0863 -0.0038,0.0287 -0.0063,0.0575 -0.0063,0.0875 0,0.0275 0.0013,0.0563 0.005,0.085 0.0038,0.03 0.0088,0.0588 0.015,0.0875 0.0087,0.0387 0.01875,0.0762 0.03375,0.1125 0.0125,0.0338 0.0325,0.0637 0.05875,0.09 l 0.02625,0.035 0.02625,0.0363 c 0.13125,0.17625 0.26375,0.35125 0.39875,0.525 0.135,0.17375 0.2775,0.34 0.43,0.49875 0.185,0.2 0.38625,0.385 0.60125,0.5525 0.21625,0.16875 0.44375,0.3225 0.68125,0.45875 0.235,0.14125 0.47875,0.265 0.73,0.37375 0.25125,0.1075 0.50875,0.19875 0.77125,0.27125 0.12875,0.0375 0.25875,0.0713 0.39,0.10125 0.13125,0.0312 0.26125,0.0613 0.3925,0.0887 l 20.1425,2.7275 0,-1.34125 -8.495,-1.1175 4.57,-6.90375 c 0.01625,-0.0288 0.035,-0.0575 0.05625,-0.085 0.0275,-0.0375 0.05625,-0.075 0.08625,-0.11125 0.0425,-0.0538 0.0875,-0.105 0.13375,-0.155 0.04,-0.0438 0.08125,-0.0863 0.12375,-0.12875 0.0875,-0.0875 0.17875,-0.16875 0.2775,-0.24375 0.12,-0.09 0.24625,-0.1725 0.3775,-0.245 0.08125,-0.0475 0.165,-0.0925 0.25,-0.135 0.05,-0.03 0.10375,-0.05 0.16125,-0.0625 l 6.0575,-1.6775 c 0.01875,-0.004 0.0375,-0.01 0.055,-0.0162 0.02125,-0.007 0.04125,-0.015 0.06125,-0.0237 0.0875,-0.0337 0.175,-0.0688 0.26,-0.10625 0.08125,-0.0362 0.16,-0.075 0.2375,-0.11875 0.1175,-0.0637 0.23125,-0.13625 0.34,-0.2175 0.11125,-0.0825 0.21625,-0.1725 0.31375,-0.27125 0.1,-0.095 0.1925,-0.1975 0.2775,-0.30625 0.08375,-0.10625 0.16,-0.21875 0.22875,-0.335 0.01875,-0.03 0.03625,-0.06 0.0525,-0.0913 0.01875,-0.0312 0.035,-0.0637 0.0525,-0.0962 0.0088,-0.0162 0.01625,-0.0325 0.02375,-0.0487 0.0075,-0.015 0.01375,-0.03 0.02,-0.045 l 5.25375,-11.80375 c 0.03125,-0.03 0.05875,-0.0638 0.08125,-0.10125 0.025,-0.04 0.04875,-0.0812 0.07,-0.12375 0.0375,-0.07 0.0725,-0.14125 0.105,-0.21375 0.03125,-0.07 0.0575,-0.1425 0.07875,-0.21625 0.0225,-0.0738 0.04,-0.15 0.05125,-0.22625 0.01,-0.0775 0.01625,-0.15625 0.01625,-0.235 0.0012,-0.0787 -0.0025,-0.15625 -0.01125,-0.23375 -0.01,-0.0775 -0.02375,-0.155 -0.04375,-0.23 -0.01875,-0.0762 -0.0425,-0.15 -0.07125,-0.2225 -0.02875,-0.0725 -0.0625,-0.14375 -0.10125,-0.21125 -0.0375,-0.0688 -0.08,-0.13375 -0.1275,-0.19625 -0.04625,-0.0625 -0.0975,-0.1225 -0.1525,-0.1775 -0.05375,-0.0563 -0.11125,-0.10875 -0.1725,-0.1575 -0.0625,-0.0487 -0.12625,-0.0925 -0.19375,-0.13125 -0.0675,-0.0412 -0.13625,-0.0763 -0.20875,-0.1075 -0.07125,-0.0312 -0.145,-0.0575 -0.22,-0.0775 -0.075,-0.0212 -0.15125,-0.0375 -0.22875,-0.0487 -0.0775,-0.01 -0.155,-0.0162 -0.23375,-0.0175 -0.0775,-0.002 -0.15625,0 -0.23375,0.008 -0.0775,0.009 -0.155,0.0237 -0.23,0.0475 -0.0087,10e-4 -0.0175,0.005 -0.02625,0.007 -0.0087,0.002 -0.01625,0.005 -0.025,0.009 l -16.02875,3.9525 -17.45875,0 0,0.89375 15.74625,0 0.79625,3.57625 11.1775,-2.235 -1.9675,4.64125 c -0.01125,0.0312 -0.025,0.0613 -0.04,0.09 -0.01875,0.035 -0.03625,0.0712 -0.05625,0.10625 -0.095,0.1825 -0.19875,0.36125 -0.30875,0.535 -0.10375,0.1625 -0.225,0.31125 -0.3625,0.44625 -0.09375,0.0975 -0.19625,0.18625 -0.305,0.2675 -0.11125,0.0825 -0.2275,0.15625 -0.35,0.22125 -0.11875,0.0662 -0.24125,0.12375 -0.36875,0.1725 -0.1275,0.05 -0.2575,0.0937 -0.38875,0.13 l -0.0175,0.005 -0.01625,0.004 -3.95625,1.13875 c -0.02625,0.008 -0.0525,0.015 -0.07875,0.0263 -0.03125,0.0125 -0.06375,0.025 -0.095,0.0387 -0.06625,0.0275 -0.1325,0.0563 -0.19625,0.0863 -0.06,0.0288 -0.11875,0.0588 -0.17625,0.0913 -0.1175,0.0662 -0.23125,0.14 -0.33875,0.2225 -0.11,0.0825 -0.215,0.17125 -0.315,0.26625 -0.06875,0.0625 -0.13375,0.12875 -0.195,0.1975 -0.06375,0.0712 -0.12,0.1475 -0.17,0.22875 -0.005,0.008 -0.01,0.015 -0.01375,0.0225 -0.005,0.007 -0.0087,0.015 -0.0125,0.0225 l -7.26125,10.15375" />
          <path
             inkscape:connector-curvature="0"
             id="path20286"
             style="fill:#000000;fill-opacity:1;fill-rule:evenodd;stroke:none"
             d="m 59.042248,101.6787 0,0.02 0,0.0212 c -0.0012,0.13625 -0.0125,0.2725 -0.03125,0.4075 -0.02,0.135 -0.0475,0.26875 -0.08625,0.4 -0.035,0.1325 -0.08,0.2625 -0.135,0.3875 -0.05375,0.125 -0.11625,0.2475 -0.1875,0.36375 -0.06875,0.1175 -0.14625,0.23125 -0.23125,0.33875 -0.08375,0.10625 -0.17625,0.2075 -0.275,0.3025 -0.09625,0.0962 -0.20125,0.185 -0.31,0.2675 -0.11,0.0812 -0.225,0.15625 -0.34375,0.22125 -0.11875,0.0688 -0.2425,0.1275 -0.37,0.1775 -0.12625,0.0512 -0.25625,0.0925 -0.39,0.12625 -0.13125,0.0337 -0.26625,0.06 -0.40125,0.075 -0.13625,0.0162 -0.2725,0.0237 -0.41,0.0212 -0.13625,-0.001 -0.2725,-0.0113 -0.4075,-0.0312 -0.13625,-0.02 -0.26875,-0.0487 -0.40125,-0.0863 -0.13125,-0.0362 -0.26,-0.0812 -0.38625,-0.13625 -0.125,-0.0538 -0.24625,-0.11625 -0.36375,-0.18625 -0.1175,-0.0688 -0.23125,-0.14625 -0.33875,-0.23125 -0.1075,-0.085 -0.20875,-0.17625 -0.3025,-0.275 -0.09625,-0.0975 -0.18625,-0.20125 -0.2675,-0.31 -0.08125,-0.11 -0.155,-0.225 -0.22125,-0.345 -0.0675,-0.11875 -0.1275,-0.24125 -0.17875,-0.36875 -0.05,-0.12625 -0.09125,-0.2575 -0.125,-0.39 -0.03375,-0.1325 -0.05875,-0.26625 -0.075,-0.4025 -0.01625,-0.135 -0.02375,-0.27125 -0.02,-0.40875 0,-0.13625 0.01125,-0.2725 0.03,-0.4075 0.02,-0.13625 0.04875,-0.27 0.08625,-0.40125 0.03625,-0.13125 0.0825,-0.26 0.13625,-0.38625 0.05375,-0.125 0.11625,-0.2475 0.18625,-0.36375 0.07,-0.11875 0.14625,-0.23125 0.23125,-0.33875 0.085,-0.1075 0.17625,-0.20875 0.275,-0.30375 0.0975,-0.095 0.20125,-0.185 0.31,-0.26625 0.11,-0.0825 0.225,-0.15625 0.345,-0.2225 0.11875,-0.0675 0.24125,-0.12625 0.36875,-0.1775 0.1275,-0.05 0.2575,-0.0925 0.39,-0.125 0.1325,-0.03375 0.26625,-0.06 0.4025,-0.07625 0.135,-0.015 0.2725,-0.0225 0.40875,-0.02 0.13625,0.0013 0.2725,0.01125 0.40875,0.03125 0.135,0.02 0.26875,0.04875 0.4,0.08625 0.13125,0.03625 0.26125,0.08125 0.38625,0.13625 0.12625,0.05375 0.2475,0.11625 0.36375,0.18625 0.11875,0.07 0.23125,0.14625 0.33875,0.23125 0.1075,0.085 0.20875,0.17625 0.30375,0.275 0.095,0.09625 0.185,0.2 0.26625,0.31 0.0825,0.11 0.15625,0.225 0.2225,0.345 0.0675,0.11875 0.12625,0.24125 0.1775,0.36875 0.05,0.12625 0.0925,0.25625 0.125,0.38875 0.0325,0.12625 0.0575,0.25375 0.07375,0.38375 0.01625,0.12875 0.02375,0.2575 0.0225,0.3875" />
        </g>
      </g>
    </g>
  </g>
</svg>
