<?xml version="1.0" encoding="UTF-8" standalone="no"?>
<!-- Created with Inkscape (http://www.inkscape.org/) -->

<svg
   xmlns:dc="http://purl.org/dc/elements/1.1/"
   xmlns:cc="http://creativecommons.org/ns#"
   xmlns:rdf="http://www.w3.org/1999/02/22-rdf-syntax-ns#"
   xmlns:svg="http://www.w3.org/2000/svg"
   xmlns="http://www.w3.org/2000/svg"
   xmlns:sodipodi="http://sodipodi.sourceforge.net/DTD/sodipodi-0.dtd"
   xmlns:inkscape="http://www.inkscape.org/namespaces/inkscape"
   width="60"
   height="60"
   id="svg2"
   version="1.1"
   inkscape:version="0.48.2 r9819"
   sodipodi:docname="Notice_E8.svg"
   style="display:inline"
   inkscape:export-filename="/Users/mherring/boatsw/oseam/openseamap/josm/icons/WindSurfing16.png"
   inkscape:export-xdpi="12"
   inkscape:export-ydpi="12">
  <defs
     id="defs4" />
  <sodipodi:namedview
     id="base"
     pagecolor="#ffffff"
     bordercolor="#666666"
     borderopacity="1.0"
     inkscape:pageopacity="0.0"
     inkscape:pageshadow="2"
     inkscape:zoom="5.3032952"
     inkscape:cx="14.367998"
     inkscape:cy="59.084222"
     inkscape:document-units="px"
     inkscape:current-layer="layer26"
     showgrid="true"
     inkscape:window-width="1920"
     inkscape:window-height="1088"
     inkscape:window-x="0"
     inkscape:window-y="0"
     inkscape:window-maximized="1"
     inkscape:snap-global="false">
    <inkscape:grid
       type="xygrid"
       id="grid3004"
       empspacing="5"
       visible="true"
       enabled="true"
       snapvisiblegridlinesonly="true" />
  </sodipodi:namedview>
  <metadata
     id="metadata7">
    <rdf:RDF>
      <cc:Work
         rdf:about="">
        <dc:format>image/svg+xml</dc:format>
        <dc:type
           rdf:resource="http://purl.org/dc/dcmitype/StillImage" />
        <dc:title />
      </cc:Work>
    </rdf:RDF>
  </metadata>
  <g
     inkscape:groupmode="layer"
     id="layer26"
     inkscape:label="E8"
     style="display:inline"
     transform="translate(0,-60)">
    <g
       transform="matrix(0.97034969,0,0,0.97035072,-309.62239,-426.57806)"
       id="layer1-431"
       inkscape:label="Ebene 1">
      <g
         transform="matrix(0.84345072,0,0,0.8434498,54.792249,83.341405)"
         id="g3089">
        <g
           id="g3565"
           transform="matrix(0,1.25,1.25,0,318.81933,567.72781)"
           style="fill:#ffffff;stroke:#000000;stroke-width:1.03055573">
          <path
             d="m 0,0 0,49.89 0,0.013 0,0.013 c -0.001,0.145 -0.011,0.289 -0.031,0.432 -0.019,0.144 -0.048,0.286 -0.088,0.425 -0.036,0.14 -0.083,0.278 -0.139,0.411 -0.056,0.133 -0.121,0.263 -0.195,0.387 -0.072,0.126 -0.153,0.246 -0.241,0.361 -0.088,0.114 -0.184,0.223 -0.287,0.325 -0.101,0.103 -0.21,0.199 -0.324,0.287 -0.115,0.088 -0.236,0.169 -0.361,0.24 -0.125,0.074 -0.254,0.138 -0.388,0.194 -0.133,0.056 -0.271,0.103 -0.41,0.14 -0.14,0.04 -0.282,0.07 -0.425,0.09 -0.144,0.02 -0.288,0.03 -0.432,0.029 l -49.943,0 c -0.144,-0.001 -0.289,-0.011 -0.432,-0.03 -0.144,-0.019 -0.285,-0.049 -0.425,-0.089 -0.14,-0.036 -0.277,-0.082 -0.411,-0.138 -0.133,-0.057 -0.262,-0.122 -0.387,-0.196 -0.125,-0.071 -0.246,-0.152 -0.361,-0.24 -0.114,-0.088 -0.223,-0.184 -0.324,-0.287 -0.104,-0.102 -0.199,-0.211 -0.288,-0.325 -0.088,-0.115 -0.168,-0.235 -0.24,-0.361 -0.073,-0.125 -0.138,-0.254 -0.194,-0.387 -0.056,-0.134 -0.103,-0.271 -0.14,-0.411 -0.04,-0.139 -0.07,-0.281 -0.09,-0.425 -0.02,-0.143 -0.03,-0.288 -0.029,-0.432 l 0,-49.942 c 10e-4,-0.145 0.011,-0.289 0.03,-0.433 0.02,-0.143 0.049,-0.285 0.089,-0.424 0.036,-0.14 0.082,-0.278 0.138,-0.411 0.057,-0.134 0.122,-0.263 0.196,-0.387 0.072,-0.126 0.152,-0.247 0.24,-0.361 0.089,-0.115 0.184,-0.223 0.288,-0.325 0.101,-0.103 0.21,-0.199 0.324,-0.287 0.115,-0.088 0.236,-0.169 0.361,-0.241 0.125,-0.073 0.255,-0.138 0.388,-0.194 0.133,-0.055 0.27,-0.102 0.41,-0.14 0.14,-0.039 0.282,-0.069 0.425,-0.09 0.143,-0.02 0.288,-0.03 0.432,-0.028 l 0.013,0 0.014,-10e-4 49.889,0 0.013,10e-4 0.014,0 c 0.144,0 0.288,0.01 0.432,0.03 0.143,0.019 0.285,0.049 0.425,0.088 0.14,0.036 0.277,0.083 0.41,0.139 0.134,0.056 0.263,0.121 0.388,0.195 0.125,0.072 0.246,0.153 0.36,0.241 0.115,0.088 0.224,0.184 0.325,0.287 0.103,0.102 0.199,0.21 0.288,0.325 0.088,0.114 0.168,0.235 0.24,0.361 0.073,0.124 0.138,0.254 0.194,0.387 0.056,0.134 0.103,0.271 0.14,0.411 0.04,0.139 0.07,0.281 0.09,0.425 0.02,0.143 0.03,0.287 0.029,0.432 L 0,-0.013 0,0 z"
             style="fill:#ffffff;stroke:#000000;stroke-width:0.22260006;stroke-linecap:butt;stroke-linejoin:bevel;stroke-miterlimit:22.9260006;stroke-opacity:1;stroke-dasharray:none"
             id="path3567"
             inkscape:connector-curvature="0" />
          <g
             id="g3569"
             transform="translate(0.054,0)"
             style="fill:#ffffff;stroke:#000000;stroke-width:1.03055573">
            <path
               d="M 0,0 0,-0.027 C -0.001,-0.174 -0.011,-0.32 -0.031,-0.466 -0.05,-0.612 -0.081,-0.756 -0.12,-0.897 -0.157,-1.04 -0.205,-1.179 -0.262,-1.315 -0.319,-1.45 -0.385,-1.582 -0.46,-1.708 -0.533,-1.836 -0.615,-1.958 -0.705,-2.075 -0.794,-2.192 -0.892,-2.302 -0.996,-2.405 -1.1,-2.51 -1.21,-2.608 -1.326,-2.697 c -0.117,-0.09 -0.239,-0.171 -0.367,-0.244 -0.127,-0.075 -0.258,-0.141 -0.394,-0.198 -0.136,-0.056 -0.275,-0.104 -0.417,-0.142 -0.142,-0.04 -0.286,-0.071 -0.432,-0.091 -0.145,-0.021 -0.292,-0.03 -0.439,-0.03 l -49.943,0 c -0.147,0.001 -0.294,0.012 -0.439,0.031 -0.146,0.02 -0.29,0.05 -0.432,0.09 -0.142,0.037 -0.282,0.084 -0.418,0.141 -0.135,0.057 -0.266,0.123 -0.392,0.199 -0.128,0.073 -0.251,0.155 -0.367,0.244 -0.117,0.09 -0.227,0.187 -0.331,0.292 -0.104,0.103 -0.202,0.213 -0.291,0.33 -0.09,0.116 -0.172,0.239 -0.245,0.367 -0.074,0.126 -0.14,0.258 -0.197,0.393 -0.057,0.136 -0.104,0.275 -0.142,0.418 -0.041,0.141 -0.071,0.285 -0.092,0.431 -0.02,0.146 -0.03,0.293 -0.029,0.439 l 0,49.943 c 10e-4,0.147 0.011,0.294 0.031,0.44 0.02,0.145 0.05,0.289 0.09,0.431 0.036,0.143 0.084,0.282 0.141,0.418 0.057,0.135 0.123,0.267 0.198,0.393 0.073,0.128 0.155,0.25 0.245,0.367 0.089,0.116 0.187,0.227 0.291,0.33 0.104,0.105 0.214,0.202 0.331,0.292 0.116,0.09 0.239,0.171 0.367,0.244 0.126,0.075 0.257,0.141 0.393,0.197 0.136,0.057 0.275,0.105 0.417,0.143 0.142,0.04 0.286,0.07 0.432,0.091 0.145,0.021 0.292,0.03 0.439,0.029 l 49.943,0 c 0.147,-10e-4 0.294,-0.011 0.439,-0.031 0.146,-0.019 0.29,-0.049 0.432,-0.089 0.142,-0.037 0.282,-0.084 0.417,-0.142 0.136,-0.057 0.267,-0.123 0.394,-0.198 0.127,-0.073 0.25,-0.155 0.367,-0.244 0.116,-0.09 0.226,-0.187 0.33,-0.292 0.105,-0.103 0.202,-0.214 0.292,-0.33 0.089,-0.117 0.171,-0.239 0.244,-0.367 0.075,-0.127 0.14,-0.258 0.197,-0.394 0.057,-0.135 0.104,-0.275 0.143,-0.417 0.039,-0.142 0.07,-0.286 0.091,-0.432 C -0.009,50.21 0.001,50.063 0,49.916 L 0,0 z"
               style="fill:#ffffff;stroke:#000000;stroke-width:1.95493352;stroke-linecap:butt;stroke-linejoin:bevel;stroke-miterlimit:22.9260006;stroke-opacity:1;stroke-dasharray:none"
               id="path3571"
               inkscape:connector-curvature="0" />
          </g>
        </g>
        <g
           id="g3573"
           transform="matrix(0,1.25,1.25,0,318.81933,564.75781)"
           style="fill:#003399;fill-opacity:1">
          <path
             d="m 0,0 0,-0.008 c 0,-0.042 -0.003,-0.084 -0.009,-0.125 -0.005,-0.042 -0.014,-0.083 -0.026,-0.124 -0.01,-0.04 -0.024,-0.08 -0.04,-0.119 -0.016,-0.038 -0.035,-0.076 -0.057,-0.112 -0.021,-0.037 -0.044,-0.072 -0.07,-0.105 -0.025,-0.033 -0.053,-0.065 -0.083,-0.094 -0.029,-0.03 -0.061,-0.058 -0.094,-0.084 -0.033,-0.025 -0.068,-0.048 -0.105,-0.069 -0.036,-0.022 -0.074,-0.04 -0.112,-0.057 -0.039,-0.016 -0.079,-0.03 -0.119,-0.04 -0.041,-0.012 -0.082,-0.021 -0.124,-0.026 -0.041,-0.006 -0.083,-0.009 -0.125,-0.009 l -0.008,0 -49.89,0 -0.007,0 c -0.042,0 -0.084,0.003 -0.126,0.009 -0.041,0.005 -0.083,0.014 -0.123,0.026 -0.041,0.01 -0.081,0.024 -0.119,0.04 -0.039,0.016 -0.077,0.035 -0.113,0.057 -0.036,0.021 -0.071,0.044 -0.104,0.07 -0.034,0.025 -0.065,0.053 -0.095,0.083 -0.03,0.029 -0.058,0.061 -0.083,0.094 -0.026,0.033 -0.049,0.068 -0.07,0.105 -0.021,0.036 -0.04,0.074 -0.057,0.112 -0.016,0.039 -0.029,0.079 -0.04,0.119 -0.011,0.041 -0.02,0.082 -0.026,0.124 -0.006,0.041 -0.009,0.083 -0.008,0.125 l 0,49.905 c 0,0.042 0.002,0.084 0.008,0.126 0.006,0.041 0.015,0.083 0.026,0.123 0.01,0.041 0.024,0.081 0.04,0.119 0.017,0.039 0.036,0.077 0.057,0.113 0.021,0.036 0.044,0.071 0.07,0.104 0.025,0.034 0.053,0.065 0.083,0.095 0.03,0.03 0.061,0.058 0.095,0.083 0.033,0.026 0.068,0.049 0.104,0.07 0.036,0.021 0.074,0.04 0.113,0.057 0.038,0.016 0.078,0.029 0.119,0.04 0.04,0.012 0.082,0.02 0.123,0.026 0.042,0.006 0.084,0.009 0.126,0.008 l 49.905,0 c 0.042,0 0.084,-0.002 0.125,-0.008 0.042,-0.006 0.083,-0.014 0.124,-0.026 0.04,-0.01 0.08,-0.024 0.119,-0.04 0.038,-0.016 0.076,-0.035 0.112,-0.057 0.037,-0.021 0.072,-0.044 0.105,-0.07 0.033,-0.025 0.065,-0.053 0.094,-0.083 0.03,-0.03 0.058,-0.061 0.084,-0.095 0.025,-0.033 0.048,-0.068 0.069,-0.104 0.022,-0.036 0.04,-0.074 0.057,-0.113 0.016,-0.038 0.03,-0.078 0.04,-0.119 0.012,-0.04 0.021,-0.082 0.027,-0.123 C -0.003,49.981 0,49.939 0,49.897 L 0,49.89 0,0"
             style="fill:#003399;fill-opacity:1;fill-rule:evenodd;stroke:none"
             id="path3575"
             inkscape:connector-curvature="0" />
        </g>
        <g
           id="g3577"
           transform="matrix(0,1.25,1.25,0,366.11808,517.97156)">
          <path
             d="M 0,0 -0.026,-0.025 -0.053,-0.05 c -0.137,-0.129 -0.274,-0.259 -0.41,-0.39 -0.136,-0.13 -0.269,-0.263 -0.402,-0.398 -0.53,-0.535 -1.023,-1.107 -1.474,-1.71 -0.453,-0.605 -0.862,-1.241 -1.224,-1.904 -0.376,-0.654 -0.705,-1.334 -0.983,-2.036 -0.279,-0.701 -0.509,-1.42 -0.688,-2.153 -0.191,-0.73 -0.331,-1.472 -0.42,-2.221 -0.088,-0.749 -0.126,-1.504 -0.111,-2.258 0.005,-0.754 0.062,-1.508 0.17,-2.254 0.108,-0.747 0.268,-1.485 0.477,-2.21 0.201,-0.727 0.45,-1.44 0.748,-2.133 0.298,-0.693 0.643,-1.365 1.033,-2.011 0.381,-0.651 0.807,-1.275 1.274,-1.867 0.467,-0.592 0.975,-1.152 1.519,-1.675 0.536,-0.53 1.109,-1.022 1.714,-1.474 0.604,-0.451 1.239,-0.86 1.899,-1.225 0.656,-0.373 1.337,-0.7 2.037,-0.98 0.701,-0.279 1.42,-0.51 2.153,-0.691 0.73,-0.19 1.472,-0.33 2.221,-0.419 0.749,-0.089 1.503,-0.126 2.258,-0.111 0.754,0.005 1.507,0.062 2.254,0.17 0.747,0.108 1.485,0.267 2.209,0.477 0.728,0.2 1.441,0.45 2.134,0.748 0.693,0.298 1.365,0.643 2.011,1.033 0.651,0.381 1.274,0.807 1.867,1.274 0.592,0.467 1.152,0.974 1.675,1.518 0.53,0.537 1.022,1.109 1.474,1.714 0.451,0.604 0.861,1.239 1.224,1.9 0.373,0.656 0.701,1.336 0.98,2.037 0.279,0.701 0.511,1.42 0.692,2.152 0.191,0.73 0.331,1.473 0.42,2.222 0.09,0.749 0.126,1.503 0.11,2.257 -0.007,0.754 -0.065,1.506 -0.175,2.252 -0.11,0.747 -0.268,1.486 -0.472,2.212 -0.146,0.548 -0.32,1.088 -0.523,1.617 -0.202,0.528 -0.438,1.042 -0.707,1.54 -0.069,0.132 -0.141,0.263 -0.215,0.393 -0.074,0.13 -0.148,0.259 -0.223,0.388 l 3.277,1.89 c 0.023,-0.038 0.046,-0.076 0.068,-0.114 0.022,-0.038 0.044,-0.076 0.066,-0.115 0.456,-0.797 0.856,-1.626 1.197,-2.478 0.342,-0.855 0.623,-1.733 0.84,-2.628 0.237,-0.888 0.409,-1.793 0.516,-2.707 0.107,-0.913 0.151,-1.832 0.13,-2.751 -0.006,-0.92 -0.076,-1.838 -0.208,-2.748 -0.131,-0.91 -0.325,-1.809 -0.581,-2.693 -0.243,-0.886 -0.547,-1.755 -0.91,-2.6 -0.363,-0.844 -0.784,-1.663 -1.259,-2.45 -0.465,-0.794 -0.984,-1.554 -1.554,-2.276 -0.569,-0.722 -1.187,-1.404 -1.85,-2.041 -0.654,-0.646 -1.352,-1.246 -2.089,-1.796 -0.736,-0.551 -1.51,-1.049 -2.315,-1.493 -0.8,-0.455 -1.629,-0.854 -2.483,-1.194 -0.854,-0.341 -1.73,-0.623 -2.623,-0.843 -0.89,-0.232 -1.794,-0.403 -2.707,-0.511 -0.913,-0.108 -1.833,-0.153 -2.752,-0.135 -0.92,0.006 -1.837,0.075 -2.747,0.207 -0.91,0.132 -1.81,0.326 -2.693,0.581 -0.887,0.244 -1.755,0.549 -2.6,0.912 -0.845,0.363 -1.664,0.783 -2.451,1.258 -0.793,0.465 -1.553,0.984 -2.275,1.554 -0.722,0.569 -1.404,1.187 -2.042,1.85 -0.646,0.654 -1.246,1.352 -1.796,2.089 -0.55,0.736 -1.049,1.51 -1.493,2.315 -0.454,0.8 -0.853,1.629 -1.194,2.483 -0.341,0.854 -0.622,1.73 -0.843,2.623 -0.232,0.889 -0.403,1.794 -0.511,2.707 -0.108,0.913 -0.153,1.833 -0.135,2.752 0.006,0.919 0.075,1.838 0.207,2.748 0.132,0.91 0.326,1.809 0.582,2.692 0.244,0.886 0.548,1.754 0.912,2.597 0.363,0.845 0.784,1.665 1.258,2.454 0.464,0.796 0.982,1.559 1.55,2.285 0.566,0.722 1.186,1.401 1.853,2.032 0.084,0.081 0.169,0.162 0.254,0.241 0.086,0.08 0.173,0.159 0.261,0.236 L -5.64,4.312 -5.651,4.319 C -5.671,4.33 -5.69,4.343 -5.708,4.357 -5.727,4.371 -5.744,4.386 -5.76,4.403 -5.777,4.419 -5.793,4.437 -5.807,4.456 -5.821,4.474 -5.834,4.494 -5.846,4.515 -5.858,4.535 -5.868,4.556 -5.877,4.578 -5.886,4.6 -5.894,4.622 -5.9,4.645 c -0.006,0.023 -0.011,0.046 -0.014,0.069 -0.003,0.024 -0.004,0.047 -0.004,0.071 0,0.023 0.001,0.047 0.004,0.07 0.003,0.023 0.008,0.047 0.014,0.069 0.006,0.023 0.014,0.045 0.023,0.067 0.009,0.022 0.019,0.043 0.031,0.064 0.012,0.02 0.025,0.04 0.039,0.058 0.015,0.019 0.03,0.037 0.047,0.053 0.016,0.017 0.034,0.033 0.053,0.047 0.019,0.014 0.038,0.027 0.059,0.039 0.02,0.012 0.041,0.023 0.063,0.032 0.022,0.009 0.044,0.016 0.067,0.022 L -5.504,5.31 5.746,8.011 2.559,-2.758 2.555,-2.77 C 2.549,-2.788 2.542,-2.806 2.535,-2.824 2.527,-2.841 2.518,-2.858 2.508,-2.874 2.497,-2.895 2.484,-2.915 2.47,-2.934 2.455,-2.952 2.44,-2.97 2.423,-2.987 2.406,-3.003 2.388,-3.019 2.37,-3.033 2.351,-3.048 2.332,-3.061 2.311,-3.072 2.291,-3.084 2.27,-3.095 2.248,-3.104 2.226,-3.113 2.204,-3.12 2.181,-3.126 2.158,-3.133 2.135,-3.137 2.112,-3.141 2.088,-3.143 2.065,-3.145 2.041,-3.145 c -0.023,0 -0.047,10e-4 -0.07,0.004 -0.024,0.004 -0.047,0.008 -0.07,0.014 -0.022,0.006 -0.045,0.014 -0.067,0.023 -0.021,0.009 -0.042,0.019 -0.063,0.031 -0.02,0.012 -0.04,0.025 -0.059,0.039 -0.018,0.015 -0.036,0.03 -0.053,0.047 -0.017,0.017 -0.032,0.034 -0.047,0.053 -0.014,0.019 -0.027,0.038 -0.039,0.059 L 1.566,-2.863 0,0"
             style="fill:#ffffff;fill-opacity:1;fill-rule:evenodd;stroke:none"
             id="path3579"
             inkscape:connector-curvature="0" />
        </g>
        <g
           id="g3581"
           transform="matrix(0,1.25,1.25,0,343.45433,527.59656)">
          <path
             d="m 0,0 c -0.011,0.007 -0.022,0.014 -0.033,0.022 -0.011,0.007 -0.022,0.014 -0.033,0.021 -0.117,0.08 -0.229,0.166 -0.335,0.26 -0.106,0.094 -0.209,0.191 -0.308,0.293 -0.2,0.2 -0.389,0.411 -0.566,0.632 -0.177,0.221 -0.337,0.454 -0.481,0.696 -0.148,0.241 -0.278,0.493 -0.389,0.753 -0.111,0.26 -0.204,0.528 -0.279,0.801 -0.078,0.273 -0.138,0.549 -0.178,0.83 -0.041,0.279 -0.063,0.562 -0.065,0.845 -0.005,0.282 0.009,0.565 0.042,0.846 0.033,0.281 0.086,0.559 0.157,0.833 0.068,0.275 0.155,0.544 0.26,0.807 0.104,0.263 0.227,0.518 0.367,0.764 0.137,0.248 0.29,0.486 0.459,0.713 0.17,0.226 0.354,0.441 0.553,0.642 0.196,0.204 0.406,0.395 0.628,0.569 0.222,0.176 0.456,0.336 0.701,0.478 0.242,0.147 0.494,0.276 0.754,0.388 0.259,0.112 0.527,0.205 0.799,0.28 0.272,0.079 0.549,0.139 0.829,0.179 0.28,0.041 0.562,0.062 0.845,0.064 C 4.01,11.722 4.293,11.708 4.574,11.674 4.855,11.641 5.133,11.589 5.407,11.517 5.682,11.449 5.951,11.363 6.214,11.258 6.477,11.153 6.732,11.03 6.978,10.89 7.226,10.754 7.464,10.6 7.69,10.431 7.917,10.262 8.132,10.077 8.333,9.878 8.537,9.682 8.728,9.472 8.903,9.25 9.078,9.028 9.238,8.794 9.38,8.55 9.526,8.308 9.655,8.056 9.767,7.796 c 0.112,-0.26 0.205,-0.527 0.281,-0.8 0.08,-0.272 0.14,-0.549 0.182,-0.829 0.041,-0.28 0.062,-0.562 0.061,-0.845 l 0,-0.042 0,-0.043 3.78,0 C 14.07,5.327 14.069,5.416 14.068,5.506 14.066,5.595 14.064,5.685 14.06,5.774 14.046,6.11 14.013,6.444 13.962,6.776 13.91,7.108 13.841,7.437 13.755,7.762 13.647,8.197 13.509,8.624 13.344,9.04 c -0.165,0.417 -0.36,0.821 -0.581,1.21 -0.216,0.392 -0.458,0.77 -0.727,1.128 -0.268,0.359 -0.56,0.699 -0.875,1.018 -0.311,0.323 -0.643,0.624 -0.995,0.901 -0.352,0.277 -0.722,0.53 -1.109,0.757 C 8.674,14.285 8.275,14.49 7.863,14.667 7.452,14.844 7.029,14.992 6.597,15.111 6.167,15.235 5.728,15.33 5.285,15.394 4.842,15.458 4.394,15.492 3.946,15.495 3.499,15.504 3.051,15.482 2.606,15.429 2.161,15.377 1.72,15.294 1.287,15.18 0.852,15.073 0.425,14.936 0.009,14.77 -0.407,14.604 -0.811,14.409 -1.2,14.188 -1.593,13.972 -1.969,13.728 -2.329,13.461 -2.687,13.193 -3.027,12.9 -3.346,12.586 -3.669,12.275 -3.97,11.943 -4.248,11.591 -4.525,11.239 -4.778,10.869 -5.004,10.483 -5.236,10.099 -5.441,9.7 -5.618,9.289 -5.794,8.877 -5.943,8.454 -6.061,8.022 -6.186,7.591 -6.281,7.153 -6.345,6.71 -6.409,6.267 -6.443,5.82 -6.446,5.371 -6.454,4.924 -6.432,4.476 -6.38,4.031 c 0.053,-0.445 0.136,-0.885 0.249,-1.319 0.107,-0.435 0.244,-0.862 0.41,-1.278 0.166,-0.416 0.36,-0.82 0.582,-1.209 0.217,-0.392 0.461,-0.769 0.73,-1.128 0.268,-0.358 0.56,-0.698 0.873,-1.018 0.077,-0.081 0.156,-0.161 0.236,-0.239 0.08,-0.078 0.162,-0.155 0.246,-0.229 0.049,-0.044 0.099,-0.087 0.149,-0.13 0.05,-0.042 0.101,-0.085 0.151,-0.127 l -2.722,-1.493 -0.012,-0.007 c -0.021,-0.012 -0.04,-0.025 -0.059,-0.039 -0.019,-0.014 -0.036,-0.03 -0.053,-0.047 -0.017,-0.016 -0.032,-0.034 -0.047,-0.053 -0.014,-0.019 -0.027,-0.038 -0.039,-0.059 -0.012,-0.02 -0.022,-0.041 -0.031,-0.063 -0.009,-0.022 -0.016,-0.044 -0.022,-0.067 -0.006,-0.023 -0.011,-0.046 -0.014,-0.069 -0.003,-0.024 -0.005,-0.047 -0.005,-0.071 0,-0.023 0.002,-0.047 0.005,-0.07 0.003,-0.024 0.008,-0.047 0.014,-0.07 0.006,-0.022 0.013,-0.045 0.022,-0.067 0.009,-0.021 0.02,-0.042 0.032,-0.063 0.011,-0.02 0.025,-0.04 0.039,-0.059 0.014,-0.018 0.03,-0.036 0.047,-0.052 0.016,-0.017 0.034,-0.033 0.053,-0.047 0.018,-0.014 0.038,-0.027 0.059,-0.039 0.016,-0.01 0.033,-0.018 0.05,-0.026 0.018,-0.008 0.036,-0.015 0.054,-0.02 L -5.371,-5.131 5.398,-8.319 2.697,2.932 2.693,2.945 C 2.688,2.968 2.68,2.991 2.671,3.012 2.662,3.034 2.651,3.055 2.639,3.076 2.628,3.096 2.615,3.116 2.6,3.135 2.586,3.153 2.57,3.171 2.553,3.187 2.537,3.204 2.519,3.22 2.5,3.234 2.482,3.249 2.462,3.262 2.442,3.273 2.421,3.285 2.4,3.296 2.378,3.305 2.357,3.314 2.334,3.321 2.311,3.327 2.289,3.333 2.266,3.338 2.242,3.341 2.219,3.344 2.195,3.346 2.172,3.345 2.148,3.346 2.125,3.344 2.101,3.341 2.078,3.338 2.055,3.333 2.032,3.327 2.009,3.321 1.987,3.314 1.965,3.305 1.943,3.296 1.922,3.285 1.902,3.273 1.881,3.262 1.862,3.249 1.843,3.234 1.824,3.22 1.807,3.204 1.79,3.187 1.773,3.171 1.758,3.154 1.744,3.136 1.73,3.118 1.717,3.099 1.706,3.078 L 1.699,3.067 0,0"
             style="fill:#ffffff;fill-opacity:1;fill-rule:evenodd;stroke:none"
             id="path3583"
             inkscape:connector-curvature="0" />
        </g>
      </g>
    </g>
  </g>
</svg>
