<?xml version="1.0" encoding="UTF-8" standalone="no"?>
<!-- Created with Inkscape (http://www.inkscape.org/) -->
<svg id="svg2" xmlns:rdf="http://www.w3.org/1999/02/22-rdf-syntax-ns#" xmlns="http://www.w3.org/2000/svg" height="60" width="80" version="1.1" xmlns:cc="http://creativecommons.org/ns#" xmlns:dc="http://purl.org/dc/elements/1.1/">
 <metadata id="metadata7">
  <rdf:RDF>
   <cc:Work rdf:about="">
    <dc:format>image/svg+xml</dc:format>
    <dc:type rdf:resource="http://purl.org/dc/dcmitype/StillImage"/>
    <dc:title/>
   </cc:Work>
  </rdf:RDF>
 </metadata>
 <g id="layer4" transform="translate(0,-60)">
  <g id="g2987" transform="matrix(.97891 0 0 .97184 -18.734 31.689)">
   <g id="g2815" transform="matrix(1.1244 0 0 1.2432 -293.38 -765.23)">
    <path id="path19982" stroke-linejoin="bevel" d="m281.73 687.75h65.128c0.1225-0.001 0.245-0.009 0.36625-0.025 0.12125-0.0162 0.24125-0.0425 0.36-0.075 0.11875-0.0312 0.235-0.07 0.3475-0.1175s0.2225-0.10375 0.3275-0.16625c0.10625-0.06 0.20875-0.12875 0.30625-0.20375 0.0962-0.0737 0.18875-0.155 0.275-0.2425 0.0875-0.0862 0.16875-0.1775 0.2425-0.275 0.075-0.0975 0.14375-0.19875 0.20375-0.305 0.0625-0.10625 0.1175-0.21625 0.16375-0.32875 0.0475-0.11375 0.0875-0.22875 0.12-0.3475s0.0587-0.23875 0.075-0.36c0.0175-0.12125 0.0263-0.24375 0.025-0.36625v-42.289c0-0.1225-0.009-0.245-0.025-0.36625-0.0175-0.12125-0.0425-0.24125-0.075-0.36-0.0312-0.11875-0.0713-0.235-0.11875-0.3475-0.0475-0.11375-0.1025-0.2225-0.165-0.3275-0.0613-0.10625-0.12875-0.20875-0.20375-0.30625-0.0738-0.0975-0.155-0.18875-0.2425-0.275-0.0863-0.0875-0.17875-0.16875-0.275-0.24375-0.0975-0.0737-0.2-0.1425-0.30625-0.2025-0.105-0.0625-0.215-0.1175-0.3275-0.165-0.11375-0.0462-0.23-0.0862-0.3475-0.11875-0.11875-0.0338-0.23875-0.0588-0.36-0.0763-0.12125-0.0162-0.24375-0.025-0.36625-0.0237h-65.15c-0.1225 0-0.24375 0.009-0.36625 0.025-0.12125 0.0163-0.24125 0.0412-0.35875 0.075-0.11875 0.0312-0.235 0.07-0.34875 0.1175-0.1125 0.0475-0.2225 0.10375-0.3275 0.16625-0.10625 0.06-0.20875 0.12875-0.305 0.2025-0.0975 0.075-0.19 0.15625-0.27625 0.24375-0.0863 0.0862-0.1675 0.1775-0.2425 0.275s-0.1425 0.2-0.20375 0.30625c-0.0625 0.105-0.1175 0.215-0.16375 0.3275-0.0475 0.11375-0.0875 0.22875-0.11875 0.3475-0.0337 0.11875-0.06 0.23875-0.0763 0.36-0.0175 0.12125-0.025 0.24375-0.025 0.36625v42.289c0.001 0.1225 0.01 0.245 0.0263 0.36625s0.0412 0.2425 0.075 0.36c0.03 0.11875 0.07 0.235 0.1175 0.3475 0.0475 0.11375 0.1025 0.2225 0.165 0.32875 0.0612 0.10625 0.12875 0.2075 0.20375 0.305s0.15625 0.18875 0.2425 0.275c0.0863 0.0875 0.17875 0.16875 0.27625 0.24375 0.0962 0.0738 0.19875 0.1425 0.305 0.2025 0.10625 0.0625 0.215 0.1175 0.32875 0.165 0.1125 0.0475 0.22875 0.0862 0.3475 0.11875 0.1175 0.0325 0.2375 0.0588 0.36 0.075 0.12125 0.0175 0.2425 0.0263 0.365 0.025h0.0225z" stroke="#231f20" stroke-miterlimit="22.926" stroke-width=".27682" fill="none"/>
    <path id="path19978" d="m348.08 670.55v13.53c-0.00097 0.0973-0.007 0.19457-0.0208 0.29062-0.0123 0.0961-0.032 0.19211-0.0591 0.2857-0.0247 0.0949-0.0555 0.1872-0.0936 0.2771-0.037 0.0886-0.0813 0.1761-0.13182 0.25984-0.048 0.085-0.10226 0.16626-0.16138 0.2426-0.0592 0.0776-0.12445 0.15025-0.19343 0.21922-0.0678 0.0689-0.14168 0.13423-0.21805 0.19334-0.0777 0.0591-0.15894 0.11331-0.24272 0.16133-0.0838 0.0492-0.17124 0.0937-0.26117 0.13055-0.09 0.037-0.18234 0.0689-0.27598 0.0949-0.0936 0.026-0.18973 0.0467-0.28582 0.0603-0.0973 0.0134-0.19343 0.0197-0.29076 0.0197h-63.122c-0.0986-0.00097-0.19466-0.007-0.29198-0.021-0.0961-0.0134-0.19219-0.0332-0.28582-0.0591-0.0936-0.0246-0.18603-0.0555-0.27597-0.0937-0.09-0.0382-0.17741-0.0825-0.26118-0.13179-0.0838-0.0481-0.16509-0.10221-0.24271-0.16132-0.0764-0.0603-0.1503-0.12438-0.21929-0.19334-0.069-0.0689-0.13306-0.14163-0.19219-0.21922-0.0592-0.0764-0.11335-0.15761-0.16263-0.24259-0.0493-0.0837-0.0923-0.17119-0.1306-0.25984-0.037-0.0899-0.069-0.18226-0.0936-0.27711-0.0271-0.0937-0.0468-0.18963-0.0604-0.28569-0.0135-0.0961-0.021-0.19334-0.0197-0.29063v-13.53h67.592m-67.592-13.513v-13.53c0-0.0973 0.007-0.19455 0.021-0.29062 0.0123-0.0961 0.032-0.19212 0.0591-0.28569 0.0235-0.0948 0.0554-0.1872 0.0936-0.2771 0.037-0.0886 0.0813-0.1761 0.1306-0.25985 0.0493-0.085 0.10349-0.16501 0.16263-0.2426 0.0591-0.0776 0.12319-0.15024 0.19219-0.2192 0.069-0.0689 0.14168-0.13423 0.21929-0.19336 0.0777-0.0592 0.15892-0.11329 0.24271-0.16132 0.0838-0.0493 0.17125-0.0923 0.26118-0.13054 0.09-0.037 0.18234-0.0689 0.27596-0.0948 0.0936-0.026 0.18973-0.0467 0.28582-0.0603 0.0973-0.0134 0.19343-0.0197 0.29076-0.0197h63.122c0.0986 0.00097 0.19466 0.007 0.29199 0.0209 0.0961 0.0135 0.19219 0.0333 0.28582 0.0592 0.0936 0.0246 0.18603 0.0567 0.27597 0.0937 0.09 0.0381 0.17742 0.0826 0.25995 0.13176 0.0851 0.0481 0.16632 0.10222 0.24394 0.16134 0.0764 0.0603 0.15029 0.12438 0.21806 0.19334 0.0701 0.0689 0.13428 0.14162 0.19465 0.2192 0.0591 0.0776 0.11211 0.15764 0.1614 0.24262 0.0493 0.0837 0.0924 0.17116 0.13058 0.25985 0.037 0.0911 0.069 0.18226 0.0936 0.27707 0.0271 0.0937 0.0468 0.18966 0.0603 0.28572 0.0136 0.0961 0.021 0.19335 0.0197 0.29062v13.53h-67.592" fill-rule="evenodd" fill="#e72512"/>
    <path id="path19986" stroke-linejoin="bevel" d="m281.73 687.79h-0.0225c-0.125-0.001-0.24875-0.009-0.37125-0.0263-0.12375-0.0163-0.24625-0.0412-0.36625-0.0763-0.12-0.0312-0.23875-0.07-0.35375-0.11875-0.115-0.0487-0.22625-0.105-0.3325-0.16875-0.10875-0.0613-0.2125-0.13-0.31125-0.20625-0.0987-0.0762-0.19125-0.15875-0.27875-0.2475-0.0888-0.0875-0.17125-0.18125-0.2475-0.27875-0.0762-0.0987-0.145-0.2025-0.20625-0.31125-0.0638-0.1075-0.12-0.21875-0.1675-0.33375s-0.0888-0.2325-0.12125-0.3525c-0.0337-0.12-0.06-0.2425-0.0762-0.36625-0.0175-0.1225-0.0263-0.2475-0.025-0.37125v-42.29c0-0.125 0.009-0.24875 0.0263-0.3725 0.0163-0.12375 0.0412-0.245 0.075-0.365 0.0312-0.12 0.0713-0.23875 0.12-0.35375 0.0488-0.115 0.105-0.22625 0.16875-0.3325 0.0612-0.10875 0.13-0.2125 0.20625-0.31125 0.0763-0.0987 0.15875-0.1925 0.2475-0.28 0.0875-0.0888 0.18-0.17 0.27875-0.24625 0.0987-0.0762 0.2025-0.145 0.31125-0.2075 0.1075-0.0625 0.21875-0.11875 0.3325-0.16625 0.115-0.0488 0.23375-0.0888 0.35375-0.12125 0.12-0.0337 0.2425-0.06 0.36625-0.0775 0.1225-0.0175 0.24625-0.025 0.37125-0.0237h65.15c0.125 0 0.24875 0.009 0.3725 0.025 0.12375 0.0175 0.245 0.0425 0.365 0.0762 0.12125 0.0312 0.23875 0.0713 0.35375 0.12 0.115 0.0488 0.22625 0.10375 0.3325 0.1675 0.10875 0.0625 0.2125 0.13125 0.31125 0.2075 0.0987 0.0763 0.1925 0.1575 0.28 0.24625 0.0888 0.0875 0.17125 0.18125 0.24625 0.28 0.0763 0.0987 0.145 0.2025 0.2075 0.31125 0.0638 0.10625 0.11875 0.2175 0.16625 0.3325 0.0487 0.115 0.0888 0.23375 0.12125 0.35375 0.0337 0.12 0.06 0.24125 0.0775 0.365s0.025 0.2475 0.025 0.3725v42.29c-0.001 0.12375-0.01 0.24875-0.0263 0.37125-0.0175 0.12375-0.0425 0.24625-0.0763 0.36625-0.0312 0.12-0.0713 0.23875-0.12 0.35375-0.0475 0.11375-0.10375 0.225-0.1675 0.3325-0.0625 0.10875-0.13125 0.2125-0.2075 0.31125-0.075 0.0975-0.1575 0.19125-0.24625 0.27875-0.0875 0.0888-0.18125 0.17125-0.28 0.2475-0.0987 0.0763-0.2025 0.145-0.31125 0.20625-0.10625 0.0637-0.2175 0.11875-0.3325 0.1675-0.115 0.0475-0.2325 0.0875-0.35375 0.12-0.12 0.035-0.24125 0.06-0.365 0.0775s-0.2475 0.0262-0.3725 0.025h-65.128z" stroke="#231f20" stroke-miterlimit="22.926" stroke-width="1.7343" fill="none"/>
   </g>
  </g>
 </g>
</svg>
