<?xml version="1.0" encoding="UTF-8" standalone="no"?>
<!-- Created with Inkscape (http://www.inkscape.org/) -->

<svg
   xmlns:dc="http://purl.org/dc/elements/1.1/"
   xmlns:cc="http://creativecommons.org/ns#"
   xmlns:rdf="http://www.w3.org/1999/02/22-rdf-syntax-ns#"
   xmlns:svg="http://www.w3.org/2000/svg"
   xmlns="http://www.w3.org/2000/svg"
   xmlns:sodipodi="http://sodipodi.sourceforge.net/DTD/sodipodi-0.dtd"
   xmlns:inkscape="http://www.inkscape.org/namespaces/inkscape"
   width="60"
   height="60"
   id="svg2"
   version="1.1"
   inkscape:version="0.48.2 r9819"
   sodipodi:docname="Notice_E20.svg"
   style="display:inline"
   inkscape:export-filename="/Users/mherring/boatsw/oseam/openseamap/josm/icons/WindSurfing16.png"
   inkscape:export-xdpi="12"
   inkscape:export-ydpi="12">
  <defs
     id="defs4" />
  <sodipodi:namedview
     id="base"
     pagecolor="#ffffff"
     bordercolor="#666666"
     borderopacity="1.0"
     inkscape:pageopacity="0.0"
     inkscape:pageshadow="2"
     inkscape:zoom="5.3032952"
     inkscape:cx="14.367998"
     inkscape:cy="59.084222"
     inkscape:document-units="px"
     inkscape:current-layer="layer50"
     showgrid="true"
     inkscape:window-width="1920"
     inkscape:window-height="1088"
     inkscape:window-x="0"
     inkscape:window-y="0"
     inkscape:window-maximized="1"
     inkscape:snap-global="false">
    <inkscape:grid
       type="xygrid"
       id="grid3004"
       empspacing="5"
       visible="true"
       enabled="true"
       snapvisiblegridlinesonly="true" />
  </sodipodi:namedview>
  <metadata
     id="metadata7">
    <rdf:RDF>
      <cc:Work
         rdf:about="">
        <dc:format>image/svg+xml</dc:format>
        <dc:type
           rdf:resource="http://purl.org/dc/dcmitype/StillImage" />
        <dc:title />
      </cc:Work>
    </rdf:RDF>
  </metadata>
  <g
     inkscape:groupmode="layer"
     id="layer50"
     inkscape:label="E20"
     style="display:inline"
     transform="translate(0,-60)">
    <g
       transform="matrix(0.97035069,0,0,0.97035069,204.66315,30.872966)"
       id="layer1-866"
       inkscape:label="Ebene 1">
      <g
         transform="matrix(0.84345072,0,0,0.84345072,-28.17887,9.5391131)"
         id="g2958">
        <g
           id="g4611"
           transform="matrix(0,1.25,1.25,0,-211.18067,96.366736)"
           style="fill:#ffffff;stroke:#000000;stroke-width:1.03055525">
          <path
             d="M 0,0 0,-0.027 C -0.001,-0.174 -0.011,-0.32 -0.031,-0.466 -0.05,-0.612 -0.081,-0.756 -0.121,-0.898 -0.157,-1.04 -0.205,-1.18 -0.262,-1.315 -0.319,-1.451 -0.385,-1.582 -0.46,-1.708 -0.533,-1.836 -0.615,-1.958 -0.705,-2.075 -0.794,-2.192 -0.892,-2.302 -0.996,-2.405 -1.1,-2.51 -1.21,-2.608 -1.326,-2.697 c -0.117,-0.09 -0.239,-0.171 -0.367,-0.245 -0.127,-0.074 -0.258,-0.14 -0.394,-0.197 -0.136,-0.056 -0.275,-0.104 -0.417,-0.142 -0.142,-0.04 -0.286,-0.071 -0.432,-0.091 -0.145,-0.021 -0.292,-0.03 -0.439,-0.03 l -49.943,0 c -0.147,0.001 -0.294,0.012 -0.439,0.031 -0.146,0.02 -0.29,0.05 -0.432,0.09 -0.142,0.037 -0.282,0.084 -0.418,0.141 -0.135,0.057 -0.266,0.123 -0.393,0.198 -0.127,0.074 -0.25,0.156 -0.366,0.245 -0.117,0.09 -0.227,0.187 -0.331,0.292 -0.104,0.103 -0.202,0.213 -0.291,0.33 -0.09,0.116 -0.172,0.239 -0.245,0.367 -0.074,0.126 -0.14,0.258 -0.197,0.393 -0.057,0.136 -0.104,0.275 -0.143,0.417 -0.04,0.142 -0.07,0.286 -0.091,0.432 -0.02,0.146 -0.03,0.292 -0.029,0.439 l 0,49.943 c 10e-4,0.147 0.011,0.294 0.031,0.44 0.02,0.145 0.05,0.289 0.089,0.431 0.037,0.142 0.085,0.282 0.142,0.418 0.057,0.135 0.123,0.267 0.198,0.393 0.073,0.127 0.155,0.25 0.245,0.367 0.089,0.116 0.187,0.227 0.291,0.33 0.104,0.105 0.214,0.202 0.331,0.292 0.116,0.089 0.239,0.171 0.366,0.244 0.127,0.075 0.258,0.141 0.394,0.197 0.136,0.057 0.275,0.105 0.417,0.143 0.142,0.04 0.286,0.07 0.432,0.091 0.145,0.021 0.292,0.03 0.439,0.029 l 49.943,0 c 0.147,-10e-4 0.294,-0.011 0.439,-0.031 0.146,-0.019 0.29,-0.049 0.432,-0.089 0.142,-0.037 0.282,-0.084 0.417,-0.142 0.136,-0.057 0.267,-0.123 0.394,-0.198 0.127,-0.073 0.25,-0.155 0.367,-0.244 0.116,-0.09 0.226,-0.187 0.33,-0.292 0.104,-0.103 0.202,-0.214 0.292,-0.33 0.089,-0.117 0.171,-0.239 0.244,-0.367 0.074,-0.127 0.14,-0.258 0.197,-0.394 0.057,-0.135 0.104,-0.275 0.142,-0.417 0.04,-0.142 0.071,-0.286 0.091,-0.432 C -0.009,50.21 0.001,50.063 0,49.916 L 0,0 z"
             style="fill:#ffffff;stroke:#000000;stroke-width:1.95493162;stroke-linecap:butt;stroke-linejoin:bevel;stroke-miterlimit:22.9260006;stroke-opacity:1;stroke-dasharray:none"
             id="path4613"
             inkscape:connector-curvature="0" />
        </g>
        <path
           d="m -212.77567,28.499237 0,64.867499 65.55125,0 0,-64.867499 -65.55125,0 z"
           style="fill:#003399;fill-opacity:1;fill-rule:nonzero;stroke:none"
           id="path4589"
           inkscape:connector-curvature="0" />
        <g
           id="g4591"
           transform="matrix(0,1.25,1.25,0,-186.36817,84.059236)">
          <path
             d="m 0,0 c -13.531,1.092 -27.304,3.641 -41.321,7.645 8.336,7.433 17.968,11.984 28.488,14.563 C -5.613,15.258 -0.909,7.921 0,0"
             style="fill:#ffffff;fill-opacity:1;fill-rule:evenodd;stroke:none"
             id="path4593"
             inkscape:connector-curvature="0" />
        </g>
        <g
           id="g4595"
           transform="matrix(0,1.25,1.25,0,-192.17067,86.789236)">
          <path
             d="m 0,0 0.085,9.57 -1.177,0.442 C -1.971,6.25 -2.062,2.724 -1.001,-0.455 L 0,0"
             style="fill:#ffffff;fill-opacity:1;fill-rule:evenodd;stroke:none"
             id="path4597"
             inkscape:connector-curvature="0" />
        </g>
        <g
           id="g4599"
           transform="matrix(0,1.25,1.25,0,-186.36817,84.059236)">
          <path
             d="m 0,0 c -0.387,0.032 -4.91,0.925 -6.236,-0.172 -1.325,-1.096 -2.657,-2.334 -4.54,-4.277 l -3.155,-0.065 c -0.656,-0.013 -1.2,-0.504 -1.765,-0.547 0.067,1.867 -0.095,3.711 -0.361,5.544 l -0.591,0.223 -0.884,-7.274 0.202,-1.715 c 1.747,-1.406 3.569,0.438 5.229,0.832 l 2.09,0.066 c 1.997,0.064 3.884,2.861 4.648,4.995 2.004,0.301 3.944,0.846 5.781,1.781 L 0,0"
             style="fill:#ffffff;fill-opacity:1;fill-rule:evenodd;stroke:none"
             id="path4601"
             inkscape:connector-curvature="0" />
        </g>
        <g
           id="g4603"
           transform="matrix(0,1.25,1.25,0,-196.42192,57.184236)">
          <path
             d="M 0,0 C 0.059,0.89 0.855,1.485 1.957,1.613 3.059,1.74 4.207,1.319 4.001,0.325 3.795,-0.669 2.984,-1.32 1.982,-1.475 0.979,-1.631 -0.059,-0.89 0,0"
             style="fill:#ffffff;fill-opacity:1;fill-rule:evenodd;stroke:none"
             id="path4605"
             inkscape:connector-curvature="0" />
        </g>
        <g
           id="g4607"
           transform="matrix(0,1.25,1.25,0,-181.79942,61.555486)">
          <path
             d="m 0,0 1.354,-2.949 0.591,-0.223 c 0,0 2.212,1.301 2.221,1.392"
             style="fill:none;stroke:#ffffff;stroke-width:1.03055525;stroke-linecap:butt;stroke-linejoin:miter;stroke-miterlimit:22.9260006;stroke-opacity:1;stroke-dasharray:none"
             id="path4609"
             inkscape:connector-curvature="0" />
        </g>
      </g>
    </g>
  </g>
</svg>
