<?xml version="1.0" encoding="UTF-8" standalone="no"?>
<!-- Created with Inkscape (http://www.inkscape.org/) -->

<svg
   xmlns:dc="http://purl.org/dc/elements/1.1/"
   xmlns:cc="http://creativecommons.org/ns#"
   xmlns:rdf="http://www.w3.org/1999/02/22-rdf-syntax-ns#"
   xmlns:svg="http://www.w3.org/2000/svg"
   xmlns="http://www.w3.org/2000/svg"
   xmlns:sodipodi="http://sodipodi.sourceforge.net/DTD/sodipodi-0.dtd"
   xmlns:inkscape="http://www.inkscape.org/namespaces/inkscape"
   width="60"
   height="80"
   id="svg2"
   version="1.1"
   inkscape:version="0.48.2 r9819"
   sodipodi:docname="Notice_B2a.svg"
   style="display:inline"
   inkscape:export-filename="/Users/mherring/boatsw/oseam/openseamap/josm/icons/WindSurfing16.png"
   inkscape:export-xdpi="12"
   inkscape:export-ydpi="12">
  <defs
     id="defs4" />
  <sodipodi:namedview
     id="base"
     pagecolor="#ffffff"
     bordercolor="#666666"
     borderopacity="1.0"
     inkscape:pageopacity="0.0"
     inkscape:pageshadow="2"
     inkscape:zoom="8"
     inkscape:cx="29.177842"
     inkscape:cy="51.668915"
     inkscape:document-units="px"
     inkscape:current-layer="layer26"
     showgrid="true"
     inkscape:window-width="1920"
     inkscape:window-height="1088"
     inkscape:window-x="0"
     inkscape:window-y="0"
     inkscape:window-maximized="1"
     inkscape:snap-global="false">
    <inkscape:grid
       type="xygrid"
       id="grid3004"
       empspacing="5"
       visible="true"
       enabled="true"
       snapvisiblegridlinesonly="true" />
  </sodipodi:namedview>
  <metadata
     id="metadata7">
    <rdf:RDF>
      <cc:Work
         rdf:about="">
        <dc:format>image/svg+xml</dc:format>
        <dc:type
           rdf:resource="http://purl.org/dc/dcmitype/StillImage" />
        <dc:title />
      </cc:Work>
    </rdf:RDF>
  </metadata>
  <g
     inkscape:groupmode="layer"
     id="layer26"
     inkscape:label="B2a"
     style="display:inline"
     transform="translate(0,-40)">
    <g
       transform="matrix(0.9718394,0,0,0.97890544,-310.14374,-441.13226)"
       id="layer1-6"
       inkscape:label="Ebene 1">
      <g
         transform="matrix(1.2431831,0,0,1.12438,-85.114114,-66.215203)"
         id="g3188">
        <g
           id="g7650"
           transform="matrix(0,1.25,1.25,0,370.57557,566.65281)"
           style="fill:#e72512;fill-opacity:1;stroke:#000000;stroke-width:1.02525604">
          <path
             d="m -0.39534926,-0.24418622 0,0.0137935 c -9.856e-4,0.0778345 -0.005914,0.15566906 -0.0167553,0.23350358 -0.009856,0.07684931 -0.0256257,0.15271333 -0.0473089,0.22759212 -0.0197121,0.075864 -0.0443521,0.14975758 -0.0749058,0.22168062 -0.0305537,0.071923 -0.0650498,0.14089038 -0.10447392,0.2078872 -0.0394241,0.0679821 -0.0827907,0.13300837 -0.13009959,0.19507894 -0.047309,0.0610853 -0.0995459,0.12020016 -0.15473967,0.17438876 -0.0542082,0.055174 -0.11334436,0.107392 -0.17445176,0.1546838 -0.062093,0.047292 -0.1271428,0.090643 -0.1941638,0.1290674 -0.068007,0.03941 -0.1369988,0.074879 -0.2089479,0.1044362 -0.071949,0.030543 -0.1458692,0.055174 -0.220775,0.075864 -0.074906,0.021676 -0.1517829,0.037439 -0.2296455,0.048277 -0.076877,0.010838 -0.1547397,0.015764 -0.2316167,0.015764 l -50.4983549,0 c -0.07786,-9.852e-4 -0.155725,-0.00591 -0.232602,-0.016749 -0.07688,-0.00985 -0.153754,-0.025616 -0.22866,-0.047292 -0.07589,-0.019705 -0.149811,-0.044336 -0.22176,-0.074879 -0.07096,-0.030543 -0.140942,-0.065026 -0.207963,-0.1054214 -0.06801,-0.038425 -0.132071,-0.081775 -0.194163,-0.1290674 -0.06209,-0.047292 -0.120244,-0.09951 -0.175438,-0.1546838 -0.05519,-0.0541886 -0.107431,-0.11330348 -0.154739,-0.17438881 -0.04731,-0.0620706 -0.09068,-0.12709689 -0.129114,-0.19507894 -0.03943,-0.0669968 -0.07392,-0.13596413 -0.104474,-0.2078872 -0.02957,-0.071923 -0.05519,-0.14581659 -0.07589,-0.22168062 -0.0207,-0.0748788 -0.03745,-0.15074283 -0.04829,-0.22857736 -0.01084,-0.07684931 -0.01577,-0.15468381 -0.01478,-0.23251834 l 0,-32.46093903 c 0,-0.07783 0.0059,-0.15567 0.01577,-0.232519 0.01084,-0.07685 0.02661,-0.153699 0.04731,-0.228577 0.01971,-0.07586 0.04534,-0.149758 0.07491,-0.220696 0.03055,-0.07192 0.06603,-0.141875 0.10546,-0.208872 0.03844,-0.067 0.08181,-0.132023 0.129114,-0.194094 0.04829,-0.06207 0.09954,-0.1202 0.154739,-0.175373 0.05519,-0.05518 0.113345,-0.106407 0.175438,-0.154684 0.06209,-0.04729 0.126157,-0.09064 0.194163,-0.129068 0.06702,-0.03941 0.136999,-0.07389 0.207963,-0.104436 0.07293,-0.02956 0.146854,-0.05517 0.22176,-0.07488 0.07491,-0.02168 0.151783,-0.03744 0.22866,-0.04828 0.07688,-0.01182 0.15474,-0.01675 0.232602,-0.01576 l 50.4983549,0 c 0.076877,0 0.1547396,0.0059 0.2326023,0.01576 0.076877,0.01083 0.153754,0.0266 0.2286599,0.04828 0.074906,0.01872 0.148826,0.04433 0.220775,0.07389 0.071949,0.03055 0.1409413,0.06601 0.2089479,0.105422 0.067021,0.03843 0.1320708,0.08178 0.1941638,0.130053 0.061107,0.0473 0.12024359,0.09852 0.17445176,0.153699 0.0561794,0.05517 0.10743072,0.113303 0.15473967,0.175373 0.0473089,0.06207 0.0906755,0.127097 0.13009959,0.194094 0.0394241,0.067 0.0739202,0.13695 0.10447392,0.208872 0.0295681,0.07193 0.0542082,0.145817 0.0749058,0.220696 0.0216833,0.07488 0.0374529,0.151728 0.0482945,0.228577 0.0108416,0.07685 0.0157697,0.154684 0.0157697,0.232519 l 0,0.01477 0,32.43236746 z"
             style="fill:#e72512;fill-opacity:1;fill-rule:evenodd;stroke:none"
             id="path7652"
             inkscape:connector-curvature="0" />
        </g>
        <g
           id="g7654"
           transform="matrix(0,1.25,1.25,0,371.12307,567.74906)"
           style="stroke:#000000;stroke-width:1.02525604">
          <path
             d="m 0,0 0,-33.814 c -0.001,-0.098 -0.007,-0.196 -0.02,-0.293 -0.014,-0.097 -0.033,-0.193 -0.06,-0.288 -0.025,-0.094 -0.056,-0.188 -0.094,-0.278 -0.038,-0.09 -0.083,-0.178 -0.133,-0.262 -0.048,-0.085 -0.103,-0.167 -0.163,-0.245 -0.059,-0.077 -0.124,-0.151 -0.194,-0.22 -0.069,-0.07 -0.142,-0.135 -0.22,-0.194 -0.078,-0.06 -0.159,-0.114 -0.245,-0.163 -0.084,-0.05 -0.172,-0.094 -0.262,-0.131 -0.091,-0.038 -0.184,-0.07 -0.278,-0.096 -0.095,-0.026 -0.191,-0.047 -0.288,-0.06 -0.097,-0.014 -0.195,-0.021 -0.293,-0.02 l -52.12,0 c -0.098,10e-4 -0.195,0.007 -0.293,0.021 -0.097,0.013 -0.193,0.033 -0.287,0.059 -0.095,0.025 -0.188,0.057 -0.279,0.095 -0.09,0.038 -0.178,0.082 -0.262,0.132 -0.085,0.049 -0.167,0.103 -0.244,0.163 -0.078,0.059 -0.152,0.124 -0.221,0.194 -0.069,0.069 -0.135,0.143 -0.194,0.22 -0.06,0.078 -0.114,0.16 -0.163,0.245 -0.05,0.084 -0.094,0.172 -0.131,0.263 -0.038,0.09 -0.07,0.183 -0.095,0.277 -0.027,0.095 -0.047,0.191 -0.061,0.288 -0.014,0.097 -0.02,0.195 -0.02,0.293 l 0,33.832 c 10e-4,0.098 0.008,0.196 0.021,0.293 0.013,0.097 0.033,0.193 0.06,0.287 0.024,0.095 0.056,0.188 0.094,0.279 0.038,0.09 0.082,0.178 0.132,0.262 0.049,0.085 0.103,0.167 0.163,0.245 0.06,0.077 0.125,0.151 0.194,0.22 0.069,0.069 0.143,0.134 0.221,0.194 0.077,0.06 0.159,0.114 0.244,0.163 0.085,0.05 0.172,0.094 0.263,0.131 0.09,0.038 0.183,0.07 0.278,0.096 0.094,0.026 0.19,0.047 0.287,0.06 0.097,0.014 0.195,0.02 0.293,0.02 l 52.12,0 C -2.152,2.267 -2.054,2.26 -1.957,2.247 -1.86,2.234 -1.764,2.214 -1.669,2.188 -1.574,2.163 -1.481,2.131 -1.391,2.093 -1.3,2.055 -1.213,2.011 -1.129,1.961 c 0.085,-0.049 0.167,-0.103 0.245,-0.163 0.078,-0.06 0.151,-0.125 0.22,-0.194 0.07,-0.069 0.135,-0.143 0.195,-0.22 0.059,-0.078 0.114,-0.16 0.162,-0.245 0.05,-0.084 0.094,-0.172 0.132,-0.263 0.038,-0.09 0.069,-0.183 0.095,-0.278 0.027,-0.094 0.047,-0.19 0.06,-0.287 C -0.006,0.214 0.001,0.116 0,0.018 L 0,0 z"
             style="fill:none;stroke:#000000;stroke-width:0.22145532;stroke-linecap:butt;stroke-linejoin:bevel;stroke-miterlimit:22.9260006;stroke-opacity:1;stroke-dasharray:none"
             id="path7656"
             inkscape:connector-curvature="0" />
          <g
             id="g7658"
             transform="translate(0.037,0)"
             style="stroke:#000000;stroke-width:1.02525604">
            <path
               d="m 0,0 0,0.018 c -0.001,0.1 -0.007,0.199 -0.021,0.298 -0.013,0.098 -0.033,0.196 -0.061,0.292 -0.025,0.096 -0.057,0.191 -0.095,0.283 -0.039,0.092 -0.084,0.181 -0.135,0.266 -0.049,0.087 -0.104,0.17 -0.165,0.249 -0.061,0.079 -0.127,0.153 -0.198,0.223 -0.07,0.072 -0.144,0.138 -0.223,0.198 C -0.977,1.888 -1.06,1.943 -1.147,1.992 -1.233,2.043 -1.322,2.088 -1.414,2.126 -1.505,2.165 -1.6,2.197 -1.696,2.223 -1.792,2.25 -1.89,2.271 -1.989,2.284 -2.087,2.298 -2.187,2.305 -2.286,2.304 l -52.12,0 c -0.1,0 -0.2,-0.007 -0.298,-0.021 C -54.803,2.27 -54.901,2.25 -54.997,2.223 -55.093,2.198 -55.188,2.166 -55.28,2.127 -55.371,2.088 -55.46,2.044 -55.546,1.992 -55.632,1.943 -55.715,1.888 -55.794,1.827 -55.873,1.766 -55.948,1.7 -56.018,1.629 -56.089,1.56 -56.155,1.485 -56.216,1.406 -56.277,1.327 -56.332,1.244 -56.381,1.157 -56.432,1.072 -56.476,0.983 -56.515,0.891 -56.553,0.799 -56.586,0.704 -56.611,0.608 -56.639,0.512 -56.659,0.414 -56.673,0.316 -56.687,0.217 -56.694,0.118 -56.693,0.018 l 0,-33.832 c 10e-4,-0.1 0.007,-0.199 0.021,-0.298 0.013,-0.099 0.034,-0.196 0.061,-0.292 0.025,-0.097 0.057,-0.191 0.096,-0.283 0.038,-0.092 0.083,-0.181 0.134,-0.266 0.049,-0.087 0.104,-0.17 0.165,-0.249 0.061,-0.079 0.127,-0.154 0.198,-0.224 0.07,-0.071 0.145,-0.137 0.224,-0.197 0.079,-0.061 0.162,-0.117 0.248,-0.166 0.086,-0.05 0.175,-0.095 0.267,-0.133 0.092,-0.039 0.186,-0.071 0.282,-0.097 0.096,-0.027 0.194,-0.048 0.293,-0.062 0.098,-0.014 0.198,-0.02 0.298,-0.02 l 52.12,0 c 0.099,10e-4 0.199,0.008 0.298,0.021 0.098,0.014 0.196,0.034 0.292,0.061 0.096,0.025 0.191,0.057 0.283,0.096 0.091,0.038 0.18,0.083 0.266,0.134 0.087,0.05 0.17,0.105 0.248,0.166 0.08,0.06 0.154,0.126 0.224,0.197 0.071,0.07 0.137,0.145 0.198,0.224 0.061,0.079 0.116,0.162 0.165,0.249 0.051,0.085 0.095,0.174 0.134,0.266 0.038,0.092 0.071,0.187 0.096,0.283 0.028,0.096 0.048,0.193 0.062,0.292 0.014,0.099 0.021,0.198 0.02,0.298 L 0,0 z"
               style="fill:none;stroke:#000000;stroke-width:1.38748491;stroke-linecap:butt;stroke-linejoin:bevel;stroke-miterlimit:22.9260006;stroke-opacity:1;stroke-dasharray:none"
               id="path7660"
               inkscape:connector-curvature="0" />
          </g>
        </g>
        <path
           d="m 333.99932,504.90156 0,54.89375 32.75375,0 0,-54.89375 -32.75375,0 z"
           style="fill:#ffffff;fill-opacity:1;fill-rule:nonzero;stroke:none"
           id="path7662"
           inkscape:connector-curvature="0" />
        <g
           id="g7664"
           transform="matrix(0,1.25,1.25,0,359.43682,556.00281)"
           style="stroke:#000000;stroke-width:1.02525604">
          <path
             d="m 0,0 -10.643,-0.058 -15.341,-12.565 -7.96,-0.162"
             style="fill:none;stroke:#000000;stroke-width:2.05051208;stroke-linecap:butt;stroke-linejoin:miter;stroke-miterlimit:22.9260006;stroke-opacity:1;stroke-dasharray:none"
             id="path7666"
             inkscape:connector-curvature="0" />
        </g>
        <g
           id="g7668"
           transform="matrix(0,1.25,1.25,0,343.32807,507.20281)"
           style="fill:#000000;stroke:none">
          <path
             d="M 0,0 5.216,-2.477 5.111,2.686 0,0"
             style="fill:#000000;fill-opacity:1;fill-rule:evenodd;stroke:none"
             id="path7670"
             inkscape:connector-curvature="0" />
        </g>
      </g>
    </g>
  </g>
</svg>
