<?xml version="1.0" encoding="UTF-8" standalone="no"?>
<svg
   xmlns:dc="http://purl.org/dc/elements/1.1/"
   xmlns:cc="http://creativecommons.org/ns#"
   xmlns:rdf="http://www.w3.org/1999/02/22-rdf-syntax-ns#"
   xmlns:svg="http://www.w3.org/2000/svg"
   xmlns="http://www.w3.org/2000/svg"
   xmlns:sodipodi="http://sodipodi.sourceforge.net/DTD/sodipodi-0.dtd"
   xmlns:inkscape="http://www.inkscape.org/namespaces/inkscape"
   version="1.0"
   width="300"
   height="400"
   id="svg2"
   inkscape:version="0.48.2 r9819"
   sodipodi:docname="Pillar_Green_Red_Green.svg"
   inkscape:label="Pillar"
   style="display:inline">
  <metadata
     id="metadata2822">
    <rdf:RDF>
      <cc:Work
         rdf:about="">
        <dc:format>image/svg+xml</dc:format>
        <dc:type
           rdf:resource="http://purl.org/dc/dcmitype/StillImage" />
        <dc:title />
      </cc:Work>
    </rdf:RDF>
  </metadata>
  <sodipodi:namedview
     pagecolor="#000000"
     bordercolor="#666666"
     borderopacity="1"
     objecttolerance="10"
     gridtolerance="10"
     guidetolerance="10"
     inkscape:pageopacity="0"
     inkscape:pageshadow="2"
     inkscape:window-width="1920"
     inkscape:window-height="1088"
     id="namedview2820"
     showgrid="true"
     inkscape:zoom="2.625"
     inkscape:cx="86.379292"
     inkscape:cy="199.93706"
     inkscape:window-x="0"
     inkscape:window-y="0"
     inkscape:window-maximized="1"
     inkscape:current-layer="g3660"
     inkscape:snap-grids="false">
    <inkscape:grid
       type="xygrid"
       id="grid3180"
       empspacing="5"
       visible="true"
       enabled="true"
       snapvisiblegridlinesonly="true" />
  </sodipodi:namedview>
  <defs
     id="defs4" />
  <g
     style="display:inline"
     inkscape:label="Pillar 3 Band"
     id="g3660"
     inkscape:groupmode="layer"
     transform="translate(0,80)">
    <path
       sodipodi:nodetypes="cccccccscccccccccccccscccccsssc"
       style="fill:#000204;fill-opacity:1;fill-rule:evenodd;stroke:none;display:inline"
       id="path3662"
       d="m 181.51075,18.597412 -6.53125,-2.09375 -30.46875,68.062503 -29.78125,32.593745 -7.78125,0 -0.125,5.65625 31.0625,0 c 1.28732,5.53295 6.23327,9.65624 12.15625,9.65625 5.92495,0 10.87095,-4.12052 12.15625,-9.65625 l 24.125,0 0,-5.65625 -7.78125,0 -2.46875,-22.343747 16.625,-72.625001 -7.15625,-2.28125 -4.03125,-1.3125 z m -2.28125,6.40625 4.96875,1.78125 -15.21875,68.031251 2.46875,22.343747 -9.25,0 c -1.28251,-5.53956 -6.22858,-9.6875 -12.15625,-9.6875 -5.92576,0 -10.87178,4.15063 -12.15625,9.6875 l -13.59375,0 26.25,-28.374995 28.6875,-63.781253 z m -21.7,94.981248 c 0,4.14 -3.36,7.5 -7.5,7.5 -4.14,0 -7.5,-3.36 -7.5,-7.5 0,-4.14 3.36,-7.5 7.5,-7.5 4.14,0 7.5,3.36 7.5,7.5 z" />
    <path
       style="fill:#000000;fill-opacity:1;stroke:none"
       d="m 150.62321,88.603495 18.41043,6.219738 0.12439,-0.52868 -18.34823,-6.250838 -0.18659,0.55978 z"
       id="path3664"
       sodipodi:nodetypes="ccccc" />
    <path
       style="fill:#000204;fill-opacity:1;stroke:none"
       d="m 165.2396,56.012046 11.59981,3.887338 c -0.14141,0.298758 -0.16166,0.365908 -0.15549,0.590878 l -11.69311,-3.918439 0.24879,-0.559777 z"
       id="path3666"
       sodipodi:nodetypes="ccccc" />
    <path
       style="fill:#00d400;fill-opacity:1;stroke:none"
       d="m 170.61314,57.575303 -5.02137,-1.71159 1.06438,-2.35796 c 0.58541,-1.29687 3.59703,-8.0151 6.6925,-14.92938 3.09547,-6.91429 5.76355,-12.721734 5.92909,-12.905437 0.34876,-0.387044 4.18794,0.897115 4.40648,1.473914 0.08,0.211146 -1.4493,7.497383 -3.39846,16.191633 -2.6098,11.64104 -3.68986,15.82653 -4.09759,15.87907 -0.30452,0.0392 -2.81328,-0.69888 -5.57503,-1.64025 z"
       id="path7727" />
    <path
       style="fill:#00d400;fill-opacity:1;stroke:none"
       d="m 125.58786,116.21049 c 2.34428,-2.92161 24.98999,-26.984777 25.45198,-27.045087 0.32707,-0.0427 4.45181,1.24302 9.16609,2.85715 l 8.57143,2.93477 1.00734,8.952377 c 0.55404,4.92381 1.11268,9.85238 1.24143,10.95238 l 0.23408,2 -4.51446,0 -4.51446,0 -0.44937,-1.49987 c -0.71669,-2.3921 -3.0654,-5.02701 -5.80451,-6.51181 -2.26985,-1.23042 -2.6748,-1.32152 -5.86672,-1.31973 -2.70352,0.002 -3.80524,0.1756 -5.20977,0.8232 -2.64794,1.2209 -5.0092,3.59547 -6.18857,6.22346 l -1.02533,2.28475 -6.311,0 c -5.90468,0 -6.27734,-0.042 -5.78816,-0.65159 z"
       id="path7729" />
    <path
       style="fill:#ff0000;fill-opacity:1;stroke:none"
       d="m 160.42171,91.102603 c -4.5956,-1.53969 -8.52161,-2.96539 -8.72445,-3.16823 -0.35964,-0.35964 12.81869,-30.29433 13.53026,-30.73411 0.1766,-0.10914 2.76711,0.61041 5.75669,1.599 l 5.43561,1.79744 -3.69778,16.54892 c -2.03377,9.1019 -3.75332,16.59561 -3.82122,16.65267 -0.0679,0.0571 -3.8835,-1.156 -8.47911,-2.69569 l 0,0 z"
       id="path7731" />
  </g>
</svg>
