<?xml version="1.0" encoding="UTF-8" standalone="no"?>
<svg
   xmlns:dc="http://purl.org/dc/elements/1.1/"
   xmlns:cc="http://creativecommons.org/ns#"
   xmlns:rdf="http://www.w3.org/1999/02/22-rdf-syntax-ns#"
   xmlns:svg="http://www.w3.org/2000/svg"
   xmlns="http://www.w3.org/2000/svg"
   xmlns:sodipodi="http://sodipodi.sourceforge.net/DTD/sodipodi-0.dtd"
   xmlns:inkscape="http://www.inkscape.org/namespaces/inkscape"
   version="1.0"
   width="300"
   height="400"
   id="svg2"
   inkscape:version="0.48.2 r9819"
   sodipodi:docname="Pillar_Green.svg"
   inkscape:label="Pillar"
   style="display:inline">
  <metadata
     id="metadata2822">
    <rdf:RDF>
      <cc:Work
         rdf:about="">
        <dc:format>image/svg+xml</dc:format>
        <dc:type
           rdf:resource="http://purl.org/dc/dcmitype/StillImage" />
        <dc:title />
      </cc:Work>
    </rdf:RDF>
  </metadata>
  <sodipodi:namedview
     pagecolor="#000000"
     bordercolor="#666666"
     borderopacity="1"
     objecttolerance="10"
     gridtolerance="10"
     guidetolerance="10"
     inkscape:pageopacity="0"
     inkscape:pageshadow="2"
     inkscape:window-width="1920"
     inkscape:window-height="1088"
     id="namedview2820"
     showgrid="true"
     inkscape:zoom="3.7123106"
     inkscape:cx="98.454105"
     inkscape:cy="198.24696"
     inkscape:window-x="0"
     inkscape:window-y="0"
     inkscape:window-maximized="1"
     inkscape:current-layer="layer3"
     inkscape:snap-grids="false">
    <inkscape:grid
       type="xygrid"
       id="grid3180"
       empspacing="5"
       visible="true"
       enabled="true"
       snapvisiblegridlinesonly="true" />
  </sodipodi:namedview>
  <defs
     id="defs4" />
  <g
     inkscape:groupmode="layer"
     id="layer3"
     inkscape:label="Pillar"
     style="display:inline"
     transform="translate(0,80)">
    <path
       d="m 181.51075,18.586849 -6.53125,-2.09375 -30.46875,68.062503 -29.78125,32.593748 -7.78125,0 -0.125,5.65625 31.0625,0 c 1.28732,5.53295 6.23327,9.65624 12.15625,9.65625 5.92495,0 10.87095,-4.12052 12.15625,-9.65625 l 24.125,0 0,-5.65625 -7.78125,0 -2.46875,-22.34375 16.625,-72.625001 -7.15625,-2.28125 -4.03125,-1.3125 z m -2.28125,6.40625 4.96875,1.78125 -15.21875,68.031251 2.46875,22.34375 -9.25,0 c -1.28251,-5.53956 -6.22858,-9.6875 -12.15625,-9.6875 -5.92576,0 -10.87178,4.15063 -12.15625,9.6875 l -13.59375,0 26.25,-28.374998 28.6875,-63.781253 z m -21.7,94.981251 c 0,4.14 -3.36,7.5 -7.5,7.5 -4.14,0 -7.5,-3.36 -7.5,-7.5 0,-4.14 3.36,-7.5 7.5,-7.5 4.14,0 7.5,3.36 7.5,7.5 z"
       id="path13269"
       style="fill:#000407;fill-opacity:1;fill-rule:evenodd;stroke:none;display:inline"
       sodipodi:nodetypes="cccccccscccccccccccccscccccsssc" />
    <path
       style="fill:#00d400;fill-opacity:1;stroke:none"
       d="m 125.58786,116.20191 c 0.28756,-0.35728 6.09426,-6.68595 12.90379,-14.06371 L 150.8726,88.7241 164.92764,57.35924 c 7.73028,-17.25067 14.19375,-31.519761 14.36328,-31.709084 0.29318,-0.327426 3.58015,0.671102 4.27718,1.299343 0.17301,0.155928 -3.04128,15.287731 -7.14285,33.626241 -4.10158,18.3385 -7.45741,33.95192 -7.45741,34.69647 0,1.22315 1.56069,15.99697 2.10858,19.96026 l 0.22382,1.61905 -4.53447,0 -4.53448,0 -0.44937,-1.49987 c -0.71669,-2.3921 -3.0654,-5.027 -5.80451,-6.51181 -2.26985,-1.23042 -2.6748,-1.32152 -5.86672,-1.31973 -2.70352,0.002 -3.80524,0.1756 -5.20977,0.8232 -2.64794,1.2209 -5.0092,3.59547 -6.18857,6.22346 l -1.02533,2.28475 -6.311,0 c -5.89778,0 -6.27676,-0.0425 -5.78816,-0.64961 z"
       id="path3964" />
  </g>
</svg>
