<?xml version="1.0" encoding="UTF-8" standalone="no"?>
<svg
   xmlns:dc="http://purl.org/dc/elements/1.1/"
   xmlns:cc="http://creativecommons.org/ns#"
   xmlns:rdf="http://www.w3.org/1999/02/22-rdf-syntax-ns#"
   xmlns:svg="http://www.w3.org/2000/svg"
   xmlns="http://www.w3.org/2000/svg"
   xmlns:sodipodi="http://sodipodi.sourceforge.net/DTD/sodipodi-0.dtd"
   xmlns:inkscape="http://www.inkscape.org/namespaces/inkscape"
   version="1.0"
   width="300"
   height="400"
   id="svg2"
   inkscape:version="0.48.2 r9819"
   sodipodi:docname="Pillar_Green_White_Green_White.svg"
   inkscape:label="Pillar"
   style="display:inline">
  <metadata
     id="metadata2822">
    <rdf:RDF>
      <cc:Work
         rdf:about="">
        <dc:format>image/svg+xml</dc:format>
        <dc:type
           rdf:resource="http://purl.org/dc/dcmitype/StillImage" />
        <dc:title />
      </cc:Work>
    </rdf:RDF>
  </metadata>
  <sodipodi:namedview
     pagecolor="#000000"
     bordercolor="#666666"
     borderopacity="1"
     objecttolerance="10"
     gridtolerance="10"
     guidetolerance="10"
     inkscape:pageopacity="0"
     inkscape:pageshadow="2"
     inkscape:window-width="1920"
     inkscape:window-height="1088"
     id="namedview2820"
     showgrid="true"
     inkscape:zoom="7.9999999"
     inkscape:cx="120.37879"
     inkscape:cy="245.03238"
     inkscape:window-x="0"
     inkscape:window-y="0"
     inkscape:window-maximized="1"
     inkscape:current-layer="g3660"
     inkscape:snap-grids="false">
    <inkscape:grid
       type="xygrid"
       id="grid3180"
       empspacing="5"
       visible="true"
       enabled="true"
       snapvisiblegridlinesonly="true" />
  </sodipodi:namedview>
  <defs
     id="defs4" />
  <g
     style="display:inline"
     inkscape:label="Pillar 4 Band"
     id="g3660"
     inkscape:groupmode="layer"
     transform="translate(0,80)">
    <path
       sodipodi:nodetypes="cccccccscccccccccccccscccccsssc"
       style="fill:#000204;fill-opacity:1;fill-rule:evenodd;stroke:none;display:inline"
       id="path3662"
       d="m 181.53913,18.569007 -6.53125,-2.09375 -30.46875,68.062503 -29.78125,32.59375 -7.78125,0 -0.125,5.65625 31.0625,0 c 1.28732,5.53295 6.23327,9.65624 12.15625,9.65625 5.92495,0 10.87095,-4.12052 12.15625,-9.65625 l 24.125,0 0,-5.65625 -7.78125,0 -2.46875,-22.343752 16.625,-72.625001 -7.15625,-2.28125 -4.03125,-1.3125 z m -2.28125,6.40625 4.96875,1.78125 -15.21875,68.031251 2.46875,22.343752 -9.25,0 c -1.28251,-5.53956 -6.22858,-9.6875 -12.15625,-9.6875 -5.92576,0 -10.87178,4.15063 -12.15625,9.6875 l -13.59375,0 26.25,-28.375 28.6875,-63.781253 z m -21.7,94.981253 c 0,4.14 -3.36,7.5 -7.5,7.5 -4.14,0 -7.5,-3.36 -7.5,-7.5 0,-4.14 3.36,-7.5 7.5,-7.5 4.14,0 7.5,3.36 7.5,7.5 z"
       inkscape:connector-curvature="0" />
    <path
       style="fill:#000000;fill-opacity:1;stroke:none"
       d="m 144.47549,94.460762 25.75968,8.678758 0.10551,-0.53499 -25.67891,-8.703653 -0.18634,0.559861 z"
       id="path3664"
       sodipodi:nodetypes="ccccc"
       inkscape:connector-curvature="0" />
    <path
       style="fill:#000204;fill-opacity:1;stroke:none"
       d="m 167.51798,48.233641 11.59981,3.887338 c -0.14141,0.298758 -0.16166,0.365908 -0.15549,0.590878 l -11.69311,-3.918439 0.24879,-0.559777 z"
       id="path3666"
       sodipodi:nodetypes="ccccc"
       inkscape:connector-curvature="0" />
    <path
       inkscape:connector-curvature="0"
       sodipodi:nodetypes="ccccc"
       id="path3427"
       d="m 157.40231,71.856709 15.83322,5.303837 c -0.15496,0.294222 -0.17455,0.361593 -0.14167,0.5955 l -15.96056,-5.346338 0.26898,-0.553022 z"
       style="fill:#000204;fill-opacity:1;stroke:none" />
    <path
       style="fill:#00d400;fill-opacity:1;stroke:none"
       d="m 173.64229,130.2261 c -2.5982,-0.88127 -4.75774,-1.63605 -4.79896,-1.67728 -0.072,-0.072 10.25403,-23.16799 10.44608,-23.3646 0.15387,-0.15751 4.83129,1.59281 4.80015,1.79625 -0.0315,0.20595 -4.93171,22.17006 -5.30272,23.7684 -0.13963,0.60156 -0.29138,1.09056 -0.33721,1.08665 -0.0458,-0.004 -2.20914,-0.72814 -4.80734,-1.60942 l 0,0 z"
       id="path5845"
       inkscape:connector-curvature="0"
       transform="translate(0,-80)" />
    <path
       style="fill:#00d400;fill-opacity:1;stroke:none"
       d="m 157.74129,178.27091 c -6.53125,-2.22407 -11.9163,-4.05997 -11.96679,-4.07978 -0.0505,-0.0198 1.02154,-1.24048 2.38226,-2.71261 l 2.47405,-2.6766 3.61699,-8.04382 c 1.98935,-4.4241 3.67358,-8.02325 3.74274,-7.99811 0.0692,0.0251 3.41872,1.15474 7.44347,2.51021 l 7.31772,2.46449 -1.90651,8.52272 -1.90651,8.52271 0.36579,3.3125 c 0.20119,1.82188 0.3965,3.52344 0.43402,3.78125 0.0375,0.25781 0.0254,0.46246 -0.027,0.45478 -0.0524,-0.008 -5.43898,-1.83367 -11.97023,-4.05774 z"
       id="path5847"
       inkscape:connector-curvature="0"
       transform="translate(0,-80)" />
    <path
       style="fill:#ffffff;fill-opacity:1;stroke:none"
       d="m 165.49129,154.50624 c -3.9875,-1.3465 -7.2641,-2.4592 -7.28133,-2.47265 -0.0172,-0.0135 2.19495,-4.96974 4.91596,-11.01396 2.72101,-6.04423 5.02221,-11.16701 5.11377,-11.38396 l 0.16648,-0.39445 4.91756,1.66087 c 3.01606,1.01866 4.93064,1.72703 4.95139,1.83195 0.0241,0.12202 -4.50119,20.63244 -5.28471,23.95233 -0.0365,0.15469 -0.1075,0.27828 -0.15775,0.27466 -0.0503,-0.004 -3.35387,-1.10828 -7.34137,-2.45479 z"
       id="path5849"
       inkscape:connector-curvature="0"
       transform="translate(0,-80)" />
    <path
       style="fill:#ffffff;fill-opacity:1;stroke:none"
       d="m 124.57879,197.02905 c 0,-0.16448 20.54831,-22.2449 20.67238,-22.21375 0.99714,0.25037 24.42826,8.23375 24.52916,8.3575 0.0765,0.0938 0.17732,0.57819 0.22411,1.07643 0.0468,0.49824 0.38069,3.59251 0.74199,6.87615 l 0.65693,5.97027 -4.5502,-0.0328 -4.5502,-0.0328 -0.33986,-1 c -1.64205,-4.8316 -5.64165,-8.04158 -10.66556,-8.5599 -2.33485,-0.24089 -4.61557,0.17849 -6.78125,1.24694 -3.07737,1.51824 -5.34126,4.15522 -6.38561,7.43796 l -0.27836,0.875 -6.63677,0.0323 c -3.65022,0.0178 -6.63676,0.003 -6.63676,-0.0334 z"
       id="path6359"
       inkscape:connector-curvature="0"
       transform="translate(0,-80)" />
  </g>
</svg>
