<?xml version="1.0" encoding="UTF-8" standalone="no"?>
<svg
   xmlns:dc="http://purl.org/dc/elements/1.1/"
   xmlns:cc="http://creativecommons.org/ns#"
   xmlns:rdf="http://www.w3.org/1999/02/22-rdf-syntax-ns#"
   xmlns:svg="http://www.w3.org/2000/svg"
   xmlns="http://www.w3.org/2000/svg"
   xmlns:sodipodi="http://sodipodi.sourceforge.net/DTD/sodipodi-0.dtd"
   xmlns:inkscape="http://www.inkscape.org/namespaces/inkscape"
   version="1.0"
   width="300"
   height="400"
   id="svg2"
   inkscape:version="0.48.2 r9819"
   sodipodi:docname="Pillar_Black_Red_Black.svg"
   inkscape:label="Pillar"
   style="display:inline">
  <metadata
     id="metadata2822">
    <rdf:RDF>
      <cc:Work
         rdf:about="">
        <dc:format>image/svg+xml</dc:format>
        <dc:type
           rdf:resource="http://purl.org/dc/dcmitype/StillImage" />
        <dc:title />
      </cc:Work>
    </rdf:RDF>
  </metadata>
  <sodipodi:namedview
     pagecolor="#000000"
     bordercolor="#666666"
     borderopacity="1"
     objecttolerance="10"
     gridtolerance="10"
     guidetolerance="10"
     inkscape:pageopacity="0"
     inkscape:pageshadow="2"
     inkscape:window-width="1920"
     inkscape:window-height="1088"
     id="namedview2820"
     showgrid="true"
     inkscape:zoom="1.8561553"
     inkscape:cx="156.11248"
     inkscape:cy="199.93706"
     inkscape:window-x="1440"
     inkscape:window-y="0"
     inkscape:window-maximized="0"
     inkscape:current-layer="g3660"
     inkscape:snap-grids="false">
    <inkscape:grid
       type="xygrid"
       id="grid3180"
       empspacing="5"
       visible="true"
       enabled="true"
       snapvisiblegridlinesonly="true" />
  </sodipodi:namedview>
  <defs
     id="defs4" />
  <g
     style="display:inline"
     inkscape:label="Pillar 3 Band"
     id="g3660"
     inkscape:groupmode="layer"
     transform="translate(0,80)">
    <path
       sodipodi:nodetypes="cccccccscccccccccccccscccccsssc"
       style="fill:#000204;fill-opacity:1;fill-rule:evenodd;stroke:none;display:inline"
       id="path3662"
       d="m 181.55548,18.58774 -6.53125,-2.09375 -30.46875,68.062503 -29.78125,32.593747 -7.78125,0 -0.125,5.65625 31.0625,0 c 1.28732,5.53295 6.23327,9.65624 12.15625,9.65625 5.92495,0 10.87095,-4.12052 12.15625,-9.65625 l 24.125,0 0,-5.65625 -7.78125,0 -2.46875,-22.343749 16.625,-72.625001 -7.15625,-2.28125 -4.03125,-1.3125 z m -2.28125,6.40625 4.96875,1.78125 -15.21875,68.031251 2.46875,22.343749 -9.25,0 c -1.28251,-5.53956 -6.22858,-9.6875 -12.15625,-9.6875 -5.92576,0 -10.87178,4.15063 -12.15625,9.6875 l -13.59375,0 26.25,-28.374997 28.6875,-63.781253 z m -21.7,94.98125 c 0,4.14 -3.36,7.5 -7.5,7.5 -4.14,0 -7.5,-3.36 -7.5,-7.5 0,-4.14 3.36,-7.5 7.5,-7.5 4.14,0 7.5,3.36 7.5,7.5 z" />
    <path
       style="fill:#000000;fill-opacity:1;stroke:none"
       d="m 150.66794,88.593823 18.41043,6.219738 0.12439,-0.52868 -18.34823,-6.250838 -0.18659,0.55978 z"
       id="path3664"
       sodipodi:nodetypes="ccccc" />
    <path
       style="fill:#000204;fill-opacity:1;stroke:none"
       d="m 165.28433,56.002374 11.59981,3.887338 c -0.14141,0.298758 -0.16166,0.365908 -0.15549,0.590878 l -11.69311,-3.918439 0.24879,-0.559777 z"
       id="path3666"
       sodipodi:nodetypes="ccccc" />
    <path
       style="fill:#d40000;fill-opacity:1;stroke:none"
       d="m 160.2439,90.940181 c -4.53002,-1.56352 -8.35543,-2.96179 -8.50091,-3.10727 -0.14548,-0.14549 2.8387,-7.16677 6.63152,-15.60285 l 6.89604,-15.33833 5.31898,1.78323 c 2.92544,0.98079 5.41243,1.87669 5.52665,1.99091 0.27052,0.27052 -6.87084,32.3012 -7.30486,32.76406 -0.18206,0.19416 -4.0374,-0.92623 -8.56742,-2.48975 z"
       id="path3025" />
    <path
       style="fill:#000000;fill-opacity:1;stroke:none"
       d="m 171.03936,57.628081 c -2.74088,-0.92526 -4.98342,-1.8571 -4.98342,-2.07075 0,-0.57814 12.9249,-29.216685 13.40466,-29.701581 0.22661,-0.229034 1.32819,-0.03362 2.44796,0.434247 1.68852,0.705508 1.98213,1.052376 1.72056,2.032669 -0.17346,0.650099 -1.81451,7.909615 -3.64679,16.132255 -1.83227,8.22264 -3.47273,14.92893 -3.64548,14.90285 -0.17274,-0.0261 -2.55661,-0.80443 -5.29749,-1.72969 z"
       id="path3027" />
    <path
       style="fill:#000000;fill-opacity:1;stroke:none"
       d="m 126.78872,115.03091 c 1.04297,-1.11117 6.46589,-6.99025 12.05094,-13.06464 5.58504,-6.074379 10.56449,-11.487579 11.06544,-12.029319 0.8779,-0.9494 1.22907,-0.87566 9.71866,2.04085 4.84432,1.66421 8.89352,3.11152 8.99824,3.21623 0.10471,0.10472 0.73602,5.065429 1.40289,11.023789 l 1.21251,10.8334 -4.34166,-0.002 -4.34166,-0.002 -0.99855,-2.42807 c -3.2561,-7.91759 -14.6105,-9.80014 -20.65876,-3.42522 -0.94799,0.99919 -2.10282,2.72585 -2.56628,3.83702 l -0.84266,2.02031 -6.29771,0 -6.29771,0 1.89631,-2.02031 z"
       id="path3029" />
  </g>
</svg>
