<?xml version="1.0" encoding="UTF-8" standalone="no"?>
<svg
   xmlns:dc="http://purl.org/dc/elements/1.1/"
   xmlns:cc="http://creativecommons.org/ns#"
   xmlns:rdf="http://www.w3.org/1999/02/22-rdf-syntax-ns#"
   xmlns:svg="http://www.w3.org/2000/svg"
   xmlns="http://www.w3.org/2000/svg"
   xmlns:sodipodi="http://sodipodi.sourceforge.net/DTD/sodipodi-0.dtd"
   xmlns:inkscape="http://www.inkscape.org/namespaces/inkscape"
   version="1.0"
   width="300"
   height="400"
   id="svg2"
   inkscape:version="0.48.2 r9819"
   sodipodi:docname="Pillar.svg"
   inkscape:label="Pillar"
   style="display:inline">
  <metadata
     id="metadata2822">
    <rdf:RDF>
      <cc:Work
         rdf:about="">
        <dc:format>image/svg+xml</dc:format>
        <dc:type
           rdf:resource="http://purl.org/dc/dcmitype/StillImage" />
        <dc:title />
      </cc:Work>
    </rdf:RDF>
  </metadata>
  <sodipodi:namedview
     pagecolor="#000000"
     bordercolor="#666666"
     borderopacity="1"
     objecttolerance="10"
     gridtolerance="10"
     guidetolerance="10"
     inkscape:pageopacity="0"
     inkscape:pageshadow="2"
     inkscape:window-width="1920"
     inkscape:window-height="1088"
     id="namedview2820"
     showgrid="true"
     inkscape:zoom="2.8284271"
     inkscape:cx="106.03633"
     inkscape:cy="297.07387"
     inkscape:window-x="1440"
     inkscape:window-y="0"
     inkscape:window-maximized="0"
     inkscape:current-layer="layer3"
     inkscape:snap-grids="false">
    <inkscape:grid
       type="xygrid"
       id="grid3180"
       empspacing="5"
       visible="true"
       enabled="true"
       snapvisiblegridlinesonly="true" />
  </sodipodi:namedview>
  <defs
     id="defs4" />
  <g
     inkscape:groupmode="layer"
     id="layer3"
     inkscape:label="Pillar"
     style="display:inline"
     transform="translate(0,80)">
    <path
       d="m 181.53913,18.569007 -6.53125,-2.09375 -30.46875,68.062503 -29.78125,32.59375 -7.78125,0 -0.125,5.65625 31.0625,0 c 1.28732,5.53295 6.23327,9.65624 12.15625,9.65625 5.92495,0 10.87095,-4.12052 12.15625,-9.65625 l 24.125,0 0,-5.65625 -7.78125,0 -2.46875,-22.343752 16.625,-72.625001 -7.15625,-2.28125 -4.03125,-1.3125 z m -2.28125,6.40625 4.96875,1.78125 -15.21875,68.031251 2.46875,22.343752 -9.25,0 c -1.28251,-5.53956 -6.22858,-9.6875 -12.15625,-9.6875 -5.92576,0 -10.87178,4.15063 -12.15625,9.6875 l -13.59375,0 26.25,-28.375 28.6875,-63.781253 z m -21.7,94.981253 c 0,4.14 -3.36,7.5 -7.5,7.5 -4.14,0 -7.5,-3.36 -7.5,-7.5 0,-4.14 3.36,-7.5 7.5,-7.5 4.14,0 7.5,3.36 7.5,7.5 z"
       id="path13269"
       style="fill:#000407;fill-opacity:1;fill-rule:evenodd;stroke:none;display:inline"
       sodipodi:nodetypes="cccccccscccccccccccccscccccsssc" />
  </g>
</svg>
