<?xml version="1.0" encoding="UTF-8" standalone="no"?>
<svg
   xmlns:dc="http://purl.org/dc/elements/1.1/"
   xmlns:cc="http://creativecommons.org/ns#"
   xmlns:rdf="http://www.w3.org/1999/02/22-rdf-syntax-ns#"
   xmlns:svg="http://www.w3.org/2000/svg"
   xmlns="http://www.w3.org/2000/svg"
   xmlns:sodipodi="http://sodipodi.sourceforge.net/DTD/sodipodi-0.dtd"
   xmlns:inkscape="http://www.inkscape.org/namespaces/inkscape"
   version="1.0"
   width="300"
   height="400"
   id="svg2"
   inkscape:version="0.48.2 r9819"
   sodipodi:docname="Pillar_Yellow.svg"
   inkscape:label="Pillar"
   style="display:inline">
  <metadata
     id="metadata2822">
    <rdf:RDF>
      <cc:Work
         rdf:about="">
        <dc:format>image/svg+xml</dc:format>
        <dc:type
           rdf:resource="http://purl.org/dc/dcmitype/StillImage" />
        <dc:title />
      </cc:Work>
    </rdf:RDF>
  </metadata>
  <sodipodi:namedview
     pagecolor="#000000"
     bordercolor="#666666"
     borderopacity="1"
     objecttolerance="10"
     gridtolerance="10"
     guidetolerance="10"
     inkscape:pageopacity="0"
     inkscape:pageshadow="2"
     inkscape:window-width="1920"
     inkscape:window-height="1088"
     id="namedview2820"
     showgrid="true"
     inkscape:zoom="2.8284271"
     inkscape:cx="106.03633"
     inkscape:cy="297.07387"
     inkscape:window-x="0"
     inkscape:window-y="0"
     inkscape:window-maximized="0"
     inkscape:current-layer="layer3"
     inkscape:snap-grids="false">
    <inkscape:grid
       type="xygrid"
       id="grid3180"
       empspacing="5"
       visible="true"
       enabled="true"
       snapvisiblegridlinesonly="true" />
  </sodipodi:namedview>
  <defs
     id="defs4" />
  <g
     inkscape:groupmode="layer"
     id="layer3"
     inkscape:label="Pillar"
     style="display:inline"
     transform="translate(0,80)">
    <path
       d="m 181.53913,18.569007 -6.53125,-2.09375 -30.46875,68.062503 -29.78125,32.59375 -7.78125,0 -0.125,5.65625 31.0625,0 c 1.28732,5.53295 6.23327,9.65624 12.15625,9.65625 5.92495,0 10.87095,-4.12052 12.15625,-9.65625 l 24.125,0 0,-5.65625 -7.78125,0 -2.46875,-22.343752 16.625,-72.625001 -7.15625,-2.28125 -4.03125,-1.3125 z m -2.28125,6.40625 4.96875,1.78125 -15.21875,68.031251 2.46875,22.343752 -9.25,0 c -1.28251,-5.53956 -6.22858,-9.6875 -12.15625,-9.6875 -5.92576,0 -10.87178,4.15063 -12.15625,9.6875 l -13.59375,0 26.25,-28.375 28.6875,-63.781253 z m -21.7,94.981253 c 0,4.14 -3.36,7.5 -7.5,7.5 -4.14,0 -7.5,-3.36 -7.5,-7.5 0,-4.14 3.36,-7.5 7.5,-7.5 4.14,0 7.5,3.36 7.5,7.5 z"
       id="path13269"
       style="fill:#000407;fill-opacity:1;fill-rule:evenodd;stroke:none;display:inline"
       sodipodi:nodetypes="cccccccscccccccccccccscccccsssc" />
    <path
       style="fill:#ffd400;fill-opacity:1;stroke:#a30075;stroke-width:0;stroke-miterlimit:4;stroke-opacity:1;stroke-dasharray:none"
       d="m 125.3051,196.49804 c 0.1555,-0.26031 5.93075,-6.56177 12.83388,-14.00325 l 12.55114,-13.52996 14.25595,-31.68949 c 7.84077,-17.42921 14.31389,-31.74743 14.38472,-31.81825 0.0708,-0.0708 1.15463,0.21262 2.40845,0.62986 l 2.27969,0.75863 -0.33529,1.48742 c -0.18442,0.81808 -3.60184,16.04498 -7.59428,33.83756 l -7.25897,32.35013 1.10611,10.42983 c 0.60837,5.7364 1.18348,10.7878 1.27804,11.22532 0.17131,0.79263 0.15558,0.79549 -4.37504,0.79549 l -4.54696,0 -0.39761,-1.32582 c -0.94285,-3.14398 -4.00748,-6.23293 -7.4925,-7.55197 -2.65456,-1.00471 -7.14959,-0.81604 -9.72271,0.4081 -2.48773,1.18351 -5.16274,3.968 -6.1837,6.43676 l -0.84071,2.03293 -6.31647,0 c -5.18142,0 -6.26567,-0.085 -6.03374,-0.47329 z"
       id="path3111"
       inkscape:connector-curvature="0"
       transform="translate(0,-80)" />
  </g>
</svg>
