<?xml version="1.0" encoding="UTF-8" standalone="no"?>
<svg
   xmlns:dc="http://purl.org/dc/elements/1.1/"
   xmlns:cc="http://creativecommons.org/ns#"
   xmlns:rdf="http://www.w3.org/1999/02/22-rdf-syntax-ns#"
   xmlns:svg="http://www.w3.org/2000/svg"
   xmlns="http://www.w3.org/2000/svg"
   xmlns:sodipodi="http://sodipodi.sourceforge.net/DTD/sodipodi-0.dtd"
   xmlns:inkscape="http://www.inkscape.org/namespaces/inkscape"
   version="1.0"
   width="300"
   height="400"
   id="svg2"
   inkscape:version="0.48.2 r9819"
   sodipodi:docname="Pillar_Black_Yellow.svg"
   inkscape:label="Pillar"
   style="display:inline">
  <metadata
     id="metadata2822">
    <rdf:RDF>
      <cc:Work
         rdf:about="">
        <dc:format>image/svg+xml</dc:format>
        <dc:type
           rdf:resource="http://purl.org/dc/dcmitype/StillImage" />
        <dc:title />
      </cc:Work>
    </rdf:RDF>
  </metadata>
  <sodipodi:namedview
     pagecolor="#000000"
     bordercolor="#666666"
     borderopacity="1"
     objecttolerance="10"
     gridtolerance="10"
     guidetolerance="10"
     inkscape:pageopacity="0"
     inkscape:pageshadow="2"
     inkscape:window-width="1920"
     inkscape:window-height="1088"
     id="namedview2820"
     showgrid="true"
     inkscape:zoom="1.8561553"
     inkscape:cx="136.92594"
     inkscape:cy="197.35704"
     inkscape:window-x="1440"
     inkscape:window-y="0"
     inkscape:window-maximized="0"
     inkscape:current-layer="g2880"
     inkscape:snap-grids="false">
    <inkscape:grid
       type="xygrid"
       id="grid3180"
       empspacing="5"
       visible="true"
       enabled="true"
       snapvisiblegridlinesonly="true" />
  </sodipodi:namedview>
  <defs
     id="defs4" />
  <g
     style="display:inline"
     inkscape:label="Pillar 2 Band"
     id="g2880"
     inkscape:groupmode="layer"
     transform="translate(0,80)">
    <path
       sodipodi:nodetypes="cccccccscccccccccccccscccccsssc"
       style="fill:#000407;fill-opacity:1;fill-rule:evenodd;stroke:none;display:inline"
       id="path2882"
       d="m 181.53965,18.603189 -6.53125,-2.09375 -30.46875,68.062503 -29.78125,32.593748 -7.78125,0 -0.125,5.65625 31.0625,0 c 1.28732,5.53295 6.23327,9.65624 12.15625,9.65625 5.92495,0 10.87095,-4.12052 12.15625,-9.65625 l 24.125,0 0,-5.65625 -7.78125,0 -2.46875,-22.34375 16.625,-72.625001 -7.15625,-2.28125 -4.03125,-1.3125 z m -2.28125,6.40625 4.96875,1.78125 -15.21875,68.031251 2.46875,22.34375 -9.25,0 c -1.28251,-5.53956 -6.22858,-9.6875 -12.15625,-9.6875 -5.92576,0 -10.87178,4.15063 -12.15625,9.6875 l -13.59375,0 26.25,-28.374998 28.6875,-63.781253 z m -21.7,94.981251 c 0,4.14 -3.36,7.5 -7.5,7.5 -4.14,0 -7.5,-3.36 -7.5,-7.5 0,-4.14 3.36,-7.5 7.5,-7.5 4.14,0 7.5,3.36 7.5,7.5 z" />
    <path
       style="fill:#000000;fill-opacity:1;stroke:none"
       d="m 158.8491,70.319732 14.50814,5.08883 -0.0591,0.54193 -14.69694,-5.11992 0.24787,-0.51084 z"
       id="path3658"
       sodipodi:nodetypes="ccccc" />
    <path
       style="fill:#000000;fill-opacity:1"
       d="m 166.08885,72.74731 c -3.77797,-1.33703 -6.89927,-2.45454 -6.93623,-2.48334 -0.037,-0.0288 4.49106,-10.18258 10.06226,-22.56396 l 10.12944,-22.511595 2.3976,0.849284 c 1.31868,0.467107 2.35282,0.970503 2.29809,1.118659 -0.0547,0.148155 -2.50492,11.027502 -5.44486,24.176322 -2.93994,13.14881 -5.41103,23.89314 -5.49131,23.87627 -0.0803,-0.0169 -3.23702,-1.1246 -7.01499,-2.46164 z"
       id="path4976" />
    <path
       style="fill:#ffd400;fill-opacity:1"
       d="m 124.98331,116.7653 c 0.0773,-0.12502 5.89716,-6.45275 12.93311,-14.06164 l 12.79264,-13.83434 3.96793,-8.83516 c 2.18236,-4.85933 4.09728,-8.83602 4.25538,-8.83707 0.36919,-0.002 13.69634,4.61034 13.93816,4.8243 0.10011,0.0886 -0.75725,4.34307 -1.90526,9.45444 l -2.08728,9.2934 1.15205,10.3709 c 0.63363,5.704 1.15765,10.70425 1.16449,11.11168 l 0.0124,0.74078 -4.42379,0 -4.42378,0 -0.32718,-0.99136 c -1.43347,-4.34349 -5.48932,-7.73159 -10.10337,-8.44 -6.17091,-0.94743 -11.86323,2.7087 -13.94999,8.95996 -0.14406,0.43155 -0.70591,0.4714 -6.64669,0.4714 -3.56913,0 -6.42612,-0.10228 -6.34885,-0.22729 z"
       id="path4978" />
  </g>
</svg>
