<?xml version="1.0" encoding="UTF-8" standalone="no"?>
<svg id="svg2" xmlns:rdf="http://www.w3.org/1999/02/22-rdf-syntax-ns#" xmlns="http://www.w3.org/2000/svg" height="400" width="300" version="1.0" xmlns:cc="http://creativecommons.org/ns#" xmlns:dc="http://purl.org/dc/elements/1.1/">
 <metadata id="metadata2822">
  <rdf:RDF>
   <cc:Work rdf:about="">
    <dc:format>image/svg+xml</dc:format>
    <dc:type rdf:resource="http://purl.org/dc/dcmitype/StillImage"/>
    <dc:title/>
   </cc:Work>
  </rdf:RDF>
 </metadata>
 <g id="layer3" transform="translate(0,80)">
  <path id="path13269" d="m181.54 18.569-6.5312-2.0938-30.469 68.063-29.781 32.594h-7.7812l-0.125 5.6562h31.062c1.2873 5.533 6.2333 9.6562 12.156 9.6562 5.925 0 10.871-4.1205 12.156-9.6562h24.125v-5.6562h-7.7812l-2.4688-22.344 16.625-72.625-7.1562-2.2812-4.0312-1.3125zm-2.2812 6.4062 4.9688 1.7812-15.219 68.031 2.4688 22.344h-9.25c-1.2825-5.5396-6.2286-9.6875-12.156-9.6875-5.9258 0-10.872 4.1506-12.156 9.6875h-13.594l26.25-28.375 28.688-63.781zm-21.7 94.981c0 4.14-3.36 7.5-7.5 7.5s-7.5-3.36-7.5-7.5 3.36-7.5 7.5-7.5 7.5 3.36 7.5 7.5z" fill-rule="evenodd" fill="#000407"/>
 </g>
</svg>
