<?xml version="1.0" encoding="UTF-8" standalone="no"?>
<!-- Generator: Adobe Illustrator 14.0.0, SVG Export Plug-In . SVG Version: 6.00 Build 43363)  -->
<svg id="svg8829" xml:space="preserve" height="400" viewBox="0 0 300 400" xmlns:dc="http://purl.org/dc/elements/1.1/" width="300" version="1.1" xmlns:xlink="http://www.w3.org/1999/xlink" xmlns:cc="http://creativecommons.org/ns#" xmlns:rdf="http://www.w3.org/1999/02/22-rdf-syntax-ns#" xmlns="http://www.w3.org/2000/svg" y="0px" x="0px" enable-background="new 0 0 320 320"><metadata id="metadata14"><rdf:RDF><cc:Work rdf:about=""><dc:format>image/svg+xml</dc:format><dc:type rdf:resource="http://purl.org/dc/dcmitype/StillImage"/><dc:title/></cc:Work></rdf:RDF></metadata>
<defs id="defs4"><pattern id="SVGID_3_-2" xlink:href="#_x31_0_lpi_30_x25_-3" patternTransform="matrix(.7467 -.7467 .7467 .7467 3977.5 -8206.6)"/><clipPath id="SVGID_2_"><use id="use3208" xlink:href="#SVGID_1_" height="400" width="288" y="0" x="0"/></clipPath></defs>
<g id="layer1" transform="translate(0,80)"><g id="g5368" transform="translate(5.934 -79.981)"><g id="Chimney-19" class="st10" stroke="#000" stroke-width="5" display="none" fill="none"><circle id="circle5243" d="m 156.5,200.00101 c 0,6.90356 -5.59644,12.5 -12.5,12.5 -6.90356,0 -12.5,-5.59644 -12.5,-12.5 0,-6.90356 5.59644,-12.5 12.5,-12.5 6.90356,0 12.5,5.59644 12.5,12.5 z" display="inline" class="st2" cy="200" cx="144" r="12.5"/><path id="path5245" d="m154.02 65.573c2.085-4.296 10.428-6.448 10.428-10.744" display="inline" class="st2"/><path id="path5247" d="m134.23 65.083c-3.558-17.769 23.098-33.759 30.214-21.32" display="inline" class="st2"/><path id="path5249" d="m154.89 68.51" display="inline" class="st2"/><path id="path5251" d="m132.89 68.51" display="inline" class="st2"/><polyline id="polyline5253" display="inline" class="st2" points="119 200 134 71 154 71 169 200"/><path id="path5255" d="m159.93 39.938c41.957-41.761 82.291 64.239-0.461 20.63" display="inline" class="st2"/><line id="line5257" y2="200" display="inline" class="st2" y1="200" x2="181.5" x1="156.5"/><line id="line5259" y2="200" display="inline" class="st2" y1="200" x2="131.5" x1="106.5"/></g><g id="Monument-8" display="none" class="st10"><line id="line5262" stroke-width="5" y2="200" display="inline" class="st2" y1="200" stroke="#000" x2="181.5" x1="156.5" fill="none"/><line id="line5264" stroke-width="5" y2="200" display="inline" class="st2" y1="200" stroke="#000" x2="131.5" x1="106.5" fill="none"/><circle id="circle5266" stroke-width="5" d="m 156.5,200 c 0,6.90356 -5.59644,12.5 -12.5,12.5 -6.90356,0 -12.5,-5.59644 -12.5,-12.5 0,-6.90356 5.59644,-12.5 12.5,-12.5 6.90356,0 12.5,5.59644 12.5,12.5 z" display="inline" stroke="#000" class="st2" cy="200" cx="144" r="12.5" fill="none"/><g id="g5268" display="inline" class="st7"><defs id="defs5270"><path id="SVGID_1_-6" d="m175.5 63.5c0-17.404-14.1-31.5-31.5-31.5-17.404 0-31.5 14.096-31.5 31.5 0 9.572 4.27 18.138 11.003 23.914l-4.5 112.59h12c0-7.18 5.82-13 13-13s13 5.82 13 13h12l-4.5-112.59c6.73-5.772 11-14.338 11-23.91z"/></defs><clipPath id="SVGID_2_-50"><use id="use5274" xlink:href="#SVGID_1_-6" height="1" width="1" y="0" x="0"/></clipPath><polygon id="polygon5277" clip-path="url(#SVGID_2_)" points="151.94 -40 -6 117.93 136.07 260 294 102.07" class="st0" fill="url(#SVGID_3_-2)"/></g><g id="g5279" display="inline" class="st7"><g id="g5281"><path id="path5283" d="m175.5 63c0-17.404-14.096-31.5-31.5-31.5s-31.5 14.096-31.5 31.5c0 9.572 4.271 18.138 11.003 23.914l-4.5 112.59h12c0-7.18 5.82-13 13-13s13 5.82 13 13h12l-4.5-112.59c6.73-5.772 11-14.338 11-23.91z" stroke="#000" stroke-width="5" class="st8" fill="none"/></g></g></g><g id="Radio_x5F_mast-86" stroke="#000" stroke-width="5" fill="none"><circle id="circle5286" d="m 156.5,200.00101 c 0,6.90356 -5.59644,12.5 -12.5,12.5 -6.90356,0 -12.5,-5.59644 -12.5,-12.5 0,-6.90356 5.59644,-12.5 12.5,-12.5 6.90356,0 12.5,5.59644 12.5,12.5 z" class="st8" cy="200" cx="144" r="12.5"/><line id="line5288" y2="200" class="st8" y1="200" x2="181.5" x1="156.5"/><line id="line5290" y2="200" class="st8" y1="200" x2="131.5" x1="106.5"/><polyline id="polyline5292" class="st8" points="119 200 144 71 169 200"/><g id="g5294" stroke-linecap="round"><path id="path5296" d="m176.69 40.093c7.63 8.062 12.31 18.934 12.31 30.907s-4.685 22.845-12.31 30.907" class="st9"/><path id="path5298" d="m111.31 40.093c-7.63 8.062-12.31 18.934-12.31 30.907s4.685 22.845 12.31 30.907" class="st9"/><path id="path5300" d="m167.61 93.322c5.51-5.823 8.89-13.675 8.89-22.322s-3.384-16.499-8.891-22.321" class="st9"/><path id="path5302" d="m120.39 48.678c-5.51 5.823-8.89 13.675-8.89 22.322s3.383 16.499 8.891 22.322" class="st9"/></g></g><g id="Water_x5F_tower-0" class="st10" stroke="#000" stroke-width="5" display="none" fill="none"><circle id="circle5305" d="m 156.5,200.00101 c 0,6.90356 -5.59644,12.5 -12.5,12.5 -6.90356,0 -12.5,-5.59644 -12.5,-12.5 0,-6.90356 5.59644,-12.5 12.5,-12.5 6.90356,0 12.5,5.59644 12.5,12.5 z" display="inline" class="st2" cy="200" cx="144" r="12.5"/><line id="line5307" y2="200" display="inline" class="st2" y1="200" x2="181.5" x1="156.5"/><line id="line5309" y2="200" display="inline" class="st2" y1="200" x2="131.5" x1="106.5"/><polyline id="polyline5311" display="inline" class="st2" points="119 200 126 71 114 71 114 30 174 30 174 71 162 71 169 200"/><line id="line5313" y2="71" display="inline" class="st2" y1="71" x2="162" x1="126"/></g><g id="Flare_x5F_stack-24" stroke="#000" display="none" class="st10"><line id="line5316" stroke-width="5" y2="200" display="inline" class="st2" y1="200" x2="181.5" x1="156.5" fill="none"/><line id="line5318" stroke-width="5" y2="200" display="inline" class="st2" y1="200" x2="131.5" x1="106.5" fill="none"/><path id="path5320" d="m157.57 26.465c-12.57 28.802 11.05 39.827-3.57 58.452-5.75 7.326-15.88 10.083-21.5-0.667-14.033-26.818 31.25-63 31.25-63" display="inline" stroke-width="3" class="st1" fill="none"/><circle id="circle5322" stroke-width="5" d="m 156.5,200 c 0,6.90356 -5.59644,12.5 -12.5,12.5 -6.90356,0 -12.5,-5.59644 -12.5,-12.5 0,-6.90356 5.59644,-12.5 12.5,-12.5 6.90356,0 12.5,5.59644 12.5,12.5 z" display="inline" class="st2" cy="200" cx="144" r="12.5" fill="none"/><rect id="rect5324" stroke-width="5" display="inline" width="15" y="87.5" x="136.5" height="100" class="st6"/></g><g id="Flagstaff-8" class="st10" stroke="#000" stroke-width="5" display="none" fill="none"><line id="line5327" y2="200" display="inline" class="st2" y1="200" x2="181.5" x1="156.5"/><line id="line5329" y2="200" display="inline" class="st2" y1="200" x2="131.5" x1="106.5"/><circle id="circle5331" d="m 156.5,200 c 0,6.90356 -5.59644,12.5 -12.5,12.5 -6.90356,0 -12.5,-5.59644 -12.5,-12.5 0,-6.90356 5.59644,-12.5 12.5,-12.5 6.90356,0 12.5,5.59644 12.5,12.5 z" display="inline" class="st2" cy="200" cx="144" r="12.5"/><line id="line5333" y2="25" display="inline" class="st2" y1="187.5" x2="144" x1="144"/><polyline id="polyline5335" display="inline" class="st2" points="144 40 186 40 186 82 144 82"/></g><g id="Dish_x5F_aerial-6" stroke="#000" display="none" class="st10"><line id="line5338" stroke-width="5" y2="200" display="inline" class="st2" y1="200" x2="181.5" x1="156.5" fill="none"/><line id="line5340" stroke-width="5" y2="200" display="inline" class="st2" y1="200" x2="131.5" x1="106.5" fill="none"/><circle id="circle5342" stroke-width="5" d="m 156.5,200 c 0,6.90356 -5.59644,12.5 -12.5,12.5 -6.90356,0 -12.5,-5.59644 -12.5,-12.5 0,-6.90356 5.59644,-12.5 12.5,-12.5 6.90356,0 12.5,5.59644 12.5,12.5 z" display="inline" class="st2" cy="200" cx="144" r="12.5" fill="none"/><path id="path5344" d="m140.01 42.636c-22.984 13.27-29.292 45.37-14.092 71.698s46.154 36.914 69.138 23.644l-55.05-95.344z" display="inline" stroke-width="5" class="st2" fill="none"/><polygon id="polygon5346" display="inline" class="st6" points="151 187 137 187 142 137 146 137" stroke-width="5"/><polygon id="polygon5348" display="inline" class="st5" points="169.69 89.12 168.03 86.21 175.89 82.851" stroke-width="2"/></g><g id="Tower-50" class="st10" stroke="#000" stroke-width="5" display="none" fill="none"><line id="line5351" y2="71" display="inline" class="st2" y1="71" x2="160" x1="128"/><circle id="circle5353" d="m 156.5,200.00101 c 0,6.90356 -5.59644,12.5 -12.5,12.5 -6.90356,0 -12.5,-5.59644 -12.5,-12.5 0,-6.90356 5.59644,-12.5 12.5,-12.5 6.90356,0 12.5,5.59644 12.5,12.5 z" display="inline" class="st2" cy="200" cx="144" r="12.5"/><line id="line5355" y2="200" display="inline" class="st2" y1="200" x2="181.5" x1="156.5"/><line id="line5357" y2="200" display="inline" class="st2" y1="200" x2="131.5" x1="106.5"/><polyline id="polyline5359" display="inline" class="st2" points="119 200 128 71 128 32 160 32 160 71 169 200"/></g></g></g>
</svg>
