<svg
   xmlns:svg="http://www.w3.org/2000/svg"
   xmlns="http://www.w3.org/2000/svg"
   version="1.1"
   width="300"
   height="400">
  <g
     transform="translate(6,-5)"
     style="fill:none;stroke:#000000;stroke-width:5">
    <path
       d="m 119,200 25,-129 25,129 m -62.5,0 25,0 m 25,0 25,0 m -25,0 c 0,6.90356 -5.59644,12.5 -12.5,12.5 -6.90356,0 -12.5,-5.59644 -12.5,-12.5 0,-6.90356 5.59644,-12.5 12.5,-12.5 6.90356,0 12.5,5.59644 12.5,12.5 z"/>
    <g style="stroke-linecap:round">
      <path
         d="M 176.69,40.093 C 184.32,48.155 189,59.027 189,71 c 0,11.973 -4.685,22.845 -12.31,30.907"/>
      <path
         d="M 111.31,40.093 C 103.68,48.155 99,59.027 99,71 c 0,11.973 4.685,22.845 12.31,30.907"/>
      <path
         d="m 167.61,93.322 c 5.51,-5.823 8.89,-13.675 8.89,-22.322 0,-8.647 -3.384,-16.499 -8.891,-22.321"/>
      <path
         d="m 120.39,48.678 c -5.51,5.823 -8.89,13.675 -8.89,22.322 0,8.647 3.383,16.499 8.891,22.322"/>
    </g>
  </g>
</svg>
