<?xml version="1.0" encoding="UTF-8" standalone="no"?>
<!-- Generator: Adobe Illustrator 13.0.0, SVG Export Plug-In . SVG Version: 6.00 Build 14948)  -->

<svg
   xmlns:dc="http://purl.org/dc/elements/1.1/"
   xmlns:cc="http://creativecommons.org/ns#"
   xmlns:rdf="http://www.w3.org/1999/02/22-rdf-syntax-ns#"
   xmlns:svg="http://www.w3.org/2000/svg"
   xmlns="http://www.w3.org/2000/svg"
   xmlns:sodipodi="http://sodipodi.sourceforge.net/DTD/sodipodi-0.dtd"
   xmlns:inkscape="http://www.inkscape.org/namespaces/inkscape"
   version="1.1"
   id="Layer_1"
   x="0px"
   y="0px"
   width="60"
   height="60"
   viewBox="0 0 59.999998 59.999999"
   enable-background="new 0 0 449.334 449.333"
   xml:space="preserve"
   inkscape:version="0.48.1 r9760"
   sodipodi:docname="Shower.svg"
   inkscape:export-filename="/Users/mherring/Desktop/try.png"
   inkscape:export-xdpi="90"
   inkscape:export-ydpi="90"><metadata
   id="metadata23"><rdf:RDF><cc:Work
       rdf:about=""><dc:format>image/svg+xml</dc:format><dc:type
         rdf:resource="http://purl.org/dc/dcmitype/StillImage" /><dc:title /></cc:Work></rdf:RDF></metadata><defs
   id="defs21" /><sodipodi:namedview
   pagecolor="#ffffff"
   bordercolor="#666666"
   borderopacity="1"
   objecttolerance="10"
   gridtolerance="10"
   guidetolerance="10"
   inkscape:pageopacity="0"
   inkscape:pageshadow="2"
   inkscape:window-width="1920"
   inkscape:window-height="1088"
   id="namedview19"
   showgrid="false"
   inkscape:zoom="12.392077"
   inkscape:cx="12.1989"
   inkscape:cy="30.041102"
   inkscape:window-x="0"
   inkscape:window-y="0"
   inkscape:window-maximized="1"
   inkscape:current-layer="Layer_1" />

<path
   d="M 41.071078,54.518067 V 13.511662 c 0,-2.76654 -2.577957,-5.4697665 -5.469453,-5.4697665 -1.8232,0 -2.986387,0.7230267 -3.772572,1.5089118 -0.785278,0.7858847 -1.225592,1.2260467 -1.225592,1.2260467"
   id="path5"
   inkscape:connector-curvature="0"
   style="fill:none;stroke:#a30075;stroke-width:2;stroke-miterlimit:4;stroke-opacity:1;stroke-dasharray:none" />
<path
   d="M 41.482405,50.287971"
   id="path7"
   inkscape:connector-curvature="0"
   style="fill:#ffffff;stroke:#a30075;stroke-width:8;stroke-opacity:1" />
<line
   x1="25.058306"
   y1="5.449728"
   x2="36.161461"
   y2="16.552908"
   id="line9"
   style="fill:none;stroke:#a30075;stroke-width:3;stroke-miterlimit:4;stroke-opacity:1;stroke-dasharray:none" />
<line
   x1="29.51598"
   y1="15.610781"
   x2="22.171648"
   y2="25.599127"
   id="line11"
   style="fill:none;stroke:#a30075;stroke-width:2;stroke-miterlimit:4;stroke-opacity:1;stroke-dasharray:none" />
<line
   x1="33.047543"
   y1="17.853903"
   x2="29.803677"
   y2="29.820028"
   id="line13"
   style="fill:none;stroke:#a30075;stroke-width:2;stroke-miterlimit:4;stroke-opacity:1;stroke-dasharray:none" />
<line
   x1="26.102879"
   y1="12.270806"
   x2="16.114407"
   y2="19.615458"
   id="line15"
   style="fill:none;stroke:#a30075;stroke-width:2;stroke-miterlimit:4;stroke-opacity:1;stroke-dasharray:none" />
<line
   x1="23.859463"
   y1="8.7396879"
   x2="11.893361"
   y2="11.982809"
   id="line17"
   style="fill:none;stroke:#a30075;stroke-width:2;stroke-miterlimit:4;stroke-opacity:1;stroke-dasharray:none" />
<rect
   style="fill:none;stroke:#a30075;stroke-width:2;stroke-miterlimit:4;stroke-opacity:1;stroke-dasharray:none"
   id="rect3768"
   width="57.999996"
   height="57.999996"
   x="0.99999946"
   y="0.99999994"
   rx="9.999999"
   ry="9.999999" /><path
   style="fill:#ffffff;fill-opacity:0.50196078;stroke:none"
   d="M 9.594713,57.83868 C 7.6485951,57.511491 6.0967673,56.709209 4.6887944,55.302362 3.5987297,54.213169 2.948848,53.158689 2.4811308,51.72027 2.0516493,50.399442 2.0714614,51.449897 2.0714614,29.999246 2.0714614,8.5485954 2.0516493,9.5990514 2.4811308,8.2782224 2.948848,6.8398032 3.5987297,5.7853237 4.6887944,4.6961307 6.1256788,3.2603953 7.7091602,2.4540099 9.6728117,2.1580277 10.842845,1.9816679 49.119591,1.9782507 50.288089,2.1544017 c 3.387929,0.5107299 6.205299,2.8875924 7.21408,6.0861283 0.481135,1.5255324 0.456033,0.2409826 0.431553,22.083187 l -0.02243,20.011103 -0.183126,0.685923 c -0.10072,0.377257 -0.254314,0.877338 -0.341319,1.11129 -0.930939,2.503231 -3.105856,4.579006 -5.632706,5.375939 -1.508526,0.475768 -0.376702,0.452757 -21.842312,0.444091 C 14.108306,57.945683 10.098048,57.923304 9.594713,57.83868 z M 42.118554,33.610425 42.097036,12.649451 41.918012,12.021088 c -0.512138,-1.797569 -1.886845,-3.4854533 -3.500661,-4.2981579 -1.0871,-0.5474544 -1.512026,-0.641553 -2.897098,-0.641553 -1.082375,0 -1.332295,0.025294 -1.856025,0.1878436 C 32.899052,7.506708 32.135213,7.9188255 31.566114,8.4012243 31.322006,8.6081429 31.05633,8.8289509 30.975721,8.8919087 30.84114,8.9970215 30.639931,8.8172325 28.513958,6.6922072 27.240597,5.4194135 26.163177,4.3780369 26.119694,4.3780369 c -0.104982,0 -2.139072,2.0321957 -2.139072,2.1370796 0,0.1055417 10.98894,11.0971825 11.094456,11.0971825 0.105309,0 2.139806,-2.031648 2.139806,-2.13681 0,-0.04476 -1.098484,-1.181766 -2.441076,-2.526692 l -2.441076,-2.445319 0.363136,-0.320895 c 0.716582,-0.6332297 1.335027,-0.9142483 2.310841,-1.0500361 2.120551,-0.2950813 4.386446,1.3508851 4.908494,3.5655731 0.106767,0.452939 0.121827,3.050667 0.122874,21.194743 l 0.0012,20.678535 1.050402,0 1.050402,0 -0.02152,-20.960973 z m -9.711142,-9.401168 c 0.881079,-3.25107 1.606009,-5.960807 1.610956,-6.021638 0.0061,-0.07487 -0.303857,-0.196573 -0.959272,-0.376678 -0.532548,-0.146341 -0.980461,-0.253882 -0.995363,-0.238979 -0.03723,0.03723 -3.239678,11.841962 -3.240583,11.945311 -5.64e-4,0.0674 1.597697,0.568747 1.898627,0.595562 0.04602,0.0041 0.804558,-2.652509 1.685635,-5.903578 l 0,0 z m -5.646121,-3.076288 c 1.983864,-2.701675 3.576944,-4.942069 3.540177,-4.978651 -0.266465,-0.265123 -1.601042,-1.194593 -1.644633,-1.14541 -0.07701,0.08689 -7.212085,9.805867 -7.281336,9.918206 -0.03534,0.05733 0.255515,0.326025 0.765638,0.707286 0.652592,0.487742 0.84232,0.593732 0.91788,0.512767 0.05239,-0.05613 1.71841,-2.312522 3.702274,-5.014198 l 0,0 z m -4.983173,-4.374624 c 2.716535,-1.993592 4.940739,-3.646317 4.942674,-3.672721 0.0019,-0.0264 -0.267986,-0.4165 -0.599824,-0.86688 l -0.603341,-0.818874 -3.048185,2.242003 c -1.676502,1.233102 -3.930634,2.890409 -5.009181,3.682906 -1.143462,0.840193 -1.945194,1.48208 -1.923093,1.539675 0.09745,0.253942 1.130755,1.575455 1.211011,1.548779 0.04993,-0.0166 2.313403,-1.661297 5.029939,-3.654888 l 0,0 z m -2.780519,-5.620302 c 2.829429,-0.7663 5.144416,-1.425838 5.144416,-1.465641 0,-0.2344793 -0.519397,-1.9051027 -0.592296,-1.9051027 -0.173356,0 -11.796214,3.1671997 -11.868215,3.2340587 -0.06447,0.05987 0.0278,0.493848 0.370373,1.742015 l 0.07008,0.255316 0.865616,-0.233688 c 0.476088,-0.128528 3.180602,-0.860659 6.010031,-1.626958 l 0,0 z"
   id="path4897"
   inkscape:connector-curvature="0" /></svg>