<?xml version="1.0" encoding="UTF-8" standalone="no"?>
<!-- Created with Inkscape (http://www.inkscape.org/) -->

<svg
   xmlns:dc="http://purl.org/dc/elements/1.1/"
   xmlns:cc="http://creativecommons.org/ns#"
   xmlns:rdf="http://www.w3.org/1999/02/22-rdf-syntax-ns#"
   xmlns:svg="http://www.w3.org/2000/svg"
   xmlns="http://www.w3.org/2000/svg"
   xmlns:sodipodi="http://sodipodi.sourceforge.net/DTD/sodipodi-0.dtd"
   xmlns:inkscape="http://www.inkscape.org/namespaces/inkscape"
   id="svg18076"
   sodipodi:version="0.32"
   inkscape:version="0.48.1 r9760"
   width="60"
   height="60"
   sodipodi:docname="Slipway.svg"
   inkscape:output_extension="org.inkscape.output.svg.inkscape"
   version="1.0"
   inkscape:export-filename="/Users/mherring/Desktop/try.png"
   inkscape:export-xdpi="90"
   inkscape:export-ydpi="90">
  <metadata
     id="metadata18081">
    <rdf:RDF>
      <cc:Work
         rdf:about="">
        <dc:format>image/svg+xml</dc:format>
        <dc:type
           rdf:resource="http://purl.org/dc/dcmitype/StillImage" />
        <dc:rights>
          <cc:Agent>
            <dc:title>Public Domain</dc:title>
          </cc:Agent>
        </dc:rights>
        <dc:publisher>
          <cc:Agent>
            <dc:title>clker.com</dc:title>
          </cc:Agent>
        </dc:publisher>
        <dc:creator>
          <cc:Agent>
            <dc:title>Mohamed Ibrahim</dc:title>
          </cc:Agent>
        </dc:creator>
        <cc:license
           rdf:resource="http://creativecommons.org/licenses/publicdomain/" />
        <dc:title>Map Symbols</dc:title>
        <dc:subject>
          <rdf:Bag>
            <rdf:li>map symbols</rdf:li>
          </rdf:Bag>
        </dc:subject>
      </cc:Work>
      <cc:License
         rdf:about="http://creativecommons.org/licenses/publicdomain/">
        <cc:permits
           rdf:resource="http://creativecommons.org/ns#Reproduction" />
        <cc:permits
           rdf:resource="http://creativecommons.org/ns#Distribution" />
        <cc:permits
           rdf:resource="http://creativecommons.org/ns#DerivativeWorks" />
      </cc:License>
    </rdf:RDF>
  </metadata>
  <defs
     id="defs18079">
    <inkscape:perspective
       sodipodi:type="inkscape:persp3d"
       inkscape:vp_x="0 : 526.18109 : 1"
       inkscape:vp_y="0 : 1000 : 0"
       inkscape:vp_z="744.09448 : 526.18109 : 1"
       inkscape:persp3d-origin="372.04724 : 350.78739 : 1"
       id="perspective18083" />
    <inkscape:perspective
       id="perspective18071"
       inkscape:persp3d-origin="372.04724 : 350.78739 : 1"
       inkscape:vp_z="744.09448 : 526.18109 : 1"
       inkscape:vp_y="0 : 1000 : 0"
       inkscape:vp_x="0 : 526.18109 : 1"
       sodipodi:type="inkscape:persp3d" />
    <inkscape:perspective
       id="perspective21220"
       inkscape:persp3d-origin="372.04724 : 350.78739 : 1"
       inkscape:vp_z="744.09448 : 526.18109 : 1"
       inkscape:vp_y="0 : 1000 : 0"
       inkscape:vp_x="0 : 526.18109 : 1"
       sodipodi:type="inkscape:persp3d" />
    <inkscape:perspective
       id="perspective21262"
       inkscape:persp3d-origin="372.04724 : 350.78739 : 1"
       inkscape:vp_z="744.09448 : 526.18109 : 1"
       inkscape:vp_y="0 : 1000 : 0"
       inkscape:vp_x="0 : 526.18109 : 1"
       sodipodi:type="inkscape:persp3d" />
    <inkscape:perspective
       id="perspective21289"
       inkscape:persp3d-origin="372.04724 : 350.78739 : 1"
       inkscape:vp_z="744.09448 : 526.18109 : 1"
       inkscape:vp_y="0 : 1000 : 0"
       inkscape:vp_x="0 : 526.18109 : 1"
       sodipodi:type="inkscape:persp3d" />
    <inkscape:perspective
       id="perspective21316"
       inkscape:persp3d-origin="372.04724 : 350.78739 : 1"
       inkscape:vp_z="744.09448 : 526.18109 : 1"
       inkscape:vp_y="0 : 1000 : 0"
       inkscape:vp_x="0 : 526.18109 : 1"
       sodipodi:type="inkscape:persp3d" />
    <inkscape:perspective
       id="perspective21355"
       inkscape:persp3d-origin="372.04724 : 350.78739 : 1"
       inkscape:vp_z="744.09448 : 526.18109 : 1"
       inkscape:vp_y="0 : 1000 : 0"
       inkscape:vp_x="0 : 526.18109 : 1"
       sodipodi:type="inkscape:persp3d" />
    <inkscape:perspective
       id="perspective21394"
       inkscape:persp3d-origin="372.04724 : 350.78739 : 1"
       inkscape:vp_z="744.09448 : 526.18109 : 1"
       inkscape:vp_y="0 : 1000 : 0"
       inkscape:vp_x="0 : 526.18109 : 1"
       sodipodi:type="inkscape:persp3d" />
  </defs>
  <sodipodi:namedview
     inkscape:window-height="1088"
     inkscape:window-width="1920"
     inkscape:pageshadow="2"
     inkscape:pageopacity="0.0"
     guidetolerance="1"
     gridtolerance="1"
     objecttolerance="1"
     borderopacity="1.0"
     bordercolor="#666666"
     pagecolor="#ffffff"
     id="base"
     showgrid="false"
     inkscape:zoom="4.7122312"
     inkscape:cx="-25.996178"
     inkscape:cy="47.748081"
     inkscape:window-x="1440"
     inkscape:window-y="0"
     inkscape:current-layer="svg18076"
     inkscape:window-maximized="0" />
  <path
     d="m 12.825597,11.048873 9.99074,2.719831 5.547744,-3.8485946 1.927301,0.4623116 -5.493708,3.860606 30.278431,8.303604 -2.215496,8.129485 -30.386502,-8.285594 C 10.700163,18.890164 12.843609,11.042869 12.843609,11.042869"
     style="fill:#a30075;fill-opacity:1;fill-rule:nonzero;stroke:none"
     id="path8272"
     inkscape:connector-curvature="0" />
  <path
     d="m 39.087316,31.840903 c -0.03602,-0.684466 -0.16211,-1.326899 -0.384259,-1.945314 l 13.701246,3.818573 -0.438297,1.681138 -12.87869,-3.554397 z"
     style="fill:#a30075;fill-opacity:1;fill-rule:nonzero;stroke:none"
     id="path8274"
     inkscape:connector-curvature="0" />
  <path
     d="m 26.646924,28.400581 c 0.366246,-0.53436 0.810545,-1.026693 1.308881,-1.440974 l -22.8574215,-6.31026 0,1.813223 21.5485405,5.938011 z"
     style="fill:#a30075;fill-opacity:1;fill-rule:nonzero;stroke:none"
     id="path8276"
     inkscape:connector-curvature="0" />
  <path
     d="m 54.60779,48.063849 c -1.086736,0 -2.113428,-0.246166 -3.038052,-0.666451 -0.954643,-0.4383 -2.023365,-0.696473 -3.140116,-0.696473 -1.116755,0 -2.185476,0.258173 -3.134117,0.696473 -0.930627,0.420285 -1.963325,0.666451 -3.05006,0.666451 -1.080727,0 -2.113423,-0.246166 -3.044052,-0.666451 -0.954644,-0.4383 -2.017361,-0.696473 -3.134114,-0.696473 -1.116754,0 -2.185475,0.258173 -3.140119,0.696473 -0.924625,0.420285 -1.963324,0.666451 -3.044055,0.666451 -1.080728,0 -2.119429,-0.246166 -3.044052,-0.666451 -0.954644,-0.4383 -2.029371,-0.696473 -3.140121,-0.696473 -1.116751,0 -2.191477,0.258173 -3.134114,0.696473 -0.924622,0.420285 -1.969328,0.666451 -3.050057,0.666451 -1.074726,0 -2.113428,-0.246166 -3.044055,-0.666451 -0.94864,-0.4383 -2.017361,-0.696473 -3.134114,-0.696473 -1.11075,0 -2.1854749,0.258173 -3.1341148,0.696473 -0.9306282,0.420285 -1.9753325,0.666451 -3.044054,0.666451 l -0.072049,-18.15025 24.994864,6.892649 c -1.723162,-0.83456 -2.917969,-2.581738 -2.917969,-4.617115 0,-2.833914 2.299551,-5.13346 5.133465,-5.13346 2.833911,0 5.139467,2.299546 5.139467,5.13346 0,2.833913 -2.305556,5.139468 -5.139467,5.139468 -0.168113,0 -0.336227,-0.03602 -0.50434,-0.05403 l 22.77937,6.280232 0.03602,4.509048 2e-6,0 z M 32.296735,34.410634 c 1.230829,0 2.227502,-0.990669 2.227502,-2.221501 0,-1.230826 -0.996673,-2.227504 -2.227502,-2.227504 -1.230831,0 -2.227504,0.996678 -2.227504,2.227504 0,1.230832 0.996673,2.221501 2.227504,2.221501"
     style="fill:#a30075;fill-opacity:1;fill-rule:nonzero;stroke:none"
     id="path8278"
     inkscape:connector-curvature="0" />
  <rect
     style="fill:none;stroke:#a30075;stroke-width:2;stroke-miterlimit:4;stroke-opacity:1;stroke-dasharray:none"
     id="rect3764"
     width="58"
     height="58"
     x="1"
     y="1"
     rx="19.999998"
     ry="19.999998"
     inkscape:export-filename="/Users/mherring/Desktop/try.png"
     inkscape:export-xdpi="90"
     inkscape:export-ydpi="90" />
</svg>
