<?xml version="1.0" encoding="UTF-8" standalone="no"?>
<!-- Created with Inkscape (http://www.inkscape.org/) -->

<svg
   xmlns:dc="http://purl.org/dc/elements/1.1/"
   xmlns:cc="http://creativecommons.org/ns#"
   xmlns:rdf="http://www.w3.org/1999/02/22-rdf-syntax-ns#"
   xmlns:svg="http://www.w3.org/2000/svg"
   xmlns="http://www.w3.org/2000/svg"
   xmlns:sodipodi="http://sodipodi.sourceforge.net/DTD/sodipodi-0.dtd"
   xmlns:inkscape="http://www.inkscape.org/namespaces/inkscape"
   id="svg18076"
   sodipodi:version="0.32"
   inkscape:version="0.48.1 r9760"
   width="60"
   height="60"
   sodipodi:docname="Slipway.svg"
   inkscape:output_extension="org.inkscape.output.svg.inkscape"
   version="1.0"
   inkscape:export-filename="/Users/mherring/Desktop/try.png"
   inkscape:export-xdpi="90"
   inkscape:export-ydpi="90">
  <metadata
     id="metadata18081">
    <rdf:RDF>
      <cc:Work
         rdf:about="">
        <dc:format>image/svg+xml</dc:format>
        <dc:type
           rdf:resource="http://purl.org/dc/dcmitype/StillImage" />
        <dc:rights>
          <cc:Agent>
            <dc:title>Public Domain</dc:title>
          </cc:Agent>
        </dc:rights>
        <dc:publisher>
          <cc:Agent>
            <dc:title>clker.com</dc:title>
          </cc:Agent>
        </dc:publisher>
        <dc:creator>
          <cc:Agent>
            <dc:title>Mohamed Ibrahim</dc:title>
          </cc:Agent>
        </dc:creator>
        <cc:license
           rdf:resource="http://creativecommons.org/licenses/publicdomain/" />
        <dc:title>Map Symbols</dc:title>
        <dc:subject>
          <rdf:Bag>
            <rdf:li>map symbols</rdf:li>
          </rdf:Bag>
        </dc:subject>
      </cc:Work>
      <cc:License
         rdf:about="http://creativecommons.org/licenses/publicdomain/">
        <cc:permits
           rdf:resource="http://creativecommons.org/ns#Reproduction" />
        <cc:permits
           rdf:resource="http://creativecommons.org/ns#Distribution" />
        <cc:permits
           rdf:resource="http://creativecommons.org/ns#DerivativeWorks" />
      </cc:License>
    </rdf:RDF>
  </metadata>
  <defs
     id="defs18079">
    <inkscape:perspective
       sodipodi:type="inkscape:persp3d"
       inkscape:vp_x="0 : 526.18109 : 1"
       inkscape:vp_y="0 : 1000 : 0"
       inkscape:vp_z="744.09448 : 526.18109 : 1"
       inkscape:persp3d-origin="372.04724 : 350.78739 : 1"
       id="perspective18083" />
    <inkscape:perspective
       id="perspective18071"
       inkscape:persp3d-origin="372.04724 : 350.78739 : 1"
       inkscape:vp_z="744.09448 : 526.18109 : 1"
       inkscape:vp_y="0 : 1000 : 0"
       inkscape:vp_x="0 : 526.18109 : 1"
       sodipodi:type="inkscape:persp3d" />
    <inkscape:perspective
       id="perspective21220"
       inkscape:persp3d-origin="372.04724 : 350.78739 : 1"
       inkscape:vp_z="744.09448 : 526.18109 : 1"
       inkscape:vp_y="0 : 1000 : 0"
       inkscape:vp_x="0 : 526.18109 : 1"
       sodipodi:type="inkscape:persp3d" />
    <inkscape:perspective
       id="perspective21262"
       inkscape:persp3d-origin="372.04724 : 350.78739 : 1"
       inkscape:vp_z="744.09448 : 526.18109 : 1"
       inkscape:vp_y="0 : 1000 : 0"
       inkscape:vp_x="0 : 526.18109 : 1"
       sodipodi:type="inkscape:persp3d" />
    <inkscape:perspective
       id="perspective21289"
       inkscape:persp3d-origin="372.04724 : 350.78739 : 1"
       inkscape:vp_z="744.09448 : 526.18109 : 1"
       inkscape:vp_y="0 : 1000 : 0"
       inkscape:vp_x="0 : 526.18109 : 1"
       sodipodi:type="inkscape:persp3d" />
    <inkscape:perspective
       id="perspective21316"
       inkscape:persp3d-origin="372.04724 : 350.78739 : 1"
       inkscape:vp_z="744.09448 : 526.18109 : 1"
       inkscape:vp_y="0 : 1000 : 0"
       inkscape:vp_x="0 : 526.18109 : 1"
       sodipodi:type="inkscape:persp3d" />
    <inkscape:perspective
       id="perspective21355"
       inkscape:persp3d-origin="372.04724 : 350.78739 : 1"
       inkscape:vp_z="744.09448 : 526.18109 : 1"
       inkscape:vp_y="0 : 1000 : 0"
       inkscape:vp_x="0 : 526.18109 : 1"
       sodipodi:type="inkscape:persp3d" />
    <inkscape:perspective
       id="perspective21394"
       inkscape:persp3d-origin="372.04724 : 350.78739 : 1"
       inkscape:vp_z="744.09448 : 526.18109 : 1"
       inkscape:vp_y="0 : 1000 : 0"
       inkscape:vp_x="0 : 526.18109 : 1"
       sodipodi:type="inkscape:persp3d" />
  </defs>
  <sodipodi:namedview
     inkscape:window-height="1088"
     inkscape:window-width="1920"
     inkscape:pageshadow="2"
     inkscape:pageopacity="0.0"
     guidetolerance="1"
     gridtolerance="1"
     objecttolerance="1"
     borderopacity="1.0"
     bordercolor="#666666"
     pagecolor="#ffffff"
     id="base"
     showgrid="false"
     inkscape:zoom="13.328203"
     inkscape:cx="32.408797"
     inkscape:cy="27.589961"
     inkscape:window-x="0"
     inkscape:window-y="0"
     inkscape:current-layer="svg18076"
     inkscape:window-maximized="0" />
  <path
     d="m 12.825597,11.048873 9.99074,2.719831 5.547744,-3.8485946 1.927301,0.4623116 -5.493708,3.860606 30.278431,8.303604 -2.215496,8.129485 -30.386502,-8.285594 C 10.700163,18.890164 12.843609,11.042869 12.843609,11.042869"
     style="fill:#a30075;fill-opacity:1;fill-rule:nonzero;stroke:none"
     id="path8272"
     inkscape:connector-curvature="0" />
  <path
     d="m 39.087316,31.840903 c -0.03602,-0.684466 -0.16211,-1.326899 -0.384259,-1.945314 l 13.701246,3.818573 -0.438297,1.681138 -12.87869,-3.554397 z"
     style="fill:#a30075;fill-opacity:1;fill-rule:nonzero;stroke:none"
     id="path8274"
     inkscape:connector-curvature="0" />
  <path
     d="m 26.646924,28.400581 c 0.366246,-0.53436 0.810545,-1.026693 1.308881,-1.440974 l -22.8574215,-6.31026 0,1.813223 21.5485405,5.938011 z"
     style="fill:#a30075;fill-opacity:1;fill-rule:nonzero;stroke:none"
     id="path8276"
     inkscape:connector-curvature="0" />
  <path
     d="m 54.60779,48.063849 c -1.086736,0 -2.113428,-0.246166 -3.038052,-0.666451 -0.954643,-0.4383 -2.023365,-0.696473 -3.140116,-0.696473 -1.116755,0 -2.185476,0.258173 -3.134117,0.696473 -0.930627,0.420285 -1.963325,0.666451 -3.05006,0.666451 -1.080727,0 -2.113423,-0.246166 -3.044052,-0.666451 -0.954644,-0.4383 -2.017361,-0.696473 -3.134114,-0.696473 -1.116754,0 -2.185475,0.258173 -3.140119,0.696473 -0.924625,0.420285 -1.963324,0.666451 -3.044055,0.666451 -1.080728,0 -2.119429,-0.246166 -3.044052,-0.666451 -0.954644,-0.4383 -2.029371,-0.696473 -3.140121,-0.696473 -1.116751,0 -2.191477,0.258173 -3.134114,0.696473 -0.924622,0.420285 -1.969328,0.666451 -3.050057,0.666451 -1.074726,0 -2.113428,-0.246166 -3.044055,-0.666451 -0.94864,-0.4383 -2.017361,-0.696473 -3.134114,-0.696473 -1.11075,0 -2.1854749,0.258173 -3.1341148,0.696473 -0.9306282,0.420285 -1.9753325,0.666451 -3.044054,0.666451 l -0.072049,-18.15025 24.994864,6.892649 c -1.723162,-0.83456 -2.917969,-2.581738 -2.917969,-4.617115 0,-2.833914 2.299551,-5.13346 5.133465,-5.13346 2.833911,0 5.139467,2.299546 5.139467,5.13346 0,2.833913 -2.305556,5.139468 -5.139467,5.139468 -0.168113,0 -0.336227,-0.03602 -0.50434,-0.05403 l 22.77937,6.280232 0.03602,4.509048 2e-6,0 z M 32.296735,34.410634 c 1.230829,0 2.227502,-0.990669 2.227502,-2.221501 0,-1.230826 -0.996673,-2.227504 -2.227502,-2.227504 -1.230831,0 -2.227504,0.996678 -2.227504,2.227504 0,1.230832 0.996673,2.221501 2.227504,2.221501"
     style="fill:#a30075;fill-opacity:1;fill-rule:nonzero;stroke:none"
     id="path8278"
     inkscape:connector-curvature="0" />
  <rect
     style="fill:none;stroke:#a30075;stroke-width:2;stroke-miterlimit:4;stroke-opacity:1;stroke-dasharray:none"
     id="rect3764"
     width="58"
     height="58"
     x="1"
     y="1"
     rx="19.999998"
     ry="19.999998"
     inkscape:export-filename="/Users/mherring/Desktop/try.png"
     inkscape:export-xdpi="90"
     inkscape:export-ydpi="90" />
  <path
     style="fill:#ffffff;fill-opacity:0.50196078;stroke:none"
     d="M 19.863969,57.918358 C 13.900022,57.578412 8.4560023,54.425599 5.1353854,49.388545 3.6845807,47.187815 2.7006974,44.630074 2.2696642,41.938706 2.0297233,40.440516 1.9962915,38.651786 2.0277665,28.996225 2.0610491,18.786117 2.054512,18.970305 2.4507678,17.077736 3.0350333,14.287208 4.2963607,11.590291 6.1229093,9.2261177 6.849222,8.2860227 8.5245212,6.6497336 9.5099852,5.9179111 c 1.1936768,-0.886445 1.8145788,-1.269282 3.0761838,-1.896719 2.217354,-1.1027628 4.446485,-1.7164342 6.992304,-1.9249557 0.677576,-0.055498 4.240137,-0.07324 11.089654,-0.055227 9.891025,0.026012 10.110749,0.029726 11.066759,0.1870397 3.430311,0.5644671 6.0956,1.690625 8.815892,3.7249554 0.916638,0.6854941 2.812706,2.5815618 3.498199,3.4981995 2.291357,3.0639857 3.545225,6.3478077 3.853212,10.0913837 0.104291,1.267646 0.100482,19.701166 -0.0043,20.947725 -0.384939,4.578281 -2.305569,8.738412 -5.501932,11.917319 -1.533092,1.52472 -3.129648,2.666846 -5.024744,3.594545 -2.381069,1.165596 -4.671643,1.759919 -7.399103,1.919808 -1.348597,0.07906 -18.712466,0.07592 -20.108113,-0.0036 l 1e-6,-3e-6 z M 6.9214891,47.868219 C 7.2516161,47.783844 7.85935,47.580262 8.2720088,47.415814 10.45709,46.545038 12.035527,46.52909 14.2368,47.355544 c 1.255738,0.471459 1.325131,0.492528 2.063298,0.626437 1.338412,0.242799 2.650068,0.08257 4.164102,-0.508692 1.036644,-0.404828 1.512879,-0.544126 2.227724,-0.651607 1.131115,-0.17007 2.282091,-0.04914 3.419187,0.359247 0.339901,0.122075 0.912982,0.327652 1.273515,0.456838 1.661016,0.595177 3.325473,0.597341 4.972639,0.0065 l 1.273514,-0.456837 c 1.156934,-0.415018 2.300768,-0.536694 3.437945,-0.365713 0.714845,0.107482 1.191079,0.24678 2.227723,0.651608 1.512808,0.590778 2.821958,0.751002 4.164103,0.509635 0.703615,-0.126536 0.96739,-0.207152 2.181274,-0.666648 2.117297,-0.801467 3.676082,-0.757071 6.071902,0.172936 0.899833,0.349296 1.96123,0.599313 2.550981,0.600896 l 0.375145,0.001 -0.02628,-2.269644 c -0.01445,-1.248305 -0.05447,-2.286527 -0.08893,-2.30716 -0.03446,-0.02063 -5.030681,-1.404915 -11.102722,-3.076184 -6.07204,-1.671268 -10.96142,-3.048191 -10.865287,-3.059829 1.123973,-0.13607 2.006254,-0.459476 2.801366,-1.026855 1.791401,-1.278318 2.548933,-3.684371 1.835444,-5.8297 -0.514036,-1.545614 -1.890366,-2.852286 -3.47373,-3.297921 -0.459755,-0.129397 -0.810237,-0.172951 -1.400953,-0.174095 -0.966067,-0.0019 -1.409922,0.100543 -2.316832,0.534573 -0.58068,0.277903 -0.811523,0.443886 -1.320367,0.949383 -0.688846,0.684315 -1.056851,1.280592 -1.327343,2.150691 -0.145985,0.469591 -0.17465,0.724134 -0.173209,1.538092 0.0015,0.861752 0.02505,1.04177 0.20193,1.545322 0.110112,0.313472 0.326268,0.786154 0.480348,1.050405 0.300638,0.515603 1.105372,1.374358 1.531112,1.633893 0.14346,0.08745 0.227073,0.158597 0.185807,0.158095 -0.04126,-5.25e-4 -5.561515,-1.515067 -12.26722,-3.365701 L 5.1207962,29.879692 5.0995078,38.741539 c -0.011709,4.874016 -8.343e-4,8.976393 0.024165,9.116394 l 0.045453,0.254548 0.576066,-0.04543 c 0.3168362,-0.02499 0.8461699,-0.114461 1.1762969,-0.198835 z M 52.224835,34.575303 c 0.11304,-0.45974 0.186455,-0.854963 0.163144,-0.878275 -0.06733,-0.06733 -13.644101,-3.835614 -13.682178,-3.797537 -0.01885,0.01885 0.02267,0.239093 0.09227,0.489424 0.0696,0.250331 0.147156,0.652369 0.17235,0.893416 0.02519,0.241047 0.06951,0.476617 0.09848,0.523487 0.04756,0.07695 12.561219,3.586605 12.835137,3.599816 0.08563,0.0041 0.168141,-0.20944 0.320804,-0.830331 l 0,0 z m 1.790725,-7.977541 c 0.607417,-2.227005 1.094379,-4.059115 1.082138,-4.071356 -0.01224,-0.01224 -6.73781,-1.862802 -14.94571,-4.11236 -8.2079,-2.249557 -14.995783,-4.114495 -15.084187,-4.144306 -0.134314,-0.04529 0.270337,-0.35634 2.461898,-1.89241 1.442448,-1.011014 2.656775,-1.878437 2.698505,-1.927608 0.0557,-0.06563 -3.75e-4,-0.109377 -0.211033,-0.164534 -1.10732,-0.2899846 -1.567878,-0.3899575 -1.670022,-0.3625112 -0.0646,0.017359 -1.337398,0.8792562 -2.828434,1.9153272 l -2.710973,1.883766 -4.972588,-1.351476 c -3.769717,-1.024553 -4.986663,-1.328702 -5.030773,-1.257331 -0.103485,0.167441 -0.165,1.201267 -0.115217,1.936339 0.115729,1.708815 0.787139,3.325675 2.014627,4.851529 1.235339,1.535616 3.654477,3.083482 6.323126,4.045803 1.037748,0.374214 31.484063,8.732428 31.735701,8.712179 0.130944,-0.01054 0.279414,-0.491761 1.252942,-4.061051 z m -26.954365,1.355029 c 0.210386,-0.264395 0.504423,-0.587751 0.653417,-0.718569 0.148994,-0.130819 0.24143,-0.263832 0.205415,-0.295586 -0.05737,-0.05058 -22.662829,-6.30813 -22.7881797,-6.30813 -0.026711,0 -0.048566,0.421395 -0.048566,0.936432 0,0.90821 0.00509,0.937741 0.168815,0.979915 0.092848,0.02392 4.9125153,1.354831 10.7103713,2.957588 5.797856,1.602758 10.580853,2.917471 10.628883,2.921587 0.04803,0.0041 0.259459,-0.208842 0.469844,-0.473237 l 0,0 z"
     id="path4968"
     inkscape:connector-curvature="0" />
  <path
     style="fill:#ffffff;fill-opacity:0.50196078;stroke:none"
     d="m 31.500689,34.201216 c -0.46195,-0.181877 -0.954558,-0.636456 -1.16862,-1.078403 -0.08832,-0.18234 -0.15725,-0.515099 -0.17565,-0.847942 -0.02745,-0.496457 -0.0079,-0.593216 0.208019,-1.031892 1.012315,-2.056304 4.08597,-1.347708 4.08597,0.941974 0,1.530122 -1.529336,2.575491 -2.949719,2.016263 z"
     id="path4970"
     inkscape:connector-curvature="0" />
</svg>
