<?xml version="1.0" encoding="UTF-8" standalone="no"?>
<!-- Created with Inkscape (http://www.inkscape.org/) -->

<svg
   xmlns:dc="http://purl.org/dc/elements/1.1/"
   xmlns:cc="http://creativecommons.org/ns#"
   xmlns:rdf="http://www.w3.org/1999/02/22-rdf-syntax-ns#"
   xmlns:svg="http://www.w3.org/2000/svg"
   xmlns="http://www.w3.org/2000/svg"
   xmlns:sodipodi="http://sodipodi.sourceforge.net/DTD/sodipodi-0.dtd"
   xmlns:inkscape="http://www.inkscape.org/namespaces/inkscape"
   id="svg18076"
   sodipodi:version="0.32"
   inkscape:version="0.48.1 r9760"
   width="86"
   height="86"
   sodipodi:docname="Slipway.svg"
   inkscape:output_extension="org.inkscape.output.svg.inkscape"
   version="1.0"
   inkscape:export-filename="/Users/mherring/Desktop/try.png"
   inkscape:export-xdpi="90"
   inkscape:export-ydpi="90">
  <metadata
     id="metadata18081">
    <rdf:RDF>
      <cc:Work
         rdf:about="">
        <dc:format>image/svg+xml</dc:format>
        <dc:type
           rdf:resource="http://purl.org/dc/dcmitype/StillImage" />
        <dc:rights>
          <cc:Agent>
            <dc:title>Public Domain</dc:title>
          </cc:Agent>
        </dc:rights>
        <dc:publisher>
          <cc:Agent>
            <dc:title>clker.com</dc:title>
          </cc:Agent>
        </dc:publisher>
        <dc:creator>
          <cc:Agent>
            <dc:title>Mohamed Ibrahim</dc:title>
          </cc:Agent>
        </dc:creator>
        <cc:license
           rdf:resource="http://creativecommons.org/licenses/publicdomain/" />
        <dc:title>Map Symbols</dc:title>
        <dc:subject>
          <rdf:Bag>
            <rdf:li>map symbols</rdf:li>
          </rdf:Bag>
        </dc:subject>
      </cc:Work>
      <cc:License
         rdf:about="http://creativecommons.org/licenses/publicdomain/">
        <cc:permits
           rdf:resource="http://creativecommons.org/ns#Reproduction" />
        <cc:permits
           rdf:resource="http://creativecommons.org/ns#Distribution" />
        <cc:permits
           rdf:resource="http://creativecommons.org/ns#DerivativeWorks" />
      </cc:License>
    </rdf:RDF>
  </metadata>
  <defs
     id="defs18079">
    <inkscape:perspective
       sodipodi:type="inkscape:persp3d"
       inkscape:vp_x="0 : 526.18109 : 1"
       inkscape:vp_y="0 : 1000 : 0"
       inkscape:vp_z="744.09448 : 526.18109 : 1"
       inkscape:persp3d-origin="372.04724 : 350.78739 : 1"
       id="perspective18083" />
    <inkscape:perspective
       id="perspective18071"
       inkscape:persp3d-origin="372.04724 : 350.78739 : 1"
       inkscape:vp_z="744.09448 : 526.18109 : 1"
       inkscape:vp_y="0 : 1000 : 0"
       inkscape:vp_x="0 : 526.18109 : 1"
       sodipodi:type="inkscape:persp3d" />
    <inkscape:perspective
       id="perspective21220"
       inkscape:persp3d-origin="372.04724 : 350.78739 : 1"
       inkscape:vp_z="744.09448 : 526.18109 : 1"
       inkscape:vp_y="0 : 1000 : 0"
       inkscape:vp_x="0 : 526.18109 : 1"
       sodipodi:type="inkscape:persp3d" />
    <inkscape:perspective
       id="perspective21262"
       inkscape:persp3d-origin="372.04724 : 350.78739 : 1"
       inkscape:vp_z="744.09448 : 526.18109 : 1"
       inkscape:vp_y="0 : 1000 : 0"
       inkscape:vp_x="0 : 526.18109 : 1"
       sodipodi:type="inkscape:persp3d" />
    <inkscape:perspective
       id="perspective21289"
       inkscape:persp3d-origin="372.04724 : 350.78739 : 1"
       inkscape:vp_z="744.09448 : 526.18109 : 1"
       inkscape:vp_y="0 : 1000 : 0"
       inkscape:vp_x="0 : 526.18109 : 1"
       sodipodi:type="inkscape:persp3d" />
    <inkscape:perspective
       id="perspective21316"
       inkscape:persp3d-origin="372.04724 : 350.78739 : 1"
       inkscape:vp_z="744.09448 : 526.18109 : 1"
       inkscape:vp_y="0 : 1000 : 0"
       inkscape:vp_x="0 : 526.18109 : 1"
       sodipodi:type="inkscape:persp3d" />
    <inkscape:perspective
       id="perspective21355"
       inkscape:persp3d-origin="372.04724 : 350.78739 : 1"
       inkscape:vp_z="744.09448 : 526.18109 : 1"
       inkscape:vp_y="0 : 1000 : 0"
       inkscape:vp_x="0 : 526.18109 : 1"
       sodipodi:type="inkscape:persp3d" />
    <inkscape:perspective
       id="perspective21394"
       inkscape:persp3d-origin="372.04724 : 350.78739 : 1"
       inkscape:vp_z="744.09448 : 526.18109 : 1"
       inkscape:vp_y="0 : 1000 : 0"
       inkscape:vp_x="0 : 526.18109 : 1"
       sodipodi:type="inkscape:persp3d" />
  </defs>
  <sodipodi:namedview
     inkscape:window-height="1088"
     inkscape:window-width="1920"
     inkscape:pageshadow="2"
     inkscape:pageopacity="0.0"
     guidetolerance="10.0"
     gridtolerance="10.0"
     objecttolerance="10.0"
     borderopacity="1.0"
     bordercolor="#666666"
     pagecolor="#ffffff"
     id="base"
     showgrid="false"
     inkscape:zoom="4.7122312"
     inkscape:cx="9.9740435"
     inkscape:cy="47.748081"
     inkscape:window-x="1440"
     inkscape:window-y="0"
     inkscape:current-layer="svg18076"
     inkscape:window-maximized="0" />
  <path
     d="m 18.126727,15.553539 14.469348,3.939066 8.034664,-5.573826 2.791263,0.669555 -7.956405,5.591223 43.85152,12.025908 L 76.108469,43.979202 32.100431,31.979376 C 15.048512,26.909892 18.152813,15.544845 18.152813,15.544845"
     style="fill:#a30075;fill-opacity:1;fill-rule:nonzero;stroke:none"
     id="path8272"
     inkscape:connector-curvature="0" />
  <path
     d="m 56.160941,45.666135 c -0.05217,-0.991296 -0.23478,-1.921716 -0.556513,-2.817351 l 19.843183,5.530347 -0.634774,2.434752 -18.651896,-5.147748 z"
     style="fill:#a30075;fill-opacity:1;fill-rule:nonzero;stroke:none"
     id="path8274"
     inkscape:connector-curvature="0" />
  <path
     d="m 38.143821,40.6836 c 0.530426,-0.773901 1.173893,-1.486935 1.895621,-2.086929 l -33.103853,-9.138996 0,2.626047 31.208232,8.599878 z"
     style="fill:#a30075;fill-opacity:1;fill-rule:nonzero;stroke:none"
     id="path8276"
     inkscape:connector-curvature="0" />
  <path
     d="m 78.638869,69.161436 c -1.573893,0 -3.060827,-0.356517 -4.399938,-0.965205 -1.382586,-0.634779 -2.93039,-1.008684 -4.547755,-1.008684 -1.617368,0 -3.165172,0.373905 -4.539065,1.008684 -1.347804,0.608688 -2.843436,0.965205 -4.417327,0.965205 -1.565192,0 -3.060821,-0.356517 -4.408627,-0.965205 -1.382589,-0.634779 -2.921696,-1.008684 -4.539063,-1.008684 -1.617368,0 -3.16517,0.373905 -4.547758,1.008684 -1.339112,0.608688 -2.843435,0.965205 -4.408631,0.965205 -1.565193,0 -3.069519,-0.356517 -4.408628,-0.965205 -1.382588,-0.634779 -2.939088,-1.008684 -4.547761,-1.008684 -1.617364,0 -3.173864,0.373905 -4.539062,1.008684 -1.339108,0.608688 -2.852131,0.965205 -4.417324,0.965205 -1.556499,0 -3.060826,-0.356517 -4.408632,-0.965205 -1.373892,-0.634779 -2.921695,-1.008684 -4.539061,-1.008684 -1.608673,0 -3.165171,0.373905 -4.539063,1.008684 -1.347806,0.608688 -2.860827,0.965205 -4.40863,0.965205 l -0.104346,-26.28657 36.199459,9.982458 c -2.495614,-1.208673 -4.226024,-3.739068 -4.226024,-6.686856 0,-4.104288 3.330384,-7.434666 7.434673,-7.434666 4.104285,0 7.443366,3.330378 7.443366,7.434666 0,4.104288 -3.339081,7.443369 -7.443366,7.443369 -0.243474,0 -0.486949,-0.05217 -0.730424,-0.07825 l 32.990812,9.095508 0.05217,6.530346 2e-6,0 z M 46.326306,49.387815 c 1.782581,0 3.226037,-1.434762 3.226037,-3.217347 0,-1.782576 -1.443456,-3.226041 -3.226037,-3.226041 -1.782583,0 -3.22604,1.443465 -3.22604,3.226041 0,1.782585 1.443457,3.217347 3.22604,3.217347"
     style="fill:#a30075;fill-opacity:1;fill-rule:nonzero;stroke:none"
     id="path8278"
     inkscape:connector-curvature="0" />
  <rect
     style="fill:none;stroke:#a30075;stroke-width:2;stroke-miterlimit:4;stroke-opacity:1;stroke-dasharray:none"
     id="rect3764"
     width="84"
     height="84"
     x="1"
     y="1"
     rx="19.999998"
     ry="19.999998"
     inkscape:export-filename="/Users/mherring/Desktop/try.png"
     inkscape:export-xdpi="90"
     inkscape:export-ydpi="90" />
</svg>
