<?xml version="1.0" encoding="UTF-8" standalone="no"?>
<!-- Created with Inkscape (http://www.inkscape.org/) -->
<svg id="svg2" xmlns:rdf="http://www.w3.org/1999/02/22-rdf-syntax-ns#" xmlns="http://www.w3.org/2000/svg" height="400" width="300" version="1.1" xmlns:cc="http://creativecommons.org/ns#" xmlns:dc="http://purl.org/dc/elements/1.1/">
 <metadata id="metadata7">
  <rdf:RDF>
   <cc:Work rdf:about="">
    <dc:format>image/svg+xml</dc:format>
    <dc:type rdf:resource="http://purl.org/dc/dcmitype/StillImage"/>
    <dc:title/>
   </cc:Work>
  </rdf:RDF>
 </metadata>
 <g id="layer10">
  <g id="g4055" transform="translate(120.01 170.24)">
   <path id="path8272" d="m12.826 11.049 9.9907 2.7198 5.5477-3.8486 1.9273 0.46231-5.4937 3.8606 30.278 8.3036-2.2155 8.1295-30.387-8.2856c-11.773-3.502-9.629-11.349-9.629-11.349" fill="#a30075"/>
   <path id="path8274" d="m39.087 31.841c-0.03602-0.68447-0.16211-1.3269-0.38426-1.9453l13.701 3.8186-0.4383 1.6811-12.879-3.5544z" fill="#a30075"/>
   <path id="path8276" d="m26.647 28.401c0.36625-0.53436 0.81054-1.0267 1.3089-1.441l-22.857-6.3103v1.8132l21.549 5.938z" fill="#a30075"/>
   <path id="path8278" d="m54.608 48.064c-1.0867 0-2.1134-0.24617-3.0381-0.66645-0.95464-0.4383-2.0234-0.69647-3.1401-0.69647-1.1168 0-2.1855 0.25817-3.1341 0.69647-0.93063 0.42028-1.9633 0.66645-3.0501 0.66645-1.0807 0-2.1134-0.24617-3.0441-0.66645-0.95464-0.4383-2.0174-0.69647-3.1341-0.69647-1.1168 0-2.1855 0.25817-3.1401 0.69647-0.92462 0.42028-1.9633 0.66645-3.0441 0.66645-1.0807 0-2.1194-0.24617-3.0441-0.66645-0.95464-0.4383-2.0294-0.69647-3.1401-0.69647-1.1168 0-2.1915 0.25817-3.1341 0.69647-0.92462 0.42028-1.9693 0.66645-3.0501 0.66645-1.0747 0-2.1134-0.24617-3.0441-0.66645-0.94864-0.4383-2.0174-0.69647-3.1341-0.69647-1.1108 0-2.1855 0.25817-3.1341 0.69647-0.93063 0.42028-1.9753 0.66645-3.0441 0.66645l-0.072049-18.15 24.995 6.8926c-1.7232-0.83456-2.918-2.5817-2.918-4.6171 0-2.8339 2.2996-5.1335 5.1335-5.1335s5.1395 2.2995 5.1395 5.1335c0 2.8339-2.3056 5.1395-5.1395 5.1395-0.16811 0-0.33623-0.03602-0.50434-0.05403l22.779 6.2802 0.03602 4.509h0.000002zm-22.311-13.653c1.2308 0 2.2275-0.99067 2.2275-2.2215s-0.99667-2.2275-2.2275-2.2275-2.2275 0.99668-2.2275 2.2275 0.99667 2.2215 2.2275 2.2215" fill="#a30075"/>
   <rect id="rect3764-5" rx="20" ry="20" height="58" width="58" stroke="#a30075" y="1" x="1" stroke-width="2" fill="none"/>
   <path id="path4968" d="m19.864 57.918c-5.964-0.34-11.408-3.492-14.729-8.529-1.4504-2.201-2.4343-4.759-2.8653-7.45-0.24-1.498-0.2734-3.287-0.2419-12.943 0.0332-10.21 0.0267-10.026 0.423-11.918 0.5842-2.791 1.8456-5.488 3.6721-7.8519 0.7263-0.9401 2.4016-2.5764 3.3871-3.3082 1.1937-0.88644 1.8146-1.2693 3.0762-1.8967 2.2174-1.1028 4.4465-1.7164 6.9923-1.925 0.67758-0.055498 4.2401-0.07324 11.09-0.055227 9.891 0.026012 10.111 0.029726 11.067 0.18704 3.4303 0.56447 6.0956 1.6906 8.8159 3.725 0.91664 0.68549 2.8127 2.5816 3.4982 3.4982 2.2914 3.064 3.5452 6.3478 3.8532 10.091 0.10429 1.2676 0.10048 19.701-0.0043 20.948-0.38494 4.5783-2.3056 8.7384-5.5019 11.917-1.5331 1.5247-3.1296 2.6668-5.0247 3.5945-2.3811 1.1656-4.6716 1.7599-7.3991 1.9198-1.3486 0.07906-18.712 0.07592-20.108-0.0036l0.000001-0.000003zm-12.942-10.05c0.3301-0.084 0.9379-0.288 1.3505-0.452 2.185-0.871 3.764-0.887 5.965-0.06 1.2557 0.47146 1.3251 0.49253 2.0633 0.62644 1.3384 0.2428 2.6501 0.08257 4.1641-0.50869 1.0366-0.40483 1.5129-0.54413 2.2277-0.65161 1.1311-0.17007 2.2821-0.04914 3.4192 0.35925 0.3399 0.12208 0.91298 0.32765 1.2735 0.45684 1.661 0.59518 3.3255 0.59734 4.9726 0.0065l1.2735-0.45684c1.1569-0.41502 2.3008-0.53669 3.4379-0.36571 0.71484 0.10748 1.1911 0.24678 2.2277 0.65161 1.5128 0.59078 2.822 0.751 4.1641 0.50964 0.70362-0.12654 0.96739-0.20715 2.1813-0.66665 2.1173-0.80147 3.6761-0.75707 6.0719 0.17294 0.89983 0.3493 1.9612 0.59931 2.551 0.6009l0.37514 0.001-0.02628-2.2696c-0.01445-1.2483-0.05447-2.2865-0.08893-2.3072-0.03446-0.02063-5.0307-1.4049-11.103-3.0762-6.072-1.6713-10.961-3.0482-10.865-3.0598 1.124-0.13607 2.0063-0.45948 2.8014-1.0269 1.7914-1.2783 2.5489-3.6844 1.8354-5.8297-0.51404-1.5456-1.8904-2.8523-3.4737-3.2979-0.45976-0.1294-0.81024-0.17295-1.401-0.1741-0.96607-0.0019-1.4099 0.10054-2.3168 0.53457-0.58068 0.2779-0.81152 0.44389-1.3204 0.94938-0.68885 0.68432-1.0569 1.2806-1.3273 2.1507-0.14598 0.46959-0.17465 0.72413-0.17321 1.5381 0.0015 0.86175 0.02505 1.0418 0.20193 1.5453 0.11011 0.31347 0.32627 0.78615 0.48035 1.0504 0.30064 0.5156 1.1054 1.3744 1.5311 1.6339 0.14346 0.08745 0.22707 0.1586 0.18581 0.1581-0.04126-0.000525-5.5615-1.5151-12.267-3.3657l-12.193-3.364-0.0215 8.862c-0.011709 4.874-0.0008343 8.9764 0.024165 9.1164l0.045453 0.25455 0.57607-0.04543c0.3168-0.025 0.8462-0.114 1.1763-0.199zm45.304-13.293c0.11304-0.45974 0.18646-0.85496 0.16314-0.87828-0.06733-0.06733-13.644-3.8356-13.682-3.7975-0.01885 0.01885 0.02267 0.23909 0.09227 0.48942s0.14716 0.65237 0.17235 0.89342 0.06951 0.47662 0.09848 0.52349c0.04756 0.07695 12.561 3.5866 12.835 3.5998 0.08563 0.0041 0.16814-0.20944 0.3208-0.83033zm1.7907-7.9775c0.60742-2.227 1.0944-4.0591 1.0821-4.0714-0.01224-0.01224-6.7378-1.8628-14.946-4.1124-8.2079-2.2496-14.996-4.1145-15.084-4.1443-0.13431-0.04529 0.27034-0.35634 2.4619-1.8924 1.4424-1.011 2.6568-1.8784 2.6985-1.9276 0.0557-0.06563-0.000375-0.10938-0.21103-0.16453-1.1073-0.28998-1.5679-0.38996-1.67-0.36251-0.0646 0.017359-1.3374 0.87926-2.8284 1.9153l-2.711 1.8838-4.9726-1.3515c-3.7697-1.0246-4.9867-1.3287-5.0308-1.2573-0.10348 0.16744-0.165 1.2013-0.11522 1.9363 0.11573 1.7088 0.78714 3.3257 2.0146 4.8515 1.2353 1.5356 3.6545 3.0835 6.3231 4.0458 1.0377 0.37421 31.484 8.7324 31.736 8.7122 0.13094-0.01054 0.27941-0.49176 1.2529-4.0611zm-26.954 1.355c0.21039-0.2644 0.50442-0.58775 0.65342-0.71857 0.14899-0.13082 0.24143-0.26383 0.20542-0.29559-0.05737-0.05058-22.663-6.3081-22.788-6.3081-0.026711 0-0.048566 0.4214-0.048566 0.93643 0 0.90821 0.00509 0.93774 0.16882 0.97992 0.092848 0.02392 4.9125 1.3548 10.71 2.9576 5.7979 1.6028 10.581 2.9175 10.629 2.9216 0.04803 0.0041 0.25946-0.20884 0.46984-0.47324z" fill-opacity=".50196" fill="#fff"/>
   <path id="path4970" d="m31.501 34.201c-0.46195-0.18188-0.95456-0.63646-1.1686-1.0784-0.08832-0.18234-0.15725-0.5151-0.17565-0.84794-0.02745-0.49646-0.0079-0.59322 0.20802-1.0319 1.0123-2.0563 4.086-1.3477 4.086 0.94197 0 1.5301-1.5293 2.5755-2.9497 2.0163z" fill-opacity=".50196" fill="#fff"/>
  </g>
 </g>
</svg>
