<?xml version="1.0" encoding="UTF-8" standalone="no"?>
<svg
   xmlns:dc="http://purl.org/dc/elements/1.1/"
   xmlns:cc="http://creativecommons.org/ns#"
   xmlns:rdf="http://www.w3.org/1999/02/22-rdf-syntax-ns#"
   xmlns:svg="http://www.w3.org/2000/svg"
   xmlns="http://www.w3.org/2000/svg"
   xmlns:sodipodi="http://sodipodi.sourceforge.net/DTD/sodipodi-0.dtd"
   xmlns:inkscape="http://www.inkscape.org/namespaces/inkscape"
   version="1.0"
   width="300"
   height="400"
   id="svg2"
   inkscape:version="0.47 r22583"
   sodipodi:docname="Cardinal_Spar_South.svg"
   inkscape:label="Pillar"
   style="display:inline">
  <metadata
     id="metadata2822">
    <rdf:RDF>
      <cc:Work
         rdf:about="">
        <dc:format>image/svg+xml</dc:format>
        <dc:type
           rdf:resource="http://purl.org/dc/dcmitype/StillImage" />
        <dc:title />
      </cc:Work>
    </rdf:RDF>
  </metadata>
  <sodipodi:namedview
     pagecolor="#000000"
     bordercolor="#666666"
     borderopacity="1"
     objecttolerance="10"
     gridtolerance="10"
     guidetolerance="10"
     inkscape:pageopacity="0"
     inkscape:pageshadow="2"
     inkscape:window-width="1920"
     inkscape:window-height="1088"
     id="namedview2820"
     showgrid="true"
     inkscape:zoom="1.8561553"
     inkscape:cx="142.83274"
     inkscape:cy="199.35404"
     inkscape:window-x="1440"
     inkscape:window-y="0"
     inkscape:window-maximized="0"
     inkscape:current-layer="g3895"
     inkscape:snap-grids="false">
    <inkscape:grid
       type="xygrid"
       id="grid3180"
       empspacing="5"
       visible="true"
       enabled="true"
       snapvisiblegridlinesonly="true" />
  </sodipodi:namedview>
  <defs
     id="defs4">
    <inkscape:perspective
       sodipodi:type="inkscape:persp3d"
       inkscape:vp_x="0 : 160 : 1"
       inkscape:vp_y="0 : 1000 : 0"
       inkscape:vp_z="320 : 160 : 1"
       inkscape:persp3d-origin="160 : 106.66667 : 1"
       id="perspective2824" />
    <inkscape:perspective
       id="perspective2867"
       inkscape:persp3d-origin="160 : 106.66667 : 1"
       inkscape:vp_z="320 : 160 : 1"
       inkscape:vp_y="0 : 1000 : 0"
       inkscape:vp_x="0 : 160 : 1"
       sodipodi:type="inkscape:persp3d" />
    <inkscape:perspective
       id="perspective2913"
       inkscape:persp3d-origin="160 : 106.66667 : 1"
       inkscape:vp_z="320 : 160 : 1"
       inkscape:vp_y="0 : 1000 : 0"
       inkscape:vp_x="0 : 160 : 1"
       sodipodi:type="inkscape:persp3d" />
    <inkscape:perspective
       id="perspective2969"
       inkscape:persp3d-origin="160 : 106.66667 : 1"
       inkscape:vp_z="320 : 160 : 1"
       inkscape:vp_y="0 : 1000 : 0"
       inkscape:vp_x="0 : 160 : 1"
       sodipodi:type="inkscape:persp3d" />
    <inkscape:perspective
       id="perspective3016"
       inkscape:persp3d-origin="160 : 106.66667 : 1"
       inkscape:vp_z="320 : 160 : 1"
       inkscape:vp_y="0 : 1000 : 0"
       inkscape:vp_x="0 : 160 : 1"
       sodipodi:type="inkscape:persp3d" />
    <inkscape:perspective
       id="perspective3091"
       inkscape:persp3d-origin="160 : 106.66667 : 1"
       inkscape:vp_z="320 : 160 : 1"
       inkscape:vp_y="0 : 1000 : 0"
       inkscape:vp_x="0 : 160 : 1"
       sodipodi:type="inkscape:persp3d" />
    <inkscape:perspective
       id="perspective3135"
       inkscape:persp3d-origin="200 : 133.33333 : 1"
       inkscape:vp_z="400 : 200 : 1"
       inkscape:vp_y="0 : 1000 : 0"
       inkscape:vp_x="0 : 200 : 1"
       sodipodi:type="inkscape:persp3d" />
    <inkscape:perspective
       id="perspective3176"
       inkscape:persp3d-origin="200 : 133.33333 : 1"
       inkscape:vp_z="400 : 200 : 1"
       inkscape:vp_y="0 : 1000 : 0"
       inkscape:vp_x="0 : 200 : 1"
       sodipodi:type="inkscape:persp3d" />
    <inkscape:perspective
       id="perspective2952"
       inkscape:persp3d-origin="160 : 106.66667 : 1"
       inkscape:vp_z="320 : 160 : 1"
       inkscape:vp_y="0 : 1000 : 0"
       inkscape:vp_x="0 : 160 : 1"
       sodipodi:type="inkscape:persp3d" />
    <inkscape:perspective
       id="perspective2994"
       inkscape:persp3d-origin="200 : 133.33333 : 1"
       inkscape:vp_z="400 : 200 : 1"
       inkscape:vp_y="0 : 1000 : 0"
       inkscape:vp_x="0 : 200 : 1"
       sodipodi:type="inkscape:persp3d" />
    <inkscape:perspective
       id="perspective3035"
       inkscape:persp3d-origin="200 : 133.33333 : 1"
       inkscape:vp_z="400 : 200 : 1"
       inkscape:vp_y="0 : 1000 : 0"
       inkscape:vp_x="0 : 200 : 1"
       sodipodi:type="inkscape:persp3d" />
    <inkscape:perspective
       id="perspective3086"
       inkscape:persp3d-origin="200 : 133.33333 : 1"
       inkscape:vp_z="400 : 200 : 1"
       inkscape:vp_y="0 : 1000 : 0"
       inkscape:vp_x="0 : 200 : 1"
       sodipodi:type="inkscape:persp3d" />
    <inkscape:perspective
       id="perspective3143"
       inkscape:persp3d-origin="200 : 133.33333 : 1"
       inkscape:vp_z="400 : 200 : 1"
       inkscape:vp_y="0 : 1000 : 0"
       inkscape:vp_x="0 : 200 : 1"
       sodipodi:type="inkscape:persp3d" />
    <inkscape:perspective
       id="perspective3188"
       inkscape:persp3d-origin="200 : 133.33333 : 1"
       inkscape:vp_z="400 : 200 : 1"
       inkscape:vp_y="0 : 1000 : 0"
       inkscape:vp_x="0 : 200 : 1"
       sodipodi:type="inkscape:persp3d" />
    <inkscape:perspective
       sodipodi:type="inkscape:persp3d"
       inkscape:vp_x="0 : 160 : 1"
       inkscape:vp_y="0 : 1000 : 0"
       inkscape:vp_z="320 : 160 : 1"
       inkscape:persp3d-origin="160 : 106.66667 : 1"
       id="perspective2824-9" />
    <inkscape:perspective
       id="perspective2867-3"
       inkscape:persp3d-origin="160 : 106.66667 : 1"
       inkscape:vp_z="320 : 160 : 1"
       inkscape:vp_y="0 : 1000 : 0"
       inkscape:vp_x="0 : 160 : 1"
       sodipodi:type="inkscape:persp3d" />
    <inkscape:perspective
       id="perspective2913-8"
       inkscape:persp3d-origin="160 : 106.66667 : 1"
       inkscape:vp_z="320 : 160 : 1"
       inkscape:vp_y="0 : 1000 : 0"
       inkscape:vp_x="0 : 160 : 1"
       sodipodi:type="inkscape:persp3d" />
    <inkscape:perspective
       id="perspective2969-4"
       inkscape:persp3d-origin="160 : 106.66667 : 1"
       inkscape:vp_z="320 : 160 : 1"
       inkscape:vp_y="0 : 1000 : 0"
       inkscape:vp_x="0 : 160 : 1"
       sodipodi:type="inkscape:persp3d" />
    <inkscape:perspective
       id="perspective3016-2"
       inkscape:persp3d-origin="160 : 106.66667 : 1"
       inkscape:vp_z="320 : 160 : 1"
       inkscape:vp_y="0 : 1000 : 0"
       inkscape:vp_x="0 : 160 : 1"
       sodipodi:type="inkscape:persp3d" />
    <inkscape:perspective
       id="perspective3091-0"
       inkscape:persp3d-origin="160 : 106.66667 : 1"
       inkscape:vp_z="320 : 160 : 1"
       inkscape:vp_y="0 : 1000 : 0"
       inkscape:vp_x="0 : 160 : 1"
       sodipodi:type="inkscape:persp3d" />
    <inkscape:perspective
       id="perspective3135-8"
       inkscape:persp3d-origin="200 : 133.33333 : 1"
       inkscape:vp_z="400 : 200 : 1"
       inkscape:vp_y="0 : 1000 : 0"
       inkscape:vp_x="0 : 200 : 1"
       sodipodi:type="inkscape:persp3d" />
    <inkscape:perspective
       id="perspective3176-3"
       inkscape:persp3d-origin="200 : 133.33333 : 1"
       inkscape:vp_z="400 : 200 : 1"
       inkscape:vp_y="0 : 1000 : 0"
       inkscape:vp_x="0 : 200 : 1"
       sodipodi:type="inkscape:persp3d" />
    <inkscape:perspective
       id="perspective2979"
       inkscape:persp3d-origin="200 : 133.33333 : 1"
       inkscape:vp_z="400 : 200 : 1"
       inkscape:vp_y="0 : 1000 : 0"
       inkscape:vp_x="0 : 200 : 1"
       sodipodi:type="inkscape:persp3d" />
  </defs>
  <g
     style="display:inline"
     inkscape:label="Spar 2 Band"
     id="g3895"
     inkscape:groupmode="layer"
     transform="translate(0,20)">
    <g
       transform="translate(-9.9525602,-9.9867535)"
       id="g3897">
      <g
         id="g3899"
         inkscape:label="Spar"
         style="display:inline"
         transform="translate(0,-20)">
        <path
           sodipodi:nodetypes="cccccsccccccccccsssc"
           style="fill:#000000;fill-opacity:1;fill-rule:evenodd;stroke:none"
           d="m 157.11957,197.81917 c -4.58857,1.09832 -8.21335,4.74044 -9.28125,9.34375 l -8.4375,0 -0.125,5.65625 8.5625,0 c 1.28732,5.53295 6.23327,9.65624 12.15625,9.65625 5.92495,0 10.87095,-4.12052 12.15625,-9.65625 l 8.3125,-0.0312 0,-5.65625 -8.3125,0.0312 c -0.4895,-2.11431 -1.49849,-4.03814 -2.90625,-5.59375 l -12.125,-3.75 z m 9.4375,-1.0625 -4.375,-1.4375 4.375,1.4375 z m -6.5625,5.71875 c 4.14,0 7.5,3.36 7.5,7.5 0,4.14 -3.36,7.5 -7.5,7.5 -4.14,0 -7.5,-3.36 -7.5,-7.5 0,-4.14 3.36,-7.5 7.5,-7.5 z"
           id="path3901" />
      </g>
      <g
         id="g3903"
         inkscape:label="Light"
         transform="translate(0,20)"
         style="display:none">
        <g
           style="display:inline"
           id="g3905"
           transform="translate(-0.03261583,-10.012291)">
          <g
             transform="translate(0,40)"
             style="display:inline"
             inkscape:label="Pillar"
             id="g3907" />
          <g
             transform="translate(0,40)"
             style="display:none"
             inkscape:label="Top Support"
             id="g3909">
            <g
               transform="translate(0.05305884,-19.897533)"
               id="g3911">
              <path
                 sodipodi:nodetypes="ccccccccc"
                 d="m 237.075,81.89375 -5.59375,16.71875 4.03125,1.3125 5.59375,-16.6875 -4.03125,-1.34375 z m -14.48135,-8.400002 0,0 z m 9.1251,-2.4875 0,0 z"
                 id="path3913"
                 style="fill:#000407;fill-opacity:1;fill-rule:evenodd;stroke:none"
                 transform="translate(-40,-40)" />
            </g>
          </g>
          <g
             transform="translate(0,40)"
             style="display:none"
             inkscape:label="Top Cone"
             id="g3915">
            <g
               transform="translate(-1.12511,-16.485601)"
               id="g3917">
              <path
                 sodipodi:nodetypes="cccccccc"
                 d="m 258.13125,85.068748 -6.2,-40.575 -29.3376,29 35.5376,11.575 z m -6.2,-6.8375 -20.2125,-7.225 16.65,-16.75 3.5625,23.975 z"
                 id="path3919"
                 style="fill:#000407;fill-opacity:1;fill-rule:evenodd;stroke:none"
                 transform="translate(-40,-40)" />
            </g>
          </g>
          <g
             transform="translate(0,40)"
             style="display:none"
             inkscape:label="Top Can"
             id="g3921">
            <g
               transform="translate(-1.0006298,-16.738683)"
               id="g3923">
              <path
                 sodipodi:nodetypes="cccccccccccccc"
                 d="m 194.48125,164.58125 0,0 z m 6.03125,4.21875 0,0 z m 63.775,-118.887458 -26.425,-8.7875 -11.575,33.78746 26.425,8.6375 11.575,-33.63746 z m -6.0625,3.61246 -8.0125,23.975 -17.0875,-6.2 8.0125,-23.97496 17.0875,6.19996 z"
                 id="path3925"
                 style="fill:#000407;fill-opacity:1;fill-rule:evenodd;stroke:none"
                 transform="translate(-40,-40)" />
            </g>
          </g>
          <g
             transform="translate(0,40)"
             style="display:inline"
             inkscape:label="Light"
             id="g3927">
            <g
               transform="translate(0.01692762,-20.00346)"
               id="g3929">
              <path
                 d="m 131.60087,181.31159 -61.62788,76.30842 -4.53011,5.57826 -5.557433,4.22374 -6.899414,2.10924 -7.322226,-0.10972 -6.812191,-2.29629 -5.747427,-4.33733 -4.201328,-6.0873 -2.224898,-7.05116 0.15697,-6.9752 2.73284,-6.08953 4.594775,-5.30836 5.593528,-4.86801 1.174178,-0.94649 90.670616,-44.15027 z m 28.00125,-25.26051 c 2.19706,-0.21962 4.15842,1.38525 4.37805,3.58229 0.21962,2.19706 -1.38525,4.15842 -3.58229,4.37805 -2.19706,0.21962 -4.15842,-1.38525 -4.37805,-3.58229 -0.21962,-2.19706 1.38525,-4.15842 3.58229,-4.37805 z"
                 id="path3931"
                 style="fill:#a30075;fill-opacity:1;fill-rule:evenodd;stroke:none" />
            </g>
          </g>
          <g
             transform="translate(0,40)"
             style="display:none"
             inkscape:label="Top Sphere"
             id="g3933">
            <g
               transform="translate(-1.2726137,-15.886288)"
               id="g3935">
              <path
                 sodipodi:nodetypes="csssccsssc"
                 d="m 206,5.6875 c -9.35666,0 -17,7.643343 -17,17 0,9.356657 7.64334,17 17,17 9.35666,0 17,-7.643343 17,-17 0,-9.356657 -7.64334,-16.9999999 -17,-17 z m 0,5 c 6.65134,0 12,5.348657 12,12 0,6.651343 -5.34866,12 -12,12 -6.65134,0 -12,-5.348657 -12,-12 0,-6.651343 5.34866,-12 12,-12 z"
                 id="path3937"
                 style="fill:#000407;fill-opacity:1;fill-rule:evenodd;stroke:none" />
            </g>
          </g>
          <g
             transform="translate(0,40)"
             style="display:none"
             inkscape:label="Top 2 Spheres"
             id="g3939">
            <path
               sodipodi:nodetypes="csssc"
               d="m 217.83948,9.1611226 c 0,8.0040004 -6.496,14.5000004 -14.5,14.5000004 -8.004,0 -14.5,-6.496 -14.5,-14.5000004 0,-8.004 6.496,-14.5000005 14.5,-14.5000005 8.004,0 14.5,6.4960005 14.5,14.5000005 z"
               id="path3941"
               style="fill:#000407;fill-opacity:1;fill-rule:evenodd;stroke:none" />
            <path
               sodipodi:nodetypes="csssc"
               d="m 227.31627,-17.93622 c 0,8.0040011 -6.496,14.5000011 -14.5,14.5000011 -8.004,0 -14.5,-6.496 -14.5,-14.5000011 0,-8.003999 6.496,-14.499999 14.5,-14.499999 8.004,0 14.5,6.496 14.5,14.499999 z"
               id="path3943"
               style="fill:#000407;fill-opacity:1;fill-rule:evenodd;stroke:none" />
          </g>
          <g
             transform="translate(0,40)"
             id="g3945"
             inkscape:label="Pillar 2 Stripe"
             style="display:none">
            <path
               d="m 191.53964,38.593837 -6.53125,-2.09375 -30.46875,68.062503 -29.78125,32.59375 -7.78125,0 -0.125,5.65625 31.0625,0 c 1.28732,5.53295 6.23327,9.65624 12.15625,9.65625 5.92495,0 10.87095,-4.12052 12.15625,-9.65625 l 24.125,0 0,-5.65625 -7.78125,0 -2.46875,-22.34375 16.625,-72.625003 -7.15625,-2.28125 -4.03125,-1.3125 z m -2.28125,6.40625 4.96875,1.78125 -15.21875,68.031253 2.46875,22.34375 -9.25,0 c -1.28251,-5.53956 -6.22858,-9.6875 -12.15625,-9.6875 -5.92576,0 -10.87178,4.15063 -12.15625,9.6875 l -13.59375,0 26.25,-28.375 28.6875,-63.781253 z m -21.7,94.981253 c 0,4.14 -3.36,7.5 -7.5,7.5 -4.14,0 -7.5,-3.36 -7.5,-7.5 0,-4.14 3.36,-7.5 7.5,-7.5 4.14,0 7.5,3.36 7.5,7.5 z"
               id="path3947"
               style="fill:#000407;fill-opacity:1;fill-rule:evenodd;stroke:none;display:inline"
               sodipodi:nodetypes="cccccccscccccccccccccscccccsssc" />
            <path
               sodipodi:nodetypes="ccccc"
               id="path3949"
               d="m 191.65723,45.835182 -27.91272,82.169788 0.60559,0.25569 27.76009,-82.265296 -0.45296,-0.160182 z"
               style="fill:#000204;fill-opacity:1;stroke:none" />
          </g>
          <g
             transform="translate(0,40)"
             id="g3951"
             inkscape:label="Pillar 3 Band"
             style="display:none">
            <path
               d="m 191.53964,38.593837 -6.53125,-2.09375 -30.46875,68.062503 -29.78125,32.59375 -7.78125,0 -0.125,5.65625 31.0625,0 c 1.28732,5.53295 6.23327,9.65624 12.15625,9.65625 5.92495,0 10.87095,-4.12052 12.15625,-9.65625 l 24.125,0 0,-5.65625 -7.78125,0 -2.46875,-22.34375 16.625,-72.625003 -7.15625,-2.28125 -4.03125,-1.3125 z m -2.28125,6.40625 4.96875,1.78125 -15.21875,68.031253 2.46875,22.34375 -9.25,0 c -1.28251,-5.53956 -6.22858,-9.6875 -12.15625,-9.6875 -5.92576,0 -10.87178,4.15063 -12.15625,9.6875 l -13.59375,0 26.25,-28.375 28.6875,-63.781253 z m -21.7,94.981253 c 0,4.14 -3.36,7.5 -7.5,7.5 -4.14,0 -7.5,-3.36 -7.5,-7.5 0,-4.14 3.36,-7.5 7.5,-7.5 4.14,0 7.5,3.36 7.5,7.5 z"
               id="path3953"
               style="fill:#000204;fill-opacity:1;fill-rule:evenodd;stroke:none;display:inline"
               sodipodi:nodetypes="cccccccscccccccccccccscccccsssc" />
            <path
               sodipodi:nodetypes="ccccc"
               id="path3955"
               d="m 160.6521,108.59992 18.41043,6.21974 0.12439,-0.52868 -18.34823,-6.25084 -0.18659,0.55978 z"
               style="fill:#000000;fill-opacity:1;stroke:none" />
            <path
               sodipodi:nodetypes="ccccc"
               id="path3957"
               d="m 175.26849,76.008471 11.59981,3.887338 c -0.14141,0.298758 -0.16166,0.365908 -0.15549,0.590878 l -11.69311,-3.918439 0.24879,-0.559777 z"
               style="fill:#000204;fill-opacity:1;stroke:none" />
          </g>
          <g
             transform="translate(0,40)"
             id="g3959"
             inkscape:label="Pillar 2 Band"
             style="display:none">
            <path
               d="m 191.53964,38.593837 -6.53125,-2.09375 -30.46875,68.062503 -29.78125,32.59375 -7.78125,0 -0.125,5.65625 31.0625,0 c 1.28732,5.53295 6.23327,9.65624 12.15625,9.65625 5.92495,0 10.87095,-4.12052 12.15625,-9.65625 l 24.125,0 0,-5.65625 -7.78125,0 -2.46875,-22.34375 16.625,-72.625003 -7.15625,-2.28125 -4.03125,-1.3125 z m -2.28125,6.40625 4.96875,1.78125 -15.21875,68.031253 2.46875,22.34375 -9.25,0 c -1.28251,-5.53956 -6.22858,-9.6875 -12.15625,-9.6875 -5.92576,0 -10.87178,4.15063 -12.15625,9.6875 l -13.59375,0 26.25,-28.375 28.6875,-63.781253 z m -21.7,94.981253 c 0,4.14 -3.36,7.5 -7.5,7.5 -4.14,0 -7.5,-3.36 -7.5,-7.5 0,-4.14 3.36,-7.5 7.5,-7.5 4.14,0 7.5,3.36 7.5,7.5 z"
               id="path3961"
               style="fill:#000407;fill-opacity:1;fill-rule:evenodd;stroke:none;display:inline"
               sodipodi:nodetypes="cccccccscccccccccccccscccccsssc" />
            <path
               sodipodi:nodetypes="ccccc"
               id="path3963"
               d="m 168.84909,90.31038 14.50814,5.08883 -0.0591,0.54193 -14.69694,-5.11992 0.24787,-0.51084 z"
               style="fill:#000000;fill-opacity:1;stroke:none" />
          </g>
        </g>
      </g>
    </g>
    <path
       id="path3965"
       d="m 175.22239,76.386555 -31.25,92.874995 17.5625,5.9375 31.25,-92.874995 -17.5625,-5.9375 z m 2.46875,4.875 10.34375,3.5 -28.65625,85.124995 -10.34375,-3.46875 28.65625,-85.156245 z"
       style="fill:#000000;fill-opacity:1" />
    <rect
       style="fill:#000000;fill-opacity:1;stroke:none"
       id="rect3967"
       width="13.738074"
       height="1.212183"
       x="194.00604"
       y="62.887016"
       transform="matrix(0.94721028,0.32061299,-0.32061299,0.94721028,0,0)" />
    <path
       style="fill:#ffd400;fill-opacity:1;stroke:none"
       d="m 169.12397,123.56914 c -2.64293,-0.90399 -4.84547,-1.68377 -4.89454,-1.73284 -0.0634,-0.0634 12.41221,-37.44659 13.41226,-40.189999 0.0983,-0.269544 0.29033,-0.21687 5.06391,1.388702 2.72898,0.917879 5.01469,1.72114 5.07936,1.785023 0.0667,0.0659 -2.81778,8.832299 -6.66701,20.262074 -5.0372,14.9573 -6.83662,20.14397 -6.98661,20.1383 -0.11112,-0.004 -2.36443,-0.74727 -5.00737,-1.65126 z"
       id="path3843" />
    <path
       style="fill:#000000;fill-opacity:1;stroke:none"
       d="m 154.18248,168.07404 -5.06594,-1.69882 7.25407,-21.53817 c 3.98974,-11.84599 7.28318,-21.56726 7.31874,-21.60283 0.0558,-0.0558 10.01387,3.27204 10.12571,3.38388 0.049,0.049 -14.40926,43.01512 -14.50261,43.09795 -0.0352,0.0312 -2.3437,-0.70765 -5.12997,-1.64201 z"
       id="path3846" />
  </g>
</svg>
