<?xml version="1.0" encoding="UTF-8" standalone="no"?>
<svg
   xmlns:dc="http://purl.org/dc/elements/1.1/"
   xmlns:cc="http://creativecommons.org/ns#"
   xmlns:rdf="http://www.w3.org/1999/02/22-rdf-syntax-ns#"
   xmlns:svg="http://www.w3.org/2000/svg"
   xmlns="http://www.w3.org/2000/svg"
   xmlns:sodipodi="http://sodipodi.sourceforge.net/DTD/sodipodi-0.dtd"
   xmlns:inkscape="http://www.inkscape.org/namespaces/inkscape"
   version="1.0"
   width="300"
   height="400"
   id="svg2"
   inkscape:version="0.48.2 r9819"
   sodipodi:docname="Spar_Yellow_Black_Yellow.svg"
   inkscape:label="Pillar"
   style="display:inline">
  <metadata
     id="metadata2822">
    <rdf:RDF>
      <cc:Work
         rdf:about="">
        <dc:format>image/svg+xml</dc:format>
        <dc:type
           rdf:resource="http://purl.org/dc/dcmitype/StillImage" />
        <dc:title />
      </cc:Work>
    </rdf:RDF>
  </metadata>
  <sodipodi:namedview
     pagecolor="#000000"
     bordercolor="#666666"
     borderopacity="1"
     objecttolerance="10"
     gridtolerance="10"
     guidetolerance="10"
     inkscape:pageopacity="0"
     inkscape:pageshadow="2"
     inkscape:window-width="1920"
     inkscape:window-height="1088"
     id="namedview2820"
     showgrid="true"
     inkscape:zoom="1.8561553"
     inkscape:cx="144.36425"
     inkscape:cy="198.92848"
     inkscape:window-x="1440"
     inkscape:window-y="0"
     inkscape:window-maximized="0"
     inkscape:current-layer="g3971"
     inkscape:snap-grids="false">
    <inkscape:grid
       type="xygrid"
       id="grid3180"
       empspacing="5"
       visible="true"
       enabled="true"
       snapvisiblegridlinesonly="true" />
  </sodipodi:namedview>
  <defs
     id="defs4" />
  <g
     inkscape:groupmode="layer"
     id="g3971"
     inkscape:label="Spar 3 Band"
     style="display:inline"
     transform="translate(0,20)">
    <g
       id="g3973"
       transform="translate(-9.972575,-9.9744986)">
      <g
         transform="translate(0,-20)"
         style="display:inline"
         inkscape:label="Spar"
         id="g3975">
        <path
           id="path3977"
           d="m 157.11957,197.81917 c -4.58857,1.09832 -8.21335,4.74044 -9.28125,9.34375 l -8.4375,0 -0.125,5.65625 8.5625,0 c 1.28732,5.53295 6.23327,9.65624 12.15625,9.65625 5.92495,0 10.87095,-4.12052 12.15625,-9.65625 l 8.3125,-0.0312 0,-5.65625 -8.3125,0.0312 c -0.4895,-2.11431 -1.49849,-4.03814 -2.90625,-5.59375 l -12.125,-3.75 z m 9.4375,-1.0625 -4.375,-1.4375 4.375,1.4375 z m -6.5625,5.71875 c 4.14,0 7.5,3.36 7.5,7.5 0,4.14 -3.36,7.5 -7.5,7.5 -4.14,0 -7.5,-3.36 -7.5,-7.5 0,-4.14 3.36,-7.5 7.5,-7.5 z"
           style="fill:#000000;fill-opacity:1;fill-rule:evenodd;stroke:none"
           sodipodi:nodetypes="cccccsccccccccccsssc" />
      </g>
      <g
         style="display:none"
         transform="translate(0,20)"
         inkscape:label="Light"
         id="g3979">
        <g
           transform="translate(-0.03261583,-10.012291)"
           id="g3981"
           style="display:inline">
          <g
             id="g3983"
             inkscape:label="Pillar"
             style="display:inline"
             transform="translate(0,40)" />
          <g
             id="g3985"
             inkscape:label="Top Support"
             style="display:none"
             transform="translate(0,40)">
            <g
               id="g3987"
               transform="translate(0.05305884,-19.897533)">
              <path
                 transform="translate(-40,-40)"
                 style="fill:#000407;fill-opacity:1;fill-rule:evenodd;stroke:none"
                 id="path3989"
                 d="m 237.075,81.89375 -5.59375,16.71875 4.03125,1.3125 5.59375,-16.6875 -4.03125,-1.34375 z m -14.48135,-8.400002 0,0 z m 9.1251,-2.4875 0,0 z"
                 sodipodi:nodetypes="ccccccccc" />
            </g>
          </g>
          <g
             id="g3991"
             inkscape:label="Top Cone"
             style="display:none"
             transform="translate(0,40)">
            <g
               id="g3993"
               transform="translate(-1.12511,-16.485601)">
              <path
                 transform="translate(-40,-40)"
                 style="fill:#000407;fill-opacity:1;fill-rule:evenodd;stroke:none"
                 id="path3995"
                 d="m 258.13125,85.068748 -6.2,-40.575 -29.3376,29 35.5376,11.575 z m -6.2,-6.8375 -20.2125,-7.225 16.65,-16.75 3.5625,23.975 z"
                 sodipodi:nodetypes="cccccccc" />
            </g>
          </g>
          <g
             id="g3997"
             inkscape:label="Top Can"
             style="display:none"
             transform="translate(0,40)">
            <g
               id="g3999"
               transform="translate(-1.0006298,-16.738683)">
              <path
                 transform="translate(-40,-40)"
                 style="fill:#000407;fill-opacity:1;fill-rule:evenodd;stroke:none"
                 id="path4001"
                 d="m 194.48125,164.58125 0,0 z m 6.03125,4.21875 0,0 z m 63.775,-118.887458 -26.425,-8.7875 -11.575,33.78746 26.425,8.6375 11.575,-33.63746 z m -6.0625,3.61246 -8.0125,23.975 -17.0875,-6.2 8.0125,-23.97496 17.0875,6.19996 z"
                 sodipodi:nodetypes="cccccccccccccc" />
            </g>
          </g>
          <g
             id="g4003"
             inkscape:label="Light"
             style="display:inline"
             transform="translate(0,40)">
            <g
               id="g4005"
               transform="translate(0.01692762,-20.00346)">
              <path
                 style="fill:#a30075;fill-opacity:1;fill-rule:evenodd;stroke:none"
                 id="path4007"
                 d="m 131.60087,181.31159 -61.62788,76.30842 -4.53011,5.57826 -5.557433,4.22374 -6.899414,2.10924 -7.322226,-0.10972 -6.812191,-2.29629 -5.747427,-4.33733 -4.201328,-6.0873 -2.224898,-7.05116 0.15697,-6.9752 2.73284,-6.08953 4.594775,-5.30836 5.593528,-4.86801 1.174178,-0.94649 90.670616,-44.15027 z m 28.00125,-25.26051 c 2.19706,-0.21962 4.15842,1.38525 4.37805,3.58229 0.21962,2.19706 -1.38525,4.15842 -3.58229,4.37805 -2.19706,0.21962 -4.15842,-1.38525 -4.37805,-3.58229 -0.21962,-2.19706 1.38525,-4.15842 3.58229,-4.37805 z" />
            </g>
          </g>
          <g
             id="g4009"
             inkscape:label="Top Sphere"
             style="display:none"
             transform="translate(0,40)">
            <g
               id="g4011"
               transform="translate(-1.2726137,-15.886288)">
              <path
                 style="fill:#000407;fill-opacity:1;fill-rule:evenodd;stroke:none"
                 id="path4013"
                 d="m 206,5.6875 c -9.35666,0 -17,7.643343 -17,17 0,9.356657 7.64334,17 17,17 9.35666,0 17,-7.643343 17,-17 0,-9.356657 -7.64334,-16.9999999 -17,-17 z m 0,5 c 6.65134,0 12,5.348657 12,12 0,6.651343 -5.34866,12 -12,12 -6.65134,0 -12,-5.348657 -12,-12 0,-6.651343 5.34866,-12 12,-12 z"
                 sodipodi:nodetypes="csssccsssc" />
            </g>
          </g>
          <g
             id="g4015"
             inkscape:label="Top 2 Spheres"
             style="display:none"
             transform="translate(0,40)">
            <path
               style="fill:#000407;fill-opacity:1;fill-rule:evenodd;stroke:none"
               id="path4017"
               d="m 217.83948,9.1611226 c 0,8.0040004 -6.496,14.5000004 -14.5,14.5000004 -8.004,0 -14.5,-6.496 -14.5,-14.5000004 0,-8.004 6.496,-14.5000005 14.5,-14.5000005 8.004,0 14.5,6.4960005 14.5,14.5000005 z"
               sodipodi:nodetypes="csssc" />
            <path
               style="fill:#000407;fill-opacity:1;fill-rule:evenodd;stroke:none"
               id="path4019"
               d="m 227.31627,-17.93622 c 0,8.0040011 -6.496,14.5000011 -14.5,14.5000011 -8.004,0 -14.5,-6.496 -14.5,-14.5000011 0,-8.003999 6.496,-14.499999 14.5,-14.499999 8.004,0 14.5,6.496 14.5,14.499999 z"
               sodipodi:nodetypes="csssc" />
          </g>
          <g
             style="display:none"
             inkscape:label="Pillar 2 Stripe"
             id="g4021"
             transform="translate(0,40)">
            <path
               sodipodi:nodetypes="cccccccscccccccccccccscccccsssc"
               style="fill:#000407;fill-opacity:1;fill-rule:evenodd;stroke:none;display:inline"
               id="path4023"
               d="m 191.53964,38.593837 -6.53125,-2.09375 -30.46875,68.062503 -29.78125,32.59375 -7.78125,0 -0.125,5.65625 31.0625,0 c 1.28732,5.53295 6.23327,9.65624 12.15625,9.65625 5.92495,0 10.87095,-4.12052 12.15625,-9.65625 l 24.125,0 0,-5.65625 -7.78125,0 -2.46875,-22.34375 16.625,-72.625003 -7.15625,-2.28125 -4.03125,-1.3125 z m -2.28125,6.40625 4.96875,1.78125 -15.21875,68.031253 2.46875,22.34375 -9.25,0 c -1.28251,-5.53956 -6.22858,-9.6875 -12.15625,-9.6875 -5.92576,0 -10.87178,4.15063 -12.15625,9.6875 l -13.59375,0 26.25,-28.375 28.6875,-63.781253 z m -21.7,94.981253 c 0,4.14 -3.36,7.5 -7.5,7.5 -4.14,0 -7.5,-3.36 -7.5,-7.5 0,-4.14 3.36,-7.5 7.5,-7.5 4.14,0 7.5,3.36 7.5,7.5 z" />
            <path
               style="fill:#000204;fill-opacity:1;stroke:none"
               d="m 191.65723,45.835182 -27.91272,82.169788 0.60559,0.25569 27.76009,-82.265296 -0.45296,-0.160182 z"
               id="path4025"
               sodipodi:nodetypes="ccccc" />
          </g>
          <g
             style="display:none"
             inkscape:label="Pillar 3 Band"
             id="g4027"
             transform="translate(0,40)">
            <path
               sodipodi:nodetypes="cccccccscccccccccccccscccccsssc"
               style="fill:#000204;fill-opacity:1;fill-rule:evenodd;stroke:none;display:inline"
               id="path4029"
               d="m 191.53964,38.593837 -6.53125,-2.09375 -30.46875,68.062503 -29.78125,32.59375 -7.78125,0 -0.125,5.65625 31.0625,0 c 1.28732,5.53295 6.23327,9.65624 12.15625,9.65625 5.92495,0 10.87095,-4.12052 12.15625,-9.65625 l 24.125,0 0,-5.65625 -7.78125,0 -2.46875,-22.34375 16.625,-72.625003 -7.15625,-2.28125 -4.03125,-1.3125 z m -2.28125,6.40625 4.96875,1.78125 -15.21875,68.031253 2.46875,22.34375 -9.25,0 c -1.28251,-5.53956 -6.22858,-9.6875 -12.15625,-9.6875 -5.92576,0 -10.87178,4.15063 -12.15625,9.6875 l -13.59375,0 26.25,-28.375 28.6875,-63.781253 z m -21.7,94.981253 c 0,4.14 -3.36,7.5 -7.5,7.5 -4.14,0 -7.5,-3.36 -7.5,-7.5 0,-4.14 3.36,-7.5 7.5,-7.5 4.14,0 7.5,3.36 7.5,7.5 z" />
            <path
               style="fill:#000000;fill-opacity:1;stroke:none"
               d="m 160.6521,108.59992 18.41043,6.21974 0.12439,-0.52868 -18.34823,-6.25084 -0.18659,0.55978 z"
               id="path4031"
               sodipodi:nodetypes="ccccc" />
            <path
               style="fill:#000204;fill-opacity:1;stroke:none"
               d="m 175.26849,76.008471 11.59981,3.887338 c -0.14141,0.298758 -0.16166,0.365908 -0.15549,0.590878 l -11.69311,-3.918439 0.24879,-0.559777 z"
               id="path4033"
               sodipodi:nodetypes="ccccc" />
          </g>
          <g
             style="display:none"
             inkscape:label="Pillar 2 Band"
             id="g4035"
             transform="translate(0,40)">
            <path
               sodipodi:nodetypes="cccccccscccccccccccccscccccsssc"
               style="fill:#000407;fill-opacity:1;fill-rule:evenodd;stroke:none;display:inline"
               id="path4037"
               d="m 191.53964,38.593837 -6.53125,-2.09375 -30.46875,68.062503 -29.78125,32.59375 -7.78125,0 -0.125,5.65625 31.0625,0 c 1.28732,5.53295 6.23327,9.65624 12.15625,9.65625 5.92495,0 10.87095,-4.12052 12.15625,-9.65625 l 24.125,0 0,-5.65625 -7.78125,0 -2.46875,-22.34375 16.625,-72.625003 -7.15625,-2.28125 -4.03125,-1.3125 z m -2.28125,6.40625 4.96875,1.78125 -15.21875,68.031253 2.46875,22.34375 -9.25,0 c -1.28251,-5.53956 -6.22858,-9.6875 -12.15625,-9.6875 -5.92576,0 -10.87178,4.15063 -12.15625,9.6875 l -13.59375,0 26.25,-28.375 28.6875,-63.781253 z m -21.7,94.981253 c 0,4.14 -3.36,7.5 -7.5,7.5 -4.14,0 -7.5,-3.36 -7.5,-7.5 0,-4.14 3.36,-7.5 7.5,-7.5 4.14,0 7.5,3.36 7.5,7.5 z" />
            <path
               style="fill:#000000;fill-opacity:1;stroke:none"
               d="m 168.84909,90.31038 14.50814,5.08883 -0.0591,0.54193 -14.69694,-5.11992 0.24787,-0.51084 z"
               id="path4039"
               sodipodi:nodetypes="ccccc" />
          </g>
        </g>
      </g>
    </g>
    <path
       style="fill:#000000;fill-opacity:1"
       d="m 175.20238,76.398809 -31.25,92.875001 17.5625,5.9375 31.25,-92.875001 -17.5625,-5.9375 z m 2.46875,4.875 10.34375,3.5 -28.65625,85.125001 -10.34375,-3.46875 28.65625,-85.156251 z"
       id="path4041" />
    <rect
       y="48.1404"
       x="193.08153"
       height="1.212183"
       width="13.738074"
       id="rect4043"
       style="fill:#000000;fill-opacity:1;stroke:none"
       transform="matrix(0.94721028,0.32061299,-0.32061299,0.94721028,0,0)" />
    <rect
       style="fill:#000000;fill-opacity:1;stroke:none"
       id="rect4045"
       width="13.771747"
       height="1.2795266"
       x="193.41388"
       y="78.702301"
       transform="matrix(0.94721028,0.32061299,-0.32061299,0.94721028,0,0)" />
    <path
       style="fill:#ffd400;fill-opacity:1;stroke:none"
       d="m 173.78027,109.58058 c -2.66369,-0.91102 -4.86155,-1.71186 -4.88415,-1.77965 -0.0296,-0.0889 8.2974,-25.01217 8.77762,-26.271844 0.0725,-0.190083 10.1725,3.17587 10.17448,3.390763 6.5e-4,0.07066 -1.98377,6.02499 -4.40982,13.23184 -3.2714,9.718061 -4.46319,13.101031 -4.61303,13.094331 -0.11112,-0.005 -2.38141,-0.75443 -5.0451,-1.66544 z"
       id="path3938" />
    <path
       style="fill:#ffd400;fill-opacity:1;stroke:none"
       d="m 154.07663,168.05204 c -2.68532,-0.90066 -4.8824,-1.70659 -4.8824,-1.79096 0,-0.12474 8.92303,-26.74185 9.30637,-27.7606 0.1117,-0.29685 0.17273,-0.28016 5.17296,1.41421 4.01938,1.362 5.05201,1.75899 5.02143,1.93045 -0.0212,0.11871 -2.1295,6.43648 -4.68519,14.03947 -3.44996,10.26343 -4.69873,13.82124 -4.84873,13.81432 -0.11112,-0.005 -2.39911,-0.74622 -5.08444,-1.64689 z"
       id="path3940" />
    <path
       style="fill:#000000;fill-opacity:1;stroke:none"
       d="m 164.04107,138.54517 c -2.68664,-0.91144 -4.90707,-1.68134 -4.93429,-1.71089 -0.0545,-0.0591 9.15813,-27.45254 9.27014,-27.56455 0.0635,-0.0635 9.74597,3.15008 10.04141,3.33267 0.18358,0.11346 -9.07412,27.53814 -9.30765,27.57263 -0.10164,0.015 -2.38296,-0.71842 -5.06961,-1.62986 z"
       id="path3942" />
  </g>
</svg>
