<?xml version="1.0" encoding="UTF-8" standalone="no"?>
<svg
   xmlns:dc="http://purl.org/dc/elements/1.1/"
   xmlns:cc="http://creativecommons.org/ns#"
   xmlns:rdf="http://www.w3.org/1999/02/22-rdf-syntax-ns#"
   xmlns:svg="http://www.w3.org/2000/svg"
   xmlns="http://www.w3.org/2000/svg"
   xmlns:sodipodi="http://sodipodi.sourceforge.net/DTD/sodipodi-0.dtd"
   xmlns:inkscape="http://www.inkscape.org/namespaces/inkscape"
   version="1.0"
   width="300"
   height="400"
   id="svg2"
   inkscape:version="0.48.2 r9819"
   sodipodi:docname="Sphere_Black_Yellow_Black.svg"
   style="display:inline">
  <metadata
     id="metadata2913">
    <rdf:RDF>
      <cc:Work
         rdf:about="">
        <dc:format>image/svg+xml</dc:format>
        <dc:type
           rdf:resource="http://purl.org/dc/dcmitype/StillImage" />
        <dc:title />
      </cc:Work>
    </rdf:RDF>
  </metadata>
  <sodipodi:namedview
     pagecolor="#ffffff"
     bordercolor="#666666"
     borderopacity="1"
     objecttolerance="10"
     gridtolerance="10"
     guidetolerance="10"
     inkscape:pageopacity="0"
     inkscape:pageshadow="2"
     inkscape:window-width="1920"
     inkscape:window-height="1088"
     id="namedview2911"
     showgrid="true"
     inkscape:zoom="11.879394"
     inkscape:cx="132.09187"
     inkscape:cy="214.45828"
     inkscape:window-x="0"
     inkscape:window-y="0"
     inkscape:window-maximized="1"
     inkscape:current-layer="g7856"
     inkscape:snap-grids="false">
    <inkscape:grid
       type="xygrid"
       id="grid2919"
       empspacing="5"
       visible="true"
       enabled="true"
       snapvisiblegridlinesonly="true" />
  </sodipodi:namedview>
  <defs
     id="defs4" />
  <g
     inkscape:groupmode="layer"
     id="g7856"
     inkscape:label="Sphere Buoy 3 Band"
     style="display:inline">
    <g
       id="g7858">
      <g
         id="g7860">
        <path
           sodipodi:type="arc"
           style="fill:none;stroke:#000000;stroke-width:5.79977846;stroke-miterlimit:4;stroke-opacity:1;stroke-dasharray:none"
           id="path7862"
           sodipodi:cx="150.8125"
           sodipodi:cy="143"
           sodipodi:rx="24.4375"
           sodipodi:ry="23.625"
           d="m 129.32694,154.256 a 24.4375,23.625 0 1 1 42.90025,0.12552"
           transform="matrix(1.1867088,0,0,1.2275216,-24.073718,10.69257)"
           sodipodi:start="2.6449863"
           sodipodi:end="6.7858445"
           sodipodi:open="true" />
        <path
           inkscape:connector-curvature="0"
           transform="translate(0,60)"
           sodipodi:nodetypes="cccsccccccscccsssc"
           d="m 115.96555,137.16671 0,5.61206 21.95352,0.0442 c 1.28732,5.53295 6.23327,9.65624 12.15625,9.65625 5.92495,0 10.87095,-4.12052 12.15625,-9.65625 l 29.84375,0 0,-0.0625 0,-5.59375 -76.10977,0 z m 46.26602,0 c -1.2853,-5.53573 -6.2313,-9.65625 -12.15625,-9.65625 -5.92298,1e-5 -10.86893,4.1233 -12.15625,9.65625 l 24.3125,0 z m -12.15625,-4.6875 c 4.14,0 7.5,3.36 7.5,7.5 0,4.14 -3.36,7.5 -7.5,7.5 -4.14,0 -7.5,-3.36 -7.5,-7.5 0,-4.14 3.36,-7.5 7.5,-7.5 z"
           id="path7864"
           style="fill:#000407;fill-opacity:1;fill-rule:evenodd;stroke:none;display:inline" />
      </g>
      <rect
         style="fill:none;stroke:#000000;stroke-width:0.99999994;stroke-miterlimit:4;stroke-opacity:1;stroke-dasharray:none"
         id="rect7866"
         width="0.41421357"
         height="52.704708"
         x="-125.87656"
         y="179.61671"
         transform="matrix(0.31730466,-0.94832365,0.94832365,0.31730466,0,0)" />
      <rect
         style="fill:none;stroke:#000000;stroke-width:0.99999994;stroke-miterlimit:4;stroke-opacity:1;stroke-dasharray:none"
         id="rect7870"
         width="0.41421357"
         height="48.074841"
         x="-114.36205"
         y="183.18304"
         transform="matrix(0.31730466,-0.94832365,0.94832365,0.31730466,0,0)" />
    </g>
    <path
       style="fill:#000000;fill-opacity:1;stroke:none"
       d="m 159.35757,172.9083 c -10.92648,-3.65559 -19.92291,-6.66718 -19.99205,-6.69241 -0.15511,-0.0566 -0.0615,-0.13314 1.26214,-1.03229 3.23012,-2.19419 6.6915,-3.54332 10.64869,-4.15049 1.42299,-0.21833 4.23357,-0.2978 5.75975,-0.16285 8.77797,0.77617 16.48996,5.94357 20.4392,13.69523 0.76561,1.50276 1.13369,2.36278 1.56327,3.65262 0.38458,1.15472 0.4267,1.34819 0.29216,1.3418 -0.0587,-0.003 -9.04668,-2.99601 -19.97316,-6.65161 z"
       id="path24372"
       inkscape:connector-curvature="0" />
    <path
       style="fill:#000000;fill-opacity:1;stroke:none"
       d="m 131.51322,196.2546 c -0.96806,-2.2798 -1.56123,-4.48921 -1.92694,-7.17735 -0.16384,-1.20435 -0.13749,-4.66717 0.0455,-5.97673 0.29408,-2.1048 1.14158,-5.44086 1.48142,-5.83139 0.0436,-0.0501 22.99817,7.59057 46.57202,15.50204 l 1.66011,0.55714 -0.32712,0.97564 c -0.17992,0.5366 -0.50652,1.39838 -0.72578,1.91508 l -0.39865,0.93944 -7.79496,-4.2e-4 -7.79495,-4.2e-4 -0.31569,-0.97046 c -1.26003,-3.87338 -4.14455,-6.7921 -7.97598,-8.0705 -1.37345,-0.45826 -2.26518,-0.59391 -3.91434,-0.59542 -1.0484,-9.6e-4 -1.65614,0.0409 -2.27284,0.1565 -2.52982,0.47428 -4.74092,1.63986 -6.5672,3.4619 -1.62952,1.62573 -2.5997,3.30545 -3.30619,5.7242 l -0.0738,0.25253 -2.98996,0.0221 -2.98996,0.0221 -0.38471,-0.90597 0,0 z"
       id="path24374"
       inkscape:connector-curvature="0" />
    <path
       style="fill:#ffd400;fill-opacity:1;stroke:none"
       d="m 155.77995,183.84861 c -13.12567,-4.39387 -23.91307,-8.00664 -23.97201,-8.02837 -0.0843,-0.0311 -0.079,-0.10711 0.0248,-0.3571 0.2733,-0.65759 1.20242,-2.28902 1.90578,-3.34632 0.98355,-1.4785 1.66431,-2.31291 2.99998,-3.67707 l 1.12596,-1.14999 7.58981,2.54651 c 4.17439,1.40058 13.62116,4.56465 20.9928,7.03127 9.64859,3.2285 13.4149,4.52329 13.44549,4.6223 0.11317,0.36634 0.30598,1.97231 0.39705,3.30717 0.0791,1.15974 0.0791,1.80858 -2.5e-4,2.95499 -0.11938,1.72551 -0.43367,3.85562 -0.59479,4.03118 -0.0274,0.0299 -10.78899,-3.5407 -23.91466,-7.93457 z"
       id="path24376"
       inkscape:connector-curvature="0" />
  </g>
</svg>
