<?xml version="1.0" encoding="UTF-8" standalone="no"?>
<svg
   xmlns:dc="http://purl.org/dc/elements/1.1/"
   xmlns:cc="http://creativecommons.org/ns#"
   xmlns:rdf="http://www.w3.org/1999/02/22-rdf-syntax-ns#"
   xmlns:svg="http://www.w3.org/2000/svg"
   xmlns="http://www.w3.org/2000/svg"
   xmlns:sodipodi="http://sodipodi.sourceforge.net/DTD/sodipodi-0.dtd"
   xmlns:inkscape="http://www.inkscape.org/namespaces/inkscape"
   version="1.0"
   width="300"
   height="400"
   id="svg2"
   inkscape:version="0.48.2 r9819"
   sodipodi:docname="Sphere_Red_White_Red_White.svg"
   style="display:inline">
  <metadata
     id="metadata2913">
    <rdf:RDF>
      <cc:Work
         rdf:about="">
        <dc:format>image/svg+xml</dc:format>
        <dc:type
           rdf:resource="http://purl.org/dc/dcmitype/StillImage" />
        <dc:title />
      </cc:Work>
    </rdf:RDF>
  </metadata>
  <sodipodi:namedview
     pagecolor="#ffffff"
     bordercolor="#666666"
     borderopacity="1"
     objecttolerance="10"
     gridtolerance="10"
     guidetolerance="10"
     inkscape:pageopacity="0"
     inkscape:pageshadow="2"
     inkscape:window-width="1920"
     inkscape:window-height="1088"
     id="namedview2911"
     showgrid="true"
     inkscape:zoom="11.879394"
     inkscape:cx="161.82069"
     inkscape:cy="210.97656"
     inkscape:window-x="0"
     inkscape:window-y="0"
     inkscape:window-maximized="1"
     inkscape:current-layer="g7856"
     inkscape:snap-grids="false">
    <inkscape:grid
       type="xygrid"
       id="grid2919"
       empspacing="5"
       visible="true"
       enabled="true"
       snapvisiblegridlinesonly="true" />
  </sodipodi:namedview>
  <defs
     id="defs4" />
  <g
     inkscape:groupmode="layer"
     id="g7856"
     inkscape:label="Sphere Buoy 4 Band"
     style="display:inline">
    <g
       id="g7858">
      <g
         id="g7860">
        <path
           sodipodi:type="arc"
           style="fill:none;stroke:#000000;stroke-width:5.79977846;stroke-miterlimit:4;stroke-opacity:1;stroke-dasharray:none"
           id="path7862"
           sodipodi:cx="150.8125"
           sodipodi:cy="143"
           sodipodi:rx="24.4375"
           sodipodi:ry="23.625"
           d="m 129.32694,154.256 a 24.4375,23.625 0 1 1 42.90025,0.12552"
           transform="matrix(1.1867088,0,0,1.2275216,-24.073718,10.69257)"
           sodipodi:start="2.6449863"
           sodipodi:end="6.7858445"
           sodipodi:open="true" />
        <path
           inkscape:connector-curvature="0"
           transform="translate(0,60)"
           sodipodi:nodetypes="cccsccccccscccsssc"
           d="m 115.96555,137.16671 0,5.61206 21.95352,0.0442 c 1.28732,5.53295 6.23327,9.65624 12.15625,9.65625 5.92495,0 10.87095,-4.12052 12.15625,-9.65625 l 29.84375,0 0,-0.0625 0,-5.59375 -76.10977,0 z m 46.26602,0 c -1.2853,-5.53573 -6.2313,-9.65625 -12.15625,-9.65625 -5.92298,1e-5 -10.86893,4.1233 -12.15625,9.65625 l 24.3125,0 z m -12.15625,-4.6875 c 4.14,0 7.5,3.36 7.5,7.5 0,4.14 -3.36,7.5 -7.5,7.5 -4.14,0 -7.5,-3.36 -7.5,-7.5 0,-4.14 3.36,-7.5 7.5,-7.5 z"
           id="path7864"
           style="fill:#000407;fill-opacity:1;fill-rule:evenodd;stroke:none;display:inline" />
      </g>
      <rect
         style="fill:none;stroke:#000000;stroke-width:0.99999994;stroke-miterlimit:4;stroke-opacity:1;stroke-dasharray:none"
         id="rect7866"
         width="0.41421357"
         height="52.704708"
         x="-128.37859"
         y="179.83252"
         transform="matrix(0.31730466,-0.94832365,0.94832365,0.31730466,0,0)" />
      <rect
         transform="matrix(0.31730466,-0.94832365,0.94832365,0.31730466,0,0)"
         y="181.13808"
         x="-119.83409"
         height="49.169174"
         width="0.41421357"
         id="rect7868"
         style="fill:none;stroke:#000000;stroke-width:0.99999994;stroke-miterlimit:4;stroke-opacity:1;stroke-dasharray:none" />
      <rect
         style="fill:none;stroke:#000000;stroke-width:0.99999994;stroke-miterlimit:4;stroke-opacity:1;stroke-dasharray:none"
         id="rect7870"
         width="0.41421357"
         height="48.074841"
         x="-110.98129"
         y="183.20583"
         transform="matrix(0.31730466,-0.94832365,0.94832365,0.31730466,0,0)" />
    </g>
    <path
       style="fill:#d40000;fill-opacity:1;stroke:none"
       d="m 160.37146,169.67465 -17.5359,-5.86294 0.99466,-0.48446 c 2.51329,-1.22415 5.3193,-2.04801 8.13764,-2.38927 1.32897,-0.16092 4.2713,-0.18131 5.48392,-0.038 6.18377,0.73079 11.42836,3.25979 15.57635,7.51111 1.52684,1.56488 2.4694,2.76032 3.51612,4.45952 0.53632,0.87062 1.44191,2.59288 1.38937,2.6423 -0.0144,0.0136 -7.91741,-2.61364 -17.56216,-5.83826 l 0,0 z"
       id="path8811"
       inkscape:connector-curvature="0" />
    <path
       style="fill:#d40000;fill-opacity:1;stroke:none"
       d="m 154.85913,186.17905 c -23.71516,-7.93961 -24.05767,-8.05737 -24.00826,-8.25425 0.30131,-1.20052 2.10129,-4.80314 3.00437,-6.01321 0.1043,-0.13974 1.65122,0.36564 23.25406,7.59719 12.72829,4.26079 23.15468,7.74689 23.16976,7.74689 0.14304,0 -0.15145,2.53255 -0.47963,4.12479 -0.27999,1.3584 -0.69064,2.80075 -0.80644,2.83245 -0.0415,0.0114 -10.90174,-3.60387 -24.13386,-8.03386 l 0,0 z"
       id="path8813"
       inkscape:connector-curvature="0" />
    <path
       style="fill:#ffffff;fill-opacity:1;stroke:none"
       d="m 157.5955,178.08578 c -12.4216,-4.15852 -22.60462,-7.58084 -22.62895,-7.60517 -0.0731,-0.0731 1.39541,-1.7291 2.30668,-2.60131 0.94731,-0.90671 2.05716,-1.81476 3.1236,-2.55565 l 0.70689,-0.49111 1.81849,0.60309 c 1.00017,0.33169 9.47811,3.16499 18.83987,6.29622 l 17.02139,5.69315 0.25143,0.7695 c 0.52394,1.60352 0.82265,2.87064 1.06348,4.51119 0.16169,1.10146 0.26093,2.95226 0.15796,2.9458 -0.0419,-0.003 -10.23925,-3.40719 -22.66084,-7.56571 l 0,0 z"
       id="path8815"
       inkscape:connector-curvature="0" />
    <path
       style="fill:#ffffff;fill-opacity:1;stroke:none"
       d="m 131.60606,196.47334 c -1.02929,-2.25863 -1.80782,-5.25346 -2.05701,-7.91289 -0.18491,-1.97332 -0.0668,-4.79278 0.28208,-6.73435 0.18942,-1.05413 0.48035,-2.23075 0.55156,-2.23075 0.0356,0 10.87212,3.61761 24.08116,8.03913 13.20905,4.42152 24.026,8.03913 24.03767,8.03913 0.0117,0 -0.11614,0.32218 -0.28403,0.71596 l -0.30525,0.71595 -7.8179,-0.0215 -7.8179,-0.0215 -0.3296,-1.00422 c -0.46035,-1.40259 -1.26606,-2.89091 -2.12228,-3.92027 -1.85989,-2.23602 -4.21144,-3.70217 -6.99446,-4.36094 -0.85044,-0.2013 -1.09259,-0.22138 -2.70192,-0.22398 -1.4182,-0.002 -1.91759,0.0286 -2.52538,0.15621 -2.7623,0.57998 -5.3351,2.10253 -7.07312,4.1858 -1.2378,1.48369 -2.03312,3.03624 -2.61473,5.10427 -0.023,0.0816 -0.70065,0.10522 -3.02539,0.10522 l -2.9958,0 -0.2877,-0.63132 0,0 z"
       id="path8817"
       inkscape:connector-curvature="0" />
  </g>
</svg>
