<?xml version="1.0" encoding="UTF-8" standalone="no"?>
<svg
   xmlns:dc="http://purl.org/dc/elements/1.1/"
   xmlns:cc="http://creativecommons.org/ns#"
   xmlns:rdf="http://www.w3.org/1999/02/22-rdf-syntax-ns#"
   xmlns:svg="http://www.w3.org/2000/svg"
   xmlns="http://www.w3.org/2000/svg"
   xmlns:sodipodi="http://sodipodi.sourceforge.net/DTD/sodipodi-0.dtd"
   xmlns:inkscape="http://www.inkscape.org/namespaces/inkscape"
   version="1.0"
   width="300"
   height="400"
   id="svg2"
   inkscape:version="0.48.2 r9819"
   sodipodi:docname="Sphere_Black_Yellow.svg"
   style="display:inline">
  <metadata
     id="metadata2913">
    <rdf:RDF>
      <cc:Work
         rdf:about="">
        <dc:format>image/svg+xml</dc:format>
        <dc:type
           rdf:resource="http://purl.org/dc/dcmitype/StillImage" />
        <dc:title />
      </cc:Work>
    </rdf:RDF>
  </metadata>
  <sodipodi:namedview
     pagecolor="#ffffff"
     bordercolor="#666666"
     borderopacity="1"
     objecttolerance="10"
     gridtolerance="10"
     guidetolerance="10"
     inkscape:pageopacity="0"
     inkscape:pageshadow="2"
     inkscape:window-width="1920"
     inkscape:window-height="1088"
     id="namedview2911"
     showgrid="true"
     inkscape:zoom="11.879394"
     inkscape:cx="121.90617"
     inkscape:cy="214.45828"
     inkscape:window-x="0"
     inkscape:window-y="0"
     inkscape:window-maximized="1"
     inkscape:current-layer="g7856"
     inkscape:snap-grids="false">
    <inkscape:grid
       type="xygrid"
       id="grid2919"
       empspacing="5"
       visible="true"
       enabled="true"
       snapvisiblegridlinesonly="true" />
  </sodipodi:namedview>
  <defs
     id="defs4" />
  <g
     inkscape:groupmode="layer"
     id="g7856"
     inkscape:label="Sphere Buoy 2 Band"
     style="display:inline">
    <g
       id="g7858">
      <g
         id="g7860">
        <path
           sodipodi:type="arc"
           style="fill:none;stroke:#000000;stroke-width:5.79977846;stroke-miterlimit:4;stroke-opacity:1;stroke-dasharray:none"
           id="path7862"
           sodipodi:cx="150.8125"
           sodipodi:cy="143"
           sodipodi:rx="24.4375"
           sodipodi:ry="23.625"
           d="m 129.32694,154.256 a 24.4375,23.625 0 1 1 42.90025,0.12552"
           transform="matrix(1.1867088,0,0,1.2275216,-24.073718,10.69257)"
           sodipodi:start="2.6449863"
           sodipodi:end="6.7858445"
           sodipodi:open="true" />
        <path
           inkscape:connector-curvature="0"
           transform="translate(0,60)"
           sodipodi:nodetypes="cccsccccccscccsssc"
           d="m 115.96555,137.16671 0,5.61206 21.95352,0.0442 c 1.28732,5.53295 6.23327,9.65624 12.15625,9.65625 5.92495,0 10.87095,-4.12052 12.15625,-9.65625 l 29.84375,0 0,-0.0625 0,-5.59375 -76.10977,0 z m 46.26602,0 c -1.2853,-5.53573 -6.2313,-9.65625 -12.15625,-9.65625 -5.92298,1e-5 -10.86893,4.1233 -12.15625,9.65625 l 24.3125,0 z m -12.15625,-4.6875 c 4.14,0 7.5,3.36 7.5,7.5 0,4.14 -3.36,7.5 -7.5,7.5 -4.14,0 -7.5,-3.36 -7.5,-7.5 0,-4.14 3.36,-7.5 7.5,-7.5 z"
           id="path7864"
           style="fill:#000407;fill-opacity:1;fill-rule:evenodd;stroke:none;display:inline" />
      </g>
      <rect
         style="fill:none;stroke:#000000;stroke-width:0.99999994;stroke-miterlimit:4;stroke-opacity:1;stroke-dasharray:none"
         id="rect7866"
         width="0.41421357"
         height="52.704708"
         x="-120.58021"
         y="178.73224"
         transform="matrix(0.31730466,-0.94832365,0.94832365,0.31730466,0,0)" />
    </g>
    <path
       style="fill:#ffd400;fill-opacity:1;stroke:none"
       d="m 131.51323,196.2546 c -0.96807,-2.2798 -1.56124,-4.48921 -1.92694,-7.17735 -0.16384,-1.20435 -0.13749,-4.66717 0.0455,-5.97673 0.42165,-3.01787 1.2699,-5.79318 2.53426,-8.29167 0.53439,-1.05601 1.31586,-2.40248 1.38967,-2.39441 0.0236,0.003 10.53595,3.51913 23.36067,7.81455 l 23.31769,7.80985 -0.0217,0.54025 c -0.0869,2.15981 -0.88305,5.20434 -2.12807,8.13744 l -0.18759,0.44194 -7.79641,-4.2e-4 -7.79642,-4.2e-4 -0.31569,-0.97046 c -1.26002,-3.87338 -4.14455,-6.7921 -7.97597,-8.0705 -1.37346,-0.45826 -2.26519,-0.59391 -3.91435,-0.59542 -1.0484,-9.6e-4 -1.65613,0.0409 -2.27284,0.1565 -2.52982,0.47428 -4.74092,1.63986 -6.5672,3.4619 -1.62952,1.62573 -2.59969,3.30545 -3.30619,5.7242 l -0.0738,0.25253 -2.98996,0.0221 -2.98996,0.0221 -0.3847,-0.90597 0,0 z"
       id="path23139"
       inkscape:connector-curvature="0" />
    <path
       style="fill:#000000;fill-opacity:1;stroke:none"
       d="m 157.42145,178.81538 c -12.54694,-4.20282 -22.85789,-7.657 -22.91324,-7.67596 -0.31059,-0.10638 3.08426,-3.69667 4.60423,-4.8693 3.69346,-2.84944 7.61946,-4.53973 12.16392,-5.23701 1.42298,-0.21833 4.23356,-0.2978 5.75975,-0.16285 7.82952,0.69231 14.78051,4.8352 19.12222,11.39711 0.83725,1.26541 2.10163,3.77798 2.63446,5.23522 0.66835,1.82789 1.18217,4.02954 1.39484,5.97674 0.13314,1.21904 0.20562,2.98892 0.12216,2.98295 -0.0417,-0.003 -10.3414,-3.44408 -22.88834,-7.6469 z"
       id="path23141"
       inkscape:connector-curvature="0" />
  </g>
</svg>
