<?xml version="1.0" encoding="UTF-8" standalone="no"?>
<svg
   xmlns:dc="http://purl.org/dc/elements/1.1/"
   xmlns:cc="http://creativecommons.org/ns#"
   xmlns:rdf="http://www.w3.org/1999/02/22-rdf-syntax-ns#"
   xmlns:svg="http://www.w3.org/2000/svg"
   xmlns="http://www.w3.org/2000/svg"
   xmlns:sodipodi="http://sodipodi.sourceforge.net/DTD/sodipodi-0.dtd"
   xmlns:inkscape="http://www.inkscape.org/namespaces/inkscape"
   version="1.0"
   width="300"
   height="400"
   id="svg2"
   inkscape:version="0.48.2 r9819"
   sodipodi:docname="Sphere_White_Yellow.svg"
   style="display:inline">
  <metadata
     id="metadata2913">
    <rdf:RDF>
      <cc:Work
         rdf:about="">
        <dc:format>image/svg+xml</dc:format>
        <dc:type
           rdf:resource="http://purl.org/dc/dcmitype/StillImage" />
        <dc:title />
      </cc:Work>
    </rdf:RDF>
  </metadata>
  <sodipodi:namedview
     pagecolor="#ffffff"
     bordercolor="#666666"
     borderopacity="1"
     objecttolerance="10"
     gridtolerance="10"
     guidetolerance="10"
     inkscape:pageopacity="0"
     inkscape:pageshadow="2"
     inkscape:window-width="1920"
     inkscape:window-height="1088"
     id="namedview2911"
     showgrid="true"
     inkscape:zoom="5.939697"
     inkscape:cx="123.46296"
     inkscape:cy="223.32519"
     inkscape:window-x="0"
     inkscape:window-y="0"
     inkscape:window-maximized="1"
     inkscape:current-layer="g5527"
     inkscape:snap-grids="false">
    <inkscape:grid
       type="xygrid"
       id="grid2919"
       empspacing="5"
       visible="true"
       enabled="true"
       snapvisiblegridlinesonly="true" />
  </sodipodi:namedview>
  <defs
     id="defs4" />
  <g
     style="display:inline"
     inkscape:label="Sphere Buoy Cross"
     id="g5527"
     inkscape:groupmode="layer">
    <g
       id="g5529">
      <path
         sodipodi:type="arc"
         style="fill:none;stroke:#000000;stroke-width:5.79977846;stroke-miterlimit:4;stroke-opacity:1;stroke-dasharray:none"
         id="path5531"
         sodipodi:cx="150.8125"
         sodipodi:cy="143"
         sodipodi:rx="24.4375"
         sodipodi:ry="23.625"
         d="m 129.32694,154.256 a 24.4375,23.625 0 1 1 42.90025,0.12552"
         transform="matrix(1.1867088,0,0,1.2275216,-24.073718,10.69257)"
         sodipodi:start="2.6449863"
         sodipodi:end="6.7858445"
         sodipodi:open="true" />
      <path
         inkscape:connector-curvature="0"
         transform="translate(0,60)"
         sodipodi:nodetypes="cccsccccccscccsssc"
         d="m 115.96555,137.16671 0,5.61206 21.95352,0.0442 c 1.28732,5.53295 6.23327,9.65624 12.15625,9.65625 5.92495,0 10.87095,-4.12052 12.15625,-9.65625 l 29.84375,0 0,-0.0625 0,-5.59375 -76.10977,0 z m 46.26602,0 c -1.2853,-5.53573 -6.2313,-9.65625 -12.15625,-9.65625 -5.92298,1e-5 -10.86893,4.1233 -12.15625,9.65625 l 24.3125,0 z m -12.15625,-4.6875 c 4.14,0 7.5,3.36 7.5,7.5 0,4.14 -3.36,7.5 -7.5,7.5 -4.14,0 -7.5,-3.36 -7.5,-7.5 0,-4.14 3.36,-7.5 7.5,-7.5 z"
         id="path5533"
         style="fill:#000407;fill-opacity:1;fill-rule:evenodd;stroke:none;display:inline" />
    </g>
    <path
       sodipodi:type="arc"
       style="fill:none;stroke:none;stroke-width:0.12940014999999999;stroke-miterlimit:4;stroke-opacity:1;stroke-dasharray:none;display:inline"
       id="path3011"
       sodipodi:cx="129.85133"
       sodipodi:cy="202.04695"
       sodipodi:rx="24.186796"
       sodipodi:ry="26.324518"
       d="m 109.75413,216.69385 a 24.186796,26.324518 0 1 1 39.77685,0.65691"
       transform="matrix(0.80622501,0,0,0.7407543,50.191304,36.984949)"
       sodipodi:start="2.5515487"
       sodipodi:end="6.9035745"
       sodipodi:open="true" />
    <rect
       style="fill:none;stroke:#000000;stroke-width:0.1;stroke-linecap:round;stroke-linejoin:round;stroke-miterlimit:4;stroke-opacity:1;stroke-dasharray:none"
       id="rect6060"
       width="8"
       height="25"
       x="216.28659"
       y="83.940178"
       transform="matrix(0.90630778,0.42261827,-0.42261827,0.90630778,0,0)" />
    <path
       style="fill:#ffd400;fill-opacity:1;stroke:none"
       d="m 131.55587,196.34748 c -0.96871,-2.20879 -1.62661,-4.63029 -1.96003,-7.21412 -0.16933,-1.31219 -0.14493,-4.81786 0.0425,-6.10301 0.71139,-4.87851 2.47698,-9.04843 5.35872,-12.65614 2.35831,-2.95241 5.17315,-5.20809 8.67326,-6.95038 1.73335,-0.86282 3.15935,-1.39285 5.00438,-1.86007 2.27431,-0.57593 3.657,-0.7463 6.103,-0.75198 2.24407,-0.005 3.07069,0.0714 5.08158,0.47097 2.29207,0.45543 4.08463,1.07183 6.32473,2.17486 3.84605,1.89379 7.07854,4.65316 9.4986,8.10836 4.10558,5.86167 5.58568,13.10686 4.0875,20.00859 -0.34696,1.59832 -0.83416,3.11431 -1.52175,4.73509 l -0.34819,0.82075 -3.23244,0 c -2.563,0 -3.21957,-0.0218 -3.17027,-0.10523 0.0342,-0.0579 0.15033,-0.24693 0.25808,-0.42013 0.10774,-0.17319 0.38483,-0.69082 0.61574,-1.15028 1.68231,-3.3474 2.38498,-7.20461 1.97728,-10.85407 -0.17649,-1.57982 -0.40656,-2.64041 -0.88444,-4.0772 -2.47444,-7.43962 -8.88843,-12.57145 -16.70506,-13.3657 -1.3491,-0.13708 -3.73949,-0.0591 -5.0539,0.1648 -2.05502,0.35012 -3.60284,0.85029 -5.47166,1.76816 -5.99887,2.94632 -10.01837,8.64281 -10.81425,15.32607 -0.15196,1.2761 -0.11479,3.73869 0.0759,5.0259 0.35287,2.3824 1.19876,4.91869 2.22369,6.66746 0.25744,0.43926 0.30092,0.57609 0.24058,0.75714 l -0.0736,0.22099 -2.99279,0.0221 -2.99279,0.0221 -0.34428,-0.78502 0,0 z"
       id="path8289"
       inkscape:connector-curvature="0" />
    <path
       style="fill:#ffd400;fill-opacity:1;stroke:none"
       d="m 157.88933,190.21781 c -1.61832,-1.30139 -3.66198,-2.22197 -5.67912,-2.55821 -0.46298,-0.0772 -0.85018,-0.14856 -0.86044,-0.15864 -0.0163,-0.016 9.05487,-19.51 9.10025,-19.55655 0.01,-0.01 0.44762,0.13177 0.97348,0.3146 1.15919,0.40305 2.89141,1.2426 3.9187,1.89926 0.80865,0.51691 1.97821,1.37245 1.97821,1.44707 0,0.0513 -8.32227,17.92242 -8.66391,18.60472 l -0.223,0.44535 -0.54417,-0.4376 0,0 z"
       id="path8293"
       inkscape:connector-curvature="0" />
    <path
       style="fill:#ffd400;fill-opacity:1;stroke:none"
       d="m 131.85067,196.9008 c -0.45077,-0.87169 -1.33232,-3.4179 -1.65461,-4.77908 -0.43992,-1.85796 -0.59457,-3.05858 -0.64514,-5.00867 -0.0692,-2.66748 0.095,-4.37503 0.64574,-6.71653 0.92654,-3.93915 2.84629,-7.69389 5.51822,-10.79278 3.85766,-4.47409 9.53544,-7.59419 15.48518,-8.50955 1.41524,-0.21773 4.30364,-0.3019 5.86038,-0.17077 4.25511,0.35841 8.59219,1.93089 12.28028,4.45238 3.53631,2.41774 6.32004,5.64333 8.29445,9.61104 1.66146,3.33882 2.50789,6.72396 2.62164,10.48471 0.11393,3.76652 -0.52598,7.17736 -2.01359,10.73287 -0.35961,0.8595 -0.37779,0.8847 -0.65868,0.91335 -0.15888,0.0162 -1.58402,0.002 -3.16697,-0.0307 l -2.87811,-0.0602 0.19717,-0.31233 c 0.66247,-1.04943 1.57281,-3.18034 1.96553,-4.60089 0.53058,-1.91926 0.68308,-2.89787 0.74644,-4.79018 0.0841,-2.51246 -0.21689,-4.60184 -0.99448,-6.90271 -0.97803,-2.89398 -2.58901,-5.50787 -4.69922,-7.62472 -3.65498,-3.66648 -8.55605,-5.71771 -13.6615,-5.71771 -2.49737,0 -4.3291,0.2712 -6.32016,0.93575 -4.98135,1.66261 -9.0287,5.12585 -11.35224,9.71386 -1.03333,2.0404 -1.61637,3.88187 -1.96594,6.20927 -0.14368,0.95663 -0.17003,4.01482 -0.0437,5.06985 0.26493,2.21209 1.09404,4.90817 2.08039,6.76501 0.33586,0.63228 0.44957,0.92775 0.41305,1.07329 l -0.0504,0.20083 -2.55412,0 c -1.40476,0 -2.72647,0.0236 -2.93713,0.0525 -0.36201,0.0496 -0.39011,0.0388 -0.5125,-0.19791 l 0,0 z"
       id="path8295"
       inkscape:connector-curvature="0" />
    <path
       style="fill:#ffd400;fill-opacity:1;stroke:none"
       d=""
       id="path8297"
       inkscape:connector-curvature="0" />
    <path
       style="fill:#ffd400;fill-opacity:1;stroke:none"
       d="m 131.85119,196.90181 c -0.48683,-0.94142 -1.32888,-3.39519 -1.6872,-4.91658 -0.51155,-2.17199 -0.59346,-2.95252 -0.59518,-5.67188 -0.002,-2.75487 0.0641,-3.42108 0.54913,-5.55584 0.88187,-3.8814 2.56912,-7.40679 5.01587,-10.48034 0.745,-0.93585 2.82753,-3.0193 3.73397,-3.73562 2.52876,-1.99836 5.40382,-3.55629 8.24958,-4.47027 2.48283,-0.79741 4.44812,-1.13248 7.02898,-1.19839 2.71352,-0.0693 4.4754,0.12327 7.03728,0.7692 4.90338,1.2363 9.76392,4.25433 12.98082,8.06011 3.82308,4.52294 5.92224,9.95546 6.09337,15.76935 0.11167,3.79366 -0.51725,7.14147 -2.0166,10.73464 l -0.36808,0.88212 -0.45709,0.0285 c -0.2514,0.0157 -1.67504,0.002 -3.16364,-0.0306 l -2.70656,-0.0591 0.29968,-0.51132 c 1.11884,-1.909 2.05307,-4.58121 2.41914,-6.91949 0.18889,-1.2066 0.25314,-3.49636 0.13345,-4.75613 -0.50282,-5.29238 -3.17749,-10.24154 -7.338,-13.5781 -0.21261,-0.1705 -0.41101,-0.28557 -0.44088,-0.25569 -0.0299,0.0299 0.0997,0.16759 0.28798,0.30604 0.21958,0.16148 0.32842,0.30019 0.30358,0.38688 -0.0369,0.12867 -8.72287,18.79657 -8.76946,18.84724 -0.0123,0.0133 -0.34611,-0.21997 -0.74187,-0.51846 -1.63026,-1.22958 -3.23101,-1.94401 -5.31038,-2.37009 -0.51507,-0.10554 -0.9301,-0.22399 -0.92231,-0.26321 0.0122,-0.0617 8.94902,-19.31034 8.99356,-19.37099 0.009,-0.0124 0.24968,0.0499 0.53456,0.13861 0.28488,0.0887 0.53591,0.13218 0.55783,0.0967 0.0425,-0.0687 -1.62608,-0.57462 -2.60816,-0.7908 -2.19981,-0.48422 -5.46246,-0.52053 -7.7445,-0.0862 -1.00394,0.19108 -2.41844,0.59901 -3.36717,0.97105 -6.7073,2.63025 -11.3943,8.55046 -12.38233,15.64029 -0.10669,0.76559 -0.12703,1.43051 -0.0954,3.11955 0.0355,1.89533 0.0658,2.26742 0.25908,3.17907 0.44429,2.09552 1.13022,4.08094 1.92171,5.56236 0.30428,0.56952 0.40617,0.84238 0.36934,0.98911 l -0.0509,0.20263 -2.37646,5.9e-4 c -1.30706,3.3e-4 -2.62853,0.0244 -2.93661,0.0535 -0.55774,0.0527 -0.5607,0.0518 -0.69016,-0.19852 l 0,1e-5 z m 34.62743,-26.03242 c 0,-0.0447 -0.0786,-0.1233 -0.17473,-0.17473 -0.15987,-0.0856 -0.16678,-0.0786 -0.0812,0.0812 0.0961,0.17963 0.25595,0.23802 0.25595,0.0935 l 0,0 z m -0.92723,-0.68028 c -0.18894,-0.14517 -0.41964,-0.21699 -0.41964,-0.13065 0,0.0663 0.54355,0.37665 0.58579,0.33442 0.0237,-0.0237 -0.0511,-0.11537 -0.16615,-0.20377 z m -0.63009,-0.33283 c 0.0286,-0.0463 0.0119,-0.0842 -0.0371,-0.0842 -0.049,0 -0.0891,0.0379 -0.0891,0.0842 0,0.0463 0.0167,0.0842 0.0371,0.0842 0.0204,0 0.0605,-0.0379 0.0891,-0.0842 z m -0.29463,-0.17165 c 0,-0.0481 -0.5398,-0.34609 -1.19955,-0.66219 -1.4267,-0.68355 -1.47233,-0.70068 -1.54659,-0.58053 -0.035,0.0566 -0.0195,0.0698 0.0394,0.0334 0.0534,-0.033 0.0972,-0.0177 0.0972,0.0341 0,0.0518 0.0353,0.0723 0.0784,0.0457 0.0431,-0.0266 0.10254,-0.009 0.13209,0.0385 0.0296,0.0478 0.089,0.0651 0.13209,0.0385 0.0431,-0.0266 0.0784,-0.0153 0.0784,0.0252 0,0.0595 0.85368,0.46821 1.01015,0.48366 0.0231,0.002 0.13679,0.0655 0.25254,0.14056 0.18515,0.12 0.84847,0.47687 0.90493,0.48685 0.0116,0.002 0.021,-0.0356 0.021,-0.0838 z"
       id="path8299"
       inkscape:connector-curvature="0" />
    <path
       style="fill:#ffffff;fill-opacity:1;stroke:none"
       d="m 137.50178,195.59306 c -0.81309,-1.61642 -1.36694,-3.24413 -1.80372,-5.30094 -0.19556,-0.92092 -0.22367,-1.27468 -0.26004,-3.27353 -0.0369,-2.02533 -0.0231,-2.34792 0.14268,-3.35133 1.07428,-6.50115 4.97939,-11.76343 10.81742,-14.57687 2.93008,-1.41205 5.23479,-1.92785 8.61413,-1.92785 1.57885,0 2.73556,0.12223 4.08037,0.43119 0.42786,0.0983 0.86315,0.19742 0.96732,0.22029 0.10417,0.0229 0.1894,0.0488 0.1894,0.0576 0,0.009 -2.05762,4.42697 -4.57249,9.81813 l -4.57249,9.80211 -0.4886,-0.0267 c -1.41301,-0.0773 -3.76035,0.32918 -5.19763,0.90013 -2.09899,0.83381 -4.23391,2.51227 -5.52758,4.34575 -0.55282,0.7835 -1.39816,2.43095 -1.66298,3.2409 -0.0832,0.25464 -0.17355,0.49091 -0.20067,0.52505 -0.0271,0.0341 -0.26342,-0.3636 -0.52512,-0.88388 l 0,0 z"
       id="path8301"
       inkscape:connector-curvature="0" />
    <path
       style="fill:#ffffff;fill-opacity:1;stroke:none"
       d="m 161.98613,196.18059 c -0.54381,-1.72666 -1.52273,-3.39921 -2.77831,-4.74695 l -0.57854,-0.62101 0.16948,-0.39769 c 0.40073,-0.94032 8.62279,-18.50406 8.6973,-18.57892 0.10727,-0.10778 2.13002,1.94232 2.83559,2.87392 1.93607,2.55632 3.26531,5.60459 3.81177,8.74131 0.22598,1.29714 0.30953,3.76777 0.17235,5.09656 -0.27028,2.61813 -1.12435,5.35466 -2.36614,7.58132 -0.24256,0.43495 -0.44266,0.83817 -0.44467,0.89604 -0.003,0.0829 -0.98331,0.10523 -4.61167,0.10523 l -4.60802,0 -0.29914,-0.94981 0,0 z"
       id="path8303"
       inkscape:connector-curvature="0" />
  </g>
</svg>
