<?xml version="1.0" encoding="UTF-8" standalone="no"?>
<svg
   xmlns:dc="http://purl.org/dc/elements/1.1/"
   xmlns:cc="http://creativecommons.org/ns#"
   xmlns:rdf="http://www.w3.org/1999/02/22-rdf-syntax-ns#"
   xmlns:svg="http://www.w3.org/2000/svg"
   xmlns="http://www.w3.org/2000/svg"
   xmlns:sodipodi="http://sodipodi.sourceforge.net/DTD/sodipodi-0.dtd"
   xmlns:inkscape="http://www.inkscape.org/namespaces/inkscape"
   version="1.0"
   width="300"
   height="400"
   id="svg2"
   inkscape:version="0.48.2 r9819"
   sodipodi:docname="Super_Yellow.svg"
   style="display:inline">
  <metadata
     id="metadata2913">
    <rdf:RDF>
      <cc:Work
         rdf:about="">
        <dc:format>image/svg+xml</dc:format>
        <dc:type
           rdf:resource="http://purl.org/dc/dcmitype/StillImage" />
        <dc:title />
      </cc:Work>
    </rdf:RDF>
  </metadata>
  <sodipodi:namedview
     pagecolor="#ffffff"
     bordercolor="#666666"
     borderopacity="1"
     objecttolerance="10"
     gridtolerance="10"
     guidetolerance="10"
     inkscape:pageopacity="0"
     inkscape:pageshadow="2"
     inkscape:window-width="1920"
     inkscape:window-height="1088"
     id="namedview2911"
     showgrid="true"
     inkscape:zoom="2.8421876"
     inkscape:cx="36.728145"
     inkscape:cy="185.78997"
     inkscape:window-x="1440"
     inkscape:window-y="0"
     inkscape:window-maximized="0"
     inkscape:current-layer="layer2"
     inkscape:snap-grids="false">
    <inkscape:grid
       type="xygrid"
       id="grid2919"
       empspacing="5"
       visible="true"
       enabled="true"
       snapvisiblegridlinesonly="true" />
  </sodipodi:namedview>
  <defs
     id="defs4" />
  <g
     inkscape:groupmode="layer"
     id="layer2"
     inkscape:label="Major Float"
     style="display:inline"
     transform="translate(0,80)">
    <path
       style="fill:#000407;fill-opacity:1;fill-rule:evenodd;stroke:none"
       id="path2558"
       d="m 120.01249,75.21577 -20.042602,42.0154 -3.97592,-0.0311 0.0515,5.67134 41.716482,-0.0151 c 1.28732,5.53295 6.23327,9.65624 12.15625,9.65625 5.92495,0 10.87095,-4.12052 12.15625,-9.65625 l 41.97505,0 0,-5.65625 -4.01238,-0.0311 -19.96607,-41.9221 -60.05858,-0.0311 z m 3.70218,5.66321 52.84248,-0.0622 17.57537,36.40151 -32.05805,-0.0182 c -1.2853,-5.53573 -6.2313,-9.65625 -12.15625,-9.65625 -5.92298,1e-5 -10.86893,4.1233 -12.15625,9.65625 l -31.80484,0.0129 17.75754,-36.33397 z m 26.20355,31.63359 c 4.14,0 7.5,3.36 7.5,7.5 0,4.14 -3.36,7.5 -7.5,7.5 -4.14,0 -7.5,-3.36 -7.5,-7.5 0,-4.14 3.36,-7.5 7.5,-7.5 z"
       sodipodi:nodetypes="cccccsccccccccccsccccsssc" />
    <path
       style="fill:#ffd400;fill-opacity:1;stroke:none"
       d="m 109.11841,191.25236 c 1.51254,-3.14458 5.4494,-11.21935 8.74858,-17.94392 l 5.99852,-12.2265 26.32466,0.008 26.32467,0.008 8.35818,17.3849 c 4.597,9.5617 8.45341,17.63306 8.5698,17.93638 0.19021,0.49566 -1.37766,0.55147 -15.49168,0.55147 l -15.70331,0 -0.35246,-0.96757 c -1.20966,-3.32071 -3.42297,-5.81335 -6.50602,-7.32709 -1.87034,-0.91832 -2.45601,-1.02915 -5.43856,-1.02915 -2.92705,0 -3.60488,0.12277 -5.45354,0.98776 -2.61601,1.22401 -5.11447,3.81003 -6.19143,6.40837 l -0.79897,1.92768 -15.56925,0 -15.56925,0 2.75006,-5.71743 z"
       id="path3031"
       inkscape:connector-curvature="0"
       transform="translate(0,-80)" />
  </g>
</svg>
