<?xml version="1.0" encoding="UTF-8" standalone="no"?>
<svg
   xmlns:dc="http://purl.org/dc/elements/1.1/"
   xmlns:cc="http://creativecommons.org/ns#"
   xmlns:rdf="http://www.w3.org/1999/02/22-rdf-syntax-ns#"
   xmlns:svg="http://www.w3.org/2000/svg"
   xmlns="http://www.w3.org/2000/svg"
   xmlns:sodipodi="http://sodipodi.sourceforge.net/DTD/sodipodi-0.dtd"
   xmlns:inkscape="http://www.inkscape.org/namespaces/inkscape"
   version="1.1"
   width="60"
   id="toilets"
   viewBox="0 0 643.77685 643.77685"
   height="60"
   inkscape:version="0.48.1 r9760"
   sodipodi:docname="Toilet.svg">
  <metadata
     id="metadata19">
    <rdf:RDF>
      <cc:Work
         rdf:about="">
        <dc:format>image/svg+xml</dc:format>
        <dc:type
           rdf:resource="http://purl.org/dc/dcmitype/StillImage" />
        <dc:title />
      </cc:Work>
    </rdf:RDF>
  </metadata>
  <defs
     id="defs17" />
  <sodipodi:namedview
     pagecolor="#ffffff"
     bordercolor="#666666"
     borderopacity="1"
     objecttolerance="10"
     gridtolerance="10"
     guidetolerance="10"
     inkscape:pageopacity="0"
     inkscape:pageshadow="2"
     inkscape:window-width="1920"
     inkscape:window-height="1088"
     id="namedview15"
     showgrid="false"
     inkscape:zoom="15.665237"
     inkscape:cx="27.320002"
     inkscape:cy="37.996841"
     inkscape:window-x="0"
     inkscape:window-y="0"
     inkscape:window-maximized="0"
     inkscape:current-layer="toilets" />
  <rect
     style="fill:#a30075;stroke:none;stroke-width:5px;stroke-linejoin:round;stroke-opacity:1;fill-opacity:1"
     y="98.14193"
     x="322.35678"
     height="454.09259"
     width="36.787254"
     id="rect5" />
  <path
     style="fill:#a30075;stroke:none;stroke-width:0.99999994000000003;stroke-opacity:1;fill-opacity:1"
     d="m 524.22679,134.35439 c 0,21.33287 -17.2937,38.62662 -38.62661,38.62662 -21.3329,0 -38.62661,-17.29375 -38.62661,-38.62662 0,-21.33289 17.29371,-38.626609 38.62661,-38.626609 21.33291,0 38.62661,17.293719 38.62661,38.626609 l 0,0 z"
     id="path7"
     inkscape:connector-curvature="0" />
  <path
     style="fill:#a30075;stroke:none;stroke-width:0.99999994000000003;stroke-linejoin:round;stroke-opacity:1;fill-opacity:1"
     d="m 224.18081,138.378 c 0,21.33286 -17.29373,38.62661 -38.62662,38.62661 -21.33288,0 -38.6266,-17.29375 -38.6266,-38.62661 0,-21.33289 17.29372,-38.626613 38.6266,-38.626613 21.33289,0 38.62662,17.293723 38.62662,38.626613 z"
     id="path9"
     inkscape:connector-curvature="0" />
  <path
     style="fill:#a30075;fill-rule:evenodd;stroke:none;stroke-width:0.99999994000000003px;stroke-linecap:butt;stroke-linejoin:round;stroke-opacity:1;fill-opacity:1"
     d="m 176.78401,413.45716 14.63203,0 2.43868,129.24968 23.57384,0 2.43867,-130.06257 39.01877,-0.81289 -42.27034,-155.26219 11.38048,-6.50314 34.14143,112.17896 25.19962,-13.81916 -51.21213,-149.57193 -103.23717,-3.25156 -52.837923,156.07508 22.760953,8.94181 37.39299,-110.5532 10.56758,1.62579 -42.27033,158.51374 35.76721,0.81289 4.87734,132.50126 23.57384,0 4.06446,-130.06257 z"
     id="path11"
     inkscape:connector-curvature="0" />
  <path
     style="fill:#a30075;fill-opacity:1;fill-rule:evenodd;stroke:none;stroke-width:0.99999994000000003px;stroke-linecap:butt;stroke-linejoin:round;stroke-opacity:1"
     d="m 431.2189,194.78946 99.1727,-0.81289 32.51565,25.19961 5.69025,145.50752 -28.4512,-0.8129 -3.25156,-115.43051 -14.63205,-1.6258 0.40645,297.11169 -27.23186,0.81287 -5.69021,-176.80379 -13.81916,-0.81291 -3.25155,178.83603 -25.19966,-1.62576 -1.62575,-295.07944 -15.44495,0 1.62579,112.99183 -27.6383,0.81289 -2.43866,-142.25593 29.26407,-26.01251 z"
     id="path13"
     inkscape:connector-curvature="0" />
  <rect
     style="fill:none;stroke:#a30075;stroke-width:21.45922852;stroke-miterlimit:4;stroke-opacity:1;stroke-dasharray:none"
     id="rect3764"
     width="622.31763"
     height="622.31763"
     x="10.729614"
     y="10.729614"
     rx="100"
     ry="100" />
  <path
     style="fill:#ffffff;fill-opacity:0.50196078;stroke:none"
     d="M 9.2736743,57.900673 C 9.2034552,57.885754 8.9161949,57.829625 8.6353182,57.775941 7.1362387,57.489426 5.5573917,56.635592 4.4496304,55.512338 3.0985114,54.142324 2.3133226,52.494331 2.0946516,50.569596 2.0515225,50.189975 2.0296249,43.195247 2.0301023,29.950693 2.0307131,13.005166 2.0448248,9.8026861 2.1213818,9.2360365 2.6027219,5.6733102 5.2408474,2.8934652 8.826825,2.1703781 c 0.5478871,-0.1104776 1.527399,-0.115848 21.129588,-0.115848 15.998357,0 20.65521,0.017437 21.006804,0.078656 3.112267,0.5419022 5.584121,2.6397482 6.563971,5.570796 0.452358,1.3531509 0.420609,-0.3301567 0.420797,22.3105462 1.91e-4,21.725906 0.01362,20.701308 -0.286841,21.864828 -0.694134,2.687986 -2.901534,4.925687 -5.673268,5.751145 -1.096335,0.326503 -0.05551,0.31214 -22.063381,0.30446 -11.287732,-0.0039 -20.5806015,-0.01937 -20.6508207,-0.03429 l 0,0 z m 24.2256147,-27.598884 0,-21.1934237 -1.755479,0 -1.755479,0 0,21.1934237 0,21.193423 1.755479,0 1.755479,0 0,-21.193423 z m 10.616234,18.815546 c 0.02199,-0.991845 0.08572,-4.618506 0.141627,-8.059246 0.0559,-3.440739 0.11668,-6.381919 0.13506,-6.535956 l 0.03342,-0.280066 0.583284,0.04403 c 0.320807,0.02422 0.588472,0.04971 0.594813,0.05664 0.0063,0.0069 0.130379,3.702576 0.275641,8.212535 0.145261,4.50996 0.276006,8.21182 0.290542,8.226357 0.01454,0.01454 0.606005,0.0052 1.314374,-0.02071 l 1.287944,-0.04714 -0.04776,-13.853485 -0.04776,-13.853484 0.15136,0.03645 c 0.08325,0.02005 0.38835,0.05647 0.678004,0.08094 l 0.526644,0.04449 -0.0019,0.326894 c -0.0023,0.388135 0.271509,10.406991 0.284901,10.426038 0.0051,0.0072 0.622858,0.03335 1.372858,0.05808 l 1.363636,0.04497 -0.03901,-0.536851 c -0.02146,-0.295268 -0.146952,-3.359644 -0.278876,-6.809722 l -0.239862,-6.272872 -1.524387,-1.182712 -1.524387,-1.182713 -4.64236,0.04482 -4.642362,0.04482 -1.351927,1.204831 -1.351926,1.204832 -5.74e-4,0.811819 c -6.96e-4,0.996329 0.198973,12.488282 0.217318,12.507624 0.0072,0.0076 0.597693,-0.0042 1.312106,-0.02632 l 1.298934,-0.04021 -0.04198,-3.83573 c -0.02309,-2.109652 -0.06031,-4.474885 -0.08272,-5.256073 l -0.04073,-1.420343 0.701783,0 0.701783,0 0.04188,8.314589 c 0.02303,4.573023 0.06052,10.759635 0.0833,13.748026 l 0.04143,5.433438 0.99572,0.06154 c 0.547646,0.03385 1.084476,0.06642 1.192954,0.07238 l 0.197233,0.01084 0.03999,-1.803356 6e-6,0 z m -27.978117,1.30863 c 0.0012,-0.196746 0.372728,-11.822013 0.379506,-11.873423 0.0012,-0.0088 0.286307,-0.01596 0.633665,-0.01596 l 0.63156,0 0.03862,1.037328 c 0.02124,0.570531 0.06768,2.875795 0.103213,5.122808 0.03553,2.247014 0.08165,4.494825 0.102489,4.995137 l 0.03789,0.909657 1.103109,0 1.103108,0 0.03947,-1.196917 c 0.02171,-0.658305 0.06873,-3.06411 0.104505,-5.346233 0.03577,-2.282123 0.08162,-4.472482 0.10188,-4.867465 l 0.03684,-0.718151 1.062949,-0.0087 c 0.584622,-0.0048 1.396406,-0.02631 1.803965,-0.04788 l 0.741016,-0.03922 -1.928404,-7.085753 c -1.060622,-3.897165 -1.947872,-7.146861 -1.971666,-7.221548 -0.03759,-0.117975 0.02296,-0.173313 0.46135,-0.421691 l 0.504613,-0.285895 0.07128,0.230183 c 0.0392,0.126602 0.75182,2.470814 1.583594,5.209362 0.831774,2.738548 1.516824,4.986572 1.522334,4.99561 0.0199,0.03265 2.392266,-1.293068 2.392266,-1.336837 0,-0.08497 -4.731979,-13.87251 -4.775764,-13.915119 -0.0241,-0.02346 -1.968468,-0.102021 -4.320811,-0.174589 -2.352342,-0.07257 -4.516868,-0.139554 -4.810057,-0.148859 l -0.533071,-0.01692 -2.4512442,7.238823 c -1.3481838,3.981351 -2.4505116,7.270481 -2.4496172,7.309177 0.00182,0.07867 2.0858953,0.908632 2.1416417,0.852886 0.019497,-0.0195 0.8108427,-2.328534 1.7585447,-5.131193 0.947702,-2.802658 1.732726,-5.105375 1.744498,-5.117147 0.01177,-0.01177 0.220233,0.01622 0.463247,0.0622 l 0.441843,0.08361 -1.924434,7.213424 c -1.058439,3.967383 -1.943017,7.287838 -1.96573,7.378786 l -0.0413,0.165362 1.635833,0.04083 c 0.899707,0.02246 1.652465,0.05746 1.672795,0.07779 0.02033,0.02033 0.13725,2.792964 0.259822,6.161411 l 0.22286,6.124448 1.135196,0 1.135197,0 0.0014,-0.239384 -1e-6,0 z M 18.063888,16.44173 c 1.901565,-0.402299 3.143276,-2.288992 2.791556,-4.241572 C 20.66961,11.168504 19.88003,10.124217 18.94477,9.6731311 18.325874,9.3746313 17.958647,9.2907525 17.270689,9.2907525 c -1.572337,0 -2.950364,1.0061185 -3.437424,2.5097155 -0.191227,0.590334 -0.206064,1.485468 -0.03415,2.060313 0.380251,1.271484 1.346896,2.222934 2.59223,2.551485 0.426919,0.112632 1.213896,0.126496 1.672543,0.02946 l 0,0 z M 46.16732,16.032717 c 1.580003,-0.411539 2.716352,-1.879542 2.716352,-3.509146 0,-1.145945 -0.57594,-2.279324 -1.48956,-2.9312692 -0.623666,-0.4450389 -1.153301,-0.6233701 -1.957563,-0.6591238 -1.143291,-0.050825 -1.921212,0.2451836 -2.720083,1.0350274 -0.727903,0.7196766 -1.067093,1.5319336 -1.067093,2.5553656 0,1.02148 0.338378,1.832856 1.067093,2.558716 0.486339,0.484434 1.049035,0.810106 1.65225,0.956273 0.466762,0.113102 1.352996,0.110223 1.798604,-0.0058 l 0,-2e-6 z"
     id="path5027"
     inkscape:connector-curvature="0"
     transform="scale(10.729614,10.729614)" />
</svg>
