<?xml version="1.0" encoding="UTF-8" standalone="no"?>
<svg
   xmlns:dc="http://purl.org/dc/elements/1.1/"
   xmlns:cc="http://creativecommons.org/ns#"
   xmlns:rdf="http://www.w3.org/1999/02/22-rdf-syntax-ns#"
   xmlns:svg="http://www.w3.org/2000/svg"
   xmlns="http://www.w3.org/2000/svg"
   xmlns:sodipodi="http://sodipodi.sourceforge.net/DTD/sodipodi-0.dtd"
   xmlns:inkscape="http://www.inkscape.org/namespaces/inkscape"
   version="1.0"
   width="300"
   height="400"
   id="svg2"
   inkscape:version="0.48.2 r9819"
   sodipodi:docname="Top_Mooring_Buoy_Small.svg"
   style="display:inline">
  <metadata
     id="metadata2913">
    <rdf:RDF>
      <cc:Work
         rdf:about="">
        <dc:format>image/svg+xml</dc:format>
        <dc:type
           rdf:resource="http://purl.org/dc/dcmitype/StillImage" />
        <dc:title />
      </cc:Work>
    </rdf:RDF>
  </metadata>
  <sodipodi:namedview
     pagecolor="#ffffff"
     bordercolor="#666666"
     borderopacity="1"
     objecttolerance="10"
     gridtolerance="10"
     guidetolerance="10"
     inkscape:pageopacity="0"
     inkscape:pageshadow="2"
     inkscape:window-width="1920"
     inkscape:window-height="1088"
     id="namedview2911"
     showgrid="true"
     inkscape:zoom="4.2"
     inkscape:cx="140.47619"
     inkscape:cy="238.09524"
     inkscape:window-x="1440"
     inkscape:window-y="0"
     inkscape:window-maximized="0"
     inkscape:current-layer="g3399"
     inkscape:snap-grids="false">
    <inkscape:grid
       type="xygrid"
       id="grid2919"
       empspacing="5"
       visible="true"
       enabled="true"
       snapvisiblegridlinesonly="true" />
  </sodipodi:namedview>
  <defs
     id="defs4" />
  <g
     inkscape:label="Mooring Top"
     id="g3399"
     inkscape:groupmode="layer">
    <g
       id="g3401"
       inkscape:label="Top Sphere"
       style="display:inline"
       transform="matrix(0.58823529,0,0,0.58823529,53.392281,155.71309)">
      <g
         id="g3403"
         transform="translate(-11.273124,-35.911118)">
        <path
           style="fill:#000407;fill-opacity:1;fill-rule:evenodd;stroke:none"
           id="path3405"
           d="m 206,5.6875 c -9.35666,0 -17,7.643343 -17,17 0,9.356657 7.64334,17 17,17 9.35666,0 17,-7.643343 17,-17 0,-9.356657 -7.64334,-16.9999999 -17,-17 z m 0,5 c 6.65134,0 12,5.348657 12,12 0,6.651343 -5.34866,12 -12,12 -6.65134,0 -12,-5.348657 -12,-12 0,-6.651343 5.34866,-12 12,-12 z"
           sodipodi:nodetypes="csssccsssc" />
      </g>
    </g>
    <path
       sodipodi:type="arc"
       style="fill:#000000;fill-opacity:1;stroke:none"
       id="path3409"
       sodipodi:cx="76.125"
       sodipodi:cy="82.125"
       sodipodi:rx="3.375"
       sodipodi:ry="3.375"
       d="m 79.5,82.125 a 3.375,3.375 0 1 1 -6.75,0 3.375,3.375 0 1 1 6.75,0 z"
       transform="matrix(0.74074074,0,0,0.74074074,107.9694,98.534567)" />
  </g>
</svg>
