<?xml version="1.0" encoding="UTF-8" standalone="no"?>
<svg
   xmlns:dc="http://purl.org/dc/elements/1.1/"
   xmlns:cc="http://creativecommons.org/ns#"
   xmlns:rdf="http://www.w3.org/1999/02/22-rdf-syntax-ns#"
   xmlns:svg="http://www.w3.org/2000/svg"
   xmlns="http://www.w3.org/2000/svg"
   xmlns:sodipodi="http://sodipodi.sourceforge.net/DTD/sodipodi-0.dtd"
   xmlns:inkscape="http://www.inkscape.org/namespaces/inkscape"
   version="1.0"
   width="300"
   height="400"
   id="svg2"
   inkscape:version="0.48.2 r9819"
   sodipodi:docname="Top_Sphere_Red_Green_Beacon.svg"
   style="display:inline">
  <metadata
     id="metadata2913">
    <rdf:RDF>
      <cc:Work
         rdf:about="">
        <dc:format>image/svg+xml</dc:format>
        <dc:type
           rdf:resource="http://purl.org/dc/dcmitype/StillImage" />
        <dc:title />
      </cc:Work>
    </rdf:RDF>
  </metadata>
  <sodipodi:namedview
     pagecolor="#ffffff"
     bordercolor="#666666"
     borderopacity="1"
     objecttolerance="10"
     gridtolerance="10"
     guidetolerance="10"
     inkscape:pageopacity="0"
     inkscape:pageshadow="2"
     inkscape:window-width="1920"
     inkscape:window-height="1088"
     id="namedview2911"
     showgrid="true"
     inkscape:zoom="9.7984147"
     inkscape:cx="155.34924"
     inkscape:cy="307.24239"
     inkscape:window-x="0"
     inkscape:window-y="0"
     inkscape:window-maximized="1"
     inkscape:current-layer="layer11"
     inkscape:snap-grids="false">
    <inkscape:grid
       type="xygrid"
       id="grid2919"
       empspacing="5"
       visible="true"
       enabled="true"
       snapvisiblegridlinesonly="true" />
  </sodipodi:namedview>
  <defs
     id="defs4" />
  <g
     inkscape:groupmode="layer"
     id="layer11"
     inkscape:label="Top Sphere"
     style="display:inline"
     transform="translate(0,60)">
    <g
       id="g3206"
       transform="translate(-12.395556,38.176744)">
      <path
         style="fill:#000407;fill-opacity:1;fill-rule:evenodd;stroke:none"
         id="path13269"
         d="m 162.47651,-23.366875 c -9.35666,0 -17,7.643343 -17,17.0000002 0,9.356657 7.64334,16.9999998 17,16.9999998 9.35666,0 17,-7.6433428 17,-16.9999998 0,-9.3566572 -7.64334,-17.0000002 -17,-17.0000002 z m 0,5 c 6.65134,0 12,5.348657 12,12.0000002 0,6.65134297 -5.34866,12 -12,12 -6.65134,0 -12,-5.34865703 -12,-12 0,-6.6513432 5.34866,-12.0000002 12,-12.0000002 z"
         sodipodi:nodetypes="csssccsssc"
         inkscape:connector-curvature="0" />
    </g>
    <g
       style="display:inline"
       id="g2896"
       transform="translate(-10.008382,-20.012062)">
      <path
         transform="translate(-40,-40)"
         style="fill:#000407;fill-opacity:1;fill-rule:evenodd;stroke:none"
         id="path2898"
         d="m 197.875,108.625 0,17.71875 4.25,0 0,-17.71875 -4.25,0 z"
         sodipodi:nodetypes="ccccc"
         inkscape:connector-curvature="0" />
    </g>
    <rect
       style="fill:#000000;fill-opacity:1;stroke:none"
       id="rect5725"
       width="27.249306"
       height="1.0205733"
       x="135.94035"
       y="30.970417" />
    <path
       style="fill:#d40000;fill-opacity:1;stroke:none"
       d="m 138.16278,90.863583 c 0,-0.559893 0.38253,-2.247423 0.72167,-3.183608 0.76184,-2.103081 2.45818,-4.322683 4.27914,-5.599104 5.28651,-3.705634 12.58037,-2.581954 16.43365,2.531743 1.16314,1.543598 2.13387,3.89868 2.2994,5.578548 l 0.0719,0.729415 -11.90286,0 c -6.54658,0 -11.90287,-0.02565 -11.90287,-0.05699 z"
       id="path6235"
       inkscape:connector-curvature="0"
       transform="translate(0,-60)" />
    <path
       style="fill:#00d400;fill-opacity:1;stroke:none"
       d="m 148.74839,103.66874 c -2.85418,-0.30169 -5.83375,-1.87751 -7.70508,-4.075 -1.6384,-1.923977 -2.6637,-4.337879 -2.84514,-6.698453 l -0.0655,-0.85208 11.96083,0 11.96083,0 -0.0622,0.637859 c -0.32286,3.309197 -1.68471,6.01839 -4.08491,8.126334 -1.87426,1.64604 -4.03582,2.58401 -6.6005,2.86415 -1.098,0.11993 -1.40027,0.1196 -2.5583,-0.003 l 0,0 z"
       id="path6237"
       inkscape:connector-curvature="0"
       transform="translate(0,-60)" />
  </g>
</svg>
