<?xml version="1.0" encoding="UTF-8" standalone="no"?>
<svg
   xmlns:dc="http://purl.org/dc/elements/1.1/"
   xmlns:cc="http://creativecommons.org/ns#"
   xmlns:rdf="http://www.w3.org/1999/02/22-rdf-syntax-ns#"
   xmlns:svg="http://www.w3.org/2000/svg"
   xmlns="http://www.w3.org/2000/svg"
   xmlns:sodipodi="http://sodipodi.sourceforge.net/DTD/sodipodi-0.dtd"
   xmlns:inkscape="http://www.inkscape.org/namespaces/inkscape"
   version="1.0"
   width="300"
   height="400"
   id="svg2"
   inkscape:version="0.48.2 r9819"
   sodipodi:docname="Top_Cone_Yellow_Beacon.svg"
   style="display:inline">
  <metadata
     id="metadata2913">
    <rdf:RDF>
      <cc:Work
         rdf:about="">
        <dc:format>image/svg+xml</dc:format>
        <dc:type
           rdf:resource="http://purl.org/dc/dcmitype/StillImage" />
        <dc:title />
      </cc:Work>
    </rdf:RDF>
  </metadata>
  <sodipodi:namedview
     pagecolor="#ffffff"
     bordercolor="#666666"
     borderopacity="1"
     objecttolerance="10"
     gridtolerance="10"
     guidetolerance="10"
     inkscape:pageopacity="0"
     inkscape:pageshadow="2"
     inkscape:window-width="1920"
     inkscape:window-height="1088"
     id="namedview2911"
     showgrid="true"
     inkscape:zoom="11.879394"
     inkscape:cx="151.95843"
     inkscape:cy="303.82385"
     inkscape:window-x="1440"
     inkscape:window-y="0"
     inkscape:window-maximized="0"
     inkscape:current-layer="layer9"
     inkscape:snap-grids="false">
    <inkscape:grid
       type="xygrid"
       id="grid2919"
       empspacing="5"
       visible="true"
       enabled="true"
       snapvisiblegridlinesonly="true" />
  </sodipodi:namedview>
  <defs
     id="defs4" />
  <g
     inkscape:groupmode="layer"
     id="layer9"
     inkscape:label="Top Cone"
     style="display:inline"
     transform="translate(0,60)">
    <path
       style="fill:#000407;fill-opacity:1;fill-rule:evenodd;stroke:none"
       id="path4179"
       d="m 150.08836,15.229831 -18.16912,36.9639 36.2188,-0.004 -18.0057,-36.96035 -0.044,4.5e-4 z m -0.0247,10.4431 11.11743,21.535039 -22.19017,-0.06882 11.07274,-21.466222 z"
       sodipodi:nodetypes="ccccccccc" />
    <g
       style="display:inline"
       id="g2884"
       transform="matrix(1,0,0,0.80521456,-10.008382,-3.1935566)">
      <path
         transform="translate(-40,-40)"
         style="fill:#000407;fill-opacity:1;fill-rule:evenodd;stroke:none"
         id="path2886"
         d="m 197.875,108.625 0,17.71875 4.25,0 0,-17.71875 -4.25,0 z"
         sodipodi:nodetypes="ccccc" />
    </g>
    <path
       style="fill:#ffd400;fill-opacity:1;stroke:#000000;stroke-width:0.08417938000000000;stroke-miterlimit:4;stroke-opacity:1;stroke-dasharray:none"
       d="m 149.23522,107.14051 c -5.56741,-0.012 -10.12257,-0.0457 -10.12257,-0.0751 0,-0.0726 10.77664,-20.962218 10.89293,-21.115027 0.0727,-0.09553 1.26292,2.147549 5.56414,10.486084 3.00941,5.834183 5.48429,10.643503 5.49972,10.687373 0.0168,0.0477 -0.32115,0.0714 -0.84179,0.0591 -0.47842,-0.0114 -5.42501,-0.0305 -10.99243,-0.0424 z"
       id="path13013"
       transform="translate(0,-60)" />
  </g>
</svg>
