<?xml version="1.0" encoding="UTF-8" standalone="no"?>
<svg
   xmlns:dc="http://purl.org/dc/elements/1.1/"
   xmlns:cc="http://creativecommons.org/ns#"
   xmlns:rdf="http://www.w3.org/1999/02/22-rdf-syntax-ns#"
   xmlns:svg="http://www.w3.org/2000/svg"
   xmlns="http://www.w3.org/2000/svg"
   xmlns:sodipodi="http://sodipodi.sourceforge.net/DTD/sodipodi-0.dtd"
   xmlns:inkscape="http://www.inkscape.org/namespaces/inkscape"
   version="1.0"
   width="300"
   height="400"
   id="svg2"
   inkscape:version="0.48.2 r9819"
   sodipodi:docname="Top_Sphere_Red_Buoy.svg"
   inkscape:label="Pillar"
   style="display:inline">
  <metadata
     id="metadata2822">
    <rdf:RDF>
      <cc:Work
         rdf:about="">
        <dc:format>image/svg+xml</dc:format>
        <dc:type
           rdf:resource="http://purl.org/dc/dcmitype/StillImage" />
        <dc:title />
      </cc:Work>
    </rdf:RDF>
  </metadata>
  <sodipodi:namedview
     pagecolor="#000000"
     bordercolor="#666666"
     borderopacity="1"
     objecttolerance="10"
     gridtolerance="10"
     guidetolerance="10"
     inkscape:pageopacity="0"
     inkscape:pageshadow="2"
     inkscape:window-width="1920"
     inkscape:window-height="1088"
     id="namedview2820"
     showgrid="true"
     inkscape:zoom="7.9999999"
     inkscape:cx="200.69129"
     inkscape:cy="337.07387"
     inkscape:window-x="1440"
     inkscape:window-y="0"
     inkscape:window-maximized="0"
     inkscape:current-layer="layer5"
     inkscape:snap-grids="false">
    <inkscape:grid
       type="xygrid"
       id="grid3180"
       empspacing="5"
       visible="true"
       enabled="true"
       snapvisiblegridlinesonly="true" />
  </sodipodi:namedview>
  <defs
     id="defs4" />
  <g
     inkscape:groupmode="layer"
     id="layer5"
     inkscape:label="Top Sphere"
     style="display:inline"
     transform="translate(0,80)">
    <g
       id="g3094"
       transform="translate(-11.273124,-35.911118)">
      <path
         style="fill:#000407;fill-opacity:1;fill-rule:evenodd;stroke:none"
         id="path13269-3"
         d="m 206,5.6875 c -9.35666,0 -17,7.643343 -17,17 0,9.356657 7.64334,17 17,17 9.35666,0 17,-7.643343 17,-17 0,-9.356657 -7.64334,-16.9999999 -17,-17 z m 0,5 c 6.65134,0 12,5.348657 12,12 0,6.651343 -5.34866,12 -12,12 -6.65134,0 -12,-5.348657 -12,-12 0,-6.651343 5.34866,-12 12,-12 z"
         sodipodi:nodetypes="csssccsssc" />
    </g>
    <path
       sodipodi:nodetypes="ccccc"
       d="m 187.12755,1.9713871 -5.59375,16.7187499 4.03125,1.3125 5.59375,-16.6874999 -4.03125,-1.34375 z"
       id="path3474"
       style="fill:#000407;fill-opacity:1;fill-rule:evenodd;stroke:none;display:inline" />
    <path
       style="fill:#d40000;stroke:#000000;stroke-width:0.12500000000000000;stroke-miterlimit:4;stroke-opacity:1;stroke-dasharray:none;fill-opacity:1"
       d="m 192.72015,78.555702 c -3.70243,-0.672151 -6.97209,-3.110886 -8.63699,-6.442072 -1.25745,-2.51594 -1.59968,-5.637954 -0.90893,-8.291729 2.06208,-7.922185 11.33755,-11.490543 18.11584,-6.969327 2.40097,1.601475 4.07912,3.884128 4.89874,6.663326 0.39383,1.335426 0.53832,3.713388 0.31313,5.153572 -0.72236,4.619796 -4.14839,8.371304 -8.82315,9.661342 -0.9838,0.271486 -3.95876,0.40641 -4.95864,0.224888 l 0,0 z"
       id="path17979"
       transform="translate(0,-80)" />
  </g>
</svg>
