<?xml version="1.0" encoding="UTF-8" standalone="no"?>
<svg
   xmlns:dc="http://purl.org/dc/elements/1.1/"
   xmlns:cc="http://creativecommons.org/ns#"
   xmlns:rdf="http://www.w3.org/1999/02/22-rdf-syntax-ns#"
   xmlns:svg="http://www.w3.org/2000/svg"
   xmlns="http://www.w3.org/2000/svg"
   xmlns:sodipodi="http://sodipodi.sourceforge.net/DTD/sodipodi-0.dtd"
   xmlns:inkscape="http://www.inkscape.org/namespaces/inkscape"
   version="1.0"
   width="300"
   height="400"
   id="svg2"
   inkscape:version="0.48.2 r9819"
   sodipodi:docname="Top_X_Red_Buoy_Small.svg"
   style="display:inline">
  <metadata
     id="metadata2913">
    <rdf:RDF>
      <cc:Work
         rdf:about="">
        <dc:format>image/svg+xml</dc:format>
        <dc:type
           rdf:resource="http://purl.org/dc/dcmitype/StillImage" />
        <dc:title />
      </cc:Work>
    </rdf:RDF>
  </metadata>
  <sodipodi:namedview
     pagecolor="#ffffff"
     bordercolor="#666666"
     borderopacity="1"
     objecttolerance="10"
     gridtolerance="10"
     guidetolerance="10"
     inkscape:pageopacity="0"
     inkscape:pageshadow="2"
     inkscape:window-width="1920"
     inkscape:window-height="1088"
     id="namedview2911"
     showgrid="true"
     inkscape:zoom="16"
     inkscape:cx="155.70924"
     inkscape:cy="266.00529"
     inkscape:window-x="1440"
     inkscape:window-y="0"
     inkscape:window-maximized="0"
     inkscape:current-layer="layer3"
     inkscape:snap-grids="false">
    <inkscape:grid
       type="xygrid"
       id="grid2919"
       empspacing="5"
       visible="true"
       enabled="true"
       snapvisiblegridlinesonly="true" />
  </sodipodi:namedview>
  <defs
     id="defs4" />
  <g
     inkscape:groupmode="layer"
     id="layer3"
     inkscape:label="Sphere X Top"
     style="display:inline"
     transform="translate(0,60)">
    <g
       id="g3683">
      <g
         transform="translate(-11.2549,-10.495508)"
         id="g2984">
        <path
           sodipodi:nodetypes="ccccc"
           d="m 179.34375,93.031245 -6.375,18.562505 c 0.005,0.001 4.12677,1.28438 4.09375,1.25 l 6.3125,-18.468755 -4.03125,-1.34375 z"
           id="path4420"
           style="fill:#000407;fill-opacity:1;fill-rule:evenodd;stroke:none" />
      </g>
      <g
         id="g2990"
         transform="translate(-16.977061,6.35999)"
         style="fill:none;stroke:#000000;stroke-opacity:1;display:inline">
        <path
           sodipodi:nodetypes="ccccccccccccc"
           style="fill:none;stroke:#000000;stroke-opacity:1"
           id="path2992"
           d="m 166.75,81.299997 17.9375,-8.9375 -8.9375,-17.937503 4.475,-2.25 9.275,18.062503 17.95,-8.962503 2.2375,4.500003 -18.275,8.8375 8.9375,17.937498 -4.15,2.35 -9.275,-18.062498 -17.9375,8.95 -2.2375,-4.4875 z" />
      </g>
    </g>
    <path
       style="fill:#d40000;fill-opacity:1;stroke:#000000;stroke-width:0.06250000000000000;stroke-miterlimit:4;stroke-opacity:1;stroke-dasharray:none"
       d="m 179.25893,160.16659 c -0.0907,-0.18047 -1.83815,-3.58691 -3.88323,-7.56986 l -3.71832,-7.24174 0.25499,-0.74502 0.25498,-0.74502 -0.13843,-0.0518 c -0.0761,-0.0285 -0.42369,-0.14489 -0.77234,-0.25871 l -0.63392,-0.20695 -0.20628,-0.42641 c -0.11346,-0.23452 -0.22195,-0.42504 -0.24109,-0.42337 -0.0191,0.002 -0.21624,0.0963 -0.43801,0.21037 l -0.40321,0.20735 -0.6233,-0.20991 c -0.34281,-0.11545 -0.6331,-0.2001 -0.64508,-0.18812 -0.012,0.012 -0.11358,0.29558 -0.22577,0.63023 l -0.20399,0.60844 -7.69064,3.82822 -7.69064,3.82822 -0.87863,-1.75854 -0.87863,-1.75855 8.96218,-4.46064 c 4.92919,-2.45335 8.96217,-4.46546 8.96217,-4.47134 0,-0.006 -2.00833,-4.04423 -4.46295,-8.9741 l -4.46295,-8.96342 1.75982,-0.88394 c 0.96791,-0.48618 1.76295,-0.87993 1.76677,-0.875 0.004,0.005 2.02545,3.94644 4.49252,8.75894 2.46707,4.8125 4.55316,8.8691 4.63575,9.01465 l 0.15016,0.26465 7.45107,-3.72648 c 4.09808,-2.04956 8.13382,-4.0584 8.9683,-4.4641 l 1.51725,-0.73763 0.877,1.75313 c 0.48235,0.96422 0.86834,1.75937 0.85775,1.76698 -0.0106,0.008 -4.11143,1.99077 -9.11299,4.40699 -5.00156,2.41623 -9.10509,4.40344 -9.11896,4.41602 -0.0139,0.0126 1.98882,4.05935 4.4504,8.99281 4.4306,8.8797 4.47423,8.97079 4.33771,9.05668 -0.25086,0.15781 -3.04427,1.72506 -3.07471,1.72506 -0.0164,0 -0.10404,-0.14766 -0.19475,-0.32813 z"
       id="path28713"
       transform="translate(0,-60)" />
  </g>
</svg>
