<?xml version="1.0" encoding="UTF-8" standalone="no"?>
<svg
   xmlns:dc="http://purl.org/dc/elements/1.1/"
   xmlns:cc="http://creativecommons.org/ns#"
   xmlns:rdf="http://www.w3.org/1999/02/22-rdf-syntax-ns#"
   xmlns:svg="http://www.w3.org/2000/svg"
   xmlns="http://www.w3.org/2000/svg"
   xmlns:sodipodi="http://sodipodi.sourceforge.net/DTD/sodipodi-0.dtd"
   xmlns:inkscape="http://www.inkscape.org/namespaces/inkscape"
   version="1.0"
   width="300"
   height="400"
   id="svg2"
   inkscape:version="0.48.2 r9819"
   sodipodi:docname="Top_Sphere_Red_Green_Float.svg"
   style="display:inline">
  <metadata
     id="metadata2913">
    <rdf:RDF>
      <cc:Work
         rdf:about="">
        <dc:format>image/svg+xml</dc:format>
        <dc:type
           rdf:resource="http://purl.org/dc/dcmitype/StillImage" />
        <dc:title />
      </cc:Work>
    </rdf:RDF>
  </metadata>
  <sodipodi:namedview
     pagecolor="#ffffff"
     bordercolor="#666666"
     borderopacity="1"
     objecttolerance="10"
     gridtolerance="10"
     guidetolerance="10"
     inkscape:pageopacity="0"
     inkscape:pageshadow="2"
     inkscape:window-width="1920"
     inkscape:window-height="1088"
     id="namedview2911"
     showgrid="true"
     inkscape:zoom="8.0389205"
     inkscape:cx="110.14347"
     inkscape:cy="256.1583"
     inkscape:window-x="1"
     inkscape:window-y="0"
     inkscape:window-maximized="0"
     inkscape:current-layer="layer11"
     inkscape:snap-grids="false">
    <inkscape:grid
       type="xygrid"
       id="grid2919"
       empspacing="5"
       visible="true"
       enabled="true"
       snapvisiblegridlinesonly="true" />
  </sodipodi:namedview>
  <defs
     id="defs4" />
  <g
     inkscape:groupmode="layer"
     id="layer11"
     inkscape:label="Top Sphere"
     style="display:inline"
     transform="translate(0,60)">
    <g
       id="g3058">
      <path
         style="fill:#000407;fill-opacity:1;fill-rule:evenodd;stroke:none"
         id="path13269"
         d="m 149.90385,48.284795 c -9.35666,0 -17,7.643343 -17,17 0,9.356657 7.64334,17 17,17 9.35666,0 17,-7.643343 17,-17 0,-9.356657 -7.64334,-17 -17,-17 z m 0,5 c 6.65134,0 12,5.348657 12,12 0,6.651343 -5.34866,12 -12,12 -6.65134,0 -12,-5.348657 -12,-12 0,-6.651343 5.34866,-12 12,-12 z"
         sodipodi:nodetypes="csssccsssc"
         inkscape:connector-curvature="0" />
      <path
         style="fill:#000407;fill-opacity:1;fill-rule:evenodd;stroke:none"
         id="path2908"
         d="m 147.8428,82.059202 0,13.276749 4.25,0 0,-13.276749 -4.25,0 z"
         sodipodi:nodetypes="ccccc"
         inkscape:connector-curvature="0" />
      <path
         sodipodi:nodetypes="cc"
         inkscape:connector-curvature="0"
         id="path3054"
         d="m 135,65 30,0"
         style="fill:none;stroke:#000000;stroke-width:1px;stroke-linecap:butt;stroke-linejoin:miter;stroke-opacity:1" />
    </g>
    <path
       style="fill:#d40000;fill-opacity:1;stroke:none"
       d="m 138.07687,123.72084 c 0.24023,-1.97815 1.22728,-4.24373 2.58831,-5.94096 1.62099,-2.02142 3.75722,-3.36679 6.54794,-4.12382 1.26364,-0.34278 4.20719,-0.31272 5.59777,0.0572 1.46477,0.38962 3.59673,1.47562 4.70168,2.39499 2.23959,1.86346 3.89346,4.85049 4.20364,7.59219 l 0.0832,0.73571 -11.90472,0 -11.90473,0 0.0869,-0.71527 z"
       id="path3840"
       inkscape:connector-curvature="0"
       transform="translate(0,-60)" />
    <path
       style="fill:#00d400;fill-opacity:1;stroke:none"
       d="m 148.40693,137.11448 c -1.81223,-0.24808 -3.81408,-1.00647 -5.25881,-1.99226 -1.37286,-0.93676 -2.86766,-2.59848 -3.70061,-4.11385 -0.78225,-1.42313 -1.4396,-3.69074 -1.4396,-4.96607 l 0,-0.48664 11.89818,0 11.89818,0 -0.0726,1.02626 c -0.0825,1.16514 -0.53846,2.73301 -1.16323,3.99967 -1.53996,3.12212 -4.52804,5.49796 -7.90998,6.28927 -1.26195,0.29528 -3.10334,0.40079 -4.25149,0.24362 l 0,0 z"
       id="path3842"
       inkscape:connector-curvature="0"
       transform="translate(0,-60)" />
  </g>
</svg>
