<?xml version="1.0" encoding="UTF-8" standalone="no"?>
<svg
   xmlns:dc="http://purl.org/dc/elements/1.1/"
   xmlns:cc="http://creativecommons.org/ns#"
   xmlns:rdf="http://www.w3.org/1999/02/22-rdf-syntax-ns#"
   xmlns:svg="http://www.w3.org/2000/svg"
   xmlns="http://www.w3.org/2000/svg"
   xmlns:sodipodi="http://sodipodi.sourceforge.net/DTD/sodipodi-0.dtd"
   xmlns:inkscape="http://www.inkscape.org/namespaces/inkscape"
   version="1.0"
   width="300"
   height="400"
   id="svg2"
   inkscape:version="0.48.2 r9819"
   sodipodi:docname="Top_Sphere_Red_Green_Buoy_Small.svg"
   style="display:inline">
  <metadata
     id="metadata2913">
    <rdf:RDF>
      <cc:Work
         rdf:about="">
        <dc:format>image/svg+xml</dc:format>
        <dc:type
           rdf:resource="http://purl.org/dc/dcmitype/StillImage" />
        <dc:title />
      </cc:Work>
    </rdf:RDF>
  </metadata>
  <sodipodi:namedview
     pagecolor="#ffffff"
     bordercolor="#666666"
     borderopacity="1"
     objecttolerance="10"
     gridtolerance="10"
     guidetolerance="10"
     inkscape:pageopacity="0"
     inkscape:pageshadow="2"
     inkscape:window-width="1920"
     inkscape:window-height="1088"
     id="namedview2911"
     showgrid="true"
     inkscape:zoom="11.879394"
     inkscape:cx="159.09125"
     inkscape:cy="264.4873"
     inkscape:window-x="0"
     inkscape:window-y="0"
     inkscape:window-maximized="1"
     inkscape:current-layer="layer4"
     inkscape:snap-grids="false">
    <inkscape:grid
       type="xygrid"
       id="grid2919"
       empspacing="5"
       visible="true"
       enabled="true"
       snapvisiblegridlinesonly="true" />
  </sodipodi:namedview>
  <defs
     id="defs4" />
  <g
     inkscape:groupmode="layer"
     id="layer4"
     inkscape:label="Sphere Top"
     style="display:inline">
    <g
       transform="translate(-19.789374,142.36049)"
       style="display:inline"
       inkscape:label="Top Sphere"
       id="layer5">
      <g
         transform="translate(-11.273124,-35.911118)"
         id="g3094">
        <path
           sodipodi:nodetypes="csssccsssc"
           d="m 206,5.6875 c -9.35666,0 -17,7.643343 -17,17 0,9.356657 7.64334,17 17,17 9.35666,0 17,-7.643343 17,-17 0,-9.356657 -7.64334,-16.9999999 -17,-17 z m 0,5 c 6.65134,0 12,5.348657 12,12 0,6.651343 -5.34866,12 -12,12 -6.65134,0 -12,-5.348657 -12,-12 0,-6.651343 5.34866,-12 12,-12 z"
           id="path13269-3"
           style="fill:#000407;fill-opacity:1;fill-rule:evenodd;stroke:none"
           inkscape:connector-curvature="0" />
      </g>
      <path
         style="fill:#000407;fill-opacity:1;fill-rule:evenodd;stroke:none;display:inline"
         id="path3474"
         d="m 187.12755,1.9713871 -5.59375,16.7187499 4.03125,1.3125 5.59375,-16.6874999 -4.03125,-1.34375 z"
         sodipodi:nodetypes="ccccc"
         inkscape:connector-curvature="0" />
    </g>
    <rect
       style="fill:#000000;fill-opacity:1;stroke:none"
       id="rect3217"
       width="25.927248"
       height="0.92597318"
       x="193.76921"
       y="66.378326"
       transform="matrix(0.94832365,0.31730466,-0.31730466,0.94832365,0,0)" />
    <path
       style="fill:#d40000;fill-opacity:1;stroke:none"
       d="m 175.14426,128.55539 c -6.15772,-2.06193 -11.2243,-3.77581 -11.25907,-3.80864 -0.15273,-0.14418 0.90271,-2.02787 1.71171,-3.05494 3.14583,-3.99384 8.63853,-5.52784 13.47417,-3.76305 4.66537,1.70265 7.82471,6.239 7.81467,11.22074 -0.002,1.13141 -0.31615,3.17312 -0.48573,3.15962 -0.0329,-0.003 -5.09803,-1.6918 -11.25575,-3.75373 z"
       id="path3987"
       inkscape:connector-curvature="0" />
    <path
       style="fill:#00d400;fill-opacity:1;stroke:none"
       d="m 173.08186,140.94971 c -2.58009,-0.4562 -4.79391,-1.58504 -6.55676,-3.34335 -2.16151,-2.15594 -3.35305,-4.85597 -3.51249,-7.95928 -0.0691,-1.34389 0.26032,-3.79822 0.51895,-3.86711 0.0441,-0.0117 5.1372,1.67258 11.31807,3.74293 10.11796,3.38912 11.23531,3.7808 11.21143,3.93002 -0.0146,0.0912 -0.19206,0.50667 -0.39439,0.92336 -1.61452,3.32498 -4.62711,5.65682 -8.37584,6.48316 -0.85379,0.18821 -3.35203,0.24178 -4.20897,0.0903 z"
       id="path3989"
       inkscape:connector-curvature="0" />
  </g>
</svg>
