<?xml version="1.0" encoding="UTF-8" standalone="no"?>
<svg
   xmlns:dc="http://purl.org/dc/elements/1.1/"
   xmlns:cc="http://creativecommons.org/ns#"
   xmlns:rdf="http://www.w3.org/1999/02/22-rdf-syntax-ns#"
   xmlns:svg="http://www.w3.org/2000/svg"
   xmlns="http://www.w3.org/2000/svg"
   xmlns:sodipodi="http://sodipodi.sourceforge.net/DTD/sodipodi-0.dtd"
   xmlns:inkscape="http://www.inkscape.org/namespaces/inkscape"
   version="1.0"
   width="300"
   height="400"
   id="svg2"
   inkscape:version="0.48.2 r9819"
   sodipodi:docname="Top_Sphere_Red_Green_Buoy.svg"
   inkscape:label="Pillar"
   style="display:inline">
  <metadata
     id="metadata2822">
    <rdf:RDF>
      <cc:Work
         rdf:about="">
        <dc:format>image/svg+xml</dc:format>
        <dc:type
           rdf:resource="http://purl.org/dc/dcmitype/StillImage" />
        <dc:title />
      </cc:Work>
    </rdf:RDF>
  </metadata>
  <sodipodi:namedview
     pagecolor="#000000"
     bordercolor="#666666"
     borderopacity="1"
     objecttolerance="10"
     gridtolerance="10"
     guidetolerance="10"
     inkscape:pageopacity="0"
     inkscape:pageshadow="2"
     inkscape:window-width="1920"
     inkscape:window-height="1088"
     id="namedview2820"
     showgrid="true"
     inkscape:zoom="11.313708"
     inkscape:cx="191.09359"
     inkscape:cy="319.19462"
     inkscape:window-x="0"
     inkscape:window-y="0"
     inkscape:window-maximized="0"
     inkscape:current-layer="layer5"
     inkscape:snap-grids="false">
    <inkscape:grid
       type="xygrid"
       id="grid3180"
       empspacing="5"
       visible="true"
       enabled="true"
       snapvisiblegridlinesonly="true" />
  </sodipodi:namedview>
  <defs
     id="defs4" />
  <g
     inkscape:groupmode="layer"
     id="layer5"
     inkscape:label="Top Sphere"
     style="display:inline"
     transform="translate(0,80)">
    <g
       id="g3094"
       transform="translate(-11.273124,-35.911118)">
      <path
         style="fill:#000407;fill-opacity:1;fill-rule:evenodd;stroke:none"
         id="path13269-3"
         d="m 206,5.6875 c -9.35666,0 -17,7.643343 -17,17 0,9.356657 7.64334,17 17,17 9.35666,0 17,-7.643343 17,-17 0,-9.356657 -7.64334,-16.9999999 -17,-17 z m 0,5 c 6.65134,0 12,5.348657 12,12 0,6.651343 -5.34866,12 -12,12 -6.65134,0 -12,-5.348657 -12,-12 0,-6.651343 5.34866,-12 12,-12 z"
         sodipodi:nodetypes="csssccsssc"
         inkscape:connector-curvature="0" />
    </g>
    <path
       sodipodi:nodetypes="ccccc"
       d="m 187.12755,1.9713871 -5.59375,16.7187499 4.03125,1.3125 5.59375,-16.6874999 -4.03125,-1.34375 z"
       id="path3474"
       style="fill:#000407;fill-opacity:1;fill-rule:evenodd;stroke:none;display:inline"
       inkscape:connector-curvature="0" />
    <rect
       style="fill:#000000;fill-opacity:1;stroke:none"
       id="rect4736"
       width="26.162951"
       height="0.97227186"
       x="167.14154"
       y="-75.245216"
       transform="matrix(0.94832365,0.31730466,-0.31730466,0.94832365,0,0)" />
    <path
       style="fill:#d40000;fill-opacity:1;stroke:none"
       d="m 195.00036,65.855623 c -6.10101,-2.042601 -11.12746,-3.747457 -11.16989,-3.78857 -0.0434,-0.04207 0.10348,-0.414295 0.33597,-0.851323 1.83996,-3.45877 5.1161,-5.745956 8.97776,-6.267684 2.21523,-0.299288 4.34836,0.0059 6.42355,0.919146 4.89718,2.155046 7.80643,7.467732 6.96223,12.713981 -0.14942,0.928561 -0.17378,1.001539 -0.33161,0.993579 -0.0579,-0.0029 -5.09701,-1.676528 -11.19801,-3.719129 z"
       id="path5248"
       inkscape:connector-curvature="0"
       transform="translate(0,-80)" />
    <path
       style="fill:#00d400;fill-opacity:1;stroke:none"
       d="m 193.79507,78.674789 c -1.67748,-0.122623 -3.49311,-0.675763 -4.94515,-1.506563 -4.74952,-2.71749 -7.04356,-8.169877 -5.66252,-13.458462 0.0734,-0.280955 0.15458,-0.532008 0.18047,-0.557896 0.0259,-0.02589 5.13698,1.65397 11.35798,3.733019 l 11.31091,3.78009 -0.17804,0.451911 c -0.97351,2.47092 -2.80307,4.609768 -5.12144,5.987219 -1.33359,0.792347 -3.39801,1.44765 -4.85304,1.540485 -0.41321,0.02636 -0.85074,0.05868 -0.97227,0.07181 -0.12153,0.01313 -0.62414,-0.0056 -1.1169,-0.04161 l 0,0 z"
       id="path5250"
       inkscape:connector-curvature="0"
       transform="translate(0,-80)" />
  </g>
</svg>
