<?xml version="1.0" encoding="UTF-8" standalone="no"?>
<svg
   xmlns:dc="http://purl.org/dc/elements/1.1/"
   xmlns:cc="http://creativecommons.org/ns#"
   xmlns:rdf="http://www.w3.org/1999/02/22-rdf-syntax-ns#"
   xmlns:svg="http://www.w3.org/2000/svg"
   xmlns="http://www.w3.org/2000/svg"
   xmlns:sodipodi="http://sodipodi.sourceforge.net/DTD/sodipodi-0.dtd"
   xmlns:inkscape="http://www.inkscape.org/namespaces/inkscape"
   version="1.0"
   width="300"
   height="400"
   id="svg2"
   inkscape:version="0.48.2 r9819"
   sodipodi:docname="Top_Sphere_Red_Float.svg"
   style="display:inline">
  <metadata
     id="metadata2913">
    <rdf:RDF>
      <cc:Work
         rdf:about="">
        <dc:format>image/svg+xml</dc:format>
        <dc:type
           rdf:resource="http://purl.org/dc/dcmitype/StillImage" />
        <dc:title />
      </cc:Work>
    </rdf:RDF>
  </metadata>
  <sodipodi:namedview
     pagecolor="#ffffff"
     bordercolor="#666666"
     borderopacity="1"
     objecttolerance="10"
     gridtolerance="10"
     guidetolerance="10"
     inkscape:pageopacity="0"
     inkscape:pageshadow="2"
     inkscape:window-width="1920"
     inkscape:window-height="1088"
     id="namedview2911"
     showgrid="true"
     inkscape:zoom="8.0389205"
     inkscape:cx="132.16135"
     inkscape:cy="256.1583"
     inkscape:window-x="1440"
     inkscape:window-y="0"
     inkscape:window-maximized="0"
     inkscape:current-layer="layer11"
     inkscape:snap-grids="false">
    <inkscape:grid
       type="xygrid"
       id="grid2919"
       empspacing="5"
       visible="true"
       enabled="true"
       snapvisiblegridlinesonly="true" />
  </sodipodi:namedview>
  <defs
     id="defs4" />
  <g
     inkscape:groupmode="layer"
     id="layer11"
     inkscape:label="Top Sphere"
     style="display:inline"
     transform="translate(0,60)">
    <g
       id="g3206"
       transform="translate(-12.572659,71.65167)">
      <path
         style="fill:#000407;fill-opacity:1;fill-rule:evenodd;stroke:none"
         id="path13269"
         d="m 162.47651,-23.366875 c -9.35666,0 -17,7.643343 -17,17.0000002 0,9.356657 7.64334,16.9999998 17,16.9999998 9.35666,0 17,-7.6433428 17,-16.9999998 0,-9.3566572 -7.64334,-17.0000002 -17,-17.0000002 z m 0,5 c 6.65134,0 12,5.348657 12,12.0000002 0,6.65134297 -5.34866,12 -12,12 -6.65134,0 -12,-5.34865703 -12,-12 0,-6.6513432 5.34866,-12.0000002 12,-12.0000002 z"
         sodipodi:nodetypes="csssccsssc" />
    </g>
    <g
       style="display:inline"
       id="g2906"
       transform="matrix(1,0,0,0.74930505,-10.032202,30.638143)">
      <path
         transform="translate(-40,-40)"
         style="fill:#000407;fill-opacity:1;fill-rule:evenodd;stroke:none"
         id="path2908"
         d="m 197.875,108.625 0,17.71875 4.25,0 0,-17.71875 -4.25,0 z"
         sodipodi:nodetypes="ccccc" />
    </g>
    <path
       style="fill:#d40000;fill-opacity:1;stroke:#000000;stroke-width:0.12439481;stroke-miterlimit:4;stroke-opacity:1;stroke-dasharray:none"
       d="m 148.49112,137.12752 c -4.78582,-0.60381 -8.82018,-4.05927 -10.05561,-8.61269 -1.17978,-4.34836 0.10444,-8.94931 3.33198,-11.93744 2.1507,-1.99117 4.71024,-3.05014 7.6723,-3.17428 5.70119,-0.23895 10.54969,3.41989 12.06529,9.10488 0.31589,1.18492 0.38117,3.52541 0.13469,4.8298 -0.80101,4.23913 -3.52966,7.53267 -7.54413,9.10592 -1.54834,0.6068 -3.92071,0.89625 -5.60452,0.68381 l 0,0 z"
       id="path24726"
       transform="translate(0,-60)" />
  </g>
</svg>
