<?xml version="1.0" encoding="UTF-8" standalone="no"?>
<svg
   xmlns:dc="http://purl.org/dc/elements/1.1/"
   xmlns:cc="http://creativecommons.org/ns#"
   xmlns:rdf="http://www.w3.org/1999/02/22-rdf-syntax-ns#"
   xmlns:svg="http://www.w3.org/2000/svg"
   xmlns="http://www.w3.org/2000/svg"
   xmlns:sodipodi="http://sodipodi.sourceforge.net/DTD/sodipodi-0.dtd"
   xmlns:inkscape="http://www.inkscape.org/namespaces/inkscape"
   version="1.0"
   width="300"
   height="400"
   id="svg2"
   inkscape:version="0.48.2 r9819"
   sodipodi:docname="Top_Sphere_Beacon.svg"
   style="display:inline">
  <metadata
     id="metadata2913">
    <rdf:RDF>
      <cc:Work
         rdf:about="">
        <dc:format>image/svg+xml</dc:format>
        <dc:type
           rdf:resource="http://purl.org/dc/dcmitype/StillImage" />
        <dc:title />
      </cc:Work>
    </rdf:RDF>
  </metadata>
  <sodipodi:namedview
     pagecolor="#ffffff"
     bordercolor="#666666"
     borderopacity="1"
     objecttolerance="10"
     gridtolerance="10"
     guidetolerance="10"
     inkscape:pageopacity="0"
     inkscape:pageshadow="2"
     inkscape:window-width="1920"
     inkscape:window-height="1088"
     id="namedview2911"
     showgrid="true"
     inkscape:zoom="1.4849242"
     inkscape:cx="-56.74456"
     inkscape:cy="179.01642"
     inkscape:window-x="1440"
     inkscape:window-y="0"
     inkscape:window-maximized="0"
     inkscape:current-layer="layer11"
     inkscape:snap-grids="false">
    <inkscape:grid
       type="xygrid"
       id="grid2919"
       empspacing="5"
       visible="true"
       enabled="true"
       snapvisiblegridlinesonly="true" />
  </sodipodi:namedview>
  <defs
     id="defs4" />
  <g
     inkscape:groupmode="layer"
     id="layer11"
     inkscape:label="Top Sphere"
     style="display:inline"
     transform="translate(0,60)">
    <g
       id="g3206"
       transform="translate(-12.395556,38.176744)">
      <path
         style="fill:#000407;fill-opacity:1;fill-rule:evenodd;stroke:none"
         id="path13269"
         d="m 162.47651,-23.366875 c -9.35666,0 -17,7.643343 -17,17.0000002 0,9.356657 7.64334,16.9999998 17,16.9999998 9.35666,0 17,-7.6433428 17,-16.9999998 0,-9.3566572 -7.64334,-17.0000002 -17,-17.0000002 z m 0,5 c 6.65134,0 12,5.348657 12,12.0000002 0,6.65134297 -5.34866,12 -12,12 -6.65134,0 -12,-5.34865703 -12,-12 0,-6.6513432 5.34866,-12.0000002 12,-12.0000002 z"
         sodipodi:nodetypes="csssccsssc" />
    </g>
    <g
       style="display:inline"
       id="g2896"
       transform="translate(-10.008382,-20.012062)">
      <path
         transform="translate(-40,-40)"
         style="fill:#000407;fill-opacity:1;fill-rule:evenodd;stroke:none"
         id="path2898"
         d="m 197.875,108.625 0,17.71875 4.25,0 0,-17.71875 -4.25,0 z"
         sodipodi:nodetypes="ccccc" />
    </g>
    <path
       style="fill:none;stroke:#000000;stroke-width:0.67343503;stroke-miterlimit:4;stroke-opacity:1;stroke-dasharray:none"
       d="m 145.21861,102.34656 c -6.3689,-3.522513 -8.53197,-11.074936 -4.791,-16.727931 4.38377,-6.624318 13.10663,-7.155288 18.40537,-1.120357 6.52408,7.430517 1.06054,18.677828 -9.04185,18.613698 -1.77411,-0.0113 -3.83174,-0.3557 -4.57252,-0.76541 z"
       id="path9135"
       transform="translate(0,-60)" />
  </g>
</svg>
