<?xml version="1.0" encoding="UTF-8" standalone="no"?>
<svg
   xmlns:dc="http://purl.org/dc/elements/1.1/"
   xmlns:cc="http://creativecommons.org/ns#"
   xmlns:rdf="http://www.w3.org/1999/02/22-rdf-syntax-ns#"
   xmlns:svg="http://www.w3.org/2000/svg"
   xmlns="http://www.w3.org/2000/svg"
   xmlns:sodipodi="http://sodipodi.sourceforge.net/DTD/sodipodi-0.dtd"
   xmlns:inkscape="http://www.inkscape.org/namespaces/inkscape"
   version="1.0"
   width="300"
   height="400"
   id="svg2"
   inkscape:version="0.48.2 r9819"
   sodipodi:docname="Top_Cone_Red_Buoy_Small.svg"
   style="display:inline">
  <metadata
     id="metadata2913">
    <rdf:RDF>
      <cc:Work
         rdf:about="">
        <dc:format>image/svg+xml</dc:format>
        <dc:type
           rdf:resource="http://purl.org/dc/dcmitype/StillImage" />
        <dc:title />
      </cc:Work>
    </rdf:RDF>
  </metadata>
  <sodipodi:namedview
     pagecolor="#ffffff"
     bordercolor="#666666"
     borderopacity="1"
     objecttolerance="10"
     gridtolerance="10"
     guidetolerance="10"
     inkscape:pageopacity="0"
     inkscape:pageshadow="2"
     inkscape:window-width="1920"
     inkscape:window-height="1088"
     id="namedview2911"
     showgrid="true"
     inkscape:zoom="16"
     inkscape:cx="148.14674"
     inkscape:cy="266.00529"
     inkscape:window-x="1440"
     inkscape:window-y="0"
     inkscape:window-maximized="0"
     inkscape:current-layer="layer7"
     inkscape:snap-grids="false">
    <inkscape:grid
       type="xygrid"
       id="grid2919"
       empspacing="5"
       visible="true"
       enabled="true"
       snapvisiblegridlinesonly="true" />
  </sodipodi:namedview>
  <defs
     id="defs4" />
  <g
     inkscape:groupmode="layer"
     id="layer7"
     inkscape:label="Cone Top"
     style="display:inline"
     transform="translate(0,60)">
    <g
       id="g28027">
      <g
         id="g3693">
        <path
           d="m 168.05773,83.111144 -6.15625,18.343746 c 0.0275,-0.0328 4.14585,0.89991 4.1875,0.90625 l 6,-17.874996 -4.03125,-1.375 z m -13.33029,-4.26778 26.125,-25.637503 4.7875,35.962507 -30.9125,-10.325004 m 8.15625,-1.98125 c 5.80208,1.94792 11.60417,3.89583 17.40625,5.84375 -0.9375,-6.73958 -1.875,-13.47917 -2.8125,-20.21875 -4.86458,4.79167 -9.72917,9.58333 -14.59375,14.375 z"
           style="fill:#000407;fill-opacity:1;fill-rule:evenodd;stroke:none;display:inline"
           id="path3888" />
      </g>
    </g>
    <path
       style="fill:#d40000;fill-opacity:1;stroke:#000000;stroke-width:0.0625;stroke-miterlimit:4;stroke-opacity:1;stroke-dasharray:none"
       d="m 171.55173,139.73965 c -4.68944,-1.5787 -8.53617,-2.88028 -8.54828,-2.8924 -0.0121,-0.0121 2.60126,-2.60583 5.80751,-5.76381 3.20624,-3.15799 6.46324,-6.36739 7.23778,-7.13202 l 1.40825,-1.39022 1.36497,9.82613 c 0.75074,5.40437 1.3793,9.91754 1.3968,10.02926 0.0231,0.14772 0.008,0.2018 -0.0545,0.19828 -0.0475,-0.003 -3.92312,-1.29651 -8.61256,-2.87522 z"
       id="path28031"
       transform="translate(0,-60)" />
  </g>
</svg>
