<?xml version="1.0" encoding="UTF-8" standalone="no"?>
<svg
   xmlns:dc="http://purl.org/dc/elements/1.1/"
   xmlns:cc="http://creativecommons.org/ns#"
   xmlns:rdf="http://www.w3.org/1999/02/22-rdf-syntax-ns#"
   xmlns:svg="http://www.w3.org/2000/svg"
   xmlns="http://www.w3.org/2000/svg"
   xmlns:sodipodi="http://sodipodi.sourceforge.net/DTD/sodipodi-0.dtd"
   xmlns:inkscape="http://www.inkscape.org/namespaces/inkscape"
   version="1.0"
   width="300"
   height="400"
   id="svg2"
   inkscape:version="0.48.2 r9819"
   sodipodi:docname="Top_Isol_Beacon.svg"
   style="display:inline">
  <metadata
     id="metadata2913">
    <rdf:RDF>
      <cc:Work
         rdf:about="">
        <dc:format>image/svg+xml</dc:format>
        <dc:type
           rdf:resource="http://purl.org/dc/dcmitype/StillImage" />
        <dc:title />
      </cc:Work>
    </rdf:RDF>
  </metadata>
  <sodipodi:namedview
     pagecolor="#ffffff"
     bordercolor="#666666"
     borderopacity="1"
     objecttolerance="10"
     gridtolerance="10"
     guidetolerance="10"
     inkscape:pageopacity="0"
     inkscape:pageshadow="2"
     inkscape:window-width="1920"
     inkscape:window-height="1088"
     id="namedview2911"
     showgrid="true"
     inkscape:zoom="6.9285257"
     inkscape:cx="132.421"
     inkscape:cy="271.20687"
     inkscape:window-x="1440"
     inkscape:window-y="0"
     inkscape:window-maximized="0"
     inkscape:current-layer="layer12"
     inkscape:snap-grids="false">
    <inkscape:grid
       type="xygrid"
       id="grid2919"
       empspacing="5"
       visible="true"
       enabled="true"
       snapvisiblegridlinesonly="true" />
  </sodipodi:namedview>
  <defs
     id="defs4" />
  <g
     inkscape:groupmode="layer"
     id="layer12"
     inkscape:label="Top 2 Spheres"
     style="display:inline"
     transform="translate(0,60)">
    <path
       style="fill:#000407;fill-opacity:1;fill-rule:evenodd;stroke:none"
       id="path27763"
       d="m 164.54567,1.3137288 c 0,8.0039996 -6.47999,14.4560202 -14.48399,14.4560202 -8.004,0 -14.45381,-6.5270996 -14.45381,-14.5310992 0,-8.0040001 6.39203,-14.4999998 14.39603,-14.4999998 8.004,0 14.54177,6.5710787 14.54177,14.5750788 z m 0.0184,28.9249172 c 0,8.004 -6.496,14.500004 -14.5,14.500004 -8.004,0 -14.5,-6.496004 -14.5,-14.500004 0,-8.004 6.496,-14.5 14.5,-14.5 8.004,0 14.5,6.496 14.5,14.5 z"
       sodipodi:nodetypes="csssccsssc" />
    <g
       style="display:inline"
       transform="matrix(1,0,0,1.2422941,-10.008382,-40.932642)"
       id="g2902">
      <path
         sodipodi:nodetypes="ccccc"
         d="m 197.875,108.625 0,17.71875 4.25,0 0,-17.71875 -4.25,0 z"
         id="path2904"
         style="fill:#000407;fill-opacity:1;fill-rule:evenodd;stroke:none"
         transform="translate(-40,-40)" />
    </g>
  </g>
</svg>
