<?xml version="1.0" encoding="UTF-8" standalone="no"?>
<svg
   xmlns:dc="http://purl.org/dc/elements/1.1/"
   xmlns:cc="http://creativecommons.org/ns#"
   xmlns:rdf="http://www.w3.org/1999/02/22-rdf-syntax-ns#"
   xmlns:svg="http://www.w3.org/2000/svg"
   xmlns="http://www.w3.org/2000/svg"
   xmlns:sodipodi="http://sodipodi.sourceforge.net/DTD/sodipodi-0.dtd"
   xmlns:inkscape="http://www.inkscape.org/namespaces/inkscape"
   version="1.0"
   width="300"
   height="400"
   id="svg2"
   inkscape:version="0.48.2 r9819"
   sodipodi:docname="Tower_Yellow.svg"
   style="display:inline">
  <metadata
     id="metadata2913">
    <rdf:RDF>
      <cc:Work
         rdf:about="">
        <dc:format>image/svg+xml</dc:format>
        <dc:type
           rdf:resource="http://purl.org/dc/dcmitype/StillImage" />
        <dc:title />
      </cc:Work>
    </rdf:RDF>
  </metadata>
  <sodipodi:namedview
     pagecolor="#ffffff"
     bordercolor="#666666"
     borderopacity="1"
     objecttolerance="10"
     gridtolerance="10"
     guidetolerance="10"
     inkscape:pageopacity="0"
     inkscape:pageshadow="2"
     inkscape:window-width="1920"
     inkscape:window-height="1088"
     id="namedview2911"
     showgrid="true"
     inkscape:zoom="1.4849242"
     inkscape:cx="-12.971282"
     inkscape:cy="179.01642"
     inkscape:window-x="0"
     inkscape:window-y="0"
     inkscape:window-maximized="0"
     inkscape:current-layer="layer2"
     inkscape:snap-grids="false">
    <inkscape:grid
       type="xygrid"
       id="grid2919"
       empspacing="5"
       visible="true"
       enabled="true"
       snapvisiblegridlinesonly="true" />
  </sodipodi:namedview>
  <defs
     id="defs4" />
  <g
     inkscape:groupmode="layer"
     id="layer2"
     inkscape:label="Tower"
     style="display:inline"
     transform="translate(0,80)">
    <path
       style="fill:#000407;fill-opacity:1;fill-rule:evenodd;stroke:none"
       id="path2558"
       d="m 126.59592,46.312349 -4.625,70.875001 -8.15625,0 0,5.65625 24,0 c 1.28732,5.53295 6.23327,9.65624 12.15625,9.65625 5.92495,0 10.87095,-4.12052 12.15625,-9.65625 l 24,0 0,-5.65625 -8.15625,0 -4.96875,-70.875001 -46.40625,0 z m 6.71875,7.09375 33.3125,0 4.59375,63.781251 -9.09375,0 c -1.2853,-5.53573 -6.2313,-9.65625 -12.15625,-9.65625 -5.92298,1e-5 -10.86893,4.1233 -12.15625,9.65625 l -9.09375,0 4.59375,-63.781251 z m 16.65625,59.093751 c 4.14,0 7.5,3.36 7.5,7.5 0,4.14 -3.36,7.5 -7.5,7.5 -4.14,0 -7.5,-3.36 -7.5,-7.5 0,-4.14 3.36,-7.5 7.5,-7.5 z" />
    <path
       style="fill:#ffd400;fill-opacity:1;stroke:#a30075;stroke-width:0;stroke-miterlimit:4;stroke-opacity:1;stroke-dasharray:none"
       d="m 129.31057,192.86767 c 0.21374,-2.12974 1.13238,-14.47886 2.04141,-27.44248 0.90903,-12.96363 1.83398,-25.46426 2.05544,-27.7792 l 0.40265,-4.20897 16.09601,0 16.09601,0 0.31213,1.51523 c 0.25415,1.23379 4.48066,59.57378 4.43969,61.28259 -0.007,0.27779 -1.98191,0.50508 -4.38944,0.50508 -3.22577,0 -4.37733,-0.23916 -4.37733,-0.90911 0,-0.50001 -0.87825,-2.1215 -1.95166,-3.60331 -3.0677,-4.23483 -9.61203,-6.10862 -14.67201,-4.20093 -2.46396,0.92894 -5.96881,4.33255 -6.98317,6.78146 -0.76363,1.84356 -0.99816,1.93189 -5.12929,1.93189 l -4.32906,0 0.38862,-3.87225 z"
       id="path3088"
       inkscape:connector-curvature="0"
       transform="translate(0,-80)" />
    <path
       style="fill:#ffd400;fill-opacity:1;stroke:#a30075;stroke-width:0;stroke-miterlimit:4;stroke-opacity:1;stroke-dasharray:none"
       d="m 129.31057,192.86767 c 0.21374,-2.12974 1.13238,-14.47886 2.04141,-27.44248 0.90903,-12.96363 1.83398,-25.46426 2.05544,-27.7792 l 0.40265,-4.20897 16.09601,0 16.09601,0 0.31213,1.51523 c 0.25415,1.23379 4.48066,59.57378 4.43969,61.28259 -0.007,0.27779 -1.98191,0.50508 -4.38944,0.50508 -3.22577,0 -4.37733,-0.23916 -4.37733,-0.90911 0,-0.50001 -0.87825,-2.1215 -1.95166,-3.60331 -3.0677,-4.23483 -9.61203,-6.10862 -14.67201,-4.20093 -2.46396,0.92894 -5.96881,4.33255 -6.98317,6.78146 -0.76363,1.84356 -0.99816,1.93189 -5.12929,1.93189 l -4.32906,0 0.38862,-3.87225 z"
       id="path3090"
       inkscape:connector-curvature="0"
       transform="translate(0,-80)" />
  </g>
</svg>
