<?xml version="1.0" encoding="UTF-8" standalone="no"?>
<svg
   xmlns:dc="http://purl.org/dc/elements/1.1/"
   xmlns:cc="http://creativecommons.org/ns#"
   xmlns:rdf="http://www.w3.org/1999/02/22-rdf-syntax-ns#"
   xmlns:svg="http://www.w3.org/2000/svg"
   xmlns="http://www.w3.org/2000/svg"
   xmlns:sodipodi="http://sodipodi.sourceforge.net/DTD/sodipodi-0.dtd"
   xmlns:inkscape="http://www.inkscape.org/namespaces/inkscape"
   version="1.0"
   width="300"
   height="400"
   id="svg2"
   inkscape:version="0.48.2 r9819"
   sodipodi:docname="Tower_Green_White_Green_White.svg"
   style="display:inline">
  <metadata
     id="metadata2913">
    <rdf:RDF>
      <cc:Work
         rdf:about="">
        <dc:format>image/svg+xml</dc:format>
        <dc:type
           rdf:resource="http://purl.org/dc/dcmitype/StillImage" />
        <dc:title />
      </cc:Work>
    </rdf:RDF>
  </metadata>
  <sodipodi:namedview
     pagecolor="#ffffff"
     bordercolor="#666666"
     borderopacity="1"
     objecttolerance="10"
     gridtolerance="10"
     guidetolerance="10"
     inkscape:pageopacity="0"
     inkscape:pageshadow="2"
     inkscape:window-width="1920"
     inkscape:window-height="1088"
     id="namedview2911"
     showgrid="true"
     inkscape:zoom="6.9285255"
     inkscape:cx="147.96888"
     inkscape:cy="235.62826"
     inkscape:window-x="0"
     inkscape:window-y="0"
     inkscape:window-maximized="1"
     inkscape:current-layer="g2845"
     inkscape:snap-grids="false">
    <inkscape:grid
       type="xygrid"
       id="grid2919"
       empspacing="5"
       visible="true"
       enabled="true"
       snapvisiblegridlinesonly="true" />
  </sodipodi:namedview>
  <defs
     id="defs4" />
  <g
     style="display:inline"
     inkscape:label="Tower 4 Band"
     id="g2845"
     inkscape:groupmode="layer"
     transform="translate(0,80)">
    <path
       d="m 126.59592,46.312349 -4.625,70.875001 -8.15625,0 0,5.65625 24,0 c 1.28732,5.53295 6.23327,9.65624 12.15625,9.65625 5.92495,0 10.87095,-4.12052 12.15625,-9.65625 l 24,0 0,-5.65625 -8.15625,0 -4.96875,-70.875001 -46.40625,0 z m 6.71875,7.09375 33.3125,0 4.59375,63.781251 -9.09375,0 c -1.2853,-5.53573 -6.2313,-9.65625 -12.15625,-9.65625 -5.92298,1e-5 -10.86893,4.1233 -12.15625,9.65625 l -9.09375,0 4.59375,-63.781251 z m 16.65625,59.093751 c 4.14,0 7.5,3.36 7.5,7.5 0,4.14 -3.36,7.5 -7.5,7.5 -4.14,0 -7.5,-3.36 -7.5,-7.5 0,-4.14 3.36,-7.5 7.5,-7.5 z"
       id="path2847"
       style="fill:#000407;fill-opacity:1;fill-rule:evenodd;stroke:none"
       inkscape:connector-curvature="0" />
    <rect
       style="fill:#000000;fill-opacity:1;stroke:none"
       id="rect2849"
       width="38.562607"
       height="1.1434854"
       x="130.94182"
       y="81.34436" />
    <rect
       style="fill:#000000;fill-opacity:1;stroke:none"
       id="rect2851"
       width="40.463966"
       height="1.2314459"
       x="129.82993"
       y="96.002678" />
    <rect
       y="66.694771"
       x="131.59129"
       height="1.1434854"
       width="37.119297"
       id="rect3265"
       style="fill:#000000;fill-opacity:1;stroke:none" />
    <path
       style="fill:#00d400;stroke:#a30075;stroke-width:0;stroke-miterlimit:4;stroke-opacity:1;stroke-dasharray:none;fill-opacity:1"
       d="m 132.46943,146.0778 c 0.0335,-0.29768 0.22084,-2.84692 0.41642,-5.66498 0.19558,-2.81806 0.39452,-5.52968 0.44209,-6.02581 l 0.0865,-0.90207 16.58656,0 c 13.35443,0 16.58656,0.0359 16.58656,0.18419 0,0.1013 0.19485,2.87617 0.43299,6.16636 0.23815,3.2902 0.43299,6.16249 0.43299,6.38287 l 0,0.40069 -17.52246,0 -17.52247,0 0.0608,-0.54125 z"
       id="path4017"
       inkscape:connector-curvature="0"
       transform="translate(0,-80)" />
    <path
       style="fill:#00d400;fill-opacity:1;stroke:#a30075;stroke-width:0;stroke-miterlimit:4;stroke-opacity:1;stroke-dasharray:none"
       d="m 130.40285,174.87181 c 0.0466,-0.57552 0.26367,-3.59564 0.48242,-6.71139 l 0.39774,-5.66498 18.65605,0 18.65605,0 0.0728,0.46907 c 0.0401,0.258 0.24006,2.90466 0.44445,5.88149 0.2044,2.97682 0.41028,5.78586 0.45751,6.24231 l 0.0859,0.8299 -19.66882,0 -19.66881,0 0.0847,-1.0464 z"
       id="path4019"
       inkscape:connector-curvature="0"
       transform="translate(0,-80)" />
    <path
       style="fill:#ffffff;fill-opacity:1;stroke:#a30075;stroke-width:0;stroke-miterlimit:4;stroke-opacity:1;stroke-dasharray:none"
       d="m 131.42103,160.51089 c 0.0481,-0.45645 0.25371,-3.26549 0.45688,-6.24231 0.20316,-2.97682 0.40244,-5.62349 0.44285,-5.88148 l 0.0735,-0.46908 17.58717,0 17.58718,0 0.089,0.97424 c 0.049,0.53582 0.24857,3.24744 0.44358,6.02581 0.195,2.77837 0.38579,5.36009 0.42398,5.73715 l 0.0694,0.68557 -18.63052,0 -18.63052,0 0.0875,-0.8299 z"
       id="path4021"
       inkscape:connector-curvature="0"
       transform="translate(0,-80)" />
    <path
       style="fill:#ffffff;fill-opacity:1;stroke:#a30075;stroke-width:0;stroke-miterlimit:4;stroke-opacity:1;stroke-dasharray:none"
       d="m 128.84331,196.30701 c 0.0639,-0.62386 1.37287,-18.64183 1.37287,-18.89778 0,-0.0262 8.898,-0.0477 19.77333,-0.0477 l 19.77333,0 0.008,0.54124 c 0.005,0.29768 0.31521,4.74668 0.69041,9.88666 l 0.68217,9.34542 -4.48788,0 -4.48788,0 -0.18449,-0.71981 c -0.22348,-0.87197 -1.1636,-2.84879 -1.70339,-3.58174 -1.83437,-2.49084 -4.2729,-4.1897 -7.11694,-4.9582 -1.74235,-0.47081 -4.76338,-0.47492 -6.39047,-0.009 -4.12971,1.18332 -7.27891,4.10134 -8.62633,7.99308 l -0.41659,1.20321 -4.4858,0.0382 -4.4858,0.0382 0.0852,-0.83197 z"
       id="path4023"
       inkscape:connector-curvature="0"
       transform="translate(0,-80)" />
  </g>
</svg>
