<?xml version="1.0" encoding="UTF-8" standalone="no"?>
<svg
   xmlns:dc="http://purl.org/dc/elements/1.1/"
   xmlns:cc="http://creativecommons.org/ns#"
   xmlns:rdf="http://www.w3.org/1999/02/22-rdf-syntax-ns#"
   xmlns:svg="http://www.w3.org/2000/svg"
   xmlns="http://www.w3.org/2000/svg"
   xmlns:sodipodi="http://sodipodi.sourceforge.net/DTD/sodipodi-0.dtd"
   xmlns:inkscape="http://www.inkscape.org/namespaces/inkscape"
   version="1.0"
   width="300"
   height="400"
   id="svg2"
   inkscape:version="0.48.2 r9819"
   sodipodi:docname="Tower_Black_Yellow_Black.svg"
   style="display:inline">
  <metadata
     id="metadata2913">
    <rdf:RDF>
      <cc:Work
         rdf:about="">
        <dc:format>image/svg+xml</dc:format>
        <dc:type
           rdf:resource="http://purl.org/dc/dcmitype/StillImage" />
        <dc:title />
      </cc:Work>
    </rdf:RDF>
  </metadata>
  <sodipodi:namedview
     pagecolor="#ffffff"
     bordercolor="#666666"
     borderopacity="1"
     objecttolerance="10"
     gridtolerance="10"
     guidetolerance="10"
     inkscape:pageopacity="0"
     inkscape:pageshadow="2"
     inkscape:window-width="1920"
     inkscape:window-height="1088"
     id="namedview2911"
     showgrid="true"
     inkscape:zoom="2.0097301"
     inkscape:cx="131.72461"
     inkscape:cy="197.31849"
     inkscape:window-x="1440"
     inkscape:window-y="0"
     inkscape:window-maximized="0"
     inkscape:current-layer="g2845"
     inkscape:snap-grids="false">
    <inkscape:grid
       type="xygrid"
       id="grid2919"
       empspacing="5"
       visible="true"
       enabled="true"
       snapvisiblegridlinesonly="true" />
  </sodipodi:namedview>
  <defs
     id="defs4" />
  <g
     style="display:inline"
     inkscape:label="Tower 3 Band"
     id="g2845"
     inkscape:groupmode="layer"
     transform="translate(0,80)">
    <path
       d="m 126.63165,46.273288 -4.625,70.874992 -8.15625,0 0,5.65625 24,0 c 1.28732,5.53295 6.23327,9.65624 12.15625,9.65625 5.92495,0 10.87095,-4.12052 12.15625,-9.65625 l 24,0 0,-5.65625 -8.15625,0 -4.96875,-70.874992 -46.40625,0 z m 6.71875,7.09375 33.3125,0 4.59375,63.781242 -9.09375,0 c -1.2853,-5.53573 -6.2313,-9.65625 -12.15625,-9.65625 -5.92298,1e-5 -10.86893,4.1233 -12.15625,9.65625 l -9.09375,0 4.59375,-63.781242 z m 16.65625,59.093742 c 4.14,0 7.5,3.36 7.5,7.5 0,4.14 -3.36,7.5 -7.5,7.5 -4.14,0 -7.5,-3.36 -7.5,-7.5 0,-4.14 3.36,-7.5 7.5,-7.5 z"
       id="path2847"
       style="fill:#000407;fill-opacity:1;fill-rule:evenodd;stroke:none" />
    <rect
       style="fill:#000000;fill-opacity:1;stroke:none"
       id="rect2849"
       width="37.119297"
       height="1.1434854"
       x="131.2662"
       y="71.851631" />
    <rect
       style="fill:#000000;fill-opacity:1;stroke:none"
       id="rect2851"
       width="39.670147"
       height="1.2314459"
       x="130.29865"
       y="91.994537" />
    <path
       style="fill:#ffd400;fill-opacity:1;stroke:none"
       d="m 131.32212,82.918894 c 0.36025,-4.91039 0.65951,-9.14569 0.66501,-9.41177 l 0.01,-0.48378 18.03189,0 18.03189,0 8e-5,0.48378 c 5e-5,0.26608 0.27709,4.32326 0.61564,9.01594 0.33855,4.69269 0.61559,8.71028 0.61564,8.92799 l 8e-5,0.39582 -19.31262,0 -19.31261,0 0.655,-8.92798 z"
       id="path5522" />
    <path
       style="fill:#000000;fill-opacity:1;stroke:none"
       d="m 132.17306,71.295764 c 0,-0.27287 0.27707,-4.27927 0.61572,-8.90312 0.33865,-4.62384 0.61572,-8.51713 0.61572,-8.65175 0,-0.20735 2.54154,-0.24476 16.62452,-0.24476 l 16.62452,0 9e-5,0.48378 c 4e-5,0.26608 0.27708,4.32325 0.61563,9.01594 0.33856,4.69269 0.61559,8.59153 0.61564,8.6641 5e-5,0.0726 -8.0351,0.13194 -17.85588,0.13194 l -17.85596,0 0,-0.49613 z"
       id="path5524" />
    <path
       style="fill:#000000;fill-opacity:1;stroke:none"
       d="m 128.90794,116.07996 c 0.0565,-0.50797 0.41819,-5.43595 0.80378,-10.95107 0.38559,-5.515116 0.74659,-10.443096 0.80222,-10.951066 l 0.10115,-0.92359 19.42659,0 19.42659,0 0.009,0.39583 c 0.005,0.2177 0.3842,5.5626 0.84311,11.877546 l 0.83438,11.48173 -4.47413,-0.0469 -4.47413,-0.0469 -0.21085,-0.70369 c -0.51133,-1.70644 -2.06693,-4.16966 -3.46062,-5.47971 -3.18337,-2.99232 -8.36159,-4.07186 -12.62025,-2.63106 -3.61653,1.22356 -6.64989,4.30851 -7.85288,7.98643 l -0.29961,0.91599 -4.47839,0 -4.47839,0 0.1027,-0.92359 z"
       id="path5526" />
  </g>
</svg>
