<?xml version="1.0" encoding="UTF-8" standalone="no"?>
<svg
   xmlns:dc="http://purl.org/dc/elements/1.1/"
   xmlns:cc="http://creativecommons.org/ns#"
   xmlns:rdf="http://www.w3.org/1999/02/22-rdf-syntax-ns#"
   xmlns:svg="http://www.w3.org/2000/svg"
   xmlns="http://www.w3.org/2000/svg"
   xmlns:sodipodi="http://sodipodi.sourceforge.net/DTD/sodipodi-0.dtd"
   xmlns:inkscape="http://www.inkscape.org/namespaces/inkscape"
   version="1.0"
   width="300"
   height="400"
   id="svg2"
   inkscape:version="0.48.2 r9819"
   sodipodi:docname="Tower_Black_Yellow.svg"
   style="display:inline">
  <metadata
     id="metadata2913">
    <rdf:RDF>
      <cc:Work
         rdf:about="">
        <dc:format>image/svg+xml</dc:format>
        <dc:type
           rdf:resource="http://purl.org/dc/dcmitype/StillImage" />
        <dc:title />
      </cc:Work>
    </rdf:RDF>
  </metadata>
  <sodipodi:namedview
     pagecolor="#ffffff"
     bordercolor="#666666"
     borderopacity="1"
     objecttolerance="10"
     gridtolerance="10"
     guidetolerance="10"
     inkscape:pageopacity="0"
     inkscape:pageshadow="2"
     inkscape:window-width="1920"
     inkscape:window-height="1088"
     id="namedview2911"
     showgrid="true"
     inkscape:zoom="2.0097301"
     inkscape:cx="136.39857"
     inkscape:cy="196.28797"
     inkscape:window-x="1440"
     inkscape:window-y="0"
     inkscape:window-maximized="0"
     inkscape:current-layer="g2839"
     inkscape:snap-grids="false">
    <inkscape:grid
       type="xygrid"
       id="grid2919"
       empspacing="5"
       visible="true"
       enabled="true"
       snapvisiblegridlinesonly="true" />
  </sodipodi:namedview>
  <defs
     id="defs4" />
  <g
     style="display:inline"
     inkscape:label="Tower 2 Band"
     id="g2839"
     inkscape:groupmode="layer"
     transform="translate(0,80)">
    <path
       d="m 126.65909,46.279381 -4.625,70.874999 -8.15625,0 0,5.65625 24,0 c 1.28732,5.53295 6.23327,9.65624 12.15625,9.65625 5.92495,0 10.87095,-4.12052 12.15625,-9.65625 l 24,0 0,-5.65625 -8.15625,0 -4.96875,-70.874999 -46.40625,0 z m 6.71875,7.09375 33.3125,0 4.59375,63.781249 -9.09375,0 c -1.2853,-5.53573 -6.2313,-9.65625 -12.15625,-9.65625 -5.92298,1e-5 -10.86893,4.1233 -12.15625,9.65625 l -9.09375,0 4.59375,-63.781249 z m 16.65625,59.093749 c 4.14,0 7.5,3.36 7.5,7.5 0,4.14 -3.36,7.5 -7.5,7.5 -4.14,0 -7.5,-3.36 -7.5,-7.5 0,-4.14 3.36,-7.5 7.5,-7.5 z"
       id="path2841"
       style="fill:#000407;fill-opacity:1;fill-rule:evenodd;stroke:none" />
    <rect
       style="fill:#000000;fill-opacity:1;stroke:none"
       id="rect2843"
       width="38.438702"
       height="1.1434854"
       x="130.85385"
       y="81.885178" />
    <path
       style="fill:#000000;fill-opacity:1;stroke:none"
       d="m 131.49681,81.242167 c 0,-0.32082 0.4352,-6.5946 0.96712,-13.94173 0.53191,-7.34712 0.96732,-13.45737 0.96756,-13.57831 3.6e-4,-0.17437 3.44288,-0.2199 16.62497,-0.2199 l 16.62452,0 0,0.49452 c 0,0.27198 0.43493,6.50618 0.96651,13.85376 0.53158,7.34759 0.96698,13.49779 0.96756,13.66711 0.001,0.29126 -0.99961,0.30786 -18.55859,0.30786 l -18.55965,0 0,-0.58331 z"
       id="path5378" />
    <path
       style="fill:#ffd400;fill-opacity:1;stroke:none"
       d="m 128.94469,115.9981 c 0.0793,-0.76992 2.3762,-32.545843 2.3762,-32.872713 0,-0.0376 8.43101,-0.0685 18.73557,-0.0685 l 18.73557,0 0.007,0.57174 c 0.004,0.31446 0.54184,7.95512 1.19532,16.979263 l 1.18814,16.40751 -4.4745,-0.0469 -4.47451,-0.0469 -0.21085,-0.70369 c -0.51132,-1.70644 -2.06692,-4.16966 -3.46062,-5.47971 -3.18337,-2.99232 -8.36158,-4.07186 -12.62025,-2.63106 -3.61653,1.22356 -6.64989,4.30851 -7.85287,7.98643 l -0.29961,0.91599 -4.47446,0 -4.47447,0 0.10416,-1.01155 0,0 z"
       id="path5380" />
  </g>
</svg>
