<svg
   xmlns:svg="http://www.w3.org/2000/svg"
   xmlns="http://www.w3.org/2000/svg"
   version="1.2"
   width="300"
   height="400">
  <g transform="matrix(0.1493,0,0,-0.1493,77.685,209.41)">
		<path
   		d="m 484.36035,263.96519 c -110.97053,0 -200.93771,-89.96819 -200.93771,-200.93771 0,-110.973141 89.96718,-200.93771 200.93771,-200.93771 110.97053,0 200.9377,89.968186 200.9377,200.93771 0,110.97314 -89.96717,200.93771 -200.9377,200.93771 z m -109.88781,-91.67783 25.53583,-0.20931 25.74515,-0.20931 30.55927,-89.58473 C 473.13677,33.086757 487.15506,-7.0914077 487.5,-7.0914077 c 0.34454,0 0.93938,0.8631614 1.25586,1.883791 0.31648,1.0206966 13.75338,41.3063627 29.72204,89.5847277 l 28.88479,87.910249 24.9079,0 c 13.65526,0 24.71534,-0.32177 24.6986,-0.62793 -0.0174,-0.30623 -19.13409,-54.41279 -42.69927,-120.144006 L 511.36135,-68.00065 486.03483,-68.209961 c -23.61273,-0.181982 -25.47355,0.03604 -25.95446,1.255861 -0.28801,0.716678 -19.28071,53.746282 -42.28064,118.050904 -23.00663,64.304616 -42.2639,117.965576 -42.69926,119.097456 l -0.62793,2.0931 z"
   		style="fill:#a30075;stroke:none" />
  </g>
</svg>
