<?xml version="1.0" encoding="UTF-8" standalone="no"?>
<!-- Created with Inkscape (http://www.inkscape.org/) -->
<svg id="svg2" xmlns:rdf="http://www.w3.org/1999/02/22-rdf-syntax-ns#" xmlns="http://www.w3.org/2000/svg" height="400" width="300" version="1.1" xmlns:cc="http://creativecommons.org/ns#" xmlns:dc="http://purl.org/dc/elements/1.1/">
 <metadata id="metadata7">
  <rdf:RDF>
   <cc:Work rdf:about="">
    <dc:format>image/svg+xml</dc:format>
    <dc:type rdf:resource="http://purl.org/dc/dcmitype/StillImage"/>
    <dc:title/>
   </cc:Work>
  </rdf:RDF>
 </metadata>
 <g id="layer12">
  <g id="content-5" fill-rule="even-odd" xml:space="preserve" transform="matrix(.14930 0 0 -.14930 77.685 209.41)" stroke="#000" stroke-miterlimit="10.433">
<path id="path3007" d="m53.311 33.465c0 10.1-9.8747 18.287-22.056 18.287s-22.056-8.1876-22.056-18.287c0-10.1 9.8747-18.287 22.056-18.287s22.056 8.1876 22.056 18.287z" stroke-opacity="0" transform="matrix(5.2877 0 0 -5.2877 255.33 290.46)" stroke-miterlimit="4" fill="none"/><path id="path3783" d="m-17.733 35.626c0 9.0899-8.262 16.459-18.454 16.459s-18.454-7.3688-18.454-16.459c0-9.0899 8.262-16.459 18.454-16.459s18.454 7.3688 18.454 16.459z" transform="matrix(10.888 0 0 -12.208 876.72 498.03)" fill="#a30075"/><text id="text3779" style="word-spacing:0px;letter-spacing:0px" font-family="Arial" font-weight="bold" transform="scale(1 -.99999)" stroke="#a30075" xml:space="preserve" line-height="125%" font-size="338.41px" y="68.705429" x="371.66125" fill="#ffffff"><tspan id="tspan3781" y="68.705429" x="371.66125">V</tspan></text>
<flowRoot id="flowRoot3785" style="word-spacing:0px;letter-spacing:0px" xml:space="preserve" font-size="4px" line-height="125%" font-family="DejaVu Sans" fill="#000000"><flowRegion id="flowRegion3787"><rect id="rect3789" y="31.359" x="51.648" width="3.6575" height="9.0883"/></flowRegion><flowPara id="flowPara3791"/></flowRoot><path id="path5368" d="m26.383 49.426c-0.043-0.107-2.887-8.05-6.321-17.651-3.435-9.601-6.297-17.594-6.362-17.763l-0.11733-0.30622 3.8343 0.02914 3.8343 0.02914 4.5671 13.355c2.5119 7.3454 4.6092 13.355 4.6607 13.355 0.05144 0 0.13219-0.12469 0.17944-0.27708 0.04725-0.1524 2.0367-6.1748 4.4209-13.383l4.335-13.106h3.7069c2.0388 0 3.7047 0.03741 3.7022 0.08312-0.0026 0.04572-2.8834 8.113-6.4018 17.927l-6.3971 17.844-3.7824 0.02915c-3.5255 0.02717-3.7877 0.01588-3.8595-0.16625z" fill-opacity=".50196" transform="matrix(6.6977 0 0 -6.6977 281.77 264.02)" fill="#fff"/></g>
 </g>
</svg>
