<?xml version="1.0" encoding="UTF-8" standalone="no"?>
<!-- Created with Inkscape (http://www.inkscape.org/) -->
<svg id="svg2" xmlns:rdf="http://www.w3.org/1999/02/22-rdf-syntax-ns#" xmlns="http://www.w3.org/2000/svg" height="400" width="300" version="1.1" xmlns:cc="http://creativecommons.org/ns#" xmlns:dc="http://purl.org/dc/elements/1.1/">
 <metadata id="metadata7">
  <rdf:RDF>
   <cc:Work rdf:about="">
    <dc:format>image/svg+xml</dc:format>
    <dc:type rdf:resource="http://purl.org/dc/dcmitype/StillImage"/>
    <dc:title/>
   </cc:Work>
  </rdf:RDF>
 </metadata>
 <g id="layer13">
  <g id="content-2" fill-rule="even-odd" xml:space="preserve" transform="matrix(.14930 0 0 -.14930 78.023 208.17)" stroke="#000" stroke-miterlimit="10.433" fill="none">
<flowRoot id="flowRoot3785-6" style="word-spacing:0px;letter-spacing:0px" xml:space="preserve" font-size="4px" line-height="125%" font-family="DejaVu Sans" fill="#000000"><flowRegion id="flowRegion3787-9"><rect id="rect3789-0" y="31.359" x="51.648" width="3.6575" height="9.0883"/></flowRegion><flowPara id="flowPara3791-0"/></flowRoot><g id="layer9-3" stroke-width="1.4347" transform="matrix(4.6683 0 0 -4.6683 -236.95 874.46)"><g id="g3674"><path id="path3660" d="m129.33 154.26c-6.4303-11.472-2.0237-25.811 9.8424-32.027 11.866-6.2165 26.698-1.9564 33.129 9.5152 3.9609 7.0663 3.9342 15.595-0.0709 22.638" transform="matrix(1.1867 0 0 1.2275 -24.074 10.693)" stroke="#a300b1" stroke-miterlimit="4" stroke-width="8.3211" fill="none"/><path id="path3671" d="m115.97 137.17v5.6121l21.954 0.0442c1.2873 5.533 6.2333 9.6562 12.156 9.6562 5.925 0 10.871-4.1205 12.156-9.6562h29.844v-0.0625-5.5938h-76.11zm46.266 0c-1.2853-5.5357-6.2313-9.6562-12.156-9.6562-5.923 0.00001-10.869 4.1233-12.156 9.6562h24.312zm-12.156-4.6875c4.14 0 7.5 3.36 7.5 7.5s-3.36 7.5-7.5 7.5-7.5-3.36-7.5-7.5 3.36-7.5 7.5-7.5z" fill-rule="evenodd" transform="translate(0,60)" fill="#a300b1"/></g><g id="g3401" transform="matrix(.58824 0 0 .58824 53.392 155.71)"><g id="g3403" stroke-width="1.4347" transform="translate(-11.273 -35.911)"><path id="path3405" d="m206 5.6875c-9.3567 0-17 7.6433-17 17s7.6433 17 17 17 17-7.6433 17-17-7.6433-17-17-17zm0 5c6.6513 0 12 5.3487 12 12s-5.3487 12-12 12-12-5.3487-12-12 5.3487-12 12-12z" fill-rule="evenodd" fill="#a300b1"/></g></g></g><path id="path4836" d="m377.81-43.417c-4.333 10.014-6.9766 18.674-8.8052 28.845-1.0605 5.8987-1.2071 8.3175-1.1915 19.661 0.0192 14.048 0.45917 17.912 3.3334 29.285 5.3575 21.198 16.637 40.596 32.539 55.959 29.888 28.876 72.457 40.083 112.49 29.616 33.203-8.6818 61.418-31.786 76.45-62.602 15.427-31.625 16.326-66.547 2.5552-99.212l-1.6905-4.0099h-36.359-36.359l-1.4195 4.4579c-4.8521 15.238-15.528 27.575-29.975 34.641-8.1423 3.982-13.795 5.4094-22.829 5.7654-8.8769 0.34975-14.044-0.31357-21.352-2.7411-6.7457-2.2407-10.998-4.4687-16.698-8.749-9.7898-7.3519-17.364-18.113-20.678-29.377l-1.176-3.9972h-13.885-13.885l-1.0634 2.4577z" stroke="#a300b1" stroke-miterlimit="4" stroke-width="13.395" fill="none"/><path id="path4838" d="m381.19-38.76c-1.927 4.4873-5.4676 16.053-6.7245 21.967-1.1259 5.2973-1.3969 8.1785-1.62 17.227-0.31119 12.619 0.28887 20.509 2.1867 28.75 7.1744 31.153 25.894 57.104 52.995 73.47 11.947 7.2142 25.489 12.17 40.389 14.779 6.1403 1.0753 22.351 1.5045 29.283 0.77527 31.376-3.3004 60.214-19.583 78.923-44.561 5.6605-7.5573 8.1436-11.62 11.962-19.574 7.9903-16.643 11.674-34.004 11.102-52.322-0.41151-13.179-2.6456-24.659-7.1441-36.709l-2.1434-5.7415h-32.998-32.998l-1.8839 4.862c-5.7096 14.736-16.889 26.639-31.691 33.744-9.2344 4.4321-16.172 5.8911-28.011 5.8909-7.9643-0.000098-12.532-0.7204-19.753-3.1152-15.47-5.138-29.34-17.424-36.47-32.332-1.2256-2.5611-2.5208-5.6461-2.8781-6.8556l-0.64969-2.199h-10.518-10.518l-0.8332 1.9403z" stroke="#a300b1" stroke-miterlimit="4" stroke-width="13.395" fill="none"/><path id="path4840" d="m383.37-29.964c-4.898 15.179-5.7332 21.149-5.3666 38.361 0.27538 12.93 0.77375 16.494 3.7169 26.582 8.1994 28.102 27.722 52.131 53.581 65.949 11.133 5.9487 25.296 10.517 37.239 12.011 6.7076 0.83896 23.048 0.68888 29.185-0.26806 43.736-6.82 78.74-38.373 89.607-80.775 2.7447-10.709 3.4947-17.764 3.1519-29.65-0.37636-13.052-2.0473-22.56-5.8648-33.372l-1.4614-4.1392-29.751-0.13104-29.751-0.13104-0.97408 2.4593c-8.0992 20.449-28.419 36.913-50.282 40.742-6.1806 1.0824-20.259 1.0976-25.836 0.02801-16.459-3.1569-31.475-12.682-41.908-26.584-2.9265-3.8993-7.0678-11.308-8.5066-15.219l-0.52351-1.4229h-7.2305-7.2305l-1.7948 5.5621v0.000023z" stroke="#a300b1" stroke-miterlimit="4" stroke-width="13.395" fill="none"/><path id="path4842" d="m388.57-29.964c-0.43523 0.74751-3.0908 10.26-4.0804 14.617-1.2595 5.5447-1.8701 26.471-1.0046 34.427 1.801 16.555 10.462 36.448 22.18 50.944 4.0874 5.0564 13.319 13.978 18.356 17.739 12.715 9.4952 27.752 16.104 43.916 19.302 6.6035 1.3064 7.3588 1.3478 20.097 1.1025 10.983-0.21147 14.107-0.44545 18.355-1.3745 40.608-8.882 71.471-39.034 80.798-78.937 1.6224-6.9409 2.2811-12.989 2.2903-21.029 0.0149-12.962-1.3108-22.767-4.4314-32.776l-1.3727-4.4027h-26.32-26.32l-1.8736 3.7512c-4.7989 9.608-12.426 18.654-21.472 25.469-11.97 9.0117-23.31 13.318-37.37 14.178-15.87 0.971-26.82-0.868-38.23-6.417-14.83-7.2205-27.25-19.535-34.41-34.138l-1.3957-2.8458h-3.7422c-2.0582 0-3.8439 0.17464-3.9681 0.38808z" stroke="#a300b1" stroke-miterlimit="4" stroke-width="13.395" fill="none"/><path id="path4844" d="m392.17-24.769c-0.72582 1.1744-2.9808 11.538-3.4221 15.728-0.78592 7.4608-0.6477 25.769 0.23566 31.216 2.2777 14.043 9.9443 30.964 19.687 43.452 4.0582 5.2015 13.778 14.699 18.874 18.444 11.83 8.6918 26.23 15.022 41.042 18.043 5.1999 1.0605 6.6052 1.1237 19.661 0.88381 15.277-0.28066 16.925-0.52295 27.772-4.0835 30.701-10.077 54.748-34.325 64.312-64.849 3.2689-10.433 3.7263-13.925 3.7263-28.457 0-13.197-0.52127-18.763-2.3262-24.835-0.25372-0.85372-0.71688-2.5441-1.0292-3.7565l-0.56787-2.2043-23.105 0.13463-23.105 0.13468-2.4534 4.2575c-3.647 6.3288-7.9754 11.74-13.89 17.364-8.997 8.5546-18.079 14.184-28.466 17.642-16.817 5.6-39.286 5.0543-54.775-1.3302-15.972-6.5839-30.952-19.814-38.965-34.414-1.9727-3.5943-2.6359-4.2912-3.2061-3.3686z" stroke="#a300b1" stroke-miterlimit="4" stroke-width="13.395" fill="none"/><path id="path4846" d="m534.89-16.77c-5.1644 8.4718-15.184 19.063-23.984 25.351-5.5917 3.9958-14.484 8.5532-20.292 10.4-8.0167 2.5493-13.564 3.4415-23.536 3.7856-10.054 0.34695-16.328-0.1619-24.001-1.9466-17.24-4.011-34.45-15.499-45.93-30.665l-2.6174-3.4576-0.62439 3.5047c-0.43084 2.4183-0.55084 7.9151-0.3871 17.733 0.22361 13.407 0.31712 14.522 1.6204 19.32 2.8284 10.411 7.5341 20.66 13.839 30.139 4.7907 7.203 17.057 19.651 24 24.356 9.5531 6.4735 20.775 11.52 32.312 14.53 5.3747 1.4025 5.6946 1.424 20.98 1.4143 17.144-0.0107 17.763-0.0879 27.94-3.4744 31.964-10.636 55.859-36.701 63.452-69.211 0.78885-3.3775 1.0938-7.0391 1.3143-15.781 0.30255-11.996-0.22104-19.979-1.6953-25.848l-0.85023-3.3848h-19.784-19.784l-1.9713 3.2338z" stroke="#a300b1" stroke-miterlimit="4" stroke-width="13.395" fill="none"/><path id="path4848" d="m536.26-10.131c-6.3547 9.0329-18.478 20.514-27.226 25.784-10.839 6.53-21.178 10.087-33.314 11.461-7.8421 0.88796-25.358 0.35395-31.367-0.95635-15.36-3.35-29.56-11.016-41.22-22.25l-4.563-4.3988v9.9262c0 14.084 1.4038 19.943 8.008 33.424 3.8949 7.9507 6.9124 12.588 12.113 18.616 12.288 14.243 24.489 22.414 42.226 28.279 7.9783 2.6382 11.143 3.0341 24.248 3.0341 14.7 0 19.076-0.50769 26.741-3.1025 15.365-5.2012 27.204-12.622 37.797-23.689 6.8836-7.1918 11.484-13.663 15.714-22.103 7.2452-14.458 8.7712-22.044 8.3792-41.651-0.1451-7.2566-0.4659-14.009-0.71291-15.005l-0.44909-1.8109-16.536-0.126-16.536-0.126-3.3009 4.6922z" stroke="#a300b1" stroke-miterlimit="4" stroke-width="13.395" fill="none"/><path id="path4850" d="m539.52-6.1636c-3.1266 4.4403-16.861 18.185-21.95 21.965-7.6512 5.6845-18.227 10.839-27.681 13.491-8.2085 2.303-13.763 2.9605-25.008 2.9605-16.2 0-23.973-1.1272-33.724-4.8912-8.5421-3.2973-17.74-8.4881-24.443-13.794l-2.7133-2.1477-0.1562 3.2567c-0.33527 6.9897 1.5011 13.856 6.5491 24.489 5.2396 11.036 10.071 17.642 19.456 26.602 8.4629 8.08 17.406 13.629 28.862 17.909 9.5651 3.5732 12.008 3.9313 26.852 3.9353 14.706 0.004 18.469-0.4532 26.219-3.1854 22.193-7.8242 39.709-23.456 50.053-44.671 5.6987-11.687 6.9496-17.98 6.9542-34.989 0.001-6.1538-0.14248-11.916-0.32034-12.806l-0.32337-1.6169h-13.084-13.084l-2.4591 3.4925z" stroke="#a300b1" stroke-miterlimit="4" stroke-width="13.395" fill="none"/><path id="path4852" d="m541.19-0.4288c-5.86 7.0148-17.95 18.322-23.74 22.197-9.4254 6.3026-22.03 11.642-32.729 13.864-8.5425 1.7742-33.247 1.7721-42.25-0.0035-8.9834-1.7718-21.987-6.9764-29.603-11.849-1.6631-1.0639-3.1388-1.8193-3.2794-1.6787-0.4935 0.49351 2.5936 8.9222 5.5532 15.162 4.372 9.2176 8.4116 14.854 16.261 22.687 10.042 10.022 19.782 16.037 33.14 20.469l5.174 1.7166 14.597 0.1942c16.438 0.21872 18.685-0.0505 27.424-3.2856 11.097-4.1079 20.494-10.212 29.407-19.101 7.1437-7.1245 11.899-13.815 16.401-23.074 5.1596-10.613 6.0795-15.31 6.0795-31.042v-10.311h-9.5273-9.5273l-3.3807 4.0532z" stroke="#a300b1" stroke-miterlimit="4" stroke-width="13.395" fill="none"/><path id="path4854" d="m542.97 4.9643c-4.4799 4.9852-13.632 13.686-18.575 17.658-11.038 8.871-29.511 16.739-43.302 18.445-6.0177 0.74409-29.162 0.74013-35.183-0.006-5.7626-0.71403-13.745-2.9651-21.184-5.9738-3.1138-1.2595-5.7481-2.2034-5.854-2.0975-0.27865 0.27865 3.1903 7.0402 5.3961 10.518 4.7837 7.5418 13.983 16.906 22.046 22.441 5.1381 3.5274 12.892 7.353 19.774 9.7565l4.6566 1.6262 15.781-0.1774c15.702-0.17651 15.803-0.18463 20.179-1.6363 16.165-5.3624 31.404-16.992 40.761-31.105 3.3396-5.0373 7.6362-13.701 9.2376-18.626 1.2144-3.7353 1.3719-5.1617 1.6135-14.617l0.26778-10.477-5.8908 0.0036-5.8908 0.0036-3.8325 4.2648v0.000238z" stroke="#a300b1" stroke-miterlimit="4" stroke-width="13.395" fill="none"/><path id="path4856" d="m544.64 10.318c-5.5446 6.1037-17.43 16.658-22.568 20.04-8.8822 5.8473-20.846 11.054-31.924 13.893-7.089 1.817-19.571 2.6196-33.89 2.1792-10.127-0.31147-14.129-0.81076-20.88-2.6054-2.6625-0.70774-4.9646-1.1632-5.1158-1.012-0.4216 0.4216 5.0198 6.857 9.2646 10.957 7.7424 7.4784 16.285 12.774 26.964 16.716l5.2892 1.9524 15.522-0.33252 15.522-0.33253 5.4327-2.16c19.044-7.5716 33.617-21.801 41.91-40.922 2.5005-5.7653 3.1037-9.0132 3.1037-16.713v-6.1138h-2.2936c-2.2222 0-2.4196 0.13865-6.3382 4.4524z" stroke="#a300b1" stroke-miterlimit="4" stroke-width="13.395" fill="none"/><path id="path4858" d="m544.74 17.272c-3.833 3.9145-12.911 11.913-17.074 15.045-10.959 8.2431-28.707 15.661-42.831 17.901-4.6679 0.74037-8.9956 0.9205-22.103 0.92-8.964-0.00035-16.997-0.1774-17.85-0.39345-1.4583-0.36903-1.3957-0.25162 1.0348 1.9411 5.5854 5.0389 12.809 9.2953 21.953 12.936l4.8788 1.9424 14.524-0.36767 14.524-0.36767 5.4327-2.2857c13.216-5.5605 23.952-14.269 31.499-25.552 6.0684-9.0723 9.5996-17.627 9.2776-22.475l-0.16031-2.4137-3.1044 3.1704z" stroke="#a300b1" stroke-miterlimit="4" stroke-width="13.395" fill="none"/><path id="path4860" d="m534.13 33.336c-7.7405 6.8916-20.925 13.87-34.407 18.212-10.378 3.3421-18.497 4.4936-31.929 4.5281l-8.4282 0.0215 1.8109 0.99259c0.996 0.54592 4.2556 2.025 7.2436 3.2869l5.4327 2.2943 13.452-0.37309 13.452-0.3731 4.9955-2.1942c11.876-5.216 22.149-13.581 28.603-23.289 3.8192-5.7449 3.7535-6.6492-0.22589-3.1063z" stroke="#a300b1" stroke-miterlimit="4" stroke-width="13.395" fill="none"/><path id="path4862" d="m454.86-116.47c-21.662 3.373-40.464 19.626-46.521 40.214l-1.176 3.9972h-24.647c-13.556 0-36.559 0.15447-51.119 0.34326l-26.473 0.34326v12.592 12.592h19.375 19.375l-1.0328 2.9751c-2.9986 8.6376-6.1373 23.239-7.1845 33.422-0.73072 7.1058-0.73359 23.332-0.005 30.09 2.0918 19.41 7.1422 36.456 15.907 53.688 23.735 46.668 69.539 77.534 121.97 82.193 7.7921 0.69237 26.01 0.27857 32.994-0.74938 2.49-0.36651 4.5273-0.59554 4.5273-0.50897 0 0.0865-0.78822 1.2639-1.7516 2.6162-0.96337 1.3524-2.5663 4.0887-3.562 6.0807-6.4442 12.892-6.4438 27.99 0.0007 40.875 8.0082 16.01 23.735 25.768 41.531 25.768 25.664 0 46.166-20.52 46.166-46.206 0-20.036-12.7-37.67-31.679-43.988-1.8497-0.61577-3.4191-1.1738-3.4875-1.2401s2.4928-1.682 5.6914-3.5904c31.559-18.829 55.345-48.783 66.536-83.787 7.3511-22.994 9.142-47.441 5.1968-70.939-1.1056-6.5849-3.8589-17.767-5.6068-22.77-0.58716-1.6808-1.0676-3.2524-1.0676-3.4925 0-0.24 6.8685-0.43639 15.263-0.43639h15.263v-12.935-12.935h-69.545-69.545l-1.4195-4.4579c-8.6157-27.058-36.046-44.103-63.976-39.754zm17.172 23.076c4.5321 1.0675 11.474 4.8288 15.179 8.2245 12.017 11.014 15.001 27.054 7.7825 41.836-5.2354 10.722-15.632 17.935-27.604 19.152-21.019 2.1369-38.805-13.852-38.805-34.883 0-20.45 16.732-36.344 36.981-35.129 2.2693 0.13622 5.1797 0.49582 6.4675 0.79916zm32.112 149c-3.0769 1.4442-4.9223 2.0092-6.2088 1.9009-1.6124-0.13571-1.1831-0.3801 3.6021-2.0505 7.0784-2.4709 8.0689-2.4141 2.6067 0.14962zm54.15 97.102c5.4726 2.0193 9.1846 4.5158 13.261 8.919 9.2423 9.9825 11.193 24.848 4.9292 37.571-1.9579 3.9771-7.0872 9.6893-11.081 12.34-9.2976 6.1714-22.518 7.1231-32.535 2.3422-11.632-5.5516-18.895-17.091-18.895-30.023 0-12.939 7.2618-24.471 18.912-30.031 4.9844-2.3788 8.8636-3.0997 15.477-2.8759 4.7515 0.16073 6.3917 0.45091 9.9316 1.7571z" stroke="#a300b1" stroke-miterlimit="4" stroke-width="13.395" fill="none"/><text id="text4864" style="word-spacing:0px;letter-spacing:0px" font-family="Arial" font-weight="bold" transform="scale(1,-1)" stroke="#a300b1" xml:space="preserve" line-height="125%" font-size="186.73px" y="8.9190598" x="420.79941" stroke-width="6.6977" fill="#ffffff"><tspan id="tspan4866" y="8.9190598" x="420.79941" stroke-width="6.6977">V</tspan></text>
<path id="path5779" d="m26.199 52.274c-3.0943-0.68597-4.2196-4.6575-1.9682-6.9464 0.88797-0.90274 1.4668-1.1237 2.945-1.1241 1.1669-0.00034 1.3595 0.03684 1.9308 0.37268 0.83613 0.49153 1.6805 1.4676 1.9475 2.2512 1.064 3.1227-1.6424 6.1588-4.8551 5.4466z" fill-opacity=".50196" transform="matrix(6.6977 0 0 -6.6977 281.77 264.02)" fill="#fff"/><path id="path5781" d="m28.15 39.803c-0.19-0.475-6.568-18.353-6.568-18.411 0-0.0236 0.69897-0.04291 1.5533-0.04291h1.5533l1.0892 3.1723c0.59908 1.7447 1.8184 5.3059 2.7096 7.9136 0.89121 2.6077 1.6528 4.7413 1.6924 4.7413s1.2388-3.5458 2.6648-7.8795l2.5928-7.8795 1.548-0.03873c1.2159-0.03042 1.5337-0.0011 1.4813 0.13644-0.13031 0.34237-6.281 17.513-6.4774 18.083l-0.19991 0.57988h-1.7444-1.7444l-0.15021-0.37521z" fill-opacity=".50196" transform="matrix(6.6977 0 0 -6.6977 281.77 264.02)" fill="#fff"/><path id="path5783" d="m38.112 15.547c-1.8271-0.79339-2.7684-2.9348-2.1322-4.8504 0.31959-0.9622 1.37-2.0333 2.3072-2.3526 2.4976-0.851 5.1126 0.93974 5.1222 3.5076 0.004 1.0589-0.19974 1.6921-0.79978 2.486-0.741 0.98041-1.6737 1.4199-2.999 1.4131-0.5989-0.0031-1.2359-0.08963-1.4984-0.2036z" fill-opacity=".50196" transform="matrix(6.6977 0 0 -6.6977 281.77 264.02)" fill="#fff"/></g>
 </g>
</svg>
