<?xml version="1.0" encoding="UTF-8" standalone="no"?>
<!-- Created with Inkscape (http://www.inkscape.org/) -->

<svg
   xmlns:dc="http://purl.org/dc/elements/1.1/"
   xmlns:cc="http://creativecommons.org/ns#"
   xmlns:rdf="http://www.w3.org/1999/02/22-rdf-syntax-ns#"
   xmlns:svg="http://www.w3.org/2000/svg"
   xmlns="http://www.w3.org/2000/svg"
   xmlns:sodipodi="http://sodipodi.sourceforge.net/DTD/sodipodi-0.dtd"
   xmlns:inkscape="http://www.inkscape.org/namespaces/inkscape"
   width="300"
   height="400"
   id="svg2"
   version="1.1"
   inkscape:version="0.48.2 r9819"
   sodipodi:docname="Visitor_Berth.svg"
   style="display:inline">
  <defs
     id="defs4" />
  <sodipodi:namedview
     id="base"
     pagecolor="#ffffff"
     bordercolor="#666666"
     borderopacity="1.0"
     inkscape:pageopacity="0.0"
     inkscape:pageshadow="2"
     inkscape:zoom="3.959798"
     inkscape:cx="69.163012"
     inkscape:cy="197.22887"
     inkscape:document-units="px"
     inkscape:current-layer="layer12"
     showgrid="true"
     inkscape:window-width="1920"
     inkscape:window-height="1088"
     inkscape:window-x="0"
     inkscape:window-y="0"
     inkscape:window-maximized="1"
     inkscape:snap-global="false">
    <inkscape:grid
       type="xygrid"
       id="grid3004"
       empspacing="5"
       visible="true"
       enabled="true"
       snapvisiblegridlinesonly="true" />
  </sodipodi:namedview>
  <metadata
     id="metadata7">
    <rdf:RDF>
      <cc:Work
         rdf:about="">
        <dc:format>image/svg+xml</dc:format>
        <dc:type
           rdf:resource="http://purl.org/dc/dcmitype/StillImage" />
        <dc:title />
      </cc:Work>
    </rdf:RDF>
  </metadata>
  <g
     inkscape:groupmode="layer"
     id="layer12"
     inkscape:label="Visitor Berth"
     style="display:inline">
    <g
       style="font-style:normal;font-variant:normal;font-weight:normal;font-stretch:normal;letter-spacing:normal;word-spacing:normal;text-anchor:start;fill:none;stroke:#000000;stroke-width:1;stroke-linecap:butt;stroke-linejoin:miter;stroke-miterlimit:10.43299961;stroke-opacity:1;stroke-dasharray:none;stroke-dashoffset:0"
       word-spacing="normal"
       letter-spacing="normal"
       font-size-adjust="none"
       font-stretch="normal"
       font-weight="normal"
       font-variant="normal"
       font-style="normal"
       fill-rule="even-odd"
       stroke-miterlimit="10.433"
       xml:space="preserve"
       transform="matrix(0.1493046,0,0,-0.1493046,77.685167,209.40971)"
       id="content-5">












































<path
   transform="matrix(5.2876647,0,0,-5.2876647,255.33453,290.46141)"
   d="m 53.310581,33.465248 c 0,10.09986 -9.874686,18.287415 -22.055729,18.287415 -12.181042,0 -22.0557286,-8.187555 -22.0557286,-18.287415 0,-10.09986 9.8746866,-18.287414 22.0557286,-18.287414 12.181043,0 22.055729,8.187554 22.055729,18.287414 z"
   sodipodi:ry="18.287415"
   sodipodi:rx="22.055729"
   sodipodi:cy="33.465248"
   sodipodi:cx="31.254852"
   id="path3007"
   style="fill:none;stroke:#a30075;stroke-width:2.53333688;stroke-miterlimit:4;stroke-opacity:0;stroke-dasharray:none"
   sodipodi:type="arc" /><path
   transform="matrix(10.888422,0,0,-12.208229,876.72248,498.02815)"
   d="m -17.73325,35.626488 c 0,9.089874 -8.261986,16.458673 -18.453663,16.458673 -10.191676,0 -18.453662,-7.368799 -18.453662,-16.458673 0,-9.089875 8.261986,-16.458674 18.453662,-16.458674 10.191677,0 18.453663,7.368799 18.453663,16.458674 z"
   sodipodi:ry="16.458673"
   sodipodi:rx="18.453663"
   sodipodi:cy="35.626488"
   sodipodi:cx="-36.186913"
   id="path3783"
   style="fill:#a30075;fill-opacity:1;stroke:none"
   sodipodi:type="arc" /><text
   transform="scale(1.0000052,-0.99999482)"
   sodipodi:linespacing="125%"
   id="text3779"
   y="68.705429"
   x="371.66125"
   style="font-size:338.412323px;font-style:normal;font-variant:normal;font-weight:bold;font-stretch:normal;line-height:125%;letter-spacing:0px;word-spacing:0px;fill:#ffffff;fill-opacity:1;stroke:#a30075;stroke-width:1;stroke-opacity:1;font-family:Arial;-inkscape-font-specification:Arial Bold"
   xml:space="preserve"><tspan
     style="stroke-width:1"
     y="68.705429"
     x="371.66125"
     id="tspan3781"
     sodipodi:role="line">V</tspan></text>





<flowRoot
   style="font-size:4px;font-style:normal;font-variant:normal;font-weight:normal;font-stretch:normal;line-height:125%;letter-spacing:0px;word-spacing:0px;fill:#000000;fill-opacity:1;stroke:none;font-family:DejaVu Sans;-inkscape-font-specification:DejaVu Sans"
   id="flowRoot3785"
   xml:space="preserve"><flowRegion
     id="flowRegion3787"><rect
       y="31.359423"
       x="51.64809"
       height="9.0882902"
       width="3.6574829"
       id="rect3789" /></flowRegion><flowPara
     id="flowPara3791" /></flowRoot><path
   transform="matrix(6.6977173,0,0,-6.6977173,281.77259,264.02334)"
   inkscape:connector-curvature="0"
   id="path5368"
   d="M 26.38279,49.426266 C 26.340391,49.318797 23.495858,41.375592 20.061605,31.7747 16.627352,22.173807 13.76471,14.180731 13.700179,14.012308 l -0.11733,-0.306224 3.834317,0.02914 3.834318,0.02914 4.567141,13.355354 c 2.511927,7.345444 4.609227,13.355354 4.660666,13.355354 0.05144,0 0.132189,-0.124687 0.179444,-0.277082 0.04725,-0.152396 2.036651,-6.174773 4.420882,-13.383062 l 4.334964,-13.105981 3.706858,0 c 2.038772,0 3.704744,0.03741 3.702162,0.08312 -0.0026,0.04572 -2.883384,8.112962 -6.401779,17.927207 l -6.397084,17.844083 -3.782429,0.02915 c -3.525532,0.02717 -3.787665,0.01588 -3.859519,-0.166249 l 0,0 z"
   style="fill:#ffffff;fill-opacity:0.50196078;stroke:none" /></g>  </g>
</svg>
