<?xml version="1.0" encoding="UTF-8" standalone="no"?>
<svg
   xmlns:dc="http://purl.org/dc/elements/1.1/"
   xmlns:cc="http://creativecommons.org/ns#"
   xmlns:rdf="http://www.w3.org/1999/02/22-rdf-syntax-ns#"
   xmlns:svg="http://www.w3.org/2000/svg"
   xmlns="http://www.w3.org/2000/svg"
   xmlns:sodipodi="http://sodipodi.sourceforge.net/DTD/sodipodi-0.dtd"
   xmlns:inkscape="http://www.inkscape.org/namespaces/inkscape"
   version="1.0"
   id="body"
   width="60"
   height="60"
   viewBox="0 0 0.69767442 0.69767442"
   preserveAspectRatio="none"
   sodipodi:version="0.32"
   inkscape:version="0.48.1 r9760"
   sodipodi:docname="Waste_Disposal.svg"
   inkscape:output_extension="org.inkscape.output.svg.inkscape"
   inkscape:export-filename="/Users/mherring/Desktop/try.png"
   inkscape:export-xdpi="90"
   inkscape:export-ydpi="90">
  <metadata
     id="metadata100">
    <rdf:RDF>
      <cc:Work
         rdf:about="">
        <dc:format>image/svg+xml</dc:format>
        <dc:type
           rdf:resource="http://purl.org/dc/dcmitype/StillImage" />
        <dc:title>SVG drawing</dc:title>
      </cc:Work>
    </rdf:RDF>
  </metadata>
  <defs
     id="defs98">
    <inkscape:perspective
       sodipodi:type="inkscape:persp3d"
       inkscape:vp_x="0 : 360 : 1"
       inkscape:vp_y="0 : 1000 : 0"
       inkscape:vp_z="720 : 360 : 1"
       inkscape:persp3d-origin="360 : 240 : 1"
       id="perspective102" />
    <inkscape:perspective
       id="perspective16"
       inkscape:persp3d-origin="61.773499 : 41.179667 : 1"
       inkscape:vp_z="123.547 : 61.769501 : 1"
       inkscape:vp_y="0 : 1000 : 0"
       inkscape:vp_x="0 : 61.769501 : 1"
       sodipodi:type="inkscape:persp3d" />
    <inkscape:perspective
       inkscape:persp3d-origin="90 : 60 : 1"
       sodipodi:type="inkscape:persp3d"
       inkscape:vp_x="0 : 90 : 1"
       inkscape:vp_y="0 : 1000 : 0"
       inkscape:vp_z="180 : 90 : 1"
       id="perspective2461" />
  </defs>
  <sodipodi:namedview
     inkscape:window-height="1088"
     inkscape:window-width="1920"
     inkscape:pageshadow="2"
     inkscape:pageopacity="0"
     guidetolerance="10.0"
     gridtolerance="10.0"
     objecttolerance="10.0"
     borderopacity="1.0"
     bordercolor="#666666"
     pagecolor="#ffffff"
     id="base"
     showgrid="false"
     inkscape:zoom="6.3799408"
     inkscape:cx="-0.83102114"
     inkscape:cy="45.466963"
     inkscape:window-x="0"
     inkscape:window-y="0"
     inkscape:current-layer="content"
     inkscape:window-maximized="0" />
  <title
     id="title3">SVG drawing</title>
  <desc
     id="desc5">This was produced by version 4.2 of GNU libplot, a free library for exporting 2-D vector graphics.</desc>
  <g
     id="content"
     transform="matrix(0.0017361,0,0,-0.0017361,-0.4891854,0.45837092)"
     xml:space="preserve"
     stroke-miterlimit="10.433"
     fill-rule="even-odd"
     font-style="normal"
     font-variant="normal"
     font-weight="normal"
     font-stretch="normal"
     font-size-adjust="none"
     letter-spacing="normal"
     word-spacing="normal"
     style="font-style:normal;font-variant:normal;font-weight:normal;font-stretch:normal;letter-spacing:normal;word-spacing:normal;text-anchor:start;fill:none;stroke:#000000;stroke-width:1;stroke-linecap:butt;stroke-linejoin:miter;stroke-miterlimit:10.43299961;stroke-opacity:1;stroke-dasharray:none;stroke-dashoffset:0">






<g
   transform="matrix(-4.6321561,-4.0982455e-5,4.0982455e-5,-4.6321561,859.24398,432.45316)"
   id="g3"
   style="stroke-width:1">
	
	
	
</g><line
   x1="25.5"
   y1="2.5508001"
   x2="81.301003"
   y2="2.5508001"
   id="line21"
   style="stroke:#ffffff;stroke-width:0" />





































<g
   id="g2532"
   transform="matrix(-2.3793448,-0.01065004,0.01065004,-2.3793451,676.03013,293.81863)"
   style="fill:none;stroke:#000000;stroke-width:1.44827497;stroke-opacity:1"><polyline
     points="  101.565,81.659 73.936,81.659 62.656,93.322 34.543,93.322 62.978,118.943 129.196,118.943 145.951,109.745 145.951,95.145   125.413,95.145 "
     stroke-miterlimit="3.863"
     id="polyline2448"
     style="fill:none;stroke:#a30075;stroke-width:5.79309988;stroke-linecap:round;stroke-miterlimit:3.86299992;stroke-opacity:1"
     transform="matrix(1.162336,0,0,1.162336,-24.191332,-9.1805915)" /><polygon
     points="148.608,76.185 126.377,85.308 126.377,85.308 126.377,67.065 "
     id="polygon2450"
     transform="matrix(1.162336,0,0,1.162336,-24.191332,-9.1805915)"
     style="fill:#a30075;fill-opacity:1;stroke:none" /><polygon
     points="115.825,93.48 115.825,104.982 112.601,109.902 91.981,109.902 91.981,109.902 91.981,93.48 "
     id="polygon2452"
     transform="matrix(1.162336,0,0,1.162336,-24.191332,-9.1805915)"
     style="fill:#a30075;fill-opacity:1;stroke:none" /><polyline
     points="  100.116,107.604 86.261,107.604 86.261,60 108.976,60 108.976,76.185 127.988,76.185 "
     stroke-miterlimit="3.863"
     id="polyline2454"
     style="fill:none;stroke:#a30075;stroke-width:8.68964863;stroke-linecap:round;stroke-linejoin:round;stroke-miterlimit:3.86299992;stroke-opacity:1"
     transform="matrix(1.162336,0,0,1.162336,-24.191332,-9.1805915)" /></g><rect
   style="fill:none;stroke:#a30075;stroke-width:2;stroke-miterlimit:4;stroke-opacity:0;stroke-dasharray:none"
   id="rect3767"
   width="45.92519"
   height="43.26059"
   x="-61.9128"
   y="-15.254858"
   transform="matrix(6.6977173,0,0,-6.6977173,281.77259,438.16399)"
   rx="19.999998"
   ry="19.999998" /><rect
   style="fill:none;stroke:#a30075;stroke-width:2;stroke-miterlimit:4;stroke-opacity:0;stroke-dasharray:none"
   id="rect3769"
   width="7.523581"
   height="9.4044762"
   x="-70.847054"
   y="-16.038565"
   transform="matrix(6.6977173,0,0,-6.6977173,281.77259,438.16399)"
   rx="133.95433"
   ry="9.4044762" /><rect
   style="fill:none;stroke:#a30075;stroke-width:13.39543247;stroke-miterlimit:4;stroke-opacity:1;stroke-dasharray:none"
   id="rect3768"
   width="388.46783"
   height="388.46783"
   x="288.47018"
   y="-257.32574"
   transform="scale(1,-1)"
   rx="100.00001"
   ry="99.999992" /><path
   style="fill:#ffffff;fill-opacity:0.50196078;stroke:none"
   d="M 14.037546,57.782869 C 8.1481161,57.003972 3.1814583,52.13634 2.2710154,46.250946 2.1594411,45.529695 2.1207038,39.940817 2.1532952,29.266716 l 0.048576,-15.909238 0.444904,-1.332301 C 3.529548,9.381642 4.6714755,7.5674636 6.5532576,5.8189541 7.8688317,4.5965522 8.9084833,3.9295624 10.686556,3.1672321 13.115374,2.1259011 12.648173,2.150477 30.01566,2.150477 c 17.367487,0 16.900285,-0.024576 19.329104,1.0167551 1.939366,0.8314832 2.900239,1.4734101 4.343548,2.9017765 2.170042,2.1475779 3.349121,4.2905184 3.932825,7.1478034 0.29144,1.426622 0.302495,2.165738 0.259525,17.351584 l -0.04488,15.861489 -0.431366,1.377492 c -1.548462,4.944758 -5.120093,8.400937 -10.033438,9.70912 -1.281646,0.34124 -1.381876,0.343455 -16.806721,0.371572 -8.534562,0.01556 -15.971581,-0.03178 -16.526709,-0.1052 l 0,0 z m 23.039002,-15.036255 5.101621,-1.49e-4 7.197754,-6.543948 7.197752,-6.543948 -7.130427,-0.04074 -7.130427,-0.04074 -2.345645,-2.349561 -2.345644,-2.349562 -1.914846,0 -1.914844,0 -0.04638,-4.192829 c -0.04319,-3.90407 -0.06797,-4.222423 -0.359864,-4.62253 -0.522911,-0.716773 -1.009252,-0.771055 -6.426392,-0.717279 -5.004192,0.04968 -5.016864,0.05065 -5.51335,0.423226 -0.273695,0.20539 -0.549353,0.558057 -0.612572,0.783707 -0.06322,0.225649 -0.09808,1.556441 -0.07747,2.957316 l 0.03748,2.547046 -2.677285,0 -2.677287,0 0,-0.940448 c 0,-0.517246 -0.06061,-0.940447 -0.134685,-0.940447 -0.13883,0 -8.7196038,3.537128 -8.9976551,3.708973 -0.091706,0.05668 -0.059579,0.149962 0.078203,0.227068 0.3720049,0.208185 8.7768135,3.587539 8.9225845,3.587539 0.07235,0 0.131553,-0.418731 0.131553,-0.930513 l 0,-0.930513 3.883555,-0.04912 c 3.792585,-0.04797 3.894474,-0.05767 4.34957,-0.414306 0.749084,-0.587012 0.843307,-1.072763 0.742473,-3.827642 l -0.09036,-2.468675 2.845849,0 2.845851,0 9.41e-4,1.606598 c 4.7e-4,0.883629 0.04624,2.1885 0.101602,2.899713 l 0.100663,1.293116 -2.335165,0.0021 c -1.284341,0.0013 -2.489148,0.04344 -2.677347,0.09391 -0.188201,0.05047 -0.458813,0.33755 -0.601362,0.637946 -0.215859,0.454892 -0.227116,0.62358 -0.06736,1.00927 0.1055,0.254701 0.318575,0.530931 0.4735,0.613844 0.154923,0.08291 1.379586,0.150743 2.721474,0.150743 l 2.439793,0 0,3.76179 c 0,3.23932 -0.03265,3.761791 -0.235112,3.761791 -0.196448,0 -0.235111,-0.322191 -0.235111,-1.959266 l 0,-1.959266 -5.015721,0 -5.015721,0 0,2.391978 0,2.391977 0.708637,1.056331 0.708638,1.05633 1.882513,0 c 1.474363,0 1.90088,0.04786 1.967227,0.22076 0.189447,0.493691 0.91206,0.580862 4.413704,0.532438 4.895931,-0.06771 4.641433,0.300774 4.559561,-6.601662 l -0.05519,-4.653281 1.35916,4.1e-5 1.359158,3.9e-5 2.303685,2.417651 2.303684,2.417651 4.370146,-0.09094 c 2.403582,-0.05002 4.370147,-0.05194 4.370147,-0.0043 0,0.04767 -1.972482,1.885052 -4.383295,4.08306 l -4.383294,3.99638 -13.210913,0.06664 -13.210912,0.06664 -2.978084,-1.602962 -2.9780845,-1.602963 -0.043735,-2.052099 -0.043735,-2.052101 3.745202,0 c 3.551583,0 3.766553,-0.01679 4.158193,-0.324858 0.31361,-0.246686 0.412413,-0.463564 0.410591,-0.901263 -0.0053,-1.265881 -0.0788,-1.281739 -5.943464,-1.281739 l -5.0260247,0 0,3.99329 c 0,3.969908 0.00206,3.994607 0.3526679,4.218688 0.1939673,0.123969 1.9749399,1.116748 3.9577168,2.206172 l 3.605049,1.980772 9.012623,-0.0864 c 4.956943,-0.04752 11.308353,-0.08647 14.114245,-0.08655 l 0,0 z"
   id="path5911"
   inkscape:connector-curvature="0"
   transform="matrix(6.6977173,0,0,-6.6977173,281.77259,264.02334)" /></g></svg>
