<?xml version="1.0" encoding="UTF-8" standalone="no"?>
<!-- Generator: Adobe Illustrator 14.0.0, SVG Export Plug-In . SVG Version: 6.00 Build 43363)  -->
<svg
   xmlns:dc="http://purl.org/dc/elements/1.1/"
   xmlns:cc="http://creativecommons.org/ns#"
   xmlns:rdf="http://www.w3.org/1999/02/22-rdf-syntax-ns#"
   xmlns:svg="http://www.w3.org/2000/svg"
   xmlns="http://www.w3.org/2000/svg"
   xmlns:sodipodi="http://sodipodi.sourceforge.net/DTD/sodipodi-0.dtd"
   xmlns:inkscape="http://www.inkscape.org/namespaces/inkscape"
   version="1.1"
   baseProfile="basic"
   id="svg3121"
   sodipodi:version="0.32"
   inkscape:version="0.46"
   sodipodi:docname="Wier_Big.svg"
   inkscape:output_extension="org.inkscape.output.svg.inkscape"
   x="0px"
   y="0px"
   width="140px"
   height="140px"
   viewBox="0 0 140 140"
   xml:space="preserve"><metadata
   id="metadata11"><rdf:RDF><cc:Work
       rdf:about=""><dc:format>image/svg+xml</dc:format><dc:type
         rdf:resource="http://purl.org/dc/dcmitype/StillImage" /></cc:Work></rdf:RDF></metadata>
<sodipodi:namedview
   id="base"
   inkscape:window-height="843"
   inkscape:pageshadow="2"
   inkscape:pageopacity="0.0"
   inkscape:window-width="1440"
   inkscape:window-x="-5"
   inkscape:window-y="-3"
   inkscape:current-layer="svg3121"
   gridtolerance="10.0"
   borderopacity="1.0"
   objecttolerance="10.0"
   inkscape:cx="70"
   bordercolor="#666666"
   inkscape:cy="72.520325"
   pagecolor="#ffffff"
   guidetolerance="10.0"
   showgrid="false"
   inkscape:zoom="3.3">
	</sodipodi:namedview>
<defs
   id="defs4">
	
	
		<inkscape:perspective
   id="perspective8"
   inkscape:persp3d-origin="70 : 46.666667 : 1"
   sodipodi:type="inkscape:persp3d"
   inkscape:vp_x="0 : 70 : 1"
   inkscape:vp_y="0 : 1000 : 0"
   inkscape:vp_z="140 : 70 : 1">
		</inkscape:perspective>
</defs>


<rect
   x="22.654894"
   y="39.729893"
   width="8.266058"
   height="59.283566"
   id="rect2448"
   style="stroke:#000000;stroke-width:0.99999988" /><rect
   x="40.314209"
   y="59.305363"
   width="9.3932991"
   height="35.795307"
   id="rect2450"
   style="stroke:#000000;stroke-width:0.99999988" /><rect
   x="58.351227"
   y="59.305363"
   width="9.3932991"
   height="35.795307"
   id="rect2452"
   style="stroke:#000000;stroke-width:0.99999988" /><rect
   x="75.258698"
   y="60.983219"
   width="9.3944254"
   height="35.795307"
   id="rect2454"
   style="stroke:#000000;stroke-width:0.99999988" /><rect
   x="93.294556"
   y="60.983219"
   width="9.3944254"
   height="35.795307"
   id="rect2456"
   style="stroke:#000000;stroke-width:0.99999988" /><rect
   x="30.920961"
   y="54.271824"
   width="83.791199"
   height="6.7114105"
   id="rect2458"
   style="stroke:#000000;stroke-width:0.99999988" /><rect
   x="30.920961"
   y="92.262993"
   width="83.791199"
   height="6.7114105"
   id="rect2460"
   style="stroke:#000000;stroke-width:0.99999988" /><rect
   x="111.70691"
   y="39.729893"
   width="8.2649307"
   height="59.283566"
   id="rect2462"
   style="stroke:#000000;stroke-width:0.99999988" /><rect
   style="opacity:1;fill:none;fill-opacity:1;fill-rule:evenodd;stroke:#000000;stroke-width:1;stroke-opacity:1"
   id="rect2471"
   width="139"
   height="139"
   x="0.8030287"
   y="0.80302811" /><path
   style="opacity:1;fill:#ffffff;fill-opacity:0.75;fill-rule:nonzero;stroke:#000000;stroke-width:0.30303031;stroke-opacity:1"
   d="M 1.5757576,70.237251 L 1.5757576,1.2978568 L 70.363636,1.2978568 L 139.15152,1.2978568 L 139.15152,70.237251 L 139.15152,139.17664 L 70.363636,139.17664 L 1.5757576,139.17664 L 1.5757576,70.237251 z M 120.66667,69.403917 L 120.66667,39.176645 L 115.81818,39.176645 L 110.9697,39.176645 L 110.9697,46.449372 L 110.9697,53.722099 L 71.272727,53.722099 L 31.575758,53.722099 L 31.575758,46.449372 L 31.575758,39.176645 L 26.727273,39.176645 L 21.878788,39.176645 L 21.878788,69.277648 C 21.878788,85.833211 21.935606,99.435484 22.005052,99.504927 C 22.074488,99.574378 44.301758,99.63119 71.399,99.63119 L 120.66667,99.63119 L 120.66667,69.403917 z"
   id="path2387" /><path
   style="opacity:1;fill:#ffffff;fill-opacity:0.75;fill-rule:nonzero;stroke:#000000;stroke-width:0.30303031;stroke-opacity:1"
   d="M 31.575758,76.600887 L 31.575758,61.600887 L 35.666667,61.600887 L 39.757576,61.600887 L 39.757576,76.600887 L 39.757576,91.600887 L 35.666667,91.600887 L 31.575758,91.600887 L 31.575758,76.600887 z"
   id="path2389" /><path
   style="opacity:1;fill:#ffffff;fill-opacity:0.75;fill-rule:nonzero;stroke:#000000;stroke-width:0.30303031;stroke-opacity:1"
   d="M 50.363636,76.600887 L 50.363636,61.600887 L 54,61.600887 L 57.636364,61.600887 L 57.636364,76.600887 L 57.636364,91.600887 L 54,91.600887 L 50.363636,91.600887 L 50.363636,76.600887 z"
   id="path2391" /><path
   style="opacity:1;fill:#ffffff;fill-opacity:0.75;fill-rule:nonzero;stroke:#000000;stroke-width:0.30303031;stroke-opacity:1"
   d="M 68.242424,76.600887 L 68.242424,61.600887 L 71.424242,61.600887 L 74.606061,61.600887 L 74.606061,76.600887 L 74.606061,91.600887 L 71.424242,91.600887 L 68.242424,91.600887 L 68.242424,76.600887 z"
   id="path2393" /><path
   style="opacity:1;fill:#ffffff;fill-opacity:0.75;fill-rule:nonzero;stroke:#000000;stroke-width:0.30303031;stroke-opacity:1"
   d="M 85.212121,76.600887 L 85.212121,61.600887 L 89,61.600887 L 92.787879,61.600887 L 92.787879,76.600887 L 92.787879,91.600887 L 89,91.600887 L 85.212121,91.600887 L 85.212121,76.600887 z"
   id="path2395" /><path
   style="opacity:1;fill:#ffffff;fill-opacity:0.75;fill-rule:nonzero;stroke:#000000;stroke-width:0.30303031;stroke-opacity:1"
   d="M 103.39394,76.600887 L 103.39394,61.600887 L 107.18182,61.600887 L 110.9697,61.600887 L 110.9697,76.600887 L 110.9697,91.600887 L 107.18182,91.600887 L 103.39394,91.600887 L 103.39394,76.600887 z"
   id="path2397" /></svg>