<?xml version="1.0" encoding="UTF-8" standalone="no"?>
<svg
   xmlns:dc="http://purl.org/dc/elements/1.1/"
   xmlns:cc="http://creativecommons.org/ns#"
   xmlns:rdf="http://www.w3.org/1999/02/22-rdf-syntax-ns#"
   xmlns:svg="http://www.w3.org/2000/svg"
   xmlns="http://www.w3.org/2000/svg"
   xmlns:sodipodi="http://sodipodi.sourceforge.net/DTD/sodipodi-0.dtd"
   xmlns:inkscape="http://www.inkscape.org/namespaces/inkscape"
   version="1.0"
   width="300"
   height="400"
   id="svg2"
   inkscape:version="0.48.2 r9819"
   sodipodi:docname="Wind_Farm.svg"
   style="display:inline">
  <metadata
     id="metadata2913">
    <rdf:RDF>
      <cc:Work
         rdf:about="">
        <dc:format>image/svg+xml</dc:format>
        <dc:type
           rdf:resource="http://purl.org/dc/dcmitype/StillImage" />
        <dc:title />
      </cc:Work>
    </rdf:RDF>
  </metadata>
  <sodipodi:namedview
     pagecolor="#ffffff"
     bordercolor="#666666"
     borderopacity="1"
     objecttolerance="10"
     gridtolerance="10"
     guidetolerance="10"
     inkscape:pageopacity="0"
     inkscape:pageshadow="2"
     inkscape:window-width="1920"
     inkscape:window-height="1088"
     id="namedview2911"
     showgrid="true"
     inkscape:zoom="1.7321314"
     inkscape:cx="22.876373"
     inkscape:cy="150.2423"
     inkscape:window-x="0"
     inkscape:window-y="0"
     inkscape:window-maximized="1"
     inkscape:current-layer="g3264"
     inkscape:snap-grids="false">
    <inkscape:grid
       type="xygrid"
       id="grid2919"
       empspacing="5"
       visible="true"
       enabled="true"
       snapvisiblegridlinesonly="true" />
  </sodipodi:namedview>
  <defs
     id="defs4" />
  <g
     inkscape:groupmode="layer"
     id="g3264"
     inkscape:label="Wind Farm"
     style="display:inline"
     transform="translate(0,80)">
    <path
       sodipodi:type="arc"
       style="fill:none;stroke:#000000;stroke-width:4.48199797;stroke-miterlimit:4;stroke-opacity:1;stroke-dasharray:none"
       id="path3276"
       sodipodi:cx="150.84073"
       sodipodi:cy="146.28549"
       sodipodi:rx="110.83426"
       sodipodi:ry="108.79311"
       d="m 261.67499,146.28549 c 0,60.08478 -49.62219,108.79312 -110.83426,108.79312 -61.212072,0 -110.83426,-48.70834 -110.83426,-108.79312 0,-60.084776 49.622188,-108.793112 110.83426,-108.793112 61.21207,0 110.83426,48.708336 110.83426,108.793112 z"
       transform="matrix(0.88420314,0,0,0.90079231,16.626154,-11.772847)" />
    <g
       id="g4048"
       transform="matrix(1.5,0,0,1.5,-74.93812,25.851869)">
      <path
         id="rect4046"
         style="fill:#000000;fill-opacity:1;stroke:none"
         d="m 115.02058,106.85599 70,0 0,6 -70,0 z m 33.58266,-76.121779 -15,-25.9807642 4.33013,-2.5 15,25.9807642 z m 1.54959,-4.671398 30,0 0,5 -30,0 z m 2.70837,2.505221 -15,25.980762 -4.33013,-2.5 15,-25.980762 z m -5.86024,-0.01274 6,0 0,79.999996 -6,0 z"
         inkscape:connector-curvature="0" />
    </g>
  </g>
</svg>
