<?xml version="1.0" encoding="UTF-8" standalone="no"?>
<!-- Created with Inkscape (http://www.inkscape.org/) -->
<svg id="svg2" xmlns:rdf="http://www.w3.org/1999/02/22-rdf-syntax-ns#" xmlns="http://www.w3.org/2000/svg" height="120" width="120" version="1.1" xmlns:cc="http://creativecommons.org/ns#" xmlns:dc="http://purl.org/dc/elements/1.1/">
 <metadata id="metadata7">
  <rdf:RDF>
   <cc:Work rdf:about="">
    <dc:format>image/svg+xml</dc:format>
    <dc:type rdf:resource="http://purl.org/dc/dcmitype/StillImage"/>
    <dc:title/>
   </cc:Work>
  </rdf:RDF>
 </metadata>
 <g id="g4333" transform="translate(0,-280)">
  <rect id="rect4422-2" rx="20" ry="20" height="120" width="120" y="280" x="6.7761e-7" fill="#00213e"/>
  <path id="path4339" fill="#fff" d="m109.05 391.7c-2.125 0-4.203-0.492-6.031-1.32-1.883-0.883-4.008-1.391-6.227-1.391-2.195 0-4.32 0.508-6.203 1.391-1.852 0.828-3.906 1.32-6.055 1.32s-4.195-0.492-6.031-1.32c-1.875-0.883-4-1.391-6.227-1.391-2.195 0-4.32 0.508-6.219 1.391-1.836 0.828-3.883 1.32-6.031 1.32s-4.203-0.492-6.039-1.32c-1.891-0.883-4.008-1.391-6.227-1.391-2.211 0-4.32 0.508-6.211 1.391-1.844 0.828-3.898 1.32-6.047 1.32s-4.195-0.492-6.039-1.32c-1.883-0.883-4.008-1.391-6.211-1.391-2.227 0-4.336 0.508-6.219 1.391-1.844 0.828-3.891 1.32-6.039 1.32v-9.062c2.148 0 4.195-0.484 6.039-1.312 1.883-0.859 3.992-1.367 6.219-1.367 2.203 0 4.328 0.508 6.211 1.367 1.844 0.828 3.891 1.312 6.039 1.312s4.203-0.484 6.047-1.312c1.891-0.859 4-1.367 6.211-1.367 2.219 0 4.336 0.508 6.227 1.367 1.836 0.828 3.891 1.312 6.039 1.312s4.195-0.484 6.031-1.312c1.898-0.859 4.023-1.367 6.219-1.367 2.227 0 4.352 0.508 6.227 1.367 1.836 0.828 3.883 1.312 6.031 1.312s4.203-0.484 6.055-1.312c1.883-0.859 4.008-1.367 6.203-1.367 2.219 0 4.344 0.508 6.227 1.367 1.828 0.828 3.906 1.312 6.031 1.312v9.062z"/>
  <path id="path4341" fill="#fff" d="m21.521 339.31c3.281 0 5.945-2.664 5.945-5.938s-2.664-5.93-5.945-5.93c-3.273 0-5.938 2.656-5.938 5.93s2.664 5.938 5.938 5.938z"/>
  <path id="path4343" fill="#fff" d="m47.63 366.23h-16.992c-2.5 0-4.68-1.484-5.656-3.633l-6.281-14.336c-0.125-0.484-0.188-0.977-0.188-1.484 0-3.445 2.789-6.227 6.219-6.227l13.805-0.023 9.469-4.297c0.148-0.102 0.539-0.195 0.953-0.195 1.625 0 2.953 1.344 2.953 2.953 0 1-0.508 1.906-1.266 2.438l-10.305 4.64c-0.68 0.539-1.977 0.609-1.977 0.609h-6.203l5.203 11.547h11.484c1.133 0 1.93 0.391 2.625 1.008l11.258 10.688c1.562 1.469 1.664 3.93 0.203 5.516-1.492 1.562-3.961 1.664-5.523 0.203l-9.781-9.407z"/>
  <path id="path4345" fill="#fff" d="m100.58 346.83c0.219 0.367 0.758 0.516 1.25 0.516 0.953 0 1.734-0.781 1.734-1.758 0-0.469-0.227-0.883-0.445-1.273-10.617-20.266-39.281-14.235-42.796-12.915-0.586 0.219-0.93 0.883-0.93 1.539 0 0.953 0.781 1.734 1.734 1.734 0.297 0 0.438-0.023 0.688-0.102 28.125-6.319 37.281 9.696 38.765 12.259zm4.883 1.828-35.961 22.687-32.734-83.625c29.297 3.883 66.547 26.641 68.695 60.938z"/>
  <g id="g12311" fill="#fff">
   <path id="path4345-2" d="m100.58 346.83c0.219 0.367 0.758 0.516 1.25 0.516 0.953 0 1.734-0.781 1.734-1.758 0-0.469-0.227-0.883-0.445-1.273-10.617-20.266-39.281-14.235-42.796-12.915-0.586 0.219-0.93 0.883-0.93 1.539 0 0.953 0.781 1.734 1.734 1.734 0.297 0 0.438-0.023 0.688-0.102 28.125-6.319 37.281 9.696 38.765 12.259zm4.883 1.828-35.961 22.687-32.734-83.625c29.297 3.883 66.547 26.641 68.695 60.938z"/>
   <g id="g12307">
    <path id="path4341-6" d="m21.521 339.31c3.281 0 5.945-2.664 5.945-5.938s-2.664-5.93-5.945-5.93c-3.273 0-5.938 2.656-5.938 5.93s2.664 5.938 5.938 5.938z"/>
    <path id="path4343-1" d="m47.63 366.23h-16.992c-2.5 0-4.68-1.484-5.656-3.633l-6.281-14.336c-0.125-0.484-0.188-0.977-0.188-1.484 0-3.445 2.789-6.227 6.219-6.227l13.805-0.023 9.469-4.297c0.148-0.102 0.539-0.195 0.953-0.195 1.625 0 2.953 1.344 2.953 2.953 0 1-0.508 1.906-1.266 2.438l-10.305 4.64c-0.68 0.539-1.977 0.609-1.977 0.609h-6.203l5.203 11.547h11.484c1.133 0 1.93 0.391 2.625 1.008l11.258 10.688c1.562 1.469 1.664 3.93 0.203 5.516-1.492 1.562-3.961 1.664-5.523 0.203l-9.781-9.407z"/>
   </g>
  </g>
 </g>
</svg>
