<?xml version="1.0" encoding="UTF-8" standalone="no"?>
<svg id="svg2" xmlns:rdf="http://www.w3.org/1999/02/22-rdf-syntax-ns#" xmlns="http://www.w3.org/2000/svg" height="400" width="300" version="1.0" xmlns:cc="http://creativecommons.org/ns#" xmlns:dc="http://purl.org/dc/elements/1.1/">
 <metadata id="metadata2913">
  <rdf:RDF>
   <cc:Work rdf:about="">
    <dc:format>image/svg+xml</dc:format>
    <dc:type rdf:resource="http://purl.org/dc/dcmitype/StillImage"/>
    <dc:title/>
   </cc:Work>
  </rdf:RDF>
 </metadata>
 <g id="g3251" transform="translate(0,80)">
  <g id="g4061">
   <path id="rect3262" d="m-100.92 113.33h30v5h-30zm3.2708 3.6777-15 25.981-4.3301-2.5 15-25.981zm-3.5238 1.0929-15-25.981 4.3301-2.5 15 25.981zm2.9412-5.0688-3 5.1962-69.282-40 3-5.1962zm-72.189-52.24 4.2188-7.3071-4.836-2.9364-4.2812 7.4153c-5.4353-1.6516-11.479 0.57005-14.441 5.6995-2.9625 5.1312-1.867 11.475 2.2844 15.356l-4.1292 7.2144 4.8985 2.8281 4.1292-7.2144c13.533 1.8616 20.61-10.152 12.156-21.055zm-2.0186 12.871c-2.07 3.5853-6.6598 4.8152-10.245 2.7452-3.5854-2.07-4.8152-6.6598-2.7452-10.245 2.07-3.5853 6.6598-4.8152 10.245-2.7452 3.5853 2.07 4.8152 6.6598 2.7452 10.245z" transform="rotate(240)" stroke-width="0"/>
  </g>
 </g>
</svg>
