<?xml version="1.0" encoding="UTF-8" standalone="no"?>
<!-- Created with Inkscape (http://www.inkscape.org/) -->

<svg
   xmlns:dc="http://purl.org/dc/elements/1.1/"
   xmlns:cc="http://creativecommons.org/ns#"
   xmlns:rdf="http://www.w3.org/1999/02/22-rdf-syntax-ns#"
   xmlns:svg="http://www.w3.org/2000/svg"
   xmlns="http://www.w3.org/2000/svg"
   xmlns:sodipodi="http://sodipodi.sourceforge.net/DTD/sodipodi-0.dtd"
   xmlns:inkscape="http://www.inkscape.org/namespaces/inkscape"
   width="300"
   height="400"
   id="svg2"
   version="1.1"
   inkscape:version="0.48.2 r9819"
   sodipodi:docname="Windsock.svg">
  <defs
     id="defs4" />
  <sodipodi:namedview
     id="base"
     pagecolor="#ffffff"
     bordercolor="#666666"
     borderopacity="1.0"
     inkscape:pageopacity="0.0"
     inkscape:pageshadow="2"
     inkscape:zoom="1.4760854"
     inkscape:cx="-17.125373"
     inkscape:cy="252.02381"
     inkscape:document-units="px"
     inkscape:current-layer="layer17"
     showgrid="true"
     inkscape:window-width="1920"
     inkscape:window-height="1088"
     inkscape:window-x="0"
     inkscape:window-y="0"
     inkscape:window-maximized="1"
     inkscape:snap-global="false"
     showguides="true"
     inkscape:guide-bbox="true">
    <inkscape:grid
       type="xygrid"
       id="grid3004"
       empspacing="5"
       visible="true"
       enabled="true"
       snapvisiblegridlinesonly="true" />
  </sodipodi:namedview>
  <metadata
     id="metadata7">
    <rdf:RDF>
      <cc:Work
         rdf:about="">
        <dc:format>image/svg+xml</dc:format>
        <dc:type
           rdf:resource="http://purl.org/dc/dcmitype/StillImage" />
        <dc:title />
      </cc:Work>
    </rdf:RDF>
  </metadata>
  <g
     inkscape:groupmode="layer"
     id="layer17"
     inkscape:label="Windsock"
     style="display:inline">
    <g
       id="g6510">
      <path
         sodipodi:nodetypes="cccccsccccccsc"
         inkscape:connector-curvature="0"
         id="path6311"
         d="m 163.70465,47.410545 c 2.13676,1.558746 33.72589,0.462985 39.38198,4.322711 19.67069,14.102856 80.63095,84.839864 81.19655,87.586204 1.63398,2.37522 -2.26244,9.38953 -4.39919,11.69053 -2.13676,2.26389 -8.1078,6.86587 -10.58948,6.86587 -0.80767,0 -15.91229,-14.78215 -31.90592,-29.02286 -15.99362,-14.24072 -32.97634,-27.61936 -32.62084,-29.633921 0.83116,-3.221444 23.76822,5.645331 24.21129,1.206161 -0.81699,-5.566906 -21.23343,-2.34447 -25.64102,-2.375205 -1.50829,0.03714 -6.55166,-2.430897 -6.8816,-2.987589 -2.63766,-3.332696 11.78356,-22.249116 7.88713,-23.733636 -4.5563,-1.558729 -5.6997,18.389934 -9.55253,21.080073 -0.2828,0.352565 -7.553,1.448502 -15.01226,1.987858 -10.1692,0.735289 -13.82742,0.0096 -16.09711,0.846573"
         style="fill:none;stroke:#000000;stroke-width:3;stroke-linecap:butt;stroke-linejoin:miter;stroke-miterlimit:4;stroke-opacity:1;stroke-dasharray:none" />
      <path
         transform="matrix(0.04706534,0,0,0.13299469,153.73584,26.365144)"
         d="m 287.44703,338.01642 a 78.781776,179.92056 0 1 1 -157.56355,0 78.781776,179.92056 0 1 1 157.56355,0 z"
         sodipodi:ry="179.92056"
         sodipodi:rx="78.781776"
         sodipodi:cy="338.01642"
         sodipodi:cx="208.66525"
         id="path6329"
         style="color:#000000;fill:none;stroke:#000000;stroke-width:37.91870499;stroke-linecap:butt;stroke-linejoin:miter;stroke-miterlimit:4;stroke-opacity:1;stroke-dasharray:none;stroke-dashoffset:0;marker:none;visibility:visible;display:inline;overflow:visible;enable-background:accumulate"
         sodipodi:type="arc" />
      <path
         id="rect6331"
         d="m 150.4185,42.785789 c -1.58106,0 -2.8539,0.435324 -2.8539,0.976073 l 0,52.42972 c 0,0.374607 0.6099,0.699047 1.51089,0.862788 l 0,88.16575 c 0,0.54075 0.56155,0.9761 1.25907,0.9761 0.69752,0 1.25906,-0.43535 1.25906,-0.9761 l 0,-88.13524 c 0.99116,-0.152712 1.67876,-0.49612 1.67876,-0.893298 l 0,-52.42972 c 0,-0.540749 -1.27284,-0.976073 -2.85388,-0.976073 z"
         style="color:#000000;fill:#000000;fill-opacity:1;stroke:#000000;stroke-width:0.99999994;stroke-linecap:butt;stroke-linejoin:miter;stroke-miterlimit:4;stroke-opacity:1;stroke-dasharray:none;stroke-dashoffset:0;marker:none;visibility:visible;display:inline;overflow:visible;enable-background:accumulate"
         inkscape:connector-curvature="0" />
      <path
         inkscape:connector-curvature="0"
         id="path6333"
         d="m 153.31291,52.10439 8.04424,0.07427"
         style="fill:none;stroke:#000000;stroke-width:1;stroke-linecap:butt;stroke-linejoin:miter;stroke-miterlimit:4;stroke-opacity:1;stroke-dasharray:none;display:inline" />
      <path
         inkscape:connector-curvature="0"
         id="path6340"
         d="m 153.28148,64.017597 c 7.19583,21.042952 7.19583,21.042952 7.19583,21.042952"
         style="fill:none;stroke:#000000;stroke-width:1;stroke-linecap:butt;stroke-linejoin:miter;stroke-miterlimit:4;stroke-opacity:1;stroke-dasharray:none" />
      <path
         inkscape:connector-curvature="0"
         id="path6342"
         d="m 153.25006,86.841958 c 7.22725,-1.558729 7.22725,-1.558729 7.22725,-1.558729"
         style="fill:none;stroke:#000000;stroke-width:1;stroke-linecap:butt;stroke-linejoin:miter;stroke-miterlimit:4;stroke-opacity:1;stroke-dasharray:none" />
      <path
         inkscape:connector-curvature="0"
         id="path6346"
         d="m 150.53768,88.946255 15.5535,-0.367403"
         style="fill:none;stroke:#000000;stroke-width:1;stroke-linecap:butt;stroke-linejoin:miter;stroke-miterlimit:4;stroke-opacity:1;stroke-dasharray:none" />
      <path
         inkscape:connector-curvature="0"
         id="path6353"
         d="m 150.29631,53.217759 15.8371,1.410292"
         style="fill:none;stroke:#000000;stroke-width:1;stroke-linecap:butt;stroke-linejoin:miter;stroke-miterlimit:4;stroke-opacity:1;stroke-dasharray:none" />
      <path
         inkscape:connector-curvature="0"
         id="path6355"
         d="M 166.07056,88.623384 150.2806,53.199206"
         style="fill:none;stroke:#000000;stroke-width:1;stroke-linecap:butt;stroke-linejoin:miter;stroke-miterlimit:4;stroke-opacity:1;stroke-dasharray:none" />
      <path
         inkscape:connector-curvature="0"
         id="path6444"
         d="m 197.42711,86.524157 c 1.21359,-5.83139 6.32637,-16.414504 7.38131,-15.278799 0.49627,0.53426 -3.79297,10.61608 -6.32351,14.863346 -1.48371,2.490293 -1.49011,2.492805 -1.0578,0.415453 z"
         style="fill:#000000;fill-opacity:1;stroke:none" />
      <path
         inkscape:connector-curvature="0"
         id="path6446"
         d="m 224.2137,100.81005 c -1.30041,-0.18162 -3.58555,-0.63458 -5.3792,-1.066259 -2.12161,-0.510617 -7.00229,-1.821387 -7.17225,-1.926197 -0.0976,-0.06017 0.90455,-0.136326 2.49648,-0.189702 6.80891,-0.228317 11.66823,0.573953 13.64219,2.252315 0.34565,0.293893 0.66433,0.722623 0.6029,0.811083 -0.0184,0.0265 -0.32036,0.106 -0.671,0.17665 -0.81616,0.16445 -2.07535,0.14374 -3.51912,-0.0579 l 0,0 z"
         style="fill:#000000;fill-opacity:1;stroke:none" />
      <circle
         transform="translate(6.0442914,0.041003)"
         id="circle5690-0-1"
         r="12.5"
         cy="200.00101"
         cx="144"
         class="st8"
         sodipodi:cx="144"
         sodipodi:cy="200.00101"
         sodipodi:rx="12.5"
         sodipodi:ry="12.5"
         style="fill:none;stroke:#000000;stroke-width:5"
         d="m 156.5,200.00101 c 0,6.90356 -5.59644,12.5 -12.5,12.5 -6.90356,0 -12.5,-5.59644 -12.5,-12.5 0,-6.90356 5.59644,-12.5 12.5,-12.5 6.90356,0 12.5,5.59644 12.5,12.5 z" />
      <line
         id="line5692-0-2"
         y2="200.04201"
         x2="187.5443"
         y1="200.04201"
         x1="162.5443"
         class="st8"
         style="fill:none;stroke:#000000;stroke-width:5" />
      <line
         id="line5694-1-0"
         y2="200.04201"
         x2="137.5443"
         y1="200.04201"
         x1="112.54429"
         class="st8"
         style="fill:none;stroke:#000000;stroke-width:5" />
    </g>
  </g>
</svg>
