<?xml version="1.0" encoding="UTF-8" standalone="no"?>
<svg
   xmlns:dc="http://purl.org/dc/elements/1.1/"
   xmlns:cc="http://creativecommons.org/ns#"
   xmlns:rdf="http://www.w3.org/1999/02/22-rdf-syntax-ns#"
   xmlns:svg="http://www.w3.org/2000/svg"
   xmlns="http://www.w3.org/2000/svg"
   xmlns:sodipodi="http://sodipodi.sourceforge.net/DTD/sodipodi-0.dtd"
   xmlns:inkscape="http://www.inkscape.org/namespaces/inkscape"
   version="1.0"
   width="300"
   height="400"
   id="svg2"
   inkscape:version="0.48.2 r9819"
   sodipodi:docname="Wind_Motor.svg"
   style="display:inline">
  <metadata
     id="metadata2913">
    <rdf:RDF>
      <cc:Work
         rdf:about="">
        <dc:format>image/svg+xml</dc:format>
        <dc:type
           rdf:resource="http://purl.org/dc/dcmitype/StillImage" />
        <dc:title />
      </cc:Work>
    </rdf:RDF>
  </metadata>
  <sodipodi:namedview
     pagecolor="#ffffff"
     bordercolor="#666666"
     borderopacity="1"
     objecttolerance="10"
     gridtolerance="10"
     guidetolerance="10"
     inkscape:pageopacity="0"
     inkscape:pageshadow="2"
     inkscape:window-width="1920"
     inkscape:window-height="1088"
     id="namedview2911"
     showgrid="true"
     inkscape:zoom="1.7321314"
     inkscape:cx="190.58882"
     inkscape:cy="150.2423"
     inkscape:window-x="0"
     inkscape:window-y="0"
     inkscape:window-maximized="1"
     inkscape:current-layer="g3251"
     inkscape:snap-grids="false">
    <inkscape:grid
       type="xygrid"
       id="grid2919"
       empspacing="5"
       visible="true"
       enabled="true"
       snapvisiblegridlinesonly="true" />
  </sodipodi:namedview>
  <defs
     id="defs4" />
  <g
     transform="translate(0,80)"
     style="display:inline"
     inkscape:label="Wind Motor"
     id="g3251"
     inkscape:groupmode="layer">
    <g
       id="g4061">
      <path
         id="rect3262"
         transform="matrix(-0.5,-0.8660254,0.8660254,-0.5,0,0)"
         style="fill:#000000;fill-opacity:1;stroke:#000000;stroke-width:0;stroke-miterlimit:4;stroke-opacity:1"
         d="m -100.91823,113.32708 30.000002,0 0,5 -30.000002,0 z m 3.270756,3.67768 -14.999996,25.98076 -4.33013,-2.5 15,-25.98076 z m -3.523766,1.09291 -15,-25.980767 4.33012,-2.5 15.000003,25.980767 z m 2.941153,-5.06875 -3.000003,5.19615 -69.28203,-39.999997 3,-5.196152 z m -72.188503,-52.240305 4.21875,-7.307089 -4.83596,-2.936378 -4.28125,7.415342 c -5.43533,-1.651623 -11.47918,0.57005 -14.44068,5.699497 -2.96247,5.131157 -1.867,11.474779 2.28443,15.355746 l -4.12923,7.214436 4.89846,2.828125 4.12923,-7.214436 c 13.53348,1.861643 20.6104,-10.151942 12.15625,-21.055243 z m -2.01863,12.871372 c -2.07,3.585345 -6.65985,4.81519 -10.24519,2.74519 -3.58535,-2.07 -4.81519,-6.659845 -2.74519,-10.24519 2.07,-3.585346 6.65984,-4.815191 10.24519,-2.745191 3.58534,2.07 4.81519,6.659846 2.74519,10.245191 z"
         inkscape:connector-curvature="0" />
    </g>
  </g>
</svg>
