<?xml version="1.0" encoding="UTF-8" standalone="no"?>
<!-- Created with Inkscape (http://www.inkscape.org/) -->
<svg id="svg2" xmlns:rdf="http://www.w3.org/1999/02/22-rdf-syntax-ns#" xmlns="http://www.w3.org/2000/svg" height="400" width="300" version="1.1" xmlns:cc="http://creativecommons.org/ns#" xmlns:dc="http://purl.org/dc/elements/1.1/">
 <metadata id="metadata7">
  <rdf:RDF>
   <cc:Work rdf:about="">
    <dc:format>image/svg+xml</dc:format>
    <dc:type rdf:resource="http://purl.org/dc/dcmitype/StillImage"/>
    <dc:title/>
   </cc:Work>
  </rdf:RDF>
 </metadata>
 <g id="layer17">
  <g id="g6510">
   <path id="path6311" d="m163.7 47.411c2.1368 1.5587 33.726 0.46298 39.382 4.3227 19.671 14.103 80.631 84.84 81.197 87.586 1.634 2.3752-2.2624 9.3895-4.3992 11.691-2.1368 2.2639-8.1078 6.8659-10.589 6.8659-0.80767 0-15.912-14.782-31.906-29.023s-32.976-27.619-32.621-29.634c0.83116-3.2214 23.768 5.6453 24.211 1.2062-0.81699-5.5669-21.233-2.3445-25.641-2.3752-1.5083 0.03714-6.5517-2.4309-6.8816-2.9876-2.6377-3.3327 11.784-22.249 7.8871-23.734-4.5563-1.5587-5.6997 18.39-9.5525 21.08-0.2828 0.35256-7.553 1.4485-15.012 1.9879-10.169 0.73529-13.827 0.0096-16.097 0.84657" stroke="#000" stroke-width="3" fill="none"/>
   <path id="path6329" style="color:#000000" d="m287.45 338.02a78.782 179.92 0 1 1 -157.56 0 78.782 179.92 0 1 1 157.56 0z" transform="matrix(.047065 0 0 .13299 153.74 26.365)" stroke="#000" stroke-width="37.919" fill="none"/>
   <path id="rect6331" style="color:#000000" d="m150.42 42.786c-1.5811 0-2.8539 0.43532-2.8539 0.97607v52.43c0 0.37461 0.6099 0.69905 1.5109 0.86279v88.166c0 0.54075 0.56155 0.9761 1.2591 0.9761 0.69752 0 1.2591-0.43535 1.2591-0.9761v-88.135c0.99116-0.15271 1.6788-0.49612 1.6788-0.8933v-52.43c0-0.54075-1.2728-0.97607-2.8539-0.97607z" stroke="#000"/>
   <path id="path6333" d="m153.31 52.104 8.0442 0.07427" stroke="#000" fill="none"/>
   <path id="path6340" d="m153.28 64.018l7.1958 21.043" stroke="#000" fill="none"/>
   <path id="path6342" d="m153.25 86.842l7.2272-1.5587" stroke="#000" fill="none"/>
   <path id="path6346" d="m150.54 88.946 15.554-0.3674" stroke="#000" fill="none"/>
   <path id="path6353" d="m150.3 53.218 15.837 1.4103" stroke="#000" fill="none"/>
   <path id="path6355" d="m166.07 88.623-15.79-35.424" stroke="#000" fill="none"/>
   <path id="path6444" d="m197.43 86.524c1.2136-5.8314 6.3264-16.415 7.3813-15.279 0.49627 0.53426-3.793 10.616-6.3235 14.863-1.4837 2.4903-1.4901 2.4928-1.0578 0.41545z"/>
   <path id="path6446" d="m224.21 100.81c-1.3004-0.18162-3.5856-0.63458-5.3792-1.0663-2.1216-0.51062-7.0023-1.8214-7.1722-1.9262-0.0976-0.06017 0.90455-0.13633 2.4965-0.1897 6.8089-0.22832 11.668 0.57395 13.642 2.2523 0.34565 0.29389 0.66433 0.72262 0.6029 0.81108-0.0184 0.0265-0.32036 0.106-0.671 0.17665-0.81616 0.16445-2.0754 0.14374-3.5191-0.0579z"/>
   <circle id="circle5690-0-1" stroke-width="5" d="m 156.5,200.00101 c 0,6.90356 -5.59644,12.5 -12.5,12.5 -6.90356,0 -12.5,-5.59644 -12.5,-12.5 0,-6.90356 5.59644,-12.5 12.5,-12.5 6.90356,0 12.5,5.59644 12.5,12.5 z" transform="translate(6.0443 .041003)" stroke="#000" cy="200" cx="144" r="12.5" class="st8" fill="none"/>
   <line id="line5692-0-2" stroke-width="5" y2="200.04" class="st8" y1="200.04" stroke="#000" x2="187.54" x1="162.54" fill="none"/>
   <line id="line5694-1-0" stroke-width="5" y2="200.04" class="st8" y1="200.04" stroke="#000" x2="137.54" x1="112.54" fill="none"/>
  </g>
 </g>
</svg>
