<?xml version="1.0" encoding="UTF-8" standalone="no"?>
<!-- Created with Inkscape (http://www.inkscape.org/) -->

<svg
   xmlns:dc="http://purl.org/dc/elements/1.1/"
   xmlns:cc="http://creativecommons.org/ns#"
   xmlns:rdf="http://www.w3.org/1999/02/22-rdf-syntax-ns#"
   xmlns:svg="http://www.w3.org/2000/svg"
   xmlns="http://www.w3.org/2000/svg"
   xmlns:sodipodi="http://sodipodi.sourceforge.net/DTD/sodipodi-0.dtd"
   xmlns:inkscape="http://www.inkscape.org/namespaces/inkscape"
   width="120"
   height="120"
   id="svg2"
   version="1.1"
   inkscape:version="0.48.2 r9819"
   sodipodi:docname="windsurfing.svg"
   style="display:inline">
  <defs
     id="defs4" />
  <sodipodi:namedview
     id="base"
     pagecolor="#ffffff"
     bordercolor="#666666"
     borderopacity="1.0"
     inkscape:pageopacity="0.0"
     inkscape:pageshadow="2"
     inkscape:zoom="3.959798"
     inkscape:cx="51.077222"
     inkscape:cy="54.362245"
     inkscape:document-units="px"
     inkscape:current-layer="g4333"
     showgrid="true"
     inkscape:window-width="1920"
     inkscape:window-height="1088"
     inkscape:window-x="0"
     inkscape:window-y="0"
     inkscape:window-maximized="1"
     inkscape:snap-global="false">
    <inkscape:grid
       type="xygrid"
       id="grid3004"
       empspacing="5"
       visible="true"
       enabled="true"
       snapvisiblegridlinesonly="true" />
  </sodipodi:namedview>
  <metadata
     id="metadata7">
    <rdf:RDF>
      <cc:Work
         rdf:about="">
        <dc:format>image/svg+xml</dc:format>
        <dc:type
           rdf:resource="http://purl.org/dc/dcmitype/StillImage" />
        <dc:title />
      </cc:Work>
    </rdf:RDF>
  </metadata>
  <g
     style="display:inline"
     inkscape:label="Wind Surfing"
     id="g4333"
     inkscape:groupmode="layer"
     transform="translate(0,-280)">
    <rect
       ry="20"
       rx="20"
       y="280"
       x="6.7761101e-07"
       height="120"
       width="120"
       id="rect4422-2"
       style="fill:#00213e;fill-opacity:1;stroke:none;display:inline" />
    <path
       id="path4339"
       d="m 109.05247,391.70312 c -2.125,0 -4.203,-0.492 -6.031,-1.32 -1.883,-0.883 -4.007997,-1.391 -6.226997,-1.391 -2.195,0 -4.32,0.508 -6.203,1.391 -1.852,0.828 -3.905997,1.32 -6.054997,1.32 -2.149,0 -4.195,-0.492 -6.031,-1.32 -1.875,-0.883 -4,-1.391 -6.227,-1.391 -2.195,0 -4.32,0.508 -6.219,1.391 -1.836,0.828 -3.883,1.32 -6.031,1.32 -2.148,0 -4.203,-0.492 -6.039,-1.32 -1.891,-0.883 -4.008,-1.391 -6.227,-1.391 -2.211,0 -4.32,0.508 -6.211,1.391 -1.844,0.828 -3.898,1.32 -6.047,1.32 -2.149,0 -4.195,-0.492 -6.039,-1.32 -1.883,-0.883 -4.008,-1.391 -6.211,-1.391 -2.227,0 -4.336,0.508 -6.219,1.391 -1.844,0.828 -3.891,1.32 -6.039,1.32 v -9.062 c 2.148,0 4.195,-0.484 6.039,-1.312 1.883,-0.859 3.992,-1.367 6.219,-1.367 2.203,0 4.328,0.508 6.211,1.367 1.844,0.828 3.891,1.312 6.039,1.312 2.148,0 4.203,-0.484 6.047,-1.312 1.891,-0.859 4,-1.367 6.211,-1.367 2.219,0 4.336,0.508 6.227,1.367 1.836,0.828 3.891,1.312 6.039,1.312 2.148,0 4.195,-0.484 6.031,-1.312 1.898,-0.859 4.023,-1.367 6.219,-1.367 2.227,0 4.352,0.508 6.227,1.367 1.836,0.828 3.883,1.312 6.031,1.312 2.148,0 4.202997,-0.484 6.054997,-1.312 1.883,-0.859 4.008,-1.367 6.203,-1.367 2.219,0 4.343997,0.508 6.226997,1.367 1.828,0.828 3.906,1.312 6.031,1.312 v 9.062 z"
       style="fill:#ffffff;fill-opacity:1"
       inkscape:connector-curvature="0" />
    <path
       id="path4341"
       d="m 21.521476,339.31212 c 3.281,0 5.945,-2.664 5.945,-5.938 0,-3.274 -2.664,-5.93 -5.945,-5.93 -3.273,0 -5.938,2.656 -5.938,5.93 0,3.274 2.664,5.938 5.938,5.938 z"
       style="fill:#ffffff;fill-opacity:1"
       inkscape:connector-curvature="0" />
    <path
       id="path4343"
       d="m 47.630476,366.23412 h -16.992 c -2.5,0 -4.68,-1.484 -5.656,-3.633 l -6.281,-14.336 c -0.125,-0.484 -0.188,-0.977 -0.188,-1.484 0,-3.445 2.789,-6.227 6.219,-6.227 l 13.805,-0.023 9.469,-4.297 c 0.148,-0.102 0.539,-0.195 0.953,-0.195 1.625,0 2.953,1.344 2.953,2.953 0,1 -0.508,1.906 -1.266,2.438 l -10.305,4.64 c -0.68,0.539 -1.977,0.609 -1.977,0.609 h -6.203 l 5.203,11.547 h 11.484 l 0,0 c 1.133,0 1.93,0.391 2.625,1.008 l 11.258,10.688 0,0 c 1.562,1.469 1.664,3.93 0.203,5.516 -1.492,1.562 -3.961,1.664 -5.523,0.203 l 0,0 -9.781,-9.407 z"
       style="fill:#ffffff;fill-opacity:1"
       inkscape:connector-curvature="0" />
    <path
       id="path4345"
       d="m 100.57547,346.82812 c 0.219,0.367 0.758,0.516 1.25,0.516 0.953,0 1.734,-0.781 1.734,-1.758 0,-0.469 -0.227,-0.883 -0.445,-1.273 -10.616997,-20.266 -39.280994,-14.235 -42.795994,-12.915 -0.586,0.219 -0.93,0.883 -0.93,1.539 0,0.953 0.781,1.734 1.734,1.734 0.297,0 0.438,-0.023 0.688,-0.102 28.124997,-6.319 37.280997,9.696 38.764994,12.259 z m 4.883,1.828 -35.960994,22.687 -32.734,-83.625 c 29.297,3.883 66.546994,26.641 68.694994,60.938 z"
       style="fill:#ffffff;fill-opacity:1"
       inkscape:connector-curvature="0" />
    <g
       id="g12311">
      <path
         inkscape:connector-curvature="0"
         style="fill:#ffffff;fill-opacity:1"
         d="m 100.57547,346.82812 c 0.219,0.367 0.758,0.516 1.25,0.516 0.953,0 1.734,-0.781 1.734,-1.758 0,-0.469 -0.227,-0.883 -0.445,-1.273 -10.616997,-20.266 -39.280994,-14.235 -42.795994,-12.915 -0.586,0.219 -0.93,0.883 -0.93,1.539 0,0.953 0.781,1.734 1.734,1.734 0.297,0 0.438,-0.023 0.688,-0.102 28.124997,-6.319 37.280997,9.696 38.764994,12.259 z m 4.883,1.828 -35.960994,22.687 -32.734,-83.625 c 29.297,3.883 66.546994,26.641 68.694994,60.938 z"
         id="path4345-2" />
      <g
         id="g12307">
        <path
           id="path4341-6"
           d="m 21.521476,339.31212 c 3.281,0 5.945,-2.664 5.945,-5.938 0,-3.274 -2.664,-5.93 -5.945,-5.93 -3.273,0 -5.938,2.656 -5.938,5.93 0,3.274 2.664,5.938 5.938,5.938 z"
           style="fill:#ffffff;fill-opacity:1"
           inkscape:connector-curvature="0" />
        <path
           id="path4343-1"
           d="m 47.630476,366.23412 h -16.992 c -2.5,0 -4.68,-1.484 -5.656,-3.633 l -6.281,-14.336 c -0.125,-0.484 -0.188,-0.977 -0.188,-1.484 0,-3.445 2.789,-6.227 6.219,-6.227 l 13.805,-0.023 9.469,-4.297 c 0.148,-0.102 0.539,-0.195 0.953,-0.195 1.625,0 2.953,1.344 2.953,2.953 0,1 -0.508,1.906 -1.266,2.438 l -10.305,4.64 c -0.68,0.539 -1.977,0.609 -1.977,0.609 h -6.203 l 5.203,11.547 h 11.484 l 0,0 c 1.133,0 1.93,0.391 2.625,1.008 l 11.258,10.688 0,0 c 1.562,1.469 1.664,3.93 0.203,5.516 -1.492,1.562 -3.961,1.664 -5.523,0.203 l 0,0 -9.781,-9.407 z"
           style="fill:#ffffff;fill-opacity:1"
           inkscape:connector-curvature="0" />
      </g>
    </g>
  </g>
</svg>
