<?xml version="1.0" encoding="UTF-8" standalone="no"?>
<!-- Created with Inkscape (http://www.inkscape.org/) -->
<svg id="svg2" xmlns:rdf="http://www.w3.org/1999/02/22-rdf-syntax-ns#" xmlns="http://www.w3.org/2000/svg" height="120" width="120" version="1.1" xmlns:cc="http://creativecommons.org/ns#" xmlns:xlink="http://www.w3.org/1999/xlink" xmlns:dc="http://purl.org/dc/elements/1.1/">
 <defs id="defs4">
  <filter id="filter6987-3" height="1.8383" width="1.2322" y="-.41915" x="-.11609">
   <feGaussianBlur id="feGaussianBlur6989-1" stdDeviation="3.6772358"/>
  </filter>
  <linearGradient id="linearGradient77479" y2="78.67" gradientUnits="userSpaceOnUse" x2="49.273" y1="1.7417" x1="38.536">
   <stop id="stop6900-57" stop-color="#40c0ff" offset="0"/>
   <stop id="stop6902-23" stop-color="#fff" offset="1"/>
  </linearGradient>
  <linearGradient id="linearGradient77481" y2="69.835" gradientUnits="userSpaceOnUse" x2="4.4643" gradientTransform="translate(-2)" y1="73.228" x1="70.179">
   <stop id="stop6970-4" stop-color="#00213e" offset="0"/>
   <stop id="stop6972-3" stop-color="#0090be" offset="1"/>
  </linearGradient>
  <clipPath id="clipPath77505" clipPathUnits="userSpaceOnUse">
   <rect id="rect77507" rx="20" ry="20" height="80" width="80" y="20" x="20" fill="none"/>
  </clipPath>
 </defs>
 <metadata id="metadata7">
  <rdf:RDF>
   <cc:Work rdf:about="">
    <dc:format>image/svg+xml</dc:format>
    <dc:type rdf:resource="http://purl.org/dc/dcmitype/StillImage"/>
    <dc:title/>
   </cc:Work>
  </rdf:RDF>
 </metadata>
 <g id="g6761">
  <g id="g77483" clip-path="url(#clipPath77505)">
   <g id="g77461" transform="translate(157.5 7.1429)">
    <g id="layer4-08" fill-rule="evenodd" transform="translate(-136.94 13.93)">
     <rect id="rect6895-6" rx="21.095" ry="18.56" height="75.928" width="75.473" y="2.2417" x="2.0717" fill="url(#linearGradient77479)"/>
     <path id="rect6906-2" d="m16.996 2.8308 36.999 2.6482c11.687 0 13.201 3.9669 16.403 6.4466l5.6374 7.3726c0 2.2054-18.081 2.7004-29.097 1.1449l-25.351 1.574c-12.744 1.881-21.751-0.397-21.884-3.152l3.8435-9.2488c1.647-2.602 1.7628-6.7864 13.45-6.7864z" transform="matrix(1.1723 -.14333 .10041 1.6735 -5.0901 -7.793)" filter="url(#filter6987-3)" fill="#f6fcff"/>
    </g>
    <g id="layer2-06" transform="translate(-136.94 13.93)">
     <path id="rect6955-5" d="m4.2738 65.179c22.924 1.9005 63.049 4.1915 71.917 0.6482l-4.6191 6.6209c-2.5 2.3286-18.486 6.838-8.4166 4.6952l-46.381 0.35714c-1.0025 0-9.1233-5.4023-11.98-7.1952l-2.3297-3.824c0-0.72148 0.80703-1.3023 1.8095-1.3023z" fill-rule="evenodd" fill="url(#linearGradient77481)"/>
    </g>
    <g id="layer3-86" stroke-linejoin="round" fill-rule="evenodd" transform="translate(-136.94 13.93)">
     <g id="g40389">
      <path id="path40391" d="m15.717 59h49.606l-24.803-49.606-24.803 49.606z" stroke="#ff4000" stroke-width="4" fill="#ffa82d"/>
      <g id="g40393" transform="matrix(1.3846 0 0 1 -16.348 2.4643)" stroke="#fff" stroke-width="1.6997" fill="#fff">
       <rect id="rect40395" height="19.107" rx="0" ry="15.357" width="3.5714" y="22.321" x="39.286"/>
       <rect id="rect40397" height="4.4643" rx="0" ry="15.357" width="3.5714" y="46.071" x="39.286"/>
      </g>
     </g>
     <g id="g40383" transform="translate(-.52015)">
      <path id="path32345" d="m15.717 59h49.606l-24.803-49.606-24.803 49.606z" stroke="#ff4000" stroke-width="4" fill="#ffa82d"/>
      <g id="g32351" transform="matrix(1.3846 0 0 1 -16.348 2.4643)" stroke="#fff" stroke-width="1.6997" fill="#fff">
       <rect id="rect32347" height="19.107" rx="0" ry="15.357" width="3.5714" y="22.321" x="39.286"/>
       <rect id="rect32349" height="4.4643" rx="0" ry="15.357" width="3.5714" y="46.071" x="39.286"/>
      </g>
     </g>
    </g>
   </g>
   <rect id="rect7024-8" rx="20" ry="20" height="76" width="76" stroke="#00213e" y="22" x="22" stroke-width="4" fill="none"/>
  </g>
 </g>
</svg>
