<?xml version="1.0" encoding="UTF-8" standalone="no"?>
<!-- Created with Inkscape (http://www.inkscape.org/) -->
<svg id="svg2" xmlns:rdf="http://www.w3.org/1999/02/22-rdf-syntax-ns#" xmlns="http://www.w3.org/2000/svg" height="120" width="120" version="1.1" xmlns:cc="http://creativecommons.org/ns#" xmlns:xlink="http://www.w3.org/1999/xlink" xmlns:dc="http://purl.org/dc/elements/1.1/">
 <defs id="defs4">
  <filter id="filter6987-34" height="1.8383" width="1.2322" y="-.41915" x="-.11609">
   <feGaussianBlur id="feGaussianBlur6989-3" stdDeviation="3.6772358"/>
  </filter>
  <linearGradient id="linearGradient6960-8">
   <stop id="stop6962-2" stop-color="#0080c0" offset="0"/>
   <stop id="stop6964-5" stop-color="#00213e" offset="1"/>
  </linearGradient>
  <linearGradient id="linearGradient88077" y2="78.67" gradientUnits="userSpaceOnUse" x2="49.273" y1="1.7417" x1="38.536">
   <stop id="stop6900-01" stop-color="#40c0ff" offset="0"/>
   <stop id="stop6902-3" stop-color="#fff" offset="1"/>
  </linearGradient>
  <linearGradient id="linearGradient88079" y2="53.016" xlink:href="#linearGradient6960-8" gradientUnits="userSpaceOnUse" x2="48.571" gradientTransform="translate(32)" y1="51.215" x1="6.9553"/>
  <linearGradient id="linearGradient88081" y2="69.835" gradientUnits="userSpaceOnUse" x2="4.4643" gradientTransform="translate(-2)" y1="73.228" x1="70.179">
   <stop id="stop6970-5" stop-color="#00213e" offset="0"/>
   <stop id="stop6972-8" stop-color="#0090be" offset="1"/>
  </linearGradient>
  <linearGradient id="linearGradient88083" y2="51.753" xlink:href="#linearGradient6960-8" gradientUnits="userSpaceOnUse" x2="40.743" gradientTransform="translate(32 1.4361e-7)" y1="44.551" x1="-24.359"/>
  <clipPath id="clipPath88098" clipPathUnits="userSpaceOnUse">
   <rect id="rect88100" rx="20" ry="20" height="80" width="80" y="20" x="20" fill="none"/>
  </clipPath>
 </defs>
 <metadata id="metadata7">
  <rdf:RDF>
   <cc:Work rdf:about="">
    <dc:format>image/svg+xml</dc:format>
    <dc:type rdf:resource="http://purl.org/dc/dcmitype/StillImage"/>
    <dc:title/>
   </cc:Work>
  </rdf:RDF>
 </metadata>
 <g id="layer5">
  <g id="g88085" clip-path="url(#clipPath88098)">
   <g id="g88068" fill-rule="evenodd" transform="translate(166.07 10)">
    <g id="layer4-8" transform="translate(-145.51 10.359)">
     <rect id="rect6895-3" rx="21.095" ry="18.56" height="75.928" width="75.473" y="2.2417" x="2.0717" fill="url(#linearGradient88077)"/>
     <path id="rect6906-1" d="m16.996 2.8308 36.999 2.6482c11.687 0 13.201 3.9669 16.403 6.4466l5.6374 7.3726c0 2.2054-18.081 2.7004-29.097 1.1449l-25.351 1.574c-12.744 1.881-21.751-0.397-21.884-3.152l3.8435-9.2488c1.647-2.602 1.7628-6.7864 13.45-6.7864z" transform="matrix(1.1723 -.14333 .10041 1.6735 -5.0901 -7.793)" filter="url(#filter6987-34)" fill="#f6fcff"/>
    </g>
    <g id="layer2-68" transform="translate(-145.51 10.359)">
     <path id="path6958-77" d="m69.762 39.643c-6.4001-0.9753-15.883 1.4631-20.971 5.7143-4.4771 3.7412-4.0127 4.1778-8.8241 12.079-2.2998 3.7769-5.8423 8.8699-9.9662 8.8249-11.864-0.127-3.853 6.248 5.552 6.147 17.464 3.464 33.127 0.917 37.226-5.352-14.23-3.742-13.541-14.466-3.017-27.413z" fill="url(#linearGradient88079)"/>
     <path id="rect6955-21" d="m4.2738 65.179c22.924 1.9005 63.049 4.1915 71.917 0.6482l-4.6191 6.6209c-2.5 2.3286-18.486 6.838-8.4166 4.6952l-46.381 0.35714c-1.0025 0-9.1233-5.4023-11.98-7.1952l-2.3297-3.824c0-0.72148 0.80703-1.3023 1.8095-1.3023z" fill="url(#linearGradient88081)"/>
     <path id="path55062" d="m53.212 13.377c-10.519-1.721-26.104 2.583-34.465 10.087-7.358 6.605-8.8472 6.32-14.502 21.324-3.2749 8.687-2.4267 10.324-0.9746 16.336 1.7392 7.2 2.7604 7.744 5.8421 12.366 28.702 6.115 53.434 5.658 60.17-5.408-32.225-8.625-39.68-32.354-16.07-54.705z" fill="url(#linearGradient88083)"/>
    </g>
   </g>
   <rect id="rect7024" rx="20" ry="20" height="76" width="76" stroke="#00213e" y="22" x="22" stroke-width="4" fill="none"/>
  </g>
 </g>
</svg>
