<svg
   xmlns="http://www.w3.org/2000/svg"
   xmlns:xlink="http://www.w3.org/1999/xlink"  
   version="1.1"
   width="200"
   height="200">
  <symbol id="fishing_harbour" width="200" height="200">
    <path d="m 95.838712,19.352629 -10.266189,1.06702 -10.088351,2.35572 -9.645523,3.5119 -8.982537,4.75626 -8.052545,5.91145 -6.947235,7.06764 -6.017746,7.91249 -5.353249,8.5785 -5.044428,8.84601 6.017746,3.51191 2.256466,-3.77841 5.398086,-8.62384 5.840413,-8.1785 6.681738,-7.37898 7.69939,-6.31246 8.760871,-5.02226 9.513026,-3.73458 10.088352,-2.35571 10.398177,-0.93402 10.443016,0.48968 10.26468,1.91087 9.77903,3.33406 8.98203,4.62276 7.96539,5.91145 6.7699,7.06814 5.70792,8.08983 4.91093,8.712 4.38093,9.29035 4.15928,9.46819 8.00871,6.08929 -1.7698,-9.37902 -2.56781,-9.7352 -3.84844,-9.42335 -5.13309,-8.84601 -6.28324,-8.08983 -7.34523,-7.28981 -8.14172,-6.22329 -8.89336,-5.11194 -9.42436,-3.86707 -9.82286,-2.66705 -10.13269,-1.37786 -10.257113,-0.17129 z m -71.900602,55.02875 -2.212637,10.17903 -1.50431,9.95737 L 20,104.43031 l 1.283148,9.91152 2.123969,9.95787 37.168461,-20.6694 8.583537,5.0681 8.760871,5.02277 8.983041,4.44492 9.42436,3.46706 9.823353,2.13405 10.04452,0.93301 10.17703,-0.0887 10.13218,-1.20002 9.77902,-2.44539 9.24753,-3.77841 8.58405,-5.11194 8.05304,-6.00011 7.83189,-6.48979 -7.52206,-6.223291 -8.05305,-5.95629 -8.62887,-4.97893 -9.29187,-3.68924 -9.82285,-2.40055 -10.13319,-1.28919 -10.17702,-0.22218 -10.08785,0.80002 -9.822853,2.08921 -9.336197,3.46707 -8.982537,4.62275 -8.805708,4.88977 -8.760871,4.88976 -36.655605,-21.2145 z m 124.90916,18.1817 c 3.90738,0 7.07872,3.18596 7.07872,7.111981 0,3.92551 -3.17134,7.11197 -7.07872,7.11197 -3.90839,0 -7.08023,-3.18595 -7.08023,-7.11197 0,-3.929551 3.17386,-7.113491 7.07822,-7.113491 z m 31.1492,14.624971 -8.5397,6.53463 -1.85797,5.28876 -3.62879,9.51252 -4.24743,9.11302 -5.35476,8.35684 -6.72507,7.42281 -7.96488,6.40062 -8.89337,5.2006 -9.55786,3.86758 -9.8672,2.48871 -10.04452,1.11186 -10.132681,-0.2665 -10.000189,-1.6897 -9.778522,-2.97739 -9.336197,-4.31242 -8.584545,-5.51094 -7.477219,-6.66763 -6.327576,-7.77949 -5.353753,-8.53367 -4.867598,-8.93467 -6.017243,3.5114 0.575326,1.24486 4.645932,8.98002 5.309924,8.53416 6.371909,7.73415 7.522056,6.80114 8.407212,5.77895 9.0707,4.71142 9.601693,3.46657 9.911522,2.40155 10.088352,1.02219 10.132177,-0.22217 9.95636,-1.51086 9.68986,-2.84539 9.24753,-4.04441 8.80571,-5.15627 8.09738,-6.17846 7.25606,-7.1563 6.19457,-7.95733 4.77893,-8.75634 3.62778,-9.33468 2.83229,-9.7347 2.42826,-9.91454 z"
     style="fill:#a30075" />
  </symbol>
  <use xlink:href="#fishing_harbour" x="0" y="0" />
</svg>
