<svg
   xmlns="http://www.w3.org/2000/svg"
   xmlns:xlink="http://www.w3.org/1999/xlink"  
   version="1.1"
   width="70"
   height="100">
  <symbol id="harbour_master" width="70" height="100">
    <path d="M 68.000001,50.000003 C 68.000001,76.499315 53.217821,98 35,98 16.78218,98 2,76.499315 2,50.000003 2,23.500691 16.78218,2.0000056 35,2.0000056 c 18.217821,0 33.000001,21.5006854 33.000001,47.9999974 z"
     style="fill:none;stroke:#000000;stroke-width:4" />
    <path d="m 34.655817,10.551305 c -3.78108,0 -7.02573,4.012233 -7.02573,9.210524 0,3.20873 1.2621,5.949643 3.09853,7.589477 -2.24599,-0.03059 -4.49199,-0.05453 -6.7375,-0.11053 0,2.783291 0,4.905712 0,7.589477 2.61813,0 5.23627,0 7.85441,0 l -0.68456,40.047371 c -3.9754,-0.794178 -7.51732,-2.821924 -10.34044,-5.71053 0.70061,-0.856219 1.39437,-1.718248 2.0897,-2.578947 -4.30033,-4.514454 -8.81099,-9.269218 -12.5022,-13.18947 0.90806,9.443945 1.66085,16.930942 2.55809,25.605258 1.3814,-1.753675 2.78114,-3.491985 4.17941,-5.231576 3.90018,5.507425 8.83012,8.933253 14.0875,10.021053 0.17272,1.741166 0.29585,3.484978 0.39632,5.231576 2.36891,0 4.18964,0 6.41324,0 0.13169,-1.719333 0.26408,-3.43861 0.39632,-5.157894 3.40392,-0.688513 6.7416,-2.3121 9.83603,-5.084212 1.582517,-1.418221 2.926503,-3.043768 4.179414,-4.78947 1.258364,1.681883 2.53968,3.345419 3.819114,5.010523 1.054935,-8.495578 1.954546,-17.514721 2.810037,-24.87947 -4.627634,4.412485 -8.276879,8.188201 -12.285775,12.39 0.67108,0.897645 1.34394,1.79389 2.01765,2.68947 -2.81468,2.877875 -6.34798,4.879273 -10.30441,5.673689 l -0.64853,-40.047371 c 2.60613,0 5.21225,0 7.81838,0 0,-2.769214 0,-4.881205 0,-7.552629 l -1.4772,0 -5.54853,0.03682 c 1.78984,-1.653967 2.99044,-4.392675 2.99044,-7.552636 0,-5.198949 -3.21254,-9.210524 -6.98971,-9.210524 z m 0,4.200001 c 2.35724,0 4.07133,2.327472 4.07133,5.010523 0,2.225769 -1.17944,4.228658 -2.95442,4.863159 l -1.00882,0.368424 -1.11691,-0.331583 c -1.8433,-0.57645 -3.09853,-2.621913 -3.09853,-4.9 0,-2.684409 1.74364,-5.010523 4.10735,-5.010523 z"
     style="fill:#000000;fill-opacity:1;stroke:none" />
  </symbol>
  <use xlink:href="#harbour_master" x="0" y="0" />
</svg>
