<svg
   xmlns="http://www.w3.org/2000/svg"
   xmlns:xlink="http://www.w3.org/1999/xlink"  
   version="1.1"
   width="200"
   height="200">
  <symbol id="harbour" width="200" height="200">
    <path d="m 99.893305,33.031302 c -7.4571,0 -13.8125,5.5209 -13.8125,12.625 0,5.2262 3.5649,9.4724 8.3437,11.4062 -5.2396,-0.049 -10.4788,-0.1562 -15.718705,-0.1562 0,3.5764 0,6.3012 0,9.7187 5.333305,0 10.666605,0 16.000005,0 L 93.299505,125 c -8.6844,-1.1186 -16.414205,-4.2272 -22.468705,-8.7187 1.4206,-1.2471 2.8515,-2.4823 4.2812,-3.7188 -8.2528,-6.0708 -16.8968,-12.4323 -24,-17.687498 1.7941,12.614098 3.2187,22.821198 4.9063,34.312498 2.6928,-2.3943 5.428,-4.74 8.1562,-7.0937 8.0302,8.0993 18.316705,13.1006 29.250005,14.5937 0.2931,2.4457 0.5674,4.8929 0.8125,7.3438 4.4679,0 7.934505,0 12.093795,0 0.2791,-2.4158 0.5439,-4.8331 0.8125,-7.25 7.00531,-0.9373 13.9453,-3.2885 20.3125,-7.2813 3.3496,-2.1013 6.1958,-4.4869 8.8125,-7.0937 2.4585,2.2706 4.9167,4.5415 7.375,6.8125 0.016,-0.023 5.2996,-32.875298 5.2996,-32.875298 0,0 -18.9362,12.898698 -23.4246,16.125298 1.4001,1.2654 2.7781,2.5545 4.1562,3.8437 -6.0358,4.4653 -13.7405,7.5709 -22.375,8.6875 l -1.4062,-58.374998 c 5.3333,0 10.6666,0 16,0 0,-3.5751 0,-6.2986 0,-9.7187 -5.3959,6e-4 -10.7917,0.038 -16.1875,0.062 4.5991,-2.0094 7.9687,-6.2117 7.9687,-11.3125 0,-7.1048 -6.3326,-12.625 -13.781195,-12.625 z m 0,4.9062 c 5.070495,0 8.874995,3.5635 8.874995,7.7188 0,3.4482 -2.6061,6.4787 -6.43749,7.4375 l -2.311,0.4642 0,0.01 -2.312005,-0.4067 c -4.0094,-0.7045 -6.7188,-3.9709 -6.7188,-7.5 0,-4.157 3.823,-7.7188 8.9063,-7.7188 z"
     style="font-size:medium;font-style:normal;font-variant:normal;font-weight:normal;font-stretch:normal;text-indent:0;text-align:start;text-decoration:none;line-height:normal;letter-spacing:normal;word-spacing:normal;text-transform:none;direction:ltr;block-progression:tb;writing-mode:lr-tb;text-anchor:start;baseline-shift:baseline;color:#000000;fill:#a30075;fill-opacity:1;fill-rule:nonzero;stroke:none;stroke-width:4.90100002;marker:none;visibility:visible;display:inline;overflow:visible;enable-background:accumulate;font-family:Sans;-inkscape-font-specification:Sans" />
    <path d="m 172.5,90 c 0,40.025 -32.476,72.5 -72.5,72.5 -40.024,0 -72.5,-32.475 -72.5,-72.5 0,-40.024997 32.476,-72.5 72.5,-72.5 40.024,0 72.5,32.475003 72.5,72.5 z"
     style="fill:none;stroke:#a30075;stroke-width:15" />
  </symbol>
  <use xlink:href="#harbour" x="0" y="0" />
</svg>
