<svg
   xmlns="http://www.w3.org/2000/svg"
   xmlns:xlink="http://www.w3.org/1999/xlink"  
   version="1.0"
   width="60"
   height="60">
  <pattern id="kelp" width="60" height="60" x="0" y="0" patternUnits="userSpaceOnUse">
    <path fill="none" stroke="#000000" stroke-width="1" stroke-linecap="round"
      d="M0,15 C10,10,11,25,21,20 M0,15 Q3,20,7,18 M6,14 Q9,9,14,11 Q17,7,20,9
      M14,11 Q17,15,20,13 M13,19 Q18,15,24,17 Q27,21,30,19 M24,17 Q27,13,30,15
      M30,45 C40,40,41,55,51,50 M30,45 Q33,50,37,48 M36,44 Q39,39,44,41 Q47,37,50,39
      M44,41 Q47,45,50,43 M43,49 Q48,45,54,47 Q57,51,60,49 M54,47 Q57,43,60,45"/>
  </pattern>
  <rect width="60" height="60" x="0" y="0" style="fill:url(#kelp)"/>
</svg>
