<svg
   xmlns="http://www.w3.org/2000/svg"
   xmlns:xlink="http://www.w3.org/1999/xlink"  
   version="1.0"
   width="300"
   height="400">
  <symbol id="marina_nf" width="300" height="400">
    <path
     d="m 84.221,250.34 61.949,0 1.9909,-114.04 2.9948,0 0.49374,23.344 24.491,-11.69 -0.14135,10.152 0.35189,10.135 1.1985,10.064 2.396,9.8315 3.5418,9.5095 4.3864,9.134 5.0399,8.8125 6.0438,8.0427 6.1668,6.4177 -51.977,10.135 0,10.153 62.441,0 -6.766,7.544 -7.1184,7.1306 -7.7002,6.3463 -8.5986,5.2021 -9.2845,3.9694 -9.7971,2.7533 -10.026,1.5012 -10.095,0.24912 -9.9897,-0.9825 -9.7608,-2.2526 -9.4801,-3.5391 -8.9853,-4.7358 -8.2283,-5.8805 -7.2757,-6.9893 -6.3265,-7.7921 -1.9356,-2.5232 z m 15.487,-5.595 -0.63459,-10.189 -0.10602,-10.117 0.96856,-10.028 2.3786,-9.831 3.595,-9.527 4.5974,-9.1335 5.462,-8.5804 6.3962,-7.7936 7.3996,-6.7212 8.176,-5.8635 5.2156,-3.4318 -5.3923,8.5619 -4.6512,8.9378 -3.4532,9.5264 -2.2387,9.9393 -1.1273,10.136 0.0518,10.135 1.3389,10.03 1.9909,9.2594 -29.967,14.691"
     style="fill:#a30075" />
  </symbol>
  <use xlink:href="#marina_nf" x="0" y="0" />
</svg>
