<svg
   xmlns="http://www.w3.org/2000/svg"
   xmlns:xlink="http://www.w3.org/1999/xlink"  
   version="1.1"
   width="150"
   height="150">
  <symbol id="marine_farm" width="150" height="150">
    <path d="M 5,40 L 5,5 145,5 145,40 M 52,5 L 52,30 M 98,5 L 98,30" style="fill:none;stroke:#000000;stroke-width:4"/>
    <path d="M 5,110 L 5,145 145,145 145,110 M 52,145 L 52,120 M 98,145 L 98,120" style="fill:none;stroke:#000000;stroke-width:4"/>
    <path d="M 10,100 A 90,90 0 0 1 140,75 M 10,50 A 90,90 0 0 0 140,75 M 95,57 A 50,50 0 0 0 95,93" style="fill:none;stroke:#000000;stroke-width:4"/>
    <circle cx="110" cy="75" r="5" style="fill:#000000;stroke:none"/>
  </symbol>
  <use xlink:href="#marine_farm" x="0" y="0" />
</svg>
