<?xml version="1.0" encoding="UTF-8" standalone="no"?>
<svg
   xmlns:dc="http://purl.org/dc/elements/1.1/"
   xmlns:cc="http://creativecommons.org/ns#"
   xmlns:rdf="http://www.w3.org/1999/02/22-rdf-syntax-ns#"
   xmlns:svg="http://www.w3.org/2000/svg"
   xmlns="http://www.w3.org/2000/svg"
   xmlns:sodipodi="http://sodipodi.sourceforge.net/DTD/sodipodi-0.dtd"
   xmlns:inkscape="http://www.inkscape.org/namespaces/inkscape"
   version="1.0"
   width="320"
   height="340"
   id="svg2"
   inkscape:version="0.47 r22583"
   sodipodi:docname="floats.svg"
   style="display:inline">
  <metadata
     id="metadata2913">
    <rdf:RDF>
      <cc:Work
         rdf:about="">
        <dc:format>image/svg+xml</dc:format>
        <dc:type
           rdf:resource="http://purl.org/dc/dcmitype/StillImage" />
        <dc:title />
      </cc:Work>
    </rdf:RDF>
  </metadata>
  <sodipodi:namedview
     pagecolor="#ffffff"
     bordercolor="#666666"
     borderopacity="1"
     objecttolerance="10"
     gridtolerance="10"
     guidetolerance="10"
     inkscape:pageopacity="0"
     inkscape:pageshadow="2"
     inkscape:window-width="1920"
     inkscape:window-height="1088"
     id="namedview2911"
     showgrid="true"
     inkscape:zoom="2.0097301"
     inkscape:cx="98.925699"
     inkscape:cy="213.9373"
     inkscape:window-x="1440"
     inkscape:window-y="0"
     inkscape:window-maximized="0"
     inkscape:current-layer="layer8"
     inkscape:snap-grids="false">
    <inkscape:grid
       type="xygrid"
       id="grid2919"
       empspacing="5"
       visible="true"
       enabled="true"
       snapvisiblegridlinesonly="true" />
  </sodipodi:namedview>
  <defs
     id="defs4">
    <inkscape:perspective
       sodipodi:type="inkscape:persp3d"
       inkscape:vp_x="0 : 160 : 1"
       inkscape:vp_y="0 : 1000 : 0"
       inkscape:vp_z="320 : 160 : 1"
       inkscape:persp3d-origin="160 : 106.66667 : 1"
       id="perspective2915" />
    <inkscape:perspective
       id="perspective2862"
       inkscape:persp3d-origin="160 : 106.66667 : 1"
       inkscape:vp_z="320 : 160 : 1"
       inkscape:vp_y="0 : 1000 : 0"
       inkscape:vp_x="0 : 160 : 1"
       sodipodi:type="inkscape:persp3d" />
    <inkscape:perspective
       id="perspective2933"
       inkscape:persp3d-origin="160 : 106.66667 : 1"
       inkscape:vp_z="320 : 160 : 1"
       inkscape:vp_y="0 : 1000 : 0"
       inkscape:vp_x="0 : 160 : 1"
       sodipodi:type="inkscape:persp3d" />
    <inkscape:perspective
       id="perspective2989"
       inkscape:persp3d-origin="160 : 106.66667 : 1"
       inkscape:vp_z="320 : 160 : 1"
       inkscape:vp_y="0 : 1000 : 0"
       inkscape:vp_x="0 : 160 : 1"
       sodipodi:type="inkscape:persp3d" />
    <inkscape:perspective
       id="perspective3073"
       inkscape:persp3d-origin="160 : 106.66667 : 1"
       inkscape:vp_z="320 : 160 : 1"
       inkscape:vp_y="0 : 1000 : 0"
       inkscape:vp_x="0 : 160 : 1"
       sodipodi:type="inkscape:persp3d" />
    <inkscape:perspective
       id="perspective3123"
       inkscape:persp3d-origin="160 : 106.66667 : 1"
       inkscape:vp_z="320 : 160 : 1"
       inkscape:vp_y="0 : 1000 : 0"
       inkscape:vp_x="0 : 160 : 1"
       sodipodi:type="inkscape:persp3d" />
    <inkscape:perspective
       id="perspective3203"
       inkscape:persp3d-origin="160 : 106.66667 : 1"
       inkscape:vp_z="320 : 160 : 1"
       inkscape:vp_y="0 : 1000 : 0"
       inkscape:vp_x="0 : 160 : 1"
       sodipodi:type="inkscape:persp3d" />
    <inkscape:perspective
       id="perspective3274"
       inkscape:persp3d-origin="200 : 133.33333 : 1"
       inkscape:vp_z="400 : 200 : 1"
       inkscape:vp_y="0 : 1000 : 0"
       inkscape:vp_x="0 : 200 : 1"
       sodipodi:type="inkscape:persp3d" />
    <inkscape:perspective
       id="perspective3401"
       inkscape:persp3d-origin="200 : 133.33333 : 1"
       inkscape:vp_z="400 : 200 : 1"
       inkscape:vp_y="0 : 1000 : 0"
       inkscape:vp_x="0 : 200 : 1"
       sodipodi:type="inkscape:persp3d" />
    <inkscape:perspective
       id="perspective3639"
       inkscape:persp3d-origin="200 : 133.33333 : 1"
       inkscape:vp_z="400 : 200 : 1"
       inkscape:vp_y="0 : 1000 : 0"
       inkscape:vp_x="0 : 200 : 1"
       sodipodi:type="inkscape:persp3d" />
    <inkscape:perspective
       id="perspective3689"
       inkscape:persp3d-origin="200 : 133.33333 : 1"
       inkscape:vp_z="400 : 200 : 1"
       inkscape:vp_y="0 : 1000 : 0"
       inkscape:vp_x="0 : 200 : 1"
       sodipodi:type="inkscape:persp3d" />
    <inkscape:perspective
       id="perspective3739"
       inkscape:persp3d-origin="200 : 133.33333 : 1"
       inkscape:vp_z="400 : 200 : 1"
       inkscape:vp_y="0 : 1000 : 0"
       inkscape:vp_x="0 : 200 : 1"
       sodipodi:type="inkscape:persp3d" />
  </defs>
  <g
     inkscape:groupmode="layer"
     id="layer1"
     inkscape:label="Minor Float"
     style="display:none"
     transform="translate(0,20)">
    <path
       style="fill:#000407;fill-opacity:1;fill-rule:evenodd;stroke:none;display:inline"
       d="m 151.46502,140.96374 c -1.70454,1.6489 -2.9247,3.83867 -3.47801,6.22378 l -41.90644,-0.022 0.0289,5.63426 41.83353,0.044 c 1.28732,5.53295 6.25526,9.7442 12.17824,9.74421 5.92495,0 10.89294,-4.20848 12.17824,-9.74421 l 41.75945,-0.0312 -0.044,-5.63426 -41.73746,0.009 c -0.58668,-2.52896 -1.82216,-4.51083 -3.68811,-6.19717 l -1.52406,-1.27363 -1.8821,-1.21102 -2.30232,-0.71488 -2.90982,-0.29604 -2.86401,0.2853 -2.17355,0.6878 -1.91144,1.18458 -1.55709,1.31128 z m 8.65625,1.62424 c 4.14,0 7.5,3.36 7.5,7.5 0,4.14 -3.36,7.5 -7.5,7.5 -4.14,0 -7.5,-3.36 -7.5,-7.5 0,-4.14 3.36,-7.5 7.5,-7.5 z"
       id="path2520"
       sodipodi:nodetypes="cccccsccccccccccccccsssc" />
    <path
       style="fill:none;stroke:#000000;stroke-width:4.23707008;stroke-linecap:butt;stroke-linejoin:miter;stroke-miterlimit:4;stroke-opacity:1;stroke-dasharray:none"
       d="m 148.23032,107.25432 23.9441,0 5.82689,16.56338 -35.95865,0.0214 6.18766,-16.58476 0,-4e-5 z"
       id="path2864"
       sodipodi:nodetypes="cccccc" />
    <path
       style="fill:none;stroke:#000000;stroke-width:4;stroke-linecap:butt;stroke-linejoin:miter;stroke-miterlimit:4;stroke-opacity:1;stroke-dasharray:none"
       d="m 123.84827,169.97251 -11.78669,-35.00824 15.95726,8.99772 64.12315,0.0364 15.8844,-9.03417 -11.96262,35.00826"
       id="path3652"
       transform="translate(0,-20)"
       sodipodi:nodetypes="cccccc" />
  </g>
  <g
     transform="translate(0,20)"
     style="display:none"
     inkscape:label="Minor Float 3 Band"
     id="g3666"
     inkscape:groupmode="layer">
    <path
       sodipodi:nodetypes="cccccsccccccccccccccsssc"
       id="path3668"
       d="m 151.46502,140.96374 c -1.70454,1.6489 -2.9247,3.83867 -3.47801,6.22378 l -41.90644,-0.022 0.0289,5.63426 41.83353,0.044 c 1.28732,5.53295 6.25526,9.7442 12.17824,9.74421 5.92495,0 10.89294,-4.20848 12.17824,-9.74421 l 41.75945,-0.0312 -0.044,-5.63426 -41.73746,0.009 c -0.58668,-2.52896 -1.82216,-4.51083 -3.68811,-6.19717 l -1.52406,-1.27363 -1.8821,-1.21102 -2.30232,-0.71488 -2.90982,-0.29604 -2.86401,0.2853 -2.17355,0.6878 -1.91144,1.18458 -1.55709,1.31128 z m 8.65625,1.62424 c 4.14,0 7.5,3.36 7.5,7.5 0,4.14 -3.36,7.5 -7.5,7.5 -4.14,0 -7.5,-3.36 -7.5,-7.5 0,-4.14 3.36,-7.5 7.5,-7.5 z"
       style="fill:#000407;fill-opacity:1;fill-rule:evenodd;stroke:none;display:inline" />
    <path
       sodipodi:nodetypes="cccccc"
       id="path3670"
       d="m 148.23032,107.25432 23.9441,0 5.82689,16.56338 -35.95865,0.0214 6.18766,-16.58476 0,-4e-5 z"
       style="fill:none;stroke:#000000;stroke-width:4.23707008;stroke-linecap:butt;stroke-linejoin:miter;stroke-miterlimit:4;stroke-opacity:1;stroke-dasharray:none" />
    <path
       sodipodi:nodetypes="cccccc"
       transform="translate(0,-20)"
       id="path3672"
       d="m 123.84827,169.97251 -11.78669,-35.00824 15.95726,8.99772 64.12315,0.0364 15.8844,-9.03417 -11.96262,35.00826"
       style="fill:none;stroke:#000000;stroke-width:4;stroke-linecap:butt;stroke-linejoin:miter;stroke-miterlimit:4;stroke-opacity:1;stroke-dasharray:none" />
    <rect
       style="fill:#000000;fill-opacity:1;stroke:none"
       id="rect3674"
       width="81.602997"
       height="0.93296117"
       x="119.41902"
       y="133.03459" />
  </g>
  <g
     transform="translate(0,20)"
     style="display:none"
     inkscape:label="Minor Float 2 Band"
     id="g3656"
     inkscape:groupmode="layer">
    <path
       sodipodi:nodetypes="cccccsccccccccccccccsssc"
       id="path3658"
       d="m 151.46502,140.96374 c -1.70454,1.6489 -2.9247,3.83867 -3.47801,6.22378 l -41.90644,-0.022 0.0289,5.63426 41.83353,0.044 c 1.28732,5.53295 6.25526,9.7442 12.17824,9.74421 5.92495,0 10.89294,-4.20848 12.17824,-9.74421 l 41.75945,-0.0312 -0.044,-5.63426 -41.73746,0.009 c -0.58668,-2.52896 -1.82216,-4.51083 -3.68811,-6.19717 l -1.52406,-1.27363 -1.8821,-1.21102 -2.30232,-0.71488 -2.90982,-0.29604 -2.86401,0.2853 -2.17355,0.6878 -1.91144,1.18458 -1.55709,1.31128 z m 8.65625,1.62424 c 4.14,0 7.5,3.36 7.5,7.5 0,4.14 -3.36,7.5 -7.5,7.5 -4.14,0 -7.5,-3.36 -7.5,-7.5 0,-4.14 3.36,-7.5 7.5,-7.5 z"
       style="fill:#000407;fill-opacity:1;fill-rule:evenodd;stroke:none;display:inline" />
    <path
       sodipodi:nodetypes="cccccc"
       id="path3660"
       d="m 148.23032,107.25432 23.9441,0 5.82689,16.56338 -35.95865,0.0214 6.18766,-16.58476 0,-4e-5 z"
       style="fill:none;stroke:#000000;stroke-width:4.23707008;stroke-linecap:butt;stroke-linejoin:miter;stroke-miterlimit:4;stroke-opacity:1;stroke-dasharray:none" />
    <path
       sodipodi:nodetypes="cccccc"
       transform="translate(0,-20)"
       id="path3662"
       d="m 123.84827,169.97251 -11.78669,-35.00824 15.95726,8.99772 64.12315,0.0364 15.8844,-9.03417 -11.96262,35.00826"
       style="fill:none;stroke:#000000;stroke-width:4;stroke-linecap:butt;stroke-linejoin:miter;stroke-miterlimit:4;stroke-opacity:1;stroke-dasharray:none" />
    <rect
       style="fill:#000000;fill-opacity:1;stroke:none"
       id="rect3664"
       width="84.837265"
       height="0.93296111"
       x="117.80189"
       y="130.04912" />
  </g>
  <g
     inkscape:groupmode="layer"
     id="layer2"
     inkscape:label="Major Float"
     style="display:none"
     transform="translate(0,20)">
    <path
       style="fill:#000407;fill-opacity:1;fill-rule:evenodd;stroke:none"
       id="path2558"
       d="m 130.02627,105.19492 -20.0426,42.0154 -3.97592,-0.0311 0.0515,5.67134 41.71648,-0.0151 c 1.28732,5.53295 6.23327,9.65624 12.15625,9.65625 5.92495,0 10.87095,-4.12052 12.15625,-9.65625 l 41.97505,0 0,-5.65625 -4.01238,-0.0311 -19.96607,-41.9221 -60.05858,-0.0311 z m 3.70218,5.66321 52.84248,-0.0622 17.57537,36.40151 -32.05805,-0.0182 c -1.2853,-5.53573 -6.2313,-9.65625 -12.15625,-9.65625 -5.92298,1e-5 -10.86893,4.1233 -12.15625,9.65625 l -31.80484,0.0129 17.75754,-36.33397 z m 26.20355,31.63359 c 4.14,0 7.5,3.36 7.5,7.5 0,4.14 -3.36,7.5 -7.5,7.5 -4.14,0 -7.5,-3.36 -7.5,-7.5 0,-4.14 3.36,-7.5 7.5,-7.5 z"
       sodipodi:nodetypes="cccccsccccccccccsccccsssc" />
  </g>
  <g
     inkscape:groupmode="layer"
     id="layer4"
     inkscape:label="Light"
     style="display:none"
     transform="translate(0,20)">
    <g
       id="g2992"
       transform="translate(-0.04412785,-10.060108)">
      <path
         style="fill:#ffff00;fill-opacity:1;fill-rule:evenodd;stroke:none"
         id="path28209"
         d="m 131.60087,181.31159 -61.62788,76.30842 -4.53011,5.57826 -5.557433,4.22374 -6.899414,2.10924 -7.322226,-0.10972 -6.812191,-2.29629 -5.747427,-4.33733 -4.201328,-6.0873 -2.224898,-7.05116 0.15697,-6.9752 2.73284,-6.08953 4.594775,-5.30836 5.593528,-4.86801 1.174178,-0.94649 90.670616,-44.15027 z m 28.00125,-25.26051 c 2.19706,-0.21962 4.15842,1.38525 4.37805,3.58229 0.21962,2.19706 -1.38525,4.15842 -3.58229,4.37805 -2.19706,0.21962 -4.15842,-1.38525 -4.37805,-3.58229 -0.21962,-2.19706 1.38525,-4.15842 3.58229,-4.37805 z" />
    </g>
  </g>
  <g
     inkscape:groupmode="layer"
     id="layer5"
     inkscape:label="Top North"
     style="display:none">
    <path
       style="fill:#000407;fill-opacity:1;fill-rule:evenodd;stroke:none"
       id="path27763-2"
       d="m 160.06914,79.770648 -16.27838,32.599842 32.59125,0.002 -16.31287,-32.602368 0,2.6e-5 z m -16.28173,0.484611 16.29219,-36.617649 16.33067,36.616186 -32.62286,0.0015 0,-3.7e-5 z"
       sodipodi:nodetypes="cccccccccc" />
    <g
       style="display:inline"
       transform="matrix(1,0,0,0.74930505,-0.01842005,60.617293)"
       id="g2864">
      <path
         sodipodi:nodetypes="ccccc"
         d="m 197.875,108.625 0,17.71875 4.25,0 0,-17.71875 -4.25,0 z"
         id="path2866"
         style="fill:#000407;fill-opacity:1;fill-rule:evenodd;stroke:none"
         transform="translate(-40,-40)" />
    </g>
  </g>
  <g
     inkscape:groupmode="layer"
     id="layer6"
     inkscape:label="Top West"
     style="display:none">
    <path
       style="fill:#000407;fill-opacity:1;fill-rule:evenodd;stroke:none"
       id="path27763-3"
       d="m 144.04009,47.24807 15.94723,32.592905 16.31792,-32.580125 -32.26515,-0.01278 z m 15.95127,32.150465 -16.27838,32.599845 32.59125,0.002 -16.31287,-32.602371 0,2.6e-5 z"
       sodipodi:nodetypes="ccccccccc" />
    <g
       style="display:inline"
       transform="matrix(1,0,0,0.74930505,-0.01842005,60.617293)"
       id="g2872">
      <path
         sodipodi:nodetypes="ccccc"
         d="m 197.875,108.625 0,17.71875 4.25,0 0,-17.71875 -4.25,0 z"
         id="path2874"
         style="fill:#000407;fill-opacity:1;fill-rule:evenodd;stroke:none"
         transform="translate(-40,-40)" />
    </g>
  </g>
  <g
     inkscape:groupmode="layer"
     id="layer7"
     inkscape:label="Top South"
     style="display:none">
    <path
       style="fill:#000407;fill-opacity:1;fill-rule:evenodd;stroke:none"
       id="path27763-0"
       d="m 159.90407,112.18314 -15.95514,-32.596845 32.0065,0.003 -16.05136,32.593845 z m -0.004,-32.170442 -15.96483,-32.553462 32.03145,0.01386 -16.06662,32.539603 z"
       sodipodi:nodetypes="cccccccc" />
    <g
       style="display:inline"
       transform="matrix(1,0,0,0.74930505,-0.01842005,60.617293)"
       id="g2880">
      <path
         sodipodi:nodetypes="ccccc"
         d="m 197.875,108.625 0,17.71875 4.25,0 0,-17.71875 -4.25,0 z"
         id="path2882"
         style="fill:#000407;fill-opacity:1;fill-rule:evenodd;stroke:none"
         transform="translate(-40,-40)" />
    </g>
    <g
       style="display:inline"
       transform="matrix(1,0,0,0.74930505,-0.01842005,60.617293)"
       id="g2888">
      <path
         sodipodi:nodetypes="ccccc"
         d="m 197.875,108.625 0,17.71875 4.25,0 0,-17.71875 -4.25,0 z"
         id="path2890"
         style="fill:#000407;fill-opacity:1;fill-rule:evenodd;stroke:none"
         transform="translate(-40,-40)" />
    </g>
  </g>
  <g
     inkscape:groupmode="layer"
     id="layer8"
     inkscape:label="Top East"
     style="display:none">
    <path
       style="fill:#000407;fill-opacity:1;fill-rule:evenodd;stroke:none"
       id="path27763-9"
       d="m 160.08274,112.13428 -16.11063,-32.596841 32.06869,0.003 -15.95806,32.593841 z m -16.03673,-35.69222 15.97729,-32.589969 16.03103,32.596534 -32.00832,-0.0066 0,3.5e-5 z"
       sodipodi:nodetypes="ccccccccc" />
    <g
       style="display:inline"
       id="g2928"
       transform="matrix(1,0,0,0.74930505,-0.01842005,60.617293)">
      <path
         transform="translate(-40,-40)"
         style="fill:#000407;fill-opacity:1;fill-rule:evenodd;stroke:none"
         id="path2930"
         d="m 197.875,108.625 0,17.71875 4.25,0 0,-17.71875 -4.25,0 z"
         sodipodi:nodetypes="ccccc" />
    </g>
  </g>
  <g
     inkscape:groupmode="layer"
     id="layer9"
     inkscape:label="Top Cone"
     style="display:none">
    <path
       style="fill:#000407;fill-opacity:1;fill-rule:evenodd;stroke:none"
       id="path4179"
       d="m 160.00923,75.437383 -18.16912,36.963897 36.2188,-0.004 -18.0057,-36.960347 -0.044,4.5e-4 z m -0.0247,10.4431 11.11743,21.535037 -22.19017,-0.0688 11.07274,-21.46622 z"
       sodipodi:nodetypes="ccccccccc" />
    <g
       style="display:inline"
       id="g2894"
       transform="matrix(1,0,0,0.74930505,-0.01842005,60.617293)">
      <path
         transform="translate(-40,-40)"
         style="fill:#000407;fill-opacity:1;fill-rule:evenodd;stroke:none"
         id="path2896"
         d="m 197.875,108.625 0,17.71875 4.25,0 0,-17.71875 -4.25,0 z"
         sodipodi:nodetypes="ccccc" />
    </g>
  </g>
  <g
     inkscape:groupmode="layer"
     id="layer10"
     inkscape:label="Top Can"
     style="display:none">
    <path
       style="fill:#000407;fill-opacity:1;fill-rule:evenodd;stroke:none"
       id="path2520-0"
       d="m 146.15182,77.245358 -0.375,35.062502 28.34375,0 0,-35.062502 -27.96875,0 z m 4.9375,4.59375 18.04168,-0.04398 0.0648,25.500002 -18.2824,0.044 0.17592,-25.500002 z"
       sodipodi:nodetypes="cccccccccc" />
    <g
       style="display:inline"
       transform="matrix(1,0,0,0.74930505,-0.01842005,60.617293)"
       id="g2900">
      <path
         sodipodi:nodetypes="ccccc"
         d="m 197.875,108.625 0,17.71875 4.25,0 0,-17.71875 -4.25,0 z"
         id="path2902"
         style="fill:#000407;fill-opacity:1;fill-rule:evenodd;stroke:none"
         transform="translate(-40,-40)" />
    </g>
  </g>
  <g
     inkscape:groupmode="layer"
     id="layer11"
     inkscape:label="Top Sphere"
     style="display:none">
    <g
       id="g3206"
       transform="translate(-2.5588771,101.63082)">
      <path
         style="fill:#000407;fill-opacity:1;fill-rule:evenodd;stroke:none"
         id="path13269"
         d="m 162.47651,-23.366875 c -9.35666,0 -17,7.643343 -17,17.0000002 0,9.356657 7.64334,16.9999998 17,16.9999998 9.35666,0 17,-7.6433428 17,-16.9999998 0,-9.3566572 -7.64334,-17.0000002 -17,-17.0000002 z m 0,5 c 6.65134,0 12,5.348657 12,12.0000002 0,6.65134297 -5.34866,12 -12,12 -6.65134,0 -12,-5.34865703 -12,-12 0,-6.6513432 5.34866,-12.0000002 12,-12.0000002 z"
         sodipodi:nodetypes="csssccsssc" />
    </g>
    <g
       style="display:inline"
       id="g2906"
       transform="matrix(1,0,0,0.74930505,-0.01842005,60.617293)">
      <path
         transform="translate(-40,-40)"
         style="fill:#000407;fill-opacity:1;fill-rule:evenodd;stroke:none"
         id="path2908"
         d="m 197.875,108.625 0,17.71875 4.25,0 0,-17.71875 -4.25,0 z"
         sodipodi:nodetypes="ccccc" />
    </g>
  </g>
  <g
     inkscape:groupmode="layer"
     id="layer12"
     inkscape:label="Top 2 Spheres"
     style="display:none">
    <path
       style="fill:#000407;fill-opacity:1;fill-rule:evenodd;stroke:none"
       id="path27763"
       d="m 174.50675,69.305999 c 0,8.004 -6.47999,14.45602 -14.48399,14.45602 -8.004,0 -14.45381,-6.527099 -14.45381,-14.531099 0,-8.004 6.39203,-14.5 14.39603,-14.5 8.004,0 14.54177,6.571079 14.54177,14.575079 z m 0.0184,28.924917 c 0,8.004004 -6.496,14.500004 -14.5,14.500004 -8.004,0 -14.5,-6.496 -14.5,-14.500004 0,-8.004 6.496,-14.5 14.5,-14.5 8.004,0 14.5,6.496 14.5,14.5 z"
       sodipodi:nodetypes="csssccsssc" />
    <g
       style="display:inline"
       transform="matrix(1,0,0,0.74930505,-0.01842005,60.617293)"
       id="g2912">
      <path
         sodipodi:nodetypes="ccccc"
         d="m 197.875,108.625 0,17.71875 4.25,0 0,-17.71875 -4.25,0 z"
         id="path2914"
         style="fill:#000407;fill-opacity:1;fill-rule:evenodd;stroke:none"
         transform="translate(-40,-40)" />
    </g>
  </g>
</svg>
