<?xml version="1.0" encoding="UTF-8" standalone="no"?>
<svg
   xmlns:dc="http://purl.org/dc/elements/1.1/"
   xmlns:cc="http://creativecommons.org/ns#"
   xmlns:rdf="http://www.w3.org/1999/02/22-rdf-syntax-ns#"
   xmlns:svg="http://www.w3.org/2000/svg"
   xmlns="http://www.w3.org/2000/svg"
   xmlns:sodipodi="http://sodipodi.sourceforge.net/DTD/sodipodi-0.dtd"
   xmlns:inkscape="http://www.inkscape.org/namespaces/inkscape"
   version="1.0"
   width="300"
   height="400"
   id="svg2"
   inkscape:version="0.47 r22583"
   sodipodi:docname="small_buoys.svg"
   style="display:inline">
  <metadata
     id="metadata2913">
    <rdf:RDF>
      <cc:Work
         rdf:about="">
        <dc:format>image/svg+xml</dc:format>
        <dc:type
           rdf:resource="http://purl.org/dc/dcmitype/StillImage" />
        <dc:title />
      </cc:Work>
    </rdf:RDF>
  </metadata>
  <sodipodi:namedview
     pagecolor="#ffffff"
     bordercolor="#666666"
     borderopacity="1"
     objecttolerance="10"
     gridtolerance="10"
     guidetolerance="10"
     inkscape:pageopacity="0"
     inkscape:pageshadow="2"
     inkscape:window-width="1920"
     inkscape:window-height="1088"
     id="namedview2911"
     showgrid="true"
     inkscape:zoom="5.6568542"
     inkscape:cx="152.87745"
     inkscape:cy="216.50781"
     inkscape:window-x="1440"
     inkscape:window-y="0"
     inkscape:window-maximized="0"
     inkscape:current-layer="layer6"
     inkscape:snap-grids="false">
    <inkscape:grid
       type="xygrid"
       id="grid2919"
       empspacing="5"
       visible="true"
       enabled="true"
       snapvisiblegridlinesonly="true" />
  </sodipodi:namedview>
  <defs
     id="defs4">
    <inkscape:perspective
       sodipodi:type="inkscape:persp3d"
       inkscape:vp_x="0 : 160 : 1"
       inkscape:vp_y="0 : 1000 : 0"
       inkscape:vp_z="320 : 160 : 1"
       inkscape:persp3d-origin="160 : 106.66667 : 1"
       id="perspective2915" />
    <inkscape:perspective
       id="perspective2862"
       inkscape:persp3d-origin="160 : 106.66667 : 1"
       inkscape:vp_z="320 : 160 : 1"
       inkscape:vp_y="0 : 1000 : 0"
       inkscape:vp_x="0 : 160 : 1"
       sodipodi:type="inkscape:persp3d" />
    <inkscape:perspective
       id="perspective2933"
       inkscape:persp3d-origin="160 : 106.66667 : 1"
       inkscape:vp_z="320 : 160 : 1"
       inkscape:vp_y="0 : 1000 : 0"
       inkscape:vp_x="0 : 160 : 1"
       sodipodi:type="inkscape:persp3d" />
    <inkscape:perspective
       id="perspective2989"
       inkscape:persp3d-origin="160 : 106.66667 : 1"
       inkscape:vp_z="320 : 160 : 1"
       inkscape:vp_y="0 : 1000 : 0"
       inkscape:vp_x="0 : 160 : 1"
       sodipodi:type="inkscape:persp3d" />
    <inkscape:perspective
       id="perspective3073"
       inkscape:persp3d-origin="160 : 106.66667 : 1"
       inkscape:vp_z="320 : 160 : 1"
       inkscape:vp_y="0 : 1000 : 0"
       inkscape:vp_x="0 : 160 : 1"
       sodipodi:type="inkscape:persp3d" />
    <inkscape:perspective
       id="perspective3123"
       inkscape:persp3d-origin="160 : 106.66667 : 1"
       inkscape:vp_z="320 : 160 : 1"
       inkscape:vp_y="0 : 1000 : 0"
       inkscape:vp_x="0 : 160 : 1"
       sodipodi:type="inkscape:persp3d" />
    <inkscape:perspective
       id="perspective3203"
       inkscape:persp3d-origin="160 : 106.66667 : 1"
       inkscape:vp_z="320 : 160 : 1"
       inkscape:vp_y="0 : 1000 : 0"
       inkscape:vp_x="0 : 160 : 1"
       sodipodi:type="inkscape:persp3d" />
    <inkscape:perspective
       id="perspective3274"
       inkscape:persp3d-origin="200 : 133.33333 : 1"
       inkscape:vp_z="400 : 200 : 1"
       inkscape:vp_y="0 : 1000 : 0"
       inkscape:vp_x="0 : 200 : 1"
       sodipodi:type="inkscape:persp3d" />
    <inkscape:perspective
       id="perspective3401"
       inkscape:persp3d-origin="200 : 133.33333 : 1"
       inkscape:vp_z="400 : 200 : 1"
       inkscape:vp_y="0 : 1000 : 0"
       inkscape:vp_x="0 : 200 : 1"
       sodipodi:type="inkscape:persp3d" />
    <inkscape:perspective
       id="perspective3639"
       inkscape:persp3d-origin="200 : 133.33333 : 1"
       inkscape:vp_z="400 : 200 : 1"
       inkscape:vp_y="0 : 1000 : 0"
       inkscape:vp_x="0 : 200 : 1"
       sodipodi:type="inkscape:persp3d" />
    <inkscape:perspective
       id="perspective3689"
       inkscape:persp3d-origin="200 : 133.33333 : 1"
       inkscape:vp_z="400 : 200 : 1"
       inkscape:vp_y="0 : 1000 : 0"
       inkscape:vp_x="0 : 200 : 1"
       sodipodi:type="inkscape:persp3d" />
    <inkscape:perspective
       id="perspective3739"
       inkscape:persp3d-origin="200 : 133.33333 : 1"
       inkscape:vp_z="400 : 200 : 1"
       inkscape:vp_y="0 : 1000 : 0"
       inkscape:vp_x="0 : 200 : 1"
       sodipodi:type="inkscape:persp3d" />
    <inkscape:perspective
       id="perspective3172"
       inkscape:persp3d-origin="160 : 106.66667 : 1"
       inkscape:vp_z="320 : 160 : 1"
       inkscape:vp_y="0 : 1000 : 0"
       inkscape:vp_x="0 : 160 : 1"
       sodipodi:type="inkscape:persp3d" />
    <inkscape:perspective
       id="perspective3440"
       inkscape:persp3d-origin="160 : 106.66667 : 1"
       inkscape:vp_z="320 : 160 : 1"
       inkscape:vp_y="0 : 1000 : 0"
       inkscape:vp_x="0 : 160 : 1"
       sodipodi:type="inkscape:persp3d" />
    <inkscape:perspective
       id="perspective3530"
       inkscape:persp3d-origin="160 : 106.66667 : 1"
       inkscape:vp_z="320 : 160 : 1"
       inkscape:vp_y="0 : 1000 : 0"
       inkscape:vp_x="0 : 160 : 1"
       sodipodi:type="inkscape:persp3d" />
    <inkscape:perspective
       id="perspective3736"
       inkscape:persp3d-origin="160 : 106.66667 : 1"
       inkscape:vp_z="320 : 160 : 1"
       inkscape:vp_y="0 : 1000 : 0"
       inkscape:vp_x="0 : 160 : 1"
       sodipodi:type="inkscape:persp3d" />
    <inkscape:perspective
       id="perspective3792"
       inkscape:persp3d-origin="160 : 106.66667 : 1"
       inkscape:vp_z="320 : 160 : 1"
       inkscape:vp_y="0 : 1000 : 0"
       inkscape:vp_x="0 : 160 : 1"
       sodipodi:type="inkscape:persp3d" />
    <inkscape:perspective
       id="perspective3882"
       inkscape:persp3d-origin="160 : 106.66667 : 1"
       inkscape:vp_z="320 : 160 : 1"
       inkscape:vp_y="0 : 1000 : 0"
       inkscape:vp_x="0 : 160 : 1"
       sodipodi:type="inkscape:persp3d" />
    <inkscape:perspective
       id="perspective3947"
       inkscape:persp3d-origin="160 : 106.66667 : 1"
       inkscape:vp_z="320 : 160 : 1"
       inkscape:vp_y="0 : 1000 : 0"
       inkscape:vp_x="0 : 160 : 1"
       sodipodi:type="inkscape:persp3d" />
    <inkscape:perspective
       id="perspective2981"
       inkscape:persp3d-origin="160 : 106.66667 : 1"
       inkscape:vp_z="320 : 160 : 1"
       inkscape:vp_y="0 : 1000 : 0"
       inkscape:vp_x="0 : 160 : 1"
       sodipodi:type="inkscape:persp3d" />
    <inkscape:perspective
       id="perspective2931"
       inkscape:persp3d-origin="70 : 46.666667 : 1"
       inkscape:vp_z="140 : 70 : 1"
       inkscape:vp_y="0 : 1000 : 0"
       inkscape:vp_x="0 : 70 : 1"
       sodipodi:type="inkscape:persp3d" />
    <inkscape:perspective
       id="perspective3033"
       inkscape:persp3d-origin="70 : 46.666667 : 1"
       inkscape:vp_z="140 : 70 : 1"
       inkscape:vp_y="0 : 1000 : 0"
       inkscape:vp_x="0 : 70 : 1"
       sodipodi:type="inkscape:persp3d" />
    <inkscape:perspective
       id="perspective3083"
       inkscape:persp3d-origin="70 : 46.666667 : 1"
       inkscape:vp_z="140 : 70 : 1"
       inkscape:vp_y="0 : 1000 : 0"
       inkscape:vp_x="0 : 70 : 1"
       sodipodi:type="inkscape:persp3d" />
  </defs>
  <g
     transform="translate(0,60)"
     style="display:inline"
     inkscape:label="Cone Buoy"
     id="g3653"
     inkscape:groupmode="layer">
    <g
       id="g3678">
      <path
         style="fill:#000407;fill-opacity:1;fill-rule:evenodd;stroke:none"
         id="path3655"
         d="m 108.23157,137.16671 0,5.65625 29.6875,0 c 1.28732,5.53295 6.23327,9.65624 12.15625,9.65625 5.92495,0 10.87095,-4.12052 12.15625,-9.65625 l 29.84375,0 0,-0.0625 0,-5.59375 -83.84375,0 z m 54,0 c -1.2853,-5.53573 -6.2313,-9.65625 -12.15625,-9.65625 -5.92298,1e-5 -10.86893,4.1233 -12.15625,9.65625 l 24.3125,0 z m -12.15625,-4.6875 c 4.14,0 7.5,3.36 7.5,7.5 0,4.14 -3.36,7.5 -7.5,7.5 -4.14,0 -7.5,-3.36 -7.5,-7.5 0,-4.14 3.36,-7.5 7.5,-7.5 z"
         sodipodi:nodetypes="cccsccccccscccsssc" />
      <path
         sodipodi:open="true"
         sodipodi:end="4.3932674"
         sodipodi:start="2.9444111"
         transform="matrix(1.4164674,0.47394337,-0.48206808,1.4407496,172.65842,-93.634291)"
         d="M 15.635753,156.98217 A 31.466251,30.935923 0 0 1 36.620282,121.54762"
         sodipodi:ry="30.935923"
         sodipodi:rx="31.466251"
         sodipodi:cy="150.92163"
         sodipodi:cx="46.492271"
         id="path3649"
         style="fill:none;stroke:#000000;stroke-width:4.64683294;stroke-miterlimit:4;stroke-opacity:1;stroke-dasharray:none;display:inline"
         sodipodi:type="arc" />
      <path
         sodipodi:open="true"
         sodipodi:end="6.0542529"
         sodipodi:start="5.0415963"
         transform="matrix(1.8607362,0.62259362,-0.61353771,1.8336709,19.201188,-153.26853)"
         d="m 110.53956,99.547479 a 23.953241,24.306795 0 0 1 15.58437,17.485361"
         sodipodi:ry="24.306795"
         sodipodi:rx="23.953241"
         sodipodi:cy="122.54897"
         sodipodi:cx="102.79565"
         id="path3651"
         style="fill:none;stroke:#000000;stroke-width:3.59378028;stroke-miterlimit:4;stroke-opacity:1;stroke-dasharray:none;display:inline"
         sodipodi:type="arc" />
    </g>
  </g>
  <g
     inkscape:groupmode="layer"
     id="g3714"
     inkscape:label="Cone Buoy 3 Band"
     style="display:inline"
     transform="translate(0,60)">
    <g
       id="g3734">
      <g
         id="g3716">
        <path
           style="fill:#000407;fill-opacity:1;fill-rule:evenodd;stroke:none"
           id="path3718"
           d="m 108.23157,137.16671 0,5.65625 29.6875,0 c 1.28732,5.53295 6.23327,9.65624 12.15625,9.65625 5.92495,0 10.87095,-4.12052 12.15625,-9.65625 l 29.84375,0 0,-0.0625 0,-5.59375 -83.84375,0 z m 54,0 c -1.2853,-5.53573 -6.2313,-9.65625 -12.15625,-9.65625 -5.92298,1e-5 -10.86893,4.1233 -12.15625,9.65625 l 24.3125,0 z m -12.15625,-4.6875 c 4.14,0 7.5,3.36 7.5,7.5 0,4.14 -3.36,7.5 -7.5,7.5 -4.14,0 -7.5,-3.36 -7.5,-7.5 0,-4.14 3.36,-7.5 7.5,-7.5 z"
           sodipodi:nodetypes="cccsccccccscccsssc" />
        <path
           sodipodi:open="true"
           sodipodi:end="4.3932674"
           sodipodi:start="2.9444111"
           transform="matrix(1.4164674,0.47394337,-0.48206808,1.4407496,172.65842,-93.634291)"
           d="M 15.635753,156.98217 A 31.466251,30.935923 0 0 1 36.620282,121.54762"
           sodipodi:ry="30.935923"
           sodipodi:rx="31.466251"
           sodipodi:cy="150.92163"
           sodipodi:cx="46.492271"
           id="path3720"
           style="fill:none;stroke:#000000;stroke-width:4.64683294;stroke-miterlimit:4;stroke-opacity:1;stroke-dasharray:none;display:inline"
           sodipodi:type="arc" />
        <path
           sodipodi:open="true"
           sodipodi:end="6.0542529"
           sodipodi:start="5.0415963"
           transform="matrix(1.8607362,0.62259362,-0.61353771,1.8336709,19.201188,-153.26853)"
           d="m 110.53956,99.547479 a 23.953241,24.306795 0 0 1 15.58437,17.485361"
           sodipodi:ry="24.306795"
           sodipodi:rx="23.953241"
           sodipodi:cy="122.54897"
           sodipodi:cx="102.79565"
           id="path3722"
           style="fill:none;stroke:#000000;stroke-width:3.59378028;stroke-miterlimit:4;stroke-opacity:1;stroke-dasharray:none;display:inline"
           sodipodi:type="arc" />
      </g>
      <rect
         style="fill:#000000;fill-opacity:1;stroke:none;display:inline"
         id="rect3728"
         width="49.831997"
         height="0.82489997"
         x="162.51906"
         y="69.339325"
         transform="matrix(0.94832365,0.31730466,-0.31730466,0.94832365,0,0)" />
      <rect
         transform="matrix(0.94832365,0.31730466,-0.31730466,0.94832365,0,0)"
         y="61.61338"
         x="161.10722"
         height="0.70672113"
         width="49.989216"
         id="rect3730"
         style="fill:#000000;fill-opacity:1;stroke:none;display:inline" />
    </g>
  </g>
  <g
     inkscape:groupmode="layer"
     id="layer7"
     inkscape:label="Cone Top"
     style="display:inline"
     transform="translate(0,60)">
    <g
       id="g3693">
      <path
         id="path3888"
         style="fill:#000407;fill-opacity:1;fill-rule:evenodd;stroke:none;display:inline"
         d="m 168.05773,83.111144 -6.15625,18.343746 c 0.0275,-0.0328 4.14585,0.89991 4.1875,0.90625 l 6,-17.874996 -4.03125,-1.375 z m -13.33029,-4.26778 26.125,-25.637503 4.7875,35.962507 -30.9125,-10.325004 m 8.15625,-1.98125 c 5.80208,1.94792 11.60417,3.89583 17.40625,5.84375 -0.9375,-6.73958 -1.875,-13.47917 -2.8125,-20.21875 -4.86458,4.79167 -9.72917,9.58333 -14.59375,14.375 z" />
    </g>
  </g>
  <g
     inkscape:groupmode="layer"
     id="layer2"
     inkscape:label="Can Buoy"
     style="display:inline"
     transform="translate(0,60)">
    <path
       style="fill:#000407;fill-opacity:1;fill-rule:evenodd;stroke:none"
       id="path90440-0"
       d="m 159.48157,100.26046 -28.0625,-8.843752 -15.21875,45.750002 -7.96875,0 0,5.65625 29.6875,0 c 1.28732,5.53295 6.23327,9.65624 12.15625,9.65625 5.92495,0 10.87095,-4.12052 12.15625,-9.65625 l 29.84375,0 0,-0.0625 0,-5.59375 -7.6875,0 9,-26.1875 -29.9375,-9.4375 -3.96875,-1.28125 z m -23.03125,-0.21875 47.15625,15.96875 -7.21875,21.15625 -14.15625,0 c -1.2853,-5.53573 -6.2313,-9.65625 -12.15625,-9.65625 -5.92298,1e-5 -10.86893,4.1233 -12.15625,9.65625 l -13.71875,0 12.25,-37.125 z m 13.625,32.4375 c 4.14,0 7.5,3.36 7.5,7.5 0,4.14 -3.36,7.5 -7.5,7.5 -4.14,0 -7.5,-3.36 -7.5,-7.5 0,-4.14 3.36,-7.5 7.5,-7.5 z"
       sodipodi:nodetypes="ccccccsccccccccccccsccccsssc" />
  </g>
  <g
     style="display:inline"
     inkscape:label="Can Buoy 3 Band"
     id="g4867"
     inkscape:groupmode="layer"
     transform="translate(0,60)">
    <path
       sodipodi:nodetypes="cccccsccccccccccsccccsssc"
       d="m 131.41907,91.416708 -15.21875,45.750002 -7.96875,0 0,5.65625 29.6875,0 c 1.28732,5.53295 6.23327,9.65624 12.15625,9.65625 5.92495,0 10.87095,-4.12052 12.15625,-9.65625 l 29.84375,0 0,-0.0625 0,-5.59375 -7.6875,0 -52.96875,-45.750002 z m 5.03125,8.625002 47.15625,15.96875 -7.21875,21.15625 -14.15625,0 c -1.2853,-5.53573 -6.2313,-9.65625 -12.15625,-9.65625 -5.92298,1e-5 -10.86893,4.1233 -12.15625,9.65625 l -13.71875,0 12.25,-37.125 z m 13.625,32.4375 c 4.14,0 7.5,3.36 7.5,7.5 0,4.14 -3.36,7.5 -7.5,7.5 -4.14,0 -7.5,-3.36 -7.5,-7.5 0,-4.14 3.36,-7.5 7.5,-7.5 z"
       id="path4869"
       style="fill:#000407;fill-opacity:1;fill-rule:evenodd;stroke:none" />
    <rect
       style="fill:#000000;fill-opacity:1;stroke:none"
       id="rect5149"
       width="49.831997"
       height="0.82489997"
       x="161.15584"
       y="69.795448"
       transform="matrix(0.94832365,0.31730466,-0.31730466,0.94832365,0,0)" />
    <rect
       transform="matrix(0.94832365,0.31730466,-0.31730466,0.94832365,0,0)"
       y="61.61338"
       x="161.10722"
       height="0.70672113"
       width="49.989216"
       id="rect5151"
       style="fill:#000000;fill-opacity:1;stroke:none" />
  </g>
  <g
     inkscape:groupmode="layer"
     id="layer8"
     inkscape:label="Can Top"
     style="display:inline"
     transform="translate(0,60)">
    <g
       id="g3689">
      <path
         sodipodi:nodetypes="ccccc"
         d="m 166.68178,84.025158 -5.53125,17.125002 3.96875,1.28125 5.53125,-17.125002 -3.96875,-1.28125 z"
         id="path90440-23"
         style="fill:#000407;fill-opacity:1;fill-rule:evenodd;stroke:none" />
      <path
         sodipodi:nodetypes="cccccccccc"
         style="fill:#000407;fill-opacity:1;fill-rule:evenodd;stroke:none;display:inline"
         id="path3953"
         d="m 166.88127,47.006697 -11.16366,33.534361 26.21077,8.72562 11.16365,-33.534371 -26.21076,-8.72561 z m 3.16473,6.32332 16.72271,5.56703 -8.00507,24.046301 -16.7227,-5.56702 8.00506,-24.046311 z" />
    </g>
  </g>
  <g
     inkscape:groupmode="layer"
     id="layer9"
     inkscape:label="Sphere Buoy"
     style="display:inline">
    <g
       id="g3674">
      <path
         sodipodi:open="true"
         sodipodi:end="6.7858445"
         sodipodi:start="2.6449863"
         transform="matrix(1.1867088,0,0,1.2275216,-24.073718,10.69257)"
         d="m 129.32694,154.256 a 24.4375,23.625 0 1 1 42.90025,0.12552"
         sodipodi:ry="23.625"
         sodipodi:rx="24.4375"
         sodipodi:cy="143"
         sodipodi:cx="150.8125"
         id="path3660"
         style="fill:none;stroke:#000000;stroke-width:5.79977846;stroke-miterlimit:4;stroke-opacity:1;stroke-dasharray:none"
         sodipodi:type="arc" />
      <path
         style="fill:#000407;fill-opacity:1;fill-rule:evenodd;stroke:none;display:inline"
         id="path3671"
         d="m 115.96555,137.16671 0,5.61206 21.95352,0.0442 c 1.28732,5.53295 6.23327,9.65624 12.15625,9.65625 5.92495,0 10.87095,-4.12052 12.15625,-9.65625 l 29.84375,0 0,-0.0625 0,-5.59375 -76.10977,0 z m 46.26602,0 c -1.2853,-5.53573 -6.2313,-9.65625 -12.15625,-9.65625 -5.92298,1e-5 -10.86893,4.1233 -12.15625,9.65625 l 24.3125,0 z m -12.15625,-4.6875 c 4.14,0 7.5,3.36 7.5,7.5 0,4.14 -3.36,7.5 -7.5,7.5 -4.14,0 -7.5,-3.36 -7.5,-7.5 0,-4.14 3.36,-7.5 7.5,-7.5 z"
         sodipodi:nodetypes="cccsccccccscccsssc"
         transform="translate(0,60)" />
    </g>
  </g>
  <g
     style="display:inline"
     inkscape:label="Sphere Buoy 2 Band"
     id="g3742"
     inkscape:groupmode="layer">
    <g
       id="g3752">
      <g
         id="g3744">
        <path
           sodipodi:open="true"
           sodipodi:end="6.7858445"
           sodipodi:start="2.6449863"
           transform="matrix(1.1867088,0,0,1.2275216,-24.073718,10.69257)"
           d="m 129.32694,154.256 a 24.4375,23.625 0 1 1 42.90025,0.12552"
           sodipodi:ry="23.625"
           sodipodi:rx="24.4375"
           sodipodi:cy="143"
           sodipodi:cx="150.8125"
           id="path3746"
           style="fill:none;stroke:#000000;stroke-width:5.79977846;stroke-miterlimit:4;stroke-opacity:1;stroke-dasharray:none"
           sodipodi:type="arc" />
        <path
           style="fill:#000407;fill-opacity:1;fill-rule:evenodd;stroke:none;display:inline"
           id="path3748"
           d="m 115.96555,137.16671 0,5.61206 21.95352,0.0442 c 1.28732,5.53295 6.23327,9.65624 12.15625,9.65625 5.92495,0 10.87095,-4.12052 12.15625,-9.65625 l 29.84375,0 0,-0.0625 0,-5.59375 -76.10977,0 z m 46.26602,0 c -1.2853,-5.53573 -6.2313,-9.65625 -12.15625,-9.65625 -5.92298,1e-5 -10.86893,4.1233 -12.15625,9.65625 l 24.3125,0 z m -12.15625,-4.6875 c 4.14,0 7.5,3.36 7.5,7.5 0,4.14 -3.36,7.5 -7.5,7.5 -4.14,0 -7.5,-3.36 -7.5,-7.5 0,-4.14 3.36,-7.5 7.5,-7.5 z"
           sodipodi:nodetypes="cccsccccccscccsssc"
           transform="translate(0,60)" />
      </g>
      <rect
         transform="matrix(0.94832365,0.31730466,-0.31730466,0.94832365,0,0)"
         y="98.714943"
         x="205.14522"
         height="31.996582"
         width="0.70710677"
         id="rect3750"
         style="fill:none;stroke:#000000;stroke-width:1;stroke-miterlimit:4;stroke-opacity:1;stroke-dasharray:none" />
    </g>
  </g>
  <g
     inkscape:groupmode="layer"
     id="layer6"
     inkscape:label="Barrel Buoy"
     style="display:inline"
     transform="translate(0,60)">
    <g
       id="g3795"
       transform="translate(-9.9149435,-20.003549)">
      <path
         style="fill:#000407;fill-opacity:1;fill-rule:evenodd;stroke:none"
         id="path90440-2"
         d="m 156,118 c -5.5646,0 -11.12256,0.16306 -17.1875,0.5 -9.29749,0.51653 -16.93178,2.27268 -22.25,8.625 -5.04525,6.02627 -7.72563,15.2814 -9.71875,30.0625 l -8.03125,0 0,5.65625 49.03125,0 c 1.28732,5.53295 6.23327,9.65624 12.15625,9.65625 5.92495,0 10.87095,-4.12052 12.15625,-9.65625 l 41.46875,0 0,-5.59375 -7.46875,0 C 204.13147,142.38849 201.18262,133.06849 195.875,127.0625 190.2898,120.7424 182.48141,119.01633 173.1875,118.5 167.12256,118.16306 161.5646,118 156,118 z m 0,7 c 5.42719,0 10.85439,0.16899 16.8125,0.5 8.70609,0.48367 13.8977,1.7576 17.8125,6.1875 3.63181,4.10968 6.50281,11.87657 8.46875,25.53125 l -26.9375,-0.0312 c -1.2853,-5.53573 -6.2313,-9.65625 -12.15625,-9.65625 -5.92298,1e-5 -10.86893,4.1233 -12.15625,9.65625 l -5.53125,0 c -1.03095,-12.57461 -3.69601,-21.46985 -9.8125,-31 1.95625,-0.33179 4.14041,-0.546 6.6875,-0.6875 5.95811,-0.33101 11.38531,-0.5 16.8125,-0.5 z m -30.375,3.46875 c 6.28429,9.15361 8.64265,16.50821 9.65625,28.71875 l -21.34375,0 c 1.94217,-13.6797 4.58578,-21.4844 8,-25.5625 1.09857,-1.31218 2.30765,-2.34206 3.6875,-3.15625 z M 160,152.5 c 4.14,0 7.5,3.36 7.5,7.5 0,4.14 -3.36,7.5 -7.5,7.5 -4.14,0 -7.5,-3.36 -7.5,-7.5 0,-4.14 3.36,-7.5 7.5,-7.5 z" />
    </g>
  </g>
  <g
     inkscape:groupmode="layer"
     id="layer3"
     inkscape:label="Sphere X Top"
     style="display:inline"
     transform="translate(0,60)">
    <g
       id="g3683">
      <g
         transform="translate(-11.2549,-10.495508)"
         id="g2984">
        <path
           sodipodi:nodetypes="ccccc"
           d="m 179.34375,93.031245 -6.375,18.562505 c 0.005,0.001 4.12677,1.28438 4.09375,1.25 l 6.3125,-18.468755 -4.03125,-1.34375 z"
           id="path4420"
           style="fill:#000407;fill-opacity:1;fill-rule:evenodd;stroke:none" />
      </g>
      <g
         id="g2990"
         transform="translate(-16.977061,6.35999)"
         style="fill:none;stroke:#000000;stroke-opacity:1;display:inline">
        <path
           sodipodi:nodetypes="ccccccccccccc"
           style="fill:none;stroke:#000000;stroke-opacity:1"
           id="path2992"
           d="m 166.75,81.299997 17.9375,-8.9375 -8.9375,-17.937503 4.475,-2.25 9.275,18.062503 17.95,-8.962503 2.2375,4.500003 -18.275,8.8375 8.9375,17.937498 -4.15,2.35 -9.275,-18.062498 -17.9375,8.95 -2.2375,-4.4875 z" />
      </g>
    </g>
  </g>
</svg>
