<?xml version="1.0" encoding="UTF-8" standalone="no"?>
<!-- Created with Inkscape (http://www.inkscape.org/) -->
<svg
   xmlns:dc="http://purl.org/dc/elements/1.1/"
   xmlns:cc="http://creativecommons.org/ns#"
   xmlns:rdf="http://www.w3.org/1999/02/22-rdf-syntax-ns#"
   xmlns:svg="http://www.w3.org/2000/svg"
   xmlns="http://www.w3.org/2000/svg"
   xmlns:sodipodi="http://sodipodi.sourceforge.net/DTD/sodipodi-0.dtd"
   xmlns:inkscape="http://www.inkscape.org/namespaces/inkscape"
   version="1.0"
   width="400"
   height="400"
   id="svg2"
   sodipodi:version="0.32"
   inkscape:version="0.46"
   sodipodi:docname="Cardinal_Pillar_Single.svg"
   inkscape:output_extension="org.inkscape.output.svg.inkscape">
  <metadata
     id="metadata6">
    <rdf:RDF>
      <cc:Work
         rdf:about="">
        <dc:format>image/svg+xml</dc:format>
        <dc:type
           rdf:resource="http://purl.org/dc/dcmitype/StillImage" />
      </cc:Work>
    </rdf:RDF>
  </metadata>
  <sodipodi:namedview
     inkscape:window-height="991"
     inkscape:window-width="1680"
     inkscape:pageshadow="2"
     inkscape:pageopacity="0.0"
     guidetolerance="10.0"
     gridtolerance="10.0"
     objecttolerance="10.0"
     borderopacity="1.0"
     bordercolor="#666666"
     pagecolor="#ffffff"
     id="base"
     showgrid="false"
     inkscape:zoom="1.385"
     inkscape:cx="200"
     inkscape:cy="200"
     inkscape:window-x="-4"
     inkscape:window-y="-3"
     inkscape:current-layer="svg2" />
  <defs
     id="defs4">
    <inkscape:perspective
       sodipodi:type="inkscape:persp3d"
       inkscape:vp_x="0 : 200 : 1"
       inkscape:vp_y="0 : 1000 : 0"
       inkscape:vp_z="400 : 200 : 1"
       inkscape:persp3d-origin="200 : 133.33333 : 1"
       id="perspective8" />
  </defs>
  <path
     d="M 237.075,81.89375 L 231.48125,98.6125 L 224.95,96.51875 L 194.48125,164.58125 L 164.7,197.175 L 156.91875,197.175 L 156.79375,202.83125 L 187.85625,202.83125 C 189.14357,208.3642 194.08952,212.48749 200.0125,212.4875 C 205.93745,212.4875 210.88345,208.36698 212.16875,202.83125 L 236.29375,202.83125 L 236.29375,197.175 L 228.5125,197.175 L 226.04375,174.83125 L 242.66875,102.20625 L 235.5125,99.925 L 241.10625,83.2375 L 237.075,81.89375 z M 229.2,105.01875 L 234.16875,106.8 L 218.95,174.83125 L 221.41875,197.175 L 212.16875,197.175 C 210.88624,191.63544 205.94017,187.4875 200.0125,187.4875 C 194.08674,187.4875 189.14072,191.63813 187.85625,197.175 L 174.2625,197.175 L 200.5125,168.8 L 229.2,105.01875 z M 207.5,200 C 207.5,204.14 204.14,207.5 200,207.5 C 195.86,207.5 192.5,204.14 192.5,200 C 192.5,195.86 195.86,192.5 200,192.5 C 204.14,192.5 207.5,195.86 207.5,200 z M 271.5,29.200001 C 271.5,37.204001 265.004,43.700001 257,43.700001 C 248.996,43.700001 242.5,37.204001 242.5,29.200001 C 242.5,21.196001 248.996,14.700001 257,14.700001 C 265.004,14.700001 271.5,21.196001 271.5,29.200001 z M 260,64.199997 C 260,72.203997 253.504,78.699997 245.5,78.699997 C 237.496,78.699997 231,72.203997 231,64.199997 C 231,56.195997 237.496,49.699997 245.5,49.699997 C 253.504,49.699997 260,56.195997 260,64.199997 z"
     id="path27763"
     style="fill: rgb(0, 4, 7); fill-opacity: 1; fill-rule: evenodd; stroke: none;" />
  <path
     style="fill:none;fill-rule:evenodd;stroke:#000000;stroke-width:1px;stroke-linecap:butt;stroke-linejoin:miter;stroke-opacity:1"
     d="M 205.05415,148.73646 L 227.43682,155.23466"
     id="path2381" />
  <path
     style="fill:#d40000"
     d="M 183.67227,187.47292 C 188.37134,182.40975 194.1904,176.15523 196.60347,173.57401 C 200.2244,169.70082 201.66686,167.33556 204.85978,160.0361 C 206.98765,155.17148 209.10448,151.19134 209.56383,151.19134 C 210.61675,151.19134 222.22953,154.55206 222.65834,154.98087 C 222.83314,155.15565 221.98773,159.65255 220.77964,164.97394 L 218.5831,174.6492 L 219.68866,184.1854 C 221.26874,197.81485 221.55776,196.6787 216.51076,196.6787 C 212.92282,196.6787 212.15596,196.45389 211.78787,195.29419 C 211.02498,192.89058 208.48173,190.1904 205.59227,188.71632 C 199.65791,185.68881 192.70195,187.70666 189.34881,193.42838 L 187.44412,196.6787 L 181.28606,196.6787 L 175.1283,196.6787 L 183.67227,187.47292 z"
     id="path2383" />
  <path
     style="fill:#000000"
     d="M 216.6426,151.26921 C 212.96931,150.24857 209.9639,149.221 209.9639,148.9857 C 209.9639,148.7504 214.28881,138.99698 219.5748,127.31143 C 228.54794,107.47459 229.30144,106.07833 230.93126,106.26624 C 231.89134,106.37692 232.90058,106.70184 233.17401,106.98826 C 233.5478,107.37984 224.43307,150.43573 223.49711,152.69962 C 223.40043,152.93349 220.31588,152.28981 216.6426,151.26919 L 216.6426,151.26921 z"
     id="path2385" />
</svg>
