<?xml version="1.0" encoding="UTF-8" standalone="no"?>
<svg
   xmlns:dc="http://purl.org/dc/elements/1.1/"
   xmlns:cc="http://creativecommons.org/ns#"
   xmlns:rdf="http://www.w3.org/1999/02/22-rdf-syntax-ns#"
   xmlns:svg="http://www.w3.org/2000/svg"
   xmlns="http://www.w3.org/2000/svg"
   xmlns:sodipodi="http://sodipodi.sourceforge.net/DTD/sodipodi-0.dtd"
   xmlns:inkscape="http://www.inkscape.org/namespaces/inkscape"
   version="1.0"
   width="320"
   height="380"
   id="svg2"
   inkscape:version="0.47 r22583"
   sodipodi:docname="Cardinal_Pillar_West.svg"
   inkscape:label="Pillar"
   style="display:inline">
  <metadata
     id="metadata2822">
    <rdf:RDF>
      <cc:Work
         rdf:about="">
        <dc:format>image/svg+xml</dc:format>
        <dc:type
           rdf:resource="http://purl.org/dc/dcmitype/StillImage" />
        <dc:title />
      </cc:Work>
    </rdf:RDF>
  </metadata>
  <sodipodi:namedview
     pagecolor="#000000"
     bordercolor="#666666"
     borderopacity="1"
     objecttolerance="10"
     gridtolerance="10"
     guidetolerance="10"
     inkscape:pageopacity="0"
     inkscape:pageshadow="2"
     inkscape:window-width="1920"
     inkscape:window-height="1088"
     id="namedview2820"
     showgrid="true"
     inkscape:zoom="2.625"
     inkscape:cx="35.78132"
     inkscape:cy="243.07133"
     inkscape:window-x="1440"
     inkscape:window-y="0"
     inkscape:window-maximized="0"
     inkscape:current-layer="g3660"
     inkscape:snap-grids="false">
    <inkscape:grid
       type="xygrid"
       id="grid3180"
       empspacing="5"
       visible="true"
       enabled="true"
       snapvisiblegridlinesonly="true" />
  </sodipodi:namedview>
  <defs
     id="defs4">
    <inkscape:perspective
       sodipodi:type="inkscape:persp3d"
       inkscape:vp_x="0 : 160 : 1"
       inkscape:vp_y="0 : 1000 : 0"
       inkscape:vp_z="320 : 160 : 1"
       inkscape:persp3d-origin="160 : 106.66667 : 1"
       id="perspective2824" />
    <inkscape:perspective
       id="perspective2867"
       inkscape:persp3d-origin="160 : 106.66667 : 1"
       inkscape:vp_z="320 : 160 : 1"
       inkscape:vp_y="0 : 1000 : 0"
       inkscape:vp_x="0 : 160 : 1"
       sodipodi:type="inkscape:persp3d" />
    <inkscape:perspective
       id="perspective2913"
       inkscape:persp3d-origin="160 : 106.66667 : 1"
       inkscape:vp_z="320 : 160 : 1"
       inkscape:vp_y="0 : 1000 : 0"
       inkscape:vp_x="0 : 160 : 1"
       sodipodi:type="inkscape:persp3d" />
    <inkscape:perspective
       id="perspective2969"
       inkscape:persp3d-origin="160 : 106.66667 : 1"
       inkscape:vp_z="320 : 160 : 1"
       inkscape:vp_y="0 : 1000 : 0"
       inkscape:vp_x="0 : 160 : 1"
       sodipodi:type="inkscape:persp3d" />
    <inkscape:perspective
       id="perspective3016"
       inkscape:persp3d-origin="160 : 106.66667 : 1"
       inkscape:vp_z="320 : 160 : 1"
       inkscape:vp_y="0 : 1000 : 0"
       inkscape:vp_x="0 : 160 : 1"
       sodipodi:type="inkscape:persp3d" />
    <inkscape:perspective
       id="perspective3091"
       inkscape:persp3d-origin="160 : 106.66667 : 1"
       inkscape:vp_z="320 : 160 : 1"
       inkscape:vp_y="0 : 1000 : 0"
       inkscape:vp_x="0 : 160 : 1"
       sodipodi:type="inkscape:persp3d" />
    <inkscape:perspective
       id="perspective3135"
       inkscape:persp3d-origin="200 : 133.33333 : 1"
       inkscape:vp_z="400 : 200 : 1"
       inkscape:vp_y="0 : 1000 : 0"
       inkscape:vp_x="0 : 200 : 1"
       sodipodi:type="inkscape:persp3d" />
    <inkscape:perspective
       id="perspective3176"
       inkscape:persp3d-origin="200 : 133.33333 : 1"
       inkscape:vp_z="400 : 200 : 1"
       inkscape:vp_y="0 : 1000 : 0"
       inkscape:vp_x="0 : 200 : 1"
       sodipodi:type="inkscape:persp3d" />
    <inkscape:perspective
       id="perspective2952"
       inkscape:persp3d-origin="160 : 106.66667 : 1"
       inkscape:vp_z="320 : 160 : 1"
       inkscape:vp_y="0 : 1000 : 0"
       inkscape:vp_x="0 : 160 : 1"
       sodipodi:type="inkscape:persp3d" />
    <inkscape:perspective
       id="perspective2994"
       inkscape:persp3d-origin="200 : 133.33333 : 1"
       inkscape:vp_z="400 : 200 : 1"
       inkscape:vp_y="0 : 1000 : 0"
       inkscape:vp_x="0 : 200 : 1"
       sodipodi:type="inkscape:persp3d" />
    <inkscape:perspective
       id="perspective3035"
       inkscape:persp3d-origin="200 : 133.33333 : 1"
       inkscape:vp_z="400 : 200 : 1"
       inkscape:vp_y="0 : 1000 : 0"
       inkscape:vp_x="0 : 200 : 1"
       sodipodi:type="inkscape:persp3d" />
    <inkscape:perspective
       id="perspective3086"
       inkscape:persp3d-origin="200 : 133.33333 : 1"
       inkscape:vp_z="400 : 200 : 1"
       inkscape:vp_y="0 : 1000 : 0"
       inkscape:vp_x="0 : 200 : 1"
       sodipodi:type="inkscape:persp3d" />
    <inkscape:perspective
       id="perspective3143"
       inkscape:persp3d-origin="200 : 133.33333 : 1"
       inkscape:vp_z="400 : 200 : 1"
       inkscape:vp_y="0 : 1000 : 0"
       inkscape:vp_x="0 : 200 : 1"
       sodipodi:type="inkscape:persp3d" />
    <inkscape:perspective
       id="perspective3188"
       inkscape:persp3d-origin="200 : 133.33333 : 1"
       inkscape:vp_z="400 : 200 : 1"
       inkscape:vp_y="0 : 1000 : 0"
       inkscape:vp_x="0 : 200 : 1"
       sodipodi:type="inkscape:persp3d" />
  </defs>
  <g
     style="display:inline"
     inkscape:label="Pillar 3 Band"
     id="g3660"
     inkscape:groupmode="layer"
     transform="translate(0,60)">
    <path
       sodipodi:nodetypes="cccccccscccccccccccccscccccsssc"
       style="fill:#000204;fill-opacity:1;fill-rule:evenodd;stroke:none;display:inline"
       id="path3662"
       d="m 191.53964,28.603189 -6.53125,-2.09375 -30.46875,68.062503 -29.78125,32.593748 -7.78125,0 -0.125,5.65625 31.0625,0 c 1.28732,5.53295 6.23327,9.65624 12.15625,9.65625 5.92495,0 10.87095,-4.12052 12.15625,-9.65625 l 24.125,0 0,-5.65625 -7.78125,0 -2.46875,-22.34375 16.625,-72.625001 -7.15625,-2.28125 -4.03125,-1.3125 z m -2.28125,6.40625 4.96875,1.78125 -15.21875,68.031251 2.46875,22.34375 -9.25,0 c -1.28251,-5.53956 -6.22858,-9.6875 -12.15625,-9.6875 -5.92576,0 -10.87178,4.15063 -12.15625,9.6875 l -13.59375,0 26.25,-28.374998 28.6875,-63.781253 z m -21.7,94.981251 c 0,4.14 -3.36,7.5 -7.5,7.5 -4.14,0 -7.5,-3.36 -7.5,-7.5 0,-4.14 3.36,-7.5 7.5,-7.5 4.14,0 7.5,3.36 7.5,7.5 z" />
    <path
       style="fill:#000000;fill-opacity:1;stroke:none"
       d="m 160.6521,98.609272 18.41043,6.219738 0.12439,-0.52868 -18.34823,-6.250838 -0.18659,0.55978 z"
       id="path3664"
       sodipodi:nodetypes="ccccc" />
    <path
       style="fill:#000204;fill-opacity:1;stroke:none"
       d="m 175.26849,66.017823 11.59981,3.887338 c -0.14141,0.298758 -0.16166,0.365908 -0.15549,0.590878 L 175.0197,66.5776 l 0.24879,-0.559777 z"
       id="path3666"
       sodipodi:nodetypes="ccccc" />
    <path
       style="fill:#000000;fill-opacity:1"
       d="m 170.02388,161.07107 -8.9765,-3.05644 0.8149,-1.82869 c 4.48554,-10.06582 13.09982,-29.10201 13.22769,-29.23106 0.12447,-0.12564 11.09149,3.34093 11.40418,3.60475 0.0591,0.0499 -7.36871,33.45539 -7.45644,33.53429 -0.0205,0.0185 -4.07676,-1.34181 -9.01383,-3.02285 l 0,0 z"
       id="path4022"
       transform="translate(0,-60)" />
    <path
       style="fill:#ffd400;fill-opacity:1"
       d="m 181.00037,127.8391 c -2.98571,-1.00085 -5.45269,-1.83925 -5.48217,-1.86312 -0.0506,-0.041 13.64445,-30.587972 13.77958,-30.735655 0.0834,-0.09118 4.64888,1.519955 4.72892,1.668827 0.11957,0.222402 -7.23525,32.660378 -7.4153,32.704728 -0.10035,0.0247 -2.62531,-0.77393 -5.61103,-1.77478 z"
       id="path4024"
       transform="translate(0,-60)" />
    <path
       style="fill:#ffd400;fill-opacity:1"
       d="m 135.30114,186.30962 c 1.94687,-2.22165 25.40306,-27.47619 25.51964,-27.47619 0.27286,0 17.80118,5.94183 17.95272,6.08569 0.0847,0.0805 0.66047,4.72266 1.27939,10.31601 0.61893,5.59335 1.17627,10.53402 1.23855,10.97926 l 0.11323,0.80952 -4.57573,0 -4.57572,0 -0.28396,-0.95621 c -0.66545,-2.24082 -2.4867,-4.72961 -4.60758,-6.2964 -3.46418,-2.55914 -8.28829,-3.05559 -12.36131,-1.27212 -3.07934,1.34837 -5.80818,4.34748 -6.84663,7.52473 l -0.32684,1 -6.57585,0 -6.57586,0 0.62595,-0.71429 0,0 z"
       id="path4026"
       transform="translate(0,-60)" />
    <path
       transform="translate(0,-40)"
       sodipodi:nodetypes="cccc"
       d="m 209.28367,22.059634 -25.78125,25.75 30.90625,10.34375 -5.125,-36.09375 z"
       id="path3093"
       style="fill:#000407;fill-opacity:1;fill-rule:evenodd;stroke:none;display:inline" />
    <path
       transform="translate(0,-40)"
       style="fill:#000407;fill-opacity:1;fill-rule:evenodd;stroke:none;display:inline"
       id="path27763-7"
       d="m 209.0892,22.694099 -5.125,-36.07497 30.9125,10.3250004 -25.7875,25.7499696 z"
       sodipodi:nodetypes="cccc" />
    <g
       style="display:inline"
       id="g2870"
       transform="translate(0.05305884,-29.888181)">
      <path
         transform="translate(-40,-40)"
         style="fill:#000407;fill-opacity:1;fill-rule:evenodd;stroke:none"
         id="path27763"
         d="m 237.075,81.89375 -5.59375,16.71875 4.03125,1.3125 5.59375,-16.6875 -4.03125,-1.34375 z m -14.48135,-8.400002 0,0 z m 9.1251,-2.4875 0,0 z"
         sodipodi:nodetypes="ccccccccc" />
    </g>
  </g>
</svg>
