<?xml version="1.0" encoding="UTF-8" standalone="no"?>
<svg
   xmlns:dc="http://purl.org/dc/elements/1.1/"
   xmlns:cc="http://creativecommons.org/ns#"
   xmlns:rdf="http://www.w3.org/1999/02/22-rdf-syntax-ns#"
   xmlns:svg="http://www.w3.org/2000/svg"
   xmlns="http://www.w3.org/2000/svg"
   xmlns:sodipodi="http://sodipodi.sourceforge.net/DTD/sodipodi-0.dtd"
   xmlns:inkscape="http://www.inkscape.org/namespaces/inkscape"
   version="1.0"
   width="320"
   height="380"
   id="svg2"
   inkscape:version="0.47 r22583"
   sodipodi:docname="Cardinal_Spar_East.svg"
   inkscape:label="Pillar"
   style="display:inline">
  <metadata
     id="metadata2822">
    <rdf:RDF>
      <cc:Work
         rdf:about="">
        <dc:format>image/svg+xml</dc:format>
        <dc:type
           rdf:resource="http://purl.org/dc/dcmitype/StillImage" />
        <dc:title />
      </cc:Work>
    </rdf:RDF>
  </metadata>
  <sodipodi:namedview
     pagecolor="#000000"
     bordercolor="#666666"
     borderopacity="1"
     objecttolerance="10"
     gridtolerance="10"
     guidetolerance="10"
     inkscape:pageopacity="0"
     inkscape:pageshadow="2"
     inkscape:window-width="1920"
     inkscape:window-height="1088"
     id="namedview2820"
     showgrid="true"
     inkscape:zoom="2.625"
     inkscape:cx="78.364"
     inkscape:cy="276.52627"
     inkscape:window-x="1440"
     inkscape:window-y="0"
     inkscape:window-maximized="0"
     inkscape:current-layer="g3971"
     inkscape:snap-grids="false">
    <inkscape:grid
       type="xygrid"
       id="grid3180"
       empspacing="5"
       visible="true"
       enabled="true"
       snapvisiblegridlinesonly="true" />
  </sodipodi:namedview>
  <defs
     id="defs4">
    <inkscape:perspective
       sodipodi:type="inkscape:persp3d"
       inkscape:vp_x="0 : 160 : 1"
       inkscape:vp_y="0 : 1000 : 0"
       inkscape:vp_z="320 : 160 : 1"
       inkscape:persp3d-origin="160 : 106.66667 : 1"
       id="perspective2824" />
    <inkscape:perspective
       id="perspective2867"
       inkscape:persp3d-origin="160 : 106.66667 : 1"
       inkscape:vp_z="320 : 160 : 1"
       inkscape:vp_y="0 : 1000 : 0"
       inkscape:vp_x="0 : 160 : 1"
       sodipodi:type="inkscape:persp3d" />
    <inkscape:perspective
       id="perspective2913"
       inkscape:persp3d-origin="160 : 106.66667 : 1"
       inkscape:vp_z="320 : 160 : 1"
       inkscape:vp_y="0 : 1000 : 0"
       inkscape:vp_x="0 : 160 : 1"
       sodipodi:type="inkscape:persp3d" />
    <inkscape:perspective
       id="perspective2969"
       inkscape:persp3d-origin="160 : 106.66667 : 1"
       inkscape:vp_z="320 : 160 : 1"
       inkscape:vp_y="0 : 1000 : 0"
       inkscape:vp_x="0 : 160 : 1"
       sodipodi:type="inkscape:persp3d" />
    <inkscape:perspective
       id="perspective3016"
       inkscape:persp3d-origin="160 : 106.66667 : 1"
       inkscape:vp_z="320 : 160 : 1"
       inkscape:vp_y="0 : 1000 : 0"
       inkscape:vp_x="0 : 160 : 1"
       sodipodi:type="inkscape:persp3d" />
    <inkscape:perspective
       id="perspective3091"
       inkscape:persp3d-origin="160 : 106.66667 : 1"
       inkscape:vp_z="320 : 160 : 1"
       inkscape:vp_y="0 : 1000 : 0"
       inkscape:vp_x="0 : 160 : 1"
       sodipodi:type="inkscape:persp3d" />
    <inkscape:perspective
       id="perspective3135"
       inkscape:persp3d-origin="200 : 133.33333 : 1"
       inkscape:vp_z="400 : 200 : 1"
       inkscape:vp_y="0 : 1000 : 0"
       inkscape:vp_x="0 : 200 : 1"
       sodipodi:type="inkscape:persp3d" />
    <inkscape:perspective
       id="perspective3176"
       inkscape:persp3d-origin="200 : 133.33333 : 1"
       inkscape:vp_z="400 : 200 : 1"
       inkscape:vp_y="0 : 1000 : 0"
       inkscape:vp_x="0 : 200 : 1"
       sodipodi:type="inkscape:persp3d" />
    <inkscape:perspective
       id="perspective2952"
       inkscape:persp3d-origin="160 : 106.66667 : 1"
       inkscape:vp_z="320 : 160 : 1"
       inkscape:vp_y="0 : 1000 : 0"
       inkscape:vp_x="0 : 160 : 1"
       sodipodi:type="inkscape:persp3d" />
    <inkscape:perspective
       id="perspective2994"
       inkscape:persp3d-origin="200 : 133.33333 : 1"
       inkscape:vp_z="400 : 200 : 1"
       inkscape:vp_y="0 : 1000 : 0"
       inkscape:vp_x="0 : 200 : 1"
       sodipodi:type="inkscape:persp3d" />
    <inkscape:perspective
       id="perspective3035"
       inkscape:persp3d-origin="200 : 133.33333 : 1"
       inkscape:vp_z="400 : 200 : 1"
       inkscape:vp_y="0 : 1000 : 0"
       inkscape:vp_x="0 : 200 : 1"
       sodipodi:type="inkscape:persp3d" />
    <inkscape:perspective
       id="perspective3086"
       inkscape:persp3d-origin="200 : 133.33333 : 1"
       inkscape:vp_z="400 : 200 : 1"
       inkscape:vp_y="0 : 1000 : 0"
       inkscape:vp_x="0 : 200 : 1"
       sodipodi:type="inkscape:persp3d" />
    <inkscape:perspective
       id="perspective3143"
       inkscape:persp3d-origin="200 : 133.33333 : 1"
       inkscape:vp_z="400 : 200 : 1"
       inkscape:vp_y="0 : 1000 : 0"
       inkscape:vp_x="0 : 200 : 1"
       sodipodi:type="inkscape:persp3d" />
    <inkscape:perspective
       id="perspective3188"
       inkscape:persp3d-origin="200 : 133.33333 : 1"
       inkscape:vp_z="400 : 200 : 1"
       inkscape:vp_y="0 : 1000 : 0"
       inkscape:vp_x="0 : 200 : 1"
       sodipodi:type="inkscape:persp3d" />
    <inkscape:perspective
       sodipodi:type="inkscape:persp3d"
       inkscape:vp_x="0 : 160 : 1"
       inkscape:vp_y="0 : 1000 : 0"
       inkscape:vp_z="320 : 160 : 1"
       inkscape:persp3d-origin="160 : 106.66667 : 1"
       id="perspective2824-9" />
    <inkscape:perspective
       id="perspective2867-3"
       inkscape:persp3d-origin="160 : 106.66667 : 1"
       inkscape:vp_z="320 : 160 : 1"
       inkscape:vp_y="0 : 1000 : 0"
       inkscape:vp_x="0 : 160 : 1"
       sodipodi:type="inkscape:persp3d" />
    <inkscape:perspective
       id="perspective2913-8"
       inkscape:persp3d-origin="160 : 106.66667 : 1"
       inkscape:vp_z="320 : 160 : 1"
       inkscape:vp_y="0 : 1000 : 0"
       inkscape:vp_x="0 : 160 : 1"
       sodipodi:type="inkscape:persp3d" />
    <inkscape:perspective
       id="perspective2969-4"
       inkscape:persp3d-origin="160 : 106.66667 : 1"
       inkscape:vp_z="320 : 160 : 1"
       inkscape:vp_y="0 : 1000 : 0"
       inkscape:vp_x="0 : 160 : 1"
       sodipodi:type="inkscape:persp3d" />
    <inkscape:perspective
       id="perspective3016-2"
       inkscape:persp3d-origin="160 : 106.66667 : 1"
       inkscape:vp_z="320 : 160 : 1"
       inkscape:vp_y="0 : 1000 : 0"
       inkscape:vp_x="0 : 160 : 1"
       sodipodi:type="inkscape:persp3d" />
    <inkscape:perspective
       id="perspective3091-0"
       inkscape:persp3d-origin="160 : 106.66667 : 1"
       inkscape:vp_z="320 : 160 : 1"
       inkscape:vp_y="0 : 1000 : 0"
       inkscape:vp_x="0 : 160 : 1"
       sodipodi:type="inkscape:persp3d" />
    <inkscape:perspective
       id="perspective3135-8"
       inkscape:persp3d-origin="200 : 133.33333 : 1"
       inkscape:vp_z="400 : 200 : 1"
       inkscape:vp_y="0 : 1000 : 0"
       inkscape:vp_x="0 : 200 : 1"
       sodipodi:type="inkscape:persp3d" />
    <inkscape:perspective
       id="perspective3176-3"
       inkscape:persp3d-origin="200 : 133.33333 : 1"
       inkscape:vp_z="400 : 200 : 1"
       inkscape:vp_y="0 : 1000 : 0"
       inkscape:vp_x="0 : 200 : 1"
       sodipodi:type="inkscape:persp3d" />
    <inkscape:perspective
       id="perspective2979"
       inkscape:persp3d-origin="200 : 133.33333 : 1"
       inkscape:vp_z="400 : 200 : 1"
       inkscape:vp_y="0 : 1000 : 0"
       inkscape:vp_x="0 : 200 : 1"
       sodipodi:type="inkscape:persp3d" />
  </defs>
  <g
     inkscape:groupmode="layer"
     id="g3971"
     inkscape:label="Spar 3 Band"
     style="display:inline">
    <g
       id="g3973"
       transform="translate(0.07504381,0.00169189)">
      <g
         transform="translate(0,-20)"
         style="display:inline"
         inkscape:label="Spar"
         id="g3975">
        <path
           id="path3977"
           d="m 157.11957,197.81917 c -4.58857,1.09832 -8.21335,4.74044 -9.28125,9.34375 l -8.4375,0 -0.125,5.65625 8.5625,0 c 1.28732,5.53295 6.23327,9.65624 12.15625,9.65625 5.92495,0 10.87095,-4.12052 12.15625,-9.65625 l 8.3125,-0.0312 0,-5.65625 -8.3125,0.0312 c -0.4895,-2.11431 -1.49849,-4.03814 -2.90625,-5.59375 l -12.125,-3.75 z m 9.4375,-1.0625 -4.375,-1.4375 4.375,1.4375 z m -6.5625,5.71875 c 4.14,0 7.5,3.36 7.5,7.5 0,4.14 -3.36,7.5 -7.5,7.5 -4.14,0 -7.5,-3.36 -7.5,-7.5 0,-4.14 3.36,-7.5 7.5,-7.5 z"
           style="fill:#000000;fill-opacity:1;fill-rule:evenodd;stroke:none"
           sodipodi:nodetypes="cccccsccccccccccsssc" />
      </g>
      <g
         style="display:none"
         transform="translate(0,20)"
         inkscape:label="Light"
         id="g3979">
        <g
           transform="translate(-0.03261583,-10.012291)"
           id="g3981"
           style="display:inline">
          <g
             id="g3983"
             inkscape:label="Pillar"
             style="display:inline"
             transform="translate(0,40)" />
          <g
             id="g3985"
             inkscape:label="Top Support"
             style="display:none"
             transform="translate(0,40)">
            <g
               id="g3987"
               transform="translate(0.05305884,-19.897533)">
              <path
                 transform="translate(-40,-40)"
                 style="fill:#000407;fill-opacity:1;fill-rule:evenodd;stroke:none"
                 id="path3989"
                 d="m 237.075,81.89375 -5.59375,16.71875 4.03125,1.3125 5.59375,-16.6875 -4.03125,-1.34375 z m -14.48135,-8.400002 0,0 z m 9.1251,-2.4875 0,0 z"
                 sodipodi:nodetypes="ccccccccc" />
            </g>
          </g>
          <g
             id="g3991"
             inkscape:label="Top Cone"
             style="display:none"
             transform="translate(0,40)">
            <g
               id="g3993"
               transform="translate(-1.12511,-16.485601)">
              <path
                 transform="translate(-40,-40)"
                 style="fill:#000407;fill-opacity:1;fill-rule:evenodd;stroke:none"
                 id="path3995"
                 d="m 258.13125,85.068748 -6.2,-40.575 -29.3376,29 35.5376,11.575 z m -6.2,-6.8375 -20.2125,-7.225 16.65,-16.75 3.5625,23.975 z"
                 sodipodi:nodetypes="cccccccc" />
            </g>
          </g>
          <g
             id="g3997"
             inkscape:label="Top Can"
             style="display:none"
             transform="translate(0,40)">
            <g
               id="g3999"
               transform="translate(-1.0006298,-16.738683)">
              <path
                 transform="translate(-40,-40)"
                 style="fill:#000407;fill-opacity:1;fill-rule:evenodd;stroke:none"
                 id="path4001"
                 d="m 194.48125,164.58125 0,0 z m 6.03125,4.21875 0,0 z m 63.775,-118.887458 -26.425,-8.7875 -11.575,33.78746 26.425,8.6375 11.575,-33.63746 z m -6.0625,3.61246 -8.0125,23.975 -17.0875,-6.2 8.0125,-23.97496 17.0875,6.19996 z"
                 sodipodi:nodetypes="cccccccccccccc" />
            </g>
          </g>
          <g
             id="g4003"
             inkscape:label="Light"
             style="display:inline"
             transform="translate(0,40)">
            <g
               id="g4005"
               transform="translate(0.01692762,-20.00346)">
              <path
                 style="fill:#a30075;fill-opacity:1;fill-rule:evenodd;stroke:none"
                 id="path4007"
                 d="m 131.60087,181.31159 -61.62788,76.30842 -4.53011,5.57826 -5.557433,4.22374 -6.899414,2.10924 -7.322226,-0.10972 -6.812191,-2.29629 -5.747427,-4.33733 -4.201328,-6.0873 -2.224898,-7.05116 0.15697,-6.9752 2.73284,-6.08953 4.594775,-5.30836 5.593528,-4.86801 1.174178,-0.94649 90.670616,-44.15027 z m 28.00125,-25.26051 c 2.19706,-0.21962 4.15842,1.38525 4.37805,3.58229 0.21962,2.19706 -1.38525,4.15842 -3.58229,4.37805 -2.19706,0.21962 -4.15842,-1.38525 -4.37805,-3.58229 -0.21962,-2.19706 1.38525,-4.15842 3.58229,-4.37805 z" />
            </g>
          </g>
          <g
             id="g4009"
             inkscape:label="Top Sphere"
             style="display:none"
             transform="translate(0,40)">
            <g
               id="g4011"
               transform="translate(-1.2726137,-15.886288)">
              <path
                 style="fill:#000407;fill-opacity:1;fill-rule:evenodd;stroke:none"
                 id="path4013"
                 d="m 206,5.6875 c -9.35666,0 -17,7.643343 -17,17 0,9.356657 7.64334,17 17,17 9.35666,0 17,-7.643343 17,-17 0,-9.356657 -7.64334,-16.9999999 -17,-17 z m 0,5 c 6.65134,0 12,5.348657 12,12 0,6.651343 -5.34866,12 -12,12 -6.65134,0 -12,-5.348657 -12,-12 0,-6.651343 5.34866,-12 12,-12 z"
                 sodipodi:nodetypes="csssccsssc" />
            </g>
          </g>
          <g
             id="g4015"
             inkscape:label="Top 2 Spheres"
             style="display:none"
             transform="translate(0,40)">
            <path
               style="fill:#000407;fill-opacity:1;fill-rule:evenodd;stroke:none"
               id="path4017"
               d="m 217.83948,9.1611226 c 0,8.0040004 -6.496,14.5000004 -14.5,14.5000004 -8.004,0 -14.5,-6.496 -14.5,-14.5000004 0,-8.004 6.496,-14.5000005 14.5,-14.5000005 8.004,0 14.5,6.4960005 14.5,14.5000005 z"
               sodipodi:nodetypes="csssc" />
            <path
               style="fill:#000407;fill-opacity:1;fill-rule:evenodd;stroke:none"
               id="path4019"
               d="m 227.31627,-17.93622 c 0,8.0040011 -6.496,14.5000011 -14.5,14.5000011 -8.004,0 -14.5,-6.496 -14.5,-14.5000011 0,-8.003999 6.496,-14.499999 14.5,-14.499999 8.004,0 14.5,6.496 14.5,14.499999 z"
               sodipodi:nodetypes="csssc" />
          </g>
          <g
             style="display:none"
             inkscape:label="Pillar 2 Stripe"
             id="g4021"
             transform="translate(0,40)">
            <path
               sodipodi:nodetypes="cccccccscccccccccccccscccccsssc"
               style="fill:#000407;fill-opacity:1;fill-rule:evenodd;stroke:none;display:inline"
               id="path4023"
               d="m 191.53964,38.593837 -6.53125,-2.09375 -30.46875,68.062503 -29.78125,32.59375 -7.78125,0 -0.125,5.65625 31.0625,0 c 1.28732,5.53295 6.23327,9.65624 12.15625,9.65625 5.92495,0 10.87095,-4.12052 12.15625,-9.65625 l 24.125,0 0,-5.65625 -7.78125,0 -2.46875,-22.34375 16.625,-72.625003 -7.15625,-2.28125 -4.03125,-1.3125 z m -2.28125,6.40625 4.96875,1.78125 -15.21875,68.031253 2.46875,22.34375 -9.25,0 c -1.28251,-5.53956 -6.22858,-9.6875 -12.15625,-9.6875 -5.92576,0 -10.87178,4.15063 -12.15625,9.6875 l -13.59375,0 26.25,-28.375 28.6875,-63.781253 z m -21.7,94.981253 c 0,4.14 -3.36,7.5 -7.5,7.5 -4.14,0 -7.5,-3.36 -7.5,-7.5 0,-4.14 3.36,-7.5 7.5,-7.5 4.14,0 7.5,3.36 7.5,7.5 z" />
            <path
               style="fill:#000204;fill-opacity:1;stroke:none"
               d="m 191.65723,45.835182 -27.91272,82.169788 0.60559,0.25569 27.76009,-82.265296 -0.45296,-0.160182 z"
               id="path4025"
               sodipodi:nodetypes="ccccc" />
          </g>
          <g
             style="display:none"
             inkscape:label="Pillar 3 Band"
             id="g4027"
             transform="translate(0,40)">
            <path
               sodipodi:nodetypes="cccccccscccccccccccccscccccsssc"
               style="fill:#000204;fill-opacity:1;fill-rule:evenodd;stroke:none;display:inline"
               id="path4029"
               d="m 191.53964,38.593837 -6.53125,-2.09375 -30.46875,68.062503 -29.78125,32.59375 -7.78125,0 -0.125,5.65625 31.0625,0 c 1.28732,5.53295 6.23327,9.65624 12.15625,9.65625 5.92495,0 10.87095,-4.12052 12.15625,-9.65625 l 24.125,0 0,-5.65625 -7.78125,0 -2.46875,-22.34375 16.625,-72.625003 -7.15625,-2.28125 -4.03125,-1.3125 z m -2.28125,6.40625 4.96875,1.78125 -15.21875,68.031253 2.46875,22.34375 -9.25,0 c -1.28251,-5.53956 -6.22858,-9.6875 -12.15625,-9.6875 -5.92576,0 -10.87178,4.15063 -12.15625,9.6875 l -13.59375,0 26.25,-28.375 28.6875,-63.781253 z m -21.7,94.981253 c 0,4.14 -3.36,7.5 -7.5,7.5 -4.14,0 -7.5,-3.36 -7.5,-7.5 0,-4.14 3.36,-7.5 7.5,-7.5 4.14,0 7.5,3.36 7.5,7.5 z" />
            <path
               style="fill:#000000;fill-opacity:1;stroke:none"
               d="m 160.6521,108.59992 18.41043,6.21974 0.12439,-0.52868 -18.34823,-6.25084 -0.18659,0.55978 z"
               id="path4031"
               sodipodi:nodetypes="ccccc" />
            <path
               style="fill:#000204;fill-opacity:1;stroke:none"
               d="m 175.26849,76.008471 11.59981,3.887338 c -0.14141,0.298758 -0.16166,0.365908 -0.15549,0.590878 l -11.69311,-3.918439 0.24879,-0.559777 z"
               id="path4033"
               sodipodi:nodetypes="ccccc" />
          </g>
          <g
             style="display:none"
             inkscape:label="Pillar 2 Band"
             id="g4035"
             transform="translate(0,40)">
            <path
               sodipodi:nodetypes="cccccccscccccccccccccscccccsssc"
               style="fill:#000407;fill-opacity:1;fill-rule:evenodd;stroke:none;display:inline"
               id="path4037"
               d="m 191.53964,38.593837 -6.53125,-2.09375 -30.46875,68.062503 -29.78125,32.59375 -7.78125,0 -0.125,5.65625 31.0625,0 c 1.28732,5.53295 6.23327,9.65624 12.15625,9.65625 5.92495,0 10.87095,-4.12052 12.15625,-9.65625 l 24.125,0 0,-5.65625 -7.78125,0 -2.46875,-22.34375 16.625,-72.625003 -7.15625,-2.28125 -4.03125,-1.3125 z m -2.28125,6.40625 4.96875,1.78125 -15.21875,68.031253 2.46875,22.34375 -9.25,0 c -1.28251,-5.53956 -6.22858,-9.6875 -12.15625,-9.6875 -5.92576,0 -10.87178,4.15063 -12.15625,9.6875 l -13.59375,0 26.25,-28.375 28.6875,-63.781253 z m -21.7,94.981253 c 0,4.14 -3.36,7.5 -7.5,7.5 -4.14,0 -7.5,-3.36 -7.5,-7.5 0,-4.14 3.36,-7.5 7.5,-7.5 4.14,0 7.5,3.36 7.5,7.5 z" />
            <path
               style="fill:#000000;fill-opacity:1;stroke:none"
               d="m 168.84909,90.31038 14.50814,5.08883 -0.0591,0.54193 -14.69694,-5.11992 0.24787,-0.51084 z"
               id="path4039"
               sodipodi:nodetypes="ccccc" />
          </g>
        </g>
      </g>
    </g>
    <path
       style="fill:#000000;fill-opacity:1"
       d="M 185.25,86.375 154,179.25 l 17.5625,5.9375 31.25,-92.875 L 185.25,86.375 z m 2.46875,4.875 10.34375,3.5 -28.65625,85.125 L 159.0625,176.40625 187.71875,91.25 z"
       id="path4041" />
    <rect
       y="54.368549"
       x="205.79723"
       height="1.212183"
       width="13.738074"
       id="rect4043"
       style="fill:#000000;fill-opacity:1;stroke:none"
       transform="matrix(0.94721028,0.32061299,-0.32061299,0.94721028,0,0)" />
    <rect
       style="fill:#000000;fill-opacity:1;stroke:none"
       id="rect4045"
       width="13.771747"
       height="1.2795266"
       x="206.12958"
       y="84.93045"
       transform="matrix(0.94721028,0.32061299,-0.32061299,0.94721028,0,0)" />
    <path
       style="fill:#000000;fill-opacity:1;stroke:none"
       d="m 183.95692,119.59733 c -2.66681,-0.91214 -4.9055,-1.68125 -4.97487,-1.70912 -0.0969,-0.0389 8.57751,-26.249403 8.76558,-26.486006 0.0466,-0.05863 10.00407,3.297722 10.1162,3.409851 0.10689,0.106891 -8.77055,26.388315 -8.9235,26.417765 -0.0741,0.0143 -2.31661,-0.72035 -4.98341,-1.63249 l 0,0 z"
       id="path3890" />
    <path
       style="fill:#000000;fill-opacity:1;stroke:none"
       d="m 164.13441,178.04031 -5.00694,-1.68021 0.6421,-1.8441 c 0.35316,-1.01426 2.47995,-7.32924 4.7262,-14.03329 2.24625,-6.70404 4.10198,-12.21205 4.12385,-12.24001 0.0459,-0.0587 9.76055,3.19208 10.02187,3.35358 0.13245,0.0819 -0.94195,3.41946 -4.53367,14.08378 -2.58899,7.68707 -4.76558,13.99088 -4.83687,14.00847 -0.0713,0.0176 -2.38273,-0.72411 -5.13654,-1.64822 z"
       id="path3892" />
    <path
       style="fill:#ffd400;fill-opacity:1;stroke:none"
       d="m 174.10611,148.52645 -5.00208,-1.70509 4.63459,-13.80179 c 2.54902,-7.59098 4.64844,-13.81442 4.66536,-13.82988 0.0388,-0.0354 9.88755,3.26899 10.05883,3.37485 0.0694,0.0429 -1.80598,5.81913 -4.16744,12.83613 -5.26998,15.65961 -4.99091,14.8474 -5.09834,14.83835 -0.0489,-0.004 -2.33978,-0.77478 -5.09092,-1.71257 l 0,0 z"
       id="path3894" />
    <g
       style="display:inline"
       id="g2870"
       transform="translate(0.05305884,30.111819)">
      <path
         transform="translate(-40,-40)"
         style="fill:#000407;fill-opacity:1;fill-rule:evenodd;stroke:none"
         id="path27763"
         d="m 237.075,81.89375 -5.59375,16.71875 4.03125,1.3125 5.59375,-16.6875 -4.03125,-1.34375 z m -14.48135,-8.400002 0,0 z m 9.1251,-2.4875 0,0 z"
         sodipodi:nodetypes="ccccccccc" />
    </g>
    <path
       transform="translate(0,20)"
       sodipodi:nodetypes="cccc"
       d="m 198.97514,53.02841 -4.7875,-35.975 30.5875,10.2376 -25.8,25.7374 z"
       id="path3149"
       style="fill:#000407;fill-opacity:1;fill-rule:evenodd;stroke:none;display:inline" />
    <path
       transform="translate(0,20)"
       style="fill:#000407;fill-opacity:1;fill-rule:evenodd;stroke:none;display:inline"
       id="path27763-23"
       d="m 195.34229,12.859241 25.8,-25.7625 5.1375,36.1125 -30.9375,-10.35 z"
       sodipodi:nodetypes="cccc" />
  </g>
</svg>
