<?xml version="1.0" encoding="UTF-8" standalone="no"?>
<!-- Created with Inkscape (http://www.inkscape.org/) -->
<svg
   xmlns:dc="http://purl.org/dc/elements/1.1/"
   xmlns:cc="http://creativecommons.org/ns#"
   xmlns:rdf="http://www.w3.org/1999/02/22-rdf-syntax-ns#"
   xmlns:svg="http://www.w3.org/2000/svg"
   xmlns="http://www.w3.org/2000/svg"
   xmlns:sodipodi="http://sodipodi.sourceforge.net/DTD/sodipodi-0.dtd"
   xmlns:inkscape="http://www.inkscape.org/namespaces/inkscape"
   version="1.0"
   width="400"
   height="400"
   id="svg2"
   sodipodi:version="0.32"
   inkscape:version="0.46"
   sodipodi:docname="Cardinal_Spar_South.svg"
   inkscape:output_extension="org.inkscape.output.svg.inkscape">
  <metadata
     id="metadata7">
    <rdf:RDF>
      <cc:Work
         rdf:about="">
        <dc:format>image/svg+xml</dc:format>
        <dc:type
           rdf:resource="http://purl.org/dc/dcmitype/StillImage" />
      </cc:Work>
    </rdf:RDF>
  </metadata>
  <sodipodi:namedview
     inkscape:window-height="843"
     inkscape:window-width="1440"
     inkscape:pageshadow="2"
     inkscape:pageopacity="0.0"
     guidetolerance="10.0"
     gridtolerance="10.0"
     objecttolerance="10.0"
     borderopacity="1.0"
     bordercolor="#666666"
     pagecolor="#ffffff"
     id="base"
     showgrid="false"
     inkscape:zoom="1.873833"
     inkscape:cx="200"
     inkscape:cy="242.69324"
     inkscape:window-x="-5"
     inkscape:window-y="-3"
     inkscape:current-layer="svg2" />
  <defs
     id="defs4">
    <inkscape:perspective
       sodipodi:type="inkscape:persp3d"
       inkscape:vp_x="0 : 200 : 1"
       inkscape:vp_y="0 : 1000 : 0"
       inkscape:vp_z="400 : 200 : 1"
       inkscape:persp3d-origin="200 : 133.33333 : 1"
       id="perspective9" />
  </defs>
  <path
     d="M 237.40625,80.5 L 231.46875,98.625 L 227.21875,97.21875 L 197.125,187.84375 C 192.53643,188.94207 188.91165,192.58419 187.84375,197.1875 L 179.40625,197.1875 L 179.28125,202.84375 L 187.84375,202.84375 C 189.13107,208.3767 194.07702,212.49999 200,212.5 C 205.92495,212.5 210.87095,208.37948 212.15625,202.84375 L 220.48125,202.8 L 220.48125,197.14375 L 212.15625,197.1875 C 211.66675,195.07319 210.65776,193.14936 209.25,191.59375 L 239.25,101.125 L 235.5,99.9375 L 241.78125,81.96875 L 237.40625,80.5 z M 200,192.5 C 204.14,192.5 207.5,195.86 207.5,200 C 207.5,204.14 204.14,207.5 200,207.5 C 195.86,207.5 192.5,204.14 192.5,200 C 192.5,195.86 195.86,192.5 200,192.5 z M 240.18125,79.212405 L 235.39375,43.237405 L 265.98125,53.475005 L 240.18125,79.212405 z M 252.0375,45.037996 L 246.9125,8.9630265 L 277.825,19.288026 L 252.0375,45.037996 z"
     id="path27763"
     style="fill: rgb(0, 4, 7); fill-opacity: 1; fill-rule: evenodd; stroke: none;" />
  <path
     style="fill:#ffcc00;fill-rule:evenodd;stroke:#000000;stroke-width:1px;stroke-linecap:butt;stroke-linejoin:miter;stroke-opacity:1"
     d="M 212.39887,141.7059 L 224.67317,145.97522"
     id="path2386" />
  <path
     style="fill:#ffcc00;fill-opacity:1;fill-rule:evenodd;stroke:#000000;stroke-width:0.53366548;stroke-opacity:1"
     d="M 195.03691,211.04696 C 192.39303,209.82024 189.75362,207.09538 188.65283,204.45611 L 187.81807,202.45486 L 183.49885,202.45486 C 179.77952,202.45486 179.22456,202.33761 179.50351,201.61071 C 179.68175,201.14644 179.82744,200.06576 179.82744,199.20922 L 179.82744,197.65187 L 183.84888,197.65187 L 187.87032,197.65187 L 188.8442,195.38379 C 190.03316,192.61477 192.53007,190.09714 195.3474,188.8267 L 197.4574,187.87522 L 212.29581,142.99924 C 228.30402,94.585252 226.94013,97.925662 230.48089,98.461718 C 231.71024,98.647834 231.90295,98.24307 234.61899,89.768649 L 237.46769,80.880381 L 239.33339,81.45295 C 240.35941,81.767877 241.19898,82.207228 241.19898,82.429291 C 241.19898,82.65136 239.87949,86.598633 238.2668,91.201018 C 236.65412,95.803402 235.4561,99.765554 235.60461,100.00581 C 235.75308,100.24607 236.56852,100.59505 237.41662,100.78133 L 238.95876,101.12003 L 233.10002,118.83361 C 229.87774,128.57607 223.16124,148.8396 218.17451,163.86368 L 209.1078,191.18017 L 210.61098,194.41047 L 212.11421,197.64077 L 216.25011,197.6463 L 220.38602,197.65187 L 220.38602,200.05337 L 220.38602,202.45486 L 216.25011,202.45685 L 212.11421,202.45887 L 211.13317,204.84443 C 210.05677,207.46205 207.29745,210.18558 204.5654,211.3271 C 202.09597,212.35886 197.57817,212.22604 195.03691,211.04696 L 195.03691,211.04696 z M 203.29811,206.85679 C 206.26369,205.3668 207.71803,202.74733 207.44794,199.38218 C 207.08857,194.90512 203.59637,191.96353 199.22549,192.45619 C 196.09538,192.809 194.33653,194.08788 193.08252,196.92271 C 191.42266,200.67517 192.82375,204.86225 196.37107,206.75023 C 198.73708,208.00947 200.93642,208.04331 203.29811,206.85677 L 203.29811,206.85679 z"
     id="path2388" />
  <path
     style="fill:#000000;fill-rule:evenodd;stroke:#000000;stroke-width:1px;stroke-linecap:butt;stroke-linejoin:miter;stroke-opacity:1"
     d="M 212.93253,141.17223 L 223.60584,144.90789"
     id="path2390" />
  <path
     style="fill:#000000;fill-opacity:1;fill-rule:evenodd;stroke:#000000;stroke-width:0.53366548;stroke-opacity:1"
     d="M 195.55873,210.52864 C 192.80987,209.27993 190.29417,206.75681 189.10058,204.05149 L 188.16068,201.9212 L 183.93699,201.9212 C 180.30475,201.9212 179.7586,201.80298 180.03717,201.07705 C 180.21542,200.61277 180.36111,199.77225 180.36111,199.20922 C 180.36111,198.29434 180.7723,198.1854 184.23018,198.18427 L 188.09926,198.183 L 189.62053,195.27148 C 191.13635,192.37049 192.98673,190.58608 196.18947,188.9367 C 197.81757,188.09822 198.13729,187.28183 205.46826,165.24291 C 209.64414,152.68894 213.12145,142.344 213.19557,142.25416 C 213.31864,142.10502 223.07292,145.33983 223.51015,145.6748 C 223.61411,145.75443 220.29951,156.01856 216.1444,168.48399 L 208.58967,191.14841 L 210.18506,194.66697 L 211.78045,198.18554 L 215.8164,198.18554 L 219.85236,198.18554 L 219.85236,200.05337 L 219.85236,201.9212 L 215.82265,201.9212 L 211.79289,201.9212 L 211.02073,203.76916 C 208.37882,210.09225 201.35626,213.16228 195.55873,210.52864 L 195.55873,210.52864 z M 203.29784,207.12443 C 206.64915,205.412 207.80678,203.59656 207.80678,200.05337 C 207.80678,196.91257 206.89539,195.18246 204.16953,193.14869 C 202.26007,191.72402 198.27541,191.72607 195.84483,193.15299 C 190.52963,196.27343 190.97454,204.76025 196.58694,207.30915 C 199.43325,208.60178 200.46199,208.57347 203.29784,207.12443 z"
     id="path2392" />
</svg>
