<?xml version="1.0" encoding="UTF-8" standalone="no"?>
<svg
   xmlns:dc="http://purl.org/dc/elements/1.1/"
   xmlns:cc="http://creativecommons.org/ns#"
   xmlns:rdf="http://www.w3.org/1999/02/22-rdf-syntax-ns#"
   xmlns:svg="http://www.w3.org/2000/svg"
   xmlns="http://www.w3.org/2000/svg"
   xmlns:sodipodi="http://sodipodi.sourceforge.net/DTD/sodipodi-0.dtd"
   xmlns:inkscape="http://www.inkscape.org/namespaces/inkscape"
   version="1.0"
   width="320"
   height="380"
   id="svg2"
   inkscape:version="0.47 r22583"
   sodipodi:docname="Cardinal_Pillar_East_Lighted.svg"
   inkscape:label="Pillar"
   style="display:inline">
  <metadata
     id="metadata2822">
    <rdf:RDF>
      <cc:Work
         rdf:about="">
        <dc:format>image/svg+xml</dc:format>
        <dc:type
           rdf:resource="http://purl.org/dc/dcmitype/StillImage" />
        <dc:title />
      </cc:Work>
    </rdf:RDF>
  </metadata>
  <sodipodi:namedview
     pagecolor="#000000"
     bordercolor="#666666"
     borderopacity="1"
     objecttolerance="10"
     gridtolerance="10"
     guidetolerance="10"
     inkscape:pageopacity="0"
     inkscape:pageshadow="2"
     inkscape:window-width="1920"
     inkscape:window-height="1088"
     id="namedview2820"
     showgrid="true"
     inkscape:zoom="1.8561553"
     inkscape:cx="12.471056"
     inkscape:cy="263.38504"
     inkscape:window-x="1440"
     inkscape:window-y="0"
     inkscape:window-maximized="0"
     inkscape:current-layer="g3660"
     inkscape:snap-grids="false">
    <inkscape:grid
       type="xygrid"
       id="grid3180"
       empspacing="5"
       visible="true"
       enabled="true"
       snapvisiblegridlinesonly="true" />
  </sodipodi:namedview>
  <defs
     id="defs4">
    <inkscape:perspective
       sodipodi:type="inkscape:persp3d"
       inkscape:vp_x="0 : 160 : 1"
       inkscape:vp_y="0 : 1000 : 0"
       inkscape:vp_z="320 : 160 : 1"
       inkscape:persp3d-origin="160 : 106.66667 : 1"
       id="perspective2824" />
    <inkscape:perspective
       id="perspective2867"
       inkscape:persp3d-origin="160 : 106.66667 : 1"
       inkscape:vp_z="320 : 160 : 1"
       inkscape:vp_y="0 : 1000 : 0"
       inkscape:vp_x="0 : 160 : 1"
       sodipodi:type="inkscape:persp3d" />
    <inkscape:perspective
       id="perspective2913"
       inkscape:persp3d-origin="160 : 106.66667 : 1"
       inkscape:vp_z="320 : 160 : 1"
       inkscape:vp_y="0 : 1000 : 0"
       inkscape:vp_x="0 : 160 : 1"
       sodipodi:type="inkscape:persp3d" />
    <inkscape:perspective
       id="perspective2969"
       inkscape:persp3d-origin="160 : 106.66667 : 1"
       inkscape:vp_z="320 : 160 : 1"
       inkscape:vp_y="0 : 1000 : 0"
       inkscape:vp_x="0 : 160 : 1"
       sodipodi:type="inkscape:persp3d" />
    <inkscape:perspective
       id="perspective3016"
       inkscape:persp3d-origin="160 : 106.66667 : 1"
       inkscape:vp_z="320 : 160 : 1"
       inkscape:vp_y="0 : 1000 : 0"
       inkscape:vp_x="0 : 160 : 1"
       sodipodi:type="inkscape:persp3d" />
    <inkscape:perspective
       id="perspective3091"
       inkscape:persp3d-origin="160 : 106.66667 : 1"
       inkscape:vp_z="320 : 160 : 1"
       inkscape:vp_y="0 : 1000 : 0"
       inkscape:vp_x="0 : 160 : 1"
       sodipodi:type="inkscape:persp3d" />
    <inkscape:perspective
       id="perspective3135"
       inkscape:persp3d-origin="200 : 133.33333 : 1"
       inkscape:vp_z="400 : 200 : 1"
       inkscape:vp_y="0 : 1000 : 0"
       inkscape:vp_x="0 : 200 : 1"
       sodipodi:type="inkscape:persp3d" />
    <inkscape:perspective
       id="perspective3176"
       inkscape:persp3d-origin="200 : 133.33333 : 1"
       inkscape:vp_z="400 : 200 : 1"
       inkscape:vp_y="0 : 1000 : 0"
       inkscape:vp_x="0 : 200 : 1"
       sodipodi:type="inkscape:persp3d" />
    <inkscape:perspective
       id="perspective2952"
       inkscape:persp3d-origin="160 : 106.66667 : 1"
       inkscape:vp_z="320 : 160 : 1"
       inkscape:vp_y="0 : 1000 : 0"
       inkscape:vp_x="0 : 160 : 1"
       sodipodi:type="inkscape:persp3d" />
    <inkscape:perspective
       id="perspective2994"
       inkscape:persp3d-origin="200 : 133.33333 : 1"
       inkscape:vp_z="400 : 200 : 1"
       inkscape:vp_y="0 : 1000 : 0"
       inkscape:vp_x="0 : 200 : 1"
       sodipodi:type="inkscape:persp3d" />
    <inkscape:perspective
       id="perspective3035"
       inkscape:persp3d-origin="200 : 133.33333 : 1"
       inkscape:vp_z="400 : 200 : 1"
       inkscape:vp_y="0 : 1000 : 0"
       inkscape:vp_x="0 : 200 : 1"
       sodipodi:type="inkscape:persp3d" />
    <inkscape:perspective
       id="perspective3086"
       inkscape:persp3d-origin="200 : 133.33333 : 1"
       inkscape:vp_z="400 : 200 : 1"
       inkscape:vp_y="0 : 1000 : 0"
       inkscape:vp_x="0 : 200 : 1"
       sodipodi:type="inkscape:persp3d" />
    <inkscape:perspective
       id="perspective3143"
       inkscape:persp3d-origin="200 : 133.33333 : 1"
       inkscape:vp_z="400 : 200 : 1"
       inkscape:vp_y="0 : 1000 : 0"
       inkscape:vp_x="0 : 200 : 1"
       sodipodi:type="inkscape:persp3d" />
    <inkscape:perspective
       id="perspective3188"
       inkscape:persp3d-origin="200 : 133.33333 : 1"
       inkscape:vp_z="400 : 200 : 1"
       inkscape:vp_y="0 : 1000 : 0"
       inkscape:vp_x="0 : 200 : 1"
       sodipodi:type="inkscape:persp3d" />
  </defs>
  <g
     style="display:inline"
     inkscape:label="Pillar 3 Band"
     id="g3660"
     inkscape:groupmode="layer"
     transform="translate(0,60)">
    <path
       sodipodi:nodetypes="cccccccscccccccccccccscccccsssc"
       style="fill:#000204;fill-opacity:1;fill-rule:evenodd;stroke:none;display:inline"
       id="path3662"
       d="m 191.53964,28.603189 -6.53125,-2.09375 -30.46875,68.062503 -29.78125,32.593748 -7.78125,0 -0.125,5.65625 31.0625,0 c 1.28732,5.53295 6.23327,9.65624 12.15625,9.65625 5.92495,0 10.87095,-4.12052 12.15625,-9.65625 l 24.125,0 0,-5.65625 -7.78125,0 -2.46875,-22.34375 16.625,-72.625001 -7.15625,-2.28125 -4.03125,-1.3125 z m -2.28125,6.40625 4.96875,1.78125 -15.21875,68.031251 2.46875,22.34375 -9.25,0 c -1.28251,-5.53956 -6.22858,-9.6875 -12.15625,-9.6875 -5.92576,0 -10.87178,4.15063 -12.15625,9.6875 l -13.59375,0 26.25,-28.374998 28.6875,-63.781253 z m -21.7,94.981251 c 0,4.14 -3.36,7.5 -7.5,7.5 -4.14,0 -7.5,-3.36 -7.5,-7.5 0,-4.14 3.36,-7.5 7.5,-7.5 4.14,0 7.5,3.36 7.5,7.5 z" />
    <path
       style="fill:#000000;fill-opacity:1;stroke:none"
       d="m 160.6521,98.609272 18.41043,6.219738 0.12439,-0.52868 -18.34823,-6.250838 -0.18659,0.55978 z"
       id="path3664"
       sodipodi:nodetypes="ccccc" />
    <path
       style="fill:#000204;fill-opacity:1;stroke:none"
       d="m 175.26849,66.017823 11.59981,3.887338 c -0.14141,0.298758 -0.16166,0.365908 -0.15549,0.590878 L 175.0197,66.5776 l 0.24879,-0.559777 z"
       id="path3666"
       sodipodi:nodetypes="ccccc" />
    <path
       style="fill:#ffd400;fill-opacity:1"
       d="m 169.94564,161.03533 c -7.03051,-2.41705 -8.6805,-3.07495 -8.58904,-3.4247 0.0623,-0.2381 3.19036,-7.28679 6.95132,-15.66376 l 6.83811,-15.23085 5.65685,1.94852 c 3.95703,1.36301 5.63941,2.06178 5.5988,2.32542 -0.0646,0.41953 -6.97999,31.4 -7.24228,32.44502 -0.0912,0.36345 -0.24362,0.64537 -0.33868,0.62647 -0.095,-0.0189 -4.08884,-1.38064 -8.87508,-3.02612 l 0,0 z"
       id="path4834"
       transform="translate(0,-60)" />
    <path
       style="fill:#000000;fill-opacity:1"
       d="m 135.59578,186.08483 c 0.41822,-0.49926 6.25202,-6.84038 12.964,-14.09137 l 12.20361,-13.18361 8.9307,3.00792 c 4.91188,1.65435 9.02074,3.17704 9.13079,3.38375 0.17677,0.33203 2.38981,20.12071 2.38425,21.31967 -0.002,0.42973 -0.39326,0.4714 -4.42597,0.4714 l -4.42378,0 -0.32718,-0.99136 c -1.43347,-4.34349 -5.48932,-7.7316 -10.10337,-8.44 -6.17091,-0.94743 -11.86323,2.70869 -13.94999,8.95996 -0.14406,0.43156 -0.70609,0.4714 -6.65041,0.4714 l -6.49304,0 0.76039,-0.90776 z"
       id="path4836"
       transform="translate(0,-60)" />
    <path
       style="fill:#000000;fill-opacity:1"
       d="m 180.93757,127.80685 c -2.88903,-0.9716 -5.28921,-1.79647 -5.33372,-1.83304 -0.0445,-0.0366 3.02874,-6.9783 6.82946,-15.42606 l 6.9104,-15.35955 2.3979,0.849392 c 1.31884,0.467165 2.35318,0.97061 2.29853,1.118766 -0.0547,0.148155 -1.7186,7.512172 -3.69767,16.364472 -1.97906,8.8523 -3.7229,16.08553 -3.8752,16.07383 -0.1523,-0.0117 -2.64066,-0.81621 -5.5297,-1.78781 z"
       id="path4838"
       transform="translate(0,-60)" />
    <g
       style="display:inline;fill:#ffff00;fill-opacity:1"
       id="g3019"
       transform="translate(0.01692762,-29.994108)">
      <path
         style="fill:#ffff00;fill-opacity:1;fill-rule:evenodd;stroke:none"
         id="path28209"
         d="m 131.60087,181.31159 -61.62788,76.30842 -4.53011,5.57826 -5.557433,4.22374 -6.899414,2.10924 -7.322226,-0.10972 -6.812191,-2.29629 -5.747427,-4.33733 -4.201328,-6.0873 -2.224898,-7.05116 0.15697,-6.9752 2.73284,-6.08953 4.594775,-5.30836 5.593528,-4.86801 1.174178,-0.94649 90.670616,-44.15027 z m 28.00125,-25.26051 c 2.19706,-0.21962 4.15842,1.38525 4.37805,3.58229 0.21962,2.19706 -1.38525,4.15842 -3.58229,4.37805 -2.19706,0.21962 -4.15842,-1.38525 -4.37805,-3.58229 -0.21962,-2.19706 1.38525,-4.15842 3.58229,-4.37805 z" />
    </g>
    <path
       transform="translate(0,-40)"
       sodipodi:nodetypes="cccc"
       d="m 198.97514,53.02841 -4.7875,-35.975 30.5875,10.2376 -25.8,25.7374 z"
       id="path3149"
       style="fill:#000407;fill-opacity:1;fill-rule:evenodd;stroke:none;display:inline" />
    <path
       transform="translate(0,-40)"
       style="fill:#000407;fill-opacity:1;fill-rule:evenodd;stroke:none;display:inline"
       id="path27763-23"
       d="m 195.34229,12.859241 25.8,-25.7625 5.1375,36.1125 -30.9375,-10.35 z"
       sodipodi:nodetypes="cccc" />
    <g
       style="display:inline"
       id="g2870"
       transform="translate(0.05305884,-29.888181)">
      <path
         transform="translate(-40,-40)"
         style="fill:#000407;fill-opacity:1;fill-rule:evenodd;stroke:none"
         id="path27763"
         d="m 237.075,81.89375 -5.59375,16.71875 4.03125,1.3125 5.59375,-16.6875 -4.03125,-1.34375 z m -14.48135,-8.400002 0,0 z m 9.1251,-2.4875 0,0 z"
         sodipodi:nodetypes="ccccccccc" />
    </g>
  </g>
</svg>
