<?xml version="1.0" encoding="UTF-8" standalone="no"?>
<svg
   xmlns:dc="http://purl.org/dc/elements/1.1/"
   xmlns:cc="http://creativecommons.org/ns#"
   xmlns:rdf="http://www.w3.org/1999/02/22-rdf-syntax-ns#"
   xmlns:svg="http://www.w3.org/2000/svg"
   xmlns="http://www.w3.org/2000/svg"
   xmlns:sodipodi="http://sodipodi.sourceforge.net/DTD/sodipodi-0.dtd"
   xmlns:inkscape="http://www.inkscape.org/namespaces/inkscape"
   version="1.0"
   width="300"
   height="400"
   id="svg2"
   inkscape:version="0.47 r22583"
   sodipodi:docname="Cardinal_Float_Single.svg"
   style="display:inline">
  <metadata
     id="metadata2913">
    <rdf:RDF>
      <cc:Work
         rdf:about="">
        <dc:format>image/svg+xml</dc:format>
        <dc:type
           rdf:resource="http://purl.org/dc/dcmitype/StillImage" />
        <dc:title />
      </cc:Work>
    </rdf:RDF>
  </metadata>
  <sodipodi:namedview
     pagecolor="#ffffff"
     bordercolor="#666666"
     borderopacity="1"
     objecttolerance="10"
     gridtolerance="10"
     guidetolerance="10"
     inkscape:pageopacity="0"
     inkscape:pageshadow="2"
     inkscape:window-width="1920"
     inkscape:window-height="1088"
     id="namedview2911"
     showgrid="true"
     inkscape:zoom="2.8421876"
     inkscape:cx="132.32167"
     inkscape:cy="203.98571"
     inkscape:window-x="1440"
     inkscape:window-y="0"
     inkscape:window-maximized="0"
     inkscape:current-layer="g3666"
     inkscape:snap-grids="false">
    <inkscape:grid
       type="xygrid"
       id="grid2919"
       empspacing="5"
       visible="true"
       enabled="true"
       snapvisiblegridlinesonly="true" />
  </sodipodi:namedview>
  <defs
     id="defs4">
    <inkscape:perspective
       sodipodi:type="inkscape:persp3d"
       inkscape:vp_x="0 : 160 : 1"
       inkscape:vp_y="0 : 1000 : 0"
       inkscape:vp_z="320 : 160 : 1"
       inkscape:persp3d-origin="160 : 106.66667 : 1"
       id="perspective2915" />
    <inkscape:perspective
       id="perspective2862"
       inkscape:persp3d-origin="160 : 106.66667 : 1"
       inkscape:vp_z="320 : 160 : 1"
       inkscape:vp_y="0 : 1000 : 0"
       inkscape:vp_x="0 : 160 : 1"
       sodipodi:type="inkscape:persp3d" />
    <inkscape:perspective
       id="perspective2933"
       inkscape:persp3d-origin="160 : 106.66667 : 1"
       inkscape:vp_z="320 : 160 : 1"
       inkscape:vp_y="0 : 1000 : 0"
       inkscape:vp_x="0 : 160 : 1"
       sodipodi:type="inkscape:persp3d" />
    <inkscape:perspective
       id="perspective2989"
       inkscape:persp3d-origin="160 : 106.66667 : 1"
       inkscape:vp_z="320 : 160 : 1"
       inkscape:vp_y="0 : 1000 : 0"
       inkscape:vp_x="0 : 160 : 1"
       sodipodi:type="inkscape:persp3d" />
    <inkscape:perspective
       id="perspective3073"
       inkscape:persp3d-origin="160 : 106.66667 : 1"
       inkscape:vp_z="320 : 160 : 1"
       inkscape:vp_y="0 : 1000 : 0"
       inkscape:vp_x="0 : 160 : 1"
       sodipodi:type="inkscape:persp3d" />
    <inkscape:perspective
       id="perspective3123"
       inkscape:persp3d-origin="160 : 106.66667 : 1"
       inkscape:vp_z="320 : 160 : 1"
       inkscape:vp_y="0 : 1000 : 0"
       inkscape:vp_x="0 : 160 : 1"
       sodipodi:type="inkscape:persp3d" />
    <inkscape:perspective
       id="perspective3203"
       inkscape:persp3d-origin="160 : 106.66667 : 1"
       inkscape:vp_z="320 : 160 : 1"
       inkscape:vp_y="0 : 1000 : 0"
       inkscape:vp_x="0 : 160 : 1"
       sodipodi:type="inkscape:persp3d" />
    <inkscape:perspective
       id="perspective3274"
       inkscape:persp3d-origin="200 : 133.33333 : 1"
       inkscape:vp_z="400 : 200 : 1"
       inkscape:vp_y="0 : 1000 : 0"
       inkscape:vp_x="0 : 200 : 1"
       sodipodi:type="inkscape:persp3d" />
    <inkscape:perspective
       id="perspective3401"
       inkscape:persp3d-origin="200 : 133.33333 : 1"
       inkscape:vp_z="400 : 200 : 1"
       inkscape:vp_y="0 : 1000 : 0"
       inkscape:vp_x="0 : 200 : 1"
       sodipodi:type="inkscape:persp3d" />
    <inkscape:perspective
       id="perspective3639"
       inkscape:persp3d-origin="200 : 133.33333 : 1"
       inkscape:vp_z="400 : 200 : 1"
       inkscape:vp_y="0 : 1000 : 0"
       inkscape:vp_x="0 : 200 : 1"
       sodipodi:type="inkscape:persp3d" />
    <inkscape:perspective
       id="perspective3689"
       inkscape:persp3d-origin="200 : 133.33333 : 1"
       inkscape:vp_z="400 : 200 : 1"
       inkscape:vp_y="0 : 1000 : 0"
       inkscape:vp_x="0 : 200 : 1"
       sodipodi:type="inkscape:persp3d" />
    <inkscape:perspective
       id="perspective3739"
       inkscape:persp3d-origin="200 : 133.33333 : 1"
       inkscape:vp_z="400 : 200 : 1"
       inkscape:vp_y="0 : 1000 : 0"
       inkscape:vp_x="0 : 200 : 1"
       sodipodi:type="inkscape:persp3d" />
  </defs>
  <g
     transform="translate(0,80)"
     style="display:inline"
     inkscape:label="Minor Float 3 Band"
     id="g3666"
     inkscape:groupmode="layer">
    <path
       sodipodi:nodetypes="cccccsccccccccccccccsssc"
       id="path3668"
       d="m 141.41922,111.0028 c -1.70454,1.6489 -2.9247,3.83867 -3.47801,6.22378 l -41.906437,-0.022 0.0289,5.63426 41.833527,0.044 c 1.28732,5.53295 6.25526,9.7442 12.17824,9.74421 5.92495,0 10.89294,-4.20848 12.17824,-9.74421 l 41.75945,-0.0312 -0.044,-5.63426 -41.73746,0.009 c -0.58668,-2.52896 -1.82216,-4.51083 -3.68811,-6.19717 l -1.52406,-1.27363 -1.8821,-1.21102 -2.30232,-0.71488 -2.90982,-0.29604 -2.86401,0.2853 -2.17355,0.6878 -1.91144,1.18458 -1.55709,1.31128 z m 8.65625,1.62424 c 4.14,0 7.5,3.36 7.5,7.5 0,4.14 -3.36,7.5 -7.5,7.5 -4.14,0 -7.5,-3.36 -7.5,-7.5 0,-4.14 3.36,-7.5 7.5,-7.5 z"
       style="fill:#000407;fill-opacity:1;fill-rule:evenodd;stroke:none;display:inline" />
    <path
       sodipodi:nodetypes="cccccc"
       id="path3670"
       d="m 138.18452,77.293388 23.9441,0 5.82689,16.56338 -35.95865,0.0214 6.18766,-16.58476 0,-4e-5 z"
       style="fill:none;stroke:#000000;stroke-width:4.23707008;stroke-linecap:butt;stroke-linejoin:miter;stroke-miterlimit:4;stroke-opacity:1;stroke-dasharray:none" />
    <path
       sodipodi:nodetypes="cccccc"
       id="path3672"
       d="m 113.80247,120.01157 -11.78669,-35.008232 15.95726,8.99772 64.12315,0.0364 15.8844,-9.03417 -11.96262,35.008252"
       style="fill:none;stroke:#000000;stroke-width:4;stroke-linecap:butt;stroke-linejoin:miter;stroke-miterlimit:4;stroke-opacity:1;stroke-dasharray:none" />
    <rect
       style="fill:#000000;fill-opacity:1;stroke:none"
       id="rect3674"
       width="81.602997"
       height="0.93296117"
       x="109.37322"
       y="103.07365" />
    <path
       style="fill:#000000;fill-opacity:1;stroke:none"
       d="m 136.66809,88.168068 c 0.69833,-1.84727 1.71198,-4.53419 2.25256,-5.97095 l 0.98287,-2.6123 10.13525,0 c 5.5744,0 10.25284,0.19025 10.39654,0.42277 0.14371,0.23252 1.14072,2.91944 2.21559,5.97095 l 1.9543,5.54819 -14.6034,0 -14.6034,0 1.26969,-3.35866 z"
       id="path2877" />
    <path
       style="fill:#000000;fill-opacity:1;stroke:none"
       d="m 113.11857,110.68352 -2.05891,-6.21974 38.76756,0 c 21.32216,0 38.76756,0.17537 38.76756,0.38971 0,0.21434 -0.85943,2.95725 -1.90985,6.09534 l -1.90986,5.70564 -11.17275,0.13347 -11.17276,0.13347 -0.58953,-1.62621 c -2.31585,-6.38826 -11.11439,-9.836 -17.37137,-6.80705 -2.49479,1.20771 -5.3634,4.35263 -6.15328,6.74598 l -0.55086,1.66913 -11.29352,0 -11.29352,0 -2.05891,-6.21974 z"
       id="path2879" />
    <path
       style="fill:#d40000;fill-opacity:1;stroke:none"
       d="m 110.32237,102.59786 c -0.6408,-1.1323 -3.88925,-11.673492 -3.66613,-11.896602 0.14585,-0.14586 2.57611,1.03871 5.40056,2.63237 l 5.13536,2.89757 32.44723,0.19015 32.44722,0.19016 5.53276,-3.08333 c 3.04302,-1.69584 5.62389,-2.99221 5.73526,-2.88083 0.11139,0.11138 -0.70981,2.92978 -1.82487,6.2631 l -2.02739,6.060592 -39.4844,0 c -21.71642,0 -39.57944,-0.16793 -39.6956,-0.37318 z"
       id="path2881" />
    <path
       style="fill:#000407;fill-opacity:1;fill-rule:evenodd;stroke:none;display:inline"
       id="path27763"
       d="m 164.46095,19.345067 c 0,8.004 -6.47999,14.45602 -14.48399,14.45602 -8.004,0 -14.45381,-6.527099 -14.45381,-14.531099 0,-8.004 6.39203,-14.5000008 14.39603,-14.5000008 8.004,0 14.54177,6.5710798 14.54177,14.5750798 z m 0.0184,28.924917 c 0,8.004004 -6.496,14.500004 -14.5,14.500004 -8.004,0 -14.5,-6.496 -14.5,-14.500004 0,-8.004 6.496,-14.5 14.5,-14.5 8.004,0 14.5,6.496 14.5,14.5 z"
       sodipodi:nodetypes="csssccsssc" />
    <g
       style="display:inline"
       transform="matrix(1,0,0,0.74930505,-10.064217,10.656361)"
       id="g2912">
      <path
         sodipodi:nodetypes="ccccc"
         d="m 197.875,108.625 0,17.71875 4.25,0 0,-17.71875 -4.25,0 z"
         id="path2914"
         style="fill:#000407;fill-opacity:1;fill-rule:evenodd;stroke:none"
         transform="translate(-40,-40)" />
    </g>
  </g>
</svg>
