<?xml version="1.0" encoding="UTF-8" standalone="no"?>
<svg
   xmlns:dc="http://purl.org/dc/elements/1.1/"
   xmlns:cc="http://creativecommons.org/ns#"
   xmlns:rdf="http://www.w3.org/1999/02/22-rdf-syntax-ns#"
   xmlns:svg="http://www.w3.org/2000/svg"
   xmlns="http://www.w3.org/2000/svg"
   xmlns:sodipodi="http://sodipodi.sourceforge.net/DTD/sodipodi-0.dtd"
   xmlns:inkscape="http://www.inkscape.org/namespaces/inkscape"
   version="1.0"
   width="320"
   height="320"
   id="svg2"
   sodipodi:version="0.32"
   inkscape:version="0.46"
   sodipodi:docname="Cardinal_Beacon_West.svg"
   inkscape:output_extension="org.inkscape.output.svg.inkscape">
  <metadata
     id="metadata6">
    <rdf:RDF>
      <cc:Work
         rdf:about="">
        <dc:format>image/svg+xml</dc:format>
        <dc:type
           rdf:resource="http://purl.org/dc/dcmitype/StillImage" />
      </cc:Work>
    </rdf:RDF>
  </metadata>
  <sodipodi:namedview
     inkscape:window-height="843"
     inkscape:window-width="1440"
     inkscape:pageshadow="2"
     inkscape:pageopacity="0.0"
     guidetolerance="10.0"
     gridtolerance="10.0"
     objecttolerance="10.0"
     borderopacity="1.0"
     bordercolor="#666666"
     pagecolor="#ffffff"
     id="base"
     showgrid="false"
     inkscape:zoom="1.65625"
     inkscape:cx="160"
     inkscape:cy="160"
     inkscape:window-x="-5"
     inkscape:window-y="-3"
     inkscape:current-layer="svg2" />
  <defs
     id="defs4">
    <inkscape:perspective
       sodipodi:type="inkscape:persp3d"
       inkscape:vp_x="0 : 160 : 1"
       inkscape:vp_y="0 : 1000 : 0"
       inkscape:vp_z="320 : 160 : 1"
       inkscape:persp3d-origin="160 : 106.66667 : 1"
       id="perspective8" />
    <inkscape:perspective
       id="perspective2465"
       inkscape:persp3d-origin="200 : 133.33333 : 1"
       inkscape:vp_z="400 : 200 : 1"
       inkscape:vp_y="0 : 1000 : 0"
       inkscape:vp_x="0 : 200 : 1"
       sodipodi:type="inkscape:persp3d" />
  </defs>
  <path
     d="M 197.71875,108.59375 L 197.71875,126.28125 L 191.34375,126.28125 L 191.34375,191.03125 C 189.63921,192.68015 188.39706,194.80239 187.84375,197.1875 L 179.40625,197.1875 L 179.28125,202.84375 L 187.84375,202.84375 C 189.13107,208.3767 194.07702,212.49999 200,212.5 C 205.92495,212.5 210.87095,208.37948 212.15625,202.84375 L 220.46875,202.8125 L 220.46875,197.15625 L 212.15625,197.1875 C 211.56957,194.65854 210.2097,192.43634 208.34375,190.75 L 208.34375,126.28125 L 201.96875,126.28125 L 201.96875,108.59375 L 197.71875,108.59375 z M 200,192.5 C 204.14,192.5 207.5,195.86 207.5,200 C 207.5,204.14 204.14,207.5 200,207.5 C 195.86,207.5 192.5,204.14 192.5,200 C 192.5,195.86 195.86,192.5 200,192.5 z"
     id="path2520"
     style="fill: rgb(0, 4, 7); fill-opacity: 1; fill-rule: evenodd; stroke: none;"
     transform="translate(-40, -40)" />
  <g
     id="g2467"
     transform="translate(36.07158,5.8158019)">
    <path
       style="fill:#000407;fill-opacity:1;fill-rule:evenodd;stroke:none"
       id="path27763"
       d="M 121.63998,64.96035 L 126.25456,65.018852 L 121.63998,64.96035 z M 108.7484,-6.0796518 L 124.31415,26.697147 L 141.0112,-5.6903183 L 108.7484,-6.0796518 z M 124.27667,30.254511 L 107.61894,62.662156 L 140.20794,63.045044 L 124.27667,30.254511 z"
       sodipodi:nodetypes="ccccccccccc" />
  </g>
  <path
     style="fill:#ececec;fill-opacity:1;fill-rule:evenodd;stroke:#000000;stroke-width:0.60377359;stroke-opacity:1"
     d="M 157.24414,171.84505 C 153.94318,171.06475 150.71064,168.50574 149.27209,165.53418 L 147.93763,162.77736 L 143.76501,162.77736 L 139.59245,162.77736 L 139.59245,160.06038 L 139.59245,157.3434 L 143.83384,157.3434 C 147.85322,157.3434 148.10663,157.26069 148.67605,155.7629 C 149.00655,154.89363 149.81494,153.4985 150.47245,152.66261 C 151.63001,151.19106 151.66792,150.12012 151.66792,118.92235 L 151.66792,86.701887 L 154.68679,86.701887 L 157.70566,86.701887 L 157.70566,77.711282 L 157.70566,68.720664 L 151.09174,68.288598 L 144.47771,67.856531 L 148.13959,60.524486 C 150.1536,56.49187 153.72969,49.527094 156.08646,45.047215 L 160.3715,36.901989 L 168.0198,52.594391 L 175.66805,68.286792 L 168.80012,68.4569 L 161.93208,68.627007 L 161.93208,77.664447 L 161.93208,86.701887 L 164.95094,86.701887 L 167.96981,86.701887 L 167.96981,118.91019 C 167.96981,150.28198 168.00097,151.1467 169.16957,152.20427 C 169.82943,152.80142 170.69911,154.20203 171.10219,155.31672 L 171.83511,157.3434 L 175.94017,157.3434 L 180.04528,157.3434 L 180.04528,160.06038 L 180.04528,162.77736 L 175.88432,162.77736 C 171.95768,162.77736 171.70216,162.86175 171.34732,164.27572 C 170.8288,166.34155 167.75831,169.70469 165.40009,170.78965 C 162.75997,172.0043 159.63079,172.40925 157.24414,171.84507 L 157.24414,171.84505 z M 163.68374,166.73273 C 168.32821,164.33099 169.03354,158.44739 165.14337,154.55723 C 163.36767,152.78148 162.7046,152.51321 160.09177,152.51321 C 157.54017,152.51321 156.75943,152.8108 154.94255,154.47583 C 148.39873,160.47279 155.77848,170.82071 163.68374,166.73275 L 163.68374,166.73273 z"
     id="path2476" />
  <path
     style="fill:none;fill-rule:evenodd;stroke:#000000;stroke-width:1px;stroke-linecap:butt;stroke-linejoin:miter;stroke-opacity:1"
     d="M 157.58491,68.226415 L 163.01887,68.830189"
     id="path2478" />
  <path
     style="fill:none;fill-rule:evenodd;stroke:#000000;stroke-width:1px;stroke-linecap:butt;stroke-linejoin:miter;stroke-opacity:1"
     d="M 151.54717,133.43396 L 167.84906,133.43396"
     id="path2480" />
  <path
     style="fill:none;fill-rule:evenodd;stroke:#000000;stroke-width:1px;stroke-linecap:butt;stroke-linejoin:miter;stroke-opacity:1"
     d="M 152.15094,106.26415 L 168.45283,106.26415"
     id="path2482" />
  <path
     style="fill:#000000;fill-opacity:1;fill-rule:evenodd;stroke:#000000;stroke-width:0.60377359;stroke-opacity:1"
     d="M 148.19623,67.508673 C 146.78491,67.400344 145.63019,67.157452 145.63019,66.968924 C 145.63019,66.780389 148.93965,60.214171 152.98457,52.377304 L 160.33902,38.128459 L 167.47514,52.836927 C 171.40003,60.926587 174.61132,67.644275 174.61132,67.765126 C 174.61132,68.020377 152.00278,67.800882 148.19623,67.508679 L 148.19623,67.508673 z"
     id="path2484" />
  <path
     style="fill:#000000;fill-opacity:1;fill-rule:evenodd;stroke:#000000;stroke-width:0.60377359;stroke-opacity:1"
     d="M 152.2717,119.90943 L 152.2717,107.23019 L 159.81887,107.23019 L 167.36604,107.23019 L 167.36604,119.90943 L 167.36604,132.58868 L 159.81887,132.58868 L 152.2717,132.58868 L 152.2717,119.90943 z"
     id="path2486" />
  <path
     style="fill:#ffcc00;fill-opacity:1;fill-rule:evenodd;stroke:#000000;stroke-width:0.60377359;stroke-opacity:1"
     d="M 152.2717,96.362264 L 152.2717,87.30566 L 155.29057,87.30566 L 158.30943,87.30566 L 158.30943,78.249057 L 158.30943,69.192453 L 159.81887,69.192453 L 161.3283,69.192453 L 161.3283,78.249057 L 161.3283,87.30566 L 164.34717,87.30566 L 167.36604,87.30566 L 167.36604,96.362264 L 167.36604,105.41887 L 159.81887,105.41887 L 152.2717,105.41887 L 152.2717,96.362264 z"
     id="path2488" />
  <path
     style="fill:#ffcc00;fill-opacity:1;fill-rule:evenodd;stroke:#000000;stroke-width:0.60377359;stroke-opacity:1"
     d="M 154.98868,170.28071 C 152.32984,168.89788 150.7488,167.23662 149.53974,164.55554 L 148.46569,162.17358 L 144.33093,162.17358 L 140.19623,162.17358 L 140.19623,160.08798 L 140.19623,158.00234 L 144.2717,157.82383 L 148.34717,157.64528 L 150.12154,154.33396 C 151.78391,151.23186 151.91275,150.49763 152.16127,142.71134 L 152.42645,134.4 L 159.81887,134.4 L 167.21129,134.4 L 167.4778,142.75227 C 167.703,149.8096 167.9302,151.37753 168.94315,152.86547 C 169.60248,153.83398 170.46243,155.37358 170.85422,156.28679 C 171.52725,157.85556 171.78379,157.94717 175.50406,157.94717 L 179.44151,157.94717 L 179.44151,160.06038 L 179.44151,162.17358 L 176.17014,162.17358 C 172.34506,162.17358 170.98868,162.58518 170.98868,163.74588 C 170.98868,165.06221 166.66759,169.51672 164.51749,170.41683 C 161.913,171.50715 157.21787,171.44009 154.98868,170.2807 L 154.98868,170.28071 z M 163.35958,167.37881 C 166.38062,166.11652 167.97023,163.72008 167.96758,160.43178 C 167.96214,153.76091 161.51118,149.77764 156.07807,153.09042 C 152.19454,155.45838 151.00866,159.79109 153.12435,163.88237 C 155.08269,167.66936 159.25386,169.09429 163.35952,167.37883 L 163.35958,167.37881 z"
     id="path2490" />
</svg>
