<?xml version="1.0" encoding="UTF-8" standalone="no"?>
<svg
   xmlns:dc="http://purl.org/dc/elements/1.1/"
   xmlns:cc="http://creativecommons.org/ns#"
   xmlns:rdf="http://www.w3.org/1999/02/22-rdf-syntax-ns#"
   xmlns:svg="http://www.w3.org/2000/svg"
   xmlns="http://www.w3.org/2000/svg"
   xmlns:sodipodi="http://sodipodi.sourceforge.net/DTD/sodipodi-0.dtd"
   xmlns:inkscape="http://www.inkscape.org/namespaces/inkscape"
   version="1.0"
   width="320"
   height="320"
   id="svg2"
   sodipodi:version="0.32"
   inkscape:version="0.46"
   sodipodi:docname="Cardinal_Beacon_Stake_Single.svg"
   inkscape:output_extension="org.inkscape.output.svg.inkscape">
  <metadata
     id="metadata6">
    <rdf:RDF>
      <cc:Work
         rdf:about="">
        <dc:format>image/svg+xml</dc:format>
        <dc:type
           rdf:resource="http://purl.org/dc/dcmitype/StillImage" />
      </cc:Work>
    </rdf:RDF>
  </metadata>
  <sodipodi:namedview
     inkscape:window-height="850"
     inkscape:window-width="1440"
     inkscape:pageshadow="2"
     inkscape:pageopacity="0.0"
     guidetolerance="10.0"
     gridtolerance="10.0"
     objecttolerance="10.0"
     borderopacity="1.0"
     bordercolor="#666666"
     pagecolor="#ffffff"
     id="base"
     showgrid="false"
     inkscape:zoom="1.65625"
     inkscape:cx="160"
     inkscape:cy="160"
     inkscape:window-x="-4"
     inkscape:window-y="-3"
     inkscape:current-layer="g2475" />
  <defs
     id="defs4">
    <inkscape:perspective
       sodipodi:type="inkscape:persp3d"
       inkscape:vp_x="0 : 160 : 1"
       inkscape:vp_y="0 : 1000 : 0"
       inkscape:vp_z="320 : 160 : 1"
       inkscape:persp3d-origin="160 : 106.66667 : 1"
       id="perspective8" />
    <inkscape:perspective
       id="perspective2465"
       inkscape:persp3d-origin="200 : 133.33333 : 1"
       inkscape:vp_z="400 : 200 : 1"
       inkscape:vp_y="0 : 1000 : 0"
       inkscape:vp_x="0 : 200 : 1"
       sodipodi:type="inkscape:persp3d" />
    <inkscape:perspective
       id="perspective2473"
       inkscape:persp3d-origin="200 : 133.33333 : 1"
       inkscape:vp_z="400 : 200 : 1"
       inkscape:vp_y="0 : 1000 : 0"
       inkscape:vp_x="0 : 200 : 1"
       sodipodi:type="inkscape:persp3d" />
  </defs>
  <path
     d="M 197.71875,108.59375 L 197.71875,126.28125 L 191.34375,126.28125 L 191.34375,191.03125 C 189.63921,192.68015 188.39706,194.80239 187.84375,197.1875 L 179.40625,197.1875 L 179.28125,202.84375 L 187.84375,202.84375 C 189.13107,208.3767 194.07702,212.49999 200,212.5 C 205.92495,212.5 210.87095,208.37948 212.15625,202.84375 L 220.46875,202.8125 L 220.46875,197.15625 L 212.15625,197.1875 C 211.56957,194.65854 210.2097,192.43634 208.34375,190.75 L 208.34375,126.28125 L 201.96875,126.28125 L 201.96875,108.59375 L 197.71875,108.59375 z M 200,192.5 C 204.14,192.5 207.5,195.86 207.5,200 C 207.5,204.14 204.14,207.5 200,207.5 C 195.86,207.5 192.5,204.14 192.5,200 C 192.5,195.86 195.86,192.5 200,192.5 z"
     id="path2520"
     style="fill: rgb(0, 4, 7); fill-opacity: 1; fill-rule: evenodd; stroke: none;"
     transform="translate(-40, -40)" />
  <g
     id="g2467"
     transform="translate(35.467807,40.83467)" />
  <path
     style="fill:#ececec;fill-opacity:1;fill-rule:evenodd;stroke:#000000;stroke-width:0.60377359;stroke-opacity:1"
     d="M 157.24414,171.84505 C 153.94318,171.06475 150.71064,168.50574 149.27209,165.53418 L 147.93763,162.77736 L 143.76501,162.77736 L 139.59245,162.77736 L 139.59245,160.06038 L 139.59245,157.3434 L 143.83384,157.3434 C 147.85322,157.3434 148.10663,157.26069 148.67605,155.7629 C 149.00655,154.89363 149.81494,153.4985 150.47245,152.66261 C 151.63001,151.19106 151.66792,150.12012 151.66792,118.92235 L 151.66792,86.701887 L 154.68679,86.701887 L 157.70566,86.701887 L 157.70566,77.711282 L 161.93208,77.664447 L 161.93208,86.701887 L 164.95094,86.701887 L 167.96981,86.701887 L 167.96981,118.91019 C 167.96981,150.28198 168.00097,151.1467 169.16957,152.20427 C 169.82943,152.80142 170.69911,154.20203 171.10219,155.31672 L 171.83511,157.3434 L 175.94017,157.3434 L 180.04528,157.3434 L 180.04528,160.06038 L 180.04528,162.77736 L 175.88432,162.77736 C 171.95768,162.77736 171.70216,162.86175 171.34732,164.27572 C 170.8288,166.34155 167.75831,169.70469 165.40009,170.78965 C 162.75997,172.0043 159.63079,172.40925 157.24414,171.84507 L 157.24414,171.84505 z M 163.68374,166.73273 C 168.32821,164.33099 169.03354,158.44739 165.14337,154.55723 C 163.36767,152.78148 162.7046,152.51321 160.09177,152.51321 C 157.54017,152.51321 156.75943,152.8108 154.94255,154.47583 C 148.39873,160.47279 155.77848,170.82071 163.68374,166.73275 L 163.68374,166.73273 z"
     id="path2476"
     sodipodi:nodetypes="ccccccccssccccccccccscccccccsscccssscc" />
  <path
     style="fill:none;fill-rule:evenodd;stroke:#000000;stroke-width:1px;stroke-linecap:butt;stroke-linejoin:miter;stroke-opacity:1"
     d="M 157.58491,68.226415 L 163.01887,68.830189"
     id="path2478" />
  <path
     style="fill:none;fill-rule:evenodd;stroke:#000000;stroke-width:1px;stroke-linecap:butt;stroke-linejoin:miter;stroke-opacity:1"
     d="M 151.54717,133.43396 L 167.84906,133.43396"
     id="path2480" />
  <path
     style="fill:none;fill-rule:evenodd;stroke:#000000;stroke-width:1px;stroke-linecap:butt;stroke-linejoin:miter;stroke-opacity:1"
     d="M 152.15094,106.26415 L 168.45283,106.26415"
     id="path2482" />
  <path
     style="fill:#000000;fill-opacity:1;fill-rule:evenodd;stroke:#000000;stroke-width:0.60377359;stroke-opacity:1"
     d="M 152.2717,119.90943 L 152.2717,107.23019 L 159.81887,107.23019 L 167.36604,107.23019 L 167.36604,119.90943 L 167.36604,132.58868 L 159.81887,132.58868 L 152.2717,132.58868 L 152.2717,119.90943 z"
     id="path2486" />
  <path
     style="fill:#ffcc00;fill-opacity:1;fill-rule:evenodd;stroke:#000000;stroke-width:0.60377359;stroke-opacity:1"
     d="M 152.2717,96.362264 L 152.2717,87.30566 L 155.29057,87.30566 L 158.30943,87.30566 L 158.30943,78.249057 L 158.30943,69.192453 L 159.81887,69.192453 L 161.3283,69.192453 L 161.3283,78.249057 L 161.3283,87.30566 L 164.34717,87.30566 L 167.36604,87.30566 L 167.36604,96.362264 L 167.36604,105.41887 L 159.81887,105.41887 L 152.2717,105.41887 L 152.2717,96.362264 z"
     id="path2488" />
  <path
     style="fill:#ffcc00;fill-opacity:1;fill-rule:evenodd;stroke:#000000;stroke-width:0.60377359;stroke-opacity:1"
     d="M 154.98868,170.28071 C 152.32984,168.89788 150.7488,167.23662 149.53974,164.55554 L 148.46569,162.17358 L 144.33093,162.17358 L 140.19623,162.17358 L 140.19623,160.08798 L 140.19623,158.00234 L 144.2717,157.82383 L 148.34717,157.64528 L 150.12154,154.33396 C 151.78391,151.23186 151.91275,150.49763 152.16127,142.71134 L 152.42645,134.4 L 159.81887,134.4 L 167.21129,134.4 L 167.4778,142.75227 C 167.703,149.8096 167.9302,151.37753 168.94315,152.86547 C 169.60248,153.83398 170.46243,155.37358 170.85422,156.28679 C 171.52725,157.85556 171.78379,157.94717 175.50406,157.94717 L 179.44151,157.94717 L 179.44151,160.06038 L 179.44151,162.17358 L 176.17014,162.17358 C 172.34506,162.17358 170.98868,162.58518 170.98868,163.74588 C 170.98868,165.06221 166.66759,169.51672 164.51749,170.41683 C 161.913,171.50715 157.21787,171.44009 154.98868,170.2807 L 154.98868,170.28071 z M 163.35958,167.37881 C 166.38062,166.11652 167.97023,163.72008 167.96758,160.43178 C 167.96214,153.76091 161.51118,149.77764 156.07807,153.09042 C 152.19454,155.45838 151.00866,159.79109 153.12435,163.88237 C 155.08269,167.66936 159.25386,169.09429 163.35952,167.37883 L 163.35958,167.37881 z"
     id="path2490" />
  <path
     style="fill:#ffcc00;fill-opacity:1"
     d="M 152.0291,119.87925 L 152.03019,107.35094 L 159.57736,107.35094 L 167.12453,107.35094 L 167.12453,119.69379 L 167.12453,132.03664 L 159.57627,132.22209 L 152.02808,132.40755 L 152.0291,119.87925 z"
     id="path2390" />
  <path
     style="fill:#000000;fill-opacity:1"
     d="M 155.65712,169.78538 C 152.82916,168.559 151.19257,166.93444 149.90201,164.07252 L 148.82795,161.69057 L 144.69319,161.69057 C 140.73202,161.69057 140.55849,161.62979 140.55849,160.24241 C 140.55849,158.89476 140.84685,158.7653 144.71354,158.37698 L 148.86865,157.95969 L 150.56875,154.5994 C 152.09697,151.57899 152.30267,150.43931 152.60238,143.33275 L 152.93585,135.42642 L 159.7283,135.2557 C 164.92975,135.12497 166.5274,135.26638 166.54913,135.85947 C 166.56471,136.28544 166.80338,140.03019 167.07943,144.18113 C 167.51813,150.77764 167.79031,152.09508 169.24039,154.64013 C 171.0406,157.79962 172.55046,158.6717 176.22044,158.6717 C 178.35212,158.6717 178.59623,158.8268 178.59623,160.18113 C 178.59623,161.60691 178.41352,161.69057 175.29926,161.69057 C 171.80999,161.69057 171.76731,161.71756 168.97944,165.68591 C 165.88752,170.08718 160.31046,171.80331 155.65712,169.78537 L 155.65712,169.78538 z M 164.08235,167.43847 C 166.88785,165.9877 168.33208,163.67857 168.33208,160.64379 C 168.33208,155.47655 165.50322,152.10744 160.711,151.56729 C 155.18273,150.94418 150.50306,156.62294 151.99106,162.14896 C 152.96549,165.76778 156.13289,168.33208 159.62838,168.33208 C 161.12761,168.33208 163.13189,167.92996 164.08235,167.43848 L 164.08235,167.43847 z"
     id="path2392" />
  <path
     style="fill:#000000;fill-opacity:1"
     d="M 152.63396,96.483019 L 152.63396,88.030189 L 155.65283,88.030189 L 158.6717,88.030189 L 158.6717,78.973585 C 158.6717,71.398823 158.81727,69.916981 159.56124,69.916981 C 160.297,69.916981 160.47964,71.456441 160.61784,78.822642 L 160.78491,87.728302 L 163.65283,87.91232 L 166.52075,88.096356 L 166.52075,96.516094 L 166.52075,104.93585 L 159.57736,104.93585 L 152.63396,104.93585 L 152.63396,96.483019 z"
     id="path2394" />
  <path
     style="fill:#aa0000;fill-opacity:1"
     d="M 152.03019,119.7283 L 152.03019,107.35094 L 159.57736,107.35094 L 167.12453,107.35094 L 167.12453,119.36182 C 167.12453,129.75719 166.99605,131.42198 166.16948,131.73918 C 165.6442,131.94075 162.24797,132.10566 158.62231,132.10566 L 152.03019,132.10566 L 152.03019,119.7283 z"
     id="path2393" />
  <g
     id="g2475"
     transform="translate(31.588974,68.745873)">
    <path
       style="fill:#000407;fill-opacity:1;fill-rule:evenodd;stroke:none"
       id="path27763"
       d="M 141.56124,-56.72274 C 144.1567,-49.151241 140.11817,-40.899795 132.54667,-38.304334 C 124.97518,-35.708873 116.72373,-39.747396 114.12827,-47.318895 C 111.53281,-54.890394 115.57133,-63.14184 123.14283,-65.737301 C 130.71433,-68.332762 138.96577,-64.294239 141.56124,-56.72274 z M 142.03211,-19.884879 C 144.62757,-12.313381 140.58905,-4.0619351 133.01755,-1.4664737 C 125.44605,1.1289876 117.19461,-2.9095357 114.59914,-10.481034 C 112.00368,-18.052533 116.04221,-26.303979 123.61371,-28.89944 C 131.1852,-31.494902 139.43665,-27.456378 142.03211,-19.884879 z"
       sodipodi:nodetypes="csssccsssc" />
  </g>
</svg>
