<?xml version="1.0" encoding="UTF-8" standalone="no"?>
<svg
   xmlns:dc="http://purl.org/dc/elements/1.1/"
   xmlns:cc="http://creativecommons.org/ns#"
   xmlns:rdf="http://www.w3.org/1999/02/22-rdf-syntax-ns#"
   xmlns:svg="http://www.w3.org/2000/svg"
   xmlns="http://www.w3.org/2000/svg"
   xmlns:sodipodi="http://sodipodi.sourceforge.net/DTD/sodipodi-0.dtd"
   xmlns:inkscape="http://www.inkscape.org/namespaces/inkscape"
   version="1.0"
   width="320"
   height="340"
   id="svg2"
   inkscape:version="0.47 r22583"
   sodipodi:docname="Cardinal_Tower_Single.svg"
   style="display:inline">
  <metadata
     id="metadata2913">
    <rdf:RDF>
      <cc:Work
         rdf:about="">
        <dc:format>image/svg+xml</dc:format>
        <dc:type
           rdf:resource="http://purl.org/dc/dcmitype/StillImage" />
        <dc:title></dc:title>
      </cc:Work>
    </rdf:RDF>
  </metadata>
  <sodipodi:namedview
     pagecolor="#ffffff"
     bordercolor="#666666"
     borderopacity="1"
     objecttolerance="10"
     gridtolerance="10"
     guidetolerance="10"
     inkscape:pageopacity="0"
     inkscape:pageshadow="2"
     inkscape:window-width="1920"
     inkscape:window-height="1088"
     id="namedview2911"
     showgrid="true"
     inkscape:zoom="2.8421875"
     inkscape:cx="92.418358"
     inkscape:cy="207.39853"
     inkscape:window-x="1440"
     inkscape:window-y="0"
     inkscape:window-maximized="0"
     inkscape:current-layer="g2845"
     inkscape:snap-grids="false">
    <inkscape:grid
       type="xygrid"
       id="grid2919"
       empspacing="5"
       visible="true"
       enabled="true"
       snapvisiblegridlinesonly="true" />
  </sodipodi:namedview>
  <defs
     id="defs4">
    <inkscape:perspective
       sodipodi:type="inkscape:persp3d"
       inkscape:vp_x="0 : 160 : 1"
       inkscape:vp_y="0 : 1000 : 0"
       inkscape:vp_z="320 : 160 : 1"
       inkscape:persp3d-origin="160 : 106.66667 : 1"
       id="perspective2915" />
    <inkscape:perspective
       id="perspective2862"
       inkscape:persp3d-origin="160 : 106.66667 : 1"
       inkscape:vp_z="320 : 160 : 1"
       inkscape:vp_y="0 : 1000 : 0"
       inkscape:vp_x="0 : 160 : 1"
       sodipodi:type="inkscape:persp3d" />
    <inkscape:perspective
       id="perspective2933"
       inkscape:persp3d-origin="160 : 106.66667 : 1"
       inkscape:vp_z="320 : 160 : 1"
       inkscape:vp_y="0 : 1000 : 0"
       inkscape:vp_x="0 : 160 : 1"
       sodipodi:type="inkscape:persp3d" />
    <inkscape:perspective
       id="perspective2989"
       inkscape:persp3d-origin="160 : 106.66667 : 1"
       inkscape:vp_z="320 : 160 : 1"
       inkscape:vp_y="0 : 1000 : 0"
       inkscape:vp_x="0 : 160 : 1"
       sodipodi:type="inkscape:persp3d" />
    <inkscape:perspective
       id="perspective3073"
       inkscape:persp3d-origin="160 : 106.66667 : 1"
       inkscape:vp_z="320 : 160 : 1"
       inkscape:vp_y="0 : 1000 : 0"
       inkscape:vp_x="0 : 160 : 1"
       sodipodi:type="inkscape:persp3d" />
    <inkscape:perspective
       id="perspective3123"
       inkscape:persp3d-origin="160 : 106.66667 : 1"
       inkscape:vp_z="320 : 160 : 1"
       inkscape:vp_y="0 : 1000 : 0"
       inkscape:vp_x="0 : 160 : 1"
       sodipodi:type="inkscape:persp3d" />
    <inkscape:perspective
       id="perspective3203"
       inkscape:persp3d-origin="160 : 106.66667 : 1"
       inkscape:vp_z="320 : 160 : 1"
       inkscape:vp_y="0 : 1000 : 0"
       inkscape:vp_x="0 : 160 : 1"
       sodipodi:type="inkscape:persp3d" />
    <inkscape:perspective
       id="perspective3274"
       inkscape:persp3d-origin="200 : 133.33333 : 1"
       inkscape:vp_z="400 : 200 : 1"
       inkscape:vp_y="0 : 1000 : 0"
       inkscape:vp_x="0 : 200 : 1"
       sodipodi:type="inkscape:persp3d" />
    <inkscape:perspective
       id="perspective3401"
       inkscape:persp3d-origin="200 : 133.33333 : 1"
       inkscape:vp_z="400 : 200 : 1"
       inkscape:vp_y="0 : 1000 : 0"
       inkscape:vp_x="0 : 200 : 1"
       sodipodi:type="inkscape:persp3d" />
    <inkscape:perspective
       id="perspective3639"
       inkscape:persp3d-origin="200 : 133.33333 : 1"
       inkscape:vp_z="400 : 200 : 1"
       inkscape:vp_y="0 : 1000 : 0"
       inkscape:vp_x="0 : 200 : 1"
       sodipodi:type="inkscape:persp3d" />
    <inkscape:perspective
       id="perspective3689"
       inkscape:persp3d-origin="200 : 133.33333 : 1"
       inkscape:vp_z="400 : 200 : 1"
       inkscape:vp_y="0 : 1000 : 0"
       inkscape:vp_x="0 : 200 : 1"
       sodipodi:type="inkscape:persp3d" />
    <inkscape:perspective
       id="perspective3739"
       inkscape:persp3d-origin="200 : 133.33333 : 1"
       inkscape:vp_z="400 : 200 : 1"
       inkscape:vp_y="0 : 1000 : 0"
       inkscape:vp_x="0 : 200 : 1"
       sodipodi:type="inkscape:persp3d" />
  </defs>
  <g
     style="display:inline"
     inkscape:label="Tower 3 Band"
     id="g2845"
     inkscape:groupmode="layer"
     transform="translate(0,20)">
    <path
       d="m 136.557,76.304224 -4.625,70.874996 -8.15625,0 0,5.65625 24,0 c 1.28732,5.53295 6.23327,9.65624 12.15625,9.65625 5.92495,0 10.87095,-4.12052 12.15625,-9.65625 l 24,0 0,-5.65625 -8.15625,0 -4.96875,-70.874996 -46.40625,0 z m 6.71875,7.09375 33.3125,0 4.59375,63.781246 -9.09375,0 c -1.2853,-5.53573 -6.2313,-9.65625 -12.15625,-9.65625 -5.92298,1e-5 -10.86893,4.1233 -12.15625,9.65625 l -9.09375,0 4.59375,-63.781246 z M 159.932,142.49172 c 4.14,0 7.5,3.36 7.5,7.5 0,4.14 -3.36,7.5 -7.5,7.5 -4.14,0 -7.5,-3.36 -7.5,-7.5 0,-4.14 3.36,-7.5 7.5,-7.5 z"
       id="path2847"
       style="fill:#000407;fill-opacity:1;fill-rule:evenodd;stroke:none" />
    <rect
       style="fill:#000000;fill-opacity:1;stroke:none"
       id="rect2849"
       width="37.119297"
       height="1.1434854"
       x="141.19156"
       y="101.88256" />
    <rect
       style="fill:#000000;fill-opacity:1;stroke:none"
       id="rect2851"
       width="39.670147"
       height="1.2314459"
       x="140.224"
       y="122.02547" />
    <path
       style="fill:#000000;fill-opacity:1;stroke:none"
       d="m 142.29279,119.31945 c 0.11821,-1.30622 0.38581,-5.06652 0.59465,-8.35624 0.20884,-3.28972 0.45225,-6.33755 0.54091,-6.77295 l 0.16119,-0.79165 16.33799,0 16.338,0 0.17534,1.14349 c 0.0964,0.62891 0.34554,3.67674 0.55357,6.77295 0.20803,3.09621 0.47341,6.69818 0.58975,8.0044 l 0.21151,2.37493 -17.85893,0 -17.85892,0 0.21494,-2.37493 z"
       id="path3863"
       transform="translate(0,-20)" />
    <path
       style="fill:#000000;fill-opacity:1;stroke:none"
       d=""
       id="path3865"
       transform="translate(0,-20)" />
    <path
       style="fill:#000000;fill-opacity:1;stroke:none"
       d="m 138.99347,166.46623 c -0.005,-0.33865 0.34218,-5.64266 0.77106,-11.7867 l 0.7798,-11.17097 19.385,0 19.385,0 0.78818,11.17097 c 0.43349,6.14404 0.78382,11.44805 0.77851,11.7867 -0.009,0.55305 -0.45734,0.61572 -4.40769,0.61572 -3.28202,0 -4.39889,-0.1116 -4.40146,-0.4398 -0.008,-1.06322 -1.82507,-4.20218 -3.21006,-5.54626 -4.99932,-4.85168 -13.06166,-4.83058 -17.93917,0.0469 -1.32074,1.32074 -3.11299,4.4788 -3.12097,5.49933 -0.003,0.3282 -1.11943,0.4398 -4.40145,0.4398 -3.95071,0 -4.39891,-0.0626 -4.40675,-0.61572 z"
       id="path3867"
       transform="translate(0,-20)" />
    <path
       style="fill:#d40000;fill-opacity:1;stroke:none"
       d="m 140.75938,141.13363 c -0.004,-1.27368 1.10997,-16.48201 1.26301,-17.24024 l 0.15979,-0.79165 17.75459,0 17.7546,0 0.1612,0.79165 c 0.0887,0.4354 0.33339,3.48323 0.54386,6.77295 0.21046,3.28972 0.47944,7.12919 0.59772,8.53216 l 0.21505,2.55085 -19.2239,0 c -18.07314,0 -19.22402,-0.0368 -19.22592,-0.61572 z"
       id="path3869"
       transform="translate(0,-20)" />
    <g
       style="display:inline"
       id="g2936"
       transform="translate(-0.04730863,-10.020187)">
      <path
         transform="translate(-40,-40)"
         style="fill:#000407;fill-opacity:1;fill-rule:evenodd;stroke:none"
         id="path2558-0"
         d="m 197.875,108.625 0,17.71875 4.25,0 0,-17.71875 -4.25,0 z"
         sodipodi:nodetypes="ccccc" />
    </g>
    <path
       style="fill:#000407;fill-opacity:1;fill-rule:evenodd;stroke:none;display:inline"
       id="path27763"
       d="m 174.50675,35.346214 c 0,8.004 -6.47999,14.45602 -14.48399,14.45602 -8.004,0 -14.45381,-6.527099 -14.45381,-14.531099 0,-8.004 6.39203,-14.5 14.39603,-14.5 8.004,0 14.54177,6.571079 14.54177,14.575079 z m 0.0184,28.924917 c 0,8.004 -6.496,14.500004 -14.5,14.500004 -8.004,0 -14.5,-6.496004 -14.5,-14.500004 0,-8.004 6.496,-14.5 14.5,-14.5 8.004,0 14.5,6.496 14.5,14.5 z"
       sodipodi:nodetypes="csssccsssc"
       transform="translate(0,-20)" />
  </g>
</svg>
