<?xml version="1.0" encoding="UTF-8" standalone="no"?>
<!-- Created with Inkscape (http://www.inkscape.org/) -->
<svg
   xmlns:dc="http://purl.org/dc/elements/1.1/"
   xmlns:cc="http://creativecommons.org/ns#"
   xmlns:rdf="http://www.w3.org/1999/02/22-rdf-syntax-ns#"
   xmlns:svg="http://www.w3.org/2000/svg"
   xmlns="http://www.w3.org/2000/svg"
   xmlns:sodipodi="http://sodipodi.sourceforge.net/DTD/sodipodi-0.dtd"
   xmlns:inkscape="http://www.inkscape.org/namespaces/inkscape"
   version="1.0"
   width="400"
   height="400"
   id="svg2"
   sodipodi:version="0.32"
   inkscape:version="0.46"
   sodipodi:docname="Cardinal_Spar_West.svg"
   inkscape:output_extension="org.inkscape.output.svg.inkscape">
  <metadata
     id="metadata6">
    <rdf:RDF>
      <cc:Work
         rdf:about="">
        <dc:format>image/svg+xml</dc:format>
        <dc:type
           rdf:resource="http://purl.org/dc/dcmitype/StillImage" />
      </cc:Work>
    </rdf:RDF>
  </metadata>
  <sodipodi:namedview
     inkscape:window-height="843"
     inkscape:window-width="1440"
     inkscape:pageshadow="2"
     inkscape:pageopacity="0.0"
     guidetolerance="10.0"
     gridtolerance="10.0"
     objecttolerance="10.0"
     borderopacity="1.0"
     bordercolor="#666666"
     pagecolor="#ffffff"
     id="base"
     showgrid="false"
     inkscape:zoom="1.325"
     inkscape:cx="200"
     inkscape:cy="200"
     inkscape:window-x="-5"
     inkscape:window-y="-3"
     inkscape:current-layer="svg2" />
  <defs
     id="defs4">
    <inkscape:perspective
       sodipodi:type="inkscape:persp3d"
       inkscape:vp_x="0 : 200 : 1"
       inkscape:vp_y="0 : 1000 : 0"
       inkscape:vp_z="400 : 200 : 1"
       inkscape:persp3d-origin="200 : 133.33333 : 1"
       id="perspective8" />
  </defs>
  <path
     d="M 237.40625,80.5 L 231.46875,98.625 L 227.21875,97.21875 L 197.125,187.84375 C 192.53643,188.94207 188.91165,192.58419 187.84375,197.1875 L 179.40625,197.1875 L 179.28125,202.84375 L 187.84375,202.84375 C 189.13107,208.3767 194.07702,212.49999 200,212.5 C 205.92495,212.5 210.87095,208.37948 212.15625,202.84375 L 220.48125,202.8 L 220.48125,197.14375 L 212.15625,197.1875 C 211.66675,195.07319 210.65776,193.14936 209.25,191.59375 L 239.25,101.125 L 235.5,99.9375 L 241.78125,81.96875 L 237.40625,80.5 z M 200,192.5 C 204.14,192.5 207.5,195.86 207.5,200 C 207.5,204.14 204.14,207.5 200,207.5 C 195.86,207.5 192.5,204.14 192.5,200 C 192.5,195.86 195.86,192.5 200,192.5 z M 246.8875,8.925 L 251.66875,44.89375 L 277.48125,19.175 L 246.8875,8.925 z M 250.54375,48.26875 L 224.7625,74.01875 L 255.66875,84.3625 L 250.54375,48.26875 z"
     id="path27763"
     style="fill: rgb(0, 4, 7); fill-opacity: 1; fill-rule: evenodd; stroke: none;" />
  <path
     style="fill:#f9f9f9;fill-opacity:1;fill-rule:evenodd;stroke:#000000;stroke-width:0.75471699;stroke-opacity:1"
     d="M 193.69592,210.21906 C 192.42868,209.43281 190.62392,207.42321 189.68536,205.75325 C 188.01977,202.78968 187.88068,202.71698 183.87623,202.71698 L 179.77358,202.71698 L 179.77358,200.07547 L 179.77358,197.43396 L 183.88913,197.43396 C 187.88475,197.43396 188.04279,197.35351 189.31509,194.67242 C 190.11298,192.99095 191.97336,191.07303 194.07162,189.76867 L 197.51766,187.62649 L 212.45275,142.79994 L 227.3877,97.973419 L 229.66792,98.081049 C 231.92619,98.187653 231.97419,98.107426 234.67925,89.698113 C 237.3554,81.378453 237.93366,80.543592 240.07887,81.901758 C 240.95691,82.457615 240.66528,83.943917 238.38075,90.557321 C 235.19743,99.7728 235.06891,100.83019 237.13208,100.83019 C 237.96226,100.83019 238.64151,101.08175 238.64151,101.38921 C 238.64151,101.69668 231.95864,122.00646 223.79064,146.52208 L 208.9397,191.09589 L 210.39442,194.24549 C 211.82921,197.35211 211.90302,197.39528 215.81132,197.41449 L 219.77358,197.43396 L 219.77358,200.07547 L 219.77358,202.71698 L 215.67351,202.71698 C 212.07728,202.71698 211.51011,202.92567 211.05849,204.41509 C 210.39245,206.61126 207.86091,209.37182 205.28279,210.71322 C 202.42181,212.20177 196.48347,211.94851 193.69592,210.21903 L 193.69592,210.21906 z M 205.62264,204.91489 C 211.26287,198.87722 203.868,189.40945 196.4914,193.22404 C 193.76913,194.63175 192.52543,196.63888 192.43645,199.76782 C 192.22966,207.0425 200.58747,210.30486 205.62264,204.91488 L 205.62264,204.91489 z"
     id="path2381" />
  <path
     style="fill:none;fill-rule:evenodd;stroke:#000000;stroke-width:1px;stroke-linecap:butt;stroke-linejoin:miter;stroke-opacity:1"
     d="M 206.03774,158.49057 L 218.11321,163.01887"
     id="path2383" />
  <path
     style="fill:none;fill-rule:evenodd;stroke:#000000;stroke-width:1px;stroke-linecap:butt;stroke-linejoin:miter;stroke-opacity:1"
     d="M 218.86792,120.75472 L 230.18868,124.5283"
     id="path2387" />
  <path
     style="fill:#ffcc00;fill-opacity:1;fill-rule:evenodd;stroke:#000000;stroke-width:0.75471699;stroke-opacity:1"
     d="M 224.93766,121.86302 L 220.6677,120.37351 L 224.24438,109.65845 C 227.58106,99.662445 227.95668,98.927328 229.84196,98.703925 C 232.14332,98.431208 233.09894,96.877381 235.54468,89.431049 C 236.44506,86.689811 237.66921,83.803026 238.26498,83.015955 C 239.3154,81.628219 239.34898,81.633502 239.37223,83.190196 C 239.38551,84.073109 238.38921,88.066853 237.15849,92.065185 C 234.95668,99.218136 234.85245,101.58491 236.73947,101.58491 C 237.39343,101.58491 236.59449,105.03325 234.20589,112.51894 C 232.28702,118.53266 230.37736,123.43037 229.96226,123.40275 C 229.54717,123.37514 227.28611,122.68225 224.93766,121.86302 z"
     id="path2389" />
  <path
     style="fill:#ffcc00;fill-opacity:1;fill-rule:evenodd;stroke:#000000;stroke-width:0.75471699;stroke-opacity:1"
     d="M 195.16694,209.98187 C 193.87864,209.39807 192.04294,207.77935 191.0877,206.38473 C 188.53494,202.65795 187.38551,201.96226 183.7803,201.96226 C 180.81457,201.96226 180.5283,201.79613 180.5283,200.07547 C 180.5283,198.38392 180.83434,198.18868 183.48543,198.18868 C 187.51381,198.18868 188.69374,197.62286 190.02204,195.0542 C 190.64687,193.84595 192.75819,191.70777 194.71396,190.30272 L 198.26974,187.74808 L 202.77185,174.10045 C 205.24785,166.59426 207.58906,160.45283 207.97449,160.45283 C 208.35985,160.45283 210.62611,161.16417 213.01057,162.03358 L 217.34589,163.61431 L 212.8246,177.15613 C 208.09079,191.3345 207.95155,192.61478 210.7554,196.17926 C 212.04189,197.81477 212.95774,198.18868 215.67743,198.18868 C 218.73849,198.18868 219.01887,198.347 219.01887,200.07547 C 219.01887,201.80605 218.74015,201.96226 215.65238,201.96226 C 213.80083,201.96226 211.95691,202.38679 211.55479,202.90566 C 211.15268,203.42453 209.50385,205.33629 207.89072,207.15401 C 205.30166,210.07154 204.52128,210.49321 201.23366,210.75115 C 199.03004,210.92406 196.55298,210.60995 195.16702,209.98188 L 195.16694,209.98187 z M 204.93668,206.45008 C 206.02038,205.59762 207.30098,203.58534 207.78249,201.97835 C 208.53781,199.45728 208.45977,198.71238 207.21358,196.54714 C 206.41925,195.16697 204.50717,193.41639 202.9646,192.65697 C 200.60709,191.49636 199.73992,191.41482 197.52574,192.14557 C 193.39909,193.5075 191.62898,196.30325 192.05525,200.78578 C 192.32611,203.63403 192.88845,204.92658 194.4357,206.25748 C 197.09766,208.54712 202.15283,208.63984 204.93668,206.45008 z"
     id="path2391" />
  <path
     style="fill:#000000;fill-opacity:1;fill-rule:evenodd;stroke:#000000;stroke-width:0.75471699;stroke-opacity:1"
     d="M 212.98113,160.27111 C 210.69811,159.39481 208.67336,158.55249 208.48174,158.39929 C 208.29011,158.24609 210.80951,150.04499 214.08038,140.17463 L 220.0274,122.22854 L 225.05902,123.78448 L 230.09072,125.34043 L 223.99826,143.65135 C 220.64747,153.72235 217.73177,161.94023 217.51894,161.91331 C 217.30619,161.88638 215.26415,161.1474 212.98113,160.2711 L 212.98113,160.27111 z"
     id="path2393" />
</svg>
