<?xml version="1.0" encoding="UTF-8" standalone="no"?>
<svg
   xmlns:dc="http://purl.org/dc/elements/1.1/"
   xmlns:cc="http://creativecommons.org/ns#"
   xmlns:rdf="http://www.w3.org/1999/02/22-rdf-syntax-ns#"
   xmlns:svg="http://www.w3.org/2000/svg"
   xmlns="http://www.w3.org/2000/svg"
   xmlns:sodipodi="http://sodipodi.sourceforge.net/DTD/sodipodi-0.dtd"
   xmlns:inkscape="http://www.inkscape.org/namespaces/inkscape"
   version="1.0"
   width="320"
   height="380"
   id="svg2"
   inkscape:version="0.47 r22583"
   sodipodi:docname="Cardinal_Pillar_East.svg"
   inkscape:label="Pillar"
   style="display:inline">
  <metadata
     id="metadata2822">
    <rdf:RDF>
      <cc:Work
         rdf:about="">
        <dc:format>image/svg+xml</dc:format>
        <dc:type
           rdf:resource="http://purl.org/dc/dcmitype/StillImage" />
        <dc:title />
      </cc:Work>
    </rdf:RDF>
  </metadata>
  <sodipodi:namedview
     pagecolor="#000000"
     bordercolor="#666666"
     borderopacity="1"
     objecttolerance="10"
     gridtolerance="10"
     guidetolerance="10"
     inkscape:pageopacity="0"
     inkscape:pageshadow="2"
     inkscape:window-width="1920"
     inkscape:window-height="1088"
     id="namedview2820"
     showgrid="true"
     inkscape:zoom="2.625"
     inkscape:cx="28.162272"
     inkscape:cy="245.44631"
     inkscape:window-x="1440"
     inkscape:window-y="0"
     inkscape:window-maximized="0"
     inkscape:current-layer="g3660"
     inkscape:snap-grids="false">
    <inkscape:grid
       type="xygrid"
       id="grid3180"
       empspacing="5"
       visible="true"
       enabled="true"
       snapvisiblegridlinesonly="true" />
  </sodipodi:namedview>
  <defs
     id="defs4">
    <inkscape:perspective
       sodipodi:type="inkscape:persp3d"
       inkscape:vp_x="0 : 160 : 1"
       inkscape:vp_y="0 : 1000 : 0"
       inkscape:vp_z="320 : 160 : 1"
       inkscape:persp3d-origin="160 : 106.66667 : 1"
       id="perspective2824" />
    <inkscape:perspective
       id="perspective2867"
       inkscape:persp3d-origin="160 : 106.66667 : 1"
       inkscape:vp_z="320 : 160 : 1"
       inkscape:vp_y="0 : 1000 : 0"
       inkscape:vp_x="0 : 160 : 1"
       sodipodi:type="inkscape:persp3d" />
    <inkscape:perspective
       id="perspective2913"
       inkscape:persp3d-origin="160 : 106.66667 : 1"
       inkscape:vp_z="320 : 160 : 1"
       inkscape:vp_y="0 : 1000 : 0"
       inkscape:vp_x="0 : 160 : 1"
       sodipodi:type="inkscape:persp3d" />
    <inkscape:perspective
       id="perspective2969"
       inkscape:persp3d-origin="160 : 106.66667 : 1"
       inkscape:vp_z="320 : 160 : 1"
       inkscape:vp_y="0 : 1000 : 0"
       inkscape:vp_x="0 : 160 : 1"
       sodipodi:type="inkscape:persp3d" />
    <inkscape:perspective
       id="perspective3016"
       inkscape:persp3d-origin="160 : 106.66667 : 1"
       inkscape:vp_z="320 : 160 : 1"
       inkscape:vp_y="0 : 1000 : 0"
       inkscape:vp_x="0 : 160 : 1"
       sodipodi:type="inkscape:persp3d" />
    <inkscape:perspective
       id="perspective3091"
       inkscape:persp3d-origin="160 : 106.66667 : 1"
       inkscape:vp_z="320 : 160 : 1"
       inkscape:vp_y="0 : 1000 : 0"
       inkscape:vp_x="0 : 160 : 1"
       sodipodi:type="inkscape:persp3d" />
    <inkscape:perspective
       id="perspective3135"
       inkscape:persp3d-origin="200 : 133.33333 : 1"
       inkscape:vp_z="400 : 200 : 1"
       inkscape:vp_y="0 : 1000 : 0"
       inkscape:vp_x="0 : 200 : 1"
       sodipodi:type="inkscape:persp3d" />
    <inkscape:perspective
       id="perspective3176"
       inkscape:persp3d-origin="200 : 133.33333 : 1"
       inkscape:vp_z="400 : 200 : 1"
       inkscape:vp_y="0 : 1000 : 0"
       inkscape:vp_x="0 : 200 : 1"
       sodipodi:type="inkscape:persp3d" />
    <inkscape:perspective
       id="perspective2952"
       inkscape:persp3d-origin="160 : 106.66667 : 1"
       inkscape:vp_z="320 : 160 : 1"
       inkscape:vp_y="0 : 1000 : 0"
       inkscape:vp_x="0 : 160 : 1"
       sodipodi:type="inkscape:persp3d" />
    <inkscape:perspective
       id="perspective2994"
       inkscape:persp3d-origin="200 : 133.33333 : 1"
       inkscape:vp_z="400 : 200 : 1"
       inkscape:vp_y="0 : 1000 : 0"
       inkscape:vp_x="0 : 200 : 1"
       sodipodi:type="inkscape:persp3d" />
    <inkscape:perspective
       id="perspective3035"
       inkscape:persp3d-origin="200 : 133.33333 : 1"
       inkscape:vp_z="400 : 200 : 1"
       inkscape:vp_y="0 : 1000 : 0"
       inkscape:vp_x="0 : 200 : 1"
       sodipodi:type="inkscape:persp3d" />
    <inkscape:perspective
       id="perspective3086"
       inkscape:persp3d-origin="200 : 133.33333 : 1"
       inkscape:vp_z="400 : 200 : 1"
       inkscape:vp_y="0 : 1000 : 0"
       inkscape:vp_x="0 : 200 : 1"
       sodipodi:type="inkscape:persp3d" />
    <inkscape:perspective
       id="perspective3143"
       inkscape:persp3d-origin="200 : 133.33333 : 1"
       inkscape:vp_z="400 : 200 : 1"
       inkscape:vp_y="0 : 1000 : 0"
       inkscape:vp_x="0 : 200 : 1"
       sodipodi:type="inkscape:persp3d" />
    <inkscape:perspective
       id="perspective3188"
       inkscape:persp3d-origin="200 : 133.33333 : 1"
       inkscape:vp_z="400 : 200 : 1"
       inkscape:vp_y="0 : 1000 : 0"
       inkscape:vp_x="0 : 200 : 1"
       sodipodi:type="inkscape:persp3d" />
  </defs>
  <g
     style="display:inline"
     inkscape:label="Pillar 3 Band"
     id="g3660"
     inkscape:groupmode="layer"
     transform="translate(0,60)">
    <path
       sodipodi:nodetypes="cccccccscccccccccccccscccccsssc"
       style="fill:#000204;fill-opacity:1;fill-rule:evenodd;stroke:none;display:inline"
       id="path3662"
       d="m 191.53964,28.603189 -6.53125,-2.09375 -30.46875,68.062503 -29.78125,32.593748 -7.78125,0 -0.125,5.65625 31.0625,0 c 1.28732,5.53295 6.23327,9.65624 12.15625,9.65625 5.92495,0 10.87095,-4.12052 12.15625,-9.65625 l 24.125,0 0,-5.65625 -7.78125,0 -2.46875,-22.34375 16.625,-72.625001 -7.15625,-2.28125 -4.03125,-1.3125 z m -2.28125,6.40625 4.96875,1.78125 -15.21875,68.031251 2.46875,22.34375 -9.25,0 c -1.28251,-5.53956 -6.22858,-9.6875 -12.15625,-9.6875 -5.92576,0 -10.87178,4.15063 -12.15625,9.6875 l -13.59375,0 26.25,-28.374998 28.6875,-63.781253 z m -21.7,94.981251 c 0,4.14 -3.36,7.5 -7.5,7.5 -4.14,0 -7.5,-3.36 -7.5,-7.5 0,-4.14 3.36,-7.5 7.5,-7.5 4.14,0 7.5,3.36 7.5,7.5 z" />
    <path
       style="fill:#000000;fill-opacity:1;stroke:none"
       d="m 160.6521,98.609272 18.41043,6.219738 0.12439,-0.52868 -18.34823,-6.250838 -0.18659,0.55978 z"
       id="path3664"
       sodipodi:nodetypes="ccccc" />
    <path
       style="fill:#000204;fill-opacity:1;stroke:none"
       d="m 175.26849,66.017823 11.59981,3.887338 c -0.14141,0.298758 -0.16166,0.365908 -0.15549,0.590878 L 175.0197,66.5776 l 0.24879,-0.559777 z"
       id="path3666"
       sodipodi:nodetypes="ccccc" />
    <path
       style="fill:#000000;fill-opacity:1"
       d="m 135.50452,186.02988 c 0.77691,-0.79998 24.20667,-26.13373 25.10594,-27.14614 0.107,-0.12046 18.02077,5.80874 18.25376,6.04173 0.0497,0.0497 2.3528,20.35263 2.51287,22.15202 0.002,0.0262 -2.03726,0.0476 -4.53241,0.0476 l -4.53664,0 -0.34284,-1.09523 c -0.74076,-2.36642 -2.66078,-4.96271 -4.68823,-6.33953 -7.06078,-4.79488 -16.48467,-1.62376 -19.12271,6.43476 l -0.32736,1 -6.69302,0 -6.69301,0 1.06365,-1.09523 z"
       id="path3192"
       transform="translate(0,-60)" />
    <path
       style="fill:#000000;fill-opacity:1"
       d="m 181.14916,127.90329 c -3.00865,-1.01513 -5.51328,-1.8887 -5.56585,-1.94127 -0.0658,-0.0658 13.31376,-30.123268 13.7048,-30.788071 0.0286,-0.0487 4.68979,1.623401 4.7681,1.710465 0.0677,0.0753 -7.12831,32.191116 -7.29391,32.552626 -0.12469,0.27221 -0.83944,0.0769 -5.61314,-1.53375 z"
       id="path3194"
       transform="translate(0,-60)" />
    <path
       style="fill:#ffd400;fill-opacity:1"
       d="m 169.85751,161.03249 c -4.81904,-1.6539 -8.75096,-3.06438 -8.73758,-3.13439 0.0455,-0.23835 13.83584,-30.86757 13.96142,-31.00931 0.1216,-0.13725 11.00543,3.38536 11.30947,3.66037 0.10923,0.0988 -6.10694,28.55493 -7.23055,33.09976 -0.0583,0.23572 -0.20381,0.42005 -0.3234,0.40962 -0.1196,-0.0104 -4.16031,-1.37214 -8.97936,-3.02605 z"
       id="path3196"
       transform="translate(0,-60)" />
    <path
       transform="translate(0,-40)"
       sodipodi:nodetypes="cccc"
       d="m 198.97514,53.02841 -4.7875,-35.975 30.5875,10.2376 -25.8,25.7374 z"
       id="path3149"
       style="fill:#000407;fill-opacity:1;fill-rule:evenodd;stroke:none;display:inline" />
    <path
       transform="translate(0,-40)"
       style="fill:#000407;fill-opacity:1;fill-rule:evenodd;stroke:none;display:inline"
       id="path27763-23"
       d="m 195.34229,12.859241 25.8,-25.7625 5.1375,36.1125 -30.9375,-10.35 z"
       sodipodi:nodetypes="cccc" />
    <g
       style="display:inline"
       id="g2870"
       transform="translate(0.05305884,-29.888181)">
      <path
         transform="translate(-40,-40)"
         style="fill:#000407;fill-opacity:1;fill-rule:evenodd;stroke:none"
         id="path27763"
         d="m 237.075,81.89375 -5.59375,16.71875 4.03125,1.3125 5.59375,-16.6875 -4.03125,-1.34375 z m -14.48135,-8.400002 0,0 z m 9.1251,-2.4875 0,0 z"
         sodipodi:nodetypes="ccccccccc" />
    </g>
  </g>
</svg>
