<?xml version="1.0" encoding="UTF-8" standalone="no"?>
<!-- Created with Inkscape (http://www.inkscape.org/) -->
<svg
   xmlns:dc="http://purl.org/dc/elements/1.1/"
   xmlns:cc="http://creativecommons.org/ns#"
   xmlns:rdf="http://www.w3.org/1999/02/22-rdf-syntax-ns#"
   xmlns:svg="http://www.w3.org/2000/svg"
   xmlns="http://www.w3.org/2000/svg"
   xmlns:sodipodi="http://sodipodi.sourceforge.net/DTD/sodipodi-0.dtd"
   xmlns:inkscape="http://www.inkscape.org/namespaces/inkscape"
   version="1.0"
   width="400"
   height="400"
   id="svg2"
   sodipodi:version="0.32"
   inkscape:version="0.46"
   sodipodi:docname="Cardinal_Spar_North.svg"
   inkscape:output_extension="org.inkscape.output.svg.inkscape">
  <metadata
     id="metadata6">
    <rdf:RDF>
      <cc:Work
         rdf:about="">
        <dc:format>image/svg+xml</dc:format>
        <dc:type
           rdf:resource="http://purl.org/dc/dcmitype/StillImage" />
      </cc:Work>
    </rdf:RDF>
  </metadata>
  <sodipodi:namedview
     inkscape:window-height="843"
     inkscape:window-width="1440"
     inkscape:pageshadow="2"
     inkscape:pageopacity="0.0"
     guidetolerance="10.0"
     gridtolerance="10.0"
     objecttolerance="10.0"
     borderopacity="1.0"
     bordercolor="#666666"
     pagecolor="#ffffff"
     id="base"
     showgrid="false"
     inkscape:zoom="1.325"
     inkscape:cx="200"
     inkscape:cy="200"
     inkscape:window-x="-5"
     inkscape:window-y="-3"
     inkscape:current-layer="svg2" />
  <defs
     id="defs4">
    <inkscape:perspective
       sodipodi:type="inkscape:persp3d"
       inkscape:vp_x="0 : 200 : 1"
       inkscape:vp_y="0 : 1000 : 0"
       inkscape:vp_z="400 : 200 : 1"
       inkscape:persp3d-origin="200 : 133.33333 : 1"
       id="perspective8" />
  </defs>
  <path
     d="M 237.40625,80.5 L 231.46875,98.625 L 227.21875,97.21875 L 197.125,187.84375 C 192.53643,188.94207 188.91165,192.58419 187.84375,197.1875 L 179.40625,197.1875 L 179.28125,202.84375 L 187.84375,202.84375 C 189.13107,208.3767 194.07702,212.49999 200,212.5 C 205.92495,212.5 210.87095,208.37948 212.15625,202.84375 L 220.48125,202.8 L 220.48125,197.14375 L 212.15625,197.1875 C 211.66675,195.07319 210.65776,193.14936 209.25,191.59375 L 239.25,101.125 L 235.5,99.9375 L 241.78125,81.96875 L 237.40625,80.5 z M 200,192.5 C 204.14,192.5 207.5,195.86 207.5,200 C 207.5,204.14 204.14,207.5 200,207.5 C 195.86,207.5 192.5,204.14 192.5,200 C 192.5,195.86 195.86,192.5 200,192.5 z M 250.54375,48.26875 L 224.7625,74.01875 L 255.66875,84.3625 L 250.54375,48.26875 z M 236.21885,39.768755 L 262.01885,14.006255 L 267.15635,50.118755 L 236.21885,39.768755 z"
     id="path27763"
     style="fill: rgb(0, 4, 7); fill-opacity: 1; fill-rule: evenodd; stroke: none;" />
  <path
     style="fill:#f2f2f2;fill-opacity:1;fill-rule:evenodd;stroke:#000000;stroke-width:0.75471699;stroke-opacity:1"
     d="M 195.24528,211.01008 C 192.48563,209.78354 189.95312,207.12162 188.89914,204.33962 C 188.17217,202.4208 187.79812,202.26415 183.94321,202.26415 C 179.81344,202.26415 179.77358,202.24251 179.77358,200 C 179.77358,197.76212 179.82116,197.73585 183.87367,197.73585 C 187.31459,197.73585 188.05098,197.49253 188.45412,196.22234 C 189.2264,193.78911 192.71737,190.06786 195.20786,189.0231 C 197.45558,188.08019 197.8571,187.00965 212.36703,143.27408 L 227.22462,98.490566 L 229.48722,98.675396 C 231.73543,98.859034 231.76796,98.805057 234.60509,90.184823 C 236.77858,83.580981 237.77097,81.509434 238.76112,81.509434 C 241.14028,81.509434 241.04635,82.999653 238.13445,91.451796 C 236.48041,96.252853 235.56792,99.958528 236,100.11995 C 238.93468,101.21629 238.99461,100.98693 223.89823,146.43678 L 209.03054,191.19815 L 210.61868,194.46701 C 212.17792,197.6764 212.2756,197.73585 215.99019,197.73585 C 219.69082,197.73585 219.77358,197.78538 219.77358,200 C 219.77358,202.20925 219.68344,202.26415 216.05654,202.26415 C 212.46843,202.26415 212.27857,202.37461 210.58271,205.44889 C 207.5005,211.03634 200.78387,213.47173 195.24528,211.01008 L 195.24528,211.01008 z M 205.50852,205.20319 C 212.20605,198.03347 202.44743,188.07771 194.92583,194.40671 C 192.92405,196.09109 192.60377,196.86256 192.60377,200 C 192.60377,203.13744 192.92405,203.9089 194.92583,205.59329 C 198.33906,208.46534 202.60824,208.30796 205.50852,205.2032 L 205.50852,205.20319 z"
     id="path2381" />
  <path
     style="fill:none;fill-rule:evenodd;stroke:#000000;stroke-width:1px;stroke-linecap:butt;stroke-linejoin:miter;stroke-opacity:1"
     d="M 212.07547,143.39623 L 223.39623,147.16981"
     id="path2383" />
  <path
     style="fill:#000000;fill-opacity:1;fill-rule:evenodd;stroke:#000000;stroke-width:0.75471699;stroke-opacity:1"
     d="M 218.45283,144.62755 C 215.85849,143.79048 213.73585,142.75305 213.73585,142.32215 C 213.73585,141.89127 216.87282,132.10759 220.70688,120.58068 C 226.9415,101.8366 227.8486,99.622642 229.29371,99.622642 C 231.53004,99.622642 232.1512,98.675208 235.25617,90.528385 C 239.5803,79.182725 241.12158,79.743381 237.46122,91.330498 C 235.95256,96.106249 235.62983,98.318204 235.99654,101.36946 C 236.40816,104.79427 235.89995,107.07382 231.92713,119.62264 C 229.43026,127.50943 226.43842,136.70439 225.27859,140.05588 L 223.16981,146.14951 L 218.45283,144.62755 z"
     id="path2385" />
  <path
     style="fill:#ffcc00;fill-opacity:1;fill-rule:evenodd;stroke:#000000;stroke-width:0.75471699;stroke-opacity:1"
     d="M 194.03615,209.2974 C 192.62566,208.35057 190.80596,206.34305 189.99223,204.83622 C 188.65532,202.36048 188.12823,202.04848 184.52053,201.59774 C 178.49155,200.84444 179.62204,198.23075 185.99057,198.19898 C 187.57457,198.19107 188.50091,197.48469 189.96151,195.17106 C 191.00921,193.51137 193.04913,191.38872 194.49472,190.45408 C 197.72891,188.36297 199.38596,184.52352 206.95449,161.58491 C 209.9677,152.45283 212.53457,144.86132 212.65879,144.71488 C 212.78302,144.56843 215.07955,145.17902 217.76211,146.07173 L 222.63955,147.69482 L 215.40725,169.42035 L 208.17494,191.14586 L 209.68121,194.04833 C 211.39479,197.35048 212.22574,197.92652 216.18868,198.55964 C 220.13864,199.19069 219.84626,200.91208 215.68309,201.53639 C 212.93185,201.94895 211.86332,202.62731 209.58521,205.40738 C 208.06611,207.26131 205.84823,209.2823 204.6566,209.89851 C 201.45125,211.55608 197.02785,211.3057 194.03615,209.29739 L 194.03615,209.2974 z M 204.51562,206.82209 C 207.0843,205.02292 208.65977,201.41513 208.12392,198.55894 C 207.57751,195.64605 204.37872,192.18551 202.12347,192.0674 C 194.61366,191.67414 190.90264,195.54885 192.19442,202.43462 C 193.07087,207.10635 200.38921,209.71236 204.51562,206.82211 L 204.51562,206.82209 z"
     id="path2387" />
</svg>
