<?xml version="1.0" encoding="UTF-8" standalone="no"?>
<svg
   xmlns:dc="http://purl.org/dc/elements/1.1/"
   xmlns:cc="http://creativecommons.org/ns#"
   xmlns:rdf="http://www.w3.org/1999/02/22-rdf-syntax-ns#"
   xmlns:svg="http://www.w3.org/2000/svg"
   xmlns="http://www.w3.org/2000/svg"
   xmlns:sodipodi="http://sodipodi.sourceforge.net/DTD/sodipodi-0.dtd"
   xmlns:inkscape="http://www.inkscape.org/namespaces/inkscape"
   version="1.0"
   width="320"
   height="320"
   id="svg2"
   sodipodi:version="0.32"
   inkscape:version="0.46"
   sodipodi:docname="Cardinal_Beacon_Stake_South.svg"
   inkscape:output_extension="org.inkscape.output.svg.inkscape">
  <metadata
     id="metadata6">
    <rdf:RDF>
      <cc:Work
         rdf:about="">
        <dc:format>image/svg+xml</dc:format>
        <dc:type
           rdf:resource="http://purl.org/dc/dcmitype/StillImage" />
      </cc:Work>
    </rdf:RDF>
  </metadata>
  <sodipodi:namedview
     inkscape:window-height="843"
     inkscape:window-width="1440"
     inkscape:pageshadow="2"
     inkscape:pageopacity="0.0"
     guidetolerance="10.0"
     gridtolerance="10.0"
     objecttolerance="10.0"
     borderopacity="1.0"
     bordercolor="#666666"
     pagecolor="#ffffff"
     id="base"
     showgrid="false"
     inkscape:zoom="3.3125"
     inkscape:cx="160"
     inkscape:cy="232.45283"
     inkscape:window-x="-5"
     inkscape:window-y="-3"
     inkscape:current-layer="svg2" />
  <defs
     id="defs4">
    <inkscape:perspective
       sodipodi:type="inkscape:persp3d"
       inkscape:vp_x="0 : 160 : 1"
       inkscape:vp_y="0 : 1000 : 0"
       inkscape:vp_z="320 : 160 : 1"
       inkscape:persp3d-origin="160 : 106.66667 : 1"
       id="perspective8" />
    <inkscape:perspective
       id="perspective2465"
       inkscape:persp3d-origin="200 : 133.33333 : 1"
       inkscape:vp_z="400 : 200 : 1"
       inkscape:vp_y="0 : 1000 : 0"
       inkscape:vp_x="0 : 200 : 1"
       sodipodi:type="inkscape:persp3d" />
  </defs>
  <path
     d="M 197.71875,108.59375 L 197.71875,126.28125 L 191.34375,126.28125 L 191.34375,191.03125 C 189.63921,192.68015 188.39706,194.80239 187.84375,197.1875 L 179.40625,197.1875 L 179.28125,202.84375 L 187.84375,202.84375 C 189.13107,208.3767 194.07702,212.49999 200,212.5 C 205.92495,212.5 210.87095,208.37948 212.15625,202.84375 L 220.46875,202.8125 L 220.46875,197.15625 L 212.15625,197.1875 C 211.56957,194.65854 210.2097,192.43634 208.34375,190.75 L 208.34375,126.28125 L 201.96875,126.28125 L 201.96875,108.59375 L 197.71875,108.59375 z M 200,192.5 C 204.14,192.5 207.5,195.86 207.5,200 C 207.5,204.14 204.14,207.5 200,207.5 C 195.86,207.5 192.5,204.14 192.5,200 C 192.5,195.86 195.86,192.5 200,192.5 z"
     id="path2520"
     style="fill: rgb(0, 4, 7); fill-opacity: 1; fill-rule: evenodd; stroke: none;"
     transform="translate(-40, -40)" />
  <g
     id="g2467"
     transform="translate(35.165919,7.9290094)">
    <path
       style="fill:#000407;fill-opacity:1;fill-rule:evenodd;stroke:none"
       id="path27763"
       d="M 108.7484,-6.0796518 L 124.31415,26.697147 L 141.0112,-5.6903183 L 108.7484,-6.0796518 z M 124.27667,30.254511 L 124.27667,30.254511 z"
       sodipodi:nodetypes="cccccc" />
  </g>
  <path
     style="fill:#ececec;fill-opacity:1;fill-rule:evenodd;stroke:#000000;stroke-width:0.60377359;stroke-opacity:1"
     d="M 157.24414,171.84505 C 153.94318,171.06475 150.71064,168.50574 149.27209,165.53418 L 147.93763,162.77736 L 143.76501,162.77736 L 139.59245,162.77736 L 139.59245,160.06038 L 139.59245,157.3434 L 143.83384,157.3434 C 147.85322,157.3434 148.10663,157.26069 148.67605,155.7629 C 149.00655,154.89363 149.81494,153.4985 150.47245,152.66261 C 151.63001,151.19106 151.66792,150.12012 151.66792,118.92235 L 151.66792,86.701887 L 154.68679,86.701887 L 157.70566,86.701887 L 157.70566,77.711282 L 160.3715,36.901989 L 161.93208,68.627007 L 161.93208,77.664447 L 161.93208,86.701887 L 164.95094,86.701887 L 167.96981,86.701887 L 167.96981,118.91019 C 167.96981,150.28198 168.00097,151.1467 169.16957,152.20427 C 169.82943,152.80142 170.69911,154.20203 171.10219,155.31672 L 171.83511,157.3434 L 175.94017,157.3434 L 180.04528,157.3434 L 180.04528,160.06038 L 180.04528,162.77736 L 175.88432,162.77736 C 171.95768,162.77736 171.70216,162.86175 171.34732,164.27572 C 170.8288,166.34155 167.75831,169.70469 165.40009,170.78965 C 162.75997,172.0043 159.63079,172.40925 157.24414,171.84507 L 157.24414,171.84505 z M 163.68374,166.73273 C 168.32821,164.33099 169.03354,158.44739 165.14337,154.55723 C 163.36767,152.78148 162.7046,152.51321 160.09177,152.51321 C 157.54017,152.51321 156.75943,152.8108 154.94255,154.47583 C 148.39873,160.47279 155.77848,170.82071 163.68374,166.73275 L 163.68374,166.73273 z"
     id="path2476"
     sodipodi:nodetypes="ccccccccssccccccccccccscccccccsscccssscc" />
  <path
     style="fill:none;fill-rule:evenodd;stroke:#000000;stroke-width:1px;stroke-linecap:butt;stroke-linejoin:miter;stroke-opacity:1"
     d="M 157.58491,68.226415 L 163.01887,68.830189"
     id="path2478" />
  <path
     style="fill:#000000;fill-opacity:1;fill-rule:evenodd;stroke:#000000;stroke-width:0.60377359;stroke-opacity:1"
     d="M 171.096,36.408825 C 172.50948,36.483832 173.66961,36.699417 173.67406,36.887892 C 173.67851,37.076375 170.52486,43.718834 166.66593,51.648938 L 159.64966,66.067306 L 152.16856,51.531269 C 148.05393,43.536446 144.68506,36.896381 144.68221,36.775563 C 144.67619,36.520383 167.28362,36.206492 171.096,36.408819 L 171.096,36.408825 z"
     id="path2484" />
  <path
     style="fill:none;fill-rule:evenodd;stroke:#000000;stroke-width:1px;stroke-linecap:butt;stroke-linejoin:miter;stroke-opacity:1"
     d="M 150.9434,121.35849 L 167.84906,121.35849"
     id="path2390" />
  <path
     style="opacity:1;fill:#000000;fill-opacity:0.75;fill-rule:nonzero;stroke:#000000;stroke-width:0.60377359;stroke-opacity:1"
     d="M 156.52063,170.82881 C 153.67638,169.81485 150.98276,167.34223 149.42678,164.31698 C 148.26252,162.05339 148.26125,162.05283 144.35001,162.05283 L 140.43774,162.05283 L 140.43774,159.93962 L 140.43774,157.82642 L 144.31795,157.82642 L 148.1981,157.82642 L 150.0538,154.58312 L 151.90943,151.33979 L 151.90943,138.65858 C 151.90943,131.68391 152.07922,125.1283 152.28679,124.09057 L 152.66415,122.20377 L 160.13585,122.20377 L 167.60755,122.20377 L 167.60755,136.55419 C 167.60755,150.63551 167.63423,150.94401 169.03173,153.00702 C 169.81506,154.16334 170.64845,155.72075 170.88374,156.46792 C 171.27336,157.70495 171.6858,157.82642 175.4973,157.82642 L 179.68302,157.82642 L 179.68302,159.93962 L 179.68302,162.05283 L 176.81509,162.06108 C 172.8774,162.07239 171.33748,162.57501 170.8864,163.99609 C 170.07336,166.5581 166.3293,169.8761 163.20441,170.80409 C 159.55544,171.88774 159.49174,171.88796 156.52063,170.82879 L 156.52063,170.82881 z M 163.68924,167.22124 C 167.52749,165.6175 169.14083,161.17662 167.38349,157.0523 C 165.89615,153.56169 163.75928,152.13369 160.02318,152.13369 C 157.03958,152.13371 156.50699,152.34333 154.57038,154.27993 C 151.67004,157.18027 151.21292,160.34726 153.18756,163.86069 C 155.47206,167.92542 159.17096,169.10907 163.68918,167.22124 L 163.68924,167.22124 z"
     id="path2392" />
  <path
     style="opacity:1;fill:#ffcc00;fill-opacity:0.75;fill-rule:nonzero;stroke:#000000;stroke-width:0.60377359;stroke-opacity:1"
     d="M 152.51321,103.78868 L 152.51321,87.184906 L 155.53208,87.184906 L 158.55094,87.184906 L 158.55094,78.086309 C 158.55094,68.996075 158.55221,68.987888 159.90943,69.180649 C 161.23931,69.369515 161.27143,69.561346 161.43499,78.279245 L 161.60211,87.184906 L 164.6048,87.184906 L 167.60755,87.184906 L 167.60755,103.78868 L 167.60755,120.39245 L 160.06038,120.39245 L 152.51321,120.39245 L 152.51321,103.78868 z"
     id="path2394" />
</svg>
