<?xml version="1.0" encoding="UTF-8" standalone="no"?>
<svg
   xmlns:dc="http://purl.org/dc/elements/1.1/"
   xmlns:cc="http://creativecommons.org/ns#"
   xmlns:rdf="http://www.w3.org/1999/02/22-rdf-syntax-ns#"
   xmlns:svg="http://www.w3.org/2000/svg"
   xmlns="http://www.w3.org/2000/svg"
   xmlns:sodipodi="http://sodipodi.sourceforge.net/DTD/sodipodi-0.dtd"
   xmlns:inkscape="http://www.inkscape.org/namespaces/inkscape"
   version="1.0"
   baseProfile="full"
   id="body"
   width="100"
   height="100.00093"
   viewBox="0 0 1 1"
   preserveAspectRatio="none"
   sodipodi:version="0.32"
   inkscape:version="0.46"
   sodipodi:docname="crane.svg"
   inkscape:output_extension="org.inkscape.output.svg.inkscape">
  <metadata
     id="metadata100">
    <rdf:RDF>
      <cc:Work
         rdf:about="">
        <dc:format>image/svg+xml</dc:format>
        <dc:type
           rdf:resource="http://purl.org/dc/dcmitype/StillImage" />
      </cc:Work>
    </rdf:RDF>
  </metadata>
  <defs
     id="defs98">
    <inkscape:perspective
       sodipodi:type="inkscape:persp3d"
       inkscape:vp_x="0 : 360 : 1"
       inkscape:vp_y="0 : 1000 : 0"
       inkscape:vp_z="720 : 360 : 1"
       inkscape:persp3d-origin="360 : 240 : 1"
       id="perspective102" />
  </defs>
  <sodipodi:namedview
     inkscape:window-height="843"
     inkscape:window-width="1440"
     inkscape:pageshadow="2"
     inkscape:pageopacity="0.0"
     guidetolerance="10.0"
     gridtolerance="10.0"
     objecttolerance="10.0"
     borderopacity="1.0"
     bordercolor="#666666"
     pagecolor="#ffffff"
     id="base"
     showgrid="false"
     inkscape:zoom="1.5949852"
     inkscape:cx="20.081535"
     inkscape:cy="128.90067"
     inkscape:window-x="-5"
     inkscape:window-y="-3"
     inkscape:current-layer="content" />
  <title
     id="title3">SVG drawing</title>
  <desc
     id="desc5">This was produced by version 4.2 of GNU libplot, a free library for exporting 2-D vector graphics.</desc>
  <g
     id="content"
     transform="matrix(1.7361e-3,0,0,-1.7361e-3,-0.4891854,0.7606965)"
     xml:space="preserve"
     stroke-miterlimit="10.433"
     fill-rule="even-odd"
     font-style="normal"
     font-variant="normal"
     font-weight="normal"
     font-stretch="normal"
     font-size-adjust="none"
     letter-spacing="normal"
     word-spacing="normal"
     style="font-style:normal;font-variant:normal;font-weight:normal;font-stretch:normal;letter-spacing:normal;word-spacing:normal;text-anchor:start;fill:none;fill-opacity:1;stroke:#000000;stroke-linecap:butt;stroke-linejoin:miter;stroke-miterlimit:10.43299961;stroke-dasharray:none;stroke-dashoffset:0;stroke-opacity:1">

<polygon
   points="4.5508,506.9 89.5,506.9 89.5,591.85 4.5508,591.85 4.5508,506.9 "
   id="polygon11"
   transform="matrix(6.7291586,0,0,6.729101,254.51405,-3547.8191)"
   style="stroke-width:1;fill:#ffffff;fill-opacity:1" />




<line
   x1="25.5"
   y1="2.5508001"
   x2="81.301003"
   y2="2.5508001"
   id="line21"
   style="stroke:#ffffff;stroke-width:0" />






<path
   d="M 612.1554,117.1858 L 611.59019,117.65679 L 610.9576,118.19511 L 610.26452,118.73348 L 609.51083,119.33909 L 608.69664,119.8774 L 607.83532,120.55031 L 606.91341,121.15593 L 605.94443,121.82884 L 604.93504,122.50176 L 603.8718,123.17468 L 602.77501,123.91483 L 601.63773,124.58775 L 600.46011,125.32798 L 599.24889,126.0009 L 596.73221,127.41397 L 594.11455,128.82711 L 591.4094,130.24018 L 588.63702,131.51872 L 585.81751,132.79725 L 582.97109,133.94124 L 581.55122,134.47954 L 580.12461,135.01785 L 578.70481,135.48892 L 577.29165,135.95992 L 575.88529,136.36368 L 574.49231,136.70015 C 564.74177,139.72828 556.63986,152.51351 556.63986,162.94368 L 556.98304,204.32759 C 532.09185,217.78582 510.5653,246.04804 510.5653,276.32901 C 510.5653,319.05883 545.20701,353.71364 588.29384,353.71364 C 631.00378,353.71364 665.67912,319.05883 665.67912,276.32901 C 665.67912,238.98246 639.75845,207.69218 604.77354,200.62662 C 604.77354,179.76643 605.11673,177.74768 615.52002,170.34564 C 626.64329,162.94368 646.8308,154.53227 651.53448,150.49483 C 677.76472,127.95235 693.93486,94.643243 693.93486,56.96031 C 693.93486,-10.667139 638.41933,-66.182269 570.44138,-66.182269 C 501.81062,-66.182269 446.29509,-10.667139 446.29509,56.96031 C 446.29509,62.007126 445.95191,67.053943 446.98146,71.764301 C 449.65964,83.203772 459.75336,90.942263 471.18621,90.942263 C 485.33092,90.942263 497.10695,78.156955 497.10695,65.03526 C 497.10695,27.688714 528.04094,-3.2651789 566.73358,-3.2651789 C 604.77354,-3.2651789 635.70745,27.688714 635.70745,65.03526 C 635.70745,86.231905 626.64329,104.73695 612.1554,117.1858 z"
   id="path35"
   style="fill:#000000;fill-rule:nonzero;stroke-width:0" />
<path
   d="M 612.1554,117.1858 L 611.59019,117.65679 L 610.9576,118.19511 L 610.26452,118.73348 L 609.51083,119.33909 L 608.69664,119.8774 L 607.83532,120.55031 L 606.91341,121.15593 L 605.94443,121.82884 L 604.93504,122.50176 L 603.8718,123.17468 L 602.77501,123.91483 L 601.63773,124.58775 L 600.46011,125.32798 L 599.24889,126.0009 L 596.73221,127.41397 L 594.11455,128.82711 L 591.4094,130.24018 L 588.63702,131.51872 L 585.81751,132.79725 L 582.97109,133.94124 L 581.55122,134.47954 L 580.12461,135.01785 L 578.70481,135.48892 L 577.29165,135.95992 L 575.88529,136.36368 L 574.49231,136.70015 C 564.74177,139.72828 556.63986,152.51351 556.63986,162.94368 L 556.98304,204.32759 C 532.09185,217.78582 510.5653,246.04804 510.5653,276.32901 C 510.5653,319.05883 545.20701,353.71364 588.29384,353.71364 C 631.00378,353.71364 665.67912,319.05883 665.67912,276.32901 C 665.67912,238.98246 639.75845,207.69218 604.77354,200.62662 C 604.77354,179.76643 605.11673,177.74768 615.52002,170.34564 C 626.64329,162.94368 646.8308,154.53227 651.53448,150.49483 C 677.76472,127.95235 693.93486,94.643243 693.93486,56.96031 C 693.93486,-10.667139 638.41933,-66.182269 570.44138,-66.182269 C 501.81062,-66.182269 446.29509,-10.667139 446.29509,56.96031 C 446.29509,62.007126 445.95191,67.053943 446.98146,71.764301 C 449.65964,83.203772 459.75336,90.942263 471.18621,90.942263 C 485.33092,90.942263 497.10695,78.156955 497.10695,65.03526 C 497.10695,27.688714 528.04094,-3.2651789 566.73358,-3.2651789 C 604.77354,-3.2651789 635.70745,27.688714 635.70745,65.03526 C 635.70745,86.231905 626.64329,104.73695 612.1554,117.1858 z"
   id="path37"
   style="stroke-width:0" />
<path
   d="M 588.29384,252.4407 L 587.03546,252.4407 L 585.79733,252.57531 L 584.57258,252.70984 L 583.36807,252.91176 L 582.19045,253.18092 L 581.02636,253.51738 L 579.88908,253.85384 L 578.77204,254.25753 L 577.6887,254.7286 L 576.62545,255.26691 L 575.5959,255.87252 L 574.59996,256.47813 L 573.63771,257.08374 L 572.70235,257.82397 L 571.81413,258.56419 L 570.95281,259.37166 L 570.13854,260.17919 L 569.3647,261.05395 L 568.63126,261.92871 L 567.93809,262.87079 L 567.29886,263.81285 L 566.69996,264.82224 L 566.15493,265.83161 L 565.66368,266.9083 L 565.21957,267.98491 L 564.82925,269.1289 L 564.49279,270.27282 L 564.21691,271.41673 L 564.00154,272.62804 L 563.84003,273.83926 L 563.74583,275.05048 L 563.71222,276.32901 C 563.71222,289.45078 574.8355,300.55379 588.29384,300.55379 C 601.40899,300.55379 612.1554,289.45078 612.1554,276.32901 C 612.1554,262.87079 601.40899,252.4407 588.29384,252.4407 z"
   id="path39"
   style="fill:#ffffff;stroke:#ffffff;stroke-width:0" />




























</g></svg>
