<?xml version="1.0" encoding="utf-8"?>
<!-- Generator: Adobe Illustrator 14.0.0, SVG Export Plug-In . SVG Version: 6.00 Build 43363)  -->
<!DOCTYPE svg PUBLIC "-//W3C//DTD SVG 1.1 Basic//EN" "http://www.w3.org/Graphics/SVG/1.1/DTD/svg11-basic.dtd">
<svg version="1.1" baseProfile="basic" id="svg8829" xmlns:svg="http://www.w3.org/2000/svg"
	 xmlns="http://www.w3.org/2000/svg" xmlns:xlink="http://www.w3.org/1999/xlink" x="0px" y="0px" width="320px" height="320px"
	 viewBox="-70 -70 320 320" xml:space="preserve">
<path id="path10693" fill="#A30075" d="M94.461-68.76c-16.964,0-30.732,13.767-30.732,30.73c0,14.118,9.522,26.037,22.5,29.635
	V3.494L41.503,3.312v14.542H85.04l-4.207,191.975c-30.555-2.742-57.792-15.302-77.56-34.114l11.251-11.524l-45.639-36.404
	l11.432,71.617l15.638-16.1c7.804,9.616,16.689,17.807,27.348,25.246c18.032,12.581,37.768,19.699,57.621,21.767l2.012,20.943
	h20.853l2.104-20.943c32.115-3.444,62.768-19.983,85.24-47.741l17.378,16.828l9.329-72.62l-45.639,37.407l11.616,11.25
	c-19.826,18.993-47.249,31.659-78.017,34.389l-4.116-191.975h43.535V3.312l-43.444,0.547V-8.213
	c13.44-3.283,23.414-15.371,23.414-29.816C125.19-54.993,111.424-68.76,94.461-68.76z M94.425-52.663
	c8.077,0,14.632,6.556,14.632,14.633c0,8.079-6.555,14.634-14.632,14.634c-8.079,0-14.635-6.556-14.635-14.634
	C79.79-46.107,86.345-52.663,94.425-52.663z"/>
</svg>
