<?xml version="1.0" encoding="UTF-8" standalone="no"?>
<svg
   xmlns:dc="http://purl.org/dc/elements/1.1/"
   xmlns:cc="http://creativecommons.org/ns#"
   xmlns:rdf="http://www.w3.org/1999/02/22-rdf-syntax-ns#"
   xmlns:svg="http://www.w3.org/2000/svg"
   xmlns="http://www.w3.org/2000/svg"
   xmlns:sodipodi="http://sodipodi.sourceforge.net/DTD/sodipodi-0.dtd"
   xmlns:inkscape="http://www.inkscape.org/namespaces/inkscape"
   version="1.0"
   width="320"
   height="320"
   id="svg2"
   sodipodi:version="0.32"
   inkscape:version="0.46"
   sodipodi:docname="Lateral_Pillar_Red.svg"
   inkscape:output_extension="org.inkscape.output.svg.inkscape">
  <metadata
     id="metadata7">
    <rdf:RDF>
      <cc:Work
         rdf:about="">
        <dc:format>image/svg+xml</dc:format>
        <dc:type
           rdf:resource="http://purl.org/dc/dcmitype/StillImage" />
      </cc:Work>
    </rdf:RDF>
  </metadata>
  <sodipodi:namedview
     inkscape:window-height="991"
     inkscape:window-width="1680"
     inkscape:pageshadow="2"
     inkscape:pageopacity="0.0"
     guidetolerance="10.0"
     gridtolerance="10.0"
     objecttolerance="10.0"
     borderopacity="1.0"
     bordercolor="#666666"
     pagecolor="#ffffff"
     id="base"
     showgrid="false"
     inkscape:zoom="5.1191544"
     inkscape:cx="162.67035"
     inkscape:cy="207.92271"
     inkscape:window-x="-4"
     inkscape:window-y="-3"
     inkscape:current-layer="svg2" />
  <defs
     id="defs4">
    <inkscape:perspective
       sodipodi:type="inkscape:persp3d"
       inkscape:vp_x="0 : 160 : 1"
       inkscape:vp_y="0 : 1000 : 0"
       inkscape:vp_z="320 : 160 : 1"
       inkscape:persp3d-origin="160 : 106.66667 : 1"
       id="perspective9" />
  </defs>
  <path
     d="M 231.48125,98.6125 L 226.7081,101.01168 L 194.48125,164.58125 L 164.7,197.175 L 156.91875,197.175 L 156.79375,202.83125 L 187.85625,202.83125 C 189.14357,208.3642 194.08952,212.48749 200.0125,212.4875 C 205.93745,212.4875 210.88345,208.36698 212.16875,202.83125 L 236.29375,202.83125 L 236.29375,197.175 L 228.5125,197.175 L 226.04375,174.83125 L 238.56651,106.30849 L 235.5125,99.925 L 231.48125,98.6125 z M 229.2,105.01875 L 234.16875,106.8 L 218.95,174.83125 L 221.41875,197.175 L 212.16875,197.175 C 210.88624,191.63544 205.94017,187.4875 200.0125,187.4875 C 194.08674,187.4875 189.14072,191.63813 187.85625,197.175 L 174.2625,197.175 L 200.5125,168.8 L 229.2,105.01875 z M 207.5,200 C 207.5,204.14 204.14,207.5 200,207.5 C 195.86,207.5 192.5,204.14 192.5,200 C 192.5,195.86 195.86,192.5 200,192.5 C 204.14,192.5 207.5,195.86 207.5,200 z"
     id="path27763"
     style="fill: rgb(0, 4, 7); fill-opacity: 1; fill-rule: evenodd; stroke: none;"
     transform="translate(-40, -40)"
     sodipodi:nodetypes="cccccccscccccccccccccscccccsssc" />
  <path
     style="fill:#d40000;fill-opacity:0.74934129999999999"
     d="M 146.49087,143.36604 C 153.50763,135.81132 157.19758,131.02339 159.74804,129.07974 C 160.78728,128.28775 167.84669,112.54075 175.22475,96.103015 C 182.60274,79.665279 188.51882,65.370521 188.59142,65.275973 C 189.25854,64.40721 190.68108,65.12983 191.86115,65.622896 C 193.9452,66.493652 194.96884,64.631392 194.47362,66.847187 C 194.19317,68.10187 190.20861,85.014847 186.33528,102.28277 L 179.48828,133.87435 L 179.89768,143.92541 C 180.44524,149.23862 181.23501,154.33296 181.41403,155.24617 L 181.34877,157.10189 L 176.83798,157.10189 C 172.50216,157.10189 172.50743,158.60469 172.13466,157.11952 C 171.53849,154.74418 167.09494,148.95214 164.41763,148.06854 C 158.31583,146.05476 151.6026,148.69909 148.75146,154.23949 L 148.05981,157.10189 L 140.99411,157.10189 L 133.73314,157.10189 L 146.49087,143.36604 z"
     id="path2386"
     sodipodi:nodetypes="csssssccccccssccccc" />
  <path
     style="fill:#d40000;fill-opacity:0.74901960999999995"
     d="M 135.02785,156.44985 C 135.35947,156.10067 141.24634,149.73866 148.10982,142.31204 L 160.58887,128.8091 L 163.98482,121.21481 C 165.85257,117.03794 168.87313,110.32407 170.69714,106.29508 C 172.52115,102.2661 174.91538,96.947835 176.01763,94.476724 C 177.89821,90.260647 188.47512,66.765991 189.00325,65.631483 L 189.24542,65.111233 L 191.61478,65.954945 C 193.89193,66.765827 193.98183,66.81896 193.92549,67.320635 C 193.89324,67.607724 190.49338,82.933474 186.3702,101.37785 L 178.87351,134.91309 L 179.34119,139.21067 C 179.59846,141.57435 180.03398,145.44217 180.30906,147.80584 C 181.17631,155.25778 181.3144,156.68653 181.18737,156.89207 C 181.10718,157.0218 179.49512,157.07373 176.60603,157.03964 L 172.1484,156.98705 L 171.91613,156.20009 C 171.53015,154.89218 170.28828,152.71305 169.29181,151.59509 C 168.09175,150.24873 165.07063,148.19936 163.63937,147.76077 C 162.07906,147.28263 158.48505,147.29841 156.77094,147.79094 C 154.97398,148.30726 152.75889,149.49789 151.45797,150.64668 C 150.1458,151.80541 148.73238,153.89398 148.42307,155.13127 C 148.30219,155.61475 148.11138,156.25206 147.99904,156.54752 L 147.79477,157.08472 L 141.10987,157.08472 L 134.425,157.08472 L 135.02785,156.44985 z"
     id="path2380" />
  <path
     style="fill:#d40000;fill-opacity:0.74901961"
     d="M 135.50156,155.96149 C 136.0985,155.34371 138.73594,152.50877 141.36255,149.66162 C 162.21797,127.05498 160.73354,128.71886 161.33696,127.27276 C 161.64578,126.53272 164.45123,120.25735 167.57135,113.32749 C 170.6915,106.39764 176.82468,92.775423 181.20067,83.055904 C 185.57669,73.336385 189.24591,65.354441 189.35448,65.31825 C 189.62331,65.228637 193.33276,66.616618 193.66142,66.929793 C 193.88121,67.139238 192.67659,72.789294 186.3754,101.10375 L 178.82602,135.02677 L 180.00903,145.51854 C 180.65969,151.28903 181.19136,156.19787 181.19053,156.42709 C 181.18921,156.79678 181.04166,156.85964 179.8846,156.98356 C 179.16715,157.06039 177.13899,157.05968 175.37758,156.98198 C 172.23421,156.84333 172.1717,156.83204 171.99661,156.3715 C 171.6371,155.42594 170.6392,153.53524 169.95796,152.50888 C 169.23376,151.41781 166.87614,149.40473 165.18758,148.4356 C 162.42718,146.85131 157.91829,146.98823 154.32913,148.76535 C 151.25377,150.28806 149.28527,152.4837 148.27461,155.51844 L 147.753,157.08472 L 141.08459,157.08472 L 134.41619,157.08472 L 135.50156,155.96149 z"
     id="path2382" />
  <path
     style="fill:#d40000;fill-opacity:0.74901961"
     d="M 135.69888,155.76236 C 137.18573,154.18257 146.62139,143.96321 153.87075,136.08118 C 160.41374,128.96719 160.78978,128.49266 161.94482,125.89306 C 163.64019,122.07738 182.22717,80.783558 185.78563,72.927079 C 189.20448,65.37891 189.27285,65.249072 189.76525,65.372657 C 190.59234,65.580246 193.2008,66.621441 193.55117,66.883854 C 193.94178,67.176412 194.90815,62.597382 185.75941,103.80457 L 178.83102,135.01104 L 180.01077,145.60835 C 180.65965,151.43688 181.1902,156.34738 181.18979,156.52058 C 181.18872,156.9696 179.00652,157.13384 175.26147,156.96676 L 172.26015,156.83287 L 171.11821,154.59747 C 170.14113,152.68482 169.76912,152.16864 168.54153,151.0222 C 165.39316,148.08196 163.81972,147.40617 160.18947,147.43494 C 158.24426,147.45036 157.59047,147.53726 156.34768,147.94562 C 154.27681,148.62607 152.4619,149.68676 151.11738,151.00237 C 149.65748,152.43089 148.90176,153.63526 148.26435,155.54923 L 147.753,157.08472 L 141.10366,157.08472 L 134.4543,157.08472 L 135.69888,155.76236 z"
     id="path2384" />
</svg>
