<?xml version="1.0" encoding="UTF-8" standalone="no"?>
<svg
   xmlns:dc="http://purl.org/dc/elements/1.1/"
   xmlns:cc="http://creativecommons.org/ns#"
   xmlns:rdf="http://www.w3.org/1999/02/22-rdf-syntax-ns#"
   xmlns:svg="http://www.w3.org/2000/svg"
   xmlns="http://www.w3.org/2000/svg"
   xmlns:sodipodi="http://sodipodi.sourceforge.net/DTD/sodipodi-0.dtd"
   xmlns:inkscape="http://www.inkscape.org/namespaces/inkscape"
   version="1.0"
   width="320"
   height="340"
   id="svg2"
   inkscape:version="0.47 r22583"
   sodipodi:docname="Lateral_Tower_Red_Green_Red_Cone.svg"
   style="display:inline">
  <metadata
     id="metadata2913">
    <rdf:RDF>
      <cc:Work
         rdf:about="">
        <dc:format>image/svg+xml</dc:format>
        <dc:type
           rdf:resource="http://purl.org/dc/dcmitype/StillImage" />
        <dc:title></dc:title>
      </cc:Work>
    </rdf:RDF>
  </metadata>
  <sodipodi:namedview
     pagecolor="#ffffff"
     bordercolor="#666666"
     borderopacity="1"
     objecttolerance="10"
     gridtolerance="10"
     guidetolerance="10"
     inkscape:pageopacity="0"
     inkscape:pageshadow="2"
     inkscape:window-width="1920"
     inkscape:window-height="1088"
     id="namedview2911"
     showgrid="true"
     inkscape:zoom="2.8421875"
     inkscape:cx="69.548649"
     inkscape:cy="207.39853"
     inkscape:window-x="1440"
     inkscape:window-y="0"
     inkscape:window-maximized="0"
     inkscape:current-layer="g2845"
     inkscape:snap-grids="false">
    <inkscape:grid
       type="xygrid"
       id="grid2919"
       empspacing="5"
       visible="true"
       enabled="true"
       snapvisiblegridlinesonly="true" />
  </sodipodi:namedview>
  <defs
     id="defs4">
    <inkscape:perspective
       sodipodi:type="inkscape:persp3d"
       inkscape:vp_x="0 : 160 : 1"
       inkscape:vp_y="0 : 1000 : 0"
       inkscape:vp_z="320 : 160 : 1"
       inkscape:persp3d-origin="160 : 106.66667 : 1"
       id="perspective2915" />
    <inkscape:perspective
       id="perspective2862"
       inkscape:persp3d-origin="160 : 106.66667 : 1"
       inkscape:vp_z="320 : 160 : 1"
       inkscape:vp_y="0 : 1000 : 0"
       inkscape:vp_x="0 : 160 : 1"
       sodipodi:type="inkscape:persp3d" />
    <inkscape:perspective
       id="perspective2933"
       inkscape:persp3d-origin="160 : 106.66667 : 1"
       inkscape:vp_z="320 : 160 : 1"
       inkscape:vp_y="0 : 1000 : 0"
       inkscape:vp_x="0 : 160 : 1"
       sodipodi:type="inkscape:persp3d" />
    <inkscape:perspective
       id="perspective2989"
       inkscape:persp3d-origin="160 : 106.66667 : 1"
       inkscape:vp_z="320 : 160 : 1"
       inkscape:vp_y="0 : 1000 : 0"
       inkscape:vp_x="0 : 160 : 1"
       sodipodi:type="inkscape:persp3d" />
    <inkscape:perspective
       id="perspective3073"
       inkscape:persp3d-origin="160 : 106.66667 : 1"
       inkscape:vp_z="320 : 160 : 1"
       inkscape:vp_y="0 : 1000 : 0"
       inkscape:vp_x="0 : 160 : 1"
       sodipodi:type="inkscape:persp3d" />
    <inkscape:perspective
       id="perspective3123"
       inkscape:persp3d-origin="160 : 106.66667 : 1"
       inkscape:vp_z="320 : 160 : 1"
       inkscape:vp_y="0 : 1000 : 0"
       inkscape:vp_x="0 : 160 : 1"
       sodipodi:type="inkscape:persp3d" />
    <inkscape:perspective
       id="perspective3203"
       inkscape:persp3d-origin="160 : 106.66667 : 1"
       inkscape:vp_z="320 : 160 : 1"
       inkscape:vp_y="0 : 1000 : 0"
       inkscape:vp_x="0 : 160 : 1"
       sodipodi:type="inkscape:persp3d" />
    <inkscape:perspective
       id="perspective3274"
       inkscape:persp3d-origin="200 : 133.33333 : 1"
       inkscape:vp_z="400 : 200 : 1"
       inkscape:vp_y="0 : 1000 : 0"
       inkscape:vp_x="0 : 200 : 1"
       sodipodi:type="inkscape:persp3d" />
    <inkscape:perspective
       id="perspective3401"
       inkscape:persp3d-origin="200 : 133.33333 : 1"
       inkscape:vp_z="400 : 200 : 1"
       inkscape:vp_y="0 : 1000 : 0"
       inkscape:vp_x="0 : 200 : 1"
       sodipodi:type="inkscape:persp3d" />
    <inkscape:perspective
       id="perspective3639"
       inkscape:persp3d-origin="200 : 133.33333 : 1"
       inkscape:vp_z="400 : 200 : 1"
       inkscape:vp_y="0 : 1000 : 0"
       inkscape:vp_x="0 : 200 : 1"
       sodipodi:type="inkscape:persp3d" />
    <inkscape:perspective
       id="perspective3689"
       inkscape:persp3d-origin="200 : 133.33333 : 1"
       inkscape:vp_z="400 : 200 : 1"
       inkscape:vp_y="0 : 1000 : 0"
       inkscape:vp_x="0 : 200 : 1"
       sodipodi:type="inkscape:persp3d" />
    <inkscape:perspective
       id="perspective3739"
       inkscape:persp3d-origin="200 : 133.33333 : 1"
       inkscape:vp_z="400 : 200 : 1"
       inkscape:vp_y="0 : 1000 : 0"
       inkscape:vp_x="0 : 200 : 1"
       sodipodi:type="inkscape:persp3d" />
  </defs>
  <g
     inkscape:groupmode="layer"
     id="layer1"
     inkscape:label="Beacon"
     style="display:none"
     transform="translate(0,20)">
    <path
       style="fill:#000407;fill-opacity:1;fill-rule:evenodd;stroke:none;display:inline"
       d="m 151.18292,76.278139 0,64.750001 c -1.70454,1.6489 -2.94669,3.77114 -3.5,6.15625 l -8.4375,0 -0.125,5.65625 8.5625,0 c 1.28732,5.53295 6.23327,9.65624 12.15625,9.65625 5.92495,0 10.87095,-4.12052 12.15625,-9.65625 l 8.3125,-0.0312 0,-5.65625 -8.3125,0.0312 c -0.58668,-2.52896 -1.94655,-4.75116 -3.8125,-6.4375 l 0,-64.468751 -6.375,0 -4.25,0 -6.375,0 z m 4.0625,4.03125 8.96875,0 0,57.687501 -8.96875,0 0,-57.687501 z m 4.59375,62.187501 c 4.14,0 7.5,3.36 7.5,7.5 0,4.14 -3.36,7.5 -7.5,7.5 -4.14,0 -7.5,-3.36 -7.5,-7.5 0,-4.14 3.36,-7.5 7.5,-7.5 z"
       id="path2520" />
  </g>
  <g
     style="display:none"
     inkscape:label="Beacon 3 Band"
     id="g2831"
     inkscape:groupmode="layer"
     transform="translate(0,20)">
    <path
       id="path2833"
       d="m 151.18292,76.278139 0,64.750001 c -1.70454,1.6489 -2.94669,3.77114 -3.5,6.15625 l -8.4375,0 -0.125,5.65625 8.5625,0 c 1.28732,5.53295 6.23327,9.65624 12.15625,9.65625 5.92495,0 10.87095,-4.12052 12.15625,-9.65625 l 8.3125,-0.0312 0,-5.65625 -8.3125,0.0312 c -0.58668,-2.52896 -1.94655,-4.75116 -3.8125,-6.4375 l 0,-64.468751 -6.375,0 -4.25,0 -6.375,0 z m 4.0625,4.03125 8.96875,0 0,57.687501 -8.96875,0 0,-57.687501 z m 4.59375,62.187501 c 4.14,0 7.5,3.36 7.5,7.5 0,4.14 -3.36,7.5 -7.5,7.5 -4.14,0 -7.5,-3.36 -7.5,-7.5 0,-4.14 3.36,-7.5 7.5,-7.5 z"
       style="fill:#000407;fill-opacity:1;fill-rule:evenodd;stroke:none;display:inline" />
    <rect
       style="fill:#000000;fill-opacity:1;stroke:none"
       id="rect2835"
       width="9.9835072"
       height="0.96756458"
       x="154.61308"
       y="98.061447" />
    <rect
       style="fill:#000000;fill-opacity:1;stroke:none"
       id="rect2837"
       width="9.7196264"
       height="1.0555251"
       x="154.78899"
       y="118.07695" />
    <path
       style="fill:#00d400;fill-opacity:1;stroke:none"
       d="m 155.53875,109.204 0,-8.62012 4.2221,0 4.2221,0 0,8.62012 0,8.62012 -4.2221,0 -4.2221,0 0,-8.62012 z"
       id="path4255"
       transform="translate(0,-20)" />
    <path
       style="fill:#00d400;fill-opacity:1;stroke:none"
       d="m 155.53875,148.61027 0,-9.32381 4.2221,0 4.2221,0 0,9.32381 0,9.3238 -4.2221,0 -4.2221,0 0,-9.3238 z"
       id="path4257"
       transform="translate(0,-20)" />
    <path
       style="fill:#d40000;fill-opacity:1;stroke:none"
       d="m 155.53875,128.55529 0,-9.3238 4.2221,0 4.2221,0 0,9.3238 0,9.32381 -4.2221,0 -4.2221,0 0,-9.32381 z"
       id="path4259"
       transform="translate(0,-20)" />
    <path
       style="fill:#00d400;fill-opacity:1;stroke:none"
       d="m 151.08428,67.4228 c 0.12662,-3.338097 0.23071,-9.037932 0.2313,-12.6663 l 10e-4,-6.597031 8.79605,0 8.79604,0 0,12.6663 0,12.6663 -9.02735,0 -9.02734,0 0.23023,-6.069269 z"
       id="path4347"
       transform="translate(0,-20)" />
  </g>
  <g
     style="display:none"
     inkscape:label="Beacon 2 Band"
     id="g2825"
     inkscape:groupmode="layer"
     transform="translate(0,20)">
    <path
       id="path2827"
       d="m 151.18292,76.278139 0,64.750001 c -1.70454,1.6489 -2.94669,3.77114 -3.5,6.15625 l -8.4375,0 -0.125,5.65625 8.5625,0 c 1.28732,5.53295 6.23327,9.65624 12.15625,9.65625 5.92495,0 10.87095,-4.12052 12.15625,-9.65625 l 8.3125,-0.0312 0,-5.65625 -8.3125,0.0312 c -0.58668,-2.52896 -1.94655,-4.75116 -3.8125,-6.4375 l 0,-64.468751 -6.375,0 -4.25,0 -6.375,0 z m 4.0625,4.03125 8.96875,0 0,57.687501 -8.96875,0 0,-57.687501 z m 4.59375,62.187501 c 4.14,0 7.5,3.36 7.5,7.5 0,4.14 -3.36,7.5 -7.5,7.5 -4.14,0 -7.5,-3.36 -7.5,-7.5 0,-4.14 3.36,-7.5 7.5,-7.5 z"
       style="fill:#000407;fill-opacity:1;fill-rule:evenodd;stroke:none;display:inline" />
    <rect
       style="fill:#000000;fill-opacity:1;stroke:none"
       id="rect2829"
       width="10.07598"
       height="0.99515855"
       x="154.85019"
       y="108.95244" />
  </g>
  <g
     inkscape:groupmode="layer"
     id="layer2"
     inkscape:label="Tower"
     style="display:none"
     transform="translate(0,20)">
    <path
       style="fill:#000407;fill-opacity:1;fill-rule:evenodd;stroke:none"
       id="path2558"
       d="m 136.557,76.304224 -4.625,70.874996 -8.15625,0 0,5.65625 24,0 c 1.28732,5.53295 6.23327,9.65624 12.15625,9.65625 5.92495,0 10.87095,-4.12052 12.15625,-9.65625 l 24,0 0,-5.65625 -8.15625,0 -4.96875,-70.874996 -46.40625,0 z m 6.71875,7.09375 33.3125,0 4.59375,63.781246 -9.09375,0 c -1.2853,-5.53573 -6.2313,-9.65625 -12.15625,-9.65625 -5.92298,1e-5 -10.86893,4.1233 -12.15625,9.65625 l -9.09375,0 4.59375,-63.781246 z M 159.932,142.49172 c 4.14,0 7.5,3.36 7.5,7.5 0,4.14 -3.36,7.5 -7.5,7.5 -4.14,0 -7.5,-3.36 -7.5,-7.5 0,-4.14 3.36,-7.5 7.5,-7.5 z" />
    <path
       style="fill:#d40000;fill-opacity:1;stroke:none"
       d="m 138.99638,166.29031 c -0.0101,-1.37753 4.26545,-61.27135 4.43305,-62.10005 l 0.16011,-0.79165 16.33799,0 16.33799,0 0.18199,1.14349 c 0.19129,1.20201 4.43493,60.38048 4.42791,61.74821 -0.004,0.77853 -0.0769,0.79164 -4.40209,0.79164 -3.28202,0 -4.39889,-0.1116 -4.40146,-0.4398 -0.008,-1.06321 -1.82507,-4.20218 -3.21006,-5.54626 -4.99932,-4.85168 -13.06166,-4.83058 -17.93917,0.0469 -1.32074,1.32074 -3.11299,4.4788 -3.12097,5.49933 -0.003,0.3282 -1.11943,0.4398 -4.40145,0.4398 -4.32463,0 -4.39812,-0.0132 -4.40384,-0.79164 z"
       id="path4661"
       transform="translate(0,-20)" />
  </g>
  <g
     style="display:inline"
     inkscape:label="Tower 3 Band"
     id="g2845"
     inkscape:groupmode="layer"
     transform="translate(0,20)">
    <path
       d="m 136.557,76.304224 -4.625,70.874996 -8.15625,0 0,5.65625 24,0 c 1.28732,5.53295 6.23327,9.65624 12.15625,9.65625 5.92495,0 10.87095,-4.12052 12.15625,-9.65625 l 24,0 0,-5.65625 -8.15625,0 -4.96875,-70.874996 -46.40625,0 z m 6.71875,7.09375 33.3125,0 4.59375,63.781246 -9.09375,0 c -1.2853,-5.53573 -6.2313,-9.65625 -12.15625,-9.65625 -5.92298,1e-5 -10.86893,4.1233 -12.15625,9.65625 l -9.09375,0 4.59375,-63.781246 z M 159.932,142.49172 c 4.14,0 7.5,3.36 7.5,7.5 0,4.14 -3.36,7.5 -7.5,7.5 -4.14,0 -7.5,-3.36 -7.5,-7.5 0,-4.14 3.36,-7.5 7.5,-7.5 z"
       id="path2847"
       style="fill:#000407;fill-opacity:1;fill-rule:evenodd;stroke:none" />
    <rect
       style="fill:#000000;fill-opacity:1;stroke:none"
       id="rect2849"
       width="37.119297"
       height="1.1434854"
       x="141.19156"
       y="101.88256" />
    <rect
       style="fill:#000000;fill-opacity:1;stroke:none"
       id="rect2851"
       width="39.670147"
       height="1.2314459"
       x="140.224"
       y="122.02547" />
    <path
       style="fill:#d40000;fill-opacity:1;stroke:none"
       d="m 138.99347,166.46623 c -0.005,-0.33865 0.34218,-5.64266 0.77106,-11.7867 l 0.7798,-11.17097 19.385,0 19.385,0 0.78818,11.17097 c 0.43349,6.14404 0.78382,11.44805 0.77851,11.7867 -0.009,0.55305 -0.45734,0.61572 -4.40769,0.61572 -3.28202,0 -4.39889,-0.1116 -4.40146,-0.4398 -0.008,-1.06322 -1.82507,-4.20218 -3.21006,-5.54626 -4.99932,-4.85168 -13.06166,-4.83058 -17.93917,0.0469 -1.32074,1.32074 -3.11299,4.4788 -3.12097,5.49933 -0.003,0.3282 -1.11943,0.4398 -4.40145,0.4398 -3.95071,0 -4.39891,-0.0626 -4.40675,-0.61572 z"
       id="path4774"
       transform="translate(0,-20)" />
    <path
       style="fill:#d40000;fill-opacity:1;stroke:none"
       d="m 142.29279,119.31945 c 0.11821,-1.30622 0.38581,-5.06652 0.59465,-8.35624 0.20884,-3.28972 0.45225,-6.33755 0.54091,-6.77295 l 0.16119,-0.79165 16.33799,0 16.338,0 0.17534,1.14349 c 0.0964,0.62891 0.34554,3.67674 0.55357,6.77295 0.20803,3.09621 0.47341,6.69818 0.58975,8.0044 l 0.21151,2.37493 -17.85893,0 -17.85892,0 0.21494,-2.37493 z"
       id="path4776"
       transform="translate(0,-20)" />
    <path
       style="fill:#00d400;fill-opacity:1;stroke:none"
       d="m 140.75938,141.13363 c -0.004,-1.27368 1.10997,-16.48201 1.26301,-17.24024 l 0.15979,-0.79165 17.75459,0 17.7546,0 0.1612,0.79165 c 0.0887,0.4354 0.33339,3.48323 0.54386,6.77295 0.21046,3.28972 0.47944,7.12919 0.59772,8.53216 l 0.21505,2.55085 -19.2239,0 c -18.07314,0 -19.22402,-0.0368 -19.22592,-0.61572 z"
       id="path4778"
       transform="translate(0,-20)" />
  </g>
  <g
     style="display:none"
     inkscape:label="Tower 2 Band"
     id="g2839"
     inkscape:groupmode="layer"
     transform="translate(0,20)">
    <path
       d="m 136.557,76.304224 -4.625,70.874996 -8.15625,0 0,5.65625 24,0 c 1.28732,5.53295 6.23327,9.65624 12.15625,9.65625 5.92495,0 10.87095,-4.12052 12.15625,-9.65625 l 24,0 0,-5.65625 -8.15625,0 -4.96875,-70.874996 -46.40625,0 z m 6.71875,7.09375 33.3125,0 4.59375,63.781246 -9.09375,0 c -1.2853,-5.53573 -6.2313,-9.65625 -12.15625,-9.65625 -5.92298,1e-5 -10.86893,4.1233 -12.15625,9.65625 l -9.09375,0 4.59375,-63.781246 z M 159.932,142.49172 c 4.14,0 7.5,3.36 7.5,7.5 0,4.14 -3.36,7.5 -7.5,7.5 -4.14,0 -7.5,-3.36 -7.5,-7.5 0,-4.14 3.36,-7.5 7.5,-7.5 z"
       id="path2841"
       style="fill:#000407;fill-opacity:1;fill-rule:evenodd;stroke:none" />
    <rect
       style="fill:#000000;fill-opacity:1;stroke:none"
       id="rect2843"
       width="38.438702"
       height="1.1434854"
       x="140.75177"
       y="111.91002" />
  </g>
  <g
     inkscape:groupmode="layer"
     id="layer4"
     inkscape:label="Light"
     style="display:inline"
     transform="translate(0,20)">
    <g
       id="g2992"
       transform="translate(-0.04412785,-10.060108)">
      <path
         style="fill:#ff0000;fill-opacity:1;fill-rule:evenodd;stroke:none"
         id="path28209"
         d="m 131.60087,181.31159 -61.62788,76.30842 -4.53011,5.57826 -5.557433,4.22374 -6.899414,2.10924 -7.322226,-0.10972 -6.812191,-2.29629 -5.747427,-4.33733 -4.201328,-6.0873 -2.224898,-7.05116 0.15697,-6.9752 2.73284,-6.08953 4.594775,-5.30836 5.593528,-4.86801 1.174178,-0.94649 90.670616,-44.15027 z m 28.00125,-25.26051 c 2.19706,-0.21962 4.15842,1.38525 4.37805,3.58229 0.21962,2.19706 -1.38525,4.15842 -3.58229,4.37805 -2.19706,0.21962 -4.15842,-1.38525 -4.37805,-3.58229 -0.21962,-2.19706 1.38525,-4.15842 3.58229,-4.37805 z" />
    </g>
  </g>
  <g
     inkscape:groupmode="layer"
     id="layer3"
     inkscape:label="Top Support"
     style="display:inline"
     transform="translate(0,20)">
    <g
       id="g2936"
       transform="translate(-0.04730863,-10.020187)">
      <path
         transform="translate(-40,-40)"
         style="fill:#000407;fill-opacity:1;fill-rule:evenodd;stroke:none"
         id="path2558-0"
         d="m 197.875,108.625 0,17.71875 4.25,0 0,-17.71875 -4.25,0 z"
         sodipodi:nodetypes="ccccc" />
    </g>
  </g>
  <g
     inkscape:groupmode="layer"
     id="layer5"
     inkscape:label="Top North"
     style="display:none">
    <path
       style="fill:#000407;fill-opacity:1;fill-rule:evenodd;stroke:none"
       id="path27763-2"
       d="m 160.06914,46.059653 -16.27838,32.599845 32.59125,0.0025 -16.31287,-32.602371 0,2.6e-5 z m -16.28173,0.484611 16.29219,-36.6176486 16.33067,36.6161856 -32.62286,0.0015 0,-3.7e-5 z"
       sodipodi:nodetypes="cccccccccc" />
  </g>
  <g
     inkscape:groupmode="layer"
     id="layer6"
     inkscape:label="Top West"
     style="display:none">
    <path
       style="fill:#000407;fill-opacity:1;fill-rule:evenodd;stroke:none"
       id="path27763-3"
       d="m 144.04009,13.910259 15.94723,32.592905 16.31792,-32.580125 -32.26515,-0.01278 z m 15.95127,32.150465 -16.27838,32.599845 32.59125,0.0025 -16.31287,-32.602371 0,2.6e-5 z"
       sodipodi:nodetypes="ccccccccc" />
  </g>
  <g
     inkscape:groupmode="layer"
     id="layer7"
     inkscape:label="Top South"
     style="display:none">
    <path
       style="fill:#000407;fill-opacity:1;fill-rule:evenodd;stroke:none"
       id="path27763-0"
       d="m 160.02846,78.720936 -15.95514,-32.596846 32.0065,0.003 -16.05136,32.593846 z m -0.004,-32.170443 -15.96483,-32.553462 32.03145,0.01386 -16.06662,32.539603 z"
       sodipodi:nodetypes="cccccccc" />
  </g>
  <g
     inkscape:groupmode="layer"
     id="layer8"
     inkscape:label="Top East"
     style="display:none">
    <path
       style="fill:#000407;fill-opacity:1;fill-rule:evenodd;stroke:none"
       id="path27763-9"
       d="m 160.08274,78.672079 -16.11063,-32.596845 32.06869,0.003 -15.95806,32.593845 z m -16.03673,-35.692224 15.97729,-32.589969 16.03103,32.596534 -32.00832,-0.0066 0,3.5e-5 z"
       sodipodi:nodetypes="ccccccccc" />
  </g>
  <g
     inkscape:groupmode="layer"
     id="layer9"
     inkscape:label="Top Cone"
     style="display:inline">
    <path
       style="fill:#000407;fill-opacity:1;fill-rule:evenodd;stroke:none"
       id="path4179"
       d="m 160.13362,41.601993 -18.16912,36.9639 36.2188,-0.004 -18.0057,-36.96035 -0.044,4.5e-4 z m -0.0247,10.4431 11.11743,21.535039 -22.19017,-0.06882 11.07274,-21.466222 z"
       sodipodi:nodetypes="ccccccccc" />
    <path
       style="fill:#d40000;fill-opacity:1;stroke:none"
       d="m 154.62374,63.119221 c 2.92217,-5.705067 5.39513,-10.375766 5.49547,-10.37933 0.10034,-0.0036 1.16451,1.933047 2.36481,4.30358 1.2003,2.370533 3.58919,7.041232 5.30865,10.379329 l 3.1263,6.069269 -10.80414,0 -10.80413,0 5.31304,-10.372848 z"
       id="path4749" />
  </g>
  <g
     inkscape:groupmode="layer"
     id="layer10"
     inkscape:label="Top Can"
     style="display:none">
    <path
       style="fill:#000407;fill-opacity:1;fill-rule:evenodd;stroke:none"
       id="path2520-0"
       d="m 146.15182,43.534363 -0.375,35.0625 28.34375,0 0,-35.0625 -27.96875,0 z m 4.9375,4.59375 18.04168,-0.04398 0.0648,25.5 -18.2824,0.04398 0.17592,-25.5 z"
       sodipodi:nodetypes="cccccccccc" />
    <path
       style="fill:#d40000;fill-opacity:1;stroke:none"
       d="m 151.08428,67.4228 c 0.12662,-3.338097 0.23071,-9.037932 0.2313,-12.6663 l 10e-4,-6.597031 8.79605,0 8.79604,0 0,12.6663 0,12.6663 -9.02735,0 -9.02734,0 0.23023,-6.069269 z"
       id="path4751" />
  </g>
  <g
     inkscape:groupmode="layer"
     id="layer11"
     inkscape:label="Top Sphere"
     style="display:none">
    <g
       id="g3206"
       transform="translate(-2.4344823,68.168619)">
      <path
         style="fill:#000407;fill-opacity:1;fill-rule:evenodd;stroke:none"
         id="path13269"
         d="m 162.47651,-23.366875 c -9.35666,0 -17,7.643343 -17,17.0000002 0,9.356657 7.64334,16.9999998 17,16.9999998 9.35666,0 17,-7.6433428 17,-16.9999998 0,-9.3566572 -7.64334,-17.0000002 -17,-17.0000002 z m 0,5 c 6.65134,0 12,5.348657 12,12.0000002 0,6.65134297 -5.34866,12 -12,12 -6.65134,0 -12,-5.34865703 -12,-12 0,-6.6513432 5.34866,-12.0000002 12,-12.0000002 z"
         sodipodi:nodetypes="csssccsssc" />
    </g>
  </g>
  <g
     inkscape:groupmode="layer"
     id="layer12"
     inkscape:label="Top 2 Spheres"
     style="display:none">
    <path
       style="fill:#000407;fill-opacity:1;fill-rule:evenodd;stroke:none"
       id="path27763"
       d="m 174.50675,35.346214 c 0,8.004 -6.47999,14.45602 -14.48399,14.45602 -8.004,0 -14.45381,-6.527099 -14.45381,-14.531099 0,-8.004 6.39203,-14.5 14.39603,-14.5 8.004,0 14.54177,6.571079 14.54177,14.575079 z m 0.0184,28.924917 c 0,8.004 -6.496,14.500004 -14.5,14.500004 -8.004,0 -14.5,-6.496004 -14.5,-14.500004 0,-8.004 6.496,-14.5 14.5,-14.5 8.004,0 14.5,6.496 14.5,14.5 z"
       sodipodi:nodetypes="csssccsssc" />
  </g>
</svg>
