<?xml version="1.0" encoding="UTF-8" standalone="no"?>
<svg
   xmlns:dc="http://purl.org/dc/elements/1.1/"
   xmlns:cc="http://creativecommons.org/ns#"
   xmlns:rdf="http://www.w3.org/1999/02/22-rdf-syntax-ns#"
   xmlns:svg="http://www.w3.org/2000/svg"
   xmlns="http://www.w3.org/2000/svg"
   xmlns:sodipodi="http://sodipodi.sourceforge.net/DTD/sodipodi-0.dtd"
   xmlns:inkscape="http://www.inkscape.org/namespaces/inkscape"
   version="1.0"
   width="320"
   height="320"
   id="svg2"
   sodipodi:version="0.32"
   inkscape:version="0.46"
   sodipodi:docname="Lateral_Spar_PreferredChannel_Port.svg"
   inkscape:output_extension="org.inkscape.output.svg.inkscape">
  <metadata
     id="metadata7">
    <rdf:RDF>
      <cc:Work
         rdf:about="">
        <dc:format>image/svg+xml</dc:format>
        <dc:type
           rdf:resource="http://purl.org/dc/dcmitype/StillImage" />
      </cc:Work>
    </rdf:RDF>
  </metadata>
  <sodipodi:namedview
     inkscape:window-height="850"
     inkscape:window-width="1440"
     inkscape:pageshadow="2"
     inkscape:pageopacity="0.0"
     guidetolerance="10.0"
     gridtolerance="10.0"
     objecttolerance="10.0"
     borderopacity="1.0"
     bordercolor="#666666"
     pagecolor="#ffffff"
     id="base"
     showgrid="false"
     inkscape:zoom="3.9501558"
     inkscape:cx="158"
     inkscape:cy="204.12422"
     inkscape:window-x="-4"
     inkscape:window-y="-3"
     inkscape:current-layer="svg2" />
  <defs
     id="defs4">
    <inkscape:perspective
       sodipodi:type="inkscape:persp3d"
       inkscape:vp_x="0 : 160 : 1"
       inkscape:vp_y="0 : 1000 : 0"
       inkscape:vp_z="320 : 160 : 1"
       inkscape:persp3d-origin="160 : 106.66667 : 1"
       id="perspective9" />
  </defs>
  <path
     d="M 231.46875,98.625 L 227.21875,97.21875 L 197.125,187.84375 C 192.53643,188.94207 188.91165,192.58419 187.84375,197.1875 L 179.40625,197.1875 L 179.28125,202.84375 L 187.84375,202.84375 C 189.13107,208.3767 194.07702,212.49999 200,212.5 C 205.92495,212.5 210.87095,208.37948 212.15625,202.84375 L 220.48125,202.8 L 220.48125,197.14375 L 212.15625,197.1875 C 211.66675,195.07319 210.65776,193.14936 209.25,191.59375 L 239.25,101.125 L 235.5,99.9375 L 231.46875,98.625 z M 200,192.5 C 204.14,192.5 207.5,195.86 207.5,200 C 207.5,204.14 204.14,207.5 200,207.5 C 195.86,207.5 192.5,204.14 192.5,200 C 192.5,195.86 195.86,192.5 200,192.5 z"
     id="path27763"
     style="fill: rgb(0, 4, 7); fill-opacity: 1; fill-rule: evenodd; stroke: none;"
     transform="translate(-40, -40)"
     sodipodi:nodetypes="cccccccscccccccccsssc" />
  <path
     style="fill:#d40000;fill-opacity:1;fill-rule:evenodd;stroke:#000000;stroke-width:0.60377358999999997;stroke-opacity:1"
     d="M 157.24414,171.84505 C 153.94318,171.06475 150.71064,168.50574 149.27209,165.53418 L 147.93763,162.77736 L 143.76501,162.77736 L 139.59245,162.77736 L 139.59245,160.06038 L 139.59245,157.3434 L 143.81078,157.3434 C 147.99638,157.3434 148.03556,157.32818 148.86279,155.38113 C 149.97458,152.76432 152.21078,150.46312 155.06337,149.00025 L 157.40377,147.80004 L 172.40356,102.73761 C 190.3532,52.005842 183.83183,56.909799 196.98155,60.659828 C 198.25129,61.10246 198.78611,61.617938 198.56731,62.188202 C 198.38569,62.661476 191.68229,82.915152 183.67082,107.19639 L 169.1046,151.3441 L 170.4995,154.319 L 171.89434,157.2939 L 175.96981,157.31863 L 180.04528,157.3434 L 180.04528,160.06038 L 180.04528,162.77736 L 175.88432,162.77736 C 171.95768,162.77736 171.70216,162.86175 171.34732,164.27572 C 170.8288,166.34155 167.75831,169.70469 165.40009,170.78965 C 162.75997,172.0043 159.63079,172.40925 157.24414,171.84507 L 157.24414,171.84505 z M 163.68374,166.73273 C 168.32821,164.33099 169.03354,158.44739 165.14337,154.55723 C 163.36767,152.78148 162.7046,152.51321 160.09177,152.51321 C 157.54017,152.51321 156.75943,152.8108 154.94255,154.47583 C 148.39873,160.47279 155.77848,170.82071 163.68374,166.73275 L 163.68374,166.73273 z"
     id="path2382"
     sodipodi:nodetypes="ccccccccsccccscccccccccsscccssscc" />
  <path
     style="fill:none;fill-rule:evenodd;stroke:#000000;stroke-width:1px;stroke-linecap:butt;stroke-linejoin:miter;stroke-opacity:1"
     d="M 179.73975,79.756311 L 191.38486,83.55363"
     id="path2380" />
  <path
     style="fill:none;fill-rule:evenodd;stroke:#000000;stroke-width:1px;stroke-linecap:butt;stroke-linejoin:miter;stroke-opacity:1"
     d="M 165.56309,122.03312 L 177.96766,126.33675"
     id="path2383" />
  <path
     style="opacity:1;fill:#008000;fill-opacity:1;fill-rule:evenodd;stroke:#000000;stroke-width:0.25315458;stroke-miterlimit:4;stroke-dasharray:none;stroke-opacity:1"
     d="M 171.87287,123.6132 C 169.01855,122.63083 166.64275,121.79372 166.59331,121.75296 C 166.47534,121.65574 180.1208,80.943062 180.35927,80.68065 C 180.43352,80.598972 190.65479,83.891768 190.81055,84.04754 C 190.91473,84.15171 177.43377,125.01106 177.22223,125.23231 C 177.13438,125.32417 174.72719,124.59557 171.87287,123.6132 L 171.87287,123.6132 z"
     id="path2385" />
</svg>
