<?xml version="1.0" encoding="UTF-8" standalone="no"?>
<svg
   xmlns:dc="http://purl.org/dc/elements/1.1/"
   xmlns:cc="http://creativecommons.org/ns#"
   xmlns:rdf="http://www.w3.org/1999/02/22-rdf-syntax-ns#"
   xmlns:svg="http://www.w3.org/2000/svg"
   xmlns="http://www.w3.org/2000/svg"
   xmlns:sodipodi="http://sodipodi.sourceforge.net/DTD/sodipodi-0.dtd"
   xmlns:inkscape="http://www.inkscape.org/namespaces/inkscape"
   version="1.0"
   width="320"
   height="320"
   id="svg2"
   sodipodi:version="0.32"
   inkscape:version="0.46"
   sodipodi:docname="Lateral_Beacon_Stake_Green.svg"
   inkscape:output_extension="org.inkscape.output.svg.inkscape">
  <metadata
     id="metadata7">
    <rdf:RDF>
      <cc:Work
         rdf:about="">
        <dc:format>image/svg+xml</dc:format>
        <dc:type
           rdf:resource="http://purl.org/dc/dcmitype/StillImage" />
      </cc:Work>
    </rdf:RDF>
  </metadata>
  <sodipodi:namedview
     inkscape:window-height="735"
     inkscape:window-width="640"
     inkscape:pageshadow="2"
     inkscape:pageopacity="0.0"
     guidetolerance="10.0"
     gridtolerance="10.0"
     objecttolerance="10.0"
     borderopacity="1.0"
     bordercolor="#666666"
     pagecolor="#ffffff"
     id="base"
     showgrid="false"
     inkscape:zoom="1.65625"
     inkscape:cx="160"
     inkscape:cy="160"
     inkscape:window-x="0"
     inkscape:window-y="0"
     inkscape:current-layer="svg2" />
  <defs
     id="defs4">
    <inkscape:perspective
       sodipodi:type="inkscape:persp3d"
       inkscape:vp_x="0 : 160 : 1"
       inkscape:vp_y="0 : 1000 : 0"
       inkscape:vp_z="320 : 160 : 1"
       inkscape:persp3d-origin="160 : 106.66667 : 1"
       id="perspective9" />
  </defs>
  <path
     d="M 200.53639,67.820477 L 182.01543,104.78438 L 218.23423,104.78083 L 200.53639,67.820477 z M 197.71875,108.59375 L 197.71875,126.28125 L 191.34375,126.28125 L 191.34375,191.03125 C 189.63921,192.68015 188.39706,194.80239 187.84375,197.1875 L 179.40625,197.1875 L 179.28125,202.84375 L 187.84375,202.84375 C 189.13107,208.3767 194.07702,212.49999 200,212.5 C 205.92495,212.5 210.87095,208.37948 212.15625,202.84375 L 220.46875,202.8125 L 220.46875,197.15625 L 212.15625,197.1875 C 211.56957,194.65854 210.2097,192.43634 208.34375,190.75 L 208.34375,126.28125 L 201.96875,126.28125 L 201.96875,108.59375 L 197.71875,108.59375 z M 200,192.5 C 204.14,192.5 207.5,195.86 207.5,200 C 207.5,204.14 204.14,207.5 200,207.5 C 195.86,207.5 192.5,204.14 192.5,200 C 192.5,195.86 195.86,192.5 200,192.5 z"
     id="path4179"
     style="fill: rgb(0, 4, 7); fill-opacity: 1; fill-rule: evenodd; stroke: none;"
     transform="translate(-40, -40)" />
  <path
     style="fill:#008000;fill-opacity:1;fill-rule:evenodd;stroke:#000000;stroke-width:0.60377359;stroke-opacity:1"
     d="M 154.9637,170.97409 C 152.2534,169.70575 149.87135,167.1773 148.68228,164.30663 C 147.91174,162.44635 147.83014,162.41509 143.74562,162.41509 L 139.59245,162.41509 L 139.59245,160 L 139.59245,157.58491 L 143.79062,157.58491 L 147.98877,157.58491 L 149.15617,154.94585 C 149.79822,153.49436 150.62603,152.11983 150.99573,151.89134 C 151.47602,151.59449 151.66792,142.17847 151.66792,118.90776 L 151.66792,86.339623 L 154.68679,86.339623 L 157.70566,86.339623 L 157.70566,77.584906 L 157.70566,68.830189 L 159.81887,68.830189 L 161.93208,68.830189 L 161.93208,77.584906 L 161.93208,86.339623 L 164.95094,86.339623 L 167.96981,86.339623 L 167.98079,118.49057 L 167.99178,150.64151 L 169.79211,153.2984 C 170.7823,154.7597 171.59245,156.32196 171.59245,156.7701 C 171.59245,157.37639 172.67402,157.58491 175.81887,157.58491 L 180.04528,157.58491 L 180.04528,160 L 180.04528,162.41509 L 176.20231,162.41509 L 172.35935,162.41509 L 170.8863,165.27749 C 167.87856,171.1221 160.73856,173.67657 154.9637,170.9741 L 154.9637,170.97409 z M 163.55966,166.66808 C 166.16231,165.08114 167.64048,162.66581 167.64048,160 C 167.64048,158.78549 167.15642,157.05304 166.56479,156.15009 C 165.23804,154.12521 162.10845,152.15622 160.212,152.1532 C 156.27553,152.14693 152.2717,156.10361 152.2717,160 C 152.2717,163.89725 156.18552,167.80309 160.12075,167.83305 C 160.95094,167.83938 162.49845,167.31513 163.55965,166.66808 L 163.55966,166.66808 z"
     id="path2382" />
  <path
     style="fill:#008000;fill-opacity:1;fill-rule:evenodd;stroke:#000000;stroke-width:0.60377359;stroke-opacity:1"
     d="M 142.61132,64.22717 C 142.61132,63.092106 160.39639,29.017268 160.78212,29.413301 C 161.21543,29.858192 177.63019,63.937823 177.63019,64.392555 C 177.63019,64.508722 169.75094,64.603774 160.12075,64.603774 C 150.49057,64.603774 142.61132,64.4343 142.61132,64.227164 L 142.61132,64.22717 z"
     id="path2384" />
</svg>
