<?xml version="1.0" encoding="UTF-8" standalone="no"?>
<svg
   xmlns:dc="http://purl.org/dc/elements/1.1/"
   xmlns:cc="http://creativecommons.org/ns#"
   xmlns:rdf="http://www.w3.org/1999/02/22-rdf-syntax-ns#"
   xmlns:svg="http://www.w3.org/2000/svg"
   xmlns="http://www.w3.org/2000/svg"
   xmlns:sodipodi="http://sodipodi.sourceforge.net/DTD/sodipodi-0.dtd"
   xmlns:inkscape="http://www.inkscape.org/namespaces/inkscape"
   version="1.0"
   width="320"
   height="340"
   id="svg2"
   inkscape:version="0.47 r22583"
   sodipodi:docname="Lateral_Cone_Red_Green_Red.svg"
   style="display:inline">
  <metadata
     id="metadata2913">
    <rdf:RDF>
      <cc:Work
         rdf:about="">
        <dc:format>image/svg+xml</dc:format>
        <dc:type
           rdf:resource="http://purl.org/dc/dcmitype/StillImage" />
        <dc:title />
      </cc:Work>
    </rdf:RDF>
  </metadata>
  <sodipodi:namedview
     pagecolor="#ffffff"
     bordercolor="#666666"
     borderopacity="1"
     objecttolerance="10"
     gridtolerance="10"
     guidetolerance="10"
     inkscape:pageopacity="0"
     inkscape:pageshadow="2"
     inkscape:window-width="1920"
     inkscape:window-height="1088"
     id="namedview2911"
     showgrid="true"
     inkscape:zoom="4.0194601"
     inkscape:cx="119.57688"
     inkscape:cy="193.73713"
     inkscape:window-x="1440"
     inkscape:window-y="0"
     inkscape:window-maximized="0"
     inkscape:current-layer="g4863"
     inkscape:snap-grids="false">
    <inkscape:grid
       type="xygrid"
       id="grid2919"
       empspacing="5"
       visible="true"
       enabled="true"
       snapvisiblegridlinesonly="true" />
  </sodipodi:namedview>
  <defs
     id="defs4">
    <inkscape:perspective
       sodipodi:type="inkscape:persp3d"
       inkscape:vp_x="0 : 160 : 1"
       inkscape:vp_y="0 : 1000 : 0"
       inkscape:vp_z="320 : 160 : 1"
       inkscape:persp3d-origin="160 : 106.66667 : 1"
       id="perspective2915" />
    <inkscape:perspective
       id="perspective2862"
       inkscape:persp3d-origin="160 : 106.66667 : 1"
       inkscape:vp_z="320 : 160 : 1"
       inkscape:vp_y="0 : 1000 : 0"
       inkscape:vp_x="0 : 160 : 1"
       sodipodi:type="inkscape:persp3d" />
    <inkscape:perspective
       id="perspective2933"
       inkscape:persp3d-origin="160 : 106.66667 : 1"
       inkscape:vp_z="320 : 160 : 1"
       inkscape:vp_y="0 : 1000 : 0"
       inkscape:vp_x="0 : 160 : 1"
       sodipodi:type="inkscape:persp3d" />
    <inkscape:perspective
       id="perspective2989"
       inkscape:persp3d-origin="160 : 106.66667 : 1"
       inkscape:vp_z="320 : 160 : 1"
       inkscape:vp_y="0 : 1000 : 0"
       inkscape:vp_x="0 : 160 : 1"
       sodipodi:type="inkscape:persp3d" />
    <inkscape:perspective
       id="perspective3073"
       inkscape:persp3d-origin="160 : 106.66667 : 1"
       inkscape:vp_z="320 : 160 : 1"
       inkscape:vp_y="0 : 1000 : 0"
       inkscape:vp_x="0 : 160 : 1"
       sodipodi:type="inkscape:persp3d" />
    <inkscape:perspective
       id="perspective3123"
       inkscape:persp3d-origin="160 : 106.66667 : 1"
       inkscape:vp_z="320 : 160 : 1"
       inkscape:vp_y="0 : 1000 : 0"
       inkscape:vp_x="0 : 160 : 1"
       sodipodi:type="inkscape:persp3d" />
    <inkscape:perspective
       id="perspective3203"
       inkscape:persp3d-origin="160 : 106.66667 : 1"
       inkscape:vp_z="320 : 160 : 1"
       inkscape:vp_y="0 : 1000 : 0"
       inkscape:vp_x="0 : 160 : 1"
       sodipodi:type="inkscape:persp3d" />
    <inkscape:perspective
       id="perspective3274"
       inkscape:persp3d-origin="200 : 133.33333 : 1"
       inkscape:vp_z="400 : 200 : 1"
       inkscape:vp_y="0 : 1000 : 0"
       inkscape:vp_x="0 : 200 : 1"
       sodipodi:type="inkscape:persp3d" />
    <inkscape:perspective
       id="perspective3401"
       inkscape:persp3d-origin="200 : 133.33333 : 1"
       inkscape:vp_z="400 : 200 : 1"
       inkscape:vp_y="0 : 1000 : 0"
       inkscape:vp_x="0 : 200 : 1"
       sodipodi:type="inkscape:persp3d" />
    <inkscape:perspective
       id="perspective3639"
       inkscape:persp3d-origin="200 : 133.33333 : 1"
       inkscape:vp_z="400 : 200 : 1"
       inkscape:vp_y="0 : 1000 : 0"
       inkscape:vp_x="0 : 200 : 1"
       sodipodi:type="inkscape:persp3d" />
    <inkscape:perspective
       id="perspective3689"
       inkscape:persp3d-origin="200 : 133.33333 : 1"
       inkscape:vp_z="400 : 200 : 1"
       inkscape:vp_y="0 : 1000 : 0"
       inkscape:vp_x="0 : 200 : 1"
       sodipodi:type="inkscape:persp3d" />
    <inkscape:perspective
       id="perspective3739"
       inkscape:persp3d-origin="200 : 133.33333 : 1"
       inkscape:vp_z="400 : 200 : 1"
       inkscape:vp_y="0 : 1000 : 0"
       inkscape:vp_x="0 : 200 : 1"
       sodipodi:type="inkscape:persp3d" />
    <inkscape:perspective
       id="perspective3172"
       inkscape:persp3d-origin="160 : 106.66667 : 1"
       inkscape:vp_z="320 : 160 : 1"
       inkscape:vp_y="0 : 1000 : 0"
       inkscape:vp_x="0 : 160 : 1"
       sodipodi:type="inkscape:persp3d" />
    <inkscape:perspective
       id="perspective3440"
       inkscape:persp3d-origin="160 : 106.66667 : 1"
       inkscape:vp_z="320 : 160 : 1"
       inkscape:vp_y="0 : 1000 : 0"
       inkscape:vp_x="0 : 160 : 1"
       sodipodi:type="inkscape:persp3d" />
    <inkscape:perspective
       id="perspective3530"
       inkscape:persp3d-origin="160 : 106.66667 : 1"
       inkscape:vp_z="320 : 160 : 1"
       inkscape:vp_y="0 : 1000 : 0"
       inkscape:vp_x="0 : 160 : 1"
       sodipodi:type="inkscape:persp3d" />
    <inkscape:perspective
       id="perspective3736"
       inkscape:persp3d-origin="160 : 106.66667 : 1"
       inkscape:vp_z="320 : 160 : 1"
       inkscape:vp_y="0 : 1000 : 0"
       inkscape:vp_x="0 : 160 : 1"
       sodipodi:type="inkscape:persp3d" />
    <inkscape:perspective
       id="perspective3792"
       inkscape:persp3d-origin="160 : 106.66667 : 1"
       inkscape:vp_z="320 : 160 : 1"
       inkscape:vp_y="0 : 1000 : 0"
       inkscape:vp_x="0 : 160 : 1"
       sodipodi:type="inkscape:persp3d" />
    <inkscape:perspective
       id="perspective3882"
       inkscape:persp3d-origin="160 : 106.66667 : 1"
       inkscape:vp_z="320 : 160 : 1"
       inkscape:vp_y="0 : 1000 : 0"
       inkscape:vp_x="0 : 160 : 1"
       sodipodi:type="inkscape:persp3d" />
    <inkscape:perspective
       id="perspective3947"
       inkscape:persp3d-origin="160 : 106.66667 : 1"
       inkscape:vp_z="320 : 160 : 1"
       inkscape:vp_y="0 : 1000 : 0"
       inkscape:vp_x="0 : 160 : 1"
       sodipodi:type="inkscape:persp3d" />
  </defs>
  <g
     transform="translate(0,20)"
     style="display:inline"
     inkscape:label="Cone Buoy 3 Band"
     id="g4863"
     inkscape:groupmode="layer">
    <path
       sodipodi:nodetypes="cssccccscccccsscccssccsccssccsssc"
       d="m 176.36647,94.063721 c -3.94627,0.0654 -7.53201,2.22066 -11.28125,5.187497 -3.99919,3.164632 -8.22839,7.495372 -12.65625,12.593752 -8.77416,10.10285 -18.27948,23.16687 -27.15625,35.3125 l -7.15625,0 0,5.65625 29.6875,0 c 1.28732,5.53295 6.23327,9.65624 12.15625,9.65625 5.92495,0 10.87095,-4.12052 12.15625,-9.65625 l 29.84375,0 0,-0.0625 0,-5.59375 -7.71875,0 c -1.27604,-11.32703 -2.18516,-23.37284 -4,-33.09375 -0.95465,-5.1134 -2.12258,-9.57496 -4,-13.15625 -1.31784,-2.513849 -3.23573,-4.743909 -5.6875,-5.937499 l -4.1875,-0.90625 z m 0.375,6.968749 c 1.08458,0.0605 1.99502,0.67144 3.28125,3.125 1.28623,2.45356 2.45169,6.40931 3.34375,11.1875 1.65735,8.87736 2.55992,20.53184 3.8125,31.8125 l -15.0625,0 c -1.2853,-5.53573 -6.2313,-9.65625 -12.15625,-9.65625 -5.92298,1e-5 -10.86893,4.1233 -12.15625,9.65625 l -13.84375,0 c 7.97792,-10.90142 16.24031,-22.07186 23.75,-30.71875 4.26874,-4.91516 8.30177,-9.01484 11.71875,-11.71875 3.41698,-2.70391 6.21148,-3.74839 7.3125,-3.6875 z m -16.78125,41.4375 c 4.14,0 7.5,3.36 7.5,7.5 0,4.14 -3.36,7.5 -7.5,7.5 -4.14,0 -7.5,-3.36 -7.5,-7.5 0,-4.14 3.36,-7.5 7.5,-7.5 z"
       id="path4865"
       style="fill:#000407;fill-opacity:1;fill-rule:evenodd;stroke:none" />
    <rect
       style="fill:#000000;fill-opacity:1;stroke:none"
       id="rect4871"
       width="37.35358"
       height="0.87177831"
       x="182.58087"
       y="69.655167"
       transform="matrix(0.94832365,0.31730466,-0.31730466,0.94832365,0,0)" />
    <rect
       transform="matrix(0.94832365,0.31730466,-0.31730466,0.94832365,0,0)"
       y="59.994053"
       x="185.97256"
       height="0.72305131"
       width="29.761351"
       id="rect4873"
       style="fill:#000000;fill-opacity:1;stroke:none" />
    <path
       style="fill:#00d400;fill-opacity:1;stroke:none"
       d="m 168.71284,149.83441 c -9.40736,-3.15044 -17.12684,-5.74587 -17.15439,-5.76762 -0.0582,-0.0459 1.27701,-1.6992 3.83736,-4.75149 0.99578,-1.1871 1.87336,-2.23765 1.95018,-2.33454 0.11702,-0.1476 2.35813,0.56498 13.81942,4.39397 l 13.67976,4.57015 0.21115,1.80723 c 0.41421,3.54511 0.83568,7.61551 0.79855,7.71214 -0.0208,0.054 -7.73468,-2.4794 -17.14203,-5.62984 z"
       id="path4875"
       transform="translate(0,-20)" />
    <path
       style="fill:#d40000;fill-opacity:1;stroke:none"
       d="m 171.48062,140.57094 c -7.26932,-2.42977 -13.21695,-4.47219 -13.21695,-4.53871 0,-0.44704 7.36441,-7.98961 9.86916,-10.10791 4.37021,-3.69595 7.88456,-5.38862 9.48077,-4.56637 2.38387,1.22799 4.67437,7.51024 6.20031,17.00585 0.29289,1.82254 0.93984,6.57124 0.9004,6.60892 -0.009,0.009 -5.96437,-1.97201 -13.23369,-4.40178 z"
       id="path4879"
       transform="translate(0,-20)" />
    <path
       style="fill:#d40000;fill-opacity:1;stroke:none"
       d="m 137.09586,163.02508 c 4.49928,-6.10695 8.37771,-11.25504 11.19184,-14.85565 l 2.54465,-3.25584 17.49239,5.84925 c 9.62081,3.21709 17.54107,5.89524 17.60058,5.95144 0.0595,0.0562 0.32197,2.16386 0.58325,4.68368 0.26129,2.51982 0.50547,4.81983 0.54264,5.11114 l 0.0676,0.52965 -7.47593,-0.0321 -7.47592,-0.0321 -0.33914,-0.99516 c -0.69424,-2.03715 -1.55581,-3.38862 -3.17206,-4.97579 -2.53512,-2.4895 -5.6667,-3.67189 -9.27251,-3.50104 -2.26375,0.10727 -3.87229,0.5774 -5.76655,1.68541 -2.68112,1.56826 -4.67161,4.04746 -5.57751,6.94692 l -0.28177,0.90186 -6.80859,0 -6.80858,0 2.95564,-4.01173 0,0 z"
       id="path4881"
       transform="translate(0,-20)" />
  </g>
</svg>
