<?xml version="1.0" encoding="UTF-8" standalone="no"?>
<svg
   xmlns:dc="http://purl.org/dc/elements/1.1/"
   xmlns:cc="http://creativecommons.org/ns#"
   xmlns:rdf="http://www.w3.org/1999/02/22-rdf-syntax-ns#"
   xmlns:svg="http://www.w3.org/2000/svg"
   xmlns="http://www.w3.org/2000/svg"
   xmlns:sodipodi="http://sodipodi.sourceforge.net/DTD/sodipodi-0.dtd"
   xmlns:inkscape="http://www.inkscape.org/namespaces/inkscape"
   version="1.0"
   width="320"
   height="320"
   id="svg2"
   sodipodi:version="0.32"
   inkscape:version="0.46"
   sodipodi:docname="Lateral_Pillar_PreferredChannel_Starboard.svg"
   inkscape:output_extension="org.inkscape.output.svg.inkscape">
  <metadata
     id="metadata7">
    <rdf:RDF>
      <cc:Work
         rdf:about="">
        <dc:format>image/svg+xml</dc:format>
        <dc:type
           rdf:resource="http://purl.org/dc/dcmitype/StillImage" />
      </cc:Work>
    </rdf:RDF>
  </metadata>
  <sodipodi:namedview
     inkscape:window-height="843"
     inkscape:window-width="1440"
     inkscape:pageshadow="2"
     inkscape:pageopacity="0.0"
     guidetolerance="10.0"
     gridtolerance="10.0"
     objecttolerance="10.0"
     borderopacity="1.0"
     bordercolor="#666666"
     pagecolor="#ffffff"
     id="base"
     showgrid="false"
     inkscape:zoom="1.65625"
     inkscape:cx="160"
     inkscape:cy="160"
     inkscape:window-x="-5"
     inkscape:window-y="-3"
     inkscape:current-layer="svg2" />
  <defs
     id="defs4">
    <inkscape:perspective
       sodipodi:type="inkscape:persp3d"
       inkscape:vp_x="0 : 160 : 1"
       inkscape:vp_y="0 : 1000 : 0"
       inkscape:vp_z="320 : 160 : 1"
       inkscape:persp3d-origin="160 : 106.66667 : 1"
       id="perspective9" />
  </defs>
  <path
     d="M 237.075,81.89375 L 231.48125,98.6125 L 224.95,96.51875 L 194.48125,164.58125 L 164.7,197.175 L 156.91875,197.175 L 156.79375,202.83125 L 187.85625,202.83125 C 189.14357,208.3642 194.08952,212.48749 200.0125,212.4875 C 205.93745,212.4875 210.88345,208.36698 212.16875,202.83125 L 236.29375,202.83125 L 236.29375,197.175 L 228.5125,197.175 L 226.04375,174.83125 L 242.66875,102.20625 L 235.5125,99.925 L 241.10625,83.2375 L 237.075,81.89375 z M 229.2,105.01875 L 234.16875,106.8 L 218.95,174.83125 L 221.41875,197.175 L 212.16875,197.175 C 210.88624,191.63544 205.94017,187.4875 200.0125,187.4875 C 194.08674,187.4875 189.14072,191.63813 187.85625,197.175 L 174.2625,197.175 L 200.5125,168.8 L 229.2,105.01875 z M 207.5,200 C 207.5,204.14 204.14,207.5 200,207.5 C 195.86,207.5 192.5,204.14 192.5,200 C 192.5,195.86 195.86,192.5 200,192.5 C 204.14,192.5 207.5,195.86 207.5,200 z M 258.13125,85.068748 L 258.13125,85.068748 z M 251.93125,78.231248 L 251.93125,78.231248 z"
     id="path27763"
     style="fill: rgb(0, 4, 7); fill-opacity: 1; fill-rule: evenodd; stroke: none;"
     transform="translate(-40, -40)"
     sodipodi:nodetypes="ccccccccsccccccccccccccscccccsssccccc" />
  <path
     style="fill:none;fill-rule:evenodd;stroke:#000000;stroke-width:1px;stroke-linecap:butt;stroke-linejoin:miter;stroke-opacity:1"
     d="M 158.79245,126.79245 L 183.54717,135.84906"
     id="path2380" />
  <path
     style="fill:none;fill-rule:evenodd;stroke:#000000;stroke-width:1px;stroke-linecap:butt;stroke-linejoin:miter;stroke-opacity:1"
     d="M 173.88679,92.377358 L 190.79245,100.22642"
     id="path2382" />
  <path
     style="fill:#008000;fill-opacity:1;fill-rule:evenodd"
     d="M 136.96205,154.77736 C 137.97011,153.69811 143.83565,147.35583 149.99662,140.68341 L 161.19831,128.55172 L 169.66901,131.6268 C 174.32791,133.3181 178.26711,134.83774 178.42282,135.00377 C 178.5786,135.16981 179.15411,139.51698 179.70186,144.66415 C 180.2496,149.81132 180.82783,154.63396 180.98681,155.38113 C 181.26569,156.69197 181.12187,156.73956 176.887,156.73788 L 172.49811,156.73612 L 170.98868,153.88257 C 167.23375,146.78384 157.98877,145.12968 151.77854,150.44539 C 150.42457,151.60435 148.97606,153.49467 148.5597,154.6461 L 147.80263,156.73962 L 141.4659,156.73962 L 135.12918,156.73962 L 136.96205,154.77736 z"
     id="path2421" />
  <path
     style="fill:#008000;fill-opacity:1;fill-rule:evenodd"
     d="M 182.19816,95.424749 C 179.89549,94.294557 177.77105,93.289727 177.47725,93.191789 C 177.04248,93.046865 188.47934,66.594868 189.35565,65.718557 C 189.85678,65.217443 193.96118,67.038358 193.72975,67.659097 C 193.60103,68.004323 192.04595,74.875472 190.27405,82.928302 C 188.5021,90.981132 186.90222,97.549518 186.71867,97.524715 C 186.535,97.499906 184.50089,96.554922 182.19816,95.424743 L 182.19816,95.424749 z"
     id="path2423" />
  <path
     style="fill:#d40000;fill-opacity:1;fill-rule:evenodd"
     d="M 170.17075,130.16316 C 165.90201,128.54967 162.27381,127.09394 162.10808,126.92819 C 161.88051,126.70061 175.38337,95.759807 176.20329,94.630104 C 176.29223,94.507611 178.61947,95.445609 181.37491,96.71456 C 184.13048,97.983505 186.44365,99.048175 186.5155,99.080477 C 186.92866,99.266264 179.00703,132.82575 178.52112,132.94827 C 178.19713,133.02995 174.43949,131.77666 170.17075,130.16316 L 170.17075,130.16316 z"
     id="path2425" />
</svg>
