<?xml version="1.0" encoding="UTF-8" standalone="no"?>
<svg
   xmlns:dc="http://purl.org/dc/elements/1.1/"
   xmlns:cc="http://creativecommons.org/ns#"
   xmlns:rdf="http://www.w3.org/1999/02/22-rdf-syntax-ns#"
   xmlns:svg="http://www.w3.org/2000/svg"
   xmlns="http://www.w3.org/2000/svg"
   xmlns:sodipodi="http://sodipodi.sourceforge.net/DTD/sodipodi-0.dtd"
   xmlns:inkscape="http://www.inkscape.org/namespaces/inkscape"
   version="1.0"
   width="320"
   height="320"
   id="svg2"
   sodipodi:version="0.32"
   inkscape:version="0.46"
   sodipodi:docname="Lateral_Can_Red.svg"
   inkscape:output_extension="org.inkscape.output.svg.inkscape">
  <metadata
     id="metadata6">
    <rdf:RDF>
      <cc:Work
         rdf:about="">
        <dc:format>image/svg+xml</dc:format>
        <dc:type
           rdf:resource="http://purl.org/dc/dcmitype/StillImage" />
      </cc:Work>
    </rdf:RDF>
  </metadata>
  <sodipodi:namedview
     inkscape:window-height="776"
     inkscape:window-width="640"
     inkscape:pageshadow="2"
     inkscape:pageopacity="0.0"
     guidetolerance="10.0"
     gridtolerance="10.0"
     objecttolerance="10.0"
     borderopacity="1.0"
     bordercolor="#666666"
     pagecolor="#ffffff"
     id="base"
     showgrid="false"
     inkscape:zoom="1.690625"
     inkscape:cx="160"
     inkscape:cy="160"
     inkscape:window-x="695"
     inkscape:window-y="0"
     inkscape:current-layer="svg2" />
  <defs
     id="defs4">
    <inkscape:perspective
       sodipodi:type="inkscape:persp3d"
       inkscape:vp_x="0 : 160 : 1"
       inkscape:vp_y="0 : 1000 : 0"
       inkscape:vp_z="320 : 160 : 1"
       inkscape:persp3d-origin="160 : 106.66667 : 1"
       id="perspective8" />
  </defs>
  <path
     d="M 181.34375,151.4375 L 166.125,197.1875 L 158.15625,197.1875 L 158.15625,202.84375 L 187.84375,202.84375 C 189.13107,208.3767 194.07702,212.49999 200,212.5 C 205.92495,212.5 210.87095,208.37948 212.15625,202.84375 L 242,202.84375 L 242,202.78125 L 242,197.1875 L 234.3125,197.1875 L 243.3125,171 L 181.34375,151.4375 z M 186.375,160.0625 L 233.53125,176.03125 L 226.3125,197.1875 L 212.15625,197.1875 C 210.87095,191.65177 205.92495,187.53125 200,187.53125 C 194.07702,187.53126 189.13107,191.65455 187.84375,197.1875 L 174.125,197.1875 L 186.375,160.0625 z M 200,192.5 C 204.14,192.5 207.5,195.86 207.5,200 C 207.5,204.14 204.14,207.5 200,207.5 C 195.86,207.5 192.5,204.14 192.5,200 C 192.5,195.86 195.86,192.5 200,192.5 z"
     id="path90440"
     style="fill: rgb(0, 4, 7); fill-opacity: 1; fill-rule: evenodd; stroke: none;"
     transform="translate(-40, -40)" />
  <path
     style="opacity:1;fill:#d40000;fill-opacity:1;fill-rule:nonzero;stroke:#000000;stroke-width:0.59149724;stroke-opacity:1"
     d="M 134.85486,156.0306 C 135.0185,155.60419 137.60157,147.68552 140.59503,138.43356 C 143.58849,129.18161 146.26147,121.37541 146.53497,121.08646 C 146.81998,120.78535 156.8678,123.90194 170.07364,128.38759 L 193.11503,136.21409 L 189.72701,146.36213 L 186.33899,156.51017 L 179.21217,156.6757 L 172.08536,156.84122 L 171.7125,155.35568 C 171.50744,154.53862 170.48072,152.89185 169.43091,151.69618 C 163.55492,145.0038 153.01407,146.2292 148.84423,154.08943 L 147.40313,156.80591 L 140.98025,156.80591 C 135.92616,156.80591 134.62076,156.64069 134.85487,156.0306 L 134.85486,156.0306 z"
     id="path2381"
     inkscape:export-filename="/srv/www/htdocs/seamap/website/map/resources/lateral/Lateral_Red_Can.png"
     inkscape:export-xdpi="90"
     inkscape:export-ydpi="90" />
</svg>
