<?xml version="1.0" encoding="UTF-8" standalone="no"?>
<svg
   xmlns:dc="http://purl.org/dc/elements/1.1/"
   xmlns:cc="http://creativecommons.org/ns#"
   xmlns:rdf="http://www.w3.org/1999/02/22-rdf-syntax-ns#"
   xmlns:svg="http://www.w3.org/2000/svg"
   xmlns="http://www.w3.org/2000/svg"
   xmlns:sodipodi="http://sodipodi.sourceforge.net/DTD/sodipodi-0.dtd"
   xmlns:inkscape="http://www.inkscape.org/namespaces/inkscape"
   version="1.0"
   width="300"
   height="400"
   id="svg2"
   inkscape:version="0.47 r22583"
   sodipodi:docname="Lateral_Float_Red_Cone.svg"
   style="display:inline">
  <metadata
     id="metadata2913">
    <rdf:RDF>
      <cc:Work
         rdf:about="">
        <dc:format>image/svg+xml</dc:format>
        <dc:type
           rdf:resource="http://purl.org/dc/dcmitype/StillImage" />
        <dc:title />
      </cc:Work>
    </rdf:RDF>
  </metadata>
  <sodipodi:namedview
     pagecolor="#ffffff"
     bordercolor="#666666"
     borderopacity="1"
     objecttolerance="10"
     gridtolerance="10"
     guidetolerance="10"
     inkscape:pageopacity="0"
     inkscape:pageshadow="2"
     inkscape:window-width="1920"
     inkscape:window-height="1088"
     id="namedview2911"
     showgrid="true"
     inkscape:zoom="4.0194602"
     inkscape:cx="127.28772"
     inkscape:cy="203.98571"
     inkscape:window-x="1440"
     inkscape:window-y="0"
     inkscape:window-maximized="0"
     inkscape:current-layer="layer1"
     inkscape:snap-grids="false">
    <inkscape:grid
       type="xygrid"
       id="grid2919"
       empspacing="5"
       visible="true"
       enabled="true"
       snapvisiblegridlinesonly="true" />
  </sodipodi:namedview>
  <defs
     id="defs4">
    <inkscape:perspective
       sodipodi:type="inkscape:persp3d"
       inkscape:vp_x="0 : 160 : 1"
       inkscape:vp_y="0 : 1000 : 0"
       inkscape:vp_z="320 : 160 : 1"
       inkscape:persp3d-origin="160 : 106.66667 : 1"
       id="perspective2915" />
    <inkscape:perspective
       id="perspective2862"
       inkscape:persp3d-origin="160 : 106.66667 : 1"
       inkscape:vp_z="320 : 160 : 1"
       inkscape:vp_y="0 : 1000 : 0"
       inkscape:vp_x="0 : 160 : 1"
       sodipodi:type="inkscape:persp3d" />
    <inkscape:perspective
       id="perspective2933"
       inkscape:persp3d-origin="160 : 106.66667 : 1"
       inkscape:vp_z="320 : 160 : 1"
       inkscape:vp_y="0 : 1000 : 0"
       inkscape:vp_x="0 : 160 : 1"
       sodipodi:type="inkscape:persp3d" />
    <inkscape:perspective
       id="perspective2989"
       inkscape:persp3d-origin="160 : 106.66667 : 1"
       inkscape:vp_z="320 : 160 : 1"
       inkscape:vp_y="0 : 1000 : 0"
       inkscape:vp_x="0 : 160 : 1"
       sodipodi:type="inkscape:persp3d" />
    <inkscape:perspective
       id="perspective3073"
       inkscape:persp3d-origin="160 : 106.66667 : 1"
       inkscape:vp_z="320 : 160 : 1"
       inkscape:vp_y="0 : 1000 : 0"
       inkscape:vp_x="0 : 160 : 1"
       sodipodi:type="inkscape:persp3d" />
    <inkscape:perspective
       id="perspective3123"
       inkscape:persp3d-origin="160 : 106.66667 : 1"
       inkscape:vp_z="320 : 160 : 1"
       inkscape:vp_y="0 : 1000 : 0"
       inkscape:vp_x="0 : 160 : 1"
       sodipodi:type="inkscape:persp3d" />
    <inkscape:perspective
       id="perspective3203"
       inkscape:persp3d-origin="160 : 106.66667 : 1"
       inkscape:vp_z="320 : 160 : 1"
       inkscape:vp_y="0 : 1000 : 0"
       inkscape:vp_x="0 : 160 : 1"
       sodipodi:type="inkscape:persp3d" />
    <inkscape:perspective
       id="perspective3274"
       inkscape:persp3d-origin="200 : 133.33333 : 1"
       inkscape:vp_z="400 : 200 : 1"
       inkscape:vp_y="0 : 1000 : 0"
       inkscape:vp_x="0 : 200 : 1"
       sodipodi:type="inkscape:persp3d" />
    <inkscape:perspective
       id="perspective3401"
       inkscape:persp3d-origin="200 : 133.33333 : 1"
       inkscape:vp_z="400 : 200 : 1"
       inkscape:vp_y="0 : 1000 : 0"
       inkscape:vp_x="0 : 200 : 1"
       sodipodi:type="inkscape:persp3d" />
    <inkscape:perspective
       id="perspective3639"
       inkscape:persp3d-origin="200 : 133.33333 : 1"
       inkscape:vp_z="400 : 200 : 1"
       inkscape:vp_y="0 : 1000 : 0"
       inkscape:vp_x="0 : 200 : 1"
       sodipodi:type="inkscape:persp3d" />
    <inkscape:perspective
       id="perspective3689"
       inkscape:persp3d-origin="200 : 133.33333 : 1"
       inkscape:vp_z="400 : 200 : 1"
       inkscape:vp_y="0 : 1000 : 0"
       inkscape:vp_x="0 : 200 : 1"
       sodipodi:type="inkscape:persp3d" />
    <inkscape:perspective
       id="perspective3739"
       inkscape:persp3d-origin="200 : 133.33333 : 1"
       inkscape:vp_z="400 : 200 : 1"
       inkscape:vp_y="0 : 1000 : 0"
       inkscape:vp_x="0 : 200 : 1"
       sodipodi:type="inkscape:persp3d" />
  </defs>
  <g
     inkscape:groupmode="layer"
     id="layer1"
     inkscape:label="Minor Float"
     style="display:inline"
     transform="translate(0,80)">
    <path
       style="fill:#000407;fill-opacity:1;fill-rule:evenodd;stroke:none;display:inline"
       d="m 141.44682,111.02986 c -1.70454,1.6489 -2.9247,3.83867 -3.47801,6.22378 l -41.906442,-0.022 0.0289,5.63426 41.833532,0.044 c 1.28732,5.53295 6.25526,9.7442 12.17824,9.74421 5.92495,0 10.89294,-4.20848 12.17824,-9.74421 l 41.75945,-0.0312 -0.044,-5.63426 -41.73746,0.009 c -0.58668,-2.52896 -1.82216,-4.51083 -3.68811,-6.19717 l -1.52406,-1.27363 -1.8821,-1.21102 -2.30232,-0.71488 -2.90982,-0.29604 -2.86401,0.2853 -2.17355,0.6878 -1.91144,1.18458 -1.55709,1.31128 z m 8.65625,1.62424 c 4.14,0 7.5,3.36 7.5,7.5 0,4.14 -3.36,7.5 -7.5,7.5 -4.14,0 -7.5,-3.36 -7.5,-7.5 0,-4.14 3.36,-7.5 7.5,-7.5 z"
       id="path2520"
       sodipodi:nodetypes="cccccsccccccccccccccsssc" />
    <path
       style="fill:none;stroke:#000000;stroke-width:4.23707008;stroke-linecap:butt;stroke-linejoin:miter;stroke-miterlimit:4;stroke-opacity:1;stroke-dasharray:none"
       d="m 138.21212,77.320445 23.9441,0 5.82689,16.56338 -35.95865,0.0214 6.18766,-16.58476 0,-4e-5 z"
       id="path2864"
       sodipodi:nodetypes="cccccc" />
    <path
       style="fill:none;stroke:#000000;stroke-width:4;stroke-linecap:butt;stroke-linejoin:miter;stroke-miterlimit:4;stroke-opacity:1;stroke-dasharray:none"
       d="m 113.83007,120.03863 -11.78669,-35.008235 15.95726,8.99772 64.12315,0.0364 15.8844,-9.03417 -11.96262,35.008255"
       id="path3652"
       sodipodi:nodetypes="cccccc" />
    <path
       style="fill:#d40000;fill-opacity:1;stroke:none"
       d="m 135.65613,90.620825 c 0.20362,-0.51313 1.19952,-3.17207 2.21311,-5.90876 l 1.84289,-4.97579 10.43258,-0.0649 10.43258,-0.0649 2.03089,5.79603 c 1.11698,3.18782 2.03088,5.87595 2.03088,5.97362 0,0.0977 -6.60446,0.17759 -14.67657,0.17759 l -14.67657,0 0.37021,-0.93296 z"
       id="path3634" />
    <path
       style="fill:#d40000;fill-opacity:1;stroke:none"
       d="m 115.00063,116.86812 c -0.78697,-2.15289 -9.01018,-26.951965 -8.95569,-27.008055 0.0409,-0.0421 2.57759,1.35634 5.63705,3.10768 l 5.56265,3.18426 32.71583,0.0674 32.71584,0.0674 5.5945,-3.21979 c 3.07697,-1.77088 5.63512,-3.17916 5.68477,-3.12951 0.0673,0.0673 -6.28362,18.865135 -8.93044,26.433085 l -0.28279,0.80857 -11.17901,0 c -8.72978,0 -11.19854,-0.0681 -11.26817,-0.31099 -1.01156,-3.52804 -3.95807,-6.93914 -7.28899,-8.43828 -2.81854,-1.26853 -7.73709,-1.1622 -10.50393,0.22709 -2.15612,1.08263 -4.32905,3.27982 -5.44133,5.5021 -0.52381,1.04652 -1.01811,2.15416 -1.09846,2.46142 l -0.14609,0.55866 -11.35103,0 c -8.85434,0 -11.37603,-0.0684 -11.46471,-0.31099 z"
       id="path3636" />
    <path
       style="fill:#d40000;fill-opacity:1;stroke:none"
       d="m 147.39079,57.283105 c -4.6418,-0.0393 -8.13215,-0.16483 -8.08566,-0.29081 0.29441,-0.79792 10.54032,-20.421022 10.66253,-20.421022 0.0838,0 1.81228,3.218716 3.84111,7.152702 2.02883,3.933986 4.46573,8.63611 5.41533,10.44916 l 1.72656,3.29647 -2.69621,-0.0587 c -1.48291,-0.0323 -6.37156,-0.0898 -10.86366,-0.12782 z"
       id="path3680" />
    <g
       style="display:inline"
       id="g2936"
       transform="matrix(1,0,0,0.74930505,-10.036622,10.683418)">
      <path
         transform="translate(-40,-40)"
         style="fill:#000407;fill-opacity:1;fill-rule:evenodd;stroke:none"
         id="path2558-0"
         d="m 197.875,108.625 0,17.71875 4.25,0 0,-17.71875 -4.25,0 z"
         sodipodi:nodetypes="ccccc" />
    </g>
    <path
       style="fill:#000407;fill-opacity:1;fill-rule:evenodd;stroke:none;display:inline"
       id="path4179"
       d="m 149.99103,25.503508 -18.16912,36.963897 36.2188,-0.004 -18.0057,-36.960347 -0.044,4.5e-4 z m -0.0247,10.4431 11.11743,21.535037 -22.19017,-0.0688 11.07274,-21.46622 z"
       sodipodi:nodetypes="ccccccccc" />
  </g>
</svg>
