<?xml version="1.0" encoding="UTF-8" standalone="no"?>
<svg
   xmlns:dc="http://purl.org/dc/elements/1.1/"
   xmlns:cc="http://creativecommons.org/ns#"
   xmlns:rdf="http://www.w3.org/1999/02/22-rdf-syntax-ns#"
   xmlns:svg="http://www.w3.org/2000/svg"
   xmlns="http://www.w3.org/2000/svg"
   xmlns:sodipodi="http://sodipodi.sourceforge.net/DTD/sodipodi-0.dtd"
   xmlns:inkscape="http://www.inkscape.org/namespaces/inkscape"
   version="1.0"
   width="320"
   height="320"
   id="svg2"
   sodipodi:version="0.32"
   inkscape:version="0.46"
   sodipodi:docname="Lateral_Can_PreferredChannel_Port.svg"
   inkscape:output_extension="org.inkscape.output.svg.inkscape">
  <metadata
     id="metadata6">
    <rdf:RDF>
      <cc:Work
         rdf:about="">
        <dc:format>image/svg+xml</dc:format>
        <dc:type
           rdf:resource="http://purl.org/dc/dcmitype/StillImage" />
      </cc:Work>
    </rdf:RDF>
  </metadata>
  <sodipodi:namedview
     inkscape:window-height="850"
     inkscape:window-width="1440"
     inkscape:pageshadow="2"
     inkscape:pageopacity="0.0"
     guidetolerance="10.0"
     gridtolerance="10.0"
     objecttolerance="10.0"
     borderopacity="1.0"
     bordercolor="#666666"
     pagecolor="#ffffff"
     id="base"
     showgrid="false"
     inkscape:zoom="3.38125"
     inkscape:cx="87.689464"
     inkscape:cy="160"
     inkscape:window-x="-4"
     inkscape:window-y="-3"
     inkscape:current-layer="svg2" />
  <defs
     id="defs4">
    <inkscape:perspective
       sodipodi:type="inkscape:persp3d"
       inkscape:vp_x="0 : 160 : 1"
       inkscape:vp_y="0 : 1000 : 0"
       inkscape:vp_z="320 : 160 : 1"
       inkscape:persp3d-origin="160 : 106.66667 : 1"
       id="perspective8" />
  </defs>
  <path
     d="M 181.34375,151.4375 L 166.125,197.1875 L 158.15625,197.1875 L 158.15625,202.84375 L 187.84375,202.84375 C 189.13107,208.3767 194.07702,212.49999 200,212.5 C 205.92495,212.5 210.87095,208.37948 212.15625,202.84375 L 242,202.84375 L 242,202.78125 L 242,197.1875 L 234.3125,197.1875 L 243.3125,171 L 181.34375,151.4375 z M 186.375,160.0625 L 233.53125,176.03125 L 226.3125,197.1875 L 212.15625,197.1875 C 210.87095,191.65177 205.92495,187.53125 200,187.53125 C 194.07702,187.53126 189.13107,191.65455 187.84375,197.1875 L 174.125,197.1875 L 186.375,160.0625 z M 200,192.5 C 204.14,192.5 207.5,195.86 207.5,200 C 207.5,204.14 204.14,207.5 200,207.5 C 195.86,207.5 192.5,204.14 192.5,200 C 192.5,195.86 195.86,192.5 200,192.5 z"
     id="path90440"
     style="fill: rgb(0, 4, 7); fill-opacity: 1; fill-rule: evenodd; stroke: none;"
     transform="translate(-40, -40)" />
  <path
     style="fill:none;fill-rule:evenodd;stroke:#000000;stroke-width:1px;stroke-linecap:butt;stroke-linejoin:miter;stroke-opacity:1"
     d="M 142.84658,128.3549 L 193.41959,144.32532"
     id="path2380" />
  <path
     style="fill:#ff0000;fill-rule:evenodd;stroke:#000000;stroke-width:1px;stroke-linecap:butt;stroke-linejoin:miter;stroke-opacity:1"
     d="M 138.41035,141.07209 L 188.39187,155.26802"
     id="path2382" />
  <path
     style="fill:#ff0000;fill-opacity:0"
     d="M 167.2795,135.43219 C 154.64293,131.41947 144.23068,128.0631 144.14116,127.97358 C 144.01068,127.84308 146.21971,120.70248 146.49455,120.36635 C 146.56077,120.28536 193.08489,135.95704 193.29505,136.13113 C 193.55026,136.34256 191.02645,142.64609 190.6715,142.6838 C 190.44247,142.70813 179.91607,139.44491 167.2795,135.43219 L 167.2795,135.43219 z"
     id="path2384" />
  <path
     style="fill:#ff0000;fill-opacity:0"
     d="M 134.54257,156.4658 C 134.63314,156.18115 135.74007,152.80616 137.00242,148.96584 L 139.2976,141.98344 L 148.88663,144.70344 L 158.47566,147.42344 L 157.01971,147.78968 C 152.73099,148.86851 149.42652,152.01927 147.92031,156.4658 C 147.76026,156.93828 147.16278,156.98336 141.06144,156.98336 C 134.83058,156.98336 134.38904,156.94831 134.54256,156.4658 L 134.54257,156.4658 z"
     id="path3156" />
  <path
     style="fill:#ff0000;fill-opacity:1"
     d="M 134.54257,156.4658 C 134.63314,156.18115 135.74007,152.80616 137.00242,148.96584 L 139.2976,141.98344 L 148.88663,144.70344 L 158.47566,147.42344 L 157.01971,147.78968 C 152.73099,148.86851 149.42652,152.01927 147.92031,156.4658 C 147.76026,156.93828 147.16278,156.98336 141.06144,156.98336 C 134.83058,156.98336 134.38904,156.94831 134.54256,156.4658 L 134.54257,156.4658 z"
     id="path3158" />
  <path
     style="fill:#ff0000;fill-opacity:1"
     d="M 172.07968,156.4658 C 171.47313,154.67517 170.40925,152.79624 169.28353,151.52746 C 168.56945,150.72265 168.19025,150.14216 168.44084,150.23748 C 168.69144,150.33281 172.81713,151.50926 177.60905,152.85181 C 182.40098,154.19437 186.40754,155.37375 186.51253,155.47266 C 186.61755,155.57157 186.58857,155.95194 186.44812,156.31793 C 186.19336,156.98196 186.1781,156.98336 179.2239,156.98336 C 172.85081,156.98336 172.24001,156.93911 172.07969,156.4658 L 172.07968,156.4658 z"
     id="path3160" />
  <path
     style="fill:#ff0000;fill-opacity:1"
     d="M 167.24584,135.39932 C 154.47689,131.35181 144.04733,127.93135 144.06904,127.7983 C 144.11508,127.51607 146.34905,120.50861 146.44213,120.35445 C 146.50538,120.24971 193.03222,135.95057 193.23008,136.14342 C 193.44367,136.35164 191.04447,142.78385 190.75786,142.77134 C 190.59519,142.76424 180.01479,139.44683 167.24584,135.39932 z"
     id="path3162" />
  <path
     style="fill:#008000;fill-opacity:1"
     d="M 163.49868,147.54369 C 150.62073,143.87044 140.00916,140.78954 139.91742,140.69724 C 139.67577,140.45412 143.46457,129.32273 143.77169,129.37351 C 144.11917,129.43096 190.4407,144.02874 190.54155,144.11258 C 190.66212,144.2128 187.33131,153.85262 187.10787,154.05015 C 187.00078,154.14483 176.37664,151.21693 163.49868,147.54368 L 163.49868,147.54369 z"
     id="path3164" />
</svg>
