<?xml version="1.0" encoding="UTF-8" standalone="no"?>
<svg
   xmlns:dc="http://purl.org/dc/elements/1.1/"
   xmlns:cc="http://creativecommons.org/ns#"
   xmlns:rdf="http://www.w3.org/1999/02/22-rdf-syntax-ns#"
   xmlns:svg="http://www.w3.org/2000/svg"
   xmlns="http://www.w3.org/2000/svg"
   xmlns:sodipodi="http://sodipodi.sourceforge.net/DTD/sodipodi-0.dtd"
   xmlns:inkscape="http://www.inkscape.org/namespaces/inkscape"
   version="1.0"
   width="320"
   height="320"
   id="svg2"
   sodipodi:version="0.32"
   inkscape:version="0.46"
   sodipodi:docname="Lateral_Pillar_Red.svg"
   inkscape:output_extension="org.inkscape.output.svg.inkscape">
  <metadata
     id="metadata7">
    <rdf:RDF>
      <cc:Work
         rdf:about="">
        <dc:format>image/svg+xml</dc:format>
        <dc:type
           rdf:resource="http://purl.org/dc/dcmitype/StillImage" />
      </cc:Work>
    </rdf:RDF>
  </metadata>
  <sodipodi:namedview
     inkscape:window-height="843"
     inkscape:window-width="1440"
     inkscape:pageshadow="2"
     inkscape:pageopacity="0.0"
     guidetolerance="10.0"
     gridtolerance="10.0"
     objecttolerance="10.0"
     borderopacity="1.0"
     bordercolor="#666666"
     pagecolor="#ffffff"
     id="base"
     showgrid="false"
     inkscape:zoom="1.65625"
     inkscape:cx="160"
     inkscape:cy="160"
     inkscape:window-x="-5"
     inkscape:window-y="-3"
     inkscape:current-layer="svg2" />
  <defs
     id="defs4">
    <inkscape:perspective
       sodipodi:type="inkscape:persp3d"
       inkscape:vp_x="0 : 160 : 1"
       inkscape:vp_y="0 : 1000 : 0"
       inkscape:vp_z="320 : 160 : 1"
       inkscape:persp3d-origin="160 : 106.66667 : 1"
       id="perspective9" />
  </defs>
  <path
     d="M 237.075,81.89375 L 231.48125,98.6125 L 224.95,96.51875 L 194.48125,164.58125 L 164.7,197.175 L 156.91875,197.175 L 156.79375,202.83125 L 187.85625,202.83125 C 189.14357,208.3642 194.08952,212.48749 200.0125,212.4875 C 205.93745,212.4875 210.88345,208.36698 212.16875,202.83125 L 236.29375,202.83125 L 236.29375,197.175 L 228.5125,197.175 L 226.04375,174.83125 L 242.66875,102.20625 L 235.5125,99.925 L 241.10625,83.2375 L 237.075,81.89375 z M 229.2,105.01875 L 234.16875,106.8 L 218.95,174.83125 L 221.41875,197.175 L 212.16875,197.175 C 210.88624,191.63544 205.94017,187.4875 200.0125,187.4875 C 194.08674,187.4875 189.14072,191.63813 187.85625,197.175 L 174.2625,197.175 L 200.5125,168.8 L 229.2,105.01875 z M 207.5,200 C 207.5,204.14 204.14,207.5 200,207.5 C 195.86,207.5 192.5,204.14 192.5,200 C 192.5,195.86 195.86,192.5 200,192.5 C 204.14,192.5 207.5,195.86 207.5,200 z M 258.13125,85.068748 L 258.13125,85.068748 z M 251.93125,78.231248 L 251.93125,78.231248 z"
     id="path27763"
     style="fill: rgb(0, 4, 7); fill-opacity: 1; fill-rule: evenodd; stroke: none;"
     transform="translate(-40, -40)"
     sodipodi:nodetypes="ccccccccsccccccccccccccscccccsssccccc" />
  <path
     style="fill:#d40000;fill-opacity:0.74934129999999999"
     d="M 147.46759,143.36604 C 154.48435,135.81132 160.71378,128.67925 161.31079,127.51698 C 161.9078,126.35472 168.43272,111.95472 175.81078,95.516981 C 183.18877,79.079245 189.29171,65.558696 189.3728,65.471318 C 189.45389,65.383934 190.48574,65.715864 191.66581,66.20893 C 193.74986,67.079686 193.79677,67.170874 193.30155,69.386669 C 193.0211,70.641352 189.62258,85.796226 185.74925,103.06415 L 178.7069,134.46038 L 179.70234,144.12075 C 180.2499,149.43396 180.84432,154.5283 181.02334,155.44151 L 181.34877,157.10189 L 176.83798,157.10189 C 172.50216,157.10189 172.31209,157.04193 171.93932,155.55676 C 171.34315,153.18142 167.09494,148.95214 164.41763,148.06854 C 158.31583,146.05476 151.6026,148.69909 148.75146,154.23949 L 147.27843,157.10189 L 140.99411,157.10189 L 134.70986,157.10189 L 147.46759,143.36604 z"
     id="path2386" />
</svg>
