<?xml version="1.0" encoding="UTF-8" standalone="no"?>
<svg
   xmlns:dc="http://purl.org/dc/elements/1.1/"
   xmlns:cc="http://creativecommons.org/ns#"
   xmlns:rdf="http://www.w3.org/1999/02/22-rdf-syntax-ns#"
   xmlns:svg="http://www.w3.org/2000/svg"
   xmlns="http://www.w3.org/2000/svg"
   xmlns:sodipodi="http://sodipodi.sourceforge.net/DTD/sodipodi-0.dtd"
   xmlns:inkscape="http://www.inkscape.org/namespaces/inkscape"
   version="1.0"
   width="320"
   height="320"
   id="svg2"
   sodipodi:version="0.32"
   inkscape:version="0.46"
   sodipodi:docname="Lateral_Spar_Green.svg"
   inkscape:output_extension="org.inkscape.output.svg.inkscape">
  <metadata
     id="metadata7">
    <rdf:RDF>
      <cc:Work
         rdf:about="">
        <dc:format>image/svg+xml</dc:format>
        <dc:type
           rdf:resource="http://purl.org/dc/dcmitype/StillImage" />
      </cc:Work>
    </rdf:RDF>
  </metadata>
  <sodipodi:namedview
     inkscape:window-height="843"
     inkscape:window-width="1440"
     inkscape:pageshadow="2"
     inkscape:pageopacity="0.0"
     guidetolerance="10.0"
     gridtolerance="10.0"
     objecttolerance="10.0"
     borderopacity="1.0"
     bordercolor="#666666"
     pagecolor="#ffffff"
     id="base"
     showgrid="false"
     inkscape:zoom="4.4444494"
     inkscape:cx="177.93021"
     inkscape:cy="208.45504"
     inkscape:window-x="0"
     inkscape:window-y="0"
     inkscape:current-layer="svg2" />
  <defs
     id="defs4">
    <inkscape:perspective
       sodipodi:type="inkscape:persp3d"
       inkscape:vp_x="0 : 160 : 1"
       inkscape:vp_y="0 : 1000 : 0"
       inkscape:vp_z="320 : 160 : 1"
       inkscape:persp3d-origin="160 : 106.66667 : 1"
       id="perspective9" />
  </defs>
  <path
     d="M 231.46875,98.625 L 227.21875,97.21875 L 197.125,187.84375 C 192.53643,188.94207 188.91165,192.58419 187.84375,197.1875 L 179.40625,197.1875 L 179.28125,202.84375 L 187.84375,202.84375 C 189.13107,208.3767 194.07702,212.49999 200,212.5 C 205.92495,212.5 210.87095,208.37948 212.15625,202.84375 L 220.48125,202.8 L 220.48125,197.14375 L 212.15625,197.1875 C 211.66675,195.07319 210.65776,193.14936 209.25,191.59375 L 239.25,101.125 L 235.5,99.9375 L 231.46875,98.625 z M 200,192.5 C 204.14,192.5 207.5,195.86 207.5,200 C 207.5,204.14 204.14,207.5 200,207.5 C 195.86,207.5 192.5,204.14 192.5,200 C 192.5,195.86 195.86,192.5 200,192.5 z"
     id="path27763"
     style="fill: rgb(0, 4, 7); fill-opacity: 1; fill-rule: evenodd; stroke: none;"
     transform="translate(-40, -40)"
     sodipodi:nodetypes="cccccccscccccccccsssc" />
  <path
     style="fill:#008000;fill-opacity:1;fill-rule:evenodd;stroke:#000000;stroke-width:0.60377359;stroke-opacity:1"
     d="M 191.1875 59.65625 C 185.57719 60.040543 183.44482 67.896235 172.40625 102.75 L 157.40625 147.8125 L 155.0625 149 C 152.20991 150.46287 149.98679 152.75819 148.875 155.375 C 148.04777 157.32205 147.9981 157.34375 143.8125 157.34375 L 139.59375 157.34375 L 139.59375 160.0625 L 139.59375 162.78125 L 143.75 162.78125 L 147.9375 162.78125 L 149.28125 165.53125 C 150.7198 168.50281 153.94904 171.06345 157.25 171.84375 C 159.63665 172.40793 162.76613 171.99589 165.40625 170.78125 C 167.76447 169.69629 170.82523 166.34707 171.34375 164.28125 C 171.69859 162.86728 171.94836 162.78125 175.875 162.78125 L 180.03125 162.78125 L 180.03125 160.0625 L 180.03125 157.34375 L 175.96875 157.3125 L 171.90625 157.28125 L 170.5 154.3125 L 169.09375 151.34375 L 183.65625 107.1875 C 191.66772 82.906262 198.38088 62.660774 198.5625 62.1875 C 198.7813 61.617236 198.23849 61.098882 196.96875 60.65625 C 194.57905 60.023812 192.75839 59.548648 191.1875 59.65625 z M 160.09375 152.5 C 162.70658 152.5 163.38055 152.78674 165.15625 154.5625 C 169.04642 158.45266 168.33196 164.31701 163.6875 166.71875 C 155.78224 170.80671 148.39368 160.46571 154.9375 154.46875 C 156.75438 152.80372 157.54215 152.5 160.09375 152.5 z "
     id="path2382" />
  <path
     style="fill:#008000"
     d="M 153.79496,169.63986 C 152.07517,168.54923 150.55481,166.90717 149.60223,165.11155 L 148.10771,162.29434 L 144.03122,162.29434 L 139.95472,162.29434 L 139.95472,160.18113 L 139.95472,158.06792 L 142.82264,158.05967 C 147.17887,158.04715 148.35067,157.52757 149.61594,155.04745 C 150.82005,152.68728 153.031,150.60317 156.10246,148.93325 C 157.82611,147.99608 158.56151,146.00027 171.63411,106.77681 C 184.06177,77.605647 185.36369,58.521938 188.28195,58.759298 C 202.10036,59.883234 187.21464,74.56589 183.54017,106.25475 C 175.49808,130.60106 168.9222,150.82584 168.92703,151.19872 C 168.93186,151.5716 169.4778,153.10179 170.14014,154.59914 C 171.46252,157.58869 172.36166,158.04653 176.93585,158.05968 C 179.80214,158.06793 179.80377,158.06911 179.80377,160.15355 L 179.80377,162.23917 L 175.79134,162.41768 C 172.51345,162.56354 171.65712,162.8173 171.1136,163.80377 C 168.16978,169.14706 164.84257,171.35094 159.71961,171.35094 C 157.21371,171.35094 155.89035,170.96875 153.7949,169.63985 L 153.79496,169.63986 z M 164.40755,166.59155 C 165.40377,166.03601 166.72942,164.54364 167.35336,163.27516 C 168.32127,161.30756 168.38539,160.62679 167.79013,158.63993 C 166.85283,155.51147 164.47879,152.81187 162.23082,152.31812 C 156.36033,151.02874 150.86678,156.36914 152.27828,161.99314 C 152.86497,164.33061 155.74152,167.16536 158.07662,167.70712 C 160.47831,168.26436 161.83716,168.0249 164.40755,166.59155 z"
     id="path2380"
     sodipodi:nodetypes="ccccccccsscscssscccsscccsssssc" />
</svg>
