<?xml version="1.0" encoding="UTF-8" standalone="no"?>
<svg
   xmlns:dc="http://purl.org/dc/elements/1.1/"
   xmlns:cc="http://creativecommons.org/ns#"
   xmlns:rdf="http://www.w3.org/1999/02/22-rdf-syntax-ns#"
   xmlns:svg="http://www.w3.org/2000/svg"
   xmlns="http://www.w3.org/2000/svg"
   xmlns:sodipodi="http://sodipodi.sourceforge.net/DTD/sodipodi-0.dtd"
   xmlns:inkscape="http://www.inkscape.org/namespaces/inkscape"
   version="1.0"
   width="72.3125"
   height="86.1875"
   id="svg2"
   sodipodi:version="0.32"
   inkscape:version="0.46"
   sodipodi:docname="Light_Tower_Beacon_Red.svg"
   inkscape:output_extension="org.inkscape.output.svg.inkscape">
  <metadata
     id="metadata7">
    <rdf:RDF>
      <cc:Work
         rdf:about="">
        <dc:format>image/svg+xml</dc:format>
        <dc:type
           rdf:resource="http://purl.org/dc/dcmitype/StillImage" />
      </cc:Work>
    </rdf:RDF>
  </metadata>
  <sodipodi:namedview
     inkscape:window-height="843"
     inkscape:window-width="1440"
     inkscape:pageshadow="2"
     inkscape:pageopacity="0.0"
     guidetolerance="10.0"
     gridtolerance="10.0"
     objecttolerance="10.0"
     borderopacity="1.0"
     bordercolor="#666666"
     pagecolor="#ffffff"
     id="base"
     showgrid="false"
     inkscape:zoom="1.65625"
     inkscape:cx="132.9979"
     inkscape:cy="160"
     inkscape:window-x="-5"
     inkscape:window-y="-3"
     inkscape:current-layer="svg2" />
  <defs
     id="defs4">
    <inkscape:perspective
       sodipodi:type="inkscape:persp3d"
       inkscape:vp_x="0 : 160 : 1"
       inkscape:vp_y="0 : 1000 : 0"
       inkscape:vp_z="320 : 160 : 1"
       inkscape:persp3d-origin="160 : 106.66667 : 1"
       id="perspective9" />
  </defs>
  <path
     d="M 12.78125,1.4210855e-14 L 8.15625,70.875 L 0,70.875 L 0,76.53125 L 24,76.53125 C 25.28732,82.064202 30.23327,86.187492 36.15625,86.187502 C 42.0812,86.187502 47.027198,82.066982 48.312498,76.53125 L 72.312498,76.53125 L 72.312498,70.875 L 64.156248,70.875 L 59.187498,1.4210855e-14 L 12.78125,1.4210855e-14 z M 19.5,7.09375 L 52.812498,7.09375 L 57.406248,70.875 L 48.312498,70.875 C 47.027198,65.33927 42.0812,61.21875 36.15625,61.21875 C 30.23327,61.21876 25.28732,65.34205 24,70.875 L 14.90625,70.875 L 19.5,7.09375 z M 36.15625,66.1875 C 40.29625,66.1875 43.65625,69.5475 43.65625,73.6875 C 43.65625,77.827502 40.29625,81.187502 36.15625,81.187502 C 32.01625,81.187502 28.65625,77.827502 28.65625,73.6875 C 28.65625,69.5475 32.01625,66.1875 36.15625,66.1875 z"
     id="path2558"
     style="fill:#000407;fill-opacity:1;fill-rule:evenodd;stroke:none" />
  <path
     style="fill:#d40000;fill-opacity:0.7493413"
     d="M 15.3649,67.46757 C 15.56241,65.72417 16.56242,52.07134 17.58714,37.12795 C 18.61185,22.18455 19.57353,9.346816 19.7242,8.599646 L 19.99812,7.241156 L 36.2885,7.241156 C 45.24822,7.241156 52.578888,7.464002 52.578888,7.736371 C 52.578888,8.008739 53.529828,21.21562 54.692098,37.085 C 55.854358,52.95438 56.805308,66.99569 56.805308,68.2879 L 56.805308,70.63738 L 52.700188,70.63738 L 48.595068,70.63738 L 47.838028,68.54387 C 46.908668,65.97376 42.83996,62.38759 39.9391,61.58174 C 33.62597,59.82798 27.31639,62.68155 24.53166,68.54994 L 23.5411,70.63738 L 19.27345,70.63738 L 15.0058,70.63738 L 15.3649,67.46757 z"
     id="path2382" />
</svg>
