<?xml version="1.0" encoding="UTF-8" standalone="no"?>
<svg
   xmlns:dc="http://purl.org/dc/elements/1.1/"
   xmlns:cc="http://creativecommons.org/ns#"
   xmlns:rdf="http://www.w3.org/1999/02/22-rdf-syntax-ns#"
   xmlns:svg="http://www.w3.org/2000/svg"
   xmlns="http://www.w3.org/2000/svg"
   xmlns:sodipodi="http://sodipodi.sourceforge.net/DTD/sodipodi-0.dtd"
   xmlns:inkscape="http://www.inkscape.org/namespaces/inkscape"
   version="1.0"
   width="300"
   height="400"
   id="svg2"
   inkscape:version="0.47 r22583"
   sodipodi:docname="Safe_Water_Spar.svg"
   inkscape:label="Pillar"
   style="display:inline">
  <metadata
     id="metadata2822">
    <rdf:RDF>
      <cc:Work
         rdf:about="">
        <dc:format>image/svg+xml</dc:format>
        <dc:type
           rdf:resource="http://purl.org/dc/dcmitype/StillImage" />
        <dc:title />
      </cc:Work>
    </rdf:RDF>
  </metadata>
  <sodipodi:namedview
     pagecolor="#000000"
     bordercolor="#666666"
     borderopacity="1"
     objecttolerance="10"
     gridtolerance="10"
     guidetolerance="10"
     inkscape:pageopacity="0"
     inkscape:pageshadow="2"
     inkscape:window-width="1920"
     inkscape:window-height="1088"
     id="namedview2820"
     showgrid="true"
     inkscape:zoom="3.7123106"
     inkscape:cx="148.77618"
     inkscape:cy="201.03642"
     inkscape:window-x="1440"
     inkscape:window-y="0"
     inkscape:window-maximized="0"
     inkscape:current-layer="g3821"
     inkscape:snap-grids="false">
    <inkscape:grid
       type="xygrid"
       id="grid3180"
       empspacing="5"
       visible="true"
       enabled="true"
       snapvisiblegridlinesonly="true" />
  </sodipodi:namedview>
  <defs
     id="defs4">
    <inkscape:perspective
       sodipodi:type="inkscape:persp3d"
       inkscape:vp_x="0 : 160 : 1"
       inkscape:vp_y="0 : 1000 : 0"
       inkscape:vp_z="320 : 160 : 1"
       inkscape:persp3d-origin="160 : 106.66667 : 1"
       id="perspective2824" />
    <inkscape:perspective
       id="perspective2867"
       inkscape:persp3d-origin="160 : 106.66667 : 1"
       inkscape:vp_z="320 : 160 : 1"
       inkscape:vp_y="0 : 1000 : 0"
       inkscape:vp_x="0 : 160 : 1"
       sodipodi:type="inkscape:persp3d" />
    <inkscape:perspective
       id="perspective2913"
       inkscape:persp3d-origin="160 : 106.66667 : 1"
       inkscape:vp_z="320 : 160 : 1"
       inkscape:vp_y="0 : 1000 : 0"
       inkscape:vp_x="0 : 160 : 1"
       sodipodi:type="inkscape:persp3d" />
    <inkscape:perspective
       id="perspective2969"
       inkscape:persp3d-origin="160 : 106.66667 : 1"
       inkscape:vp_z="320 : 160 : 1"
       inkscape:vp_y="0 : 1000 : 0"
       inkscape:vp_x="0 : 160 : 1"
       sodipodi:type="inkscape:persp3d" />
    <inkscape:perspective
       id="perspective3016"
       inkscape:persp3d-origin="160 : 106.66667 : 1"
       inkscape:vp_z="320 : 160 : 1"
       inkscape:vp_y="0 : 1000 : 0"
       inkscape:vp_x="0 : 160 : 1"
       sodipodi:type="inkscape:persp3d" />
    <inkscape:perspective
       id="perspective3091"
       inkscape:persp3d-origin="160 : 106.66667 : 1"
       inkscape:vp_z="320 : 160 : 1"
       inkscape:vp_y="0 : 1000 : 0"
       inkscape:vp_x="0 : 160 : 1"
       sodipodi:type="inkscape:persp3d" />
    <inkscape:perspective
       id="perspective3135"
       inkscape:persp3d-origin="200 : 133.33333 : 1"
       inkscape:vp_z="400 : 200 : 1"
       inkscape:vp_y="0 : 1000 : 0"
       inkscape:vp_x="0 : 200 : 1"
       sodipodi:type="inkscape:persp3d" />
    <inkscape:perspective
       id="perspective3176"
       inkscape:persp3d-origin="200 : 133.33333 : 1"
       inkscape:vp_z="400 : 200 : 1"
       inkscape:vp_y="0 : 1000 : 0"
       inkscape:vp_x="0 : 200 : 1"
       sodipodi:type="inkscape:persp3d" />
    <inkscape:perspective
       id="perspective2952"
       inkscape:persp3d-origin="160 : 106.66667 : 1"
       inkscape:vp_z="320 : 160 : 1"
       inkscape:vp_y="0 : 1000 : 0"
       inkscape:vp_x="0 : 160 : 1"
       sodipodi:type="inkscape:persp3d" />
    <inkscape:perspective
       id="perspective2994"
       inkscape:persp3d-origin="200 : 133.33333 : 1"
       inkscape:vp_z="400 : 200 : 1"
       inkscape:vp_y="0 : 1000 : 0"
       inkscape:vp_x="0 : 200 : 1"
       sodipodi:type="inkscape:persp3d" />
    <inkscape:perspective
       id="perspective3035"
       inkscape:persp3d-origin="200 : 133.33333 : 1"
       inkscape:vp_z="400 : 200 : 1"
       inkscape:vp_y="0 : 1000 : 0"
       inkscape:vp_x="0 : 200 : 1"
       sodipodi:type="inkscape:persp3d" />
    <inkscape:perspective
       id="perspective3086"
       inkscape:persp3d-origin="200 : 133.33333 : 1"
       inkscape:vp_z="400 : 200 : 1"
       inkscape:vp_y="0 : 1000 : 0"
       inkscape:vp_x="0 : 200 : 1"
       sodipodi:type="inkscape:persp3d" />
    <inkscape:perspective
       id="perspective3143"
       inkscape:persp3d-origin="200 : 133.33333 : 1"
       inkscape:vp_z="400 : 200 : 1"
       inkscape:vp_y="0 : 1000 : 0"
       inkscape:vp_x="0 : 200 : 1"
       sodipodi:type="inkscape:persp3d" />
    <inkscape:perspective
       id="perspective3188"
       inkscape:persp3d-origin="200 : 133.33333 : 1"
       inkscape:vp_z="400 : 200 : 1"
       inkscape:vp_y="0 : 1000 : 0"
       inkscape:vp_x="0 : 200 : 1"
       sodipodi:type="inkscape:persp3d" />
    <inkscape:perspective
       sodipodi:type="inkscape:persp3d"
       inkscape:vp_x="0 : 160 : 1"
       inkscape:vp_y="0 : 1000 : 0"
       inkscape:vp_z="320 : 160 : 1"
       inkscape:persp3d-origin="160 : 106.66667 : 1"
       id="perspective2824-9" />
    <inkscape:perspective
       id="perspective2867-3"
       inkscape:persp3d-origin="160 : 106.66667 : 1"
       inkscape:vp_z="320 : 160 : 1"
       inkscape:vp_y="0 : 1000 : 0"
       inkscape:vp_x="0 : 160 : 1"
       sodipodi:type="inkscape:persp3d" />
    <inkscape:perspective
       id="perspective2913-8"
       inkscape:persp3d-origin="160 : 106.66667 : 1"
       inkscape:vp_z="320 : 160 : 1"
       inkscape:vp_y="0 : 1000 : 0"
       inkscape:vp_x="0 : 160 : 1"
       sodipodi:type="inkscape:persp3d" />
    <inkscape:perspective
       id="perspective2969-4"
       inkscape:persp3d-origin="160 : 106.66667 : 1"
       inkscape:vp_z="320 : 160 : 1"
       inkscape:vp_y="0 : 1000 : 0"
       inkscape:vp_x="0 : 160 : 1"
       sodipodi:type="inkscape:persp3d" />
    <inkscape:perspective
       id="perspective3016-2"
       inkscape:persp3d-origin="160 : 106.66667 : 1"
       inkscape:vp_z="320 : 160 : 1"
       inkscape:vp_y="0 : 1000 : 0"
       inkscape:vp_x="0 : 160 : 1"
       sodipodi:type="inkscape:persp3d" />
    <inkscape:perspective
       id="perspective3091-0"
       inkscape:persp3d-origin="160 : 106.66667 : 1"
       inkscape:vp_z="320 : 160 : 1"
       inkscape:vp_y="0 : 1000 : 0"
       inkscape:vp_x="0 : 160 : 1"
       sodipodi:type="inkscape:persp3d" />
    <inkscape:perspective
       id="perspective3135-8"
       inkscape:persp3d-origin="200 : 133.33333 : 1"
       inkscape:vp_z="400 : 200 : 1"
       inkscape:vp_y="0 : 1000 : 0"
       inkscape:vp_x="0 : 200 : 1"
       sodipodi:type="inkscape:persp3d" />
    <inkscape:perspective
       id="perspective3176-3"
       inkscape:persp3d-origin="200 : 133.33333 : 1"
       inkscape:vp_z="400 : 200 : 1"
       inkscape:vp_y="0 : 1000 : 0"
       inkscape:vp_x="0 : 200 : 1"
       sodipodi:type="inkscape:persp3d" />
    <inkscape:perspective
       id="perspective2979"
       inkscape:persp3d-origin="200 : 133.33333 : 1"
       inkscape:vp_z="400 : 200 : 1"
       inkscape:vp_y="0 : 1000 : 0"
       inkscape:vp_x="0 : 200 : 1"
       sodipodi:type="inkscape:persp3d" />
  </defs>
  <g
     style="display:inline"
     inkscape:label="Spar 2 Stripe"
     id="g3821"
     inkscape:groupmode="layer"
     transform="translate(0,20)">
    <g
       transform="translate(-9.9730854,-9.9793846)"
       id="g3823">
      <g
         id="g3825"
         inkscape:label="Spar"
         style="display:inline"
         transform="translate(0,-20)">
        <path
           sodipodi:nodetypes="cccccsccccccccccsssc"
           style="fill:#000000;fill-opacity:1;fill-rule:evenodd;stroke:none"
           d="m 157.11957,197.81917 c -4.58857,1.09832 -8.21335,4.74044 -9.28125,9.34375 l -8.4375,0 -0.125,5.65625 8.5625,0 c 1.28732,5.53295 6.23327,9.65624 12.15625,9.65625 5.92495,0 10.87095,-4.12052 12.15625,-9.65625 l 8.3125,-0.0312 0,-5.65625 -8.3125,0.0312 c -0.4895,-2.11431 -1.49849,-4.03814 -2.90625,-5.59375 l -12.125,-3.75 z m 9.4375,-1.0625 -4.375,-1.4375 4.375,1.4375 z m -6.5625,5.71875 c 4.14,0 7.5,3.36 7.5,7.5 0,4.14 -3.36,7.5 -7.5,7.5 -4.14,0 -7.5,-3.36 -7.5,-7.5 0,-4.14 3.36,-7.5 7.5,-7.5 z"
           id="path3827" />
      </g>
      <g
         id="g3829"
         inkscape:label="Light"
         transform="translate(0,20)"
         style="display:none">
        <g
           style="display:inline"
           id="g3831"
           transform="translate(-0.03261583,-10.012291)">
          <g
             transform="translate(0,40)"
             style="display:inline"
             inkscape:label="Pillar"
             id="g3833" />
          <g
             transform="translate(0,40)"
             style="display:none"
             inkscape:label="Top Support"
             id="g3835">
            <g
               transform="translate(0.05305884,-19.897533)"
               id="g3837">
              <path
                 sodipodi:nodetypes="ccccccccc"
                 d="m 237.075,81.89375 -5.59375,16.71875 4.03125,1.3125 5.59375,-16.6875 -4.03125,-1.34375 z m -14.48135,-8.400002 0,0 z m 9.1251,-2.4875 0,0 z"
                 id="path3839"
                 style="fill:#000407;fill-opacity:1;fill-rule:evenodd;stroke:none"
                 transform="translate(-40,-40)" />
            </g>
          </g>
          <g
             transform="translate(0,40)"
             style="display:none"
             inkscape:label="Top Cone"
             id="g3841">
            <g
               transform="translate(-1.12511,-16.485601)"
               id="g3843">
              <path
                 sodipodi:nodetypes="cccccccc"
                 d="m 258.13125,85.068748 -6.2,-40.575 -29.3376,29 35.5376,11.575 z m -6.2,-6.8375 -20.2125,-7.225 16.65,-16.75 3.5625,23.975 z"
                 id="path3845"
                 style="fill:#000407;fill-opacity:1;fill-rule:evenodd;stroke:none"
                 transform="translate(-40,-40)" />
            </g>
          </g>
          <g
             transform="translate(0,40)"
             style="display:none"
             inkscape:label="Top Can"
             id="g3847">
            <g
               transform="translate(-1.0006298,-16.738683)"
               id="g3849">
              <path
                 sodipodi:nodetypes="cccccccccccccc"
                 d="m 194.48125,164.58125 0,0 z m 6.03125,4.21875 0,0 z m 63.775,-118.887458 -26.425,-8.7875 -11.575,33.78746 26.425,8.6375 11.575,-33.63746 z m -6.0625,3.61246 -8.0125,23.975 -17.0875,-6.2 8.0125,-23.97496 17.0875,6.19996 z"
                 id="path3851"
                 style="fill:#000407;fill-opacity:1;fill-rule:evenodd;stroke:none"
                 transform="translate(-40,-40)" />
            </g>
          </g>
          <g
             transform="translate(0,40)"
             style="display:inline"
             inkscape:label="Light"
             id="g3853">
            <g
               transform="translate(0.01692762,-20.00346)"
               id="g3855">
              <path
                 d="m 131.60087,181.31159 -61.62788,76.30842 -4.53011,5.57826 -5.557433,4.22374 -6.899414,2.10924 -7.322226,-0.10972 -6.812191,-2.29629 -5.747427,-4.33733 -4.201328,-6.0873 -2.224898,-7.05116 0.15697,-6.9752 2.73284,-6.08953 4.594775,-5.30836 5.593528,-4.86801 1.174178,-0.94649 90.670616,-44.15027 z m 28.00125,-25.26051 c 2.19706,-0.21962 4.15842,1.38525 4.37805,3.58229 0.21962,2.19706 -1.38525,4.15842 -3.58229,4.37805 -2.19706,0.21962 -4.15842,-1.38525 -4.37805,-3.58229 -0.21962,-2.19706 1.38525,-4.15842 3.58229,-4.37805 z"
                 id="path3857"
                 style="fill:#a30075;fill-opacity:1;fill-rule:evenodd;stroke:none" />
            </g>
          </g>
          <g
             transform="translate(0,40)"
             style="display:none"
             inkscape:label="Top Sphere"
             id="g3859">
            <g
               transform="translate(-1.2726137,-15.886288)"
               id="g3861">
              <path
                 sodipodi:nodetypes="csssccsssc"
                 d="m 206,5.6875 c -9.35666,0 -17,7.643343 -17,17 0,9.356657 7.64334,17 17,17 9.35666,0 17,-7.643343 17,-17 0,-9.356657 -7.64334,-16.9999999 -17,-17 z m 0,5 c 6.65134,0 12,5.348657 12,12 0,6.651343 -5.34866,12 -12,12 -6.65134,0 -12,-5.348657 -12,-12 0,-6.651343 5.34866,-12 12,-12 z"
                 id="path3863"
                 style="fill:#000407;fill-opacity:1;fill-rule:evenodd;stroke:none" />
            </g>
          </g>
          <g
             transform="translate(0,40)"
             style="display:none"
             inkscape:label="Top 2 Spheres"
             id="g3865">
            <path
               sodipodi:nodetypes="csssc"
               d="m 217.83948,9.1611226 c 0,8.0040004 -6.496,14.5000004 -14.5,14.5000004 -8.004,0 -14.5,-6.496 -14.5,-14.5000004 0,-8.004 6.496,-14.5000005 14.5,-14.5000005 8.004,0 14.5,6.4960005 14.5,14.5000005 z"
               id="path3867"
               style="fill:#000407;fill-opacity:1;fill-rule:evenodd;stroke:none" />
            <path
               sodipodi:nodetypes="csssc"
               d="m 227.31627,-17.93622 c 0,8.0040011 -6.496,14.5000011 -14.5,14.5000011 -8.004,0 -14.5,-6.496 -14.5,-14.5000011 0,-8.003999 6.496,-14.499999 14.5,-14.499999 8.004,0 14.5,6.496 14.5,14.499999 z"
               id="path3869"
               style="fill:#000407;fill-opacity:1;fill-rule:evenodd;stroke:none" />
          </g>
          <g
             transform="translate(0,40)"
             id="g3871"
             inkscape:label="Pillar 2 Stripe"
             style="display:none">
            <path
               d="m 191.53964,38.593837 -6.53125,-2.09375 -30.46875,68.062503 -29.78125,32.59375 -7.78125,0 -0.125,5.65625 31.0625,0 c 1.28732,5.53295 6.23327,9.65624 12.15625,9.65625 5.92495,0 10.87095,-4.12052 12.15625,-9.65625 l 24.125,0 0,-5.65625 -7.78125,0 -2.46875,-22.34375 16.625,-72.625003 -7.15625,-2.28125 -4.03125,-1.3125 z m -2.28125,6.40625 4.96875,1.78125 -15.21875,68.031253 2.46875,22.34375 -9.25,0 c -1.28251,-5.53956 -6.22858,-9.6875 -12.15625,-9.6875 -5.92576,0 -10.87178,4.15063 -12.15625,9.6875 l -13.59375,0 26.25,-28.375 28.6875,-63.781253 z m -21.7,94.981253 c 0,4.14 -3.36,7.5 -7.5,7.5 -4.14,0 -7.5,-3.36 -7.5,-7.5 0,-4.14 3.36,-7.5 7.5,-7.5 4.14,0 7.5,3.36 7.5,7.5 z"
               id="path3873"
               style="fill:#000407;fill-opacity:1;fill-rule:evenodd;stroke:none;display:inline"
               sodipodi:nodetypes="cccccccscccccccccccccscccccsssc" />
            <path
               sodipodi:nodetypes="ccccc"
               id="path3875"
               d="m 191.65723,45.835182 -27.91272,82.169788 0.60559,0.25569 27.76009,-82.265296 -0.45296,-0.160182 z"
               style="fill:#000204;fill-opacity:1;stroke:none" />
          </g>
          <g
             transform="translate(0,40)"
             id="g3877"
             inkscape:label="Pillar 3 Band"
             style="display:none">
            <path
               d="m 191.53964,38.593837 -6.53125,-2.09375 -30.46875,68.062503 -29.78125,32.59375 -7.78125,0 -0.125,5.65625 31.0625,0 c 1.28732,5.53295 6.23327,9.65624 12.15625,9.65625 5.92495,0 10.87095,-4.12052 12.15625,-9.65625 l 24.125,0 0,-5.65625 -7.78125,0 -2.46875,-22.34375 16.625,-72.625003 -7.15625,-2.28125 -4.03125,-1.3125 z m -2.28125,6.40625 4.96875,1.78125 -15.21875,68.031253 2.46875,22.34375 -9.25,0 c -1.28251,-5.53956 -6.22858,-9.6875 -12.15625,-9.6875 -5.92576,0 -10.87178,4.15063 -12.15625,9.6875 l -13.59375,0 26.25,-28.375 28.6875,-63.781253 z m -21.7,94.981253 c 0,4.14 -3.36,7.5 -7.5,7.5 -4.14,0 -7.5,-3.36 -7.5,-7.5 0,-4.14 3.36,-7.5 7.5,-7.5 4.14,0 7.5,3.36 7.5,7.5 z"
               id="path3879"
               style="fill:#000204;fill-opacity:1;fill-rule:evenodd;stroke:none;display:inline"
               sodipodi:nodetypes="cccccccscccccccccccccscccccsssc" />
            <path
               sodipodi:nodetypes="ccccc"
               id="path3881"
               d="m 160.6521,108.59992 18.41043,6.21974 0.12439,-0.52868 -18.34823,-6.25084 -0.18659,0.55978 z"
               style="fill:#000000;fill-opacity:1;stroke:none" />
            <path
               sodipodi:nodetypes="ccccc"
               id="path3883"
               d="m 175.26849,76.008471 11.59981,3.887338 c -0.14141,0.298758 -0.16166,0.365908 -0.15549,0.590878 l -11.69311,-3.918439 0.24879,-0.559777 z"
               style="fill:#000204;fill-opacity:1;stroke:none" />
          </g>
          <g
             transform="translate(0,40)"
             id="g3885"
             inkscape:label="Pillar 2 Band"
             style="display:none">
            <path
               d="m 191.53964,38.593837 -6.53125,-2.09375 -30.46875,68.062503 -29.78125,32.59375 -7.78125,0 -0.125,5.65625 31.0625,0 c 1.28732,5.53295 6.23327,9.65624 12.15625,9.65625 5.92495,0 10.87095,-4.12052 12.15625,-9.65625 l 24.125,0 0,-5.65625 -7.78125,0 -2.46875,-22.34375 16.625,-72.625003 -7.15625,-2.28125 -4.03125,-1.3125 z m -2.28125,6.40625 4.96875,1.78125 -15.21875,68.031253 2.46875,22.34375 -9.25,0 c -1.28251,-5.53956 -6.22858,-9.6875 -12.15625,-9.6875 -5.92576,0 -10.87178,4.15063 -12.15625,9.6875 l -13.59375,0 26.25,-28.375 28.6875,-63.781253 z m -21.7,94.981253 c 0,4.14 -3.36,7.5 -7.5,7.5 -4.14,0 -7.5,-3.36 -7.5,-7.5 0,-4.14 3.36,-7.5 7.5,-7.5 4.14,0 7.5,3.36 7.5,7.5 z"
               id="path3887"
               style="fill:#000407;fill-opacity:1;fill-rule:evenodd;stroke:none;display:inline"
               sodipodi:nodetypes="cccccccscccccccccccccscccccsssc" />
            <path
               sodipodi:nodetypes="ccccc"
               id="path3889"
               d="m 168.84909,90.31038 14.50814,5.08883 -0.0591,0.54193 -14.69694,-5.11992 0.24787,-0.51084 z"
               style="fill:#000000;fill-opacity:1;stroke:none" />
          </g>
        </g>
      </g>
    </g>
    <path
       id="path3891"
       d="m 175.20187,76.393923 -31.25,92.874997 17.5625,5.9375 31.25,-92.874997 -17.5625,-5.9375 z m 2.46875,4.875 10.34375,3.5 -28.65625,85.124997 -10.34375,-3.46875 28.65625,-85.156247 z"
       style="fill:#000000;fill-opacity:1" />
    <path
       style="fill:#000000;fill-opacity:1;stroke:none"
       d="m 182.65023,82.828179 0.47338,0.133986 -28.84753,85.394815 -0.64401,-0.21147 29.01816,-85.317331 z"
       id="path3893"
       sodipodi:nodetypes="ccccc" />
    <path
       style="fill:#d40000;fill-opacity:1;stroke:none"
       d="m 156.68803,168.83334 -2.16534,-0.75519 0.57514,-1.59568 c 0.31633,-0.87763 6.73735,-19.84231 14.26893,-42.14373 7.53159,-22.30142 13.76464,-40.618883 13.85123,-40.705475 0.14389,-0.143894 4.01915,1.004026 4.34886,1.288208 0.19385,0.167088 -28.28391,84.725877 -28.52301,84.693137 -0.10477,-0.0144 -1.16488,-0.36591 -2.35581,-0.78127 z"
       id="path3888" />
    <path
       style="fill:#ffffff;fill-opacity:1;stroke:none"
       d="m 151.32955,167.06919 c -0.99524,-0.33104 -1.80952,-0.80352 -1.80952,-1.04997 0,-0.53562 28.09337,-84.019457 28.36503,-84.291118 0.29251,-0.292508 4.20639,1.292341 4.20639,1.703295 0,0.642548 -28.54767,84.313983 -28.75398,84.276103 -0.10912,-0.02 -1.01268,-0.30727 -2.00792,-0.63831 z"
       id="path3890" />
  </g>
</svg>
