<?xml version="1.0" encoding="UTF-8" standalone="no"?>
<svg
   xmlns:dc="http://purl.org/dc/elements/1.1/"
   xmlns:cc="http://creativecommons.org/ns#"
   xmlns:rdf="http://www.w3.org/1999/02/22-rdf-syntax-ns#"
   xmlns:svg="http://www.w3.org/2000/svg"
   xmlns="http://www.w3.org/2000/svg"
   xmlns:sodipodi="http://sodipodi.sourceforge.net/DTD/sodipodi-0.dtd"
   xmlns:inkscape="http://www.inkscape.org/namespaces/inkscape"
   version="1.0"
   width="320"
   height="320"
   id="svg2"
   sodipodi:version="0.32"
   inkscape:version="0.46"
   sodipodi:docname="Safe_Water_Stake.svg"
   inkscape:output_extension="org.inkscape.output.svg.inkscape">
  <metadata
     id="metadata7">
    <rdf:RDF>
      <cc:Work
         rdf:about="">
        <dc:format>image/svg+xml</dc:format>
        <dc:type
           rdf:resource="http://purl.org/dc/dcmitype/StillImage" />
      </cc:Work>
    </rdf:RDF>
  </metadata>
  <sodipodi:namedview
     inkscape:window-height="850"
     inkscape:window-width="1440"
     inkscape:pageshadow="2"
     inkscape:pageopacity="0.0"
     guidetolerance="10.0"
     gridtolerance="10.0"
     objecttolerance="10.0"
     borderopacity="1.0"
     bordercolor="#666666"
     pagecolor="#ffffff"
     id="base"
     showgrid="false"
     inkscape:zoom="5.6568542"
     inkscape:cx="160"
     inkscape:cy="230.4065"
     inkscape:window-x="-4"
     inkscape:window-y="-3"
     inkscape:current-layer="svg2" />
  <defs
     id="defs4">
    <inkscape:perspective
       sodipodi:type="inkscape:persp3d"
       inkscape:vp_x="0 : 160 : 1"
       inkscape:vp_y="0 : 1000 : 0"
       inkscape:vp_z="320 : 160 : 1"
       inkscape:persp3d-origin="160 : 106.66667 : 1"
       id="perspective9" />
    <inkscape:perspective
       id="perspective8"
       inkscape:persp3d-origin="160 : 106.66667 : 1"
       inkscape:vp_z="320 : 160 : 1"
       inkscape:vp_y="0 : 1000 : 0"
       inkscape:vp_x="0 : 160 : 1"
       sodipodi:type="inkscape:persp3d" />
  </defs>
  <path
     d="M 197.71875,108.59375 L 197.71875,126.28125 L 191.34375,126.28125 L 191.34375,191.03125 C 189.63921,192.68015 188.39706,194.80239 187.84375,197.1875 L 179.40625,197.1875 L 179.28125,202.84375 L 187.84375,202.84375 C 189.13107,208.3767 194.07702,212.49999 200,212.5 C 205.92495,212.5 210.87095,208.37948 212.15625,202.84375 L 220.46875,202.8125 L 220.46875,197.15625 L 212.15625,197.1875 C 211.56957,194.65854 210.2097,192.43634 208.34375,190.75 L 208.34375,126.28125 L 201.96875,126.28125 L 201.96875,108.59375 L 197.71875,108.59375 z M 200,192.5 C 204.14,192.5 207.5,195.86 207.5,200 C 207.5,204.14 204.14,207.5 200,207.5 C 195.86,207.5 192.5,204.14 192.5,200 C 192.5,195.86 195.86,192.5 200,192.5 z"
     id="path2520"
     style="fill: rgb(0, 4, 7); fill-opacity: 1; fill-rule: evenodd; stroke: none;"
     transform="translate(-40, -40)"
     sodipodi:nodetypes="ccccccccsccccccccccsssc" />
  <path
     style="fill:#d40000;fill-opacity:1;fill-rule:evenodd;stroke:#000000;stroke-width:0.60377359;stroke-opacity:1"
     d="M 154.9637,170.97409 C 152.2534,169.70575 149.87135,167.1773 148.68228,164.30663 C 147.91174,162.44635 147.83014,162.41509 143.74562,162.41509 L 139.59245,162.41509 L 139.59245,160 L 139.59245,157.58491 L 143.79062,157.58491 L 147.98877,157.58491 L 149.15617,154.94585 C 149.79822,153.49436 150.62603,152.11983 150.99573,151.89134 C 151.47602,151.59449 151.66792,142.17847 151.66792,118.90776 L 151.66792,86.339623 L 154.68679,86.339623 L 157.70566,86.339623 L 157.70566,77.584906 L 157.70566,68.830189 L 159.81887,68.830189 L 161.93208,68.830189 L 161.93208,77.584906 L 161.93208,86.339623 L 164.95094,86.339623 L 167.96981,86.339623 L 167.98079,118.49057 L 167.99178,150.64151 L 169.79211,153.2984 C 170.7823,154.7597 171.59245,156.32196 171.59245,156.7701 C 171.59245,157.37639 172.67402,157.58491 175.81887,157.58491 L 180.04528,157.58491 L 180.04528,160 L 180.04528,162.41509 L 176.20231,162.41509 L 172.35935,162.41509 L 170.8863,165.27749 C 167.87856,171.1221 160.73856,173.67657 154.9637,170.9741 L 154.9637,170.97409 z M 163.55966,166.66808 C 166.16231,165.08114 167.64048,162.66581 167.64048,160 C 167.64048,158.78549 167.15642,157.05304 166.56479,156.15009 C 165.23804,154.12521 162.10845,152.15622 160.212,152.1532 C 156.27553,152.14693 152.2717,156.10361 152.2717,160 C 152.2717,163.89725 156.18552,167.80309 160.12075,167.83305 C 160.95094,167.83938 162.49845,167.31513 163.55965,166.66808 L 163.55966,166.66808 z"
     id="path2384" />
  <path
     style="fill:none;fill-rule:evenodd;stroke:#000000;stroke-width:1px;stroke-linecap:butt;stroke-linejoin:miter;stroke-opacity:1"
     d="M 159.80613,68.800316 L 159.80613,152.23892"
     id="path2381" />
  <path
     style="fill:none;fill-rule:evenodd;stroke:#000000;stroke-width:1px;stroke-linecap:butt;stroke-linejoin:miter;stroke-opacity:1"
     d="M 159.62936,167.61849 L 159.62936,172.03791"
     id="path2383" />
  <path
     style="fill:#ffffff;fill-opacity:1"
     d="M 157.84332,171.51156 C 157.60026,171.47088 157.00364,171.31161 156.5175,171.15764 C 153.39944,170.17008 150.95971,167.95978 149.18364,164.51343 C 147.94869,162.11712 148.10848,162.18667 143.68876,162.12202 L 139.98888,162.06791 L 139.98888,160.04489 L 139.98888,158.02189 L 144.0575,158.02189 L 148.12612,158.02189 L 149.25753,155.64083 C 149.8798,154.33125 150.64342,152.9054 150.95448,152.47227 C 151.4849,151.73369 151.53031,151.54941 151.68557,149.50583 C 151.77661,148.30742 151.89449,133.70404 151.9475,117.05389 L 152.0439,86.780878 L 155.03201,86.780878 L 158.0201,86.780878 L 158.0201,78.030432 L 158.0201,69.279986 L 158.63882,69.279986 L 159.25754,69.279986 L 159.25754,110.54293 L 159.25754,151.80587 L 158.10563,152.18921 C 155.41201,153.08559 153.13332,155.35614 152.27549,157.99852 C 151.03111,161.83172 153.69254,166.29581 158.15268,167.85641 L 159.08076,168.18114 L 159.08076,169.90742 C 159.08076,171.81336 159.14543,171.72953 157.84332,171.51157 L 157.84332,171.51156 z"
     id="path2385" />
  <g
     id="g2496"
     transform="matrix(1.3693906,0,0,1.3496762,-122.28888,20.84633)">
    <path
       id="path2499"
       d="M 201.47925,33.270424 C 198.66823,31.968966 196.09102,29.395991 195.17803,26.979562 C 194.29065,24.630913 194.37427,20.272465 195.35157,17.93344 C 197.17302,13.574116 203.06514,10.366672 207.78652,11.164347 C 216.51481,12.63898 220.60509,23.483762 214.8886,29.994482 C 211.23627,34.154276 206.09903,35.409316 201.47925,33.270424 z"
       style="fill:#d40000;fill-opacity:1;fill-rule:evenodd" />
  </g>
</svg>
