<?xml version="1.0" encoding="UTF-8" standalone="no"?>
<svg
   xmlns:dc="http://purl.org/dc/elements/1.1/"
   xmlns:cc="http://creativecommons.org/ns#"
   xmlns:rdf="http://www.w3.org/1999/02/22-rdf-syntax-ns#"
   xmlns:svg="http://www.w3.org/2000/svg"
   xmlns="http://www.w3.org/2000/svg"
   xmlns:sodipodi="http://sodipodi.sourceforge.net/DTD/sodipodi-0.dtd"
   xmlns:inkscape="http://www.inkscape.org/namespaces/inkscape"
   version="1.0"
   width="320"
   height="340"
   id="svg2"
   inkscape:version="0.47 r22583"
   sodipodi:docname="Safe_Water_Float_Sphere.svg"
   style="display:inline">
  <metadata
     id="metadata2913">
    <rdf:RDF>
      <cc:Work
         rdf:about="">
        <dc:format>image/svg+xml</dc:format>
        <dc:type
           rdf:resource="http://purl.org/dc/dcmitype/StillImage" />
        <dc:title />
      </cc:Work>
    </rdf:RDF>
  </metadata>
  <sodipodi:namedview
     pagecolor="#ffffff"
     bordercolor="#666666"
     borderopacity="1"
     objecttolerance="10"
     gridtolerance="10"
     guidetolerance="10"
     inkscape:pageopacity="0"
     inkscape:pageshadow="2"
     inkscape:window-width="1920"
     inkscape:window-height="1088"
     id="namedview2911"
     showgrid="true"
     inkscape:zoom="4.0194602"
     inkscape:cx="124.11915"
     inkscape:cy="184.08254"
     inkscape:window-x="1440"
     inkscape:window-y="0"
     inkscape:window-maximized="0"
     inkscape:current-layer="g2877"
     inkscape:snap-grids="false">
    <inkscape:grid
       type="xygrid"
       id="grid2919"
       empspacing="5"
       visible="true"
       enabled="true"
       snapvisiblegridlinesonly="true" />
  </sodipodi:namedview>
  <defs
     id="defs4">
    <inkscape:perspective
       sodipodi:type="inkscape:persp3d"
       inkscape:vp_x="0 : 160 : 1"
       inkscape:vp_y="0 : 1000 : 0"
       inkscape:vp_z="320 : 160 : 1"
       inkscape:persp3d-origin="160 : 106.66667 : 1"
       id="perspective2915" />
    <inkscape:perspective
       id="perspective2862"
       inkscape:persp3d-origin="160 : 106.66667 : 1"
       inkscape:vp_z="320 : 160 : 1"
       inkscape:vp_y="0 : 1000 : 0"
       inkscape:vp_x="0 : 160 : 1"
       sodipodi:type="inkscape:persp3d" />
    <inkscape:perspective
       id="perspective2933"
       inkscape:persp3d-origin="160 : 106.66667 : 1"
       inkscape:vp_z="320 : 160 : 1"
       inkscape:vp_y="0 : 1000 : 0"
       inkscape:vp_x="0 : 160 : 1"
       sodipodi:type="inkscape:persp3d" />
    <inkscape:perspective
       id="perspective2989"
       inkscape:persp3d-origin="160 : 106.66667 : 1"
       inkscape:vp_z="320 : 160 : 1"
       inkscape:vp_y="0 : 1000 : 0"
       inkscape:vp_x="0 : 160 : 1"
       sodipodi:type="inkscape:persp3d" />
    <inkscape:perspective
       id="perspective3073"
       inkscape:persp3d-origin="160 : 106.66667 : 1"
       inkscape:vp_z="320 : 160 : 1"
       inkscape:vp_y="0 : 1000 : 0"
       inkscape:vp_x="0 : 160 : 1"
       sodipodi:type="inkscape:persp3d" />
    <inkscape:perspective
       id="perspective3123"
       inkscape:persp3d-origin="160 : 106.66667 : 1"
       inkscape:vp_z="320 : 160 : 1"
       inkscape:vp_y="0 : 1000 : 0"
       inkscape:vp_x="0 : 160 : 1"
       sodipodi:type="inkscape:persp3d" />
    <inkscape:perspective
       id="perspective3203"
       inkscape:persp3d-origin="160 : 106.66667 : 1"
       inkscape:vp_z="320 : 160 : 1"
       inkscape:vp_y="0 : 1000 : 0"
       inkscape:vp_x="0 : 160 : 1"
       sodipodi:type="inkscape:persp3d" />
    <inkscape:perspective
       id="perspective3274"
       inkscape:persp3d-origin="200 : 133.33333 : 1"
       inkscape:vp_z="400 : 200 : 1"
       inkscape:vp_y="0 : 1000 : 0"
       inkscape:vp_x="0 : 200 : 1"
       sodipodi:type="inkscape:persp3d" />
    <inkscape:perspective
       id="perspective3401"
       inkscape:persp3d-origin="200 : 133.33333 : 1"
       inkscape:vp_z="400 : 200 : 1"
       inkscape:vp_y="0 : 1000 : 0"
       inkscape:vp_x="0 : 200 : 1"
       sodipodi:type="inkscape:persp3d" />
    <inkscape:perspective
       id="perspective3639"
       inkscape:persp3d-origin="200 : 133.33333 : 1"
       inkscape:vp_z="400 : 200 : 1"
       inkscape:vp_y="0 : 1000 : 0"
       inkscape:vp_x="0 : 200 : 1"
       sodipodi:type="inkscape:persp3d" />
    <inkscape:perspective
       id="perspective3689"
       inkscape:persp3d-origin="200 : 133.33333 : 1"
       inkscape:vp_z="400 : 200 : 1"
       inkscape:vp_y="0 : 1000 : 0"
       inkscape:vp_x="0 : 200 : 1"
       sodipodi:type="inkscape:persp3d" />
    <inkscape:perspective
       id="perspective3739"
       inkscape:persp3d-origin="200 : 133.33333 : 1"
       inkscape:vp_z="400 : 200 : 1"
       inkscape:vp_y="0 : 1000 : 0"
       inkscape:vp_x="0 : 200 : 1"
       sodipodi:type="inkscape:persp3d" />
  </defs>
  <g
     transform="translate(0,20)"
     style="display:inline"
     inkscape:label="Minor Float 2 Stripe"
     id="g2877"
     inkscape:groupmode="layer">
    <path
       sodipodi:nodetypes="cccccsccccccccccccccsssc"
       id="path2879"
       d="m 151.46502,140.96374 c -1.70454,1.6489 -2.9247,3.83867 -3.47801,6.22378 l -41.90644,-0.022 0.0289,5.63426 41.83353,0.044 c 1.28732,5.53295 6.25526,9.7442 12.17824,9.74421 5.92495,0 10.89294,-4.20848 12.17824,-9.74421 l 41.75945,-0.0312 -0.044,-5.63426 -41.73746,0.009 c -0.58668,-2.52896 -1.82216,-4.51083 -3.68811,-6.19717 l -1.52406,-1.27363 -1.8821,-1.21102 -2.30232,-0.71488 -2.90982,-0.29604 -2.86401,0.2853 -2.17355,0.6878 -1.91144,1.18458 -1.55709,1.31128 z m 8.65625,1.62424 c 4.14,0 7.5,3.36 7.5,7.5 0,4.14 -3.36,7.5 -7.5,7.5 -4.14,0 -7.5,-3.36 -7.5,-7.5 0,-4.14 3.36,-7.5 7.5,-7.5 z"
       style="fill:#000407;fill-opacity:1;fill-rule:evenodd;stroke:none;display:inline" />
    <path
       sodipodi:nodetypes="cccccc"
       id="path2881"
       d="m 148.23032,107.25432 23.9441,0 5.82689,16.56338 -35.95865,0.0214 6.18766,-16.58476 0,-4e-5 z"
       style="fill:none;stroke:#000000;stroke-width:4.23707008;stroke-linecap:butt;stroke-linejoin:miter;stroke-miterlimit:4;stroke-opacity:1;stroke-dasharray:none" />
    <path
       sodipodi:nodetypes="cccccc"
       transform="translate(0,-20)"
       id="path2883"
       d="m 123.84827,169.97251 -11.78669,-35.00824 15.95726,8.99772 64.12315,0.0364 15.8844,-9.03417 -11.96262,35.00826"
       style="fill:none;stroke:#000000;stroke-width:4;stroke-linecap:butt;stroke-linejoin:miter;stroke-miterlimit:4;stroke-opacity:1;stroke-dasharray:none" />
    <rect
       style="fill:#000000;fill-opacity:1;stroke:none"
       id="rect2885"
       width="1.9351292"
       height="30.434303"
       x="159.20836"
       y="128.80704"
       transform="translate(0,-20)" />
    <path
       style="fill:#d40000;fill-opacity:1;stroke:none"
       d="m 172.23487,166.67761 c -4.3e-4,-0.93979 -1.54885,-3.64123 -2.89759,-5.05524 -2.30762,-2.4193 -4.68803,-3.74896 -7.1782,-4.00965 l -0.74637,-0.0781 -0.0669,-5.65997 -0.0669,-5.65996 15.66351,0 15.66352,0 5.66523,-3.22317 c 3.11588,-1.77274 5.69699,-3.1914 5.73581,-3.15259 0.0388,0.0388 -2.02203,6.19136 -4.57964,13.67233 l -4.65021,13.60176 -11.27107,0 c -10.56842,0 -11.27108,-0.0271 -11.27126,-0.43538 l 0,0 z"
       id="path2887"
       transform="translate(0,-20)" />
    <path
       style="fill:#d40000;fill-opacity:1;stroke:none"
       d="m 161.28832,135.51671 0,-5.97096 4.6648,0.003 4.66481,0.003 1.96813,5.65687 c 1.08247,3.11128 2.01808,5.79682 2.07913,5.96786 0.0871,0.24387 -1.34444,0.31099 -6.63293,0.31099 l -6.74394,0 0,-5.97095 z"
       id="path3661"
       transform="translate(0,-20)" />
    <path
       style="fill:#ffffff;fill-opacity:1;stroke:none"
       d="m 124.93724,166.43133 c -0.68555,-1.76856 -8.9187,-26.52927 -8.84554,-26.60243 0.0457,-0.0457 2.59274,1.33899 5.66,3.07719 l 5.57684,3.16036 15.86033,0.10289 15.86034,0.1029 0,5.5577 0,5.55771 -0.93296,0.14574 c -2.95011,0.46086 -4.8104,1.44285 -6.94547,3.66632 -1.54532,1.60928 -2.42619,3.04062 -2.95013,4.79373 l -0.29741,0.99515 -11.35991,0.0647 -11.35991,0.0647 -0.26618,-0.68668 0,0 z"
       id="path3665"
       transform="translate(0,-20)" />
    <path
       style="fill:#ffffff;fill-opacity:1;stroke:none"
       d="m 145.37072,141.42546 c 0.003,-0.0342 0.98656,-2.69315 2.18632,-5.90875 l 2.18139,-5.84656 4.65539,-0.0677 4.65539,-0.0677 0,5.97644 0,5.97644 -6.84171,0 c -3.76295,0 -6.8395,-0.028 -6.83678,-0.0622 z"
       id="path3667"
       transform="translate(0,-20)" />
    <g
       style="display:inline"
       id="g3206"
       transform="translate(-2.5588771,81.63082)">
      <path
         style="fill:#000407;fill-opacity:1;fill-rule:evenodd;stroke:none"
         id="path13269"
         d="m 162.47651,-23.366875 c -9.35666,0 -17,7.643343 -17,17.0000002 0,9.356657 7.64334,16.9999998 17,16.9999998 9.35666,0 17,-7.6433428 17,-16.9999998 0,-9.3566572 -7.64334,-17.0000002 -17,-17.0000002 z m 0,5 c 6.65134,0 12,5.348657 12,12.0000002 0,6.65134297 -5.34866,12 -12,12 -6.65134,0 -12,-5.34865703 -12,-12 0,-6.6513432 5.34866,-12.0000002 12,-12.0000002 z"
         sodipodi:nodetypes="csssccsssc" />
    </g>
    <g
       style="display:inline"
       id="g2906"
       transform="matrix(1,0,0,0.74930505,-0.01842005,40.617293)">
      <path
         transform="translate(-40,-40)"
         style="fill:#000407;fill-opacity:1;fill-rule:evenodd;stroke:none"
         id="path2908"
         d="m 197.875,108.625 0,17.71875 4.25,0 0,-17.71875 -4.25,0 z"
         sodipodi:nodetypes="ccccc" />
    </g>
    <path
       style="fill:#d40000;fill-opacity:1;stroke:none;display:inline"
       d="m 157.37303,106.77799 c -3.12314,-0.67852 -6.24188,-2.99295 -7.75049,-5.75166 -3.69483,-6.75653 -0.31761,-14.847539 7.16283,-17.160442 1.47076,-0.454749 4.79845,-0.454749 6.26921,0 3.07362,0.950341 6.01782,3.314529 7.3146,5.87361 3.56327,7.031762 -0.38773,15.432642 -8.01858,17.049652 -2.03668,0.43158 -2.94914,0.42953 -4.97757,-0.0112 l 0,0 z"
       id="path3663"
       transform="translate(0,-20)" />
  </g>
</svg>
