<?xml version="1.0" encoding="UTF-8" standalone="no"?>
<svg
   xmlns:dc="http://purl.org/dc/elements/1.1/"
   xmlns:cc="http://creativecommons.org/ns#"
   xmlns:rdf="http://www.w3.org/1999/02/22-rdf-syntax-ns#"
   xmlns:svg="http://www.w3.org/2000/svg"
   xmlns="http://www.w3.org/2000/svg"
   xmlns:sodipodi="http://sodipodi.sourceforge.net/DTD/sodipodi-0.dtd"
   xmlns:inkscape="http://www.inkscape.org/namespaces/inkscape"
   version="1.0"
   width="320"
   height="320"
   id="svg2"
   sodipodi:version="0.32"
   inkscape:version="0.46"
   sodipodi:docname="Safe_Water_Sphere.svg"
   inkscape:output_extension="org.inkscape.output.svg.inkscape">
  <metadata
     id="metadata7">
    <rdf:RDF>
      <cc:Work
         rdf:about="">
        <dc:format>image/svg+xml</dc:format>
        <dc:type
           rdf:resource="http://purl.org/dc/dcmitype/StillImage" />
      </cc:Work>
    </rdf:RDF>
  </metadata>
  <sodipodi:namedview
     inkscape:window-height="991"
     inkscape:window-width="1680"
     inkscape:pageshadow="2"
     inkscape:pageopacity="0.0"
     guidetolerance="10.0"
     gridtolerance="10.0"
     objecttolerance="10.0"
     borderopacity="1.0"
     bordercolor="#666666"
     pagecolor="#ffffff"
     id="base"
     showgrid="false"
     inkscape:zoom="1.73125"
     inkscape:cx="160"
     inkscape:cy="160"
     inkscape:window-x="-4"
     inkscape:window-y="-3"
     inkscape:current-layer="svg2" />
  <defs
     id="defs4">
    <inkscape:perspective
       sodipodi:type="inkscape:persp3d"
       inkscape:vp_x="0 : 160 : 1"
       inkscape:vp_y="0 : 1000 : 0"
       inkscape:vp_z="320 : 160 : 1"
       inkscape:persp3d-origin="160 : 106.66667 : 1"
       id="perspective9" />
  </defs>
  <path
     d="M 179.34375,92.921492 L 172.96875,111.484 C 171.03562,111.01228 169.05583,110.70362 167.0625,110.57775 C 166.25699,110.52689 165.4353,110.50825 164.625,110.51525 C 158.95287,110.56423 153.21912,112.03893 148,115.109 C 133.33853,123.7334 127.65756,141.92123 134.1875,157.1715 L 126.125,157.1715 L 126.125,162.82775 L 147.84375,162.82775 C 149.13107,168.3607 154.07702,172.48399 160,172.484 C 165.92495,172.484 170.87095,168.36348 172.15625,162.82775 L 204.4375,162.859 L 204.4375,157.20275 L 195.84375,157.1715 C 200.08274,147.39963 199.41981,136.41018 193.875,126.984 C 189.89063,120.21057 183.88931,115.34837 177.0625,112.734 L 183.375,94.265242 L 179.34375,92.921492 z M 165.375,117.45275 C 174.32202,117.57524 182.96381,122.2506 187.84375,130.5465 C 192.88887,139.1232 192.9162,148.61038 187.96875,157.1715 L 172.15625,157.14025 C 170.87095,151.60452 165.92495,147.484 160,147.484 C 154.07702,147.48401 149.13107,151.6073 147.84375,157.14025 L 142,157.14025 C 134.79003,144.54082 139.01481,128.52124 151.5625,121.14025 C 155.90797,118.58409 160.68847,117.38859 165.375,117.45275 z M 160,152.484 C 164.14,152.484 167.5,155.844 167.5,159.984 C 167.5,164.124 164.14,167.484 160,167.484 C 155.86,167.484 152.5,164.124 152.5,159.984 C 152.5,155.844 155.86,152.484 160,152.484 z M 187.58125,57.996491 C 178.22459,57.996491 170.58125,65.639834 170.58125,74.996492 C 170.58125,84.353152 178.22459,91.996492 187.58125,91.996492 C 196.93791,91.996492 204.58125,84.353152 204.58125,74.996492 C 204.58125,65.639834 196.93791,57.996491 187.58125,57.996491 z M 187.58125,62.996491 C 194.23259,62.996491 199.58125,68.345148 199.58125,74.996492 C 199.58125,81.647832 194.23259,86.996492 187.58125,86.996492 C 180.92991,86.996492 175.58125,81.647832 175.58125,74.996492 C 175.58125,68.345148 180.92991,62.996491 187.58125,62.996491 z"
     id="path4420"
     style="fill: rgb(0, 4, 7); fill-opacity: 1; fill-rule: evenodd; stroke: none;" />
  <path
     style="fill:#d40000"
     d="M 184.63116,86.332552 C 179.45398,84.694643 176.49733,80.972199 176.18062,75.693378 C 175.90088,71.028396 177.59931,67.656555 181.42146,65.289161 C 185.30103,62.886227 188.56006,62.672728 192.43333,64.567757 C 201.23518,68.874079 201.45513,80.958342 192.81305,85.427327 C 190.83558,86.449929 186.5135,86.928092 184.6311,86.332552 L 184.63116,86.332552 z"
     id="path2382" />
  <path
     style="fill:none;fill-rule:evenodd;stroke:#000000;stroke-width:1px;stroke-linecap:butt;stroke-linejoin:miter;stroke-opacity:1"
     d="M 173.2852,116.6787 L 162.31047,149.02527"
     id="path2384" />
  <path
     style="fill:#d40000"
     d="M 171.77357,155.30674 C 171.28116,153.34483 167.7883,149.55999 165.65441,148.67612 C 164.70469,148.28276 163.9278,147.62975 163.9278,147.22498 C 163.9278,146.42694 173.04526,119.7297 173.45918,119.31582 C 174.10599,118.669 180.55503,122.68781 183.34105,125.47383 C 190.79301,132.92587 193.18885,144.11281 189.35538,153.55783 L 188.05355,156.76534 L 180.09664,156.76534 L 172.13967,156.76534 L 171.77357,155.30674 z"
     id="path2386" />
  <path
     style="fill:#ffffff"
     d="M 140.78816,153.73285 C 138.8889,149.41077 138.56832,141.08668 140.11281,136.19975 C 143.21034,126.39894 151.64488,119.38965 161.92156,118.07626 C 165.22726,117.65376 170.47411,118.06499 171.21363,118.80452 C 171.40251,118.99337 169.43908,125.50199 166.85048,133.2681 L 162.14388,147.3883 L 158.70071,147.63737 C 154.33796,147.95294 150.96277,150.15845 148.90975,154.03519 C 147.50683,156.68432 147.38957,156.76204 144.79313,156.76367 C 142.12303,156.76533 142.11945,156.76267 140.7881,153.73285 L 140.78816,153.73285 z"
     id="path2388" />
</svg>
