<?xml version="1.0" encoding="UTF-8" standalone="no"?>
<!-- Created with Inkscape (http://www.inkscape.org/) -->
<svg
   xmlns:dc="http://purl.org/dc/elements/1.1/"
   xmlns:cc="http://creativecommons.org/ns#"
   xmlns:rdf="http://www.w3.org/1999/02/22-rdf-syntax-ns#"
   xmlns:svg="http://www.w3.org/2000/svg"
   xmlns="http://www.w3.org/2000/svg"
   xmlns:sodipodi="http://sodipodi.sourceforge.net/DTD/sodipodi-0.dtd"
   xmlns:inkscape="http://www.inkscape.org/namespaces/inkscape"
   width="100.00252"
   height="99.997482"
   id="svg2489"
   sodipodi:version="0.32"
   inkscape:version="0.46"
   version="1.0"
   sodipodi:docname="slipway.svg"
   inkscape:output_extension="org.inkscape.output.svg.inkscape">
  <defs
     id="defs2491">
    <inkscape:perspective
       sodipodi:type="inkscape:persp3d"
       inkscape:vp_x="0 : 526.18109 : 1"
       inkscape:vp_y="0 : 1000 : 0"
       inkscape:vp_z="744.09448 : 526.18109 : 1"
       inkscape:persp3d-origin="372.04724 : 350.78739 : 1"
       id="perspective2497" />
  </defs>
  <sodipodi:namedview
     id="base"
     pagecolor="#ffffff"
     bordercolor="#666666"
     borderopacity="1.0"
     inkscape:pageopacity="0.0"
     inkscape:pageshadow="2"
     inkscape:zoom="3.959798"
     inkscape:cx="86.406851"
     inkscape:cy="72.899775"
     inkscape:document-units="px"
     inkscape:current-layer="layer1"
     showgrid="false"
     inkscape:window-width="1440"
     inkscape:window-height="843"
     inkscape:window-x="-5"
     inkscape:window-y="-3" />
  <metadata
     id="metadata2494">
    <rdf:RDF>
      <cc:Work
         rdf:about="">
        <dc:format>image/svg+xml</dc:format>
        <dc:type
           rdf:resource="http://purl.org/dc/dcmitype/StillImage" />
      </cc:Work>
    </rdf:RDF>
  </metadata>
  <g
     inkscape:label="Ebene 1"
     inkscape:groupmode="layer"
     id="layer1"
     transform="translate(-210.74031,-135.03866)">
    <polygon
       transform="matrix(1.1635077,0,0,-1.1634374,206.02716,698.78227)"
       points="4.5508,399.1 89.5,399.1 89.5,484.05 4.5508,484.05 4.5508,399.1 "
       id="polygon13"
       style="fill:#ffffff;stroke:#000000;stroke-width:1;stroke-opacity:1" />
    <polygon
       transform="matrix(1.1635077,0,0,-1.1634374,206.02716,698.78227)"
       points="82.398,444.85 13.699,413.4 82.398,413.4 82.398,444.85 "
       id="polygon47"
       style="fill:#000000;fill-rule:nonzero;stroke-width:0" />
    <polygon
       transform="matrix(1.1635077,0,0,-1.1634374,206.02716,701.13278)"
       points="82.398,444.85 13.699,413.4 82.398,413.4 82.398,444.85 "
       id="polygon49"
       style="fill:#000000;fill-opacity:0;stroke:#000000;stroke-width:0;stroke-opacity:1" />
    <path
       d="M 219.40751,203.44883 L 219.51106,203.46046 L 219.61577,203.46046 L 219.71932,203.48374 L 219.82404,203.49536 L 219.92992,203.51863 L 220.03579,203.54191 L 220.14168,203.56518 L 220.24756,203.58843 L 220.46164,203.65826 L 220.67804,203.72805 L 220.89563,203.82113 L 221.11552,203.91419 L 221.33776,204.01891 L 221.56231,204.14688 L 221.78805,204.27488 L 222.01726,204.41448 L 222.24878,204.56573 L 222.48149,204.72861 L 222.7177,204.89148 L 222.95738,205.07763 C 225.51591,207.11366 227.9616,207.11366 230.16996,205.07763 C 232.78785,202.98346 235.05551,202.98346 237.50122,205.07763 C 240.17844,207.11366 242.15525,207.11366 244.65445,205.07763 C 247.3317,202.98346 249.42716,202.98346 251.98572,205.07763 C 254.72228,207.11366 257.16215,207.11366 259.37633,205.07763 C 260.65269,203.97236 261.93487,203.39066 263.09837,203.44883"
       id="path51"
       style="fill:#000000;fill-opacity:0;stroke:#000000;stroke-width:1.86156797;stroke-opacity:1" />
    <path
       d="M 219.40751,208.33526 L 219.61577,208.34688 L 219.82404,208.38181 L 220.03579,208.41671 L 220.24756,208.46323 L 220.46164,208.53305 L 220.67804,208.60286 L 220.89563,208.6843 L 221.00614,208.73083 L 221.11552,208.77738 L 221.22606,208.83555 L 221.33776,208.88208 L 221.44946,208.94024 L 221.56231,208.99842 L 221.67517,209.0682 L 221.78805,209.13804 L 221.90205,209.20783 L 222.01726,209.27766 L 222.13243,209.34745 L 222.24878,209.4289 L 222.36513,209.51032 L 222.48149,209.59177 L 222.60016,209.68484 L 222.7177,209.77794 L 222.83752,209.87101 L 222.95738,209.96408 C 225.51591,212.00008 227.9616,212.00008 230.16996,209.96408 C 232.78785,207.81171 235.05551,207.81171 237.50122,209.96408 C 240.17844,212.00008 243.31875,212.1746 245.81796,210.08043"
       id="path53"
       style="fill:#000000;fill-opacity:0;stroke:#000000;stroke-width:1.86156797;stroke-opacity:1" />
    <path
       d="M 219.40751,213.10538 L 219.50524,213.11701 L 219.60415,213.12862 L 219.70304,213.14027 L 219.80309,213.1519 L 219.902,213.17517 L 220.00322,213.19845 L 220.10327,213.2217 L 220.20451,213.24497 L 220.30688,213.27986 L 220.40929,213.31476 L 220.51284,213.34966 L 220.61639,213.38458 L 220.71994,213.4311 L 220.82464,213.47766 L 221.03641,213.57073 L 221.25051,213.68707 L 221.46808,213.80343 L 221.68797,213.9314 L 221.91137,214.07102 L 222.13708,214.22226 L 222.36746,214.38513 L 222.60134,214.54803 L 222.83869,214.73417 C 225.28438,216.82837 229.7604,217.29373 231.79653,215.19955"
       id="path55"
       style="fill:#000000;fill-opacity:0;stroke:#000000;stroke-width:1.86156797;stroke-opacity:1" />
    <path
       d="M 261.46598,186.22996 L 260.87142,186.42773 L 260.28504,186.62552 L 259.14012,186.99782 L 258.02898,187.33522 L 256.94924,187.63771 L 255.89859,187.9053 L 254.87586,188.14961 L 253.87756,188.35904 L 252.90139,188.53356 L 251.94617,188.6848 L 251.00954,188.78952 L 250.08805,188.87094 L 249.1805,188.91749 L 248.28577,188.94076 L 247.39917,188.91749 L 246.51954,188.87094 L 245.64575,188.78952 L 241.22326,182.50696 L 292.94002,158.36563 C 295.2077,163.60111 287.4727,173.02495 278.80573,178.20224 C 275.08368,180.47093 263.27057,185.59005 261.46598,186.22996 z"
       id="path57"
       style="fill:#000000;fill-rule:nonzero;stroke-width:0" />
    <path
       d="M 261.46598,186.22996 L 260.87142,186.42773 L 260.28504,186.62552 L 259.14012,186.99782 L 258.02898,187.33522 L 256.94924,187.63771 L 255.89859,187.9053 L 254.87586,188.14961 L 253.87756,188.35904 L 252.90139,188.53356 L 251.94617,188.6848 L 251.00954,188.78952 L 250.08805,188.87094 L 249.1805,188.91749 L 248.28577,188.94076 L 247.39917,188.91749 L 246.51954,188.87094 L 245.64575,188.78952 L 241.22326,182.50696 L 292.94002,158.36563 C 295.2077,163.60111 287.4727,173.02495 278.80573,178.20224 C 275.08368,180.47093 263.27057,185.59005 261.46598,186.22996 z"
       id="path59"
       style="fill:#000000;fill-opacity:0;stroke:#000000;stroke-width:0;stroke-opacity:1" />
    <path
       d="M 274.79279,191.87262 L 274.4961,191.86099 L 274.20753,191.83771 L 273.92598,191.79119 L 273.65372,191.72137 L 273.39077,191.63992 L 273.13713,191.53522 L 272.89277,191.41888 L 272.65892,191.29091 L 272.43554,191.15129 L 272.2226,191.00005 L 272.02133,190.82552 L 271.83282,190.63938 L 271.65597,190.45323 L 271.49309,190.24382 L 271.34184,190.03437 L 271.20571,189.81333 L 271.08353,189.59229 L 270.97533,189.34798 L 270.88225,189.10364 L 270.80544,188.85932 L 270.74379,188.60335 L 270.69841,188.34741 L 270.67049,188.09145 L 270.65884,187.82385 L 270.66584,187.55627 L 270.69026,187.28867 L 270.73331,187.02108 L 270.79496,186.7535 L 270.8776,186.4859 L 270.97882,186.22996 L 271.09981,185.96237 L 271.16845,185.83438 L 271.24293,185.7064 C 272.81017,182.91415 276.7696,182.91415 278.33684,185.7064 C 279.96923,188.44049 277.99242,191.87262 274.79279,191.87262 z"
       id="path61"
       style="fill:#ffffff;stroke:#ffffff;stroke-width:0" />
    <path
       d="M 274.79279,191.87262 L 274.4961,191.86099 L 274.20753,191.83771 L 273.92598,191.79119 L 273.65372,191.72137 L 273.39077,191.63992 L 273.13713,191.53522 L 272.89277,191.41888 L 272.65892,191.29091 L 272.43554,191.15129 L 272.2226,191.00005 L 272.02133,190.82552 L 271.83282,190.63938 L 271.65597,190.45323 L 271.49309,190.24382 L 271.34184,190.03437 L 271.20571,189.81333 L 271.08353,189.59229 L 270.97533,189.34798 L 270.88225,189.10364 L 270.80544,188.85932 L 270.74379,188.60335 L 270.69841,188.34741 L 270.67049,188.09145 L 270.65884,187.82385 L 270.66584,187.55627 L 270.69026,187.28867 L 270.73331,187.02108 L 270.79496,186.7535 L 270.8776,186.4859 L 270.97882,186.22996 L 271.09981,185.96237 L 271.16845,185.83438 L 271.24293,185.7064 C 272.81017,182.91415 276.7696,182.91415 278.33684,185.7064 C 279.96923,188.44049 277.99242,191.87262 274.79279,191.87262 z"
       id="path63"
       style="fill:#000000;fill-opacity:0;stroke:#000000;stroke-width:2.79235196;stroke-opacity:1" />
    <path
       style="fill:#000000;fill-opacity:0;stroke-width:3"
       d="M 300.91609,170.92597 L 244.48559,197.04531 L 300.91609,170.92597 z"
       id="line65" />
    <line
       x1="243.8134"
       y1="195.73026"
       x2="300.24356"
       y2="169.61108"
       id="line3300"
       style="fill:#000000;fill-opacity:0;stroke:#000000;stroke-width:2.79235196;stroke-opacity:1" />
  </g>
</svg>
