<?xml version="1.0" encoding="UTF-8" standalone="no"?>
<!-- Created with Inkscape (http://www.inkscape.org/) -->
<svg
   xmlns:dc="http://purl.org/dc/elements/1.1/"
   xmlns:cc="http://creativecommons.org/ns#"
   xmlns:rdf="http://www.w3.org/1999/02/22-rdf-syntax-ns#"
   xmlns:svg="http://www.w3.org/2000/svg"
   xmlns="http://www.w3.org/2000/svg"
   xmlns:sodipodi="http://sodipodi.sourceforge.net/DTD/sodipodi-0.dtd"
   xmlns:inkscape="http://www.inkscape.org/namespaces/inkscape"
   id="svg18076"
   sodipodi:version="0.32"
   inkscape:version="0.46"
   width="95.496162"
   height="95.496162"
   sodipodi:docname="slipway.svg"
   inkscape:output_extension="org.inkscape.output.svg.inkscape"
   version="1.0">
  <metadata
     id="metadata18081">
    <rdf:RDF>
      <cc:Work
         rdf:about="">
        <dc:format>image/svg+xml</dc:format>
        <dc:type
           rdf:resource="http://purl.org/dc/dcmitype/StillImage" />
        <dc:rights>
          <cc:Agent>
            <dc:title>Public Domain</dc:title>
          </cc:Agent>
        </dc:rights>
        <dc:publisher>
          <cc:Agent>
            <dc:title>clker.com</dc:title>
          </cc:Agent>
        </dc:publisher>
        <dc:creator>
          <cc:Agent>
            <dc:title>Mohamed Ibrahim</dc:title>
          </cc:Agent>
        </dc:creator>
        <cc:license
           rdf:resource="http://creativecommons.org/licenses/publicdomain/" />
        <dc:title>Map Symbols</dc:title>
        <dc:subject>
          <rdf:Bag>
            <rdf:li>map symbols</rdf:li>
          </rdf:Bag>
        </dc:subject>
      </cc:Work>
      <cc:License
         rdf:about="http://creativecommons.org/licenses/publicdomain/">
        <cc:permits
           rdf:resource="http://creativecommons.org/ns#Reproduction" />
        <cc:permits
           rdf:resource="http://creativecommons.org/ns#Distribution" />
        <cc:permits
           rdf:resource="http://creativecommons.org/ns#DerivativeWorks" />
      </cc:License>
    </rdf:RDF>
  </metadata>
  <defs
     id="defs18079">
    <inkscape:perspective
       sodipodi:type="inkscape:persp3d"
       inkscape:vp_x="0 : 526.18109 : 1"
       inkscape:vp_y="0 : 1000 : 0"
       inkscape:vp_z="744.09448 : 526.18109 : 1"
       inkscape:persp3d-origin="372.04724 : 350.78739 : 1"
       id="perspective18083" />
    <inkscape:perspective
       id="perspective18071"
       inkscape:persp3d-origin="372.04724 : 350.78739 : 1"
       inkscape:vp_z="744.09448 : 526.18109 : 1"
       inkscape:vp_y="0 : 1000 : 0"
       inkscape:vp_x="0 : 526.18109 : 1"
       sodipodi:type="inkscape:persp3d" />
    <inkscape:perspective
       id="perspective21220"
       inkscape:persp3d-origin="372.04724 : 350.78739 : 1"
       inkscape:vp_z="744.09448 : 526.18109 : 1"
       inkscape:vp_y="0 : 1000 : 0"
       inkscape:vp_x="0 : 526.18109 : 1"
       sodipodi:type="inkscape:persp3d" />
    <inkscape:perspective
       id="perspective21262"
       inkscape:persp3d-origin="372.04724 : 350.78739 : 1"
       inkscape:vp_z="744.09448 : 526.18109 : 1"
       inkscape:vp_y="0 : 1000 : 0"
       inkscape:vp_x="0 : 526.18109 : 1"
       sodipodi:type="inkscape:persp3d" />
    <inkscape:perspective
       id="perspective21289"
       inkscape:persp3d-origin="372.04724 : 350.78739 : 1"
       inkscape:vp_z="744.09448 : 526.18109 : 1"
       inkscape:vp_y="0 : 1000 : 0"
       inkscape:vp_x="0 : 526.18109 : 1"
       sodipodi:type="inkscape:persp3d" />
    <inkscape:perspective
       id="perspective21316"
       inkscape:persp3d-origin="372.04724 : 350.78739 : 1"
       inkscape:vp_z="744.09448 : 526.18109 : 1"
       inkscape:vp_y="0 : 1000 : 0"
       inkscape:vp_x="0 : 526.18109 : 1"
       sodipodi:type="inkscape:persp3d" />
    <inkscape:perspective
       id="perspective21355"
       inkscape:persp3d-origin="372.04724 : 350.78739 : 1"
       inkscape:vp_z="744.09448 : 526.18109 : 1"
       inkscape:vp_y="0 : 1000 : 0"
       inkscape:vp_x="0 : 526.18109 : 1"
       sodipodi:type="inkscape:persp3d" />
    <inkscape:perspective
       id="perspective21394"
       inkscape:persp3d-origin="372.04724 : 350.78739 : 1"
       inkscape:vp_z="744.09448 : 526.18109 : 1"
       inkscape:vp_y="0 : 1000 : 0"
       inkscape:vp_x="0 : 526.18109 : 1"
       sodipodi:type="inkscape:persp3d" />
  </defs>
  <sodipodi:namedview
     inkscape:window-height="789"
     inkscape:window-width="1280"
     inkscape:pageshadow="2"
     inkscape:pageopacity="0.0"
     guidetolerance="10.0"
     gridtolerance="10.0"
     objecttolerance="10.0"
     borderopacity="1.0"
     bordercolor="#666666"
     pagecolor="#ffffff"
     id="base"
     showgrid="false"
     inkscape:zoom="1.7560494"
     inkscape:cx="201.88"
     inkscape:cy="-56.906548"
     inkscape:window-x="152"
     inkscape:window-y="51"
     inkscape:current-layer="svg18076" />
  <path
     d="M 84.085702,95.49616 C 90.394787,95.49616 95.496163,90.38513 95.496163,84.0857 L 95.496163,11.42012 C 95.496163,5.11104 90.394787,0 84.085702,0 L 11.420119,0 C 5.111035,0 0,5.11104 0,11.42012 L 0,84.0857 C 0,90.38513 5.111035,95.49616 11.420119,95.49616 L 84.085702,95.49616 z"
     style="fill:#231f20;fill-opacity:1;fill-rule:nonzero;stroke:none"
     id="path8268" />
  <path
     d="M 11.420118,1.942 C 6.1834813,1.942 1.9323371,6.19314 1.9323371,11.42012 L 1.9323371,84.0857 C 1.9323371,89.31268 6.1834813,93.56382 11.420118,93.56382 L 84.085699,93.56382 C 89.312675,93.56382 93.563819,89.31268 93.563819,84.0857 L 93.563819,11.42012 C 93.563819,6.19314 89.312675,1.942 84.085699,1.942 L 11.420118,1.942 z"
     style="fill:#ffffff;fill-opacity:1;fill-rule:nonzero;stroke:none"
     id="path8270" />
  <path
     d="M 20.96587,19.22677 L 37.042924,23.60351 L 45.970328,17.41037 L 49.071732,18.15432 L 40.231282,24.36679 L 88.955193,37.72891 L 85.390028,50.81084 L 36.492208,37.4777 C 17.545631,31.84494 20.994855,19.21711 20.994855,19.21711"
     style="fill:#231f20;fill-opacity:1;fill-rule:nonzero;stroke:none"
     id="path8272" />
  <path
     d="M 63.226108,52.68521 C 63.168138,51.58377 62.965242,50.54997 62.60776,49.55482 L 84.655742,55.69965 L 83.950437,58.40493 L 63.226108,52.68521 z"
     style="fill:#231f20;fill-opacity:1;fill-rule:nonzero;stroke:none"
     id="path8274" />
  <path
     d="M 43.207086,47.14906 C 43.796448,46.28917 44.511411,45.49691 45.313331,44.83025 L 8.5312723,34.67581 L 8.5312723,37.59364 L 43.207086,47.14906 z"
     style="fill:#231f20;fill-opacity:1;fill-rule:nonzero;stroke:none"
     id="path8276" />
  <path
     d="M 88.201584,78.7911 C 86.452814,78.7911 84.800665,78.39497 83.312764,77.71865 C 81.776557,77.01334 80.056775,76.59789 78.259703,76.59789 C 76.462627,76.59789 74.742845,77.01334 73.216297,77.71865 C 71.718737,78.39497 70.056924,78.7911 68.308156,78.7911 C 66.569054,78.7911 64.907244,78.39497 63.409681,77.71865 C 61.873471,77.01334 60.163353,76.59789 58.366278,76.59789 C 56.569203,76.59789 54.849423,77.01334 53.313214,77.71865 C 51.825312,78.39497 50.153841,78.7911 48.414735,78.7911 C 46.675632,78.7911 45.004158,78.39497 43.516259,77.71865 C 41.98005,77.01334 40.250606,76.59789 38.463192,76.59789 C 36.66612,76.59789 34.936676,77.01334 33.419789,77.71865 C 31.931891,78.39497 30.250755,78.7911 28.511652,78.7911 C 26.782208,78.7911 25.110734,78.39497 23.613172,77.71865 C 22.086625,77.01334 20.366844,76.59789 18.56977,76.59789 C 16.782356,76.59789 15.052914,77.01334 13.526367,77.71865 C 12.028805,78.39497 10.34767,78.7911 8.6278893,78.7911 L 8.5119493,49.5838 L 48.73357,60.67542 C 45.960666,59.33245 44.037988,56.5209 44.037988,53.24558 C 44.037988,48.68526 47.738415,44.98484 52.298736,44.98484 C 56.859053,44.98484 60.569143,48.68526 60.569143,53.24558 C 60.569143,57.8059 56.859053,61.51599 52.298736,61.51599 C 52.028209,61.51599 51.757681,61.45802 51.487154,61.42904 L 88.143612,71.53516 L 88.201581,78.7911 L 88.201584,78.7911 z M 52.298736,56.82041 C 54.279381,56.82041 55.883222,55.22623 55.883222,53.24558 C 55.883222,51.26494 54.279381,49.66109 52.298736,49.66109 C 50.318088,49.66109 48.714247,51.26494 48.714247,53.24558 C 48.714247,55.22623 50.318088,56.82041 52.298736,56.82041"
     style="fill:#231f20;fill-opacity:1;fill-rule:nonzero;stroke:none"
     id="path8278" />
</svg>
