<?xml version="1.0" encoding="UTF-8" standalone="no"?>
<svg
   xmlns:dc="http://purl.org/dc/elements/1.1/"
   xmlns:cc="http://creativecommons.org/ns#"
   xmlns:rdf="http://www.w3.org/1999/02/22-rdf-syntax-ns#"
   xmlns:svg="http://www.w3.org/2000/svg"
   xmlns="http://www.w3.org/2000/svg"
   xmlns:sodipodi="http://sodipodi.sourceforge.net/DTD/sodipodi-0.dtd"
   xmlns:inkscape="http://www.inkscape.org/namespaces/inkscape"
   version="1.0"
   width="320"
   height="320"
   id="svg2"
   sodipodi:version="0.32"
   inkscape:version="0.46"
   sodipodi:docname="SpecialPP_Stake.svg"
   inkscape:output_extension="org.inkscape.output.svg.inkscape"
   inkscape:export-filename="/srv/www/htdocs/website/map/resources/special_purpose/Special_Purpose_Stake.png"
   inkscape:export-xdpi="88.879997"
   inkscape:export-ydpi="88.879997">
  <metadata
     id="metadata7">
    <rdf:RDF>
      <cc:Work
         rdf:about="">
        <dc:format>image/svg+xml</dc:format>
        <dc:type
           rdf:resource="http://purl.org/dc/dcmitype/StillImage" />
      </cc:Work>
    </rdf:RDF>
  </metadata>
  <sodipodi:namedview
     inkscape:window-height="850"
     inkscape:window-width="1440"
     inkscape:pageshadow="2"
     inkscape:pageopacity="0.0"
     guidetolerance="10.0"
     gridtolerance="10.0"
     objecttolerance="10.0"
     borderopacity="1.0"
     bordercolor="#666666"
     pagecolor="#ffffff"
     id="base"
     showgrid="false"
     inkscape:zoom="1.65625"
     inkscape:cx="160"
     inkscape:cy="160"
     inkscape:window-x="-4"
     inkscape:window-y="-3"
     inkscape:current-layer="svg2" />
  <defs
     id="defs4">
    <inkscape:perspective
       sodipodi:type="inkscape:persp3d"
       inkscape:vp_x="0 : 160 : 1"
       inkscape:vp_y="0 : 1000 : 0"
       inkscape:vp_z="320 : 160 : 1"
       inkscape:persp3d-origin="160 : 106.66667 : 1"
       id="perspective9" />
    <inkscape:perspective
       id="perspective8"
       inkscape:persp3d-origin="160 : 106.66667 : 1"
       inkscape:vp_z="320 : 160 : 1"
       inkscape:vp_y="0 : 1000 : 0"
       inkscape:vp_x="0 : 160 : 1"
       sodipodi:type="inkscape:persp3d" />
  </defs>
  <path
     style="fill:#008000;fill-opacity:1;fill-rule:evenodd;stroke:#000000;stroke-width:0.60377359;stroke-opacity:1"
     d="M 154.9637,170.97409 C 152.2534,169.70575 149.87135,167.1773 148.68228,164.30663 C 147.91174,162.44635 147.83014,162.41509 143.74562,162.41509 L 139.59245,162.41509 L 139.59245,160 L 139.59245,157.58491 L 143.79062,157.58491 L 147.98877,157.58491 L 149.15617,154.94585 C 149.79822,153.49436 150.62603,152.11983 150.99573,151.89134 C 151.47602,151.59449 151.66792,142.17847 151.66792,118.90776 L 151.66792,86.339623 L 154.68679,86.339623 L 157.70566,86.339623 L 157.70566,77.584906 L 157.70566,68.830189 L 159.81887,68.830189 L 161.93208,68.830189 L 161.93208,77.584906 L 161.93208,86.339623 L 164.95094,86.339623 L 167.96981,86.339623 L 167.98079,118.49057 L 167.99178,150.64151 L 169.79211,153.2984 C 170.7823,154.7597 171.59245,156.32196 171.59245,156.7701 C 171.59245,157.37639 172.67402,157.58491 175.81887,157.58491 L 180.04528,157.58491 L 180.04528,160 L 180.04528,162.41509 L 176.20231,162.41509 L 172.35935,162.41509 L 170.8863,165.27749 C 167.87856,171.1221 160.73856,173.67657 154.9637,170.9741 L 154.9637,170.97409 z M 163.55966,166.66808 C 166.16231,165.08114 167.64048,162.66581 167.64048,160 C 167.64048,158.78549 167.15642,157.05304 166.56479,156.15009 C 165.23804,154.12521 162.10845,152.15622 160.212,152.1532 C 156.27553,152.14693 152.2717,156.10361 152.2717,160 C 152.2717,163.89725 156.18552,167.80309 160.12075,167.83305 C 160.95094,167.83938 162.49845,167.31513 163.55965,166.66808 L 163.55966,166.66808 z"
     id="path2382" />
  <path
     style="fill:#ffcc00;fill-opacity:1"
     d="M 154.05434,169.76626 C 152.71022,168.89468 150.75768,166.87897 149.71538,165.28691 C 147.84755,162.43374 147.76398,162.38619 143.88758,161.97106 C 140.05295,161.56039 139.95472,161.50641 139.95472,159.80891 L 139.95472,158.06792 L 144.03019,158.06649 L 148.10566,158.06505 L 149.91698,154.59962 L 151.7283,151.13418 L 151.89458,118.97842 L 152.06086,86.822642 L 155.06439,86.822642 L 158.06792,86.822642 L 158.06792,78.067925 L 158.06792,69.313208 L 159.87925,69.313208 L 161.69057,69.313208 L 161.69057,78.067925 L 161.69057,86.822642 L 164.70943,86.822642 L 167.7283,86.822642 L 167.7283,118.90232 L 167.7283,150.98199 L 169.08679,153.15794 C 169.83396,154.35471 170.72392,155.88112 171.06445,156.54996 C 171.57639,157.55547 172.38672,157.79696 175.7437,157.94457 C 179.79816,158.12283 179.80377,158.12557 179.80377,159.90683 C 179.80377,161.68191 179.78645,161.69057 176.22635,161.69057 L 172.64894,161.69057 L 170.33962,165.15073 C 167.39635,169.56062 164.40205,171.32752 159.84918,171.34101 C 157.24474,171.34875 155.95393,170.99794 154.0544,169.76626 L 154.05434,169.76626 z M 163.47405,167.06763 C 169.38288,163.74667 169.41217,156.44077 163.53045,152.99659 C 157.1008,149.23154 149.47411,156.80767 152.94243,163.51455 C 154.05923,165.67422 157.83499,168.33208 159.78626,168.33208 C 160.57721,168.33208 162.23668,167.76307 163.47405,167.06762 L 163.47405,167.06763 z"
     id="path2381" />
  <path
     sodipodi:nodetypes="ccccccccccccc"
     style="fill:#ffcc00;fill-opacity:1;fill-rule:evenodd;stroke:none"
     id="path27763"
     d="M 142.02663,64.792543 L 156.27842,50.702861 L 142.18874,36.451065 L 145.7379,32.916727 L 160.18724,47.181936 L 174.44311,33.064601 L 177.97337,36.641419 L 163.36973,50.741438 L 177.45941,64.993233 L 174.25022,68.521137 L 159.80088,54.255927 L 145.55299,68.357485 L 142.02663,64.792543 z" />
</svg>
