<?xml version="1.0" encoding="UTF-8" standalone="no"?>
<svg
   xmlns:dc="http://purl.org/dc/elements/1.1/"
   xmlns:cc="http://creativecommons.org/ns#"
   xmlns:rdf="http://www.w3.org/1999/02/22-rdf-syntax-ns#"
   xmlns:svg="http://www.w3.org/2000/svg"
   xmlns="http://www.w3.org/2000/svg"
   xmlns:sodipodi="http://sodipodi.sourceforge.net/DTD/sodipodi-0.dtd"
   xmlns:inkscape="http://www.inkscape.org/namespaces/inkscape"
   version="1.0"
   width="320"
   height="320"
   id="svg2"
   sodipodi:version="0.32"
   inkscape:version="0.46"
   sodipodi:docname="SpecialPP_Pillar.svg"
   inkscape:output_extension="org.inkscape.output.svg.inkscape">
  <metadata
     id="metadata6">
    <rdf:RDF>
      <cc:Work
         rdf:about="">
        <dc:format>image/svg+xml</dc:format>
        <dc:type
           rdf:resource="http://purl.org/dc/dcmitype/StillImage" />
      </cc:Work>
    </rdf:RDF>
  </metadata>
  <sodipodi:namedview
     inkscape:window-height="843"
     inkscape:window-width="1440"
     inkscape:pageshadow="2"
     inkscape:pageopacity="0.0"
     guidetolerance="10.0"
     gridtolerance="10.0"
     objecttolerance="10.0"
     borderopacity="1.0"
     bordercolor="#666666"
     pagecolor="#ffffff"
     id="base"
     showgrid="false"
     inkscape:zoom="1.65625"
     inkscape:cx="160"
     inkscape:cy="160"
     inkscape:window-x="-5"
     inkscape:window-y="-3"
     inkscape:current-layer="svg2" />
  <defs
     id="defs4">
    <inkscape:perspective
       sodipodi:type="inkscape:persp3d"
       inkscape:vp_x="0 : 160 : 1"
       inkscape:vp_y="0 : 1000 : 0"
       inkscape:vp_z="320 : 160 : 1"
       inkscape:persp3d-origin="160 : 106.66667 : 1"
       id="perspective8" />
  </defs>
  <path
     d="M 197,42.000005 L 191.40625,58.718755 L 184.875,56.625005 L 154.40625,124.6875 L 124.625,157.28125 L 116.84375,157.28125 L 116.71875,162.9375 L 147.78125,162.9375 C 149.06857,168.47045 154.01452,172.59374 159.9375,172.59375 C 165.86245,172.59375 170.80845,168.47323 172.09375,162.9375 L 196.21875,162.9375 L 196.21875,157.28125 L 188.4375,157.28125 L 185.96875,134.9375 L 202.59375,62.312505 L 195.4375,60.031255 L 201.03125,43.343755 L 197,42.000005 z M 189.125,65.125005 L 194.09375,66.906255 L 178.875,134.9375 L 181.34375,157.28125 L 172.09375,157.28125 C 170.81124,151.74169 165.86517,147.59375 159.9375,147.59375 C 154.01174,147.59375 149.06572,151.74438 147.78125,157.28125 L 134.1875,157.28125 L 160.4375,128.90625 L 189.125,65.125005 z M 167.425,160.10625 C 167.425,164.24625 164.065,167.60625 159.925,167.60625 C 155.785,167.60625 152.425,164.24625 152.425,160.10625 C 152.425,155.96625 155.785,152.60625 159.925,152.60625 C 164.065,152.60625 167.425,155.96625 167.425,160.10625 z"
     id="path27763"
     style="fill: rgb(0, 4, 7); fill-opacity: 1; fill-rule: evenodd; stroke: none;"
     sodipodi:nodetypes="ccccccccsccccccccccccccscccccsssc" />
  <path
     style="fill:#ffcc00;fill-opacity:1;fill-rule:evenodd"
     d="M 139.48251,152.06038 C 141.81694,149.48679 147.51909,143.30566 152.15396,138.32453 L 160.58101,129.26792 L 174.93168,97.388909 C 185.77461,73.302243 189.49543,65.591638 190.1539,65.844317 C 190.63324,66.028245 191.69558,66.346946 192.51472,66.552537 C 193.33392,66.758116 193.88951,67.232447 193.74949,67.606569 C 193.60948,67.980691 190.15082,83.230189 186.06364,101.49434 L 178.63233,134.70189 L 179.80921,145.72075 L 180.98602,156.73962 L 176.74101,156.73962 L 172.49606,156.73962 L 171.07478,154.06056 C 166.96875,146.32064 155.90358,145.19192 150.23022,151.93429 C 149.36036,152.96804 148.4835,154.47213 148.28154,155.27672 C 147.92211,156.7085 147.77962,156.73962 141.57621,156.73962 L 135.2381,156.73962 L 139.48251,152.06038 z"
     id="path2381" />
</svg>
