<?xml version="1.0" encoding="UTF-8" standalone="no"?>
<svg
   xmlns:dc="http://purl.org/dc/elements/1.1/"
   xmlns:cc="http://creativecommons.org/ns#"
   xmlns:rdf="http://www.w3.org/1999/02/22-rdf-syntax-ns#"
   xmlns:svg="http://www.w3.org/2000/svg"
   xmlns="http://www.w3.org/2000/svg"
   xmlns:sodipodi="http://sodipodi.sourceforge.net/DTD/sodipodi-0.dtd"
   xmlns:inkscape="http://www.inkscape.org/namespaces/inkscape"
   version="1.0"
   width="320"
   height="320"
   id="svg2"
   sodipodi:version="0.32"
   inkscape:version="0.46"
   sodipodi:docname="SpecialPP_Barrel.svg"
   inkscape:output_extension="org.inkscape.output.svg.inkscape">
  <metadata
     id="metadata6">
    <rdf:RDF>
      <cc:Work
         rdf:about="">
        <dc:format>image/svg+xml</dc:format>
        <dc:type
           rdf:resource="http://purl.org/dc/dcmitype/StillImage" />
      </cc:Work>
    </rdf:RDF>
  </metadata>
  <sodipodi:namedview
     inkscape:window-height="769"
     inkscape:window-width="1328"
     inkscape:pageshadow="2"
     inkscape:pageopacity="0.0"
     guidetolerance="10.0"
     gridtolerance="10.0"
     objecttolerance="10.0"
     borderopacity="1.0"
     bordercolor="#666666"
     pagecolor="#ffffff"
     id="base"
     showgrid="false"
     inkscape:zoom="1.696875"
     inkscape:cx="160"
     inkscape:cy="160"
     inkscape:window-x="0"
     inkscape:window-y="0"
     inkscape:current-layer="svg2" />
  <defs
     id="defs4">
    <inkscape:perspective
       sodipodi:type="inkscape:persp3d"
       inkscape:vp_x="0 : 160 : 1"
       inkscape:vp_y="0 : 1000 : 0"
       inkscape:vp_z="320 : 160 : 1"
       inkscape:persp3d-origin="160 : 106.66667 : 1"
       id="perspective8" />
  </defs>
  <path
     d="M 156,118 C 150.4354,118 144.87744,118.16306 138.8125,118.5 C 129.51501,119.01653 121.88072,120.77268 116.5625,127.125 C 111.51725,133.15127 108.83687,142.4064 106.84375,157.1875 L 98.8125,157.1875 L 98.8125,162.84375 L 147.84375,162.84375 C 149.13107,168.3767 154.07702,172.49999 160,172.5 C 165.92495,172.5 170.87095,168.37948 172.15625,162.84375 L 213.625,162.84375 L 213.625,157.25 L 206.15625,157.25 C 204.13147,142.38849 201.18262,133.06849 195.875,127.0625 C 190.2898,120.7424 182.48141,119.01633 173.1875,118.5 C 167.12256,118.16306 161.5646,118 156,118 z M 156,125 C 161.42719,125 166.85439,125.16899 172.8125,125.5 C 181.51859,125.98367 186.7102,127.2576 190.625,131.6875 C 194.25681,135.79718 197.12781,143.56407 199.09375,157.21875 L 172.15625,157.1875 C 170.87095,151.65177 165.92495,147.53125 160,147.53125 C 154.07702,147.53126 149.13107,151.65455 147.84375,157.1875 L 142.3125,157.1875 C 141.28155,144.61289 138.61649,135.71765 132.5,126.1875 C 134.45625,125.85571 136.64041,125.6415 139.1875,125.5 C 145.14561,125.16899 150.57281,125 156,125 z M 125.625,128.46875 C 131.90929,137.62236 134.26765,144.97696 135.28125,157.1875 L 113.9375,157.1875 C 115.87967,143.5078 118.52328,135.7031 121.9375,131.625 C 123.03607,130.31282 124.24515,129.28294 125.625,128.46875 z M 160,152.5 C 164.14,152.5 167.5,155.86 167.5,160 C 167.5,164.14 164.14,167.5 160,167.5 C 155.86,167.5 152.5,164.14 152.5,160 C 152.5,155.86 155.86,152.5 160,152.5 z"
     id="path90440"
     style="fill: rgb(0, 4, 7); fill-opacity: 1; fill-rule: evenodd; stroke: none;" />
  <path
     style="opacity:1;fill:#ffcc00;fill-opacity:0.75;fill-rule:nonzero;stroke:#000000;stroke-width:0.58931857;stroke-opacity:1"
     d="M 142.12915,153.4291 C 141.15792,145.07552 138.51638,136.38896 135.00437,129.99965 L 132.99129,126.33731 L 137.36586,125.9409 C 143.92805,125.34625 171.55884,125.48519 176.67418,126.13857 C 186.05248,127.33644 190.40377,130.26363 193.71633,137.60303 C 195.40679,141.34861 197.55256,149.19562 198.20505,154.01842 L 198.58381,156.81768 L 185.55062,156.81768 L 172.51748,156.81768 L 171.36159,154.55194 C 166.63284,145.28282 153.71272,144.9836 148.92081,154.03222 C 147.52441,156.66907 147.31901,156.81436 144.98532,156.81598 L 142.52312,156.81768 L 142.12915,153.4291 z"
     id="path2381" />
  <path
     style="opacity:1;fill:#ffdd55;fill-opacity:0.75;fill-rule:nonzero;stroke:#000000;stroke-width:0.58931857;stroke-opacity:1"
     d="M 114.37539,155.78637 C 114.54247,155.21915 114.97444,153.03131 115.33531,150.92449 C 116.9033,141.77029 119.92253,134.14714 123.26221,130.91018 C 125.28487,128.94975 125.371,128.92431 126.22048,130.03664 C 126.70169,130.66677 128.26204,133.56906 129.68789,136.48619 C 132.30065,141.8316 133.83253,147.18871 134.53274,153.4291 L 134.91298,156.81768 L 124.49229,156.81768 C 114.84496,156.81768 114.09413,156.74114 114.37538,155.78637 L 114.37539,155.78637 z"
     id="path2383" />
</svg>
