<?xml version="1.0" encoding="UTF-8" standalone="no"?>
<svg
   xmlns:dc="http://purl.org/dc/elements/1.1/"
   xmlns:cc="http://creativecommons.org/ns#"
   xmlns:rdf="http://www.w3.org/1999/02/22-rdf-syntax-ns#"
   xmlns:svg="http://www.w3.org/2000/svg"
   xmlns="http://www.w3.org/2000/svg"
   xmlns:sodipodi="http://sodipodi.sourceforge.net/DTD/sodipodi-0.dtd"
   xmlns:inkscape="http://www.inkscape.org/namespaces/inkscape"
   version="1.0"
   width="320"
   height="340"
   id="svg2"
   inkscape:version="0.47 r22583"
   sodipodi:docname="small_buoys.svg"
   style="display:inline">
  <metadata
     id="metadata2913">
    <rdf:RDF>
      <cc:Work
         rdf:about="">
        <dc:format>image/svg+xml</dc:format>
        <dc:type
           rdf:resource="http://purl.org/dc/dcmitype/StillImage" />
        <dc:title></dc:title>
      </cc:Work>
    </rdf:RDF>
  </metadata>
  <sodipodi:namedview
     pagecolor="#ffffff"
     bordercolor="#666666"
     borderopacity="1"
     objecttolerance="10"
     gridtolerance="10"
     guidetolerance="10"
     inkscape:pageopacity="0"
     inkscape:pageshadow="2"
     inkscape:window-width="1920"
     inkscape:window-height="1088"
     id="namedview2911"
     showgrid="true"
     inkscape:zoom="5.6843751"
     inkscape:cx="114.99055"
     inkscape:cy="221.59834"
     inkscape:window-x="1440"
     inkscape:window-y="0"
     inkscape:window-maximized="0"
     inkscape:current-layer="layer6"
     inkscape:snap-grids="false">
    <inkscape:grid
       type="xygrid"
       id="grid2919"
       empspacing="5"
       visible="true"
       enabled="true"
       snapvisiblegridlinesonly="true" />
  </sodipodi:namedview>
  <defs
     id="defs4">
    <inkscape:perspective
       sodipodi:type="inkscape:persp3d"
       inkscape:vp_x="0 : 160 : 1"
       inkscape:vp_y="0 : 1000 : 0"
       inkscape:vp_z="320 : 160 : 1"
       inkscape:persp3d-origin="160 : 106.66667 : 1"
       id="perspective2915" />
    <inkscape:perspective
       id="perspective2862"
       inkscape:persp3d-origin="160 : 106.66667 : 1"
       inkscape:vp_z="320 : 160 : 1"
       inkscape:vp_y="0 : 1000 : 0"
       inkscape:vp_x="0 : 160 : 1"
       sodipodi:type="inkscape:persp3d" />
    <inkscape:perspective
       id="perspective2933"
       inkscape:persp3d-origin="160 : 106.66667 : 1"
       inkscape:vp_z="320 : 160 : 1"
       inkscape:vp_y="0 : 1000 : 0"
       inkscape:vp_x="0 : 160 : 1"
       sodipodi:type="inkscape:persp3d" />
    <inkscape:perspective
       id="perspective2989"
       inkscape:persp3d-origin="160 : 106.66667 : 1"
       inkscape:vp_z="320 : 160 : 1"
       inkscape:vp_y="0 : 1000 : 0"
       inkscape:vp_x="0 : 160 : 1"
       sodipodi:type="inkscape:persp3d" />
    <inkscape:perspective
       id="perspective3073"
       inkscape:persp3d-origin="160 : 106.66667 : 1"
       inkscape:vp_z="320 : 160 : 1"
       inkscape:vp_y="0 : 1000 : 0"
       inkscape:vp_x="0 : 160 : 1"
       sodipodi:type="inkscape:persp3d" />
    <inkscape:perspective
       id="perspective3123"
       inkscape:persp3d-origin="160 : 106.66667 : 1"
       inkscape:vp_z="320 : 160 : 1"
       inkscape:vp_y="0 : 1000 : 0"
       inkscape:vp_x="0 : 160 : 1"
       sodipodi:type="inkscape:persp3d" />
    <inkscape:perspective
       id="perspective3203"
       inkscape:persp3d-origin="160 : 106.66667 : 1"
       inkscape:vp_z="320 : 160 : 1"
       inkscape:vp_y="0 : 1000 : 0"
       inkscape:vp_x="0 : 160 : 1"
       sodipodi:type="inkscape:persp3d" />
    <inkscape:perspective
       id="perspective3274"
       inkscape:persp3d-origin="200 : 133.33333 : 1"
       inkscape:vp_z="400 : 200 : 1"
       inkscape:vp_y="0 : 1000 : 0"
       inkscape:vp_x="0 : 200 : 1"
       sodipodi:type="inkscape:persp3d" />
    <inkscape:perspective
       id="perspective3401"
       inkscape:persp3d-origin="200 : 133.33333 : 1"
       inkscape:vp_z="400 : 200 : 1"
       inkscape:vp_y="0 : 1000 : 0"
       inkscape:vp_x="0 : 200 : 1"
       sodipodi:type="inkscape:persp3d" />
    <inkscape:perspective
       id="perspective3639"
       inkscape:persp3d-origin="200 : 133.33333 : 1"
       inkscape:vp_z="400 : 200 : 1"
       inkscape:vp_y="0 : 1000 : 0"
       inkscape:vp_x="0 : 200 : 1"
       sodipodi:type="inkscape:persp3d" />
    <inkscape:perspective
       id="perspective3689"
       inkscape:persp3d-origin="200 : 133.33333 : 1"
       inkscape:vp_z="400 : 200 : 1"
       inkscape:vp_y="0 : 1000 : 0"
       inkscape:vp_x="0 : 200 : 1"
       sodipodi:type="inkscape:persp3d" />
    <inkscape:perspective
       id="perspective3739"
       inkscape:persp3d-origin="200 : 133.33333 : 1"
       inkscape:vp_z="400 : 200 : 1"
       inkscape:vp_y="0 : 1000 : 0"
       inkscape:vp_x="0 : 200 : 1"
       sodipodi:type="inkscape:persp3d" />
    <inkscape:perspective
       id="perspective3172"
       inkscape:persp3d-origin="160 : 106.66667 : 1"
       inkscape:vp_z="320 : 160 : 1"
       inkscape:vp_y="0 : 1000 : 0"
       inkscape:vp_x="0 : 160 : 1"
       sodipodi:type="inkscape:persp3d" />
    <inkscape:perspective
       id="perspective3440"
       inkscape:persp3d-origin="160 : 106.66667 : 1"
       inkscape:vp_z="320 : 160 : 1"
       inkscape:vp_y="0 : 1000 : 0"
       inkscape:vp_x="0 : 160 : 1"
       sodipodi:type="inkscape:persp3d" />
    <inkscape:perspective
       id="perspective3530"
       inkscape:persp3d-origin="160 : 106.66667 : 1"
       inkscape:vp_z="320 : 160 : 1"
       inkscape:vp_y="0 : 1000 : 0"
       inkscape:vp_x="0 : 160 : 1"
       sodipodi:type="inkscape:persp3d" />
    <inkscape:perspective
       id="perspective3736"
       inkscape:persp3d-origin="160 : 106.66667 : 1"
       inkscape:vp_z="320 : 160 : 1"
       inkscape:vp_y="0 : 1000 : 0"
       inkscape:vp_x="0 : 160 : 1"
       sodipodi:type="inkscape:persp3d" />
    <inkscape:perspective
       id="perspective3792"
       inkscape:persp3d-origin="160 : 106.66667 : 1"
       inkscape:vp_z="320 : 160 : 1"
       inkscape:vp_y="0 : 1000 : 0"
       inkscape:vp_x="0 : 160 : 1"
       sodipodi:type="inkscape:persp3d" />
    <inkscape:perspective
       id="perspective3882"
       inkscape:persp3d-origin="160 : 106.66667 : 1"
       inkscape:vp_z="320 : 160 : 1"
       inkscape:vp_y="0 : 1000 : 0"
       inkscape:vp_x="0 : 160 : 1"
       sodipodi:type="inkscape:persp3d" />
    <inkscape:perspective
       id="perspective3947"
       inkscape:persp3d-origin="160 : 106.66667 : 1"
       inkscape:vp_z="320 : 160 : 1"
       inkscape:vp_y="0 : 1000 : 0"
       inkscape:vp_x="0 : 160 : 1"
       sodipodi:type="inkscape:persp3d" />
    <inkscape:perspective
       id="perspective2981"
       inkscape:persp3d-origin="160 : 106.66667 : 1"
       inkscape:vp_z="320 : 160 : 1"
       inkscape:vp_y="0 : 1000 : 0"
       inkscape:vp_x="0 : 160 : 1"
       sodipodi:type="inkscape:persp3d" />
    <inkscape:perspective
       id="perspective2931"
       inkscape:persp3d-origin="70 : 46.666667 : 1"
       inkscape:vp_z="140 : 70 : 1"
       inkscape:vp_y="0 : 1000 : 0"
       inkscape:vp_x="0 : 70 : 1"
       sodipodi:type="inkscape:persp3d" />
    <inkscape:perspective
       id="perspective3033"
       inkscape:persp3d-origin="70 : 46.666667 : 1"
       inkscape:vp_z="140 : 70 : 1"
       inkscape:vp_y="0 : 1000 : 0"
       inkscape:vp_x="0 : 70 : 1"
       sodipodi:type="inkscape:persp3d" />
    <inkscape:perspective
       id="perspective3083"
       inkscape:persp3d-origin="70 : 46.666667 : 1"
       inkscape:vp_z="140 : 70 : 1"
       inkscape:vp_y="0 : 1000 : 0"
       inkscape:vp_x="0 : 70 : 1"
       sodipodi:type="inkscape:persp3d" />
  </defs>
  <g
     inkscape:groupmode="layer"
     id="layer6"
     inkscape:label="Barrel Buoy"
     style="display:inline">
    <g
       id="g3795"
       transform="translate(0.04501062,9.9909525)">
      <path
         style="fill:#000407;fill-opacity:1;fill-rule:evenodd;stroke:none"
         id="path90440-2"
         d="m 156,118 c -5.5646,0 -11.12256,0.16306 -17.1875,0.5 -9.29749,0.51653 -16.93178,2.27268 -22.25,8.625 -5.04525,6.02627 -7.72563,15.2814 -9.71875,30.0625 l -8.03125,0 0,5.65625 49.03125,0 c 1.28732,5.53295 6.23327,9.65624 12.15625,9.65625 5.92495,0 10.87095,-4.12052 12.15625,-9.65625 l 41.46875,0 0,-5.59375 -7.46875,0 C 204.13147,142.38849 201.18262,133.06849 195.875,127.0625 190.2898,120.7424 182.48141,119.01633 173.1875,118.5 167.12256,118.16306 161.5646,118 156,118 z m 0,7 c 5.42719,0 10.85439,0.16899 16.8125,0.5 8.70609,0.48367 13.8977,1.7576 17.8125,6.1875 3.63181,4.10968 6.50281,11.87657 8.46875,25.53125 l -26.9375,-0.0312 c -1.2853,-5.53573 -6.2313,-9.65625 -12.15625,-9.65625 -5.92298,1e-5 -10.86893,4.1233 -12.15625,9.65625 l -5.53125,0 c -1.03095,-12.57461 -3.69601,-21.46985 -9.8125,-31 1.95625,-0.33179 4.14041,-0.546 6.6875,-0.6875 5.95811,-0.33101 11.38531,-0.5 16.8125,-0.5 z m -30.375,3.46875 c 6.28429,9.15361 8.64265,16.50821 9.65625,28.71875 l -21.34375,0 c 1.94217,-13.6797 4.58578,-21.4844 8,-25.5625 1.09857,-1.31218 2.30765,-2.34206 3.6875,-3.15625 z M 160,152.5 c 4.14,0 7.5,3.36 7.5,7.5 0,4.14 -3.36,7.5 -7.5,7.5 -4.14,0 -7.5,-3.36 -7.5,-7.5 0,-4.14 3.36,-7.5 7.5,-7.5 z" />
    </g>
    <g
       style="display:inline"
       transform="matrix(0.94832366,-0.31730466,0.31730466,0.94832366,-41.498847,77.405199)"
       id="g336484">
      <path
         sodipodi:nodetypes="ccccc"
         d="m 179.34375,93.031245 -6.375,18.562505 c 0.005,0.001 4.12677,1.28438 4.09375,1.25 l 6.3125,-18.468755 -4.03125,-1.34375 z"
         id="path336486"
         style="fill:#000407;fill-opacity:1;fill-rule:evenodd;stroke:none" />
    </g>
    <g
       id="g336488"
       transform="matrix(0.94832366,-0.31730466,0.31730466,0.94832366,-41.576981,95.205335)"
       style="display:inline">
      <path
         sodipodi:nodetypes="ccccccccccccc"
         style="fill:none;fill-opacity:1;fill-rule:evenodd;stroke:#000000;stroke-opacity:1"
         id="path336490"
         d="m 166.75,81.299997 17.9375,-8.9375 -8.9375,-17.937503 4.475,-2.25 9.275,18.062503 17.95,-8.962503 2.2375,4.500003 -18.275,8.8375 8.9375,17.937498 -4.15,2.35 -9.275,-18.062498 -17.9375,8.95 -2.2375,-4.4875 z" />
    </g>
    <path
       style="fill:#ffd400;fill-opacity:1;stroke:#000000;stroke-width:0.17592083000000000;stroke-opacity:1"
       d="m 142.45222,167.0043 c -0.0433,-0.075 -0.13252,-0.80934 -0.19832,-1.63177 -0.0658,-0.82243 -0.27577,-2.60363 -0.4666,-3.95822 -1.31458,-9.33096 -3.88996,-16.71074 -8.38763,-24.03479 l -0.71547,-1.16508 0.97719,-0.11485 c 7.89882,-0.92835 23.37932,-1.25061 34.70354,-0.72243 8.74243,0.40776 11.97209,0.80461 15.16116,1.86294 7.56302,2.50989 11.54066,8.98024 14.37443,23.38256 0.50079,2.54524 1.07464,5.92607 1.07464,6.33126 0,0.11824 -4.46853,0.17781 -13.33786,0.17781 l -13.33785,0 -0.31573,-1.01154 c -0.39248,-1.25743 -1.25789,-2.81934 -2.2756,-4.10704 -3.16886,-4.00956 -9.12477,-5.6274 -14.00949,-3.80548 -3.38466,1.26243 -6.54771,4.53904 -7.56843,7.84016 l -0.30794,0.99594 -2.64568,0.0485 c -1.45512,0.0267 -2.68108,-0.0129 -2.72436,-0.088 z"
       id="path337006" />
    <path
       style="fill:#ffd400;fill-opacity:1;stroke:#000000;stroke-width:0.17592083;stroke-opacity:1"
       d="m 114.18132,166.73258 c 0,-0.72755 1.05442,-6.68079 1.68976,-9.54037 2.04641,-9.21065 4.75826,-14.87687 8.44545,-17.64621 0.66643,-0.50053 1.25126,-0.90658 1.29964,-0.90232 0.0484,0.004 0.47696,0.61702 0.95239,1.3617 5.12236,8.02318 7.39825,14.74361 8.42681,24.88336 l 0.22753,2.24299 -10.52079,0 -10.52079,0 0,-0.39915 z"
       id="path337008" />
    <path
       style="fill:#ffd400;fill-opacity:1;stroke:#000000;stroke-width:0.17592083;stroke-opacity:1"
       d="m 144.57015,120.73396 -1.36251,-1.36251 7.08031,-7.08192 7.0803,-7.08193 -7.0803,-7.081924 -7.08031,-7.081925 1.35198,-1.35198 1.35198,-1.35198 7.01417,6.894598 c 3.85779,3.792029 7.12861,6.973371 7.2685,7.069651 0.19939,0.13724 1.78434,-1.35461 7.33756,-6.906558 l 7.08324,-7.081612 1.34101,1.365052 1.34101,1.365052 -7.19285,7.012296 c -3.95607,3.85676 -7.19285,7.10288 -7.19285,7.21359 0,0.11071 3.12699,3.32753 6.94887,7.1485 3.82188,3.82096 6.94887,6.99239 6.94887,7.04763 0,0.0552 -0.50424,0.66029 -1.12053,1.34457 l -1.12054,1.24413 -6.04824,-5.89852 -6.04823,-5.89852 -0.0532,-0.85477 -0.0532,-0.85478 -0.81258,0 c -0.50924,0 -0.93268,-0.10869 -1.13429,-0.29115 -0.29936,-0.27091 -0.34407,-0.27091 -0.64343,0 -0.19112,0.17297 -0.61958,0.29115 -1.05552,0.29115 l -0.73381,0 0,0.74862 0,0.74862 -6.02647,6.02457 -6.02647,6.02457 -1.36252,-1.36252 0,0 z"
       id="path337010" />
  </g>
</svg>
