<?xml version="1.0" encoding="UTF-8" standalone="no"?>
<svg
   xmlns:dc="http://purl.org/dc/elements/1.1/"
   xmlns:cc="http://creativecommons.org/ns#"
   xmlns:rdf="http://www.w3.org/1999/02/22-rdf-syntax-ns#"
   xmlns:svg="http://www.w3.org/2000/svg"
   xmlns="http://www.w3.org/2000/svg"
   xmlns:sodipodi="http://sodipodi.sourceforge.net/DTD/sodipodi-0.dtd"
   xmlns:inkscape="http://www.inkscape.org/namespaces/inkscape"
   version="1.0"
   width="320"
   height="320"
   id="svg2"
   sodipodi:version="0.32"
   inkscape:version="0.46"
   sodipodi:docname="SpecialPP_Spar.svg"
   inkscape:output_extension="org.inkscape.output.svg.inkscape">
  <metadata
     id="metadata7">
    <rdf:RDF>
      <cc:Work
         rdf:about="">
        <dc:format>image/svg+xml</dc:format>
        <dc:type
           rdf:resource="http://purl.org/dc/dcmitype/StillImage" />
      </cc:Work>
    </rdf:RDF>
  </metadata>
  <sodipodi:namedview
     inkscape:window-height="843"
     inkscape:window-width="1440"
     inkscape:pageshadow="2"
     inkscape:pageopacity="0.0"
     guidetolerance="10.0"
     gridtolerance="10.0"
     objecttolerance="10.0"
     borderopacity="1.0"
     bordercolor="#666666"
     pagecolor="#ffffff"
     id="base"
     showgrid="false"
     inkscape:zoom="1.65625"
     inkscape:cx="160"
     inkscape:cy="160"
     inkscape:window-x="-5"
     inkscape:window-y="-3"
     inkscape:current-layer="svg2" />
  <defs
     id="defs4">
    <inkscape:perspective
       sodipodi:type="inkscape:persp3d"
       inkscape:vp_x="0 : 160 : 1"
       inkscape:vp_y="0 : 1000 : 0"
       inkscape:vp_z="320 : 160 : 1"
       inkscape:persp3d-origin="160 : 106.66667 : 1"
       id="perspective9" />
  </defs>
  <path
     d="M 197.34375,40.593749 L 191.40625,58.718749 L 187.15625,57.312499 L 157.0625,147.9375 C 152.47393,149.03582 148.84915,152.67794 147.78125,157.28125 L 139.34375,157.28125 L 139.21875,162.9375 L 147.78125,162.9375 C 149.06857,168.47045 154.01452,172.59374 159.9375,172.59375 C 165.86245,172.59375 170.80845,168.47323 172.09375,162.9375 L 180.41875,162.89375 L 180.41875,157.2375 L 172.09375,157.28125 C 171.60425,155.16694 170.59526,153.24311 169.1875,151.6875 L 199.1875,61.218749 L 195.4375,60.031249 L 201.71875,42.062499 L 197.34375,40.593749 z M 159.9375,152.59375 C 164.0775,152.59375 167.4375,155.95375 167.4375,160.09375 C 167.4375,164.23375 164.0775,167.59375 159.9375,167.59375 C 155.7975,167.59375 152.4375,164.23375 152.4375,160.09375 C 152.4375,155.95375 155.7975,152.59375 159.9375,152.59375 z"
     id="path13045"
     style="fill: rgb(0, 4, 7); fill-opacity: 1; fill-rule: evenodd; stroke: none;"
     sodipodi:nodetypes="ccccccccsccccccccccsssc" />
  <path
     style="fill:#ffcc00;fill-opacity:1;fill-rule:evenodd;stroke:#000000;stroke-width:0.60377359;stroke-opacity:1"
     d="M 156.19623,171.70926 C 153.24679,170.67828 150.784,168.50507 149.21648,165.55022 L 147.74545,162.77736 L 143.66895,162.77736 L 139.59245,162.77736 L 139.59245,160.06038 L 139.59245,157.3434 L 143.81078,157.3434 C 147.99638,157.3434 148.03556,157.32818 148.86279,155.38113 C 149.97458,152.76432 152.21078,150.46312 155.06337,149.00025 L 157.40377,147.80004 L 172.40356,102.73761 C 186.7334,59.687765 187.46149,57.693718 188.70545,58.090337 C 191.50267,58.982195 191.62886,58.805712 194.65751,49.764607 L 197.62608,40.902798 L 199.40172,41.521793 C 200.37832,41.862225 201.17736,42.288097 201.17736,42.468166 C 201.17736,42.786524 196.2749,56.956655 195.42768,59.087088 C 195.09995,59.9113 195.4368,60.302261 196.92033,60.819417 C 198.19218,61.262798 198.72501,61.777147 198.50536,62.349549 C 198.32338,62.823777 191.6192,83.046623 183.60725,107.28921 L 169.04,151.36665 L 170.45875,154.35501 L 171.87755,157.3434 L 175.96142,157.3434 L 180.04528,157.3434 L 180.04528,160.06038 L 180.04528,162.77736 L 175.94017,162.77736 L 171.83511,162.77736 L 171.08963,164.83864 C 169.12531,170.27103 161.77811,173.66041 156.19623,171.70925 L 156.19623,171.70926 z M 165.23272,165.47422 C 167.30162,163.40531 167.68103,162.17992 167.37183,158.56587 C 167.08963,155.26724 163.5907,152.52326 159.65905,152.51719 C 154.28812,152.50889 150.54563,158.87464 153.11571,163.64692 C 154.53102,166.27509 156.87807,167.57245 160.25159,167.59148 C 162.7168,167.60539 163.38596,167.32098 165.23272,165.47422 z"
     id="path2382" />
</svg>
