<?xml version="1.0" encoding="UTF-8" standalone="no"?>
<svg
   xmlns:dc="http://purl.org/dc/elements/1.1/"
   xmlns:cc="http://creativecommons.org/ns#"
   xmlns:rdf="http://www.w3.org/1999/02/22-rdf-syntax-ns#"
   xmlns:svg="http://www.w3.org/2000/svg"
   xmlns="http://www.w3.org/2000/svg"
   xmlns:sodipodi="http://sodipodi.sourceforge.net/DTD/sodipodi-0.dtd"
   xmlns:inkscape="http://www.inkscape.org/namespaces/inkscape"
   version="1.0"
   width="320"
   height="320"
   id="svg2"
   sodipodi:version="0.32"
   inkscape:version="0.46"
   sodipodi:docname="Sphere_Pillar_Red.svg"
   inkscape:output_extension="org.inkscape.output.svg.inkscape">
  <metadata
     id="metadata6">
    <rdf:RDF>
      <cc:Work
         rdf:about="">
        <dc:format>image/svg+xml</dc:format>
        <dc:type
           rdf:resource="http://purl.org/dc/dcmitype/StillImage" />
      </cc:Work>
    </rdf:RDF>
  </metadata>
  <sodipodi:namedview
     inkscape:window-height="735"
     inkscape:window-width="640"
     inkscape:pageshadow="2"
     inkscape:pageopacity="0.0"
     guidetolerance="10.0"
     gridtolerance="10.0"
     objecttolerance="10.0"
     borderopacity="1.0"
     bordercolor="#666666"
     pagecolor="#ffffff"
     id="base"
     showgrid="false"
     inkscape:zoom="1.65625"
     inkscape:cx="160"
     inkscape:cy="160"
     inkscape:window-x="0"
     inkscape:window-y="0"
     inkscape:current-layer="svg2" />
  <defs
     id="defs4">
    <inkscape:perspective
       sodipodi:type="inkscape:persp3d"
       inkscape:vp_x="0 : 160 : 1"
       inkscape:vp_y="0 : 1000 : 0"
       inkscape:vp_z="320 : 160 : 1"
       inkscape:persp3d-origin="160 : 106.66667 : 1"
       id="perspective8" />
  </defs>
  <path
     d="M 206,5.6875 C 196.64334,5.6875 189,13.330843 189,22.6875 C 189,32.044157 196.64334,39.6875 206,39.6875 C 215.35666,39.6875 223,32.044157 223,22.6875 C 223,13.330843 215.35666,5.6875001 206,5.6875 z M 206,10.6875 C 212.65134,10.6875 218,16.036157 218,22.6875 C 218,29.338843 212.65134,34.6875 206,34.6875 C 199.34866,34.6875 194,29.338843 194,22.6875 C 194,16.036157 199.34866,10.6875 206,10.6875 z"
     id="path13269"
     style="fill: rgb(0, 4, 7); fill-opacity: 1; fill-rule: evenodd; stroke: none;"
     sodipodi:nodetypes="csssccsssc" />
  <path
     style="fill:#d40000;fill-opacity:1;fill-rule:evenodd"
     d="M 201.47925,33.270424 C 198.66823,31.968966 196.09102,29.395991 195.17803,26.979562 C 194.29065,24.630913 194.37427,20.272465 195.35157,17.93344 C 197.17302,13.574116 203.06514,10.366672 207.78652,11.164347 C 216.51481,12.63898 220.60509,23.483762 214.8886,29.994482 C 211.23627,34.154276 206.09903,35.409316 201.47925,33.270424 z"
     id="path2381" />
</svg>
