<?xml version="1.0" encoding="UTF-8" standalone="no"?>
<!-- Generator: Adobe Illustrator 14.0.0, SVG Export Plug-In . SVG Version: 6.00 Build 43363)  -->
<svg
   xmlns:dc="http://purl.org/dc/elements/1.1/"
   xmlns:cc="http://creativecommons.org/ns#"
   xmlns:rdf="http://www.w3.org/1999/02/22-rdf-syntax-ns#"
   xmlns:svg="http://www.w3.org/2000/svg"
   xmlns="http://www.w3.org/2000/svg"
   xmlns:sodipodi="http://sodipodi.sourceforge.net/DTD/sodipodi-0.dtd"
   xmlns:inkscape="http://www.inkscape.org/namespaces/inkscape"
   version="1.1"
   id="Ebene_1"
   inkscape:export-filename="C:\Dokumente und Einstellungen\rolf\Eigene Dateien\Eigene Karten\Fäkalien_Entsorgung.png"
   inkscape:output_extension="org.inkscape.output.svg.inkscape"
   sodipodi:docname="waste_disposal.svg"
   inkscape:export-ydpi="90"
   inkscape:version="0.46"
   inkscape:export-xdpi="90"
   sodipodi:version="0.32"
   x="0px"
   y="0px"
   width="180px"
   height="180px"
   viewBox="0 0 180 180"
   enable-background="new 0 0 180 180"
   xml:space="preserve"><metadata
   id="metadata12"><rdf:RDF><cc:Work
       rdf:about=""><dc:format>image/svg+xml</dc:format><dc:type
         rdf:resource="http://purl.org/dc/dcmitype/StillImage" /></cc:Work></rdf:RDF></metadata>
<defs
   id="defs3">
	
	
		<inkscape:perspective
   id="perspective2461"
   inkscape:vp_z="180 : 90 : 1"
   inkscape:vp_y="0 : 1000 : 0"
   inkscape:vp_x="0 : 90 : 1"
   sodipodi:type="inkscape:persp3d"
   inkscape:persp3d-origin="90 : 60 : 1">
		</inkscape:perspective>
</defs>
<sodipodi:namedview
   id="base"
   showgrid="false"
   pagecolor="#ffffff"
   bordercolor="#666666"
   borderopacity="1.0"
   objecttolerance="10.0"
   gridtolerance="10.0"
   guidetolerance="10.0"
   inkscape:pageshadow="2"
   inkscape:window-width="1440"
   inkscape:window-height="843"
   inkscape:pageopacity="0.0"
   inkscape:zoom="2.9444444"
   inkscape:cx="90"
   inkscape:cy="90"
   inkscape:window-x="-5"
   inkscape:window-y="-3"
   inkscape:current-layer="Ebene_1">
	</sodipodi:namedview>
<rect
   id="rect2444"
   x="22.879"
   y="22"
   width="136.19"
   height="136.001"
   stroke-linecap="round"
   stroke-width="5"
   stroke="#000000"
   fill="none" />
<polyline
   id="polyline2448"
   fill="none"
   stroke="#000000"
   stroke-width="4"
   stroke-linecap="round"
   stroke-miterlimit="3.863"
   points="  101.565,81.659 73.936,81.659 62.656,93.322 34.543,93.322 62.978,118.943 129.196,118.943 145.951,109.745 145.951,95.145   125.413,95.145 " />
<polygon
   id="polygon2450"
   points="126.377,85.308 126.377,67.065 148.608,76.185 " />
<polygon
   id="polygon2452"
   points="91.981,109.902 91.981,93.48 115.825,93.48 115.825,104.982 112.601,109.902 " />
<polyline
   id="polyline2454"
   fill="none"
   stroke="#000000"
   stroke-width="6"
   stroke-linecap="round"
   stroke-linejoin="round"
   stroke-miterlimit="3.863"
   points="  100.116,107.604 86.261,107.604 86.261,60 108.976,60 108.976,76.185 127.988,76.185 " />
<path
   style="opacity:1;fill:#ffffff;fill-opacity:0.75;fill-rule:nonzero;stroke:#000000;stroke-width:0.33962265;stroke-opacity:1"
   d="M 25.539622,90.033962 L 25.539622,24.656603 L 90.916981,24.656603 L 156.29434,24.656603 L 156.29434,90.033962 L 156.29434,155.41132 L 90.916981,155.41132 L 25.539622,155.41132 L 25.539622,90.033962 z M 138.94265,116.1 L 148.1184,111.09057 L 148.13093,101.99312 L 148.1434,92.895674 L 136.22893,92.993118 C 124.88743,93.085879 124.29129,93.12227 123.8327,93.749818 C 123.21836,94.59052 123.21832,95.666003 123.8326,96.506786 C 124.28688,97.128513 124.86709,97.17172 134.02943,97.265894 L 143.7446,97.36576 L 143.65155,102.97557 L 143.55849,108.58539 L 136.19007,112.63987 L 128.82165,116.69434 L 96.276057,116.69434 L 63.730528,116.69434 L 52.128692,106.25094 L 40.526819,95.807547 L 52.018994,95.718227 L 63.511166,95.628906 L 69.190166,89.689925 L 74.869132,83.750943 L 79.072336,83.750943 L 83.275472,83.750943 L 83.275472,96.241405 C 83.275472,110.16283 83.235736,109.91554 85.577943,110.56604 C 87.649302,111.14131 99.697279,111.02167 101.15803,110.41132 C 102.06268,110.03333 103.72666,109.90189 107.60682,109.90189 L 112.83633,109.90189 L 114.35777,107.54996 L 115.87925,105.19804 L 115.87925,99.229208 L 115.87925,93.260377 L 103.82264,93.260377 L 91.766038,93.260377 L 91.766038,98.864151 L 91.766038,104.46792 L 90.577358,104.46792 L 89.388679,104.46792 L 89.388679,94.109434 L 89.388679,83.750943 L 95.84151,83.750943 C 101.84152,83.750943 102.34202,83.703277 102.97359,83.071698 C 103.85338,82.191919 103.83881,80.968126 102.93884,80.152638 C 102.29947,79.573286 101.55396,79.494633 95.806766,79.40017 L 89.388679,79.29468 L 89.388679,71.164321 L 89.388679,63.033962 L 97.515034,63.033962 L 105.64139,63.033962 L 105.75088,70.194508 L 105.86038,77.355044 L 106.96948,78.345452 L 108.07866,79.335849 L 117.07326,79.335849 L 126.06793,79.335849 L 126.06793,82.392453 C 126.06793,84.073585 126.15714,85.449057 126.2662,85.449057 C 126.57879,85.449057 148.28431,76.546246 148.56208,76.304102 C 148.81439,76.084162 127.27199,67.109434 126.49174,67.109434 C 126.18632,67.109434 126.06793,67.915783 126.06793,69.996226 L 126.06793,72.883019 L 119.12475,72.883019 L 112.18154,72.883019 L 112.07758,65.720897 L 111.97359,58.558775 L 111.00705,57.728041 L 110.04052,56.89731 L 97.375245,56.993936 L 84.70997,57.090566 L 84.003996,57.939622 C 83.324038,58.75745 83.297649,59.166536 83.286781,69.062264 L 83.275472,79.335849 L 78.206807,79.335849 L 73.138143,79.335849 L 67.433026,85.276032 L 61.727909,91.216216 L 45.441149,91.304334 L 29.154392,91.392453 L 45.601736,106.23782 L 62.049056,121.08319 L 95.907974,121.09631 L 129.76693,121.10943 L 138.94265,116.1 z"
   id="path2383" /></svg>